<?xml version="1.0" encoding="utf-8" standalone="no"?>
<!DOCTYPE svg PUBLIC "-//W3C//DTD SVG 1.1//EN"
  "http://www.w3.org/Graphics/SVG/1.1/DTD/svg11.dtd">
<svg xmlns:xlink="http://www.w3.org/1999/xlink" width="648pt" height="432pt" viewBox="0 0 648 432" xmlns="http://www.w3.org/2000/svg" version="1.1">
 <metadata>
  <rdf:RDF xmlns:dc="http://purl.org/dc/elements/1.1/" xmlns:cc="http://creativecommons.org/ns#" xmlns:rdf="http://www.w3.org/1999/02/22-rdf-syntax-ns#">
   <cc:Work>
    <dc:type rdf:resource="http://purl.org/dc/dcmitype/StillImage"/>
    <dc:date>2023-03-16T12:18:02.800673</dc:date>
    <dc:format>image/svg+xml</dc:format>
    <dc:creator>
     <cc:Agent>
      <dc:title>Matplotlib v3.6.1, https://matplotlib.org/</dc:title>
     </cc:Agent>
    </dc:creator>
   </cc:Work>
  </rdf:RDF>
 </metadata>
 <defs>
  <style type="text/css">*{stroke-linejoin: round; stroke-linecap: butt}</style>
 </defs>
 <g id="figure_1">
  <g id="patch_1">
   <path d="M 0 432 
L 648 432 
L 648 0 
L 0 0 
z
" style="fill: #ffffff"/>
  </g>
  <g id="axes_1">
   <g id="patch_2">
    <path d="M 81 109.191724 
L 583.2 109.191724 
L 583.2 51.84 
L 81 51.84 
z
" style="fill: #ffffff"/>
   </g>
   <g id="matplotlib.axis_1">
    <g id="xtick_1">
     <g id="line2d_1">
      <defs>
       <path id="m2d53c564e5" d="M 0 0 
L 0 6 
" style="stroke: #262626; stroke-width: 1.25"/>
      </defs>
      <g>
       <use xlink:href="#m2d53c564e5" x="103.827273" y="109.191724" style="fill: #262626; stroke: #262626; stroke-width: 1.25"/>
      </g>
     </g>
     <g id="text_1">
      <!-- 0 -->
      <g style="fill: #262626" transform="translate(100.327898 127.050005) scale(0.11 -0.11)">
       <defs>
        <path id="DejaVuSans-30" d="M 2034 4250 
Q 1547 4250 1301 3770 
Q 1056 3291 1056 2328 
Q 1056 1369 1301 889 
Q 1547 409 2034 409 
Q 2525 409 2770 889 
Q 3016 1369 3016 2328 
Q 3016 3291 2770 3770 
Q 2525 4250 2034 4250 
z
M 2034 4750 
Q 2819 4750 3233 4129 
Q 3647 3509 3647 2328 
Q 3647 1150 3233 529 
Q 2819 -91 2034 -91 
Q 1250 -91 836 529 
Q 422 1150 422 2328 
Q 422 3509 836 4129 
Q 1250 4750 2034 4750 
z
" transform="scale(0.015625)"/>
       </defs>
       <use xlink:href="#DejaVuSans-30"/>
      </g>
     </g>
    </g>
    <g id="xtick_2">
     <g id="line2d_2">
      <g>
       <use xlink:href="#m2d53c564e5" x="164.7" y="109.191724" style="fill: #262626; stroke: #262626; stroke-width: 1.25"/>
      </g>
     </g>
     <g id="text_2">
      <!-- 2000 -->
      <g style="fill: #262626" transform="translate(150.7025 127.050005) scale(0.11 -0.11)">
       <defs>
        <path id="DejaVuSans-32" d="M 1228 531 
L 3431 531 
L 3431 0 
L 469 0 
L 469 531 
Q 828 903 1448 1529 
Q 2069 2156 2228 2338 
Q 2531 2678 2651 2914 
Q 2772 3150 2772 3378 
Q 2772 3750 2511 3984 
Q 2250 4219 1831 4219 
Q 1534 4219 1204 4116 
Q 875 4013 500 3803 
L 500 4441 
Q 881 4594 1212 4672 
Q 1544 4750 1819 4750 
Q 2544 4750 2975 4387 
Q 3406 4025 3406 3419 
Q 3406 3131 3298 2873 
Q 3191 2616 2906 2266 
Q 2828 2175 2409 1742 
Q 1991 1309 1228 531 
z
" transform="scale(0.015625)"/>
       </defs>
       <use xlink:href="#DejaVuSans-32"/>
       <use xlink:href="#DejaVuSans-30" x="63.623047"/>
       <use xlink:href="#DejaVuSans-30" x="127.246094"/>
       <use xlink:href="#DejaVuSans-30" x="190.869141"/>
      </g>
     </g>
    </g>
    <g id="xtick_3">
     <g id="line2d_3">
      <g>
       <use xlink:href="#m2d53c564e5" x="225.572727" y="109.191724" style="fill: #262626; stroke: #262626; stroke-width: 1.25"/>
      </g>
     </g>
     <g id="text_3">
      <!-- 4000 -->
      <g style="fill: #262626" transform="translate(211.575227 127.050005) scale(0.11 -0.11)">
       <defs>
        <path id="DejaVuSans-34" d="M 2419 4116 
L 825 1625 
L 2419 1625 
L 2419 4116 
z
M 2253 4666 
L 3047 4666 
L 3047 1625 
L 3713 1625 
L 3713 1100 
L 3047 1100 
L 3047 0 
L 2419 0 
L 2419 1100 
L 313 1100 
L 313 1709 
L 2253 4666 
z
" transform="scale(0.015625)"/>
       </defs>
       <use xlink:href="#DejaVuSans-34"/>
       <use xlink:href="#DejaVuSans-30" x="63.623047"/>
       <use xlink:href="#DejaVuSans-30" x="127.246094"/>
       <use xlink:href="#DejaVuSans-30" x="190.869141"/>
      </g>
     </g>
    </g>
    <g id="xtick_4">
     <g id="line2d_4">
      <g>
       <use xlink:href="#m2d53c564e5" x="286.445455" y="109.191724" style="fill: #262626; stroke: #262626; stroke-width: 1.25"/>
      </g>
     </g>
     <g id="text_4">
      <!-- 6000 -->
      <g style="fill: #262626" transform="translate(272.447955 127.050005) scale(0.11 -0.11)">
       <defs>
        <path id="DejaVuSans-36" d="M 2113 2584 
Q 1688 2584 1439 2293 
Q 1191 2003 1191 1497 
Q 1191 994 1439 701 
Q 1688 409 2113 409 
Q 2538 409 2786 701 
Q 3034 994 3034 1497 
Q 3034 2003 2786 2293 
Q 2538 2584 2113 2584 
z
M 3366 4563 
L 3366 3988 
Q 3128 4100 2886 4159 
Q 2644 4219 2406 4219 
Q 1781 4219 1451 3797 
Q 1122 3375 1075 2522 
Q 1259 2794 1537 2939 
Q 1816 3084 2150 3084 
Q 2853 3084 3261 2657 
Q 3669 2231 3669 1497 
Q 3669 778 3244 343 
Q 2819 -91 2113 -91 
Q 1303 -91 875 529 
Q 447 1150 447 2328 
Q 447 3434 972 4092 
Q 1497 4750 2381 4750 
Q 2619 4750 2861 4703 
Q 3103 4656 3366 4563 
z
" transform="scale(0.015625)"/>
       </defs>
       <use xlink:href="#DejaVuSans-36"/>
       <use xlink:href="#DejaVuSans-30" x="63.623047"/>
       <use xlink:href="#DejaVuSans-30" x="127.246094"/>
       <use xlink:href="#DejaVuSans-30" x="190.869141"/>
      </g>
     </g>
    </g>
    <g id="xtick_5">
     <g id="line2d_5">
      <g>
       <use xlink:href="#m2d53c564e5" x="347.318182" y="109.191724" style="fill: #262626; stroke: #262626; stroke-width: 1.25"/>
      </g>
     </g>
     <g id="text_5">
      <!-- 8000 -->
      <g style="fill: #262626" transform="translate(333.320682 127.050005) scale(0.11 -0.11)">
       <defs>
        <path id="DejaVuSans-38" d="M 2034 2216 
Q 1584 2216 1326 1975 
Q 1069 1734 1069 1313 
Q 1069 891 1326 650 
Q 1584 409 2034 409 
Q 2484 409 2743 651 
Q 3003 894 3003 1313 
Q 3003 1734 2745 1975 
Q 2488 2216 2034 2216 
z
M 1403 2484 
Q 997 2584 770 2862 
Q 544 3141 544 3541 
Q 544 4100 942 4425 
Q 1341 4750 2034 4750 
Q 2731 4750 3128 4425 
Q 3525 4100 3525 3541 
Q 3525 3141 3298 2862 
Q 3072 2584 2669 2484 
Q 3125 2378 3379 2068 
Q 3634 1759 3634 1313 
Q 3634 634 3220 271 
Q 2806 -91 2034 -91 
Q 1263 -91 848 271 
Q 434 634 434 1313 
Q 434 1759 690 2068 
Q 947 2378 1403 2484 
z
M 1172 3481 
Q 1172 3119 1398 2916 
Q 1625 2713 2034 2713 
Q 2441 2713 2670 2916 
Q 2900 3119 2900 3481 
Q 2900 3844 2670 4047 
Q 2441 4250 2034 4250 
Q 1625 4250 1398 4047 
Q 1172 3844 1172 3481 
z
" transform="scale(0.015625)"/>
       </defs>
       <use xlink:href="#DejaVuSans-38"/>
       <use xlink:href="#DejaVuSans-30" x="63.623047"/>
       <use xlink:href="#DejaVuSans-30" x="127.246094"/>
       <use xlink:href="#DejaVuSans-30" x="190.869141"/>
      </g>
     </g>
    </g>
    <g id="xtick_6">
     <g id="line2d_6">
      <g>
       <use xlink:href="#m2d53c564e5" x="408.190909" y="109.191724" style="fill: #262626; stroke: #262626; stroke-width: 1.25"/>
      </g>
     </g>
     <g id="text_6">
      <!-- 10000 -->
      <g style="fill: #262626" transform="translate(390.694034 127.050005) scale(0.11 -0.11)">
       <defs>
        <path id="DejaVuSans-31" d="M 794 531 
L 1825 531 
L 1825 4091 
L 703 3866 
L 703 4441 
L 1819 4666 
L 2450 4666 
L 2450 531 
L 3481 531 
L 3481 0 
L 794 0 
L 794 531 
z
" transform="scale(0.015625)"/>
       </defs>
       <use xlink:href="#DejaVuSans-31"/>
       <use xlink:href="#DejaVuSans-30" x="63.623047"/>
       <use xlink:href="#DejaVuSans-30" x="127.246094"/>
       <use xlink:href="#DejaVuSans-30" x="190.869141"/>
       <use xlink:href="#DejaVuSans-30" x="254.492188"/>
      </g>
     </g>
    </g>
    <g id="xtick_7">
     <g id="line2d_7">
      <g>
       <use xlink:href="#m2d53c564e5" x="469.063636" y="109.191724" style="fill: #262626; stroke: #262626; stroke-width: 1.25"/>
      </g>
     </g>
     <g id="text_7">
      <!-- 12000 -->
      <g style="fill: #262626" transform="translate(451.566761 127.050005) scale(0.11 -0.11)">
       <use xlink:href="#DejaVuSans-31"/>
       <use xlink:href="#DejaVuSans-32" x="63.623047"/>
       <use xlink:href="#DejaVuSans-30" x="127.246094"/>
       <use xlink:href="#DejaVuSans-30" x="190.869141"/>
       <use xlink:href="#DejaVuSans-30" x="254.492188"/>
      </g>
     </g>
    </g>
    <g id="xtick_8">
     <g id="line2d_8">
      <g>
       <use xlink:href="#m2d53c564e5" x="529.936364" y="109.191724" style="fill: #262626; stroke: #262626; stroke-width: 1.25"/>
      </g>
     </g>
     <g id="text_8">
      <!-- 14000 -->
      <g style="fill: #262626" transform="translate(512.439489 127.050005) scale(0.11 -0.11)">
       <use xlink:href="#DejaVuSans-31"/>
       <use xlink:href="#DejaVuSans-34" x="63.623047"/>
       <use xlink:href="#DejaVuSans-30" x="127.246094"/>
       <use xlink:href="#DejaVuSans-30" x="190.869141"/>
       <use xlink:href="#DejaVuSans-30" x="254.492188"/>
      </g>
     </g>
    </g>
   </g>
   <g id="matplotlib.axis_2">
    <g id="ytick_1">
     <g id="line2d_9">
      <defs>
       <path id="mb9047e74c2" d="M 0 0 
L -6 0 
" style="stroke: #262626; stroke-width: 1.25"/>
      </defs>
      <g>
       <use xlink:href="#mb9047e74c2" x="81" y="85.931581" style="fill: #262626; stroke: #262626; stroke-width: 1.25"/>
      </g>
     </g>
     <g id="text_9">
      <!-- 0 -->
      <g style="fill: #262626" transform="translate(64.50125 90.110722) scale(0.11 -0.11)">
       <use xlink:href="#DejaVuSans-30"/>
      </g>
     </g>
    </g>
    <g id="ytick_2">
     <g id="line2d_10">
      <g>
       <use xlink:href="#mb9047e74c2" x="81" y="54.611544" style="fill: #262626; stroke: #262626; stroke-width: 1.25"/>
      </g>
     </g>
     <g id="text_10">
      <!-- 1 -->
      <g style="fill: #262626" transform="translate(64.50125 58.790685) scale(0.11 -0.11)">
       <use xlink:href="#DejaVuSans-31"/>
      </g>
     </g>
    </g>
   </g>
   <g id="line2d_11">
    <path d="M 103.827273 85.931581 
L 149.524734 86.018 
L 149.588651 88.191705 
L 149.631262 88.916042 
L 149.704309 88.415327 
L 149.975195 86.601542 
L 150.24608 86.136073 
L 150.596101 85.978331 
L 151.408757 85.933169 
L 164.733886 85.791383 
L 164.828239 81.961617 
L 164.943898 83.565939 
L 165.169129 85.227285 
L 165.42784 85.713385 
L 165.765686 85.879826 
L 166.520513 85.929356 
L 178.853409 85.931581 
L 301.707566 86.018 
L 301.771483 88.191705 
L 301.814094 88.916042 
L 301.887142 88.415327 
L 302.158028 86.601542 
L 302.428913 86.136073 
L 302.778934 85.978331 
L 303.59159 85.933169 
L 316.916719 85.791383 
L 317.011072 81.961617 
L 317.126731 83.565939 
L 317.351962 85.227285 
L 317.610672 85.713385 
L 317.948518 85.879826 
L 318.703345 85.929356 
L 331.036242 85.931581 
L 453.890399 86.018 
L 453.954316 88.191705 
L 453.996927 88.916042 
L 454.069975 88.415327 
L 454.34086 86.601542 
L 454.611746 86.136073 
L 454.961766 85.978331 
L 455.774423 85.933169 
L 469.099552 85.791383 
L 469.193905 81.961617 
L 469.309564 83.565939 
L 469.534794 85.227285 
L 469.793505 85.713385 
L 470.131351 85.879826 
L 470.886178 85.929356 
L 483.219075 85.931581 
L 560.372727 85.931581 
L 560.372727 85.931581 
" clip-path="url(#p3c515e5223)" style="fill: none; stroke: #c44e52; stroke-width: 1.5; stroke-linecap: round"/>
   </g>
   <g id="line2d_12">
    <path d="M 103.827273 85.931581 
L 164.727799 85.833074 
L 164.755192 82.309812 
L 164.855632 54.446897 
L 164.934767 61.828956 
L 165.187391 79.043456 
L 165.446102 83.735555 
L 165.716987 85.234938 
L 166.000047 85.718259 
L 166.353111 85.882506 
L 167.144462 85.92975 
L 179.958257 86.065113 
L 179.991737 89.847861 
L 180.092178 106.584828 
L 180.162182 103.812213 
L 180.49394 90.671991 
L 180.770913 87.442239 
L 181.047886 86.41069 
L 181.34312 86.072202 
L 181.763145 85.956143 
L 183.105398 85.931674 
L 316.910631 85.833074 
L 316.938024 82.309812 
L 317.038465 54.446897 
L 317.1176 61.828956 
L 317.370224 79.043456 
L 317.628934 83.735555 
L 317.89982 85.234938 
L 318.18288 85.718259 
L 318.535944 85.882506 
L 319.327295 85.92975 
L 332.141089 86.065113 
L 332.17457 89.847861 
L 332.27501 106.584828 
L 332.345014 103.812213 
L 332.676773 90.671991 
L 332.953746 87.442239 
L 333.230718 86.41069 
L 333.525953 86.072202 
L 333.945978 85.956143 
L 335.28823 85.931674 
L 469.093464 85.833074 
L 469.120857 82.309812 
L 469.221298 54.446897 
L 469.300433 61.828956 
L 469.553056 79.043456 
L 469.811767 83.735555 
L 470.082653 85.234938 
L 470.365713 85.718259 
L 470.718777 85.882506 
L 471.510128 85.92975 
L 484.323922 86.065113 
L 484.357402 89.847861 
L 484.457843 106.584828 
L 484.527847 103.812213 
L 484.859606 90.671991 
L 485.136578 87.442239 
L 485.413551 86.41069 
L 485.708786 86.072202 
L 486.12881 85.956143 
L 487.471063 85.931674 
L 560.372727 85.931581 
L 560.372727 85.931581 
" clip-path="url(#p3c515e5223)" style="fill: none; stroke: #8172b3; stroke-width: 1.5; stroke-linecap: round"/>
   </g>
   <g id="patch_3">
    <path d="M 81 109.191724 
L 81 51.84 
" style="fill: none; stroke: #262626; stroke-width: 1.25; stroke-linejoin: miter; stroke-linecap: square"/>
   </g>
   <g id="patch_4">
    <path d="M 81 109.191724 
L 583.2 109.191724 
" style="fill: none; stroke: #262626; stroke-width: 1.25; stroke-linejoin: miter; stroke-linecap: square"/>
   </g>
   <g id="text_11">
    <!-- Interval: 500.00 ms -->
    <g style="fill: #262626" transform="translate(273.3225 45.84) scale(0.12 -0.12)">
     <defs>
      <path id="DejaVuSans-49" d="M 628 4666 
L 1259 4666 
L 1259 0 
L 628 0 
L 628 4666 
z
" transform="scale(0.015625)"/>
      <path id="DejaVuSans-6e" d="M 3513 2113 
L 3513 0 
L 2938 0 
L 2938 2094 
Q 2938 2591 2744 2837 
Q 2550 3084 2163 3084 
Q 1697 3084 1428 2787 
Q 1159 2491 1159 1978 
L 1159 0 
L 581 0 
L 581 3500 
L 1159 3500 
L 1159 2956 
Q 1366 3272 1645 3428 
Q 1925 3584 2291 3584 
Q 2894 3584 3203 3211 
Q 3513 2838 3513 2113 
z
" transform="scale(0.015625)"/>
      <path id="DejaVuSans-74" d="M 1172 4494 
L 1172 3500 
L 2356 3500 
L 2356 3053 
L 1172 3053 
L 1172 1153 
Q 1172 725 1289 603 
Q 1406 481 1766 481 
L 2356 481 
L 2356 0 
L 1766 0 
Q 1100 0 847 248 
Q 594 497 594 1153 
L 594 3053 
L 172 3053 
L 172 3500 
L 594 3500 
L 594 4494 
L 1172 4494 
z
" transform="scale(0.015625)"/>
      <path id="DejaVuSans-65" d="M 3597 1894 
L 3597 1613 
L 953 1613 
Q 991 1019 1311 708 
Q 1631 397 2203 397 
Q 2534 397 2845 478 
Q 3156 559 3463 722 
L 3463 178 
Q 3153 47 2828 -22 
Q 2503 -91 2169 -91 
Q 1331 -91 842 396 
Q 353 884 353 1716 
Q 353 2575 817 3079 
Q 1281 3584 2069 3584 
Q 2775 3584 3186 3129 
Q 3597 2675 3597 1894 
z
M 3022 2063 
Q 3016 2534 2758 2815 
Q 2500 3097 2075 3097 
Q 1594 3097 1305 2825 
Q 1016 2553 972 2059 
L 3022 2063 
z
" transform="scale(0.015625)"/>
      <path id="DejaVuSans-72" d="M 2631 2963 
Q 2534 3019 2420 3045 
Q 2306 3072 2169 3072 
Q 1681 3072 1420 2755 
Q 1159 2438 1159 1844 
L 1159 0 
L 581 0 
L 581 3500 
L 1159 3500 
L 1159 2956 
Q 1341 3275 1631 3429 
Q 1922 3584 2338 3584 
Q 2397 3584 2469 3576 
Q 2541 3569 2628 3553 
L 2631 2963 
z
" transform="scale(0.015625)"/>
      <path id="DejaVuSans-76" d="M 191 3500 
L 800 3500 
L 1894 563 
L 2988 3500 
L 3597 3500 
L 2284 0 
L 1503 0 
L 191 3500 
z
" transform="scale(0.015625)"/>
      <path id="DejaVuSans-61" d="M 2194 1759 
Q 1497 1759 1228 1600 
Q 959 1441 959 1056 
Q 959 750 1161 570 
Q 1363 391 1709 391 
Q 2188 391 2477 730 
Q 2766 1069 2766 1631 
L 2766 1759 
L 2194 1759 
z
M 3341 1997 
L 3341 0 
L 2766 0 
L 2766 531 
Q 2569 213 2275 61 
Q 1981 -91 1556 -91 
Q 1019 -91 701 211 
Q 384 513 384 1019 
Q 384 1609 779 1909 
Q 1175 2209 1959 2209 
L 2766 2209 
L 2766 2266 
Q 2766 2663 2505 2880 
Q 2244 3097 1772 3097 
Q 1472 3097 1187 3025 
Q 903 2953 641 2809 
L 641 3341 
Q 956 3463 1253 3523 
Q 1550 3584 1831 3584 
Q 2591 3584 2966 3190 
Q 3341 2797 3341 1997 
z
" transform="scale(0.015625)"/>
      <path id="DejaVuSans-6c" d="M 603 4863 
L 1178 4863 
L 1178 0 
L 603 0 
L 603 4863 
z
" transform="scale(0.015625)"/>
      <path id="DejaVuSans-3a" d="M 750 794 
L 1409 794 
L 1409 0 
L 750 0 
L 750 794 
z
M 750 3309 
L 1409 3309 
L 1409 2516 
L 750 2516 
L 750 3309 
z
" transform="scale(0.015625)"/>
      <path id="DejaVuSans-20" transform="scale(0.015625)"/>
      <path id="DejaVuSans-35" d="M 691 4666 
L 3169 4666 
L 3169 4134 
L 1269 4134 
L 1269 2991 
Q 1406 3038 1543 3061 
Q 1681 3084 1819 3084 
Q 2600 3084 3056 2656 
Q 3513 2228 3513 1497 
Q 3513 744 3044 326 
Q 2575 -91 1722 -91 
Q 1428 -91 1123 -41 
Q 819 9 494 109 
L 494 744 
Q 775 591 1075 516 
Q 1375 441 1709 441 
Q 2250 441 2565 725 
Q 2881 1009 2881 1497 
Q 2881 1984 2565 2268 
Q 2250 2553 1709 2553 
Q 1456 2553 1204 2497 
Q 953 2441 691 2322 
L 691 4666 
z
" transform="scale(0.015625)"/>
      <path id="DejaVuSans-2e" d="M 684 794 
L 1344 794 
L 1344 0 
L 684 0 
L 684 794 
z
" transform="scale(0.015625)"/>
      <path id="DejaVuSans-6d" d="M 3328 2828 
Q 3544 3216 3844 3400 
Q 4144 3584 4550 3584 
Q 5097 3584 5394 3201 
Q 5691 2819 5691 2113 
L 5691 0 
L 5113 0 
L 5113 2094 
Q 5113 2597 4934 2840 
Q 4756 3084 4391 3084 
Q 3944 3084 3684 2787 
Q 3425 2491 3425 1978 
L 3425 0 
L 2847 0 
L 2847 2094 
Q 2847 2600 2669 2842 
Q 2491 3084 2119 3084 
Q 1678 3084 1418 2786 
Q 1159 2488 1159 1978 
L 1159 0 
L 581 0 
L 581 3500 
L 1159 3500 
L 1159 2956 
Q 1356 3278 1631 3431 
Q 1906 3584 2284 3584 
Q 2666 3584 2933 3390 
Q 3200 3197 3328 2828 
z
" transform="scale(0.015625)"/>
      <path id="DejaVuSans-73" d="M 2834 3397 
L 2834 2853 
Q 2591 2978 2328 3040 
Q 2066 3103 1784 3103 
Q 1356 3103 1142 2972 
Q 928 2841 928 2578 
Q 928 2378 1081 2264 
Q 1234 2150 1697 2047 
L 1894 2003 
Q 2506 1872 2764 1633 
Q 3022 1394 3022 966 
Q 3022 478 2636 193 
Q 2250 -91 1575 -91 
Q 1294 -91 989 -36 
Q 684 19 347 128 
L 347 722 
Q 666 556 975 473 
Q 1284 391 1588 391 
Q 1994 391 2212 530 
Q 2431 669 2431 922 
Q 2431 1156 2273 1281 
Q 2116 1406 1581 1522 
L 1381 1569 
Q 847 1681 609 1914 
Q 372 2147 372 2553 
Q 372 3047 722 3315 
Q 1072 3584 1716 3584 
Q 2034 3584 2315 3537 
Q 2597 3491 2834 3397 
z
" transform="scale(0.015625)"/>
     </defs>
     <use xlink:href="#DejaVuSans-49"/>
     <use xlink:href="#DejaVuSans-6e" x="29.492188"/>
     <use xlink:href="#DejaVuSans-74" x="92.871094"/>
     <use xlink:href="#DejaVuSans-65" x="132.080078"/>
     <use xlink:href="#DejaVuSans-72" x="193.603516"/>
     <use xlink:href="#DejaVuSans-76" x="234.716797"/>
     <use xlink:href="#DejaVuSans-61" x="293.896484"/>
     <use xlink:href="#DejaVuSans-6c" x="355.175781"/>
     <use xlink:href="#DejaVuSans-3a" x="382.958984"/>
     <use xlink:href="#DejaVuSans-20" x="416.650391"/>
     <use xlink:href="#DejaVuSans-35" x="448.4375"/>
     <use xlink:href="#DejaVuSans-30" x="512.060547"/>
     <use xlink:href="#DejaVuSans-30" x="575.683594"/>
     <use xlink:href="#DejaVuSans-2e" x="639.306641"/>
     <use xlink:href="#DejaVuSans-30" x="671.09375"/>
     <use xlink:href="#DejaVuSans-30" x="734.716797"/>
     <use xlink:href="#DejaVuSans-20" x="798.339844"/>
     <use xlink:href="#DejaVuSans-6d" x="830.126953"/>
     <use xlink:href="#DejaVuSans-73" x="927.539062"/>
    </g>
   </g>
   <g id="legend_1">
    <g id="patch_5">
     <path d="M 519.599375 92.931875 
L 575.5 92.931875 
Q 577.7 92.931875 577.7 90.731875 
L 577.7 59.54 
Q 577.7 57.34 575.5 57.34 
L 519.599375 57.34 
Q 517.399375 57.34 517.399375 59.54 
L 517.399375 90.731875 
Q 517.399375 92.931875 519.599375 92.931875 
z
" style="fill: #ffffff; opacity: 0.8; stroke: #cccccc; stroke-linejoin: miter"/>
    </g>
    <g id="line2d_13">
     <path d="M 521.799375 66.248281 
L 532.799375 66.248281 
L 543.799375 66.248281 
" style="fill: none; stroke: #c44e52; stroke-width: 1.5; stroke-linecap: round"/>
    </g>
    <g id="text_12">
     <!-- T4a -->
     <g style="fill: #262626" transform="translate(552.599375 70.098281) scale(0.11 -0.11)">
      <defs>
       <path id="DejaVuSans-54" d="M -19 4666 
L 3928 4666 
L 3928 4134 
L 2272 4134 
L 2272 0 
L 1638 0 
L 1638 4134 
L -19 4134 
L -19 4666 
z
" transform="scale(0.015625)"/>
      </defs>
      <use xlink:href="#DejaVuSans-54"/>
      <use xlink:href="#DejaVuSans-34" x="61.083984"/>
      <use xlink:href="#DejaVuSans-61" x="124.707031"/>
     </g>
    </g>
    <g id="line2d_14">
     <path d="M 521.799375 82.394219 
L 532.799375 82.394219 
L 543.799375 82.394219 
" style="fill: none; stroke: #8172b3; stroke-width: 1.5; stroke-linecap: round"/>
    </g>
    <g id="text_13">
     <!-- T4b -->
     <g style="fill: #262626" transform="translate(552.599375 86.244219) scale(0.11 -0.11)">
      <defs>
       <path id="DejaVuSans-62" d="M 3116 1747 
Q 3116 2381 2855 2742 
Q 2594 3103 2138 3103 
Q 1681 3103 1420 2742 
Q 1159 2381 1159 1747 
Q 1159 1113 1420 752 
Q 1681 391 2138 391 
Q 2594 391 2855 752 
Q 3116 1113 3116 1747 
z
M 1159 2969 
Q 1341 3281 1617 3432 
Q 1894 3584 2278 3584 
Q 2916 3584 3314 3078 
Q 3713 2572 3713 1747 
Q 3713 922 3314 415 
Q 2916 -91 2278 -91 
Q 1894 -91 1617 61 
Q 1341 213 1159 525 
L 1159 0 
L 581 0 
L 581 4863 
L 1159 4863 
L 1159 2969 
z
" transform="scale(0.015625)"/>
      </defs>
      <use xlink:href="#DejaVuSans-54"/>
      <use xlink:href="#DejaVuSans-34" x="61.083984"/>
      <use xlink:href="#DejaVuSans-62" x="124.707031"/>
     </g>
    </g>
   </g>
  </g>
  <g id="axes_2">
   <g id="patch_6">
    <path d="M 81 178.013793 
L 583.2 178.013793 
L 583.2 120.662069 
L 81 120.662069 
z
" style="fill: #ffffff"/>
   </g>
   <g id="matplotlib.axis_3">
    <g id="xtick_9">
     <g id="line2d_15">
      <g>
       <use xlink:href="#m2d53c564e5" x="103.827273" y="178.013793" style="fill: #262626; stroke: #262626; stroke-width: 1.25"/>
      </g>
     </g>
     <g id="text_14">
      <!-- 0 -->
      <g style="fill: #262626" transform="translate(100.327898 195.872074) scale(0.11 -0.11)">
       <use xlink:href="#DejaVuSans-30"/>
      </g>
     </g>
    </g>
    <g id="xtick_10">
     <g id="line2d_16">
      <g>
       <use xlink:href="#m2d53c564e5" x="184.775048" y="178.013793" style="fill: #262626; stroke: #262626; stroke-width: 1.25"/>
      </g>
     </g>
     <g id="text_15">
      <!-- 1000 -->
      <g style="fill: #262626" transform="translate(170.777548 195.872074) scale(0.11 -0.11)">
       <use xlink:href="#DejaVuSans-31"/>
       <use xlink:href="#DejaVuSans-30" x="63.623047"/>
       <use xlink:href="#DejaVuSans-30" x="127.246094"/>
       <use xlink:href="#DejaVuSans-30" x="190.869141"/>
      </g>
     </g>
    </g>
    <g id="xtick_11">
     <g id="line2d_17">
      <g>
       <use xlink:href="#m2d53c564e5" x="265.722824" y="178.013793" style="fill: #262626; stroke: #262626; stroke-width: 1.25"/>
      </g>
     </g>
     <g id="text_16">
      <!-- 2000 -->
      <g style="fill: #262626" transform="translate(251.725324 195.872074) scale(0.11 -0.11)">
       <use xlink:href="#DejaVuSans-32"/>
       <use xlink:href="#DejaVuSans-30" x="63.623047"/>
       <use xlink:href="#DejaVuSans-30" x="127.246094"/>
       <use xlink:href="#DejaVuSans-30" x="190.869141"/>
      </g>
     </g>
    </g>
    <g id="xtick_12">
     <g id="line2d_18">
      <g>
       <use xlink:href="#m2d53c564e5" x="346.6706" y="178.013793" style="fill: #262626; stroke: #262626; stroke-width: 1.25"/>
      </g>
     </g>
     <g id="text_17">
      <!-- 3000 -->
      <g style="fill: #262626" transform="translate(332.6731 195.872074) scale(0.11 -0.11)">
       <defs>
        <path id="DejaVuSans-33" d="M 2597 2516 
Q 3050 2419 3304 2112 
Q 3559 1806 3559 1356 
Q 3559 666 3084 287 
Q 2609 -91 1734 -91 
Q 1441 -91 1130 -33 
Q 819 25 488 141 
L 488 750 
Q 750 597 1062 519 
Q 1375 441 1716 441 
Q 2309 441 2620 675 
Q 2931 909 2931 1356 
Q 2931 1769 2642 2001 
Q 2353 2234 1838 2234 
L 1294 2234 
L 1294 2753 
L 1863 2753 
Q 2328 2753 2575 2939 
Q 2822 3125 2822 3475 
Q 2822 3834 2567 4026 
Q 2313 4219 1838 4219 
Q 1578 4219 1281 4162 
Q 984 4106 628 3988 
L 628 4550 
Q 988 4650 1302 4700 
Q 1616 4750 1894 4750 
Q 2613 4750 3031 4423 
Q 3450 4097 3450 3541 
Q 3450 3153 3228 2886 
Q 3006 2619 2597 2516 
z
" transform="scale(0.015625)"/>
       </defs>
       <use xlink:href="#DejaVuSans-33"/>
       <use xlink:href="#DejaVuSans-30" x="63.623047"/>
       <use xlink:href="#DejaVuSans-30" x="127.246094"/>
       <use xlink:href="#DejaVuSans-30" x="190.869141"/>
      </g>
     </g>
    </g>
    <g id="xtick_13">
     <g id="line2d_19">
      <g>
       <use xlink:href="#m2d53c564e5" x="427.618375" y="178.013793" style="fill: #262626; stroke: #262626; stroke-width: 1.25"/>
      </g>
     </g>
     <g id="text_18">
      <!-- 4000 -->
      <g style="fill: #262626" transform="translate(413.620875 195.872074) scale(0.11 -0.11)">
       <use xlink:href="#DejaVuSans-34"/>
       <use xlink:href="#DejaVuSans-30" x="63.623047"/>
       <use xlink:href="#DejaVuSans-30" x="127.246094"/>
       <use xlink:href="#DejaVuSans-30" x="190.869141"/>
      </g>
     </g>
    </g>
    <g id="xtick_14">
     <g id="line2d_20">
      <g>
       <use xlink:href="#m2d53c564e5" x="508.566151" y="178.013793" style="fill: #262626; stroke: #262626; stroke-width: 1.25"/>
      </g>
     </g>
     <g id="text_19">
      <!-- 5000 -->
      <g style="fill: #262626" transform="translate(494.568651 195.872074) scale(0.11 -0.11)">
       <use xlink:href="#DejaVuSans-35"/>
       <use xlink:href="#DejaVuSans-30" x="63.623047"/>
       <use xlink:href="#DejaVuSans-30" x="127.246094"/>
       <use xlink:href="#DejaVuSans-30" x="190.869141"/>
      </g>
     </g>
    </g>
   </g>
   <g id="matplotlib.axis_4">
    <g id="ytick_3">
     <g id="line2d_21">
      <g>
       <use xlink:href="#mb9047e74c2" x="81" y="154.75365" style="fill: #262626; stroke: #262626; stroke-width: 1.25"/>
      </g>
     </g>
     <g id="text_20">
      <!-- 0 -->
      <g style="fill: #262626" transform="translate(64.50125 158.932791) scale(0.11 -0.11)">
       <use xlink:href="#DejaVuSans-30"/>
      </g>
     </g>
    </g>
    <g id="ytick_4">
     <g id="line2d_22">
      <g>
       <use xlink:href="#mb9047e74c2" x="81" y="123.433613" style="fill: #262626; stroke: #262626; stroke-width: 1.25"/>
      </g>
     </g>
     <g id="text_21">
      <!-- 1 -->
      <g style="fill: #262626" transform="translate(64.50125 127.612754) scale(0.11 -0.11)">
       <use xlink:href="#DejaVuSans-31"/>
      </g>
     </g>
    </g>
   </g>
   <g id="line2d_23">
    <path d="M 103.827273 154.75365 
L 149.595957 154.840069 
L 149.685001 155.785924 
L 149.911658 157.736527 
L 149.968323 157.63787 
L 150.81829 155.396418 
L 151.287795 155.048579 
L 151.943484 154.856841 
L 153.173912 154.768564 
L 158.605604 154.753653 
L 164.782029 154.664654 
L 164.862978 153.461351 
L 165.081541 150.78524 
L 165.089636 150.811581 
L 165.227249 151.627641 
L 165.591521 153.362349 
L 165.955792 154.059562 
L 166.392918 154.427622 
L 167.000037 154.632633 
L 168.100946 154.732434 
L 172.099837 154.753609 
L 301.780473 154.840069 
L 301.869517 155.785924 
L 302.096175 157.736527 
L 302.152839 157.63787 
L 303.002806 155.396418 
L 303.472312 155.048579 
L 304.128 154.856841 
L 305.358428 154.768564 
L 310.79012 154.753653 
L 316.966545 154.664654 
L 317.047494 153.461351 
L 317.266057 150.78524 
L 317.274152 150.811581 
L 317.411766 151.627641 
L 317.776037 153.362349 
L 318.140309 154.059562 
L 318.577434 154.427622 
L 319.184553 154.632633 
L 320.285463 154.732434 
L 324.284354 154.753609 
L 453.96499 154.840069 
L 454.054034 155.785924 
L 454.280691 157.736527 
L 454.337356 157.63787 
L 455.187323 155.396418 
L 455.656828 155.048579 
L 456.312517 154.856841 
L 457.542945 154.768564 
L 462.974637 154.753653 
L 469.151062 154.664654 
L 469.232011 153.461351 
L 469.450574 150.78524 
L 469.458669 150.811581 
L 469.596282 151.627641 
L 469.960554 153.362349 
L 470.324825 154.059562 
L 470.761951 154.427622 
L 471.36907 154.632633 
L 472.469979 154.732434 
L 476.46887 154.753609 
L 560.372727 154.75365 
L 560.372727 154.75365 
" clip-path="url(#p100d30a643)" style="fill: none; stroke: #c44e52; stroke-width: 1.5; stroke-linecap: round"/>
   </g>
   <g id="line2d_24">
    <path d="M 103.827273 154.75365 
L 164.773934 154.655143 
L 164.822503 153.128974 
L 164.935832 137.75595 
L 165.11392 123.268966 
L 165.13011 123.37002 
L 165.219154 125.948231 
L 165.777704 144.614517 
L 166.158165 149.530551 
L 166.554816 152.044499 
L 166.967657 153.359926 
L 167.404783 154.057007 
L 167.898573 154.433396 
L 168.554262 154.639028 
L 169.71993 154.735125 
L 174.220707 154.753634 
L 180.01667 154.830409 
L 180.06524 155.725903 
L 180.170474 164.400073 
L 180.380941 175.406897 
L 180.413321 175.288096 
L 180.534745 173.338109 
L 181.174244 162.003054 
L 181.59518 158.536854 
L 182.016116 156.721728 
L 182.445146 155.762732 
L 182.906557 155.245017 
L 183.465106 154.959119 
L 184.298883 154.809525 
L 186.193095 154.756548 
L 211.530198 154.75365 
L 316.95845 154.655143 
L 317.00702 153.128974 
L 317.120349 137.75595 
L 317.298437 123.268966 
L 317.314627 123.37002 
L 317.403671 125.948231 
L 317.96222 144.614517 
L 318.342682 149.530551 
L 318.739333 152.044499 
L 319.152174 153.359926 
L 319.589299 154.057007 
L 320.08309 154.433396 
L 320.738778 154.639028 
L 321.904447 154.735125 
L 326.405223 154.753634 
L 332.201187 154.830409 
L 332.249756 155.725903 
L 332.35499 164.400073 
L 332.565458 175.406897 
L 332.597838 175.288096 
L 332.719261 173.338109 
L 333.35876 162.003054 
L 333.779696 158.536854 
L 334.200632 156.721728 
L 334.629663 155.762732 
L 335.091073 155.245017 
L 335.649623 154.959119 
L 336.4834 154.809525 
L 338.377611 154.756548 
L 363.714714 154.75365 
L 469.142967 154.655143 
L 469.191536 153.128974 
L 469.304865 137.75595 
L 469.482953 123.268966 
L 469.499143 123.37002 
L 469.588187 125.948231 
L 470.146737 144.614517 
L 470.527198 149.530551 
L 470.923849 152.044499 
L 471.33669 153.359926 
L 471.773816 154.057007 
L 472.267606 154.433396 
L 472.923295 154.639028 
L 474.088963 154.735125 
L 478.58974 154.753634 
L 484.385703 154.830409 
L 484.434273 155.725903 
L 484.539507 164.400073 
L 484.749974 175.406897 
L 484.782354 175.288096 
L 484.903778 173.338109 
L 485.543277 162.003054 
L 485.964213 158.536854 
L 486.385149 156.721728 
L 486.814179 155.762732 
L 487.27559 155.245017 
L 487.834139 154.959119 
L 488.667916 154.809525 
L 490.562128 154.756548 
L 515.899231 154.75365 
L 560.372727 154.75365 
L 560.372727 154.75365 
" clip-path="url(#p100d30a643)" style="fill: none; stroke: #8172b3; stroke-width: 1.5; stroke-linecap: round"/>
   </g>
   <g id="patch_7">
    <path d="M 81 178.013793 
L 81 120.662069 
" style="fill: none; stroke: #262626; stroke-width: 1.25; stroke-linejoin: miter; stroke-linecap: square"/>
   </g>
   <g id="patch_8">
    <path d="M 81 178.013793 
L 583.2 178.013793 
" style="fill: none; stroke: #262626; stroke-width: 1.25; stroke-linejoin: miter; stroke-linecap: square"/>
   </g>
   <g id="text_22">
    <!-- Interval: 188.00 ms -->
    <g style="fill: #262626" transform="translate(273.3225 114.662069) scale(0.12 -0.12)">
     <use xlink:href="#DejaVuSans-49"/>
     <use xlink:href="#DejaVuSans-6e" x="29.492188"/>
     <use xlink:href="#DejaVuSans-74" x="92.871094"/>
     <use xlink:href="#DejaVuSans-65" x="132.080078"/>
     <use xlink:href="#DejaVuSans-72" x="193.603516"/>
     <use xlink:href="#DejaVuSans-76" x="234.716797"/>
     <use xlink:href="#DejaVuSans-61" x="293.896484"/>
     <use xlink:href="#DejaVuSans-6c" x="355.175781"/>
     <use xlink:href="#DejaVuSans-3a" x="382.958984"/>
     <use xlink:href="#DejaVuSans-20" x="416.650391"/>
     <use xlink:href="#DejaVuSans-31" x="448.4375"/>
     <use xlink:href="#DejaVuSans-38" x="512.060547"/>
     <use xlink:href="#DejaVuSans-38" x="575.683594"/>
     <use xlink:href="#DejaVuSans-2e" x="639.306641"/>
     <use xlink:href="#DejaVuSans-30" x="671.09375"/>
     <use xlink:href="#DejaVuSans-30" x="734.716797"/>
     <use xlink:href="#DejaVuSans-20" x="798.339844"/>
     <use xlink:href="#DejaVuSans-6d" x="830.126953"/>
     <use xlink:href="#DejaVuSans-73" x="927.539062"/>
    </g>
   </g>
   <g id="legend_2">
    <g id="patch_9">
     <path d="M 519.599375 161.753944 
L 575.5 161.753944 
Q 577.7 161.753944 577.7 159.553944 
L 577.7 128.362069 
Q 577.7 126.162069 575.5 126.162069 
L 519.599375 126.162069 
Q 517.399375 126.162069 517.399375 128.362069 
L 517.399375 159.553944 
Q 517.399375 161.753944 519.599375 161.753944 
z
" style="fill: #ffffff; opacity: 0.8; stroke: #cccccc; stroke-linejoin: miter"/>
    </g>
    <g id="line2d_25">
     <path d="M 521.799375 135.07035 
L 532.799375 135.07035 
L 543.799375 135.07035 
" style="fill: none; stroke: #c44e52; stroke-width: 1.5; stroke-linecap: round"/>
    </g>
    <g id="text_23">
     <!-- T4a -->
     <g style="fill: #262626" transform="translate(552.599375 138.92035) scale(0.11 -0.11)">
      <use xlink:href="#DejaVuSans-54"/>
      <use xlink:href="#DejaVuSans-34" x="61.083984"/>
      <use xlink:href="#DejaVuSans-61" x="124.707031"/>
     </g>
    </g>
    <g id="line2d_26">
     <path d="M 521.799375 151.216288 
L 532.799375 151.216288 
L 543.799375 151.216288 
" style="fill: none; stroke: #8172b3; stroke-width: 1.5; stroke-linecap: round"/>
    </g>
    <g id="text_24">
     <!-- T4b -->
     <g style="fill: #262626" transform="translate(552.599375 155.066288) scale(0.11 -0.11)">
      <use xlink:href="#DejaVuSans-54"/>
      <use xlink:href="#DejaVuSans-34" x="61.083984"/>
      <use xlink:href="#DejaVuSans-62" x="124.707031"/>
     </g>
    </g>
   </g>
  </g>
  <g id="axes_3">
   <g id="patch_10">
    <path d="M 81 246.835862 
L 583.2 246.835862 
L 583.2 189.484138 
L 81 189.484138 
z
" style="fill: #ffffff"/>
   </g>
   <g id="matplotlib.axis_5">
    <g id="xtick_15">
     <g id="line2d_27">
      <g>
       <use xlink:href="#m2d53c564e5" x="103.827273" y="246.835862" style="fill: #262626; stroke: #262626; stroke-width: 1.25"/>
      </g>
     </g>
     <g id="text_25">
      <!-- 0 -->
      <g style="fill: #262626" transform="translate(100.327898 264.694143) scale(0.11 -0.11)">
       <use xlink:href="#DejaVuSans-30"/>
      </g>
     </g>
    </g>
    <g id="xtick_16">
     <g id="line2d_28">
      <g>
       <use xlink:href="#m2d53c564e5" x="211.452321" y="246.835862" style="fill: #262626; stroke: #262626; stroke-width: 1.25"/>
      </g>
     </g>
     <g id="text_26">
      <!-- 500 -->
      <g style="fill: #262626" transform="translate(200.954196 264.694143) scale(0.11 -0.11)">
       <use xlink:href="#DejaVuSans-35"/>
       <use xlink:href="#DejaVuSans-30" x="63.623047"/>
       <use xlink:href="#DejaVuSans-30" x="127.246094"/>
      </g>
     </g>
    </g>
    <g id="xtick_17">
     <g id="line2d_29">
      <g>
       <use xlink:href="#m2d53c564e5" x="319.077369" y="246.835862" style="fill: #262626; stroke: #262626; stroke-width: 1.25"/>
      </g>
     </g>
     <g id="text_27">
      <!-- 1000 -->
      <g style="fill: #262626" transform="translate(305.079869 264.694143) scale(0.11 -0.11)">
       <use xlink:href="#DejaVuSans-31"/>
       <use xlink:href="#DejaVuSans-30" x="63.623047"/>
       <use xlink:href="#DejaVuSans-30" x="127.246094"/>
       <use xlink:href="#DejaVuSans-30" x="190.869141"/>
      </g>
     </g>
    </g>
    <g id="xtick_18">
     <g id="line2d_30">
      <g>
       <use xlink:href="#m2d53c564e5" x="426.702417" y="246.835862" style="fill: #262626; stroke: #262626; stroke-width: 1.25"/>
      </g>
     </g>
     <g id="text_28">
      <!-- 1500 -->
      <g style="fill: #262626" transform="translate(412.704917 264.694143) scale(0.11 -0.11)">
       <use xlink:href="#DejaVuSans-31"/>
       <use xlink:href="#DejaVuSans-35" x="63.623047"/>
       <use xlink:href="#DejaVuSans-30" x="127.246094"/>
       <use xlink:href="#DejaVuSans-30" x="190.869141"/>
      </g>
     </g>
    </g>
    <g id="xtick_19">
     <g id="line2d_31">
      <g>
       <use xlink:href="#m2d53c564e5" x="534.327466" y="246.835862" style="fill: #262626; stroke: #262626; stroke-width: 1.25"/>
      </g>
     </g>
     <g id="text_29">
      <!-- 2000 -->
      <g style="fill: #262626" transform="translate(520.329966 264.694143) scale(0.11 -0.11)">
       <use xlink:href="#DejaVuSans-32"/>
       <use xlink:href="#DejaVuSans-30" x="63.623047"/>
       <use xlink:href="#DejaVuSans-30" x="127.246094"/>
       <use xlink:href="#DejaVuSans-30" x="190.869141"/>
      </g>
     </g>
    </g>
   </g>
   <g id="matplotlib.axis_6">
    <g id="ytick_5">
     <g id="line2d_32">
      <g>
       <use xlink:href="#mb9047e74c2" x="81" y="223.577039" style="fill: #262626; stroke: #262626; stroke-width: 1.25"/>
      </g>
     </g>
     <g id="text_30">
      <!-- 0 -->
      <g style="fill: #262626" transform="translate(64.50125 227.75618) scale(0.11 -0.11)">
       <use xlink:href="#DejaVuSans-30"/>
      </g>
     </g>
    </g>
    <g id="ytick_6">
     <g id="line2d_33">
      <g>
       <use xlink:href="#mb9047e74c2" x="81" y="192.255689" style="fill: #262626; stroke: #262626; stroke-width: 1.25"/>
      </g>
     </g>
     <g id="text_31">
      <!-- 1 -->
      <g style="fill: #262626" transform="translate(64.50125 196.43483) scale(0.11 -0.11)">
       <use xlink:href="#DejaVuSans-31"/>
      </g>
     </g>
    </g>
   </g>
   <g id="line2d_34">
    <path d="M 103.827273 223.577039 
L 149.785335 223.663462 
L 149.936017 224.140896 
L 150.51722 226.548035 
L 150.689428 226.539619 
L 150.94774 226.228908 
L 151.937938 224.912053 
L 152.648296 224.403272 
L 153.552389 224.040647 
L 154.822425 223.78968 
L 156.867397 223.63971 
L 161.45244 223.581244 
L 164.91813 223.488589 
L 165.047287 222.938691 
L 165.628489 219.609283 
L 165.779171 219.694652 
L 166.102062 220.451181 
L 166.70479 221.713007 
L 167.264467 222.375857 
L 167.9533 222.841142 
L 168.857393 223.171446 
L 170.17048 223.398032 
L 172.409187 223.530319 
L 178.070531 223.575376 
L 294.181908 223.577039 
L 301.974329 223.663462 
L 302.125011 224.140896 
L 302.706213 226.548035 
L 302.878422 226.539619 
L 303.136734 226.228908 
L 304.126931 224.912053 
L 304.83729 224.403272 
L 305.741383 224.040647 
L 307.011418 223.78968 
L 309.056391 223.63971 
L 313.641434 223.581244 
L 317.107124 223.488589 
L 317.23628 222.938691 
L 317.817483 219.609283 
L 317.968165 219.694652 
L 318.291055 220.451181 
L 318.893784 221.713007 
L 319.453461 222.375857 
L 320.142293 222.841142 
L 321.046386 223.171446 
L 322.359474 223.398032 
L 324.59818 223.530319 
L 330.259525 223.575376 
L 446.370901 223.577039 
L 454.163322 223.663462 
L 454.314004 224.140896 
L 454.895207 226.548035 
L 455.067415 226.539619 
L 455.325727 226.228908 
L 456.315925 224.912053 
L 457.026283 224.403272 
L 457.930376 224.040647 
L 459.200412 223.78968 
L 461.245384 223.63971 
L 465.830427 223.581244 
L 469.296117 223.488589 
L 469.425274 222.938691 
L 470.006476 219.609283 
L 470.157158 219.694652 
L 470.480049 220.451181 
L 471.082777 221.713007 
L 471.642454 222.375857 
L 472.331287 222.841142 
L 473.23538 223.171446 
L 474.548467 223.398032 
L 476.787174 223.530319 
L 482.448518 223.575376 
L 560.372727 223.577039 
L 560.372727 223.577039 
" clip-path="url(#pa3b5845d7c)" style="fill: none; stroke: #c44e52; stroke-width: 1.5; stroke-linecap: round"/>
   </g>
   <g id="line2d_35">
    <path d="M 103.827273 223.577039 
L 164.896604 223.478528 
L 164.982708 222.771606 
L 165.111865 219.077203 
L 165.800697 192.091034 
L 165.865275 192.299332 
L 166.037484 194.131311 
L 167.372097 211.991323 
L 167.9533 215.756296 
L 168.556029 218.281757 
L 169.180283 219.997977 
L 169.84759 221.201443 
L 170.557949 222.031331 
L 171.354412 222.617489 
L 172.301557 223.030421 
L 173.550066 223.315674 
L 175.42283 223.490289 
L 179.125307 223.567196 
L 180.180082 223.648511 
L 180.266186 224.069414 
L 180.395342 226.244126 
L 180.718232 238.115504 
L 180.998071 243.67127 
L 181.148753 244.228966 
L 181.170279 244.225012 
L 181.277909 243.961608 
L 181.514695 242.497175 
L 182.935413 232.314627 
L 183.60272 229.513823 
L 184.270026 227.604732 
L 184.958859 226.272257 
L 185.669218 225.35639 
L 186.444155 224.707355 
L 187.348248 224.24232 
L 188.489127 223.917649 
L 190.103579 223.709037 
L 192.923488 223.602228 
L 202.179679 223.577149 
L 317.085598 223.478528 
L 317.171702 222.771606 
L 317.300858 219.077203 
L 317.989691 192.091034 
L 318.054269 192.299332 
L 318.226477 194.131311 
L 319.561091 211.991323 
L 320.142293 215.756296 
L 320.745022 218.281757 
L 321.369277 219.997977 
L 322.036584 221.201443 
L 322.746942 222.031331 
L 323.543405 222.617489 
L 324.49055 223.030421 
L 325.73906 223.315674 
L 327.611824 223.490289 
L 331.3143 223.567196 
L 332.369075 223.648511 
L 332.455179 224.069414 
L 332.584336 226.244126 
L 332.907226 238.115504 
L 333.187064 243.67127 
L 333.337746 244.228966 
L 333.359272 244.225012 
L 333.466903 243.961608 
L 333.703689 242.497175 
L 335.124406 232.314627 
L 335.791713 229.513823 
L 336.45902 227.604732 
L 337.147853 226.272257 
L 337.858212 225.35639 
L 338.633148 224.707355 
L 339.537241 224.24232 
L 340.678121 223.917649 
L 342.292573 223.709037 
L 345.112482 223.602228 
L 354.368672 223.577149 
L 469.274591 223.478528 
L 469.360696 222.771606 
L 469.489852 219.077203 
L 470.178684 192.091034 
L 470.243263 192.299332 
L 470.415471 194.131311 
L 471.750084 211.991323 
L 472.331287 215.756296 
L 472.934016 218.281757 
L 473.55827 219.997977 
L 474.225577 221.201443 
L 474.935936 222.031331 
L 475.732399 222.617489 
L 476.679544 223.030421 
L 477.928053 223.315674 
L 479.800817 223.490289 
L 483.503294 223.567196 
L 484.558069 223.648511 
L 484.644173 224.069414 
L 484.773329 226.244126 
L 485.096219 238.115504 
L 485.376058 243.67127 
L 485.52674 244.228966 
L 485.548266 244.225012 
L 485.655896 243.961608 
L 485.892682 242.497175 
L 487.3134 232.314627 
L 487.980707 229.513823 
L 488.648013 227.604732 
L 489.336846 226.272257 
L 490.047205 225.35639 
L 490.822142 224.707355 
L 491.726235 224.24232 
L 492.867114 223.917649 
L 494.481566 223.709037 
L 497.301475 223.602228 
L 506.557666 223.577149 
L 560.372727 223.577039 
L 560.372727 223.577039 
" clip-path="url(#pa3b5845d7c)" style="fill: none; stroke: #8172b3; stroke-width: 1.5; stroke-linecap: round"/>
   </g>
   <g id="patch_11">
    <path d="M 81 246.835862 
L 81 189.484138 
" style="fill: none; stroke: #262626; stroke-width: 1.25; stroke-linejoin: miter; stroke-linecap: square"/>
   </g>
   <g id="patch_12">
    <path d="M 81 246.835862 
L 583.2 246.835862 
" style="fill: none; stroke: #262626; stroke-width: 1.25; stroke-linejoin: miter; stroke-linecap: square"/>
   </g>
   <g id="text_32">
    <!-- Interval: 70.70 ms -->
    <g style="fill: #262626" transform="translate(277.14 183.484138) scale(0.12 -0.12)">
     <defs>
      <path id="DejaVuSans-37" d="M 525 4666 
L 3525 4666 
L 3525 4397 
L 1831 0 
L 1172 0 
L 2766 4134 
L 525 4134 
L 525 4666 
z
" transform="scale(0.015625)"/>
     </defs>
     <use xlink:href="#DejaVuSans-49"/>
     <use xlink:href="#DejaVuSans-6e" x="29.492188"/>
     <use xlink:href="#DejaVuSans-74" x="92.871094"/>
     <use xlink:href="#DejaVuSans-65" x="132.080078"/>
     <use xlink:href="#DejaVuSans-72" x="193.603516"/>
     <use xlink:href="#DejaVuSans-76" x="234.716797"/>
     <use xlink:href="#DejaVuSans-61" x="293.896484"/>
     <use xlink:href="#DejaVuSans-6c" x="355.175781"/>
     <use xlink:href="#DejaVuSans-3a" x="382.958984"/>
     <use xlink:href="#DejaVuSans-20" x="416.650391"/>
     <use xlink:href="#DejaVuSans-37" x="448.4375"/>
     <use xlink:href="#DejaVuSans-30" x="512.060547"/>
     <use xlink:href="#DejaVuSans-2e" x="575.683594"/>
     <use xlink:href="#DejaVuSans-37" x="607.470703"/>
     <use xlink:href="#DejaVuSans-30" x="671.09375"/>
     <use xlink:href="#DejaVuSans-20" x="734.716797"/>
     <use xlink:href="#DejaVuSans-6d" x="766.503906"/>
     <use xlink:href="#DejaVuSans-73" x="863.916016"/>
    </g>
   </g>
   <g id="legend_3">
    <g id="patch_13">
     <path d="M 519.599375 230.576013 
L 575.5 230.576013 
Q 577.7 230.576013 577.7 228.376013 
L 577.7 197.184138 
Q 577.7 194.984138 575.5 194.984138 
L 519.599375 194.984138 
Q 517.399375 194.984138 517.399375 197.184138 
L 517.399375 228.376013 
Q 517.399375 230.576013 519.599375 230.576013 
z
" style="fill: #ffffff; opacity: 0.8; stroke: #cccccc; stroke-linejoin: miter"/>
    </g>
    <g id="line2d_36">
     <path d="M 521.799375 203.892419 
L 532.799375 203.892419 
L 543.799375 203.892419 
" style="fill: none; stroke: #c44e52; stroke-width: 1.5; stroke-linecap: round"/>
    </g>
    <g id="text_33">
     <!-- T4a -->
     <g style="fill: #262626" transform="translate(552.599375 207.742419) scale(0.11 -0.11)">
      <use xlink:href="#DejaVuSans-54"/>
      <use xlink:href="#DejaVuSans-34" x="61.083984"/>
      <use xlink:href="#DejaVuSans-61" x="124.707031"/>
     </g>
    </g>
    <g id="line2d_37">
     <path d="M 521.799375 220.038357 
L 532.799375 220.038357 
L 543.799375 220.038357 
" style="fill: none; stroke: #8172b3; stroke-width: 1.5; stroke-linecap: round"/>
    </g>
    <g id="text_34">
     <!-- T4b -->
     <g style="fill: #262626" transform="translate(552.599375 223.888357) scale(0.11 -0.11)">
      <use xlink:href="#DejaVuSans-54"/>
      <use xlink:href="#DejaVuSans-34" x="61.083984"/>
      <use xlink:href="#DejaVuSans-62" x="124.707031"/>
     </g>
    </g>
   </g>
  </g>
  <g id="axes_4">
   <g id="patch_14">
    <path d="M 81 315.657931 
L 583.2 315.657931 
L 583.2 258.306207 
L 81 258.306207 
z
" style="fill: #ffffff"/>
   </g>
   <g id="matplotlib.axis_7">
    <g id="xtick_20">
     <g id="line2d_38">
      <g>
       <use xlink:href="#m2d53c564e5" x="103.827273" y="315.657931" style="fill: #262626; stroke: #262626; stroke-width: 1.25"/>
      </g>
     </g>
     <g id="text_35">
      <!-- 0 -->
      <g style="fill: #262626" transform="translate(100.327898 333.516212) scale(0.11 -0.11)">
       <use xlink:href="#DejaVuSans-30"/>
      </g>
     </g>
    </g>
    <g id="xtick_21">
     <g id="line2d_39">
      <g>
       <use xlink:href="#m2d53c564e5" x="161.254374" y="315.657931" style="fill: #262626; stroke: #262626; stroke-width: 1.25"/>
      </g>
     </g>
     <g id="text_36">
      <!-- 100 -->
      <g style="fill: #262626" transform="translate(150.756249 333.516212) scale(0.11 -0.11)">
       <use xlink:href="#DejaVuSans-31"/>
       <use xlink:href="#DejaVuSans-30" x="63.623047"/>
       <use xlink:href="#DejaVuSans-30" x="127.246094"/>
      </g>
     </g>
    </g>
    <g id="xtick_22">
     <g id="line2d_40">
      <g>
       <use xlink:href="#m2d53c564e5" x="218.681475" y="315.657931" style="fill: #262626; stroke: #262626; stroke-width: 1.25"/>
      </g>
     </g>
     <g id="text_37">
      <!-- 200 -->
      <g style="fill: #262626" transform="translate(208.18335 333.516212) scale(0.11 -0.11)">
       <use xlink:href="#DejaVuSans-32"/>
       <use xlink:href="#DejaVuSans-30" x="63.623047"/>
       <use xlink:href="#DejaVuSans-30" x="127.246094"/>
      </g>
     </g>
    </g>
    <g id="xtick_23">
     <g id="line2d_41">
      <g>
       <use xlink:href="#m2d53c564e5" x="276.108576" y="315.657931" style="fill: #262626; stroke: #262626; stroke-width: 1.25"/>
      </g>
     </g>
     <g id="text_38">
      <!-- 300 -->
      <g style="fill: #262626" transform="translate(265.610451 333.516212) scale(0.11 -0.11)">
       <use xlink:href="#DejaVuSans-33"/>
       <use xlink:href="#DejaVuSans-30" x="63.623047"/>
       <use xlink:href="#DejaVuSans-30" x="127.246094"/>
      </g>
     </g>
    </g>
    <g id="xtick_24">
     <g id="line2d_42">
      <g>
       <use xlink:href="#m2d53c564e5" x="333.535678" y="315.657931" style="fill: #262626; stroke: #262626; stroke-width: 1.25"/>
      </g>
     </g>
     <g id="text_39">
      <!-- 400 -->
      <g style="fill: #262626" transform="translate(323.037553 333.516212) scale(0.11 -0.11)">
       <use xlink:href="#DejaVuSans-34"/>
       <use xlink:href="#DejaVuSans-30" x="63.623047"/>
       <use xlink:href="#DejaVuSans-30" x="127.246094"/>
      </g>
     </g>
    </g>
    <g id="xtick_25">
     <g id="line2d_43">
      <g>
       <use xlink:href="#m2d53c564e5" x="390.962779" y="315.657931" style="fill: #262626; stroke: #262626; stroke-width: 1.25"/>
      </g>
     </g>
     <g id="text_40">
      <!-- 500 -->
      <g style="fill: #262626" transform="translate(380.464654 333.516212) scale(0.11 -0.11)">
       <use xlink:href="#DejaVuSans-35"/>
       <use xlink:href="#DejaVuSans-30" x="63.623047"/>
       <use xlink:href="#DejaVuSans-30" x="127.246094"/>
      </g>
     </g>
    </g>
    <g id="xtick_26">
     <g id="line2d_44">
      <g>
       <use xlink:href="#m2d53c564e5" x="448.38988" y="315.657931" style="fill: #262626; stroke: #262626; stroke-width: 1.25"/>
      </g>
     </g>
     <g id="text_41">
      <!-- 600 -->
      <g style="fill: #262626" transform="translate(437.891755 333.516212) scale(0.11 -0.11)">
       <use xlink:href="#DejaVuSans-36"/>
       <use xlink:href="#DejaVuSans-30" x="63.623047"/>
       <use xlink:href="#DejaVuSans-30" x="127.246094"/>
      </g>
     </g>
    </g>
    <g id="xtick_27">
     <g id="line2d_45">
      <g>
       <use xlink:href="#m2d53c564e5" x="505.816981" y="315.657931" style="fill: #262626; stroke: #262626; stroke-width: 1.25"/>
      </g>
     </g>
     <g id="text_42">
      <!-- 700 -->
      <g style="fill: #262626" transform="translate(495.318856 333.516212) scale(0.11 -0.11)">
       <use xlink:href="#DejaVuSans-37"/>
       <use xlink:href="#DejaVuSans-30" x="63.623047"/>
       <use xlink:href="#DejaVuSans-30" x="127.246094"/>
      </g>
     </g>
    </g>
    <g id="xtick_28">
     <g id="line2d_46">
      <g>
       <use xlink:href="#m2d53c564e5" x="563.244082" y="315.657931" style="fill: #262626; stroke: #262626; stroke-width: 1.25"/>
      </g>
     </g>
     <g id="text_43">
      <!-- 800 -->
      <g style="fill: #262626" transform="translate(552.745957 333.516212) scale(0.11 -0.11)">
       <use xlink:href="#DejaVuSans-38"/>
       <use xlink:href="#DejaVuSans-30" x="63.623047"/>
       <use xlink:href="#DejaVuSans-30" x="127.246094"/>
      </g>
     </g>
    </g>
   </g>
   <g id="matplotlib.axis_8">
    <g id="ytick_7">
     <g id="line2d_47">
      <g>
       <use xlink:href="#mb9047e74c2" x="81" y="292.758164" style="fill: #262626; stroke: #262626; stroke-width: 1.25"/>
      </g>
     </g>
     <g id="text_44">
      <!-- 0 -->
      <g style="fill: #262626" transform="translate(64.50125 296.937305) scale(0.11 -0.11)">
       <use xlink:href="#DejaVuSans-30"/>
      </g>
     </g>
    </g>
    <g id="ytick_8">
     <g id="line2d_48">
      <g>
       <use xlink:href="#mb9047e74c2" x="81" y="261.079636" style="fill: #262626; stroke: #262626; stroke-width: 1.25"/>
      </g>
     </g>
     <g id="text_45">
      <!-- 1 -->
      <g style="fill: #262626" transform="translate(64.50125 265.258776) scale(0.11 -0.11)">
       <use xlink:href="#DejaVuSans-31"/>
      </g>
     </g>
    </g>
   </g>
   <g id="line2d_49">
    <path d="M 103.827273 292.758164 
L 150.291642 292.845572 
L 150.578814 293.139005 
L 150.980854 293.932959 
L 151.7275 295.390093 
L 152.129541 295.720443 
L 152.531581 295.775184 
L 152.933621 295.675397 
L 153.910005 295.132018 
L 155.460731 294.329545 
L 156.954024 293.824179 
L 158.849357 293.426488 
L 161.491336 293.117094 
L 165.39687 292.696654 
L 165.684041 292.103213 
L 166.890162 288.978268 
L 167.177334 288.847526 
L 167.579374 288.925056 
L 168.153717 289.396606 
L 169.64701 290.676019 
L 170.738262 291.27345 
L 172.116686 291.754039 
L 173.954584 292.136832 
L 176.539129 292.427222 
L 180.329794 292.611088 
L 181.363612 292.468404 
L 183.373814 292.105424 
L 184.924541 292.22677 
L 188.830075 292.531531 
L 194.228901 292.689303 
L 205.773201 292.752749 
L 302.607474 292.931982 
L 302.95208 293.436759 
L 304.100766 295.574787 
L 304.502807 295.776785 
L 305.192018 295.650447 
L 306.283271 295.029529 
L 307.776563 294.282239 
L 309.32729 293.778809 
L 311.280057 293.390627 
L 313.97947 293.094086 
L 317.540398 292.766082 
L 317.82757 292.252909 
L 318.344479 290.627848 
L 318.861388 289.279758 
L 319.205994 288.886004 
L 319.493166 288.844508 
L 319.780337 288.925056 
L 320.35468 289.396606 
L 321.847973 290.676019 
L 322.939225 291.27345 
L 324.317649 291.754039 
L 326.155547 292.136832 
L 328.740092 292.427222 
L 332.530757 292.611088 
L 333.564575 292.468404 
L 335.574777 292.105424 
L 337.125503 292.22677 
L 341.031038 292.531531 
L 346.429864 292.689303 
L 357.974164 292.752749 
L 454.808437 292.931982 
L 455.153043 293.436759 
L 456.301729 295.574787 
L 456.703769 295.776785 
L 457.392981 295.650447 
L 458.484234 295.029529 
L 459.977526 294.282239 
L 461.528253 293.778809 
L 463.48102 293.390627 
L 466.180433 293.094086 
L 469.741361 292.766082 
L 470.028533 292.252909 
L 470.545442 290.627848 
L 471.062351 289.279758 
L 471.406957 288.886004 
L 471.694128 288.844508 
L 471.9813 288.925056 
L 472.555643 289.396606 
L 474.048936 290.676019 
L 475.140188 291.27345 
L 476.518612 291.754039 
L 478.35651 292.136832 
L 480.941055 292.427222 
L 484.73172 292.611088 
L 485.765538 292.468404 
L 487.77574 292.105424 
L 489.326466 292.22677 
L 493.232001 292.531531 
L 498.630827 292.689303 
L 510.175127 292.752749 
L 560.372727 292.758164 
L 560.372727 292.758164 
" clip-path="url(#p0b6fdc5bfa)" style="fill: none; stroke: #c44e52; stroke-width: 1.5; stroke-linecap: round"/>
   </g>
   <g id="line2d_50">
    <path d="M 103.827273 292.758164 
L 165.224567 292.65853 
L 165.39687 292.22291 
L 165.569173 291.114892 
L 165.856344 287.217428 
L 166.373253 275.565907 
L 166.890162 265.49319 
L 167.234768 262.071797 
L 167.52194 260.986724 
L 167.694243 260.943978 
L 167.866546 261.266169 
L 168.153717 262.385909 
L 168.728061 265.764265 
L 170.163919 274.405136 
L 171.082868 278.481728 
L 172.001817 281.552958 
L 172.920766 283.889855 
L 173.89715 285.791197 
L 174.930968 287.328629 
L 176.02222 288.563228 
L 177.228341 289.589194 
L 178.54933 290.417632 
L 180.042623 291.090189 
L 180.616966 291.372161 
L 180.789269 291.696239 
L 181.019006 292.758656 
L 181.306178 295.536266 
L 182.627168 311.723302 
L 182.971773 312.821279 
L 183.201511 313.047854 
L 183.431248 312.954961 
L 183.71842 312.522374 
L 184.235329 311.229558 
L 187.221914 302.848568 
L 188.313166 300.721009 
L 189.461852 298.959953 
L 190.667973 297.525839 
L 191.931528 296.375852 
L 193.252518 295.467685 
L 194.74581 294.711449 
L 196.46884 294.096475 
L 198.536476 293.60791 
L 201.12102 293.239542 
L 204.624514 292.980859 
L 210.080775 292.825169 
L 221.854812 292.763179 
L 317.482964 292.567584 
L 317.655267 291.943546 
L 317.885004 289.876334 
L 318.22961 283.726203 
L 319.205994 264.03948 
L 319.5506 261.489251 
L 319.780337 260.926158 
L 319.895206 260.943978 
L 320.067509 261.266169 
L 320.35468 262.385909 
L 320.929024 265.764265 
L 322.364882 274.405136 
L 323.283831 278.481728 
L 324.20278 281.552958 
L 325.121729 283.889855 
L 326.098113 285.791197 
L 327.131931 287.328629 
L 328.223183 288.563228 
L 329.429304 289.589194 
L 330.750293 290.417632 
L 332.243586 291.090189 
L 332.817929 291.372161 
L 332.990232 291.696239 
L 333.219969 292.758656 
L 333.507141 295.536266 
L 334.82813 311.723302 
L 335.172736 312.821279 
L 335.402474 313.047854 
L 335.632211 312.954961 
L 335.919383 312.522374 
L 336.436292 311.229558 
L 339.422877 302.848568 
L 340.514129 300.721009 
L 341.662815 298.959953 
L 342.868936 297.525839 
L 344.132491 296.375852 
L 345.453481 295.467685 
L 346.946773 294.711449 
L 348.669803 294.096475 
L 350.737439 293.60791 
L 353.321983 293.239542 
L 356.825477 292.980859 
L 362.281738 292.825169 
L 374.055775 292.763179 
L 469.683927 292.567584 
L 469.85623 291.943546 
L 470.085967 289.876334 
L 470.430573 283.726203 
L 471.406957 264.03948 
L 471.751563 261.489251 
L 471.9813 260.926158 
L 472.096169 260.943978 
L 472.268472 261.266169 
L 472.555643 262.385909 
L 473.129987 265.764265 
L 474.565845 274.405136 
L 475.484794 278.481728 
L 476.403743 281.552958 
L 477.322692 283.889855 
L 478.299076 285.791197 
L 479.332894 287.328629 
L 480.424146 288.563228 
L 481.630267 289.589194 
L 482.951256 290.417632 
L 484.444549 291.090189 
L 485.018892 291.372161 
L 485.191195 291.696239 
L 485.420932 292.758656 
L 485.708104 295.536266 
L 487.029093 311.723302 
L 487.373699 312.821279 
L 487.603437 313.047854 
L 487.833174 312.954961 
L 488.120346 312.522374 
L 488.637255 311.229558 
L 491.623839 302.848568 
L 492.715092 300.721009 
L 493.863778 298.959953 
L 495.069899 297.525839 
L 496.333454 296.375852 
L 497.654444 295.467685 
L 499.147736 294.711449 
L 500.870766 294.096475 
L 502.938402 293.60791 
L 505.522946 293.239542 
L 509.02644 292.980859 
L 514.482701 292.825169 
L 526.256738 292.763179 
L 560.372727 292.758164 
L 560.372727 292.758164 
" clip-path="url(#p0b6fdc5bfa)" style="fill: none; stroke: #8172b3; stroke-width: 1.5; stroke-linecap: round"/>
   </g>
   <g id="patch_15">
    <path d="M 81 315.657931 
L 81 258.306207 
" style="fill: none; stroke: #262626; stroke-width: 1.25; stroke-linejoin: miter; stroke-linecap: square"/>
   </g>
   <g id="patch_16">
    <path d="M 81 315.657931 
L 583.2 315.657931 
" style="fill: none; stroke: #262626; stroke-width: 1.25; stroke-linejoin: miter; stroke-linecap: square"/>
   </g>
   <g id="text_46">
    <!-- Interval: 26.50 ms -->
    <g style="fill: #262626" transform="translate(277.14 252.306207) scale(0.12 -0.12)">
     <use xlink:href="#DejaVuSans-49"/>
     <use xlink:href="#DejaVuSans-6e" x="29.492188"/>
     <use xlink:href="#DejaVuSans-74" x="92.871094"/>
     <use xlink:href="#DejaVuSans-65" x="132.080078"/>
     <use xlink:href="#DejaVuSans-72" x="193.603516"/>
     <use xlink:href="#DejaVuSans-76" x="234.716797"/>
     <use xlink:href="#DejaVuSans-61" x="293.896484"/>
     <use xlink:href="#DejaVuSans-6c" x="355.175781"/>
     <use xlink:href="#DejaVuSans-3a" x="382.958984"/>
     <use xlink:href="#DejaVuSans-20" x="416.650391"/>
     <use xlink:href="#DejaVuSans-32" x="448.4375"/>
     <use xlink:href="#DejaVuSans-36" x="512.060547"/>
     <use xlink:href="#DejaVuSans-2e" x="575.683594"/>
     <use xlink:href="#DejaVuSans-35" x="607.470703"/>
     <use xlink:href="#DejaVuSans-30" x="671.09375"/>
     <use xlink:href="#DejaVuSans-20" x="734.716797"/>
     <use xlink:href="#DejaVuSans-6d" x="766.503906"/>
     <use xlink:href="#DejaVuSans-73" x="863.916016"/>
    </g>
   </g>
   <g id="legend_4">
    <g id="patch_17">
     <path d="M 519.599375 299.398082 
L 575.5 299.398082 
Q 577.7 299.398082 577.7 297.198082 
L 577.7 266.006207 
Q 577.7 263.806207 575.5 263.806207 
L 519.599375 263.806207 
Q 517.399375 263.806207 517.399375 266.006207 
L 517.399375 297.198082 
Q 517.399375 299.398082 519.599375 299.398082 
z
" style="fill: #ffffff; opacity: 0.8; stroke: #cccccc; stroke-linejoin: miter"/>
    </g>
    <g id="line2d_51">
     <path d="M 521.799375 272.714488 
L 532.799375 272.714488 
L 543.799375 272.714488 
" style="fill: none; stroke: #c44e52; stroke-width: 1.5; stroke-linecap: round"/>
    </g>
    <g id="text_47">
     <!-- T4a -->
     <g style="fill: #262626" transform="translate(552.599375 276.564488) scale(0.11 -0.11)">
      <use xlink:href="#DejaVuSans-54"/>
      <use xlink:href="#DejaVuSans-34" x="61.083984"/>
      <use xlink:href="#DejaVuSans-61" x="124.707031"/>
     </g>
    </g>
    <g id="line2d_52">
     <path d="M 521.799375 288.860426 
L 532.799375 288.860426 
L 543.799375 288.860426 
" style="fill: none; stroke: #8172b3; stroke-width: 1.5; stroke-linecap: round"/>
    </g>
    <g id="text_48">
     <!-- T4b -->
     <g style="fill: #262626" transform="translate(552.599375 292.710426) scale(0.11 -0.11)">
      <use xlink:href="#DejaVuSans-54"/>
      <use xlink:href="#DejaVuSans-34" x="61.083984"/>
      <use xlink:href="#DejaVuSans-62" x="124.707031"/>
     </g>
    </g>
   </g>
  </g>
  <g id="axes_5">
   <g id="patch_18">
    <path d="M 81 384.48 
L 583.2 384.48 
L 583.2 327.128276 
L 81 327.128276 
z
" style="fill: #ffffff"/>
   </g>
   <g id="matplotlib.axis_9">
    <g id="xtick_29">
     <g id="line2d_53">
      <g>
       <use xlink:href="#m2d53c564e5" x="103.827273" y="384.48" style="fill: #262626; stroke: #262626; stroke-width: 1.25"/>
      </g>
     </g>
     <g id="text_49">
      <!-- 0 -->
      <g style="fill: #262626" transform="translate(100.327898 402.338281) scale(0.11 -0.11)">
       <use xlink:href="#DejaVuSans-30"/>
      </g>
     </g>
    </g>
    <g id="xtick_30">
     <g id="line2d_54">
      <g>
       <use xlink:href="#m2d53c564e5" x="179.918182" y="384.48" style="fill: #262626; stroke: #262626; stroke-width: 1.25"/>
      </g>
     </g>
     <g id="text_50">
      <!-- 50 -->
      <g style="fill: #262626" transform="translate(172.919432 402.338281) scale(0.11 -0.11)">
       <use xlink:href="#DejaVuSans-35"/>
       <use xlink:href="#DejaVuSans-30" x="63.623047"/>
      </g>
     </g>
    </g>
    <g id="xtick_31">
     <g id="line2d_55">
      <g>
       <use xlink:href="#m2d53c564e5" x="256.009091" y="384.48" style="fill: #262626; stroke: #262626; stroke-width: 1.25"/>
      </g>
     </g>
     <g id="text_51">
      <!-- 100 -->
      <g style="fill: #262626" transform="translate(245.510966 402.338281) scale(0.11 -0.11)">
       <use xlink:href="#DejaVuSans-31"/>
       <use xlink:href="#DejaVuSans-30" x="63.623047"/>
       <use xlink:href="#DejaVuSans-30" x="127.246094"/>
      </g>
     </g>
    </g>
    <g id="xtick_32">
     <g id="line2d_56">
      <g>
       <use xlink:href="#m2d53c564e5" x="332.1" y="384.48" style="fill: #262626; stroke: #262626; stroke-width: 1.25"/>
      </g>
     </g>
     <g id="text_52">
      <!-- 150 -->
      <g style="fill: #262626" transform="translate(321.601875 402.338281) scale(0.11 -0.11)">
       <use xlink:href="#DejaVuSans-31"/>
       <use xlink:href="#DejaVuSans-35" x="63.623047"/>
       <use xlink:href="#DejaVuSans-30" x="127.246094"/>
      </g>
     </g>
    </g>
    <g id="xtick_33">
     <g id="line2d_57">
      <g>
       <use xlink:href="#m2d53c564e5" x="408.190909" y="384.48" style="fill: #262626; stroke: #262626; stroke-width: 1.25"/>
      </g>
     </g>
     <g id="text_53">
      <!-- 200 -->
      <g style="fill: #262626" transform="translate(397.692784 402.338281) scale(0.11 -0.11)">
       <use xlink:href="#DejaVuSans-32"/>
       <use xlink:href="#DejaVuSans-30" x="63.623047"/>
       <use xlink:href="#DejaVuSans-30" x="127.246094"/>
      </g>
     </g>
    </g>
    <g id="xtick_34">
     <g id="line2d_58">
      <g>
       <use xlink:href="#m2d53c564e5" x="484.281818" y="384.48" style="fill: #262626; stroke: #262626; stroke-width: 1.25"/>
      </g>
     </g>
     <g id="text_54">
      <!-- 250 -->
      <g style="fill: #262626" transform="translate(473.783693 402.338281) scale(0.11 -0.11)">
       <use xlink:href="#DejaVuSans-32"/>
       <use xlink:href="#DejaVuSans-35" x="63.623047"/>
       <use xlink:href="#DejaVuSans-30" x="127.246094"/>
      </g>
     </g>
    </g>
    <g id="xtick_35">
     <g id="line2d_59">
      <g>
       <use xlink:href="#m2d53c564e5" x="560.372727" y="384.48" style="fill: #262626; stroke: #262626; stroke-width: 1.25"/>
      </g>
     </g>
     <g id="text_55">
      <!-- 300 -->
      <g style="fill: #262626" transform="translate(549.874602 402.338281) scale(0.11 -0.11)">
       <use xlink:href="#DejaVuSans-33"/>
       <use xlink:href="#DejaVuSans-30" x="63.623047"/>
       <use xlink:href="#DejaVuSans-30" x="127.246094"/>
      </g>
     </g>
    </g>
   </g>
   <g id="matplotlib.axis_10">
    <g id="ytick_9">
     <g id="line2d_60">
      <g>
       <use xlink:href="#mb9047e74c2" x="81" y="364.675817" style="fill: #262626; stroke: #262626; stroke-width: 1.25"/>
      </g>
     </g>
     <g id="text_56">
      <!-- 0 -->
      <g style="fill: #262626" transform="translate(64.50125 368.854958) scale(0.11 -0.11)">
       <use xlink:href="#DejaVuSans-30"/>
      </g>
     </g>
    </g>
    <g id="ytick_10">
     <g id="line2d_61">
      <g>
       <use xlink:href="#mb9047e74c2" x="81" y="329.917847" style="fill: #262626; stroke: #262626; stroke-width: 1.25"/>
      </g>
     </g>
     <g id="text_57">
      <!-- 1 -->
      <g style="fill: #262626" transform="translate(64.50125 334.096988) scale(0.11 -0.11)">
       <use xlink:href="#DejaVuSans-31"/>
      </g>
     </g>
    </g>
   </g>
   <g id="line2d_62">
    <path d="M 103.827273 364.675817 
L 151.628297 364.771722 
L 152.38946 365.09368 
L 153.150623 365.681789 
L 155.129646 367.38985 
L 156.043042 367.817278 
L 156.956437 367.987876 
L 158.783228 367.849257 
L 161.371181 367.242729 
L 165.024763 366.453649 
L 166.242623 366.151213 
L 166.851554 365.727794 
L 167.612716 364.826057 
L 169.59174 362.144558 
L 170.352902 361.567271 
L 171.114065 361.29024 
L 172.331926 361.27775 
L 173.702019 361.636578 
L 177.964531 362.908935 
L 180.552484 363.380576 
L 181.46588 363.321702 
L 182.531507 362.992443 
L 183.597135 362.430116 
L 187.250717 360.213688 
L 188.164112 360.026191 
L 189.22974 360.038933 
L 190.599833 360.300025 
L 193.796717 361.237976 
L 197.298066 362.140665 
L 200.799415 362.807511 
L 205.061927 363.38149 
L 210.237834 363.842656 
L 216.936067 364.202151 
L 226.222253 364.458111 
L 237.639695 364.553453 
L 260.779045 364.675817 
L 303.86086 364.771165 
L 304.622022 365.092927 
L 305.383185 365.680974 
L 307.362209 367.389224 
L 308.275604 367.816904 
L 309.188999 367.987657 
L 310.863558 367.876282 
L 313.147046 367.355946 
L 317.105093 366.481005 
L 318.475186 366.151913 
L 319.084116 365.728626 
L 319.845279 364.826934 
L 321.824302 362.145427 
L 322.585465 361.567718 
L 323.346628 361.289962 
L 324.564488 361.278344 
L 325.934581 361.637071 
L 330.197093 362.909164 
L 332.785047 363.380726 
L 333.698442 363.321854 
L 334.76407 362.992626 
L 335.829698 362.430352 
L 339.483279 360.214114 
L 340.396675 360.026626 
L 341.462303 360.039359 
L 342.832396 360.300419 
L 346.029279 361.238275 
L 349.530628 362.140882 
L 353.031977 362.807668 
L 357.294489 363.381598 
L 362.470396 363.842724 
L 369.168629 364.20219 
L 378.454815 364.458128 
L 389.872257 364.553463 
L 413.011607 364.675817 
L 456.093422 364.771165 
L 456.854585 365.092927 
L 457.615748 365.680974 
L 459.594771 367.389224 
L 460.508166 367.816904 
L 461.421562 367.987657 
L 463.09612 367.876282 
L 465.379608 367.355946 
L 469.337655 366.481005 
L 470.707748 366.151913 
L 471.316678 365.728626 
L 472.077841 364.826934 
L 474.056864 362.145427 
L 474.818027 361.567718 
L 475.57919 361.289962 
L 476.797051 361.278344 
L 478.167144 361.637071 
L 482.429655 362.909164 
L 485.017609 363.380726 
L 485.931004 363.321854 
L 486.996632 362.992626 
L 488.06226 362.430352 
L 491.715842 360.214114 
L 492.629237 360.026626 
L 493.694865 360.039359 
L 495.064958 360.300419 
L 498.261842 361.238275 
L 501.763191 362.140882 
L 505.26454 362.807668 
L 509.527051 363.381598 
L 514.702959 363.842724 
L 521.401191 364.20219 
L 530.687378 364.458128 
L 542.10482 364.553463 
L 560.372727 364.675816 
L 560.372727 364.675816 
" clip-path="url(#p8375306688)" style="fill: none; stroke: #c44e52; stroke-width: 1.5; stroke-linecap: round"/>
   </g>
   <g id="line2d_63">
    <path d="M 103.827273 364.675817 
L 166.090391 364.566499 
L 166.394856 364.312175 
L 166.699321 363.782026 
L 167.003786 362.872836 
L 167.460484 360.65656 
L 168.069414 356.126368 
L 169.439507 342.898692 
L 170.20067 336.684483 
L 170.8096 333.165531 
L 171.266298 331.418903 
L 171.722996 330.367353 
L 172.179693 329.815959 
L 172.484158 329.735172 
L 172.788623 329.847311 
L 173.245321 330.312662 
L 173.854251 331.351121 
L 174.767647 333.463211 
L 179.182391 344.538707 
L 180.704717 347.480987 
L 182.07481 350.009287 
L 182.531507 351.323822 
L 182.988205 353.236055 
L 183.597135 356.887327 
L 184.662763 365.328951 
L 185.728391 373.239052 
L 186.489554 377.230631 
L 187.098484 379.359878 
L 187.707415 380.709394 
L 188.316345 381.481292 
L 188.773043 381.78129 
L 189.22974 381.873103 
L 189.83867 381.752687 
L 190.599833 381.329571 
L 191.665461 380.433657 
L 193.94895 378.098327 
L 196.536903 375.571809 
L 198.668159 373.803439 
L 200.799415 372.316983 
L 203.082903 370.993341 
L 205.518624 369.835035 
L 208.258811 368.785003 
L 211.303462 367.867558 
L 214.652578 367.09328 
L 218.610625 366.416616 
L 223.177602 365.867511 
L 226.678951 365.459268 
L 228.201276 364.849467 
L 229.723602 364.761164 
L 236.7263 364.711335 
L 285.44072 364.675817 
L 318.322953 364.569346 
L 318.627418 364.316414 
L 318.931883 363.787492 
L 319.236348 362.879309 
L 319.693046 360.664112 
L 320.301976 356.134656 
L 321.672069 342.906798 
L 322.433232 336.691357 
L 323.042163 333.170885 
L 323.49886 331.422558 
L 323.955558 330.369533 
L 324.412256 329.818562 
L 324.716721 329.738302 
L 325.021186 329.850787 
L 325.477884 330.316417 
L 326.086814 331.354964 
L 327.000209 333.466874 
L 331.414953 344.540819 
L 332.937279 347.482722 
L 334.307372 350.007877 
L 334.76407 351.320808 
L 335.220768 353.231664 
L 335.829698 356.88175 
L 336.895326 365.323203 
L 337.960954 373.23466 
L 338.722116 377.227637 
L 339.331047 379.358123 
L 339.939977 380.708738 
L 340.548907 381.480974 
L 341.005605 381.780483 
L 341.462303 381.872008 
L 342.071233 381.751397 
L 342.832396 381.328206 
L 343.898024 380.432323 
L 346.181512 378.097201 
L 348.769466 375.570913 
L 350.900721 373.802696 
L 353.031977 372.316364 
L 355.315466 370.992831 
L 357.751187 369.83462 
L 360.491373 368.784672 
L 363.536024 367.867301 
L 366.885141 367.093085 
L 370.843187 366.416476 
L 375.410164 365.867415 
L 378.911513 365.459205 
L 380.433839 364.849453 
L 381.956164 364.761157 
L 388.958862 364.711333 
L 437.673282 364.675817 
L 470.555515 364.569346 
L 470.859981 364.316414 
L 471.164446 363.787492 
L 471.468911 362.879309 
L 471.925609 360.664112 
L 472.534539 356.134656 
L 473.904632 342.906798 
L 474.665795 336.691357 
L 475.274725 333.170885 
L 475.731423 331.422558 
L 476.18812 330.369533 
L 476.644818 329.818562 
L 476.949283 329.738302 
L 477.253748 329.850787 
L 477.710446 330.316417 
L 478.319376 331.354964 
L 479.232772 333.466874 
L 483.647516 344.540819 
L 485.169841 347.482722 
L 486.539935 350.007877 
L 486.996632 351.320808 
L 487.45333 353.231664 
L 488.06226 356.88175 
L 489.127888 365.323203 
L 490.193516 373.23466 
L 490.954679 377.227637 
L 491.563609 379.358123 
L 492.172539 380.708738 
L 492.78147 381.480974 
L 493.238167 381.780483 
L 493.694865 381.872008 
L 494.303795 381.751397 
L 495.064958 381.328206 
L 496.130586 380.432323 
L 498.414074 378.097201 
L 501.002028 375.570913 
L 503.133284 373.802696 
L 505.26454 372.316364 
L 507.548028 370.992831 
L 509.983749 369.83462 
L 512.723935 368.784672 
L 515.768586 367.867301 
L 519.117703 367.093085 
L 523.075749 366.416476 
L 527.642726 365.867415 
L 531.144075 365.459205 
L 532.666401 364.849453 
L 534.188727 364.761157 
L 541.191424 364.711333 
L 560.372727 364.685417 
L 560.372727 364.685417 
" clip-path="url(#p8375306688)" style="fill: none; stroke: #8172b3; stroke-width: 1.5; stroke-linecap: round"/>
   </g>
   <g id="patch_19">
    <path d="M 81 384.48 
L 81 327.128276 
" style="fill: none; stroke: #262626; stroke-width: 1.25; stroke-linejoin: miter; stroke-linecap: square"/>
   </g>
   <g id="patch_20">
    <path d="M 81 384.48 
L 583.2 384.48 
" style="fill: none; stroke: #262626; stroke-width: 1.25; stroke-linejoin: miter; stroke-linecap: square"/>
   </g>
   <g id="text_58">
    <!-- Interval: 10.00 ms -->
    <g style="fill: #262626" transform="translate(277.14 321.128276) scale(0.12 -0.12)">
     <use xlink:href="#DejaVuSans-49"/>
     <use xlink:href="#DejaVuSans-6e" x="29.492188"/>
     <use xlink:href="#DejaVuSans-74" x="92.871094"/>
     <use xlink:href="#DejaVuSans-65" x="132.080078"/>
     <use xlink:href="#DejaVuSans-72" x="193.603516"/>
     <use xlink:href="#DejaVuSans-76" x="234.716797"/>
     <use xlink:href="#DejaVuSans-61" x="293.896484"/>
     <use xlink:href="#DejaVuSans-6c" x="355.175781"/>
     <use xlink:href="#DejaVuSans-3a" x="382.958984"/>
     <use xlink:href="#DejaVuSans-20" x="416.650391"/>
     <use xlink:href="#DejaVuSans-31" x="448.4375"/>
     <use xlink:href="#DejaVuSans-30" x="512.060547"/>
     <use xlink:href="#DejaVuSans-2e" x="575.683594"/>
     <use xlink:href="#DejaVuSans-30" x="607.470703"/>
     <use xlink:href="#DejaVuSans-30" x="671.09375"/>
     <use xlink:href="#DejaVuSans-20" x="734.716797"/>
     <use xlink:href="#DejaVuSans-6d" x="766.503906"/>
     <use xlink:href="#DejaVuSans-73" x="863.916016"/>
    </g>
   </g>
   <g id="legend_5">
    <g id="patch_21">
     <path d="M 519.599375 368.220151 
L 575.5 368.220151 
Q 577.7 368.220151 577.7 366.020151 
L 577.7 334.828276 
Q 577.7 332.628276 575.5 332.628276 
L 519.599375 332.628276 
Q 517.399375 332.628276 517.399375 334.828276 
L 517.399375 366.020151 
Q 517.399375 368.220151 519.599375 368.220151 
z
" style="fill: #ffffff; opacity: 0.8; stroke: #cccccc; stroke-linejoin: miter"/>
    </g>
    <g id="line2d_64">
     <path d="M 521.799375 341.536557 
L 532.799375 341.536557 
L 543.799375 341.536557 
" style="fill: none; stroke: #c44e52; stroke-width: 1.5; stroke-linecap: round"/>
    </g>
    <g id="text_59">
     <!-- T4a -->
     <g style="fill: #262626" transform="translate(552.599375 345.386557) scale(0.11 -0.11)">
      <use xlink:href="#DejaVuSans-54"/>
      <use xlink:href="#DejaVuSans-34" x="61.083984"/>
      <use xlink:href="#DejaVuSans-61" x="124.707031"/>
     </g>
    </g>
    <g id="line2d_65">
     <path d="M 521.799375 357.682495 
L 532.799375 357.682495 
L 543.799375 357.682495 
" style="fill: none; stroke: #8172b3; stroke-width: 1.5; stroke-linecap: round"/>
    </g>
    <g id="text_60">
     <!-- T4b -->
     <g style="fill: #262626" transform="translate(552.599375 361.532495) scale(0.11 -0.11)">
      <use xlink:href="#DejaVuSans-54"/>
      <use xlink:href="#DejaVuSans-34" x="61.083984"/>
      <use xlink:href="#DejaVuSans-62" x="124.707031"/>
     </g>
    </g>
   </g>
  </g>
  <g id="text_61">
   <!-- Cutoff_fast: 200.00, Ratio_low: 10.00, Ratio_CT1: 200.00, Ratio_Mi9: 200.00, C_inv: 10.00 -->
   <g style="fill: #262626" transform="translate(2.314125 19.58175) scale(0.144 -0.144)">
    <defs>
     <path id="DejaVuSans-43" d="M 4122 4306 
L 4122 3641 
Q 3803 3938 3442 4084 
Q 3081 4231 2675 4231 
Q 1875 4231 1450 3742 
Q 1025 3253 1025 2328 
Q 1025 1406 1450 917 
Q 1875 428 2675 428 
Q 3081 428 3442 575 
Q 3803 722 4122 1019 
L 4122 359 
Q 3791 134 3420 21 
Q 3050 -91 2638 -91 
Q 1578 -91 968 557 
Q 359 1206 359 2328 
Q 359 3453 968 4101 
Q 1578 4750 2638 4750 
Q 3056 4750 3426 4639 
Q 3797 4528 4122 4306 
z
" transform="scale(0.015625)"/>
     <path id="DejaVuSans-75" d="M 544 1381 
L 544 3500 
L 1119 3500 
L 1119 1403 
Q 1119 906 1312 657 
Q 1506 409 1894 409 
Q 2359 409 2629 706 
Q 2900 1003 2900 1516 
L 2900 3500 
L 3475 3500 
L 3475 0 
L 2900 0 
L 2900 538 
Q 2691 219 2414 64 
Q 2138 -91 1772 -91 
Q 1169 -91 856 284 
Q 544 659 544 1381 
z
M 1991 3584 
L 1991 3584 
z
" transform="scale(0.015625)"/>
     <path id="DejaVuSans-6f" d="M 1959 3097 
Q 1497 3097 1228 2736 
Q 959 2375 959 1747 
Q 959 1119 1226 758 
Q 1494 397 1959 397 
Q 2419 397 2687 759 
Q 2956 1122 2956 1747 
Q 2956 2369 2687 2733 
Q 2419 3097 1959 3097 
z
M 1959 3584 
Q 2709 3584 3137 3096 
Q 3566 2609 3566 1747 
Q 3566 888 3137 398 
Q 2709 -91 1959 -91 
Q 1206 -91 779 398 
Q 353 888 353 1747 
Q 353 2609 779 3096 
Q 1206 3584 1959 3584 
z
" transform="scale(0.015625)"/>
     <path id="DejaVuSans-66" d="M 2375 4863 
L 2375 4384 
L 1825 4384 
Q 1516 4384 1395 4259 
Q 1275 4134 1275 3809 
L 1275 3500 
L 2222 3500 
L 2222 3053 
L 1275 3053 
L 1275 0 
L 697 0 
L 697 3053 
L 147 3053 
L 147 3500 
L 697 3500 
L 697 3744 
Q 697 4328 969 4595 
Q 1241 4863 1831 4863 
L 2375 4863 
z
" transform="scale(0.015625)"/>
     <path id="DejaVuSans-5f" d="M 3263 -1063 
L 3263 -1509 
L -63 -1509 
L -63 -1063 
L 3263 -1063 
z
" transform="scale(0.015625)"/>
     <path id="DejaVuSans-2c" d="M 750 794 
L 1409 794 
L 1409 256 
L 897 -744 
L 494 -744 
L 750 256 
L 750 794 
z
" transform="scale(0.015625)"/>
     <path id="DejaVuSans-52" d="M 2841 2188 
Q 3044 2119 3236 1894 
Q 3428 1669 3622 1275 
L 4263 0 
L 3584 0 
L 2988 1197 
Q 2756 1666 2539 1819 
Q 2322 1972 1947 1972 
L 1259 1972 
L 1259 0 
L 628 0 
L 628 4666 
L 2053 4666 
Q 2853 4666 3247 4331 
Q 3641 3997 3641 3322 
Q 3641 2881 3436 2590 
Q 3231 2300 2841 2188 
z
M 1259 4147 
L 1259 2491 
L 2053 2491 
Q 2509 2491 2742 2702 
Q 2975 2913 2975 3322 
Q 2975 3731 2742 3939 
Q 2509 4147 2053 4147 
L 1259 4147 
z
" transform="scale(0.015625)"/>
     <path id="DejaVuSans-69" d="M 603 3500 
L 1178 3500 
L 1178 0 
L 603 0 
L 603 3500 
z
M 603 4863 
L 1178 4863 
L 1178 4134 
L 603 4134 
L 603 4863 
z
" transform="scale(0.015625)"/>
     <path id="DejaVuSans-77" d="M 269 3500 
L 844 3500 
L 1563 769 
L 2278 3500 
L 2956 3500 
L 3675 769 
L 4391 3500 
L 4966 3500 
L 4050 0 
L 3372 0 
L 2619 2869 
L 1863 0 
L 1184 0 
L 269 3500 
z
" transform="scale(0.015625)"/>
     <path id="DejaVuSans-4d" d="M 628 4666 
L 1569 4666 
L 2759 1491 
L 3956 4666 
L 4897 4666 
L 4897 0 
L 4281 0 
L 4281 4097 
L 3078 897 
L 2444 897 
L 1241 4097 
L 1241 0 
L 628 0 
L 628 4666 
z
" transform="scale(0.015625)"/>
     <path id="DejaVuSans-39" d="M 703 97 
L 703 672 
Q 941 559 1184 500 
Q 1428 441 1663 441 
Q 2288 441 2617 861 
Q 2947 1281 2994 2138 
Q 2813 1869 2534 1725 
Q 2256 1581 1919 1581 
Q 1219 1581 811 2004 
Q 403 2428 403 3163 
Q 403 3881 828 4315 
Q 1253 4750 1959 4750 
Q 2769 4750 3195 4129 
Q 3622 3509 3622 2328 
Q 3622 1225 3098 567 
Q 2575 -91 1691 -91 
Q 1453 -91 1209 -44 
Q 966 3 703 97 
z
M 1959 2075 
Q 2384 2075 2632 2365 
Q 2881 2656 2881 3163 
Q 2881 3666 2632 3958 
Q 2384 4250 1959 4250 
Q 1534 4250 1286 3958 
Q 1038 3666 1038 3163 
Q 1038 2656 1286 2365 
Q 1534 2075 1959 2075 
z
" transform="scale(0.015625)"/>
    </defs>
    <use xlink:href="#DejaVuSans-43"/>
    <use xlink:href="#DejaVuSans-75" x="69.824219"/>
    <use xlink:href="#DejaVuSans-74" x="133.203125"/>
    <use xlink:href="#DejaVuSans-6f" x="172.412109"/>
    <use xlink:href="#DejaVuSans-66" x="233.59375"/>
    <use xlink:href="#DejaVuSans-66" x="268.798828"/>
    <use xlink:href="#DejaVuSans-5f" x="304.003906"/>
    <use xlink:href="#DejaVuSans-66" x="354.003906"/>
    <use xlink:href="#DejaVuSans-61" x="389.208984"/>
    <use xlink:href="#DejaVuSans-73" x="450.488281"/>
    <use xlink:href="#DejaVuSans-74" x="502.587891"/>
    <use xlink:href="#DejaVuSans-3a" x="541.796875"/>
    <use xlink:href="#DejaVuSans-20" x="575.488281"/>
    <use xlink:href="#DejaVuSans-32" x="607.275391"/>
    <use xlink:href="#DejaVuSans-30" x="670.898438"/>
    <use xlink:href="#DejaVuSans-30" x="734.521484"/>
    <use xlink:href="#DejaVuSans-2e" x="798.144531"/>
    <use xlink:href="#DejaVuSans-30" x="829.931641"/>
    <use xlink:href="#DejaVuSans-30" x="893.554688"/>
    <use xlink:href="#DejaVuSans-2c" x="957.177734"/>
    <use xlink:href="#DejaVuSans-20" x="988.964844"/>
    <use xlink:href="#DejaVuSans-52" x="1020.751953"/>
    <use xlink:href="#DejaVuSans-61" x="1087.984375"/>
    <use xlink:href="#DejaVuSans-74" x="1149.263672"/>
    <use xlink:href="#DejaVuSans-69" x="1188.472656"/>
    <use xlink:href="#DejaVuSans-6f" x="1216.255859"/>
    <use xlink:href="#DejaVuSans-5f" x="1277.4375"/>
    <use xlink:href="#DejaVuSans-6c" x="1327.4375"/>
    <use xlink:href="#DejaVuSans-6f" x="1355.220703"/>
    <use xlink:href="#DejaVuSans-77" x="1416.402344"/>
    <use xlink:href="#DejaVuSans-3a" x="1492.689453"/>
    <use xlink:href="#DejaVuSans-20" x="1526.380859"/>
    <use xlink:href="#DejaVuSans-31" x="1558.167969"/>
    <use xlink:href="#DejaVuSans-30" x="1621.791016"/>
    <use xlink:href="#DejaVuSans-2e" x="1685.414062"/>
    <use xlink:href="#DejaVuSans-30" x="1717.201172"/>
    <use xlink:href="#DejaVuSans-30" x="1780.824219"/>
    <use xlink:href="#DejaVuSans-2c" x="1844.447266"/>
    <use xlink:href="#DejaVuSans-20" x="1876.234375"/>
    <use xlink:href="#DejaVuSans-52" x="1908.021484"/>
    <use xlink:href="#DejaVuSans-61" x="1975.253906"/>
    <use xlink:href="#DejaVuSans-74" x="2036.533203"/>
    <use xlink:href="#DejaVuSans-69" x="2075.742188"/>
    <use xlink:href="#DejaVuSans-6f" x="2103.525391"/>
    <use xlink:href="#DejaVuSans-5f" x="2164.707031"/>
    <use xlink:href="#DejaVuSans-43" x="2214.707031"/>
    <use xlink:href="#DejaVuSans-54" x="2284.53125"/>
    <use xlink:href="#DejaVuSans-31" x="2345.615234"/>
    <use xlink:href="#DejaVuSans-3a" x="2409.238281"/>
    <use xlink:href="#DejaVuSans-20" x="2442.929688"/>
    <use xlink:href="#DejaVuSans-32" x="2474.716797"/>
    <use xlink:href="#DejaVuSans-30" x="2538.339844"/>
    <use xlink:href="#DejaVuSans-30" x="2601.962891"/>
    <use xlink:href="#DejaVuSans-2e" x="2665.585938"/>
    <use xlink:href="#DejaVuSans-30" x="2697.373047"/>
    <use xlink:href="#DejaVuSans-30" x="2760.996094"/>
    <use xlink:href="#DejaVuSans-2c" x="2824.619141"/>
    <use xlink:href="#DejaVuSans-20" x="2856.40625"/>
    <use xlink:href="#DejaVuSans-52" x="2888.193359"/>
    <use xlink:href="#DejaVuSans-61" x="2955.425781"/>
    <use xlink:href="#DejaVuSans-74" x="3016.705078"/>
    <use xlink:href="#DejaVuSans-69" x="3055.914062"/>
    <use xlink:href="#DejaVuSans-6f" x="3083.697266"/>
    <use xlink:href="#DejaVuSans-5f" x="3144.878906"/>
    <use xlink:href="#DejaVuSans-4d" x="3194.878906"/>
    <use xlink:href="#DejaVuSans-69" x="3281.158203"/>
    <use xlink:href="#DejaVuSans-39" x="3308.941406"/>
    <use xlink:href="#DejaVuSans-3a" x="3372.564453"/>
    <use xlink:href="#DejaVuSans-20" x="3406.255859"/>
    <use xlink:href="#DejaVuSans-32" x="3438.042969"/>
    <use xlink:href="#DejaVuSans-30" x="3501.666016"/>
    <use xlink:href="#DejaVuSans-30" x="3565.289062"/>
    <use xlink:href="#DejaVuSans-2e" x="3628.912109"/>
    <use xlink:href="#DejaVuSans-30" x="3660.699219"/>
    <use xlink:href="#DejaVuSans-30" x="3724.322266"/>
    <use xlink:href="#DejaVuSans-2c" x="3787.945312"/>
    <use xlink:href="#DejaVuSans-20" x="3819.732422"/>
    <use xlink:href="#DejaVuSans-43" x="3851.519531"/>
    <use xlink:href="#DejaVuSans-5f" x="3921.34375"/>
    <use xlink:href="#DejaVuSans-69" x="3971.34375"/>
    <use xlink:href="#DejaVuSans-6e" x="3999.126953"/>
    <use xlink:href="#DejaVuSans-76" x="4062.505859"/>
    <use xlink:href="#DejaVuSans-3a" x="4116.185547"/>
    <use xlink:href="#DejaVuSans-20" x="4149.876953"/>
    <use xlink:href="#DejaVuSans-31" x="4181.664062"/>
    <use xlink:href="#DejaVuSans-30" x="4245.287109"/>
    <use xlink:href="#DejaVuSans-2e" x="4308.910156"/>
    <use xlink:href="#DejaVuSans-30" x="4340.697266"/>
    <use xlink:href="#DejaVuSans-30" x="4404.320312"/>
   </g>
  </g>
 </g>
 <defs>
  <clipPath id="p3c515e5223">
   <rect x="81" y="51.84" width="502.2" height="57.351724"/>
  </clipPath>
  <clipPath id="p100d30a643">
   <rect x="81" y="120.662069" width="502.2" height="57.351724"/>
  </clipPath>
  <clipPath id="pa3b5845d7c">
   <rect x="81" y="189.484138" width="502.2" height="57.351724"/>
  </clipPath>
  <clipPath id="p0b6fdc5bfa">
   <rect x="81" y="258.306207" width="502.2" height="57.351724"/>
  </clipPath>
  <clipPath id="p8375306688">
   <rect x="81" y="327.128276" width="502.2" height="57.351724"/>
  </clipPath>
 </defs>
</svg>
