<?xml version="1.0" encoding="utf-8" standalone="no"?>
<!DOCTYPE svg PUBLIC "-//W3C//DTD SVG 1.1//EN"
  "http://www.w3.org/Graphics/SVG/1.1/DTD/svg11.dtd">
<svg xmlns:xlink="http://www.w3.org/1999/xlink" width="504pt" height="283.5pt" viewBox="0 0 504 283.5" xmlns="http://www.w3.org/2000/svg" version="1.1">
 <metadata>
  <rdf:RDF xmlns:dc="http://purl.org/dc/elements/1.1/" xmlns:cc="http://creativecommons.org/ns#" xmlns:rdf="http://www.w3.org/1999/02/22-rdf-syntax-ns#">
   <cc:Work>
    <dc:type rdf:resource="http://purl.org/dc/dcmitype/StillImage"/>
    <dc:date>2023-04-01T09:28:41.065161</dc:date>
    <dc:format>image/svg+xml</dc:format>
    <dc:creator>
     <cc:Agent>
      <dc:title>Matplotlib v3.7.1, https://matplotlib.org/</dc:title>
     </cc:Agent>
    </dc:creator>
   </cc:Work>
  </rdf:RDF>
 </metadata>
 <defs>
  <style type="text/css">*{stroke-linejoin: round; stroke-linecap: butt}</style>
 </defs>
 <g id="figure_1">
  <g id="patch_1">
   <path d="M 0 283.5 
L 504 283.5 
L 504 0 
L 0 0 
z
" style="fill: #ffffff"/>
  </g>
  <g id="axes_1">
   <g id="patch_2">
    <path d="M 49.01 64.478958 
L 240.3 64.478958 
L 240.3 14.361618 
L 49.01 14.361618 
z
" style="fill: #ffffff"/>
   </g>
   <g id="matplotlib.axis_1">
    <g id="xtick_1">
     <g id="line2d_1">
      <defs>
       <path id="m45ebb1101d" d="M 0 0 
L 0 6 
" style="stroke: #262626; stroke-width: 1.25"/>
      </defs>
      <g>
       <use xlink:href="#m45ebb1101d" x="52.8358" y="64.478958" style="fill: #262626; stroke: #262626; stroke-width: 1.25"/>
      </g>
     </g>
     <g id="text_1">
      <!-- 1000 -->
      <g style="fill: #262626" transform="translate(38.8383 82.337239) scale(0.11 -0.11)">
       <defs>
        <path id="DejaVuSans-31" d="M 794 531 
L 1825 531 
L 1825 4091 
L 703 3866 
L 703 4441 
L 1819 4666 
L 2450 4666 
L 2450 531 
L 3481 531 
L 3481 0 
L 794 0 
L 794 531 
z
" transform="scale(0.015625)"/>
        <path id="DejaVuSans-30" d="M 2034 4250 
Q 1547 4250 1301 3770 
Q 1056 3291 1056 2328 
Q 1056 1369 1301 889 
Q 1547 409 2034 409 
Q 2525 409 2770 889 
Q 3016 1369 3016 2328 
Q 3016 3291 2770 3770 
Q 2525 4250 2034 4250 
z
M 2034 4750 
Q 2819 4750 3233 4129 
Q 3647 3509 3647 2328 
Q 3647 1150 3233 529 
Q 2819 -91 2034 -91 
Q 1250 -91 836 529 
Q 422 1150 422 2328 
Q 422 3509 836 4129 
Q 1250 4750 2034 4750 
z
" transform="scale(0.015625)"/>
       </defs>
       <use xlink:href="#DejaVuSans-31"/>
       <use xlink:href="#DejaVuSans-30" x="63.623047"/>
       <use xlink:href="#DejaVuSans-30" x="127.246094"/>
       <use xlink:href="#DejaVuSans-30" x="190.869141"/>
      </g>
     </g>
    </g>
    <g id="xtick_2">
     <g id="line2d_2">
      <g>
       <use xlink:href="#m45ebb1101d" x="91.0938" y="64.478958" style="fill: #262626; stroke: #262626; stroke-width: 1.25"/>
      </g>
     </g>
     <g id="text_2">
      <!-- 1100 -->
      <g style="fill: #262626" transform="translate(77.0963 82.337239) scale(0.11 -0.11)">
       <use xlink:href="#DejaVuSans-31"/>
       <use xlink:href="#DejaVuSans-31" x="63.623047"/>
       <use xlink:href="#DejaVuSans-30" x="127.246094"/>
       <use xlink:href="#DejaVuSans-30" x="190.869141"/>
      </g>
     </g>
    </g>
    <g id="xtick_3">
     <g id="line2d_3">
      <g>
       <use xlink:href="#m45ebb1101d" x="129.3518" y="64.478958" style="fill: #262626; stroke: #262626; stroke-width: 1.25"/>
      </g>
     </g>
     <g id="text_3">
      <!-- 1200 -->
      <g style="fill: #262626" transform="translate(115.3543 82.337239) scale(0.11 -0.11)">
       <defs>
        <path id="DejaVuSans-32" d="M 1228 531 
L 3431 531 
L 3431 0 
L 469 0 
L 469 531 
Q 828 903 1448 1529 
Q 2069 2156 2228 2338 
Q 2531 2678 2651 2914 
Q 2772 3150 2772 3378 
Q 2772 3750 2511 3984 
Q 2250 4219 1831 4219 
Q 1534 4219 1204 4116 
Q 875 4013 500 3803 
L 500 4441 
Q 881 4594 1212 4672 
Q 1544 4750 1819 4750 
Q 2544 4750 2975 4387 
Q 3406 4025 3406 3419 
Q 3406 3131 3298 2873 
Q 3191 2616 2906 2266 
Q 2828 2175 2409 1742 
Q 1991 1309 1228 531 
z
" transform="scale(0.015625)"/>
       </defs>
       <use xlink:href="#DejaVuSans-31"/>
       <use xlink:href="#DejaVuSans-32" x="63.623047"/>
       <use xlink:href="#DejaVuSans-30" x="127.246094"/>
       <use xlink:href="#DejaVuSans-30" x="190.869141"/>
      </g>
     </g>
    </g>
    <g id="xtick_4">
     <g id="line2d_4">
      <g>
       <use xlink:href="#m45ebb1101d" x="167.6098" y="64.478958" style="fill: #262626; stroke: #262626; stroke-width: 1.25"/>
      </g>
     </g>
     <g id="text_4">
      <!-- 1300 -->
      <g style="fill: #262626" transform="translate(153.6123 82.337239) scale(0.11 -0.11)">
       <defs>
        <path id="DejaVuSans-33" d="M 2597 2516 
Q 3050 2419 3304 2112 
Q 3559 1806 3559 1356 
Q 3559 666 3084 287 
Q 2609 -91 1734 -91 
Q 1441 -91 1130 -33 
Q 819 25 488 141 
L 488 750 
Q 750 597 1062 519 
Q 1375 441 1716 441 
Q 2309 441 2620 675 
Q 2931 909 2931 1356 
Q 2931 1769 2642 2001 
Q 2353 2234 1838 2234 
L 1294 2234 
L 1294 2753 
L 1863 2753 
Q 2328 2753 2575 2939 
Q 2822 3125 2822 3475 
Q 2822 3834 2567 4026 
Q 2313 4219 1838 4219 
Q 1578 4219 1281 4162 
Q 984 4106 628 3988 
L 628 4550 
Q 988 4650 1302 4700 
Q 1616 4750 1894 4750 
Q 2613 4750 3031 4423 
Q 3450 4097 3450 3541 
Q 3450 3153 3228 2886 
Q 3006 2619 2597 2516 
z
" transform="scale(0.015625)"/>
       </defs>
       <use xlink:href="#DejaVuSans-31"/>
       <use xlink:href="#DejaVuSans-33" x="63.623047"/>
       <use xlink:href="#DejaVuSans-30" x="127.246094"/>
       <use xlink:href="#DejaVuSans-30" x="190.869141"/>
      </g>
     </g>
    </g>
    <g id="xtick_5">
     <g id="line2d_5">
      <g>
       <use xlink:href="#m45ebb1101d" x="205.8678" y="64.478958" style="fill: #262626; stroke: #262626; stroke-width: 1.25"/>
      </g>
     </g>
     <g id="text_5">
      <!-- 1400 -->
      <g style="fill: #262626" transform="translate(191.8703 82.337239) scale(0.11 -0.11)">
       <defs>
        <path id="DejaVuSans-34" d="M 2419 4116 
L 825 1625 
L 2419 1625 
L 2419 4116 
z
M 2253 4666 
L 3047 4666 
L 3047 1625 
L 3713 1625 
L 3713 1100 
L 3047 1100 
L 3047 0 
L 2419 0 
L 2419 1100 
L 313 1100 
L 313 1709 
L 2253 4666 
z
" transform="scale(0.015625)"/>
       </defs>
       <use xlink:href="#DejaVuSans-31"/>
       <use xlink:href="#DejaVuSans-34" x="63.623047"/>
       <use xlink:href="#DejaVuSans-30" x="127.246094"/>
       <use xlink:href="#DejaVuSans-30" x="190.869141"/>
      </g>
     </g>
    </g>
   </g>
   <g id="matplotlib.axis_2">
    <g id="ytick_1">
     <g id="line2d_6">
      <defs>
       <path id="mb848d2fa97" d="M 0 0 
L -6 0 
" style="stroke: #262626; stroke-width: 1.25"/>
      </defs>
      <g>
       <use xlink:href="#mb848d2fa97" x="49.01" y="62.200897" style="fill: #262626; stroke: #262626; stroke-width: 1.25"/>
      </g>
     </g>
     <g id="text_6">
      <!-- 0 -->
      <g style="fill: #262626" transform="translate(32.51125 66.380038) scale(0.11 -0.11)">
       <use xlink:href="#DejaVuSans-30"/>
      </g>
     </g>
    </g>
    <g id="ytick_2">
     <g id="line2d_7">
      <g>
       <use xlink:href="#mb848d2fa97" x="49.01" y="16.639679" style="fill: #262626; stroke: #262626; stroke-width: 1.25"/>
      </g>
     </g>
     <g id="text_7">
      <!-- 1 -->
      <g style="fill: #262626" transform="translate(32.51125 20.818819) scale(0.11 -0.11)">
       <use xlink:href="#DejaVuSans-31"/>
      </g>
     </g>
    </g>
   </g>
   <g id="line2d_8">
    <path d="M 48.981214 62.200897 
L 52.654074 62.200897 
L 52.768851 16.639679 
L 240.314257 16.639679 
L 240.314257 16.639679 
" clip-path="url(#pce87977d72)" style="fill: none; stroke-dasharray: 5.55,2.4; stroke-dashoffset: 0; stroke: #117733; stroke-width: 1.5"/>
   </g>
   <g id="line2d_9">
    <path d="M 48.981214 62.200897 
L 116.393496 62.200897 
L 116.508273 16.639679 
L 240.314257 16.639679 
L 240.314257 16.639679 
" clip-path="url(#pce87977d72)" style="fill: none; stroke: #88ccee; stroke-width: 1.5; stroke-linecap: round"/>
   </g>
   <g id="line2d_10">
    <path d="M 48.981214 62.200897 
L 180.132918 62.200897 
L 180.247695 16.639679 
L 240.314257 16.639679 
L 240.314257 16.639679 
" clip-path="url(#pce87977d72)" style="fill: none; stroke-dasharray: 1.5,2.475; stroke-dashoffset: 0; stroke: #cc6677; stroke-width: 1.5"/>
   </g>
   <g id="patch_3">
    <path d="M 49.01 64.478958 
L 49.01 14.361618 
" style="fill: none; stroke: #262626; stroke-width: 1.25; stroke-linejoin: miter; stroke-linecap: square"/>
   </g>
   <g id="patch_4">
    <path d="M 240.3 64.478958 
L 240.3 14.361618 
" style="fill: none; stroke: #262626; stroke-width: 1.25; stroke-linejoin: miter; stroke-linecap: square"/>
   </g>
   <g id="patch_5">
    <path d="M 49.01 64.478958 
L 240.3 64.478958 
" style="fill: none; stroke: #262626; stroke-width: 1.25; stroke-linejoin: miter; stroke-linecap: square"/>
   </g>
   <g id="patch_6">
    <path d="M 49.01 14.361618 
L 240.3 14.361618 
" style="fill: none; stroke: #262626; stroke-width: 1.25; stroke-linejoin: miter; stroke-linecap: square"/>
   </g>
  </g>
  <g id="axes_2">
   <g id="patch_7">
    <path d="M 49.01 148.879479 
L 240.3 148.879479 
L 240.3 98.762139 
L 49.01 98.762139 
z
" style="fill: #ffffff"/>
   </g>
   <g id="matplotlib.axis_3">
    <g id="xtick_6">
     <g id="line2d_11">
      <g>
       <use xlink:href="#m45ebb1101d" x="52.8358" y="148.879479" style="fill: #262626; stroke: #262626; stroke-width: 1.25"/>
      </g>
     </g>
     <g id="text_8">
      <!-- 1000 -->
      <g style="fill: #262626" transform="translate(38.8383 166.73776) scale(0.11 -0.11)">
       <use xlink:href="#DejaVuSans-31"/>
       <use xlink:href="#DejaVuSans-30" x="63.623047"/>
       <use xlink:href="#DejaVuSans-30" x="127.246094"/>
       <use xlink:href="#DejaVuSans-30" x="190.869141"/>
      </g>
     </g>
    </g>
    <g id="xtick_7">
     <g id="line2d_12">
      <g>
       <use xlink:href="#m45ebb1101d" x="91.0938" y="148.879479" style="fill: #262626; stroke: #262626; stroke-width: 1.25"/>
      </g>
     </g>
     <g id="text_9">
      <!-- 1100 -->
      <g style="fill: #262626" transform="translate(77.0963 166.73776) scale(0.11 -0.11)">
       <use xlink:href="#DejaVuSans-31"/>
       <use xlink:href="#DejaVuSans-31" x="63.623047"/>
       <use xlink:href="#DejaVuSans-30" x="127.246094"/>
       <use xlink:href="#DejaVuSans-30" x="190.869141"/>
      </g>
     </g>
    </g>
    <g id="xtick_8">
     <g id="line2d_13">
      <g>
       <use xlink:href="#m45ebb1101d" x="129.3518" y="148.879479" style="fill: #262626; stroke: #262626; stroke-width: 1.25"/>
      </g>
     </g>
     <g id="text_10">
      <!-- 1200 -->
      <g style="fill: #262626" transform="translate(115.3543 166.73776) scale(0.11 -0.11)">
       <use xlink:href="#DejaVuSans-31"/>
       <use xlink:href="#DejaVuSans-32" x="63.623047"/>
       <use xlink:href="#DejaVuSans-30" x="127.246094"/>
       <use xlink:href="#DejaVuSans-30" x="190.869141"/>
      </g>
     </g>
    </g>
    <g id="xtick_9">
     <g id="line2d_14">
      <g>
       <use xlink:href="#m45ebb1101d" x="167.6098" y="148.879479" style="fill: #262626; stroke: #262626; stroke-width: 1.25"/>
      </g>
     </g>
     <g id="text_11">
      <!-- 1300 -->
      <g style="fill: #262626" transform="translate(153.6123 166.73776) scale(0.11 -0.11)">
       <use xlink:href="#DejaVuSans-31"/>
       <use xlink:href="#DejaVuSans-33" x="63.623047"/>
       <use xlink:href="#DejaVuSans-30" x="127.246094"/>
       <use xlink:href="#DejaVuSans-30" x="190.869141"/>
      </g>
     </g>
    </g>
    <g id="xtick_10">
     <g id="line2d_15">
      <g>
       <use xlink:href="#m45ebb1101d" x="205.8678" y="148.879479" style="fill: #262626; stroke: #262626; stroke-width: 1.25"/>
      </g>
     </g>
     <g id="text_12">
      <!-- 1400 -->
      <g style="fill: #262626" transform="translate(191.8703 166.73776) scale(0.11 -0.11)">
       <use xlink:href="#DejaVuSans-31"/>
       <use xlink:href="#DejaVuSans-34" x="63.623047"/>
       <use xlink:href="#DejaVuSans-30" x="127.246094"/>
       <use xlink:href="#DejaVuSans-30" x="190.869141"/>
      </g>
     </g>
    </g>
   </g>
   <g id="matplotlib.axis_4">
    <g id="ytick_3">
     <g id="line2d_16">
      <g>
       <use xlink:href="#mb848d2fa97" x="49.01" y="146.601418" style="fill: #262626; stroke: #262626; stroke-width: 1.25"/>
      </g>
     </g>
     <g id="text_13">
      <!-- 0 -->
      <g style="fill: #262626" transform="translate(32.51125 150.780559) scale(0.11 -0.11)">
       <use xlink:href="#DejaVuSans-30"/>
      </g>
     </g>
    </g>
    <g id="ytick_4">
     <g id="line2d_17">
      <g>
       <use xlink:href="#mb848d2fa97" x="49.01" y="101.335604" style="fill: #262626; stroke: #262626; stroke-width: 1.25"/>
      </g>
     </g>
     <g id="text_14">
      <!-- 1 -->
      <g style="fill: #262626" transform="translate(32.51125 105.514745) scale(0.11 -0.11)">
       <use xlink:href="#DejaVuSans-31"/>
      </g>
     </g>
    </g>
   </g>
   <g id="line2d_18">
    <path d="M 48.981214 101.435971 
L 53.113181 101.514148 
L 53.610548 101.906655 
L 54.98787 103.422553 
L 58.545953 107.257568 
L 62.027518 110.681421 
L 65.62386 113.9056 
L 69.29672 116.899883 
L 73.084357 119.700796 
L 76.98677 122.310598 
L 81.04222 124.754818 
L 85.250705 127.031566 
L 89.650485 129.158516 
L 94.279819 131.147346 
L 99.138706 132.991359 
L 104.303666 134.710889 
L 109.774696 136.29599 
L 115.628317 137.758703 
L 121.941045 139.104352 
L 128.789398 140.333636 
L 136.288153 141.449732 
L 144.552088 142.450971 
L 153.772497 143.340215 
L 164.217192 144.119677 
L 176.268763 144.790554 
L 190.501095 145.353321 
L 207.870662 145.80895 
L 230.099116 146.158284 
L 240.314257 146.262165 
L 240.314257 146.262165 
" clip-path="url(#pd46ce25128)" style="fill: none; stroke-dasharray: 5.55,2.4; stroke-dashoffset: 0; stroke: #117733; stroke-width: 1.5"/>
   </g>
   <g id="line2d_19">
    <path d="M 48.981214 146.601415 
L 116.661309 146.533703 
L 116.776085 146.037276 
L 116.929121 143.849261 
L 117.158675 136.314515 
L 118.000372 103.388914 
L 118.229926 101.153075 
L 118.306444 101.04021 
L 118.344703 101.08291 
L 118.497739 101.812919 
L 118.765551 104.628299 
L 120.64024 128.00923 
L 121.328901 132.685831 
L 122.055822 136.158405 
L 122.821001 138.762197 
L 123.624439 140.729713 
L 124.466136 142.221998 
L 125.384351 143.39556 
L 126.379084 144.299586 
L 127.488593 145.001556 
L 128.789398 145.551599 
L 130.358015 145.966723 
L 132.423999 146.272733 
L 135.446456 146.475298 
L 140.840969 146.578483 
L 159.473081 146.601335 
L 240.314257 146.601335 
L 240.314257 146.601335 
" clip-path="url(#pd46ce25128)" style="fill: none; stroke: #88ccee; stroke-width: 1.5; stroke-linecap: round"/>
   </g>
   <g id="line2d_20">
    <path d="M 48.981214 146.601415 
L 180.515508 146.53113 
L 180.630284 146.200256 
L 180.78332 144.812584 
L 180.974615 140.714615 
L 181.318946 127.2926 
L 181.89283 106.346098 
L 182.198902 101.884757 
L 182.390196 101.119252 
L 182.466714 101.173564 
L 182.61975 101.768226 
L 182.925822 104.326493 
L 183.691001 113.574881 
L 184.570957 123.030943 
L 185.336136 128.989466 
L 186.101315 133.305167 
L 186.904753 136.603691 
L 187.74645 139.122968 
L 188.588147 140.972241 
L 189.468104 142.398088 
L 190.424577 143.528845 
L 191.457569 144.403409 
L 192.605338 145.081971 
L 193.944401 145.611078 
L 195.589537 146.014608 
L 197.770297 146.307448 
L 200.98405 146.495 
L 206.990706 146.585457 
L 232.318135 146.601308 
L 240.314257 146.601308 
L 240.314257 146.601308 
" clip-path="url(#pd46ce25128)" style="fill: none; stroke-dasharray: 1.5,2.475; stroke-dashoffset: 0; stroke: #cc6677; stroke-width: 1.5"/>
   </g>
   <g id="patch_8">
    <path d="M 49.01 148.879479 
L 49.01 98.762139 
" style="fill: none; stroke: #262626; stroke-width: 1.25; stroke-linejoin: miter; stroke-linecap: square"/>
   </g>
   <g id="patch_9">
    <path d="M 240.3 148.879479 
L 240.3 98.762139 
" style="fill: none; stroke: #262626; stroke-width: 1.25; stroke-linejoin: miter; stroke-linecap: square"/>
   </g>
   <g id="patch_10">
    <path d="M 49.01 148.879479 
L 240.3 148.879479 
" style="fill: none; stroke: #262626; stroke-width: 1.25; stroke-linejoin: miter; stroke-linecap: square"/>
   </g>
   <g id="patch_11">
    <path d="M 49.01 98.762139 
L 240.3 98.762139 
" style="fill: none; stroke: #262626; stroke-width: 1.25; stroke-linejoin: miter; stroke-linecap: square"/>
   </g>
  </g>
  <g id="axes_3">
   <g id="patch_12">
    <path d="M 49.01 233.28 
L 240.3 233.28 
L 240.3 183.16266 
L 49.01 183.16266 
z
" style="fill: #ffffff"/>
   </g>
   <g id="matplotlib.axis_5">
    <g id="xtick_11">
     <g id="line2d_21">
      <g>
       <use xlink:href="#m45ebb1101d" x="52.8358" y="233.28" style="fill: #262626; stroke: #262626; stroke-width: 1.25"/>
      </g>
     </g>
     <g id="text_15">
      <!-- 1000 -->
      <g style="fill: #262626" transform="translate(38.8383 251.138281) scale(0.11 -0.11)">
       <use xlink:href="#DejaVuSans-31"/>
       <use xlink:href="#DejaVuSans-30" x="63.623047"/>
       <use xlink:href="#DejaVuSans-30" x="127.246094"/>
       <use xlink:href="#DejaVuSans-30" x="190.869141"/>
      </g>
     </g>
    </g>
    <g id="xtick_12">
     <g id="line2d_22">
      <g>
       <use xlink:href="#m45ebb1101d" x="91.0938" y="233.28" style="fill: #262626; stroke: #262626; stroke-width: 1.25"/>
      </g>
     </g>
     <g id="text_16">
      <!-- 1100 -->
      <g style="fill: #262626" transform="translate(77.0963 251.138281) scale(0.11 -0.11)">
       <use xlink:href="#DejaVuSans-31"/>
       <use xlink:href="#DejaVuSans-31" x="63.623047"/>
       <use xlink:href="#DejaVuSans-30" x="127.246094"/>
       <use xlink:href="#DejaVuSans-30" x="190.869141"/>
      </g>
     </g>
    </g>
    <g id="xtick_13">
     <g id="line2d_23">
      <g>
       <use xlink:href="#m45ebb1101d" x="129.3518" y="233.28" style="fill: #262626; stroke: #262626; stroke-width: 1.25"/>
      </g>
     </g>
     <g id="text_17">
      <!-- 1200 -->
      <g style="fill: #262626" transform="translate(115.3543 251.138281) scale(0.11 -0.11)">
       <use xlink:href="#DejaVuSans-31"/>
       <use xlink:href="#DejaVuSans-32" x="63.623047"/>
       <use xlink:href="#DejaVuSans-30" x="127.246094"/>
       <use xlink:href="#DejaVuSans-30" x="190.869141"/>
      </g>
     </g>
    </g>
    <g id="xtick_14">
     <g id="line2d_24">
      <g>
       <use xlink:href="#m45ebb1101d" x="167.6098" y="233.28" style="fill: #262626; stroke: #262626; stroke-width: 1.25"/>
      </g>
     </g>
     <g id="text_18">
      <!-- 1300 -->
      <g style="fill: #262626" transform="translate(153.6123 251.138281) scale(0.11 -0.11)">
       <use xlink:href="#DejaVuSans-31"/>
       <use xlink:href="#DejaVuSans-33" x="63.623047"/>
       <use xlink:href="#DejaVuSans-30" x="127.246094"/>
       <use xlink:href="#DejaVuSans-30" x="190.869141"/>
      </g>
     </g>
    </g>
    <g id="xtick_15">
     <g id="line2d_25">
      <g>
       <use xlink:href="#m45ebb1101d" x="205.8678" y="233.28" style="fill: #262626; stroke: #262626; stroke-width: 1.25"/>
      </g>
     </g>
     <g id="text_19">
      <!-- 1400 -->
      <g style="fill: #262626" transform="translate(191.8703 251.138281) scale(0.11 -0.11)">
       <use xlink:href="#DejaVuSans-31"/>
       <use xlink:href="#DejaVuSans-34" x="63.623047"/>
       <use xlink:href="#DejaVuSans-30" x="127.246094"/>
       <use xlink:href="#DejaVuSans-30" x="190.869141"/>
      </g>
     </g>
    </g>
    <g id="text_20">
     <!-- t (ms) -->
     <g style="fill: #262626" transform="translate(126.744062 266.544062) scale(0.12 -0.12)">
      <defs>
       <path id="DejaVuSans-74" d="M 1172 4494 
L 1172 3500 
L 2356 3500 
L 2356 3053 
L 1172 3053 
L 1172 1153 
Q 1172 725 1289 603 
Q 1406 481 1766 481 
L 2356 481 
L 2356 0 
L 1766 0 
Q 1100 0 847 248 
Q 594 497 594 1153 
L 594 3053 
L 172 3053 
L 172 3500 
L 594 3500 
L 594 4494 
L 1172 4494 
z
" transform="scale(0.015625)"/>
       <path id="DejaVuSans-20" transform="scale(0.015625)"/>
       <path id="DejaVuSans-28" d="M 1984 4856 
Q 1566 4138 1362 3434 
Q 1159 2731 1159 2009 
Q 1159 1288 1364 580 
Q 1569 -128 1984 -844 
L 1484 -844 
Q 1016 -109 783 600 
Q 550 1309 550 2009 
Q 550 2706 781 3412 
Q 1013 4119 1484 4856 
L 1984 4856 
z
" transform="scale(0.015625)"/>
       <path id="DejaVuSans-6d" d="M 3328 2828 
Q 3544 3216 3844 3400 
Q 4144 3584 4550 3584 
Q 5097 3584 5394 3201 
Q 5691 2819 5691 2113 
L 5691 0 
L 5113 0 
L 5113 2094 
Q 5113 2597 4934 2840 
Q 4756 3084 4391 3084 
Q 3944 3084 3684 2787 
Q 3425 2491 3425 1978 
L 3425 0 
L 2847 0 
L 2847 2094 
Q 2847 2600 2669 2842 
Q 2491 3084 2119 3084 
Q 1678 3084 1418 2786 
Q 1159 2488 1159 1978 
L 1159 0 
L 581 0 
L 581 3500 
L 1159 3500 
L 1159 2956 
Q 1356 3278 1631 3431 
Q 1906 3584 2284 3584 
Q 2666 3584 2933 3390 
Q 3200 3197 3328 2828 
z
" transform="scale(0.015625)"/>
       <path id="DejaVuSans-73" d="M 2834 3397 
L 2834 2853 
Q 2591 2978 2328 3040 
Q 2066 3103 1784 3103 
Q 1356 3103 1142 2972 
Q 928 2841 928 2578 
Q 928 2378 1081 2264 
Q 1234 2150 1697 2047 
L 1894 2003 
Q 2506 1872 2764 1633 
Q 3022 1394 3022 966 
Q 3022 478 2636 193 
Q 2250 -91 1575 -91 
Q 1294 -91 989 -36 
Q 684 19 347 128 
L 347 722 
Q 666 556 975 473 
Q 1284 391 1588 391 
Q 1994 391 2212 530 
Q 2431 669 2431 922 
Q 2431 1156 2273 1281 
Q 2116 1406 1581 1522 
L 1381 1569 
Q 847 1681 609 1914 
Q 372 2147 372 2553 
Q 372 3047 722 3315 
Q 1072 3584 1716 3584 
Q 2034 3584 2315 3537 
Q 2597 3491 2834 3397 
z
" transform="scale(0.015625)"/>
       <path id="DejaVuSans-29" d="M 513 4856 
L 1013 4856 
Q 1481 4119 1714 3412 
Q 1947 2706 1947 2009 
Q 1947 1309 1714 600 
Q 1481 -109 1013 -844 
L 513 -844 
Q 928 -128 1133 580 
Q 1338 1288 1338 2009 
Q 1338 2731 1133 3434 
Q 928 4138 513 4856 
z
" transform="scale(0.015625)"/>
      </defs>
      <use xlink:href="#DejaVuSans-74"/>
      <use xlink:href="#DejaVuSans-20" x="39.208984"/>
      <use xlink:href="#DejaVuSans-28" x="70.996094"/>
      <use xlink:href="#DejaVuSans-6d" x="110.009766"/>
      <use xlink:href="#DejaVuSans-73" x="207.421875"/>
      <use xlink:href="#DejaVuSans-29" x="259.521484"/>
     </g>
    </g>
   </g>
   <g id="matplotlib.axis_6">
    <g id="ytick_5">
     <g id="line2d_26">
      <g>
       <use xlink:href="#mb848d2fa97" x="49.01" y="227.884579" style="fill: #262626; stroke: #262626; stroke-width: 1.25"/>
      </g>
     </g>
     <g id="text_21">
      <!-- −0.5 -->
      <g style="fill: #262626" transform="translate(12.798906 232.06372) scale(0.11 -0.11)">
       <defs>
        <path id="DejaVuSans-2212" d="M 678 2272 
L 4684 2272 
L 4684 1741 
L 678 1741 
L 678 2272 
z
" transform="scale(0.015625)"/>
        <path id="DejaVuSans-2e" d="M 684 794 
L 1344 794 
L 1344 0 
L 684 0 
L 684 794 
z
" transform="scale(0.015625)"/>
        <path id="DejaVuSans-35" d="M 691 4666 
L 3169 4666 
L 3169 4134 
L 1269 4134 
L 1269 2991 
Q 1406 3038 1543 3061 
Q 1681 3084 1819 3084 
Q 2600 3084 3056 2656 
Q 3513 2228 3513 1497 
Q 3513 744 3044 326 
Q 2575 -91 1722 -91 
Q 1428 -91 1123 -41 
Q 819 9 494 109 
L 494 744 
Q 775 591 1075 516 
Q 1375 441 1709 441 
Q 2250 441 2565 725 
Q 2881 1009 2881 1497 
Q 2881 1984 2565 2268 
Q 2250 2553 1709 2553 
Q 1456 2553 1204 2497 
Q 953 2441 691 2322 
L 691 4666 
z
" transform="scale(0.015625)"/>
       </defs>
       <use xlink:href="#DejaVuSans-2212"/>
       <use xlink:href="#DejaVuSans-30" x="83.789062"/>
       <use xlink:href="#DejaVuSans-2e" x="147.412109"/>
       <use xlink:href="#DejaVuSans-35" x="179.199219"/>
      </g>
     </g>
    </g>
    <g id="ytick_6">
     <g id="line2d_27">
      <g>
       <use xlink:href="#mb848d2fa97" x="49.01" y="204.156699" style="fill: #262626; stroke: #262626; stroke-width: 1.25"/>
      </g>
     </g>
     <g id="text_22">
      <!-- 0.0 -->
      <g style="fill: #262626" transform="translate(22.016562 208.335839) scale(0.11 -0.11)">
       <use xlink:href="#DejaVuSans-30"/>
       <use xlink:href="#DejaVuSans-2e" x="63.623047"/>
       <use xlink:href="#DejaVuSans-30" x="95.410156"/>
      </g>
     </g>
    </g>
   </g>
   <g id="line2d_28">
    <path d="M 48.981214 208.426767 
L 62.295331 208.316454 
L 90.109593 207.832112 
L 116.661309 207.152586 
L 116.814344 207.024291 
L 116.96738 206.37343 
L 117.158675 204.213612 
L 117.541265 196.16203 
L 118.000372 187.834797 
L 118.306444 185.678343 
L 118.497739 185.44072 
L 118.612515 185.59684 
L 118.842069 186.44844 
L 119.339436 189.445168 
L 120.334168 195.299899 
L 121.061089 198.262616 
L 121.788009 200.354989 
L 122.591447 201.998502 
L 123.433144 203.224212 
L 124.351359 204.176284 
L 125.384351 204.92512 
L 126.570378 205.505183 
L 127.98596 205.94456 
L 129.784131 206.260159 
L 132.232704 206.449475 
L 136.020341 206.495889 
L 143.901686 206.32165 
L 180.630284 205.3631 
L 180.78332 205.632878 
L 180.936356 206.471787 
L 181.16591 209.44537 
L 181.625017 219.977122 
L 182.084125 228.173808 
L 182.390196 230.475245 
L 182.61975 230.986914 
L 182.772786 230.934627 
L 182.964081 230.519374 
L 183.308411 229.142569 
L 184.188367 224.32986 
L 185.259618 218.9743 
L 186.177833 215.503211 
L 187.057789 212.996126 
L 187.976004 211.025315 
L 188.932478 209.492919 
L 189.927211 208.313856 
L 190.998462 207.387889 
L 192.184489 206.65907 
L 193.561812 206.081303 
L 195.245206 205.629137 
L 197.425967 205.288083 
L 200.60146 205.037839 
L 206.225527 204.852126 
L 221.911699 204.627525 
L 240.314257 204.459222 
L 240.314257 204.459222 
" clip-path="url(#p9dc9340cc1)" style="fill: none; stroke: #332288; stroke-width: 1.5; stroke-linecap: round"/>
   </g>
   <g id="patch_13">
    <path d="M 49.01 233.28 
L 49.01 183.16266 
" style="fill: none; stroke: #262626; stroke-width: 1.25; stroke-linejoin: miter; stroke-linecap: square"/>
   </g>
   <g id="patch_14">
    <path d="M 240.3 233.28 
L 240.3 183.16266 
" style="fill: none; stroke: #262626; stroke-width: 1.25; stroke-linejoin: miter; stroke-linecap: square"/>
   </g>
   <g id="patch_15">
    <path d="M 49.01 233.28 
L 240.3 233.28 
" style="fill: none; stroke: #262626; stroke-width: 1.25; stroke-linejoin: miter; stroke-linecap: square"/>
   </g>
   <g id="patch_16">
    <path d="M 49.01 183.16266 
L 240.3 183.16266 
" style="fill: none; stroke: #262626; stroke-width: 1.25; stroke-linejoin: miter; stroke-linecap: square"/>
   </g>
  </g>
  <g id="axes_4">
   <g id="patch_17">
    <path d="M 289.31 64.478958 
L 480.6 64.478958 
L 480.6 14.361618 
L 289.31 14.361618 
z
" style="fill: #ffffff"/>
   </g>
   <g id="matplotlib.axis_7">
    <g id="xtick_16">
     <g id="line2d_29">
      <g>
       <use xlink:href="#m45ebb1101d" x="289.31" y="64.478958" style="fill: #262626; stroke: #262626; stroke-width: 1.25"/>
      </g>
     </g>
     <g id="text_23">
      <!-- 0 -->
      <g style="fill: #262626" transform="translate(285.810625 82.337239) scale(0.11 -0.11)">
       <use xlink:href="#DejaVuSans-30"/>
      </g>
     </g>
    </g>
    <g id="xtick_17">
     <g id="line2d_30">
      <g>
       <use xlink:href="#m45ebb1101d" x="353.073333" y="64.478958" style="fill: #262626; stroke: #262626; stroke-width: 1.25"/>
      </g>
     </g>
     <g id="text_24">
      <!-- 200 -->
      <g style="fill: #262626" transform="translate(342.575208 82.337239) scale(0.11 -0.11)">
       <use xlink:href="#DejaVuSans-32"/>
       <use xlink:href="#DejaVuSans-30" x="63.623047"/>
       <use xlink:href="#DejaVuSans-30" x="127.246094"/>
      </g>
     </g>
    </g>
    <g id="xtick_18">
     <g id="line2d_31">
      <g>
       <use xlink:href="#m45ebb1101d" x="416.836667" y="64.478958" style="fill: #262626; stroke: #262626; stroke-width: 1.25"/>
      </g>
     </g>
     <g id="text_25">
      <!-- 400 -->
      <g style="fill: #262626" transform="translate(406.338542 82.337239) scale(0.11 -0.11)">
       <use xlink:href="#DejaVuSans-34"/>
       <use xlink:href="#DejaVuSans-30" x="63.623047"/>
       <use xlink:href="#DejaVuSans-30" x="127.246094"/>
      </g>
     </g>
    </g>
    <g id="xtick_19">
     <g id="line2d_32">
      <g>
       <use xlink:href="#m45ebb1101d" x="480.6" y="64.478958" style="fill: #262626; stroke: #262626; stroke-width: 1.25"/>
      </g>
     </g>
     <g id="text_26">
      <!-- 600 -->
      <g style="fill: #262626" transform="translate(470.101875 82.337239) scale(0.11 -0.11)">
       <defs>
        <path id="DejaVuSans-36" d="M 2113 2584 
Q 1688 2584 1439 2293 
Q 1191 2003 1191 1497 
Q 1191 994 1439 701 
Q 1688 409 2113 409 
Q 2538 409 2786 701 
Q 3034 994 3034 1497 
Q 3034 2003 2786 2293 
Q 2538 2584 2113 2584 
z
M 3366 4563 
L 3366 3988 
Q 3128 4100 2886 4159 
Q 2644 4219 2406 4219 
Q 1781 4219 1451 3797 
Q 1122 3375 1075 2522 
Q 1259 2794 1537 2939 
Q 1816 3084 2150 3084 
Q 2853 3084 3261 2657 
Q 3669 2231 3669 1497 
Q 3669 778 3244 343 
Q 2819 -91 2113 -91 
Q 1303 -91 875 529 
Q 447 1150 447 2328 
Q 447 3434 972 4092 
Q 1497 4750 2381 4750 
Q 2619 4750 2861 4703 
Q 3103 4656 3366 4563 
z
" transform="scale(0.015625)"/>
       </defs>
       <use xlink:href="#DejaVuSans-36"/>
       <use xlink:href="#DejaVuSans-30" x="63.623047"/>
       <use xlink:href="#DejaVuSans-30" x="127.246094"/>
      </g>
     </g>
    </g>
   </g>
   <g id="matplotlib.axis_8">
    <g id="ytick_7">
     <g id="line2d_33">
      <g>
       <use xlink:href="#mb848d2fa97" x="289.31" y="62.200897" style="fill: #262626; stroke: #262626; stroke-width: 1.25"/>
      </g>
     </g>
     <g id="text_27">
      <!-- 0 -->
      <g style="fill: #262626" transform="translate(272.81125 66.380038) scale(0.11 -0.11)">
       <use xlink:href="#DejaVuSans-30"/>
      </g>
     </g>
    </g>
    <g id="ytick_8">
     <g id="line2d_34">
      <g>
       <use xlink:href="#mb848d2fa97" x="289.31" y="16.639679" style="fill: #262626; stroke: #262626; stroke-width: 1.25"/>
      </g>
     </g>
     <g id="text_28">
      <!-- 1 -->
      <g style="fill: #262626" transform="translate(272.81125 20.818819) scale(0.11 -0.11)">
       <use xlink:href="#DejaVuSans-31"/>
      </g>
     </g>
    </g>
   </g>
   <g id="line2d_35">
    <path d="M 289.31 62.200897 
L 448.626673 62.200897 
L 448.754203 16.639679 
L 480.604784 16.639679 
L 480.604784 16.639679 
" clip-path="url(#p69e777f795)" style="fill: none; stroke-dasharray: 5.55,2.4; stroke-dashoffset: 0; stroke: #117733; stroke-width: 1.5"/>
   </g>
   <g id="line2d_36">
    <path d="M 289.31 62.200897 
L 395.510488 62.200897 
L 395.638018 16.639679 
L 480.604784 16.639679 
L 480.604784 16.639679 
" clip-path="url(#p69e777f795)" style="fill: none; stroke: #88ccee; stroke-width: 1.5; stroke-linecap: round"/>
   </g>
   <g id="line2d_37">
    <path d="M 289.31 62.200897 
L 342.394303 62.200897 
L 342.521832 16.639679 
L 480.604784 16.639679 
L 480.604784 16.639679 
" clip-path="url(#p69e777f795)" style="fill: none; stroke-dasharray: 1.5,2.475; stroke-dashoffset: 0; stroke: #cc6677; stroke-width: 1.5"/>
   </g>
   <g id="patch_18">
    <path d="M 289.31 64.478958 
L 289.31 14.361618 
" style="fill: none; stroke: #262626; stroke-width: 1.25; stroke-linejoin: miter; stroke-linecap: square"/>
   </g>
   <g id="patch_19">
    <path d="M 480.6 64.478958 
L 480.6 14.361618 
" style="fill: none; stroke: #262626; stroke-width: 1.25; stroke-linejoin: miter; stroke-linecap: square"/>
   </g>
   <g id="patch_20">
    <path d="M 289.31 64.478958 
L 480.6 64.478958 
" style="fill: none; stroke: #262626; stroke-width: 1.25; stroke-linejoin: miter; stroke-linecap: square"/>
   </g>
   <g id="patch_21">
    <path d="M 289.31 14.361618 
L 480.6 14.361618 
" style="fill: none; stroke: #262626; stroke-width: 1.25; stroke-linejoin: miter; stroke-linecap: square"/>
   </g>
  </g>
  <g id="axes_5">
   <g id="patch_22">
    <path d="M 289.31 148.879479 
L 480.6 148.879479 
L 480.6 98.762139 
L 289.31 98.762139 
z
" style="fill: #ffffff"/>
   </g>
   <g id="matplotlib.axis_9">
    <g id="xtick_20">
     <g id="line2d_38">
      <g>
       <use xlink:href="#m45ebb1101d" x="289.31" y="148.879479" style="fill: #262626; stroke: #262626; stroke-width: 1.25"/>
      </g>
     </g>
     <g id="text_29">
      <!-- 0 -->
      <g style="fill: #262626" transform="translate(285.810625 166.73776) scale(0.11 -0.11)">
       <use xlink:href="#DejaVuSans-30"/>
      </g>
     </g>
    </g>
    <g id="xtick_21">
     <g id="line2d_39">
      <g>
       <use xlink:href="#m45ebb1101d" x="353.073333" y="148.879479" style="fill: #262626; stroke: #262626; stroke-width: 1.25"/>
      </g>
     </g>
     <g id="text_30">
      <!-- 200 -->
      <g style="fill: #262626" transform="translate(342.575208 166.73776) scale(0.11 -0.11)">
       <use xlink:href="#DejaVuSans-32"/>
       <use xlink:href="#DejaVuSans-30" x="63.623047"/>
       <use xlink:href="#DejaVuSans-30" x="127.246094"/>
      </g>
     </g>
    </g>
    <g id="xtick_22">
     <g id="line2d_40">
      <g>
       <use xlink:href="#m45ebb1101d" x="416.836667" y="148.879479" style="fill: #262626; stroke: #262626; stroke-width: 1.25"/>
      </g>
     </g>
     <g id="text_31">
      <!-- 400 -->
      <g style="fill: #262626" transform="translate(406.338542 166.73776) scale(0.11 -0.11)">
       <use xlink:href="#DejaVuSans-34"/>
       <use xlink:href="#DejaVuSans-30" x="63.623047"/>
       <use xlink:href="#DejaVuSans-30" x="127.246094"/>
      </g>
     </g>
    </g>
    <g id="xtick_23">
     <g id="line2d_41">
      <g>
       <use xlink:href="#m45ebb1101d" x="480.6" y="148.879479" style="fill: #262626; stroke: #262626; stroke-width: 1.25"/>
      </g>
     </g>
     <g id="text_32">
      <!-- 600 -->
      <g style="fill: #262626" transform="translate(470.101875 166.73776) scale(0.11 -0.11)">
       <use xlink:href="#DejaVuSans-36"/>
       <use xlink:href="#DejaVuSans-30" x="63.623047"/>
       <use xlink:href="#DejaVuSans-30" x="127.246094"/>
      </g>
     </g>
    </g>
   </g>
   <g id="matplotlib.axis_10">
    <g id="ytick_9">
     <g id="line2d_42">
      <g>
       <use xlink:href="#mb848d2fa97" x="289.31" y="146.601418" style="fill: #262626; stroke: #262626; stroke-width: 1.25"/>
      </g>
     </g>
     <g id="text_33">
      <!-- 0 -->
      <g style="fill: #262626" transform="translate(272.81125 150.780559) scale(0.11 -0.11)">
       <use xlink:href="#DejaVuSans-30"/>
      </g>
     </g>
    </g>
    <g id="ytick_10">
     <g id="line2d_43">
      <g>
       <use xlink:href="#mb848d2fa97" x="289.31" y="101.335604" style="fill: #262626; stroke: #262626; stroke-width: 1.25"/>
      </g>
     </g>
     <g id="text_34">
      <!-- 1 -->
      <g style="fill: #262626" transform="translate(272.81125 105.514745) scale(0.11 -0.11)">
       <use xlink:href="#DejaVuSans-31"/>
      </g>
     </g>
    </g>
   </g>
   <g id="line2d_44">
    <path d="M 289.31 101.335604 
L 449.009262 101.426404 
L 449.423734 101.820134 
L 450.667151 103.46838 
L 453.75975 107.456668 
L 456.820466 111.041525 
L 459.944948 114.362677 
L 463.165076 117.461226 
L 466.44897 120.314633 
L 469.828511 122.959688 
L 473.335582 125.423516 
L 476.970183 127.70635 
L 480.604784 129.743103 
L 480.604784 129.743103 
" clip-path="url(#p95fa3299e7)" style="fill: none; stroke-dasharray: 5.55,2.4; stroke-dashoffset: 0; stroke: #117733; stroke-width: 1.5"/>
   </g>
   <g id="line2d_45">
    <path d="M 289.31 146.601418 
L 395.733665 146.533701 
L 395.829312 146.037271 
L 395.956842 143.849257 
L 396.180019 134.635099 
L 396.849551 103.388906 
L 397.072728 101.062113 
L 397.136493 101.082899 
L 397.264023 101.812908 
L 397.519083 105.13409 
L 398.985676 127.377194 
L 399.623326 132.685828 
L 400.292857 136.460006 
L 400.994272 139.188244 
L 401.727568 141.185525 
L 402.492747 142.657614 
L 403.321691 143.781036 
L 404.2144 144.62248 
L 405.234639 145.273674 
L 406.446173 145.770398 
L 407.944649 146.133641 
L 410.017009 146.389089 
L 413.26902 146.539637 
L 420.50634 146.597449 
L 480.604784 146.601335 
L 480.604784 146.601335 
" clip-path="url(#p95fa3299e7)" style="fill: none; stroke: #88ccee; stroke-width: 1.5; stroke-linecap: round"/>
   </g>
   <g id="line2d_46">
    <path d="M 289.31 146.601418 
L 342.713127 146.531131 
L 342.808775 146.200256 
L 342.936305 144.812581 
L 343.127599 139.54975 
L 343.573954 117.332399 
L 343.956543 104.109863 
L 344.211603 101.258418 
L 344.30725 101.123737 
L 344.339133 101.173553 
L 344.466663 101.768215 
L 344.721723 104.326482 
L 345.518784 115.861634 
L 346.283963 125.0247 
L 346.985377 130.882112 
L 347.686792 135.006376 
L 348.420088 138.075642 
L 349.185267 140.363469 
L 349.982329 142.067108 
L 350.811273 143.331039 
L 351.703982 144.292007 
L 352.692339 145.025 
L 353.808225 145.574156 
L 355.179171 145.992827 
L 356.964589 146.292855 
L 359.578951 146.486996 
L 364.36132 146.582741 
L 382.789385 146.601308 
L 480.604784 146.601308 
L 480.604784 146.601308 
" clip-path="url(#p95fa3299e7)" style="fill: none; stroke-dasharray: 1.5,2.475; stroke-dashoffset: 0; stroke: #cc6677; stroke-width: 1.5"/>
   </g>
   <g id="patch_23">
    <path d="M 289.31 148.879479 
L 289.31 98.762139 
" style="fill: none; stroke: #262626; stroke-width: 1.25; stroke-linejoin: miter; stroke-linecap: square"/>
   </g>
   <g id="patch_24">
    <path d="M 480.6 148.879479 
L 480.6 98.762139 
" style="fill: none; stroke: #262626; stroke-width: 1.25; stroke-linejoin: miter; stroke-linecap: square"/>
   </g>
   <g id="patch_25">
    <path d="M 289.31 148.879479 
L 480.6 148.879479 
" style="fill: none; stroke: #262626; stroke-width: 1.25; stroke-linejoin: miter; stroke-linecap: square"/>
   </g>
   <g id="patch_26">
    <path d="M 289.31 98.762139 
L 480.6 98.762139 
" style="fill: none; stroke: #262626; stroke-width: 1.25; stroke-linejoin: miter; stroke-linecap: square"/>
   </g>
  </g>
  <g id="axes_6">
   <g id="patch_27">
    <path d="M 289.31 233.28 
L 480.6 233.28 
L 480.6 183.16266 
L 289.31 183.16266 
z
" style="fill: #ffffff"/>
   </g>
   <g id="matplotlib.axis_11">
    <g id="xtick_24">
     <g id="line2d_47">
      <g>
       <use xlink:href="#m45ebb1101d" x="289.31" y="233.28" style="fill: #262626; stroke: #262626; stroke-width: 1.25"/>
      </g>
     </g>
     <g id="text_35">
      <!-- 0 -->
      <g style="fill: #262626" transform="translate(285.810625 251.138281) scale(0.11 -0.11)">
       <use xlink:href="#DejaVuSans-30"/>
      </g>
     </g>
    </g>
    <g id="xtick_25">
     <g id="line2d_48">
      <g>
       <use xlink:href="#m45ebb1101d" x="353.073333" y="233.28" style="fill: #262626; stroke: #262626; stroke-width: 1.25"/>
      </g>
     </g>
     <g id="text_36">
      <!-- 200 -->
      <g style="fill: #262626" transform="translate(342.575208 251.138281) scale(0.11 -0.11)">
       <use xlink:href="#DejaVuSans-32"/>
       <use xlink:href="#DejaVuSans-30" x="63.623047"/>
       <use xlink:href="#DejaVuSans-30" x="127.246094"/>
      </g>
     </g>
    </g>
    <g id="xtick_26">
     <g id="line2d_49">
      <g>
       <use xlink:href="#m45ebb1101d" x="416.836667" y="233.28" style="fill: #262626; stroke: #262626; stroke-width: 1.25"/>
      </g>
     </g>
     <g id="text_37">
      <!-- 400 -->
      <g style="fill: #262626" transform="translate(406.338542 251.138281) scale(0.11 -0.11)">
       <use xlink:href="#DejaVuSans-34"/>
       <use xlink:href="#DejaVuSans-30" x="63.623047"/>
       <use xlink:href="#DejaVuSans-30" x="127.246094"/>
      </g>
     </g>
    </g>
    <g id="xtick_27">
     <g id="line2d_50">
      <g>
       <use xlink:href="#m45ebb1101d" x="480.6" y="233.28" style="fill: #262626; stroke: #262626; stroke-width: 1.25"/>
      </g>
     </g>
     <g id="text_38">
      <!-- 600 -->
      <g style="fill: #262626" transform="translate(470.101875 251.138281) scale(0.11 -0.11)">
       <use xlink:href="#DejaVuSans-36"/>
       <use xlink:href="#DejaVuSans-30" x="63.623047"/>
       <use xlink:href="#DejaVuSans-30" x="127.246094"/>
      </g>
     </g>
    </g>
    <g id="text_39">
     <!-- t (ms) -->
     <g style="fill: #262626" transform="translate(367.044062 266.544062) scale(0.12 -0.12)">
      <use xlink:href="#DejaVuSans-74"/>
      <use xlink:href="#DejaVuSans-20" x="39.208984"/>
      <use xlink:href="#DejaVuSans-28" x="70.996094"/>
      <use xlink:href="#DejaVuSans-6d" x="110.009766"/>
      <use xlink:href="#DejaVuSans-73" x="207.421875"/>
      <use xlink:href="#DejaVuSans-29" x="259.521484"/>
     </g>
    </g>
   </g>
   <g id="matplotlib.axis_12">
    <g id="ytick_11">
     <g id="line2d_51">
      <g>
       <use xlink:href="#mb848d2fa97" x="289.31" y="232.9519" style="fill: #262626; stroke: #262626; stroke-width: 1.25"/>
      </g>
     </g>
     <g id="text_40">
      <!-- −0.2 -->
      <g style="fill: #262626" transform="translate(253.098906 237.131041) scale(0.11 -0.11)">
       <use xlink:href="#DejaVuSans-2212"/>
       <use xlink:href="#DejaVuSans-30" x="83.789062"/>
       <use xlink:href="#DejaVuSans-2e" x="147.412109"/>
       <use xlink:href="#DejaVuSans-32" x="179.199219"/>
      </g>
     </g>
    </g>
    <g id="ytick_12">
     <g id="line2d_52">
      <g>
       <use xlink:href="#mb848d2fa97" x="289.31" y="193.678989" style="fill: #262626; stroke: #262626; stroke-width: 1.25"/>
      </g>
     </g>
     <g id="text_41">
      <!-- 0.0 -->
      <g style="fill: #262626" transform="translate(262.316563 197.85813) scale(0.11 -0.11)">
       <use xlink:href="#DejaVuSans-30"/>
       <use xlink:href="#DejaVuSans-2e" x="63.623047"/>
       <use xlink:href="#DejaVuSans-30" x="95.410156"/>
      </g>
     </g>
    </g>
   </g>
   <g id="line2d_53">
    <path d="M 289.31 211.3518 
L 342.808775 211.452661 
L 342.936305 211.892167 
L 343.127599 213.777631 
L 343.478306 220.552988 
L 343.924661 227.647729 
L 344.179721 229.110938 
L 344.339133 229.211623 
L 344.466663 229.122016 
L 344.721723 228.225632 
L 345.327489 224.908346 
L 346.220198 220.463527 
L 346.953495 217.931525 
L 347.686792 216.157916 
L 348.483853 214.805144 
L 349.312797 213.821675 
L 350.237389 213.0634 
L 351.28951 212.486356 
L 352.564809 212.044937 
L 354.222697 211.719079 
L 356.581999 211.501377 
L 360.59919 211.384387 
L 372.268171 211.352186 
L 395.79743 211.259231 
L 395.893077 210.821762 
L 396.05249 208.631568 
L 396.339432 200.27068 
L 396.817669 187.730682 
L 397.040846 185.803321 
L 397.072728 185.806517 
L 397.232141 185.81152 
L 397.423436 186.860828 
L 397.86979 191.026788 
L 398.698734 198.319282 
L 399.336383 201.997906 
L 400.005915 204.587337 
L 400.707329 206.435298 
L 401.440626 207.774665 
L 402.237688 208.788612 
L 403.130397 209.568602 
L 404.150635 210.163157 
L 405.394052 210.620608 
L 406.988175 210.956429 
L 409.25183 211.185326 
L 413.013961 211.311951 
L 422.993172 211.350942 
L 450.954093 211.250217 
L 462.973782 210.443451 
L 474.228291 209.46698 
L 480.604784 208.811212 
L 480.604784 208.811212 
" clip-path="url(#p1183118440)" style="fill: none; stroke: #332288; stroke-width: 1.5; stroke-linecap: round"/>
   </g>
   <g id="patch_28">
    <path d="M 289.31 233.28 
L 289.31 183.16266 
" style="fill: none; stroke: #262626; stroke-width: 1.25; stroke-linejoin: miter; stroke-linecap: square"/>
   </g>
   <g id="patch_29">
    <path d="M 480.6 233.28 
L 480.6 183.16266 
" style="fill: none; stroke: #262626; stroke-width: 1.25; stroke-linejoin: miter; stroke-linecap: square"/>
   </g>
   <g id="patch_30">
    <path d="M 289.31 233.28 
L 480.6 233.28 
" style="fill: none; stroke: #262626; stroke-width: 1.25; stroke-linejoin: miter; stroke-linecap: square"/>
   </g>
   <g id="patch_31">
    <path d="M 289.31 183.16266 
L 480.6 183.16266 
" style="fill: none; stroke: #262626; stroke-width: 1.25; stroke-linejoin: miter; stroke-linecap: square"/>
   </g>
  </g>
 </g>
 <defs>
  <clipPath id="pce87977d72">
   <rect x="49.01" y="14.361618" width="191.29" height="50.11734"/>
  </clipPath>
  <clipPath id="pd46ce25128">
   <rect x="49.01" y="98.762139" width="191.29" height="50.11734"/>
  </clipPath>
  <clipPath id="p9dc9340cc1">
   <rect x="49.01" y="183.16266" width="191.29" height="50.11734"/>
  </clipPath>
  <clipPath id="p69e777f795">
   <rect x="289.31" y="14.361618" width="191.29" height="50.11734"/>
  </clipPath>
  <clipPath id="p95fa3299e7">
   <rect x="289.31" y="98.762139" width="191.29" height="50.11734"/>
  </clipPath>
  <clipPath id="p1183118440">
   <rect x="289.31" y="183.16266" width="191.29" height="50.11734"/>
  </clipPath>
 </defs>
</svg>
