<?xml version="1.0" encoding="utf-8" standalone="no"?>
<!DOCTYPE svg PUBLIC "-//W3C//DTD SVG 1.1//EN"
  "http://www.w3.org/Graphics/SVG/1.1/DTD/svg11.dtd">
<svg xmlns:xlink="http://www.w3.org/1999/xlink" width="504pt" height="283.5pt" viewBox="0 0 504 283.5" xmlns="http://www.w3.org/2000/svg" version="1.1">
 <metadata>
  <rdf:RDF xmlns:dc="http://purl.org/dc/elements/1.1/" xmlns:cc="http://creativecommons.org/ns#" xmlns:rdf="http://www.w3.org/1999/02/22-rdf-syntax-ns#">
   <cc:Work>
    <dc:type rdf:resource="http://purl.org/dc/dcmitype/StillImage"/>
    <dc:date>2023-03-31T09:54:33.818664</dc:date>
    <dc:format>image/svg+xml</dc:format>
    <dc:creator>
     <cc:Agent>
      <dc:title>Matplotlib v3.5.1, https://matplotlib.org/</dc:title>
     </cc:Agent>
    </dc:creator>
   </cc:Work>
  </rdf:RDF>
 </metadata>
 <defs>
  <style type="text/css">*{stroke-linejoin: round; stroke-linecap: butt}</style>
 </defs>
 <g id="figure_1">
  <g id="patch_1">
   <path d="M 0 283.5 
L 504 283.5 
L 504 0 
L 0 0 
z
" style="fill: #ffffff"/>
  </g>
  <g id="axes_1">
   <g id="patch_2">
    <path d="M 44.15 65.900208 
L 240.9525 65.900208 
L 240.9525 14.001618 
L 44.15 14.001618 
z
" style="fill: #ffffff"/>
   </g>
   <g id="matplotlib.axis_1">
    <g id="xtick_1">
     <g id="line2d_1">
      <defs>
       <path id="m3e6779f600" d="M 0 0 
L 0 6 
" style="stroke: #262626; stroke-width: 1.25"/>
      </defs>
      <g>
       <use xlink:href="#m3e6779f600" x="48.08605" y="65.900208" style="fill: #262626; stroke: #262626; stroke-width: 1.25"/>
      </g>
     </g>
     <g id="text_1">
      <!-- 1000 -->
      <g style="fill: #262626" transform="translate(35.851987 83.273802)scale(0.11 -0.11)">
       <defs>
        <path id="ArialMT-31" d="M 2384 0 
L 1822 0 
L 1822 3584 
Q 1619 3391 1289 3197 
Q 959 3003 697 2906 
L 697 3450 
Q 1169 3672 1522 3987 
Q 1875 4303 2022 4600 
L 2384 4600 
L 2384 0 
z
" transform="scale(0.015625)"/>
        <path id="ArialMT-30" d="M 266 2259 
Q 266 3072 433 3567 
Q 600 4063 929 4331 
Q 1259 4600 1759 4600 
Q 2128 4600 2406 4451 
Q 2684 4303 2865 4023 
Q 3047 3744 3150 3342 
Q 3253 2941 3253 2259 
Q 3253 1453 3087 958 
Q 2922 463 2592 192 
Q 2263 -78 1759 -78 
Q 1097 -78 719 397 
Q 266 969 266 2259 
z
M 844 2259 
Q 844 1131 1108 757 
Q 1372 384 1759 384 
Q 2147 384 2411 759 
Q 2675 1134 2675 2259 
Q 2675 3391 2411 3762 
Q 2147 4134 1753 4134 
Q 1366 4134 1134 3806 
Q 844 3388 844 2259 
z
" transform="scale(0.015625)"/>
       </defs>
       <use xlink:href="#ArialMT-31"/>
       <use xlink:href="#ArialMT-30" x="55.615234"/>
       <use xlink:href="#ArialMT-30" x="111.230469"/>
       <use xlink:href="#ArialMT-30" x="166.845703"/>
      </g>
     </g>
    </g>
    <g id="xtick_2">
     <g id="line2d_2">
      <g>
       <use xlink:href="#m3e6779f600" x="87.44655" y="65.900208" style="fill: #262626; stroke: #262626; stroke-width: 1.25"/>
      </g>
     </g>
     <g id="text_2">
      <!-- 1100 -->
      <g style="fill: #262626" transform="translate(75.618112 83.273802)scale(0.11 -0.11)">
       <use xlink:href="#ArialMT-31"/>
       <use xlink:href="#ArialMT-31" x="48.240234"/>
       <use xlink:href="#ArialMT-30" x="103.855469"/>
       <use xlink:href="#ArialMT-30" x="159.470703"/>
      </g>
     </g>
    </g>
    <g id="xtick_3">
     <g id="line2d_3">
      <g>
       <use xlink:href="#m3e6779f600" x="126.80705" y="65.900208" style="fill: #262626; stroke: #262626; stroke-width: 1.25"/>
      </g>
     </g>
     <g id="text_3">
      <!-- 1200 -->
      <g style="fill: #262626" transform="translate(114.572988 83.273802)scale(0.11 -0.11)">
       <defs>
        <path id="ArialMT-32" d="M 3222 541 
L 3222 0 
L 194 0 
Q 188 203 259 391 
Q 375 700 629 1000 
Q 884 1300 1366 1694 
Q 2113 2306 2375 2664 
Q 2638 3022 2638 3341 
Q 2638 3675 2398 3904 
Q 2159 4134 1775 4134 
Q 1369 4134 1125 3890 
Q 881 3647 878 3216 
L 300 3275 
Q 359 3922 746 4261 
Q 1134 4600 1788 4600 
Q 2447 4600 2831 4234 
Q 3216 3869 3216 3328 
Q 3216 3053 3103 2787 
Q 2991 2522 2730 2228 
Q 2469 1934 1863 1422 
Q 1356 997 1212 845 
Q 1069 694 975 541 
L 3222 541 
z
" transform="scale(0.015625)"/>
       </defs>
       <use xlink:href="#ArialMT-31"/>
       <use xlink:href="#ArialMT-32" x="55.615234"/>
       <use xlink:href="#ArialMT-30" x="111.230469"/>
       <use xlink:href="#ArialMT-30" x="166.845703"/>
      </g>
     </g>
    </g>
    <g id="xtick_4">
     <g id="line2d_4">
      <g>
       <use xlink:href="#m3e6779f600" x="166.16755" y="65.900208" style="fill: #262626; stroke: #262626; stroke-width: 1.25"/>
      </g>
     </g>
     <g id="text_4">
      <!-- 1300 -->
      <g style="fill: #262626" transform="translate(153.933488 83.273802)scale(0.11 -0.11)">
       <defs>
        <path id="ArialMT-33" d="M 269 1209 
L 831 1284 
Q 928 806 1161 595 
Q 1394 384 1728 384 
Q 2125 384 2398 659 
Q 2672 934 2672 1341 
Q 2672 1728 2419 1979 
Q 2166 2231 1775 2231 
Q 1616 2231 1378 2169 
L 1441 2663 
Q 1497 2656 1531 2656 
Q 1891 2656 2178 2843 
Q 2466 3031 2466 3422 
Q 2466 3731 2256 3934 
Q 2047 4138 1716 4138 
Q 1388 4138 1169 3931 
Q 950 3725 888 3313 
L 325 3413 
Q 428 3978 793 4289 
Q 1159 4600 1703 4600 
Q 2078 4600 2393 4439 
Q 2709 4278 2876 4000 
Q 3044 3722 3044 3409 
Q 3044 3113 2884 2869 
Q 2725 2625 2413 2481 
Q 2819 2388 3044 2092 
Q 3269 1797 3269 1353 
Q 3269 753 2831 336 
Q 2394 -81 1725 -81 
Q 1122 -81 723 278 
Q 325 638 269 1209 
z
" transform="scale(0.015625)"/>
       </defs>
       <use xlink:href="#ArialMT-31"/>
       <use xlink:href="#ArialMT-33" x="55.615234"/>
       <use xlink:href="#ArialMT-30" x="111.230469"/>
       <use xlink:href="#ArialMT-30" x="166.845703"/>
      </g>
     </g>
    </g>
    <g id="xtick_5">
     <g id="line2d_5">
      <g>
       <use xlink:href="#m3e6779f600" x="205.52805" y="65.900208" style="fill: #262626; stroke: #262626; stroke-width: 1.25"/>
      </g>
     </g>
     <g id="text_5">
      <!-- 1400 -->
      <g style="fill: #262626" transform="translate(193.293988 83.273802)scale(0.11 -0.11)">
       <defs>
        <path id="ArialMT-34" d="M 2069 0 
L 2069 1097 
L 81 1097 
L 81 1613 
L 2172 4581 
L 2631 4581 
L 2631 1613 
L 3250 1613 
L 3250 1097 
L 2631 1097 
L 2631 0 
L 2069 0 
z
M 2069 1613 
L 2069 3678 
L 634 1613 
L 2069 1613 
z
" transform="scale(0.015625)"/>
       </defs>
       <use xlink:href="#ArialMT-31"/>
       <use xlink:href="#ArialMT-34" x="55.615234"/>
       <use xlink:href="#ArialMT-30" x="111.230469"/>
       <use xlink:href="#ArialMT-30" x="166.845703"/>
      </g>
     </g>
    </g>
   </g>
   <g id="matplotlib.axis_2">
    <g id="ytick_1">
     <g id="line2d_6">
      <defs>
       <path id="mabdcc9081d" d="M 0 0 
L -6 0 
" style="stroke: #262626; stroke-width: 1.25"/>
      </defs>
      <g>
       <use xlink:href="#mabdcc9081d" x="44.15" y="63.541181" style="fill: #262626; stroke: #262626; stroke-width: 1.25"/>
      </g>
     </g>
     <g id="text_6">
      <!-- 0 -->
      <g style="fill: #262626" transform="translate(28.532969 67.477978)scale(0.11 -0.11)">
       <use xlink:href="#ArialMT-30"/>
      </g>
     </g>
    </g>
    <g id="ytick_2">
     <g id="line2d_7">
      <g>
       <use xlink:href="#mabdcc9081d" x="44.15" y="16.360644" style="fill: #262626; stroke: #262626; stroke-width: 1.25"/>
      </g>
     </g>
     <g id="text_7">
      <!-- 1 -->
      <g style="fill: #262626" transform="translate(28.532969 20.297441)scale(0.11 -0.11)">
       <use xlink:href="#ArialMT-31"/>
      </g>
     </g>
    </g>
   </g>
   <g id="line2d_8">
    <path d="M 44.120384 63.541181 
L 47.899087 63.541181 
L 48.017171 16.360644 
L 240.967168 16.360644 
L 240.967168 16.360644 
" clip-path="url(#pb885ae32d0)" style="fill: none; stroke-dasharray: 5.55,2.4; stroke-dashoffset: 0; stroke: #117733; stroke-width: 1.5"/>
   </g>
   <g id="line2d_9">
    <path d="M 44.120384 63.541181 
L 113.47532 63.541181 
L 113.593404 16.360644 
L 240.967168 16.360644 
L 240.967168 16.360644 
" clip-path="url(#pb885ae32d0)" style="fill: none; stroke: #88ccee; stroke-width: 1.5; stroke-linecap: round"/>
   </g>
   <g id="line2d_10">
    <path d="M 44.120384 63.541181 
L 179.051553 63.541181 
L 179.169637 16.360644 
L 240.967168 16.360644 
L 240.967168 16.360644 
" clip-path="url(#pb885ae32d0)" style="fill: none; stroke-dasharray: 1.5,2.475; stroke-dashoffset: 0; stroke: #cc6677; stroke-width: 1.5"/>
   </g>
   <g id="patch_3">
    <path d="M 44.15 65.900208 
L 44.15 14.001618 
" style="fill: none; stroke: #262626; stroke-width: 1.25; stroke-linejoin: miter; stroke-linecap: square"/>
   </g>
   <g id="patch_4">
    <path d="M 240.9525 65.900208 
L 240.9525 14.001618 
" style="fill: none; stroke: #262626; stroke-width: 1.25; stroke-linejoin: miter; stroke-linecap: square"/>
   </g>
   <g id="patch_5">
    <path d="M 44.15 65.900208 
L 240.9525 65.900208 
" style="fill: none; stroke: #262626; stroke-width: 1.25; stroke-linejoin: miter; stroke-linecap: square"/>
   </g>
   <g id="patch_6">
    <path d="M 44.15 14.001618 
L 240.9525 14.001618 
" style="fill: none; stroke: #262626; stroke-width: 1.25; stroke-linejoin: miter; stroke-linecap: square"/>
   </g>
  </g>
  <g id="axes_2">
   <g id="patch_7">
    <path d="M 44.15 151.001979 
L 240.9525 151.001979 
L 240.9525 99.103389 
L 44.15 99.103389 
z
" style="fill: #ffffff"/>
   </g>
   <g id="matplotlib.axis_3">
    <g id="xtick_6">
     <g id="line2d_11">
      <g>
       <use xlink:href="#m3e6779f600" x="48.08605" y="151.001979" style="fill: #262626; stroke: #262626; stroke-width: 1.25"/>
      </g>
     </g>
     <g id="text_8">
      <!-- 1000 -->
      <g style="fill: #262626" transform="translate(35.851987 168.375573)scale(0.11 -0.11)">
       <use xlink:href="#ArialMT-31"/>
       <use xlink:href="#ArialMT-30" x="55.615234"/>
       <use xlink:href="#ArialMT-30" x="111.230469"/>
       <use xlink:href="#ArialMT-30" x="166.845703"/>
      </g>
     </g>
    </g>
    <g id="xtick_7">
     <g id="line2d_12">
      <g>
       <use xlink:href="#m3e6779f600" x="87.44655" y="151.001979" style="fill: #262626; stroke: #262626; stroke-width: 1.25"/>
      </g>
     </g>
     <g id="text_9">
      <!-- 1100 -->
      <g style="fill: #262626" transform="translate(75.618112 168.375573)scale(0.11 -0.11)">
       <use xlink:href="#ArialMT-31"/>
       <use xlink:href="#ArialMT-31" x="48.240234"/>
       <use xlink:href="#ArialMT-30" x="103.855469"/>
       <use xlink:href="#ArialMT-30" x="159.470703"/>
      </g>
     </g>
    </g>
    <g id="xtick_8">
     <g id="line2d_13">
      <g>
       <use xlink:href="#m3e6779f600" x="126.80705" y="151.001979" style="fill: #262626; stroke: #262626; stroke-width: 1.25"/>
      </g>
     </g>
     <g id="text_10">
      <!-- 1200 -->
      <g style="fill: #262626" transform="translate(114.572988 168.375573)scale(0.11 -0.11)">
       <use xlink:href="#ArialMT-31"/>
       <use xlink:href="#ArialMT-32" x="55.615234"/>
       <use xlink:href="#ArialMT-30" x="111.230469"/>
       <use xlink:href="#ArialMT-30" x="166.845703"/>
      </g>
     </g>
    </g>
    <g id="xtick_9">
     <g id="line2d_14">
      <g>
       <use xlink:href="#m3e6779f600" x="166.16755" y="151.001979" style="fill: #262626; stroke: #262626; stroke-width: 1.25"/>
      </g>
     </g>
     <g id="text_11">
      <!-- 1300 -->
      <g style="fill: #262626" transform="translate(153.933488 168.375573)scale(0.11 -0.11)">
       <use xlink:href="#ArialMT-31"/>
       <use xlink:href="#ArialMT-33" x="55.615234"/>
       <use xlink:href="#ArialMT-30" x="111.230469"/>
       <use xlink:href="#ArialMT-30" x="166.845703"/>
      </g>
     </g>
    </g>
    <g id="xtick_10">
     <g id="line2d_15">
      <g>
       <use xlink:href="#m3e6779f600" x="205.52805" y="151.001979" style="fill: #262626; stroke: #262626; stroke-width: 1.25"/>
      </g>
     </g>
     <g id="text_12">
      <!-- 1400 -->
      <g style="fill: #262626" transform="translate(193.293988 168.375573)scale(0.11 -0.11)">
       <use xlink:href="#ArialMT-31"/>
       <use xlink:href="#ArialMT-34" x="55.615234"/>
       <use xlink:href="#ArialMT-30" x="111.230469"/>
       <use xlink:href="#ArialMT-30" x="166.845703"/>
      </g>
     </g>
    </g>
   </g>
   <g id="matplotlib.axis_4">
    <g id="ytick_3">
     <g id="line2d_16">
      <g>
       <use xlink:href="#mabdcc9081d" x="44.15" y="148.642952" style="fill: #262626; stroke: #262626; stroke-width: 1.25"/>
      </g>
     </g>
     <g id="text_13">
      <!-- 0 -->
      <g style="fill: #262626" transform="translate(28.532969 152.579749)scale(0.11 -0.11)">
       <use xlink:href="#ArialMT-30"/>
      </g>
     </g>
    </g>
    <g id="ytick_4">
     <g id="line2d_17">
      <g>
       <use xlink:href="#mabdcc9081d" x="44.15" y="101.768319" style="fill: #262626; stroke: #262626; stroke-width: 1.25"/>
      </g>
     </g>
     <g id="text_14">
      <!-- 1 -->
      <g style="fill: #262626" transform="translate(28.532969 105.705116)scale(0.11 -0.11)">
       <use xlink:href="#ArialMT-31"/>
      </g>
     </g>
    </g>
   </g>
   <g id="line2d_18">
    <path d="M 44.120384 101.872254 
L 48.371425 101.953208 
L 48.883124 102.359666 
L 50.260776 103.884856 
L 53.882033 107.819151 
L 57.424566 111.334488 
L 61.045823 114.615273 
L 64.745802 117.669606 
L 68.563866 120.534275 
L 72.500015 123.210437 
L 76.593609 125.72372 
L 80.844649 128.071129 
L 85.253136 130.251861 
L 89.897791 132.299822 
L 94.778615 134.206655 
L 99.934969 135.980003 
L 105.406216 137.624059 
L 111.231715 139.140622 
L 117.490191 140.538143 
L 124.260367 141.819455 
L 131.620964 142.983777 
L 139.72943 144.037802 
L 148.74321 144.980764 
L 158.859111 145.811093 
L 170.431388 146.532743 
L 183.932377 147.145721 
L 200.149309 147.651501 
L 220.381112 148.050115 
L 240.967168 148.291642 
L 240.967168 148.291642 
" clip-path="url(#paa18f3eb09)" style="fill: none; stroke-dasharray: 5.55,2.4; stroke-dashoffset: 0; stroke: #117733; stroke-width: 1.5"/>
   </g>
   <g id="line2d_19">
    <path d="M 44.120384 148.642949 
L 113.75085 148.57283 
L 113.868935 148.058759 
L 114.026381 145.792979 
L 114.26255 137.990436 
L 115.128502 103.894607 
L 115.364671 101.579303 
L 115.443394 101.462427 
L 115.482756 101.506644 
L 115.60084 101.995551 
L 115.837009 104.19471 
L 116.427431 112.734629 
L 117.293384 124.189539 
L 118.001891 130.621362 
L 118.710397 135.097309 
L 119.458266 138.44285 
L 120.245495 140.966302 
L 121.072086 142.88189 
L 121.938039 144.339802 
L 122.843353 145.448643 
L 123.866752 146.347904 
L 125.008235 147.046996 
L 126.346525 147.595281 
L 127.960346 148.009368 
L 130.085866 148.314769 
L 133.195424 148.517006 
L 138.745393 148.620046 
L 157.875074 148.642866 
L 240.967168 148.642866 
L 240.967168 148.642866 
" clip-path="url(#paa18f3eb09)" style="fill: none; stroke: #88ccee; stroke-width: 1.5; stroke-linecap: round"/>
   </g>
   <g id="line2d_20">
    <path d="M 44.120384 148.642949 
L 179.445168 148.570166 
L 179.563252 148.227533 
L 179.720698 146.79054 
L 179.917506 142.546923 
L 180.271759 128.647868 
L 180.862181 106.956894 
L 181.177073 102.33699 
L 181.373881 101.544278 
L 181.452604 101.60052 
L 181.610049 102.216317 
L 181.88558 104.460576 
L 182.554725 112.483342 
L 183.538762 123.501915 
L 184.325992 129.874174 
L 185.113222 134.488058 
L 185.900451 137.865252 
L 186.727042 140.48321 
L 187.592995 142.507078 
L 188.498309 144.064763 
L 189.442985 145.256339 
L 190.466383 146.191551 
L 191.607867 146.928329 
L 192.906796 147.498333 
L 194.481255 147.939878 
L 196.528052 148.268916 
L 199.40144 148.488362 
L 204.282265 148.608406 
L 218.058784 148.642458 
L 240.967168 148.642839 
L 240.967168 148.642839 
" clip-path="url(#paa18f3eb09)" style="fill: none; stroke-dasharray: 1.5,2.475; stroke-dashoffset: 0; stroke: #cc6677; stroke-width: 1.5"/>
   </g>
   <g id="patch_8">
    <path d="M 44.15 151.001979 
L 44.15 99.103389 
" style="fill: none; stroke: #262626; stroke-width: 1.25; stroke-linejoin: miter; stroke-linecap: square"/>
   </g>
   <g id="patch_9">
    <path d="M 240.9525 151.001979 
L 240.9525 99.103389 
" style="fill: none; stroke: #262626; stroke-width: 1.25; stroke-linejoin: miter; stroke-linecap: square"/>
   </g>
   <g id="patch_10">
    <path d="M 44.15 151.001979 
L 240.9525 151.001979 
" style="fill: none; stroke: #262626; stroke-width: 1.25; stroke-linejoin: miter; stroke-linecap: square"/>
   </g>
   <g id="patch_11">
    <path d="M 44.15 99.103389 
L 240.9525 99.103389 
" style="fill: none; stroke: #262626; stroke-width: 1.25; stroke-linejoin: miter; stroke-linecap: square"/>
   </g>
  </g>
  <g id="axes_3">
   <g id="patch_12">
    <path d="M 44.15 236.10375 
L 240.9525 236.10375 
L 240.9525 184.20516 
L 44.15 184.20516 
z
" style="fill: #ffffff"/>
   </g>
   <g id="matplotlib.axis_5">
    <g id="xtick_11">
     <g id="line2d_21">
      <g>
       <use xlink:href="#m3e6779f600" x="48.08605" y="236.10375" style="fill: #262626; stroke: #262626; stroke-width: 1.25"/>
      </g>
     </g>
     <g id="text_15">
      <!-- 1000 -->
      <g style="fill: #262626" transform="translate(35.851987 253.477344)scale(0.11 -0.11)">
       <use xlink:href="#ArialMT-31"/>
       <use xlink:href="#ArialMT-30" x="55.615234"/>
       <use xlink:href="#ArialMT-30" x="111.230469"/>
       <use xlink:href="#ArialMT-30" x="166.845703"/>
      </g>
     </g>
    </g>
    <g id="xtick_12">
     <g id="line2d_22">
      <g>
       <use xlink:href="#m3e6779f600" x="87.44655" y="236.10375" style="fill: #262626; stroke: #262626; stroke-width: 1.25"/>
      </g>
     </g>
     <g id="text_16">
      <!-- 1100 -->
      <g style="fill: #262626" transform="translate(75.618112 253.477344)scale(0.11 -0.11)">
       <use xlink:href="#ArialMT-31"/>
       <use xlink:href="#ArialMT-31" x="48.240234"/>
       <use xlink:href="#ArialMT-30" x="103.855469"/>
       <use xlink:href="#ArialMT-30" x="159.470703"/>
      </g>
     </g>
    </g>
    <g id="xtick_13">
     <g id="line2d_23">
      <g>
       <use xlink:href="#m3e6779f600" x="126.80705" y="236.10375" style="fill: #262626; stroke: #262626; stroke-width: 1.25"/>
      </g>
     </g>
     <g id="text_17">
      <!-- 1200 -->
      <g style="fill: #262626" transform="translate(114.572988 253.477344)scale(0.11 -0.11)">
       <use xlink:href="#ArialMT-31"/>
       <use xlink:href="#ArialMT-32" x="55.615234"/>
       <use xlink:href="#ArialMT-30" x="111.230469"/>
       <use xlink:href="#ArialMT-30" x="166.845703"/>
      </g>
     </g>
    </g>
    <g id="xtick_14">
     <g id="line2d_24">
      <g>
       <use xlink:href="#m3e6779f600" x="166.16755" y="236.10375" style="fill: #262626; stroke: #262626; stroke-width: 1.25"/>
      </g>
     </g>
     <g id="text_18">
      <!-- 1300 -->
      <g style="fill: #262626" transform="translate(153.933488 253.477344)scale(0.11 -0.11)">
       <use xlink:href="#ArialMT-31"/>
       <use xlink:href="#ArialMT-33" x="55.615234"/>
       <use xlink:href="#ArialMT-30" x="111.230469"/>
       <use xlink:href="#ArialMT-30" x="166.845703"/>
      </g>
     </g>
    </g>
    <g id="xtick_15">
     <g id="line2d_25">
      <g>
       <use xlink:href="#m3e6779f600" x="205.52805" y="236.10375" style="fill: #262626; stroke: #262626; stroke-width: 1.25"/>
      </g>
     </g>
     <g id="text_19">
      <!-- 1400 -->
      <g style="fill: #262626" transform="translate(193.293988 253.477344)scale(0.11 -0.11)">
       <use xlink:href="#ArialMT-31"/>
       <use xlink:href="#ArialMT-34" x="55.615234"/>
       <use xlink:href="#ArialMT-30" x="111.230469"/>
       <use xlink:href="#ArialMT-30" x="166.845703"/>
      </g>
     </g>
    </g>
    <g id="text_20">
     <!-- t (ms) -->
     <g style="fill: #262626" transform="translate(127.224062 268.399219)scale(0.12 -0.12)">
      <defs>
       <path id="ArialMT-74" d="M 1650 503 
L 1731 6 
Q 1494 -44 1306 -44 
Q 1000 -44 831 53 
Q 663 150 594 308 
Q 525 466 525 972 
L 525 2881 
L 113 2881 
L 113 3319 
L 525 3319 
L 525 4141 
L 1084 4478 
L 1084 3319 
L 1650 3319 
L 1650 2881 
L 1084 2881 
L 1084 941 
Q 1084 700 1114 631 
Q 1144 563 1211 522 
Q 1278 481 1403 481 
Q 1497 481 1650 503 
z
" transform="scale(0.015625)"/>
       <path id="ArialMT-20" transform="scale(0.015625)"/>
       <path id="ArialMT-28" d="M 1497 -1347 
Q 1031 -759 709 28 
Q 388 816 388 1659 
Q 388 2403 628 3084 
Q 909 3875 1497 4659 
L 1900 4659 
Q 1522 4009 1400 3731 
Q 1209 3300 1100 2831 
Q 966 2247 966 1656 
Q 966 153 1900 -1347 
L 1497 -1347 
z
" transform="scale(0.015625)"/>
       <path id="ArialMT-6d" d="M 422 0 
L 422 3319 
L 925 3319 
L 925 2853 
Q 1081 3097 1340 3245 
Q 1600 3394 1931 3394 
Q 2300 3394 2536 3241 
Q 2772 3088 2869 2813 
Q 3263 3394 3894 3394 
Q 4388 3394 4653 3120 
Q 4919 2847 4919 2278 
L 4919 0 
L 4359 0 
L 4359 2091 
Q 4359 2428 4304 2576 
Q 4250 2725 4106 2815 
Q 3963 2906 3769 2906 
Q 3419 2906 3187 2673 
Q 2956 2441 2956 1928 
L 2956 0 
L 2394 0 
L 2394 2156 
Q 2394 2531 2256 2718 
Q 2119 2906 1806 2906 
Q 1569 2906 1367 2781 
Q 1166 2656 1075 2415 
Q 984 2175 984 1722 
L 984 0 
L 422 0 
z
" transform="scale(0.015625)"/>
       <path id="ArialMT-73" d="M 197 991 
L 753 1078 
Q 800 744 1014 566 
Q 1228 388 1613 388 
Q 2000 388 2187 545 
Q 2375 703 2375 916 
Q 2375 1106 2209 1216 
Q 2094 1291 1634 1406 
Q 1016 1563 777 1677 
Q 538 1791 414 1992 
Q 291 2194 291 2438 
Q 291 2659 392 2848 
Q 494 3038 669 3163 
Q 800 3259 1026 3326 
Q 1253 3394 1513 3394 
Q 1903 3394 2198 3281 
Q 2494 3169 2634 2976 
Q 2775 2784 2828 2463 
L 2278 2388 
Q 2241 2644 2061 2787 
Q 1881 2931 1553 2931 
Q 1166 2931 1000 2803 
Q 834 2675 834 2503 
Q 834 2394 903 2306 
Q 972 2216 1119 2156 
Q 1203 2125 1616 2013 
Q 2213 1853 2448 1751 
Q 2684 1650 2818 1456 
Q 2953 1263 2953 975 
Q 2953 694 2789 445 
Q 2625 197 2315 61 
Q 2006 -75 1616 -75 
Q 969 -75 630 194 
Q 291 463 197 991 
z
" transform="scale(0.015625)"/>
       <path id="ArialMT-29" d="M 791 -1347 
L 388 -1347 
Q 1322 153 1322 1656 
Q 1322 2244 1188 2822 
Q 1081 3291 891 3722 
Q 769 4003 388 4659 
L 791 4659 
Q 1378 3875 1659 3084 
Q 1900 2403 1900 1659 
Q 1900 816 1576 28 
Q 1253 -759 791 -1347 
z
" transform="scale(0.015625)"/>
      </defs>
      <use xlink:href="#ArialMT-74"/>
      <use xlink:href="#ArialMT-20" x="27.783203"/>
      <use xlink:href="#ArialMT-28" x="55.566406"/>
      <use xlink:href="#ArialMT-6d" x="88.867188"/>
      <use xlink:href="#ArialMT-73" x="172.167969"/>
      <use xlink:href="#ArialMT-29" x="222.167969"/>
     </g>
    </g>
   </g>
   <g id="matplotlib.axis_6">
    <g id="ytick_5">
     <g id="line2d_26">
      <g>
       <use xlink:href="#mabdcc9081d" x="44.15" y="230.516568" style="fill: #262626; stroke: #262626; stroke-width: 1.25"/>
      </g>
     </g>
     <g id="text_21">
      <!-- −0.5 -->
      <g style="fill: #262626" transform="translate(12.935312 234.453365)scale(0.11 -0.11)">
       <defs>
        <path id="ArialMT-2212" d="M 3381 1997 
L 356 1997 
L 356 2522 
L 3381 2522 
L 3381 1997 
z
" transform="scale(0.015625)"/>
        <path id="ArialMT-2e" d="M 581 0 
L 581 641 
L 1222 641 
L 1222 0 
L 581 0 
z
" transform="scale(0.015625)"/>
        <path id="ArialMT-35" d="M 266 1200 
L 856 1250 
Q 922 819 1161 601 
Q 1400 384 1738 384 
Q 2144 384 2425 690 
Q 2706 997 2706 1503 
Q 2706 1984 2436 2262 
Q 2166 2541 1728 2541 
Q 1456 2541 1237 2417 
Q 1019 2294 894 2097 
L 366 2166 
L 809 4519 
L 3088 4519 
L 3088 3981 
L 1259 3981 
L 1013 2750 
Q 1425 3038 1878 3038 
Q 2478 3038 2890 2622 
Q 3303 2206 3303 1553 
Q 3303 931 2941 478 
Q 2500 -78 1738 -78 
Q 1113 -78 717 272 
Q 322 622 266 1200 
z
" transform="scale(0.015625)"/>
       </defs>
       <use xlink:href="#ArialMT-2212"/>
       <use xlink:href="#ArialMT-30" x="58.398438"/>
       <use xlink:href="#ArialMT-2e" x="114.013672"/>
       <use xlink:href="#ArialMT-35" x="141.796875"/>
      </g>
     </g>
    </g>
    <g id="ytick_6">
     <g id="line2d_27">
      <g>
       <use xlink:href="#mabdcc9081d" x="44.15" y="205.94536" style="fill: #262626; stroke: #262626; stroke-width: 1.25"/>
      </g>
     </g>
     <g id="text_22">
      <!-- 0.0 -->
      <g style="fill: #262626" transform="translate(19.36 209.882157)scale(0.11 -0.11)">
       <use xlink:href="#ArialMT-30"/>
       <use xlink:href="#ArialMT-2e" x="55.615234"/>
       <use xlink:href="#ArialMT-30" x="83.398438"/>
      </g>
     </g>
    </g>
   </g>
   <g id="line2d_28">
    <path d="M 44.120384 210.367194 
L 57.542651 210.256671 
L 85.725473 209.766758 
L 113.672127 209.053587 
L 113.868935 208.978566 
L 113.987019 208.677853 
L 114.144465 207.55331 
L 114.380634 203.876556 
L 115.246587 187.872233 
L 115.482756 186.723215 
L 115.640202 186.564186 
L 115.679563 186.591269 
L 115.837009 186.950749 
L 116.151901 188.45834 
L 118.001891 198.835248 
L 118.749759 201.29384 
L 119.536989 203.129991 
L 120.36358 204.511191 
L 121.268894 205.595671 
L 122.252931 206.43177 
L 123.394414 207.10127 
L 124.732704 207.615587 
L 126.346525 207.990377 
L 128.472046 208.244075 
L 131.50288 208.364896 
L 136.698596 208.319806 
L 152.758081 207.860682 
L 179.523891 207.172729 
L 179.681337 207.364259 
L 179.838783 208.049315 
L 180.03559 210.136243 
L 180.350482 216.531231 
L 181.019627 230.344592 
L 181.334519 233.028314 
L 181.570688 233.691806 
L 181.728134 233.716299 
L 181.924941 233.357315 
L 182.239833 232.18757 
L 182.908978 228.621352 
L 184.207907 221.813657 
L 185.113222 218.225125 
L 186.018536 215.500177 
L 186.92385 213.436226 
L 187.868526 211.810285 
L 188.852563 210.543176 
L 189.915323 209.534233 
L 191.056806 208.751356 
L 192.355735 208.126844 
L 193.930194 207.624637 
L 195.898268 207.240413 
L 198.614211 206.952129 
L 202.943974 206.741886 
L 212.469453 206.553154 
L 240.573553 206.261581 
L 240.967168 206.258636 
L 240.967168 206.258636 
" clip-path="url(#p571613ac66)" style="fill: none; stroke: #332288; stroke-width: 1.5; stroke-linecap: round"/>
   </g>
   <g id="patch_13">
    <path d="M 44.15 236.10375 
L 44.15 184.20516 
" style="fill: none; stroke: #262626; stroke-width: 1.25; stroke-linejoin: miter; stroke-linecap: square"/>
   </g>
   <g id="patch_14">
    <path d="M 240.9525 236.10375 
L 240.9525 184.20516 
" style="fill: none; stroke: #262626; stroke-width: 1.25; stroke-linejoin: miter; stroke-linecap: square"/>
   </g>
   <g id="patch_15">
    <path d="M 44.15 236.10375 
L 240.9525 236.10375 
" style="fill: none; stroke: #262626; stroke-width: 1.25; stroke-linejoin: miter; stroke-linecap: square"/>
   </g>
   <g id="patch_16">
    <path d="M 44.15 184.20516 
L 240.9525 184.20516 
" style="fill: none; stroke: #262626; stroke-width: 1.25; stroke-linejoin: miter; stroke-linecap: square"/>
   </g>
  </g>
  <g id="axes_4">
   <g id="patch_17">
    <path d="M 285.0125 65.900208 
L 481.815 65.900208 
L 481.815 14.001618 
L 285.0125 14.001618 
z
" style="fill: #ffffff"/>
   </g>
   <g id="matplotlib.axis_7">
    <g id="xtick_16">
     <g id="line2d_29">
      <g>
       <use xlink:href="#m3e6779f600" x="285.0125" y="65.900208" style="fill: #262626; stroke: #262626; stroke-width: 1.25"/>
      </g>
     </g>
     <g id="text_23">
      <!-- 0 -->
      <g style="fill: #262626" transform="translate(281.953984 83.273802)scale(0.11 -0.11)">
       <use xlink:href="#ArialMT-30"/>
      </g>
     </g>
    </g>
    <g id="xtick_17">
     <g id="line2d_30">
      <g>
       <use xlink:href="#m3e6779f600" x="350.613333" y="65.900208" style="fill: #262626; stroke: #262626; stroke-width: 1.25"/>
      </g>
     </g>
     <g id="text_24">
      <!-- 200 -->
      <g style="fill: #262626" transform="translate(341.437786 83.273802)scale(0.11 -0.11)">
       <use xlink:href="#ArialMT-32"/>
       <use xlink:href="#ArialMT-30" x="55.615234"/>
       <use xlink:href="#ArialMT-30" x="111.230469"/>
      </g>
     </g>
    </g>
    <g id="xtick_18">
     <g id="line2d_31">
      <g>
       <use xlink:href="#m3e6779f600" x="416.214167" y="65.900208" style="fill: #262626; stroke: #262626; stroke-width: 1.25"/>
      </g>
     </g>
     <g id="text_25">
      <!-- 400 -->
      <g style="fill: #262626" transform="translate(407.03862 83.273802)scale(0.11 -0.11)">
       <use xlink:href="#ArialMT-34"/>
       <use xlink:href="#ArialMT-30" x="55.615234"/>
       <use xlink:href="#ArialMT-30" x="111.230469"/>
      </g>
     </g>
    </g>
    <g id="xtick_19">
     <g id="line2d_32">
      <g>
       <use xlink:href="#m3e6779f600" x="481.815" y="65.900208" style="fill: #262626; stroke: #262626; stroke-width: 1.25"/>
      </g>
     </g>
     <g id="text_26">
      <!-- 600 -->
      <g style="fill: #262626" transform="translate(472.639453 83.273802)scale(0.11 -0.11)">
       <defs>
        <path id="ArialMT-36" d="M 3184 3459 
L 2625 3416 
Q 2550 3747 2413 3897 
Q 2184 4138 1850 4138 
Q 1581 4138 1378 3988 
Q 1113 3794 959 3422 
Q 806 3050 800 2363 
Q 1003 2672 1297 2822 
Q 1591 2972 1913 2972 
Q 2475 2972 2870 2558 
Q 3266 2144 3266 1488 
Q 3266 1056 3080 686 
Q 2894 316 2569 119 
Q 2244 -78 1831 -78 
Q 1128 -78 684 439 
Q 241 956 241 2144 
Q 241 3472 731 4075 
Q 1159 4600 1884 4600 
Q 2425 4600 2770 4297 
Q 3116 3994 3184 3459 
z
M 888 1484 
Q 888 1194 1011 928 
Q 1134 663 1356 523 
Q 1578 384 1822 384 
Q 2178 384 2434 671 
Q 2691 959 2691 1453 
Q 2691 1928 2437 2201 
Q 2184 2475 1800 2475 
Q 1419 2475 1153 2201 
Q 888 1928 888 1484 
z
" transform="scale(0.015625)"/>
       </defs>
       <use xlink:href="#ArialMT-36"/>
       <use xlink:href="#ArialMT-30" x="55.615234"/>
       <use xlink:href="#ArialMT-30" x="111.230469"/>
      </g>
     </g>
    </g>
   </g>
   <g id="matplotlib.axis_8">
    <g id="ytick_7">
     <g id="line2d_33">
      <g>
       <use xlink:href="#mabdcc9081d" x="285.0125" y="63.541181" style="fill: #262626; stroke: #262626; stroke-width: 1.25"/>
      </g>
     </g>
     <g id="text_27">
      <!-- 0 -->
      <g style="fill: #262626" transform="translate(269.395469 67.477978)scale(0.11 -0.11)">
       <use xlink:href="#ArialMT-30"/>
      </g>
     </g>
    </g>
    <g id="ytick_8">
     <g id="line2d_34">
      <g>
       <use xlink:href="#mabdcc9081d" x="285.0125" y="16.360644" style="fill: #262626; stroke: #262626; stroke-width: 1.25"/>
      </g>
     </g>
     <g id="text_28">
      <!-- 1 -->
      <g style="fill: #262626" transform="translate(269.395469 20.297441)scale(0.11 -0.11)">
       <use xlink:href="#ArialMT-31"/>
      </g>
     </g>
    </g>
   </g>
   <g id="line2d_35">
    <path d="M 285.0125 63.541181 
L 448.920281 63.541181 
L 449.051486 16.360644 
L 481.819922 16.360644 
L 481.819922 16.360644 
" clip-path="url(#p5987ae2538)" style="fill: none; stroke-dasharray: 5.55,2.4; stroke-dashoffset: 0; stroke: #117733; stroke-width: 1.5"/>
   </g>
   <g id="line2d_36">
    <path d="M 285.0125 63.541181 
L 394.273421 63.541181 
L 394.404625 16.360644 
L 481.819922 16.360644 
L 481.819922 16.360644 
" clip-path="url(#p5987ae2538)" style="fill: none; stroke: #88ccee; stroke-width: 1.5; stroke-linecap: round"/>
   </g>
   <g id="line2d_37">
    <path d="M 285.0125 63.541181 
L 339.62656 63.541181 
L 339.757765 16.360644 
L 481.819922 16.360644 
L 481.819922 16.360644 
" clip-path="url(#p5987ae2538)" style="fill: none; stroke-dasharray: 1.5,2.475; stroke-dashoffset: 0; stroke: #cc6677; stroke-width: 1.5"/>
   </g>
   <g id="patch_18">
    <path d="M 285.0125 65.900208 
L 285.0125 14.001618 
" style="fill: none; stroke: #262626; stroke-width: 1.25; stroke-linejoin: miter; stroke-linecap: square"/>
   </g>
   <g id="patch_19">
    <path d="M 481.815 65.900208 
L 481.815 14.001618 
" style="fill: none; stroke: #262626; stroke-width: 1.25; stroke-linejoin: miter; stroke-linecap: square"/>
   </g>
   <g id="patch_20">
    <path d="M 285.0125 65.900208 
L 481.815 65.900208 
" style="fill: none; stroke: #262626; stroke-width: 1.25; stroke-linejoin: miter; stroke-linecap: square"/>
   </g>
   <g id="patch_21">
    <path d="M 285.0125 14.001618 
L 481.815 14.001618 
" style="fill: none; stroke: #262626; stroke-width: 1.25; stroke-linejoin: miter; stroke-linecap: square"/>
   </g>
  </g>
  <g id="axes_5">
   <g id="patch_22">
    <path d="M 285.0125 151.001979 
L 481.815 151.001979 
L 481.815 99.103389 
L 285.0125 99.103389 
z
" style="fill: #ffffff"/>
   </g>
   <g id="matplotlib.axis_9">
    <g id="xtick_20">
     <g id="line2d_38">
      <g>
       <use xlink:href="#m3e6779f600" x="285.0125" y="151.001979" style="fill: #262626; stroke: #262626; stroke-width: 1.25"/>
      </g>
     </g>
     <g id="text_29">
      <!-- 0 -->
      <g style="fill: #262626" transform="translate(281.953984 168.375573)scale(0.11 -0.11)">
       <use xlink:href="#ArialMT-30"/>
      </g>
     </g>
    </g>
    <g id="xtick_21">
     <g id="line2d_39">
      <g>
       <use xlink:href="#m3e6779f600" x="350.613333" y="151.001979" style="fill: #262626; stroke: #262626; stroke-width: 1.25"/>
      </g>
     </g>
     <g id="text_30">
      <!-- 200 -->
      <g style="fill: #262626" transform="translate(341.437786 168.375573)scale(0.11 -0.11)">
       <use xlink:href="#ArialMT-32"/>
       <use xlink:href="#ArialMT-30" x="55.615234"/>
       <use xlink:href="#ArialMT-30" x="111.230469"/>
      </g>
     </g>
    </g>
    <g id="xtick_22">
     <g id="line2d_40">
      <g>
       <use xlink:href="#m3e6779f600" x="416.214167" y="151.001979" style="fill: #262626; stroke: #262626; stroke-width: 1.25"/>
      </g>
     </g>
     <g id="text_31">
      <!-- 400 -->
      <g style="fill: #262626" transform="translate(407.03862 168.375573)scale(0.11 -0.11)">
       <use xlink:href="#ArialMT-34"/>
       <use xlink:href="#ArialMT-30" x="55.615234"/>
       <use xlink:href="#ArialMT-30" x="111.230469"/>
      </g>
     </g>
    </g>
    <g id="xtick_23">
     <g id="line2d_41">
      <g>
       <use xlink:href="#m3e6779f600" x="481.815" y="151.001979" style="fill: #262626; stroke: #262626; stroke-width: 1.25"/>
      </g>
     </g>
     <g id="text_32">
      <!-- 600 -->
      <g style="fill: #262626" transform="translate(472.639453 168.375573)scale(0.11 -0.11)">
       <use xlink:href="#ArialMT-36"/>
       <use xlink:href="#ArialMT-30" x="55.615234"/>
       <use xlink:href="#ArialMT-30" x="111.230469"/>
      </g>
     </g>
    </g>
   </g>
   <g id="matplotlib.axis_10">
    <g id="ytick_9">
     <g id="line2d_42">
      <g>
       <use xlink:href="#mabdcc9081d" x="285.0125" y="148.642952" style="fill: #262626; stroke: #262626; stroke-width: 1.25"/>
      </g>
     </g>
     <g id="text_33">
      <!-- 0 -->
      <g style="fill: #262626" transform="translate(269.395469 152.579749)scale(0.11 -0.11)">
       <use xlink:href="#ArialMT-30"/>
      </g>
     </g>
    </g>
    <g id="ytick_10">
     <g id="line2d_43">
      <g>
       <use xlink:href="#mabdcc9081d" x="285.0125" y="101.768319" style="fill: #262626; stroke: #262626; stroke-width: 1.25"/>
      </g>
     </g>
     <g id="text_34">
      <!-- 1 -->
      <g style="fill: #262626" transform="translate(269.395469 105.705116)scale(0.11 -0.11)">
       <use xlink:href="#ArialMT-31"/>
      </g>
     </g>
    </g>
   </g>
   <g id="line2d_44">
    <path d="M 285.0125 101.768319 
L 449.313896 101.862346 
L 449.740312 102.27007 
L 450.986759 103.932311 
L 454.135678 108.025741 
L 457.251796 111.708513 
L 460.433516 115.12452 
L 463.680838 118.285381 
L 467.026564 121.23058 
L 470.470694 123.964218 
L 474.013228 126.491836 
L 477.686966 128.839991 
L 481.524711 131.027561 
L 481.819922 131.185466 
L 481.819922 131.185466 
" clip-path="url(#pc670555ed2)" style="fill: none; stroke-dasharray: 5.55,2.4; stroke-dashoffset: 0; stroke: #117733; stroke-width: 1.5"/>
   </g>
   <g id="line2d_45">
    <path d="M 285.0125 148.642952 
L 394.503029 148.572828 
L 394.601433 148.058754 
L 394.732638 145.792974 
L 394.962247 136.251332 
L 395.651072 103.894598 
L 395.880681 101.485108 
L 395.946284 101.506632 
L 396.077489 102.262588 
L 396.339898 105.701809 
L 397.815954 128.397998 
L 398.471979 134.006221 
L 399.128004 137.828777 
L 399.849631 140.749217 
L 400.604059 142.88189 
L 401.391289 144.450933 
L 402.21132 145.608199 
L 403.096953 146.488015 
L 404.113792 147.180022 
L 405.294636 147.705123 
L 406.737891 148.095731 
L 408.673164 148.375979 
L 411.592474 148.5521 
L 417.299889 148.631862 
L 447.411425 148.642866 
L 481.819922 148.642866 
L 481.819922 148.642866 
" clip-path="url(#pc670555ed2)" style="fill: none; stroke: #88ccee; stroke-width: 1.5; stroke-linecap: round"/>
   </g>
   <g id="line2d_46">
    <path d="M 285.0125 148.642952 
L 339.954572 148.570167 
L 340.052976 148.227532 
L 340.184181 146.790537 
L 340.380988 141.340656 
L 340.807404 119.962092 
L 341.201019 105.31986 
L 341.463429 101.843644 
L 341.594634 101.548922 
L 341.627435 101.600509 
L 341.75864 102.216306 
L 342.02105 104.865497 
L 342.80828 116.345908 
L 343.595509 125.968859 
L 344.317137 132.133528 
L 345.038764 136.471478 
L 345.793192 139.696978 
L 346.580422 142.099546 
L 347.367652 143.827059 
L 348.220484 145.170632 
L 349.106117 146.161023 
L 350.090154 146.928329 
L 351.205396 147.512227 
L 352.550247 147.956768 
L 354.288713 148.28227 
L 356.748805 148.497431 
L 360.980165 148.612336 
L 373.57584 148.642655 
L 481.819922 148.642839 
L 481.819922 148.642839 
" clip-path="url(#pc670555ed2)" style="fill: none; stroke-dasharray: 1.5,2.475; stroke-dashoffset: 0; stroke: #cc6677; stroke-width: 1.5"/>
   </g>
   <g id="patch_23">
    <path d="M 285.0125 151.001979 
L 285.0125 99.103389 
" style="fill: none; stroke: #262626; stroke-width: 1.25; stroke-linejoin: miter; stroke-linecap: square"/>
   </g>
   <g id="patch_24">
    <path d="M 481.815 151.001979 
L 481.815 99.103389 
" style="fill: none; stroke: #262626; stroke-width: 1.25; stroke-linejoin: miter; stroke-linecap: square"/>
   </g>
   <g id="patch_25">
    <path d="M 285.0125 151.001979 
L 481.815 151.001979 
" style="fill: none; stroke: #262626; stroke-width: 1.25; stroke-linejoin: miter; stroke-linecap: square"/>
   </g>
   <g id="patch_26">
    <path d="M 285.0125 99.103389 
L 481.815 99.103389 
" style="fill: none; stroke: #262626; stroke-width: 1.25; stroke-linejoin: miter; stroke-linecap: square"/>
   </g>
  </g>
  <g id="axes_6">
   <g id="patch_27">
    <path d="M 285.0125 236.10375 
L 481.815 236.10375 
L 481.815 184.20516 
L 285.0125 184.20516 
z
" style="fill: #ffffff"/>
   </g>
   <g id="matplotlib.axis_11">
    <g id="xtick_24">
     <g id="line2d_47">
      <g>
       <use xlink:href="#m3e6779f600" x="285.0125" y="236.10375" style="fill: #262626; stroke: #262626; stroke-width: 1.25"/>
      </g>
     </g>
     <g id="text_35">
      <!-- 0 -->
      <g style="fill: #262626" transform="translate(281.953984 253.477344)scale(0.11 -0.11)">
       <use xlink:href="#ArialMT-30"/>
      </g>
     </g>
    </g>
    <g id="xtick_25">
     <g id="line2d_48">
      <g>
       <use xlink:href="#m3e6779f600" x="350.613333" y="236.10375" style="fill: #262626; stroke: #262626; stroke-width: 1.25"/>
      </g>
     </g>
     <g id="text_36">
      <!-- 200 -->
      <g style="fill: #262626" transform="translate(341.437786 253.477344)scale(0.11 -0.11)">
       <use xlink:href="#ArialMT-32"/>
       <use xlink:href="#ArialMT-30" x="55.615234"/>
       <use xlink:href="#ArialMT-30" x="111.230469"/>
      </g>
     </g>
    </g>
    <g id="xtick_26">
     <g id="line2d_49">
      <g>
       <use xlink:href="#m3e6779f600" x="416.214167" y="236.10375" style="fill: #262626; stroke: #262626; stroke-width: 1.25"/>
      </g>
     </g>
     <g id="text_37">
      <!-- 400 -->
      <g style="fill: #262626" transform="translate(407.03862 253.477344)scale(0.11 -0.11)">
       <use xlink:href="#ArialMT-34"/>
       <use xlink:href="#ArialMT-30" x="55.615234"/>
       <use xlink:href="#ArialMT-30" x="111.230469"/>
      </g>
     </g>
    </g>
    <g id="xtick_27">
     <g id="line2d_50">
      <g>
       <use xlink:href="#m3e6779f600" x="481.815" y="236.10375" style="fill: #262626; stroke: #262626; stroke-width: 1.25"/>
      </g>
     </g>
     <g id="text_38">
      <!-- 600 -->
      <g style="fill: #262626" transform="translate(472.639453 253.477344)scale(0.11 -0.11)">
       <use xlink:href="#ArialMT-36"/>
       <use xlink:href="#ArialMT-30" x="55.615234"/>
       <use xlink:href="#ArialMT-30" x="111.230469"/>
      </g>
     </g>
    </g>
    <g id="text_39">
     <!-- t (ms) -->
     <g style="fill: #262626" transform="translate(368.086563 268.399219)scale(0.12 -0.12)">
      <use xlink:href="#ArialMT-74"/>
      <use xlink:href="#ArialMT-20" x="27.783203"/>
      <use xlink:href="#ArialMT-28" x="55.566406"/>
      <use xlink:href="#ArialMT-6d" x="88.867188"/>
      <use xlink:href="#ArialMT-73" x="172.167969"/>
      <use xlink:href="#ArialMT-29" x="222.167969"/>
     </g>
    </g>
   </g>
   <g id="matplotlib.axis_12">
    <g id="ytick_11">
     <g id="line2d_51">
      <g>
       <use xlink:href="#mabdcc9081d" x="285.0125" y="235.763989" style="fill: #262626; stroke: #262626; stroke-width: 1.25"/>
      </g>
     </g>
     <g id="text_40">
      <!-- −0.2 -->
      <g style="fill: #262626" transform="translate(253.797813 239.700786)scale(0.11 -0.11)">
       <use xlink:href="#ArialMT-2212"/>
       <use xlink:href="#ArialMT-30" x="58.398438"/>
       <use xlink:href="#ArialMT-2e" x="114.013672"/>
       <use xlink:href="#ArialMT-32" x="141.796875"/>
      </g>
     </g>
    </g>
    <g id="ytick_12">
     <g id="line2d_52">
      <g>
       <use xlink:href="#mabdcc9081d" x="285.0125" y="195.095256" style="fill: #262626; stroke: #262626; stroke-width: 1.25"/>
      </g>
     </g>
     <g id="text_41">
      <!-- 0.0 -->
      <g style="fill: #262626" transform="translate(260.2225 199.032053)scale(0.11 -0.11)">
       <use xlink:href="#ArialMT-30"/>
       <use xlink:href="#ArialMT-2e" x="55.615234"/>
       <use xlink:href="#ArialMT-30" x="83.398438"/>
      </g>
     </g>
    </g>
   </g>
   <g id="line2d_53">
    <path d="M 285.0125 213.396187 
L 340.052976 213.500633 
L 340.184181 213.955759 
L 340.348187 215.461307 
L 340.643398 220.818259 
L 341.168218 229.945974 
L 341.463429 231.786513 
L 341.594634 231.89078 
L 341.75864 231.797984 
L 341.988249 231.016524 
L 342.513069 228.19355 
L 343.497106 223.107061 
L 344.218733 220.500732 
L 344.973161 218.578111 
L 345.760391 217.164142 
L 346.613223 216.087974 
L 347.531658 215.283515 
L 348.581297 214.661794 
L 349.827744 214.188009 
L 351.402204 213.836384 
L 353.599887 213.591187 
L 357.109619 213.449602 
L 365.342729 213.398758 
L 394.568632 213.300328 
L 394.667035 212.84731 
L 394.831042 210.579273 
L 395.126253 201.921226 
L 395.58547 189.422723 
L 395.84788 186.939674 
L 396.077489 187.070992 
L 396.307097 188.550054 
L 397.028724 195.58876 
L 397.71755 201.00101 
L 398.373575 204.447948 
L 399.062401 206.891621 
L 399.784028 208.650535 
L 400.538457 209.933864 
L 401.358488 210.910154 
L 402.276922 211.663947 
L 403.326562 212.240138 
L 404.60581 212.684396 
L 406.278673 213.015731 
L 408.640362 213.237843 
L 412.642113 213.360067 
L 423.663329 213.395615 
L 451.314772 213.290994 
L 463.484031 212.470745 
L 474.86606 211.482647 
L 481.819922 210.765302 
L 481.819922 210.765302 
" clip-path="url(#p5775a38a20)" style="fill: none; stroke: #332288; stroke-width: 1.5; stroke-linecap: round"/>
   </g>
   <g id="patch_28">
    <path d="M 285.0125 236.10375 
L 285.0125 184.20516 
" style="fill: none; stroke: #262626; stroke-width: 1.25; stroke-linejoin: miter; stroke-linecap: square"/>
   </g>
   <g id="patch_29">
    <path d="M 481.815 236.10375 
L 481.815 184.20516 
" style="fill: none; stroke: #262626; stroke-width: 1.25; stroke-linejoin: miter; stroke-linecap: square"/>
   </g>
   <g id="patch_30">
    <path d="M 285.0125 236.10375 
L 481.815 236.10375 
" style="fill: none; stroke: #262626; stroke-width: 1.25; stroke-linejoin: miter; stroke-linecap: square"/>
   </g>
   <g id="patch_31">
    <path d="M 285.0125 184.20516 
L 481.815 184.20516 
" style="fill: none; stroke: #262626; stroke-width: 1.25; stroke-linejoin: miter; stroke-linecap: square"/>
   </g>
  </g>
 </g>
 <defs>
  <clipPath id="pb885ae32d0">
   <rect x="44.15" y="14.001618" width="196.8025" height="51.89859"/>
  </clipPath>
  <clipPath id="paa18f3eb09">
   <rect x="44.15" y="99.103389" width="196.8025" height="51.89859"/>
  </clipPath>
  <clipPath id="p571613ac66">
   <rect x="44.15" y="184.20516" width="196.8025" height="51.89859"/>
  </clipPath>
  <clipPath id="p5987ae2538">
   <rect x="285.0125" y="14.001618" width="196.8025" height="51.89859"/>
  </clipPath>
  <clipPath id="pc670555ed2">
   <rect x="285.0125" y="99.103389" width="196.8025" height="51.89859"/>
  </clipPath>
  <clipPath id="p5775a38a20">
   <rect x="285.0125" y="184.20516" width="196.8025" height="51.89859"/>
  </clipPath>
 </defs>
</svg>
