<?xml version="1.0" encoding="utf-8" standalone="no"?>
<!DOCTYPE svg PUBLIC "-//W3C//DTD SVG 1.1//EN"
  "http://www.w3.org/Graphics/SVG/1.1/DTD/svg11.dtd">
<svg xmlns:xlink="http://www.w3.org/1999/xlink" width="504pt" height="283.5pt" viewBox="0 0 504 283.5" xmlns="http://www.w3.org/2000/svg" version="1.1">
 <metadata>
  <rdf:RDF xmlns:dc="http://purl.org/dc/elements/1.1/" xmlns:cc="http://creativecommons.org/ns#" xmlns:rdf="http://www.w3.org/1999/02/22-rdf-syntax-ns#">
   <cc:Work>
    <dc:type rdf:resource="http://purl.org/dc/dcmitype/StillImage"/>
    <dc:date>2023-03-31T09:54:28.650766</dc:date>
    <dc:format>image/svg+xml</dc:format>
    <dc:creator>
     <cc:Agent>
      <dc:title>Matplotlib v3.5.1, https://matplotlib.org/</dc:title>
     </cc:Agent>
    </dc:creator>
   </cc:Work>
  </rdf:RDF>
 </metadata>
 <defs>
  <style type="text/css">*{stroke-linejoin: round; stroke-linecap: butt}</style>
 </defs>
 <g id="figure_1">
  <g id="patch_1">
   <path d="M 0 283.5 
L 504 283.5 
L 504 0 
L 0 0 
z
" style="fill: #ffffff"/>
  </g>
  <g id="axes_1">
   <g id="patch_2">
    <path d="M 37.85 236.10375 
L 244.848396 236.10375 
L 244.848396 27.65625 
L 37.85 27.65625 
z
" style="fill: #ffffff"/>
   </g>
   <g id="matplotlib.axis_1">
    <g id="xtick_1">
     <g id="line2d_1">
      <defs>
       <path id="m59bc699b85" d="M 0 0 
L 0 6 
" style="stroke: #262626; stroke-width: 1.25"/>
      </defs>
      <g>
       <use xlink:href="#m59bc699b85" x="47.259018" y="236.10375" style="fill: #262626; stroke: #262626; stroke-width: 1.25"/>
      </g>
     </g>
     <g id="text_1">
      <!-- 0 -->
      <g style="fill: #262626" transform="translate(44.200502 253.477344)scale(0.11 -0.11)">
       <defs>
        <path id="ArialMT-30" d="M 266 2259 
Q 266 3072 433 3567 
Q 600 4063 929 4331 
Q 1259 4600 1759 4600 
Q 2128 4600 2406 4451 
Q 2684 4303 2865 4023 
Q 3047 3744 3150 3342 
Q 3253 2941 3253 2259 
Q 3253 1453 3087 958 
Q 2922 463 2592 192 
Q 2263 -78 1759 -78 
Q 1097 -78 719 397 
Q 266 969 266 2259 
z
M 844 2259 
Q 844 1131 1108 757 
Q 1372 384 1759 384 
Q 2147 384 2411 759 
Q 2675 1134 2675 2259 
Q 2675 3391 2411 3762 
Q 2147 4134 1753 4134 
Q 1366 4134 1134 3806 
Q 844 3388 844 2259 
z
" transform="scale(0.015625)"/>
       </defs>
       <use xlink:href="#ArialMT-30"/>
      </g>
     </g>
    </g>
    <g id="xtick_2">
     <g id="line2d_2">
      <g>
       <use xlink:href="#m59bc699b85" x="84.970513" y="236.10375" style="fill: #262626; stroke: #262626; stroke-width: 1.25"/>
      </g>
     </g>
     <g id="text_2">
      <!-- 10 -->
      <g style="fill: #262626" transform="translate(78.853482 253.477344)scale(0.11 -0.11)">
       <defs>
        <path id="ArialMT-31" d="M 2384 0 
L 1822 0 
L 1822 3584 
Q 1619 3391 1289 3197 
Q 959 3003 697 2906 
L 697 3450 
Q 1169 3672 1522 3987 
Q 1875 4303 2022 4600 
L 2384 4600 
L 2384 0 
z
" transform="scale(0.015625)"/>
       </defs>
       <use xlink:href="#ArialMT-31"/>
       <use xlink:href="#ArialMT-30" x="55.615234"/>
      </g>
     </g>
    </g>
    <g id="xtick_3">
     <g id="line2d_3">
      <g>
       <use xlink:href="#m59bc699b85" x="122.682008" y="236.10375" style="fill: #262626; stroke: #262626; stroke-width: 1.25"/>
      </g>
     </g>
     <g id="text_3">
      <!-- 20 -->
      <g style="fill: #262626" transform="translate(116.564977 253.477344)scale(0.11 -0.11)">
       <defs>
        <path id="ArialMT-32" d="M 3222 541 
L 3222 0 
L 194 0 
Q 188 203 259 391 
Q 375 700 629 1000 
Q 884 1300 1366 1694 
Q 2113 2306 2375 2664 
Q 2638 3022 2638 3341 
Q 2638 3675 2398 3904 
Q 2159 4134 1775 4134 
Q 1369 4134 1125 3890 
Q 881 3647 878 3216 
L 300 3275 
Q 359 3922 746 4261 
Q 1134 4600 1788 4600 
Q 2447 4600 2831 4234 
Q 3216 3869 3216 3328 
Q 3216 3053 3103 2787 
Q 2991 2522 2730 2228 
Q 2469 1934 1863 1422 
Q 1356 997 1212 845 
Q 1069 694 975 541 
L 3222 541 
z
" transform="scale(0.015625)"/>
       </defs>
       <use xlink:href="#ArialMT-32"/>
       <use xlink:href="#ArialMT-30" x="55.615234"/>
      </g>
     </g>
    </g>
    <g id="xtick_4">
     <g id="line2d_4">
      <g>
       <use xlink:href="#m59bc699b85" x="160.393503" y="236.10375" style="fill: #262626; stroke: #262626; stroke-width: 1.25"/>
      </g>
     </g>
     <g id="text_4">
      <!-- 30 -->
      <g style="fill: #262626" transform="translate(154.276471 253.477344)scale(0.11 -0.11)">
       <defs>
        <path id="ArialMT-33" d="M 269 1209 
L 831 1284 
Q 928 806 1161 595 
Q 1394 384 1728 384 
Q 2125 384 2398 659 
Q 2672 934 2672 1341 
Q 2672 1728 2419 1979 
Q 2166 2231 1775 2231 
Q 1616 2231 1378 2169 
L 1441 2663 
Q 1497 2656 1531 2656 
Q 1891 2656 2178 2843 
Q 2466 3031 2466 3422 
Q 2466 3731 2256 3934 
Q 2047 4138 1716 4138 
Q 1388 4138 1169 3931 
Q 950 3725 888 3313 
L 325 3413 
Q 428 3978 793 4289 
Q 1159 4600 1703 4600 
Q 2078 4600 2393 4439 
Q 2709 4278 2876 4000 
Q 3044 3722 3044 3409 
Q 3044 3113 2884 2869 
Q 2725 2625 2413 2481 
Q 2819 2388 3044 2092 
Q 3269 1797 3269 1353 
Q 3269 753 2831 336 
Q 2394 -81 1725 -81 
Q 1122 -81 723 278 
Q 325 638 269 1209 
z
" transform="scale(0.015625)"/>
       </defs>
       <use xlink:href="#ArialMT-33"/>
       <use xlink:href="#ArialMT-30" x="55.615234"/>
      </g>
     </g>
    </g>
    <g id="xtick_5">
     <g id="line2d_5">
      <g>
       <use xlink:href="#m59bc699b85" x="198.104998" y="236.10375" style="fill: #262626; stroke: #262626; stroke-width: 1.25"/>
      </g>
     </g>
     <g id="text_5">
      <!-- 40 -->
      <g style="fill: #262626" transform="translate(191.987966 253.477344)scale(0.11 -0.11)">
       <defs>
        <path id="ArialMT-34" d="M 2069 0 
L 2069 1097 
L 81 1097 
L 81 1613 
L 2172 4581 
L 2631 4581 
L 2631 1613 
L 3250 1613 
L 3250 1097 
L 2631 1097 
L 2631 0 
L 2069 0 
z
M 2069 1613 
L 2069 3678 
L 634 1613 
L 2069 1613 
z
" transform="scale(0.015625)"/>
       </defs>
       <use xlink:href="#ArialMT-34"/>
       <use xlink:href="#ArialMT-30" x="55.615234"/>
      </g>
     </g>
    </g>
    <g id="xtick_6">
     <g id="line2d_6">
      <g>
       <use xlink:href="#m59bc699b85" x="235.816493" y="236.10375" style="fill: #262626; stroke: #262626; stroke-width: 1.25"/>
      </g>
     </g>
     <g id="text_6">
      <!-- 50 -->
      <g style="fill: #262626" transform="translate(229.699461 253.477344)scale(0.11 -0.11)">
       <defs>
        <path id="ArialMT-35" d="M 266 1200 
L 856 1250 
Q 922 819 1161 601 
Q 1400 384 1738 384 
Q 2144 384 2425 690 
Q 2706 997 2706 1503 
Q 2706 1984 2436 2262 
Q 2166 2541 1728 2541 
Q 1456 2541 1237 2417 
Q 1019 2294 894 2097 
L 366 2166 
L 809 4519 
L 3088 4519 
L 3088 3981 
L 1259 3981 
L 1013 2750 
Q 1425 3038 1878 3038 
Q 2478 3038 2890 2622 
Q 3303 2206 3303 1553 
Q 3303 931 2941 478 
Q 2500 -78 1738 -78 
Q 1113 -78 717 272 
Q 322 622 266 1200 
z
" transform="scale(0.015625)"/>
       </defs>
       <use xlink:href="#ArialMT-35"/>
       <use xlink:href="#ArialMT-30" x="55.615234"/>
      </g>
     </g>
    </g>
    <g id="text_7">
     <!-- t (ms) -->
     <g style="fill: #262626" transform="translate(126.02201 268.399219)scale(0.12 -0.12)">
      <defs>
       <path id="ArialMT-74" d="M 1650 503 
L 1731 6 
Q 1494 -44 1306 -44 
Q 1000 -44 831 53 
Q 663 150 594 308 
Q 525 466 525 972 
L 525 2881 
L 113 2881 
L 113 3319 
L 525 3319 
L 525 4141 
L 1084 4478 
L 1084 3319 
L 1650 3319 
L 1650 2881 
L 1084 2881 
L 1084 941 
Q 1084 700 1114 631 
Q 1144 563 1211 522 
Q 1278 481 1403 481 
Q 1497 481 1650 503 
z
" transform="scale(0.015625)"/>
       <path id="ArialMT-20" transform="scale(0.015625)"/>
       <path id="ArialMT-28" d="M 1497 -1347 
Q 1031 -759 709 28 
Q 388 816 388 1659 
Q 388 2403 628 3084 
Q 909 3875 1497 4659 
L 1900 4659 
Q 1522 4009 1400 3731 
Q 1209 3300 1100 2831 
Q 966 2247 966 1656 
Q 966 153 1900 -1347 
L 1497 -1347 
z
" transform="scale(0.015625)"/>
       <path id="ArialMT-6d" d="M 422 0 
L 422 3319 
L 925 3319 
L 925 2853 
Q 1081 3097 1340 3245 
Q 1600 3394 1931 3394 
Q 2300 3394 2536 3241 
Q 2772 3088 2869 2813 
Q 3263 3394 3894 3394 
Q 4388 3394 4653 3120 
Q 4919 2847 4919 2278 
L 4919 0 
L 4359 0 
L 4359 2091 
Q 4359 2428 4304 2576 
Q 4250 2725 4106 2815 
Q 3963 2906 3769 2906 
Q 3419 2906 3187 2673 
Q 2956 2441 2956 1928 
L 2956 0 
L 2394 0 
L 2394 2156 
Q 2394 2531 2256 2718 
Q 2119 2906 1806 2906 
Q 1569 2906 1367 2781 
Q 1166 2656 1075 2415 
Q 984 2175 984 1722 
L 984 0 
L 422 0 
z
" transform="scale(0.015625)"/>
       <path id="ArialMT-73" d="M 197 991 
L 753 1078 
Q 800 744 1014 566 
Q 1228 388 1613 388 
Q 2000 388 2187 545 
Q 2375 703 2375 916 
Q 2375 1106 2209 1216 
Q 2094 1291 1634 1406 
Q 1016 1563 777 1677 
Q 538 1791 414 1992 
Q 291 2194 291 2438 
Q 291 2659 392 2848 
Q 494 3038 669 3163 
Q 800 3259 1026 3326 
Q 1253 3394 1513 3394 
Q 1903 3394 2198 3281 
Q 2494 3169 2634 2976 
Q 2775 2784 2828 2463 
L 2278 2388 
Q 2241 2644 2061 2787 
Q 1881 2931 1553 2931 
Q 1166 2931 1000 2803 
Q 834 2675 834 2503 
Q 834 2394 903 2306 
Q 972 2216 1119 2156 
Q 1203 2125 1616 2013 
Q 2213 1853 2448 1751 
Q 2684 1650 2818 1456 
Q 2953 1263 2953 975 
Q 2953 694 2789 445 
Q 2625 197 2315 61 
Q 2006 -75 1616 -75 
Q 969 -75 630 194 
Q 291 463 197 991 
z
" transform="scale(0.015625)"/>
       <path id="ArialMT-29" d="M 791 -1347 
L 388 -1347 
Q 1322 153 1322 1656 
Q 1322 2244 1188 2822 
Q 1081 3291 891 3722 
Q 769 4003 388 4659 
L 791 4659 
Q 1378 3875 1659 3084 
Q 1900 2403 1900 1659 
Q 1900 816 1576 28 
Q 1253 -759 791 -1347 
z
" transform="scale(0.015625)"/>
      </defs>
      <use xlink:href="#ArialMT-74"/>
      <use xlink:href="#ArialMT-20" x="27.783203"/>
      <use xlink:href="#ArialMT-28" x="55.566406"/>
      <use xlink:href="#ArialMT-6d" x="88.867188"/>
      <use xlink:href="#ArialMT-73" x="172.167969"/>
      <use xlink:href="#ArialMT-29" x="222.167969"/>
     </g>
    </g>
   </g>
   <g id="matplotlib.axis_2">
    <g id="ytick_1">
     <g id="line2d_7">
      <defs>
       <path id="mc4c0465c56" d="M 0 0 
L -6 0 
" style="stroke: #262626; stroke-width: 1.25"/>
      </defs>
      <g>
       <use xlink:href="#mc4c0465c56" x="37.85" y="225.672208" style="fill: #262626; stroke: #262626; stroke-width: 1.25"/>
      </g>
     </g>
     <g id="text_8">
      <!-- 0.0 -->
      <g style="fill: #262626" transform="translate(13.06 229.609005)scale(0.11 -0.11)">
       <defs>
        <path id="ArialMT-2e" d="M 581 0 
L 581 641 
L 1222 641 
L 1222 0 
L 581 0 
z
" transform="scale(0.015625)"/>
       </defs>
       <use xlink:href="#ArialMT-30"/>
       <use xlink:href="#ArialMT-2e" x="55.615234"/>
       <use xlink:href="#ArialMT-30" x="83.398438"/>
      </g>
     </g>
    </g>
    <g id="ytick_2">
     <g id="line2d_8">
      <g>
       <use xlink:href="#mc4c0465c56" x="37.85" y="188.208482" style="fill: #262626; stroke: #262626; stroke-width: 1.25"/>
      </g>
     </g>
     <g id="text_9">
      <!-- 0.2 -->
      <g style="fill: #262626" transform="translate(13.06 192.145279)scale(0.11 -0.11)">
       <use xlink:href="#ArialMT-30"/>
       <use xlink:href="#ArialMT-2e" x="55.615234"/>
       <use xlink:href="#ArialMT-32" x="83.398438"/>
      </g>
     </g>
    </g>
    <g id="ytick_3">
     <g id="line2d_9">
      <g>
       <use xlink:href="#mc4c0465c56" x="37.85" y="150.744756" style="fill: #262626; stroke: #262626; stroke-width: 1.25"/>
      </g>
     </g>
     <g id="text_10">
      <!-- 0.4 -->
      <g style="fill: #262626" transform="translate(13.06 154.681553)scale(0.11 -0.11)">
       <use xlink:href="#ArialMT-30"/>
       <use xlink:href="#ArialMT-2e" x="55.615234"/>
       <use xlink:href="#ArialMT-34" x="83.398438"/>
      </g>
     </g>
    </g>
    <g id="ytick_4">
     <g id="line2d_10">
      <g>
       <use xlink:href="#mc4c0465c56" x="37.85" y="113.28103" style="fill: #262626; stroke: #262626; stroke-width: 1.25"/>
      </g>
     </g>
     <g id="text_11">
      <!-- 0.6 -->
      <g style="fill: #262626" transform="translate(13.06 117.217827)scale(0.11 -0.11)">
       <defs>
        <path id="ArialMT-36" d="M 3184 3459 
L 2625 3416 
Q 2550 3747 2413 3897 
Q 2184 4138 1850 4138 
Q 1581 4138 1378 3988 
Q 1113 3794 959 3422 
Q 806 3050 800 2363 
Q 1003 2672 1297 2822 
Q 1591 2972 1913 2972 
Q 2475 2972 2870 2558 
Q 3266 2144 3266 1488 
Q 3266 1056 3080 686 
Q 2894 316 2569 119 
Q 2244 -78 1831 -78 
Q 1128 -78 684 439 
Q 241 956 241 2144 
Q 241 3472 731 4075 
Q 1159 4600 1884 4600 
Q 2425 4600 2770 4297 
Q 3116 3994 3184 3459 
z
M 888 1484 
Q 888 1194 1011 928 
Q 1134 663 1356 523 
Q 1578 384 1822 384 
Q 2178 384 2434 671 
Q 2691 959 2691 1453 
Q 2691 1928 2437 2201 
Q 2184 2475 1800 2475 
Q 1419 2475 1153 2201 
Q 888 1928 888 1484 
z
" transform="scale(0.015625)"/>
       </defs>
       <use xlink:href="#ArialMT-30"/>
       <use xlink:href="#ArialMT-2e" x="55.615234"/>
       <use xlink:href="#ArialMT-36" x="83.398438"/>
      </g>
     </g>
    </g>
    <g id="ytick_5">
     <g id="line2d_11">
      <g>
       <use xlink:href="#mc4c0465c56" x="37.85" y="75.817304" style="fill: #262626; stroke: #262626; stroke-width: 1.25"/>
      </g>
     </g>
     <g id="text_12">
      <!-- 0.8 -->
      <g style="fill: #262626" transform="translate(13.06 79.754101)scale(0.11 -0.11)">
       <defs>
        <path id="ArialMT-38" d="M 1131 2484 
Q 781 2613 612 2850 
Q 444 3088 444 3419 
Q 444 3919 803 4259 
Q 1163 4600 1759 4600 
Q 2359 4600 2725 4251 
Q 3091 3903 3091 3403 
Q 3091 3084 2923 2848 
Q 2756 2613 2416 2484 
Q 2838 2347 3058 2040 
Q 3278 1734 3278 1309 
Q 3278 722 2862 322 
Q 2447 -78 1769 -78 
Q 1091 -78 675 323 
Q 259 725 259 1325 
Q 259 1772 486 2073 
Q 713 2375 1131 2484 
z
M 1019 3438 
Q 1019 3113 1228 2906 
Q 1438 2700 1772 2700 
Q 2097 2700 2305 2904 
Q 2513 3109 2513 3406 
Q 2513 3716 2298 3927 
Q 2084 4138 1766 4138 
Q 1444 4138 1231 3931 
Q 1019 3725 1019 3438 
z
M 838 1322 
Q 838 1081 952 856 
Q 1066 631 1291 507 
Q 1516 384 1775 384 
Q 2178 384 2440 643 
Q 2703 903 2703 1303 
Q 2703 1709 2433 1975 
Q 2163 2241 1756 2241 
Q 1359 2241 1098 1978 
Q 838 1716 838 1322 
z
" transform="scale(0.015625)"/>
       </defs>
       <use xlink:href="#ArialMT-30"/>
       <use xlink:href="#ArialMT-2e" x="55.615234"/>
       <use xlink:href="#ArialMT-38" x="83.398438"/>
      </g>
     </g>
    </g>
    <g id="ytick_6">
     <g id="line2d_12">
      <g>
       <use xlink:href="#mc4c0465c56" x="37.85" y="38.353578" style="fill: #262626; stroke: #262626; stroke-width: 1.25"/>
      </g>
     </g>
     <g id="text_13">
      <!-- 1.0 -->
      <g style="fill: #262626" transform="translate(13.06 42.290375)scale(0.11 -0.11)">
       <use xlink:href="#ArialMT-31"/>
       <use xlink:href="#ArialMT-2e" x="55.615234"/>
       <use xlink:href="#ArialMT-30" x="83.398438"/>
      </g>
     </g>
    </g>
   </g>
   <g id="line2d_13">
    <path d="M 47.259018 206.940345 
L 48.390363 161.253331 
L 49.521708 127.947498 
L 50.653053 103.667546 
L 51.784397 85.967461 
L 52.915742 73.064099 
L 54.047087 63.657548 
L 55.178432 56.800172 
L 56.309777 51.801145 
L 57.441122 48.156854 
L 58.572466 45.500167 
L 59.703811 43.563441 
L 60.835156 42.151568 
L 61.966501 41.122313 
L 63.097846 40.371986 
L 64.606306 39.677855 
L 66.114765 39.222437 
L 68.00034 38.86663 
L 70.640145 38.598969 
L 74.788409 38.430585 
L 83.462053 38.360403 
L 148.325824 38.353578 
L 235.439378 38.353578 
L 235.439378 38.353578 
" clip-path="url(#p8bc29e13ad)" style="fill: none; stroke: #cc79a7; stroke-width: 1.5; stroke-linecap: round"/>
   </g>
   <g id="line2d_14">
    <path d="M 47.259018 38.353578 
L 48.013248 38.353578 
L 48.390363 38.509268 
L 48.767478 39.049575 
L 49.144593 40.219355 
L 49.521708 42.24116 
L 49.898823 45.291043 
L 50.653053 54.872249 
L 51.407282 69.104624 
L 52.538627 97.256336 
L 55.178432 168.282176 
L 56.309777 191.279615 
L 57.064007 202.973093 
L 57.818237 211.895882 
L 58.572466 218.350058 
L 59.326696 222.697259 
L 60.080926 225.298346 
L 60.458041 226.048102 
L 60.835156 226.480449 
L 61.212271 226.628864 
L 61.589386 226.523768 
L 61.966501 226.192666 
L 62.720731 224.949022 
L 63.474961 223.067345 
L 64.606306 219.339445 
L 66.114765 213.201601 
L 68.00034 204.439794 
L 76.673984 162.647964 
L 79.313789 151.449765 
L 81.953593 141.220711 
L 84.593398 131.93236 
L 87.233203 123.522041 
L 89.873007 115.914442 
L 92.512812 109.032772 
L 95.152617 102.804097 
L 97.792421 97.161554 
L 100.432226 92.044946 
L 103.07203 87.400565 
L 105.711835 83.180684 
L 108.35164 79.342933 
L 111.368559 75.376764 
L 114.385479 71.811106 
L 117.402399 68.602485 
L 120.419318 65.712681 
L 123.436238 63.108007 
L 126.830272 60.48164 
L 130.224307 58.141279 
L 133.618341 56.054309 
L 137.389491 53.997972 
L 141.16064 52.184971 
L 145.308905 50.436318 
L 149.834284 48.783378 
L 154.736778 47.24993 
L 160.016388 45.852234 
L 165.673112 44.599495 
L 171.706951 43.494636 
L 178.49502 42.484796 
L 186.037319 41.594646 
L 194.710963 40.80619 
L 204.515952 40.143833 
L 216.206515 39.583979 
L 230.536883 39.130792 
L 235.439378 39.0178 
L 235.439378 39.0178 
" clip-path="url(#p8bc29e13ad)" style="fill: none; stroke: #44aa99; stroke-width: 1.5; stroke-linecap: round"/>
   </g>
   <g id="line2d_15">
    <path d="M 47.259018 38.353578 
L 47.636133 41.163358 
L 48.013248 46.194268 
L 48.767478 60.87436 
L 50.275938 98.065014 
L 51.784397 133.720247 
L 52.915742 155.811175 
L 54.047087 173.443843 
L 55.178432 187.050837 
L 56.309777 197.321613 
L 57.441122 204.961263 
L 58.572466 210.588786 
L 59.703811 214.707744 
L 60.835156 217.71021 
L 61.966501 219.893296 
L 63.097846 221.478302 
L 64.229191 222.628232 
L 65.360536 223.4623 
L 66.868995 224.229502 
L 68.377455 224.729743 
L 70.26303 225.118201 
L 72.902835 225.408507 
L 77.051099 225.589862 
L 85.347628 225.664134 
L 140.783525 225.672208 
L 235.439378 225.672208 
L 235.439378 225.672208 
" clip-path="url(#p8bc29e13ad)" style="fill: none; stroke: #ddcc77; stroke-width: 1.5; stroke-linecap: round"/>
   </g>
   <g id="line2d_16">
    <path d="M 47.259018 38.353578 
L 49.521708 38.432523 
L 51.407282 38.729345 
L 53.669972 39.362748 
L 56.309777 40.358673 
L 60.458041 42.192761 
L 74.034179 48.599786 
L 88.364547 55.203682 
L 102.694915 61.563039 
L 117.402399 67.843177 
L 132.109882 73.882988 
L 147.194479 79.837647 
L 162.656192 85.698819 
L 178.117905 91.324428 
L 193.956733 96.852889 
L 210.172676 102.27737 
L 226.765734 107.591629 
L 235.439378 110.277816 
L 235.439378 110.277816 
" clip-path="url(#p8bc29e13ad)" style="fill: none; stroke: #117733; stroke-width: 1.5; stroke-linecap: round"/>
   </g>
   <g id="line2d_17">
    <path d="M 47.259018 225.672208 
L 49.144593 225.58182 
L 49.521708 225.391982 
L 49.898823 225.010423 
L 50.275938 224.353753 
L 50.653053 223.337663 
L 51.030167 221.883335 
L 51.784397 217.401628 
L 52.538627 210.547887 
L 53.292857 201.235433 
L 54.424202 183.103002 
L 55.932662 153.555311 
L 58.572466 100.020463 
L 59.703811 80.596364 
L 60.835156 64.705662 
L 61.966501 52.888475 
L 62.720731 46.850534 
L 63.474961 42.321141 
L 64.229191 39.280825 
L 64.606306 38.278522 
L 64.983421 37.5982 
L 65.360536 37.221823 
L 65.73765 37.131136 
L 66.114765 37.307836 
L 66.49188 37.733724 
L 67.24611 39.26157 
L 68.00034 41.575706 
L 69.131685 46.237842 
L 70.26303 51.979328 
L 72.148605 63.048287 
L 79.313789 107.046945 
L 81.576478 118.982925 
L 83.839168 129.642099 
L 86.101858 139.089133 
L 88.364547 147.439827 
L 90.627237 154.82401 
L 92.889927 161.366954 
L 95.152617 167.181453 
L 97.415306 172.365557 
L 99.677996 177.003007 
L 101.940686 181.164778 
L 104.203375 184.910914 
L 106.84318 188.823531 
L 109.482985 192.307252 
L 112.122789 195.418623 
L 114.762594 198.205065 
L 117.779513 201.042785 
L 120.796433 203.558518 
L 123.813353 205.794383 
L 127.207387 208.01923 
L 130.601422 209.977279 
L 134.372571 211.883222 
L 138.143721 213.544775 
L 142.291985 215.130933 
L 146.817365 216.615703 
L 151.719859 217.980684 
L 156.999468 219.214539 
L 162.656192 220.312206 
L 169.067147 221.327823 
L 176.232331 222.233254 
L 184.528859 223.045675 
L 193.956733 223.736412 
L 204.893067 224.31201 
L 218.469205 224.793512 
L 235.439378 225.162733 
L 235.439378 225.162733 
" clip-path="url(#p8bc29e13ad)" style="fill: none; stroke: #88ccee; stroke-width: 1.5; stroke-linecap: round"/>
   </g>
   <g id="line2d_18">
    <path d="M 47.259018 225.672208 
L 49.898823 225.622984 
L 50.653053 225.381349 
L 51.030167 225.10437 
L 51.407282 224.664569 
L 51.784397 224.012122 
L 52.161512 223.095421 
L 52.915742 220.269092 
L 53.669972 215.830524 
L 54.424202 209.539463 
L 55.178432 201.31147 
L 56.309777 185.564994 
L 57.818237 159.776189 
L 61.212271 98.283702 
L 62.343616 81.20628 
L 63.474961 66.954216 
L 64.606306 55.650027 
L 65.360536 49.834003 
L 66.114765 45.393606 
L 66.868995 42.003467 
L 67.623225 39.51416 
L 68.377455 38.03418 
L 68.75457 37.639734 
L 69.131685 37.458225 
L 69.5088 37.476824 
L 69.885915 37.682973 
L 70.26303 38.064429 
L 71.01726 39.306126 
L 71.77149 41.111654 
L 72.902835 44.696523 
L 74.034179 49.112213 
L 75.542639 55.923527 
L 77.805329 67.303524 
L 84.216283 100.302543 
L 86.856088 112.565162 
L 89.495892 123.705941 
L 91.758582 132.356903 
L 94.021272 140.220236 
L 96.283961 147.354792 
L 98.546651 153.825735 
L 100.809341 159.697863 
L 103.07203 165.032168 
L 105.711835 170.649739 
L 108.35164 175.689415 
L 110.991444 180.219631 
L 113.631249 184.299667 
L 116.271054 187.980825 
L 118.910858 191.307561 
L 121.927778 194.724891 
L 124.944697 197.779452 
L 127.961617 200.514071 
L 130.978537 202.965715 
L 134.372571 205.425314 
L 137.766606 207.60665 
L 141.537755 209.745072 
L 145.308905 211.621572 
L 149.457169 213.423673 
L 153.605434 214.988499 
L 158.130813 216.463275 
L 163.033307 217.827642 
L 168.312917 219.068065 
L 174.346756 220.244145 
L 180.75771 221.262603 
L 187.922894 222.174505 
L 196.219423 222.99591 
L 205.647297 223.696657 
L 216.58363 224.282271 
L 229.782653 224.76238 
L 235.439378 224.913373 
L 235.439378 224.913373 
" clip-path="url(#p8bc29e13ad)" style="fill: none; stroke: #cc6677; stroke-width: 1.5; stroke-linecap: round"/>
   </g>
   <g id="patch_3">
    <path d="M 37.85 236.10375 
L 37.85 27.65625 
" style="fill: none; stroke: #262626; stroke-width: 1.25; stroke-linejoin: miter; stroke-linecap: square"/>
   </g>
   <g id="patch_4">
    <path d="M 244.848396 236.10375 
L 244.848396 27.65625 
" style="fill: none; stroke: #262626; stroke-width: 1.25; stroke-linejoin: miter; stroke-linecap: square"/>
   </g>
   <g id="patch_5">
    <path d="M 37.85 236.10375 
L 244.848396 236.10375 
" style="fill: none; stroke: #262626; stroke-width: 1.25; stroke-linejoin: miter; stroke-linecap: square"/>
   </g>
   <g id="patch_6">
    <path d="M 37.85 27.65625 
L 244.848396 27.65625 
" style="fill: none; stroke: #262626; stroke-width: 1.25; stroke-linejoin: miter; stroke-linecap: square"/>
   </g>
   <g id="text_14">
    <!-- On Pathway -->
    <g style="fill: #262626" transform="translate(108.66701 21.65625)scale(0.12 -0.12)">
     <defs>
      <path id="ArialMT-4f" d="M 309 2231 
Q 309 3372 921 4017 
Q 1534 4663 2503 4663 
Q 3138 4663 3647 4359 
Q 4156 4056 4423 3514 
Q 4691 2972 4691 2284 
Q 4691 1588 4409 1038 
Q 4128 488 3612 205 
Q 3097 -78 2500 -78 
Q 1853 -78 1343 234 
Q 834 547 571 1087 
Q 309 1628 309 2231 
z
M 934 2222 
Q 934 1394 1379 917 
Q 1825 441 2497 441 
Q 3181 441 3623 922 
Q 4066 1403 4066 2288 
Q 4066 2847 3877 3264 
Q 3688 3681 3323 3911 
Q 2959 4141 2506 4141 
Q 1863 4141 1398 3698 
Q 934 3256 934 2222 
z
" transform="scale(0.015625)"/>
      <path id="ArialMT-6e" d="M 422 0 
L 422 3319 
L 928 3319 
L 928 2847 
Q 1294 3394 1984 3394 
Q 2284 3394 2536 3286 
Q 2788 3178 2913 3003 
Q 3038 2828 3088 2588 
Q 3119 2431 3119 2041 
L 3119 0 
L 2556 0 
L 2556 2019 
Q 2556 2363 2490 2533 
Q 2425 2703 2258 2804 
Q 2091 2906 1866 2906 
Q 1506 2906 1245 2678 
Q 984 2450 984 1813 
L 984 0 
L 422 0 
z
" transform="scale(0.015625)"/>
      <path id="ArialMT-50" d="M 494 0 
L 494 4581 
L 2222 4581 
Q 2678 4581 2919 4538 
Q 3256 4481 3484 4323 
Q 3713 4166 3852 3881 
Q 3991 3597 3991 3256 
Q 3991 2672 3619 2267 
Q 3247 1863 2275 1863 
L 1100 1863 
L 1100 0 
L 494 0 
z
M 1100 2403 
L 2284 2403 
Q 2872 2403 3119 2622 
Q 3366 2841 3366 3238 
Q 3366 3525 3220 3729 
Q 3075 3934 2838 4000 
Q 2684 4041 2272 4041 
L 1100 4041 
L 1100 2403 
z
" transform="scale(0.015625)"/>
      <path id="ArialMT-61" d="M 2588 409 
Q 2275 144 1986 34 
Q 1697 -75 1366 -75 
Q 819 -75 525 192 
Q 231 459 231 875 
Q 231 1119 342 1320 
Q 453 1522 633 1644 
Q 813 1766 1038 1828 
Q 1203 1872 1538 1913 
Q 2219 1994 2541 2106 
Q 2544 2222 2544 2253 
Q 2544 2597 2384 2738 
Q 2169 2928 1744 2928 
Q 1347 2928 1158 2789 
Q 969 2650 878 2297 
L 328 2372 
Q 403 2725 575 2942 
Q 747 3159 1072 3276 
Q 1397 3394 1825 3394 
Q 2250 3394 2515 3294 
Q 2781 3194 2906 3042 
Q 3031 2891 3081 2659 
Q 3109 2516 3109 2141 
L 3109 1391 
Q 3109 606 3145 398 
Q 3181 191 3288 0 
L 2700 0 
Q 2613 175 2588 409 
z
M 2541 1666 
Q 2234 1541 1622 1453 
Q 1275 1403 1131 1340 
Q 988 1278 909 1158 
Q 831 1038 831 891 
Q 831 666 1001 516 
Q 1172 366 1500 366 
Q 1825 366 2078 508 
Q 2331 650 2450 897 
Q 2541 1088 2541 1459 
L 2541 1666 
z
" transform="scale(0.015625)"/>
      <path id="ArialMT-68" d="M 422 0 
L 422 4581 
L 984 4581 
L 984 2938 
Q 1378 3394 1978 3394 
Q 2347 3394 2619 3248 
Q 2891 3103 3008 2847 
Q 3125 2591 3125 2103 
L 3125 0 
L 2563 0 
L 2563 2103 
Q 2563 2525 2380 2717 
Q 2197 2909 1863 2909 
Q 1613 2909 1392 2779 
Q 1172 2650 1078 2428 
Q 984 2206 984 1816 
L 984 0 
L 422 0 
z
" transform="scale(0.015625)"/>
      <path id="ArialMT-77" d="M 1034 0 
L 19 3319 
L 600 3319 
L 1128 1403 
L 1325 691 
Q 1338 744 1497 1375 
L 2025 3319 
L 2603 3319 
L 3100 1394 
L 3266 759 
L 3456 1400 
L 4025 3319 
L 4572 3319 
L 3534 0 
L 2950 0 
L 2422 1988 
L 2294 2553 
L 1622 0 
L 1034 0 
z
" transform="scale(0.015625)"/>
      <path id="ArialMT-79" d="M 397 -1278 
L 334 -750 
Q 519 -800 656 -800 
Q 844 -800 956 -737 
Q 1069 -675 1141 -563 
Q 1194 -478 1313 -144 
Q 1328 -97 1363 -6 
L 103 3319 
L 709 3319 
L 1400 1397 
Q 1534 1031 1641 628 
Q 1738 1016 1872 1384 
L 2581 3319 
L 3144 3319 
L 1881 -56 
Q 1678 -603 1566 -809 
Q 1416 -1088 1222 -1217 
Q 1028 -1347 759 -1347 
Q 597 -1347 397 -1278 
z
" transform="scale(0.015625)"/>
     </defs>
     <use xlink:href="#ArialMT-4f"/>
     <use xlink:href="#ArialMT-6e" x="77.783203"/>
     <use xlink:href="#ArialMT-20" x="133.398438"/>
     <use xlink:href="#ArialMT-50" x="161.181641"/>
     <use xlink:href="#ArialMT-61" x="227.880859"/>
     <use xlink:href="#ArialMT-74" x="283.496094"/>
     <use xlink:href="#ArialMT-68" x="311.279297"/>
     <use xlink:href="#ArialMT-77" x="366.894531"/>
     <use xlink:href="#ArialMT-61" x="439.111328"/>
     <use xlink:href="#ArialMT-79" x="494.726562"/>
    </g>
   </g>
   <g id="legend_1">
    <g id="patch_7">
     <path d="M 187.098396 230.60375 
L 237.148396 230.60375 
Q 239.348396 230.60375 239.348396 228.40375 
L 239.348396 135.974531 
Q 239.348396 133.774531 237.148396 133.774531 
L 187.098396 133.774531 
Q 184.898396 133.774531 184.898396 135.974531 
L 184.898396 228.40375 
Q 184.898396 230.60375 187.098396 230.60375 
z
" style="fill: #ffffff; opacity: 0.8; stroke: #cccccc; stroke-linejoin: miter"/>
    </g>
    <g id="line2d_19">
     <path d="M 189.298396 142.198125 
L 200.298396 142.198125 
L 211.298396 142.198125 
" style="fill: none; stroke: #cc79a7; stroke-width: 1.5; stroke-linecap: round"/>
    </g>
    <g id="text_15">
     <!-- $In$ -->
     <g style="fill: #262626" transform="translate(220.098396 146.048125)scale(0.11 -0.11)">
      <defs>
       <path id="DejaVuSans-Oblique-49" d="M 1081 4666 
L 1716 4666 
L 806 0 
L 172 0 
L 1081 4666 
z
" transform="scale(0.015625)"/>
       <path id="DejaVuSans-Oblique-6e" d="M 3566 2113 
L 3156 0 
L 2578 0 
L 2988 2091 
Q 3016 2238 3031 2350 
Q 3047 2463 3047 2528 
Q 3047 2791 2881 2937 
Q 2716 3084 2419 3084 
Q 1956 3084 1622 2776 
Q 1288 2469 1184 1941 
L 800 0 
L 225 0 
L 903 3500 
L 1478 3500 
L 1363 2950 
Q 1603 3253 1940 3418 
Q 2278 3584 2650 3584 
Q 3113 3584 3367 3334 
Q 3622 3084 3622 2631 
Q 3622 2519 3608 2391 
Q 3594 2263 3566 2113 
z
" transform="scale(0.015625)"/>
      </defs>
      <use xlink:href="#DejaVuSans-Oblique-49" transform="translate(0 0.09375)"/>
      <use xlink:href="#DejaVuSans-Oblique-6e" transform="translate(29.492188 0.09375)"/>
     </g>
    </g>
    <g id="line2d_20">
     <path d="M 189.298396 157.757969 
L 200.298396 157.757969 
L 211.298396 157.757969 
" style="fill: none; stroke: #44aa99; stroke-width: 1.5; stroke-linecap: round"/>
    </g>
    <g id="text_16">
     <!-- $B_O$ -->
     <g style="fill: #262626" transform="translate(220.098396 161.607969)scale(0.11 -0.11)">
      <defs>
       <path id="DejaVuSans-Oblique-42" d="M 1081 4666 
L 2694 4666 
Q 3350 4666 3675 4422 
Q 4000 4178 4000 3688 
Q 4000 3238 3720 2911 
Q 3441 2584 2988 2516 
Q 3375 2428 3569 2181 
Q 3763 1934 3763 1522 
Q 3763 819 3242 409 
Q 2722 0 1819 0 
L 172 0 
L 1081 4666 
z
M 1234 2228 
L 903 519 
L 1919 519 
Q 2491 519 2800 781 
Q 3109 1044 3109 1522 
Q 3109 1891 2904 2059 
Q 2700 2228 2247 2228 
L 1234 2228 
z
M 1606 4147 
L 1331 2741 
L 2272 2741 
Q 2775 2741 3058 2959 
Q 3341 3178 3341 3566 
Q 3341 3869 3150 4008 
Q 2959 4147 2541 4147 
L 1606 4147 
z
" transform="scale(0.015625)"/>
       <path id="DejaVuSans-Oblique-4f" d="M 2919 4238 
Q 2400 4238 2003 3986 
Q 1606 3734 1313 3219 
Q 1125 2891 1026 2522 
Q 928 2153 928 1778 
Q 928 1128 1239 775 
Q 1550 422 2119 422 
Q 2631 422 3032 676 
Q 3434 931 3719 1434 
Q 3909 1772 4009 2142 
Q 4109 2513 4109 2881 
Q 4109 3528 3796 3883 
Q 3484 4238 2919 4238 
z
M 2100 -91 
Q 1241 -91 748 418 
Q 256 928 256 1813 
Q 256 2319 448 2847 
Q 641 3375 978 3788 
Q 1375 4272 1862 4511 
Q 2350 4750 2938 4750 
Q 3794 4750 4287 4245 
Q 4781 3741 4781 2869 
Q 4781 2331 4593 1812 
Q 4406 1294 4056 872 
Q 3656 384 3173 146 
Q 2691 -91 2100 -91 
z
" transform="scale(0.015625)"/>
      </defs>
      <use xlink:href="#DejaVuSans-Oblique-42" transform="translate(0 0.09375)"/>
      <use xlink:href="#DejaVuSans-Oblique-4f" transform="translate(68.603516 -16.3125)scale(0.7)"/>
     </g>
    </g>
    <g id="line2d_21">
     <path d="M 189.298396 173.317812 
L 200.298396 173.317812 
L 211.298396 173.317812 
" style="fill: none; stroke: #ddcc77; stroke-width: 1.5; stroke-linecap: round"/>
    </g>
    <g id="text_17">
     <!-- $L$ -->
     <g style="fill: #262626" transform="translate(220.098396 177.167812)scale(0.11 -0.11)">
      <defs>
       <path id="DejaVuSans-Oblique-4c" d="M 1075 4666 
L 1709 4666 
L 909 525 
L 3181 525 
L 3078 0 
L 172 0 
L 1075 4666 
z
" transform="scale(0.015625)"/>
      </defs>
      <use xlink:href="#DejaVuSans-Oblique-4c" transform="translate(0 0.09375)"/>
     </g>
    </g>
    <g id="line2d_22">
     <path d="M 189.298396 188.877656 
L 200.298396 188.877656 
L 211.298396 188.877656 
" style="fill: none; stroke: #117733; stroke-width: 1.5; stroke-linecap: round"/>
    </g>
    <g id="text_18">
     <!-- $E_O$ -->
     <g style="fill: #262626" transform="translate(220.098396 192.727656)scale(0.11 -0.11)">
      <defs>
       <path id="DejaVuSans-Oblique-45" d="M 1081 4666 
L 4031 4666 
L 3928 4134 
L 1606 4134 
L 1338 2753 
L 3566 2753 
L 3463 2222 
L 1234 2222 
L 909 531 
L 3284 531 
L 3181 0 
L 172 0 
L 1081 4666 
z
" transform="scale(0.015625)"/>
      </defs>
      <use xlink:href="#DejaVuSans-Oblique-45" transform="translate(0 0.09375)"/>
      <use xlink:href="#DejaVuSans-Oblique-4f" transform="translate(63.183594 -16.3125)scale(0.7)"/>
     </g>
    </g>
    <g id="line2d_23">
     <path d="M 189.298396 204.4375 
L 200.298396 204.4375 
L 211.298396 204.4375 
" style="fill: none; stroke: #88ccee; stroke-width: 1.5; stroke-linecap: round"/>
    </g>
    <g id="text_19">
     <!-- $D_O$ -->
     <g style="fill: #262626" transform="translate(220.098396 208.2875)scale(0.11 -0.11)">
      <defs>
       <path id="DejaVuSans-Oblique-44" d="M 1081 4666 
L 2438 4666 
Q 3519 4666 4070 4208 
Q 4622 3750 4622 2847 
Q 4622 2250 4412 1698 
Q 4203 1147 3834 769 
Q 3463 381 2891 190 
Q 2319 0 1538 0 
L 172 0 
L 1081 4666 
z
M 1613 4147 
L 909 519 
L 1734 519 
Q 2794 519 3375 1128 
Q 3956 1738 3956 2847 
Q 3956 3519 3581 3833 
Q 3206 4147 2406 4147 
L 1613 4147 
z
" transform="scale(0.015625)"/>
      </defs>
      <use xlink:href="#DejaVuSans-Oblique-44" transform="translate(0 0.09375)"/>
      <use xlink:href="#DejaVuSans-Oblique-4f" transform="translate(77.001953 -16.3125)scale(0.7)"/>
     </g>
    </g>
    <g id="line2d_24">
     <path d="M 189.298396 220.1675 
L 200.298396 220.1675 
L 211.298396 220.1675 
" style="fill: none; stroke: #cc6677; stroke-width: 1.5; stroke-linecap: round"/>
    </g>
    <g id="text_20">
     <!-- $S_O$ -->
     <g style="fill: #262626" transform="translate(220.098396 224.0175)scale(0.11 -0.11)">
      <defs>
       <path id="DejaVuSans-Oblique-53" d="M 3859 4513 
L 3738 3897 
Q 3422 4066 3111 4152 
Q 2800 4238 2509 4238 
Q 1944 4238 1609 3991 
Q 1275 3744 1275 3334 
Q 1275 3109 1398 2989 
Q 1522 2869 2034 2731 
L 2413 2638 
Q 3053 2472 3303 2217 
Q 3553 1963 3553 1503 
Q 3553 797 2998 353 
Q 2444 -91 1538 -91 
Q 1166 -91 791 -17 
Q 416 56 38 206 
L 166 856 
Q 513 641 861 531 
Q 1209 422 1556 422 
Q 2147 422 2503 684 
Q 2859 947 2859 1369 
Q 2859 1650 2717 1795 
Q 2575 1941 2106 2059 
L 1728 2156 
Q 1081 2325 845 2545 
Q 609 2766 609 3163 
Q 609 3859 1145 4304 
Q 1681 4750 2541 4750 
Q 2875 4750 3203 4690 
Q 3531 4631 3859 4513 
z
" transform="scale(0.015625)"/>
      </defs>
      <use xlink:href="#DejaVuSans-Oblique-53" transform="translate(0 0.78125)"/>
      <use xlink:href="#DejaVuSans-Oblique-4f" transform="translate(63.476562 -15.625)scale(0.7)"/>
     </g>
    </g>
   </g>
  </g>
  <g id="axes_2">
   <g id="patch_8">
    <path d="M 282.608396 236.10375 
L 489.606791 236.10375 
L 489.606791 27.65625 
L 282.608396 27.65625 
z
" style="fill: #ffffff"/>
   </g>
   <g id="matplotlib.axis_3">
    <g id="xtick_7">
     <g id="line2d_25">
      <g>
       <use xlink:href="#m59bc699b85" x="292.017414" y="236.10375" style="fill: #262626; stroke: #262626; stroke-width: 1.25"/>
      </g>
     </g>
     <g id="text_21">
      <!-- 50 -->
      <g style="fill: #262626" transform="translate(285.900382 253.477344)scale(0.11 -0.11)">
       <use xlink:href="#ArialMT-35"/>
       <use xlink:href="#ArialMT-30" x="55.615234"/>
      </g>
     </g>
    </g>
    <g id="xtick_8">
     <g id="line2d_26">
      <g>
       <use xlink:href="#m59bc699b85" x="329.728908" y="236.10375" style="fill: #262626; stroke: #262626; stroke-width: 1.25"/>
      </g>
     </g>
     <g id="text_22">
      <!-- 60 -->
      <g style="fill: #262626" transform="translate(323.611877 253.477344)scale(0.11 -0.11)">
       <use xlink:href="#ArialMT-36"/>
       <use xlink:href="#ArialMT-30" x="55.615234"/>
      </g>
     </g>
    </g>
    <g id="xtick_9">
     <g id="line2d_27">
      <g>
       <use xlink:href="#m59bc699b85" x="367.440403" y="236.10375" style="fill: #262626; stroke: #262626; stroke-width: 1.25"/>
      </g>
     </g>
     <g id="text_23">
      <!-- 70 -->
      <g style="fill: #262626" transform="translate(361.323372 253.477344)scale(0.11 -0.11)">
       <defs>
        <path id="ArialMT-37" d="M 303 3981 
L 303 4522 
L 3269 4522 
L 3269 4084 
Q 2831 3619 2401 2847 
Q 1972 2075 1738 1259 
Q 1569 684 1522 0 
L 944 0 
Q 953 541 1156 1306 
Q 1359 2072 1739 2783 
Q 2119 3494 2547 3981 
L 303 3981 
z
" transform="scale(0.015625)"/>
       </defs>
       <use xlink:href="#ArialMT-37"/>
       <use xlink:href="#ArialMT-30" x="55.615234"/>
      </g>
     </g>
    </g>
    <g id="xtick_10">
     <g id="line2d_28">
      <g>
       <use xlink:href="#m59bc699b85" x="405.151898" y="236.10375" style="fill: #262626; stroke: #262626; stroke-width: 1.25"/>
      </g>
     </g>
     <g id="text_24">
      <!-- 80 -->
      <g style="fill: #262626" transform="translate(399.034867 253.477344)scale(0.11 -0.11)">
       <use xlink:href="#ArialMT-38"/>
       <use xlink:href="#ArialMT-30" x="55.615234"/>
      </g>
     </g>
    </g>
    <g id="xtick_11">
     <g id="line2d_29">
      <g>
       <use xlink:href="#m59bc699b85" x="442.863393" y="236.10375" style="fill: #262626; stroke: #262626; stroke-width: 1.25"/>
      </g>
     </g>
     <g id="text_25">
      <!-- 90 -->
      <g style="fill: #262626" transform="translate(436.746362 253.477344)scale(0.11 -0.11)">
       <defs>
        <path id="ArialMT-39" d="M 350 1059 
L 891 1109 
Q 959 728 1153 556 
Q 1347 384 1650 384 
Q 1909 384 2104 503 
Q 2300 622 2425 820 
Q 2550 1019 2634 1356 
Q 2719 1694 2719 2044 
Q 2719 2081 2716 2156 
Q 2547 1888 2255 1720 
Q 1963 1553 1622 1553 
Q 1053 1553 659 1965 
Q 266 2378 266 3053 
Q 266 3750 677 4175 
Q 1088 4600 1706 4600 
Q 2153 4600 2523 4359 
Q 2894 4119 3086 3673 
Q 3278 3228 3278 2384 
Q 3278 1506 3087 986 
Q 2897 466 2520 194 
Q 2144 -78 1638 -78 
Q 1100 -78 759 220 
Q 419 519 350 1059 
z
M 2653 3081 
Q 2653 3566 2395 3850 
Q 2138 4134 1775 4134 
Q 1400 4134 1122 3828 
Q 844 3522 844 3034 
Q 844 2597 1108 2323 
Q 1372 2050 1759 2050 
Q 2150 2050 2401 2323 
Q 2653 2597 2653 3081 
z
" transform="scale(0.015625)"/>
       </defs>
       <use xlink:href="#ArialMT-39"/>
       <use xlink:href="#ArialMT-30" x="55.615234"/>
      </g>
     </g>
    </g>
    <g id="xtick_12">
     <g id="line2d_30">
      <g>
       <use xlink:href="#m59bc699b85" x="480.574888" y="236.10375" style="fill: #262626; stroke: #262626; stroke-width: 1.25"/>
      </g>
     </g>
     <g id="text_26">
      <!-- 100 -->
      <g style="fill: #262626" transform="translate(471.399341 253.477344)scale(0.11 -0.11)">
       <use xlink:href="#ArialMT-31"/>
       <use xlink:href="#ArialMT-30" x="55.615234"/>
       <use xlink:href="#ArialMT-30" x="111.230469"/>
      </g>
     </g>
    </g>
    <g id="text_27">
     <!-- t (ms) -->
     <g style="fill: #262626" transform="translate(370.780406 268.399219)scale(0.12 -0.12)">
      <use xlink:href="#ArialMT-74"/>
      <use xlink:href="#ArialMT-20" x="27.783203"/>
      <use xlink:href="#ArialMT-28" x="55.566406"/>
      <use xlink:href="#ArialMT-6d" x="88.867188"/>
      <use xlink:href="#ArialMT-73" x="172.167969"/>
      <use xlink:href="#ArialMT-29" x="222.167969"/>
     </g>
    </g>
   </g>
   <g id="matplotlib.axis_4">
    <g id="ytick_7">
     <g id="line2d_31">
      <g>
       <use xlink:href="#mc4c0465c56" x="282.608396" y="226.628864" style="fill: #262626; stroke: #262626; stroke-width: 1.25"/>
      </g>
     </g>
     <g id="text_28">
      <!-- 0.0 -->
      <g style="fill: #262626" transform="translate(257.818396 230.565661)scale(0.11 -0.11)">
       <use xlink:href="#ArialMT-30"/>
       <use xlink:href="#ArialMT-2e" x="55.615234"/>
       <use xlink:href="#ArialMT-30" x="83.398438"/>
      </g>
     </g>
    </g>
    <g id="ytick_8">
     <g id="line2d_32">
      <g>
       <use xlink:href="#mc4c0465c56" x="282.608396" y="185.146012" style="fill: #262626; stroke: #262626; stroke-width: 1.25"/>
      </g>
     </g>
     <g id="text_29">
      <!-- 0.5 -->
      <g style="fill: #262626" transform="translate(257.818396 189.082809)scale(0.11 -0.11)">
       <use xlink:href="#ArialMT-30"/>
       <use xlink:href="#ArialMT-2e" x="55.615234"/>
       <use xlink:href="#ArialMT-35" x="83.398438"/>
      </g>
     </g>
    </g>
    <g id="ytick_9">
     <g id="line2d_33">
      <g>
       <use xlink:href="#mc4c0465c56" x="282.608396" y="143.663161" style="fill: #262626; stroke: #262626; stroke-width: 1.25"/>
      </g>
     </g>
     <g id="text_30">
      <!-- 1.0 -->
      <g style="fill: #262626" transform="translate(257.818396 147.599958)scale(0.11 -0.11)">
       <use xlink:href="#ArialMT-31"/>
       <use xlink:href="#ArialMT-2e" x="55.615234"/>
       <use xlink:href="#ArialMT-30" x="83.398438"/>
      </g>
     </g>
    </g>
    <g id="ytick_10">
     <g id="line2d_34">
      <g>
       <use xlink:href="#mc4c0465c56" x="282.608396" y="102.18031" style="fill: #262626; stroke: #262626; stroke-width: 1.25"/>
      </g>
     </g>
     <g id="text_31">
      <!-- 1.5 -->
      <g style="fill: #262626" transform="translate(257.818396 106.117106)scale(0.11 -0.11)">
       <use xlink:href="#ArialMT-31"/>
       <use xlink:href="#ArialMT-2e" x="55.615234"/>
       <use xlink:href="#ArialMT-35" x="83.398438"/>
      </g>
     </g>
    </g>
    <g id="ytick_11">
     <g id="line2d_35">
      <g>
       <use xlink:href="#mc4c0465c56" x="282.608396" y="60.697458" style="fill: #262626; stroke: #262626; stroke-width: 1.25"/>
      </g>
     </g>
     <g id="text_32">
      <!-- 2.0 -->
      <g style="fill: #262626" transform="translate(257.818396 64.634255)scale(0.11 -0.11)">
       <use xlink:href="#ArialMT-32"/>
       <use xlink:href="#ArialMT-2e" x="55.615234"/>
       <use xlink:href="#ArialMT-30" x="83.398438"/>
      </g>
     </g>
    </g>
   </g>
   <g id="line2d_36">
    <path d="M 292.017414 143.663161 
L 293.148758 166.146866 
L 294.280103 182.537488 
L 295.411448 194.486251 
L 296.542793 203.196899 
L 297.674138 209.546961 
L 298.805483 214.176157 
L 299.936827 217.55084 
L 301.068172 220.010985 
L 302.199517 221.80443 
L 303.330862 223.111851 
L 304.462207 224.064962 
L 305.593552 224.759779 
L 307.102011 225.402557 
L 308.987586 225.904742 
L 311.250276 226.244036 
L 314.64431 226.479773 
L 320.301035 226.598167 
L 337.648322 226.628623 
L 480.197773 226.628864 
L 480.197773 226.628864 
" clip-path="url(#pabcebea9cc)" style="fill: none; stroke: #cc79a7; stroke-width: 1.5; stroke-linecap: round"/>
   </g>
   <g id="line2d_37">
    <path d="M 292.017414 143.953819 
L 293.525873 143.871236 
L 293.902988 143.647996 
L 294.280103 143.202655 
L 294.657218 142.483526 
L 295.411448 140.114454 
L 296.165678 136.473406 
L 296.919908 131.660407 
L 298.051253 122.656866 
L 299.559713 108.489687 
L 302.953747 75.570684 
L 304.462207 63.261201 
L 305.593552 55.567098 
L 306.724897 49.296087 
L 307.856241 44.440526 
L 308.610471 41.954831 
L 309.364701 40.031857 
L 310.118931 38.631858 
L 310.873161 37.711601 
L 311.627391 37.226299 
L 312.381621 37.131136 
L 313.135851 37.382443 
L 313.890081 37.938535 
L 314.64431 38.760284 
L 315.775655 40.412622 
L 316.907 42.472704 
L 318.41546 45.694078 
L 320.67815 51.190087 
L 324.826414 62.117147 
L 329.351793 73.886714 
L 332.745828 82.104125 
L 335.762748 88.840568 
L 338.779667 95.011115 
L 341.419472 99.947135 
L 344.059277 104.463448 
L 346.699081 108.578475 
L 349.338886 112.314247 
L 351.97869 115.694818 
L 354.618495 118.745174 
L 357.2583 121.490471 
L 360.275219 124.286149 
L 363.292139 126.751393 
L 366.309059 128.920025 
L 369.325978 130.823667 
L 372.720013 132.684823 
L 376.114047 134.285429 
L 379.885197 135.799508 
L 383.656346 137.074989 
L 387.804611 138.245087 
L 392.32999 139.289613 
L 397.232484 140.198056 
L 402.889209 141.016624 
L 409.300163 141.714792 
L 416.842462 142.305384 
L 425.89322 142.783623 
L 437.206669 143.152447 
L 452.668382 143.420406 
L 476.426624 143.585813 
L 480.197773 143.598657 
L 480.197773 143.598657 
" clip-path="url(#pabcebea9cc)" style="fill: none; stroke: #44aa99; stroke-width: 1.5; stroke-linecap: round"/>
   </g>
   <g id="line2d_38">
    <path d="M 292.017414 226.628864 
L 292.394528 226.628864 
L 292.771643 225.799207 
L 293.148758 224.339425 
L 293.902988 220.111414 
L 295.034333 211.953837 
L 298.428368 186.15993 
L 299.936827 176.653767 
L 301.445287 168.80174 
L 302.576632 163.955552 
L 303.707977 159.918852 
L 304.839322 156.597324 
L 305.970667 153.892735 
L 307.102011 151.710352 
L 308.233356 149.963199 
L 309.364701 148.574133 
L 310.496046 147.476488 
L 312.004506 146.370078 
L 313.512966 145.574203 
L 315.39854 144.891595 
L 317.284115 144.447716 
L 319.92392 144.078106 
L 323.317954 143.843716 
L 328.974679 143.707134 
L 343.305047 143.664278 
L 480.197773 143.663161 
L 480.197773 143.663161 
" clip-path="url(#pabcebea9cc)" style="fill: none; stroke: #ddcc77; stroke-width: 1.5; stroke-linecap: round"/>
   </g>
   <g id="line2d_39">
    <path d="M 292.017414 175.570391 
L 296.165678 176.033304 
L 299.182598 176.142944 
L 302.953747 176.04805 
L 308.233356 175.668837 
L 319.546805 174.56606 
L 349.338886 171.663634 
L 376.491162 169.252228 
L 405.151898 166.931783 
L 435.321094 164.716164 
L 466.99875 162.616451 
L 480.197773 161.804626 
L 480.197773 161.804626 
" clip-path="url(#pabcebea9cc)" style="fill: none; stroke: #117733; stroke-width: 1.5; stroke-linecap: round"/>
   </g>
   <g id="line2d_40">
    <path d="M 292.017414 226.628864 
L 295.788563 226.538043 
L 296.919908 226.270674 
L 298.051253 225.726903 
L 299.182598 224.837221 
L 300.313942 223.561331 
L 301.445287 221.887164 
L 302.576632 219.827233 
L 304.085092 216.538004 
L 306.724897 209.912692 
L 311.250276 198.877583 
L 315.775655 188.430215 
L 320.301035 178.539284 
L 324.826414 169.17956 
L 327.089104 164.931196 
L 329.351793 161.159412 
L 331.614483 157.831516 
L 333.877173 154.913716 
L 336.139863 152.372686 
L 338.402552 150.176431 
L 340.665242 148.294728 
L 342.927932 146.699314 
L 345.190621 145.363936 
L 347.453311 144.264322 
L 350.093116 143.249682 
L 352.73292 142.493155 
L 355.372725 141.965442 
L 358.389645 141.608758 
L 361.406564 141.481294 
L 364.800599 141.573254 
L 368.571748 141.922521 
L 372.720013 142.554647 
L 377.245392 143.482292 
L 382.525001 144.807606 
L 388.55884 146.557784 
L 396.101139 148.982239 
L 407.037473 152.752166 
L 439.846474 164.191726 
L 453.045497 168.490726 
L 465.49029 172.316082 
L 477.935083 175.912901 
L 480.197773 176.542461 
L 480.197773 176.542461 
" clip-path="url(#pabcebea9cc)" style="fill: none; stroke: #88ccee; stroke-width: 1.5; stroke-linecap: round"/>
   </g>
   <g id="line2d_41">
    <path d="M 292.017414 226.628864 
L 297.297023 226.527094 
L 298.428368 226.313852 
L 299.559713 225.895107 
L 300.691057 225.200349 
L 301.822402 224.172574 
L 302.953747 222.774149 
L 304.085092 220.989439 
L 305.216437 218.824608 
L 306.724897 215.429385 
L 308.987586 209.728336 
L 316.529885 190.2977 
L 319.92392 182.322213 
L 323.317954 174.947485 
L 326.334874 168.885507 
L 328.597564 164.750912 
L 330.860253 161.05813 
L 333.122943 157.812998 
L 335.385633 154.990606 
L 337.648322 152.55446 
L 339.911012 150.4656 
L 342.173702 148.68665 
L 344.436391 147.183392 
L 346.699081 145.925181 
L 349.338886 144.732114 
L 350.847346 144.289706 
L 352.73292 143.984456 
L 355.74984 143.773473 
L 361.029449 143.680059 
L 379.130967 143.687763 
L 381.393656 143.912092 
L 384.787691 144.489174 
L 390.0673 145.648368 
L 397.232484 147.466748 
L 407.037473 150.204918 
L 422.499186 154.792411 
L 452.291267 163.64744 
L 468.884325 168.323955 
L 480.197773 171.367723 
L 480.197773 171.367723 
" clip-path="url(#pabcebea9cc)" style="fill: none; stroke: #cc6677; stroke-width: 1.5; stroke-linecap: round"/>
   </g>
   <g id="patch_9">
    <path d="M 282.608396 236.10375 
L 282.608396 27.65625 
" style="fill: none; stroke: #262626; stroke-width: 1.25; stroke-linejoin: miter; stroke-linecap: square"/>
   </g>
   <g id="patch_10">
    <path d="M 489.606791 236.10375 
L 489.606791 27.65625 
" style="fill: none; stroke: #262626; stroke-width: 1.25; stroke-linejoin: miter; stroke-linecap: square"/>
   </g>
   <g id="patch_11">
    <path d="M 282.608396 236.10375 
L 489.606791 236.10375 
" style="fill: none; stroke: #262626; stroke-width: 1.25; stroke-linejoin: miter; stroke-linecap: square"/>
   </g>
   <g id="patch_12">
    <path d="M 282.608396 27.65625 
L 489.606791 27.65625 
" style="fill: none; stroke: #262626; stroke-width: 1.25; stroke-linejoin: miter; stroke-linecap: square"/>
   </g>
   <g id="text_33">
    <!-- Off Pathway -->
    <g style="fill: #262626" transform="translate(353.533218 21.65625)scale(0.12 -0.12)">
     <defs>
      <path id="ArialMT-66" d="M 556 0 
L 556 2881 
L 59 2881 
L 59 3319 
L 556 3319 
L 556 3672 
Q 556 4006 616 4169 
Q 697 4388 901 4523 
Q 1106 4659 1475 4659 
Q 1713 4659 2000 4603 
L 1916 4113 
Q 1741 4144 1584 4144 
Q 1328 4144 1222 4034 
Q 1116 3925 1116 3625 
L 1116 3319 
L 1763 3319 
L 1763 2881 
L 1116 2881 
L 1116 0 
L 556 0 
z
" transform="scale(0.015625)"/>
     </defs>
     <use xlink:href="#ArialMT-4f"/>
     <use xlink:href="#ArialMT-66" x="77.783203"/>
     <use xlink:href="#ArialMT-66" x="103.816406"/>
     <use xlink:href="#ArialMT-20" x="131.599609"/>
     <use xlink:href="#ArialMT-50" x="159.382812"/>
     <use xlink:href="#ArialMT-61" x="226.082031"/>
     <use xlink:href="#ArialMT-74" x="281.697266"/>
     <use xlink:href="#ArialMT-68" x="309.480469"/>
     <use xlink:href="#ArialMT-77" x="365.095703"/>
     <use xlink:href="#ArialMT-61" x="437.3125"/>
     <use xlink:href="#ArialMT-79" x="492.927734"/>
    </g>
   </g>
   <g id="legend_2">
    <g id="patch_13">
     <path d="M 433.506791 129.875469 
L 481.906791 129.875469 
Q 484.106791 129.875469 484.106791 127.675469 
L 484.106791 35.35625 
Q 484.106791 33.15625 481.906791 33.15625 
L 433.506791 33.15625 
Q 431.306791 33.15625 431.306791 35.35625 
L 431.306791 127.675469 
Q 431.306791 129.875469 433.506791 129.875469 
z
" style="fill: #ffffff; opacity: 0.8; stroke: #cccccc; stroke-linejoin: miter"/>
    </g>
    <g id="line2d_42">
     <path d="M 435.706791 41.579844 
L 446.706791 41.579844 
L 457.706791 41.579844 
" style="fill: none; stroke: #cc79a7; stroke-width: 1.5; stroke-linecap: round"/>
    </g>
    <g id="text_34">
     <!-- $In$ -->
     <g style="fill: #262626" transform="translate(466.506791 45.429844)scale(0.11 -0.11)">
      <use xlink:href="#DejaVuSans-Oblique-49" transform="translate(0 0.09375)"/>
      <use xlink:href="#DejaVuSans-Oblique-6e" transform="translate(29.492188 0.09375)"/>
     </g>
    </g>
    <g id="line2d_43">
     <path d="M 435.706791 57.139688 
L 446.706791 57.139688 
L 457.706791 57.139688 
" style="fill: none; stroke: #44aa99; stroke-width: 1.5; stroke-linecap: round"/>
    </g>
    <g id="text_35">
     <!-- $B_F$ -->
     <g style="fill: #262626" transform="translate(466.506791 60.989688)scale(0.11 -0.11)">
      <defs>
       <path id="DejaVuSans-Oblique-46" d="M 1081 4666 
L 3756 4666 
L 3653 4134 
L 1606 4134 
L 1338 2759 
L 3188 2759 
L 3084 2228 
L 1234 2228 
L 800 0 
L 172 0 
L 1081 4666 
z
" transform="scale(0.015625)"/>
      </defs>
      <use xlink:href="#DejaVuSans-Oblique-42" transform="translate(0 0.09375)"/>
      <use xlink:href="#DejaVuSans-Oblique-46" transform="translate(68.603516 -16.3125)scale(0.7)"/>
     </g>
    </g>
    <g id="line2d_44">
     <path d="M 435.706791 72.699531 
L 446.706791 72.699531 
L 457.706791 72.699531 
" style="fill: none; stroke: #ddcc77; stroke-width: 1.5; stroke-linecap: round"/>
    </g>
    <g id="text_36">
     <!-- $L$ -->
     <g style="fill: #262626" transform="translate(466.506791 76.549531)scale(0.11 -0.11)">
      <use xlink:href="#DejaVuSans-Oblique-4c" transform="translate(0 0.09375)"/>
     </g>
    </g>
    <g id="line2d_45">
     <path d="M 435.706791 88.259375 
L 446.706791 88.259375 
L 457.706791 88.259375 
" style="fill: none; stroke: #117733; stroke-width: 1.5; stroke-linecap: round"/>
    </g>
    <g id="text_37">
     <!-- $E_F$ -->
     <g style="fill: #262626" transform="translate(466.506791 92.109375)scale(0.11 -0.11)">
      <use xlink:href="#DejaVuSans-Oblique-45" transform="translate(0 0.09375)"/>
      <use xlink:href="#DejaVuSans-Oblique-46" transform="translate(63.183594 -16.3125)scale(0.7)"/>
     </g>
    </g>
    <g id="line2d_46">
     <path d="M 435.706791 103.819219 
L 446.706791 103.819219 
L 457.706791 103.819219 
" style="fill: none; stroke: #88ccee; stroke-width: 1.5; stroke-linecap: round"/>
    </g>
    <g id="text_38">
     <!-- $D_F$ -->
     <g style="fill: #262626" transform="translate(466.506791 107.669219)scale(0.11 -0.11)">
      <use xlink:href="#DejaVuSans-Oblique-44" transform="translate(0 0.09375)"/>
      <use xlink:href="#DejaVuSans-Oblique-46" transform="translate(77.001953 -16.3125)scale(0.7)"/>
     </g>
    </g>
    <g id="line2d_47">
     <path d="M 435.706791 119.439219 
L 446.706791 119.439219 
L 457.706791 119.439219 
" style="fill: none; stroke: #cc6677; stroke-width: 1.5; stroke-linecap: round"/>
    </g>
    <g id="text_39">
     <!-- $S_F$ -->
     <g style="fill: #262626" transform="translate(466.506791 123.289219)scale(0.11 -0.11)">
      <use xlink:href="#DejaVuSans-Oblique-53" transform="translate(0 0.78125)"/>
      <use xlink:href="#DejaVuSans-Oblique-46" transform="translate(63.476562 -15.625)scale(0.7)"/>
     </g>
    </g>
   </g>
  </g>
 </g>
 <defs>
  <clipPath id="p8bc29e13ad">
   <rect x="37.85" y="27.65625" width="206.998396" height="208.4475"/>
  </clipPath>
  <clipPath id="pabcebea9cc">
   <rect x="282.608396" y="27.65625" width="206.998396" height="208.4475"/>
  </clipPath>
 </defs>
</svg>
