<?xml version="1.0" encoding="utf-8" standalone="no"?>
<!DOCTYPE svg PUBLIC "-//W3C//DTD SVG 1.1//EN"
  "http://www.w3.org/Graphics/SVG/1.1/DTD/svg11.dtd">
<svg xmlns:xlink="http://www.w3.org/1999/xlink" width="504pt" height="283.5pt" viewBox="0 0 504 283.5" xmlns="http://www.w3.org/2000/svg" version="1.1">
 <metadata>
  <rdf:RDF xmlns:dc="http://purl.org/dc/elements/1.1/" xmlns:cc="http://creativecommons.org/ns#" xmlns:rdf="http://www.w3.org/1999/02/22-rdf-syntax-ns#">
   <cc:Work>
    <dc:type rdf:resource="http://purl.org/dc/dcmitype/StillImage"/>
    <dc:date>2023-03-28T11:59:03.679103</dc:date>
    <dc:format>image/svg+xml</dc:format>
    <dc:creator>
     <cc:Agent>
      <dc:title>Matplotlib v3.7.1, https://matplotlib.org/</dc:title>
     </cc:Agent>
    </dc:creator>
   </cc:Work>
  </rdf:RDF>
 </metadata>
 <defs>
  <style type="text/css">*{stroke-linejoin: round; stroke-linecap: butt}</style>
 </defs>
 <g id="figure_1">
  <g id="patch_1">
   <path d="M 0 283.5 
L 504 283.5 
L 504 0 
L 0 0 
z
" style="fill: #ffffff"/>
  </g>
  <g id="axes_1">
   <g id="patch_2">
    <path d="M 39.92 233.28 
L 244.240896 233.28 
L 244.240896 29.04 
L 39.92 29.04 
z
" style="fill: #eaeaf2"/>
   </g>
   <g id="matplotlib.axis_1">
    <g id="xtick_1">
     <g id="line2d_1">
      <path d="M 49.207313 233.28 
L 49.207313 29.04 
" clip-path="url(#pd6b0a171d4)" style="fill: none; stroke: #ffffff; stroke-linecap: round"/>
     </g>
     <g id="text_1">
      <!-- 0 -->
      <g style="fill: #262626" transform="translate(45.707938 251.138281) scale(0.11 -0.11)">
       <defs>
        <path id="DejaVuSans-30" d="M 2034 4250 
Q 1547 4250 1301 3770 
Q 1056 3291 1056 2328 
Q 1056 1369 1301 889 
Q 1547 409 2034 409 
Q 2525 409 2770 889 
Q 3016 1369 3016 2328 
Q 3016 3291 2770 3770 
Q 2525 4250 2034 4250 
z
M 2034 4750 
Q 2819 4750 3233 4129 
Q 3647 3509 3647 2328 
Q 3647 1150 3233 529 
Q 2819 -91 2034 -91 
Q 1250 -91 836 529 
Q 422 1150 422 2328 
Q 422 3509 836 4129 
Q 1250 4750 2034 4750 
z
" transform="scale(0.015625)"/>
       </defs>
       <use xlink:href="#DejaVuSans-30"/>
      </g>
     </g>
    </g>
    <g id="xtick_2">
     <g id="line2d_2">
      <path d="M 86.431015 233.28 
L 86.431015 29.04 
" clip-path="url(#pd6b0a171d4)" style="fill: none; stroke: #ffffff; stroke-linecap: round"/>
     </g>
     <g id="text_2">
      <!-- 10 -->
      <g style="fill: #262626" transform="translate(79.432265 251.138281) scale(0.11 -0.11)">
       <defs>
        <path id="DejaVuSans-31" d="M 794 531 
L 1825 531 
L 1825 4091 
L 703 3866 
L 703 4441 
L 1819 4666 
L 2450 4666 
L 2450 531 
L 3481 531 
L 3481 0 
L 794 0 
L 794 531 
z
" transform="scale(0.015625)"/>
       </defs>
       <use xlink:href="#DejaVuSans-31"/>
       <use xlink:href="#DejaVuSans-30" x="63.623047"/>
      </g>
     </g>
    </g>
    <g id="xtick_3">
     <g id="line2d_3">
      <path d="M 123.654716 233.28 
L 123.654716 29.04 
" clip-path="url(#pd6b0a171d4)" style="fill: none; stroke: #ffffff; stroke-linecap: round"/>
     </g>
     <g id="text_3">
      <!-- 20 -->
      <g style="fill: #262626" transform="translate(116.655966 251.138281) scale(0.11 -0.11)">
       <defs>
        <path id="DejaVuSans-32" d="M 1228 531 
L 3431 531 
L 3431 0 
L 469 0 
L 469 531 
Q 828 903 1448 1529 
Q 2069 2156 2228 2338 
Q 2531 2678 2651 2914 
Q 2772 3150 2772 3378 
Q 2772 3750 2511 3984 
Q 2250 4219 1831 4219 
Q 1534 4219 1204 4116 
Q 875 4013 500 3803 
L 500 4441 
Q 881 4594 1212 4672 
Q 1544 4750 1819 4750 
Q 2544 4750 2975 4387 
Q 3406 4025 3406 3419 
Q 3406 3131 3298 2873 
Q 3191 2616 2906 2266 
Q 2828 2175 2409 1742 
Q 1991 1309 1228 531 
z
" transform="scale(0.015625)"/>
       </defs>
       <use xlink:href="#DejaVuSans-32"/>
       <use xlink:href="#DejaVuSans-30" x="63.623047"/>
      </g>
     </g>
    </g>
    <g id="xtick_4">
     <g id="line2d_4">
      <path d="M 160.878417 233.28 
L 160.878417 29.04 
" clip-path="url(#pd6b0a171d4)" style="fill: none; stroke: #ffffff; stroke-linecap: round"/>
     </g>
     <g id="text_4">
      <!-- 30 -->
      <g style="fill: #262626" transform="translate(153.879667 251.138281) scale(0.11 -0.11)">
       <defs>
        <path id="DejaVuSans-33" d="M 2597 2516 
Q 3050 2419 3304 2112 
Q 3559 1806 3559 1356 
Q 3559 666 3084 287 
Q 2609 -91 1734 -91 
Q 1441 -91 1130 -33 
Q 819 25 488 141 
L 488 750 
Q 750 597 1062 519 
Q 1375 441 1716 441 
Q 2309 441 2620 675 
Q 2931 909 2931 1356 
Q 2931 1769 2642 2001 
Q 2353 2234 1838 2234 
L 1294 2234 
L 1294 2753 
L 1863 2753 
Q 2328 2753 2575 2939 
Q 2822 3125 2822 3475 
Q 2822 3834 2567 4026 
Q 2313 4219 1838 4219 
Q 1578 4219 1281 4162 
Q 984 4106 628 3988 
L 628 4550 
Q 988 4650 1302 4700 
Q 1616 4750 1894 4750 
Q 2613 4750 3031 4423 
Q 3450 4097 3450 3541 
Q 3450 3153 3228 2886 
Q 3006 2619 2597 2516 
z
" transform="scale(0.015625)"/>
       </defs>
       <use xlink:href="#DejaVuSans-33"/>
       <use xlink:href="#DejaVuSans-30" x="63.623047"/>
      </g>
     </g>
    </g>
    <g id="xtick_5">
     <g id="line2d_5">
      <path d="M 198.102118 233.28 
L 198.102118 29.04 
" clip-path="url(#pd6b0a171d4)" style="fill: none; stroke: #ffffff; stroke-linecap: round"/>
     </g>
     <g id="text_5">
      <!-- 40 -->
      <g style="fill: #262626" transform="translate(191.103368 251.138281) scale(0.11 -0.11)">
       <defs>
        <path id="DejaVuSans-34" d="M 2419 4116 
L 825 1625 
L 2419 1625 
L 2419 4116 
z
M 2253 4666 
L 3047 4666 
L 3047 1625 
L 3713 1625 
L 3713 1100 
L 3047 1100 
L 3047 0 
L 2419 0 
L 2419 1100 
L 313 1100 
L 313 1709 
L 2253 4666 
z
" transform="scale(0.015625)"/>
       </defs>
       <use xlink:href="#DejaVuSans-34"/>
       <use xlink:href="#DejaVuSans-30" x="63.623047"/>
      </g>
     </g>
    </g>
    <g id="xtick_6">
     <g id="line2d_6">
      <path d="M 235.325819 233.28 
L 235.325819 29.04 
" clip-path="url(#pd6b0a171d4)" style="fill: none; stroke: #ffffff; stroke-linecap: round"/>
     </g>
     <g id="text_6">
      <!-- 50 -->
      <g style="fill: #262626" transform="translate(228.327069 251.138281) scale(0.11 -0.11)">
       <defs>
        <path id="DejaVuSans-35" d="M 691 4666 
L 3169 4666 
L 3169 4134 
L 1269 4134 
L 1269 2991 
Q 1406 3038 1543 3061 
Q 1681 3084 1819 3084 
Q 2600 3084 3056 2656 
Q 3513 2228 3513 1497 
Q 3513 744 3044 326 
Q 2575 -91 1722 -91 
Q 1428 -91 1123 -41 
Q 819 9 494 109 
L 494 744 
Q 775 591 1075 516 
Q 1375 441 1709 441 
Q 2250 441 2565 725 
Q 2881 1009 2881 1497 
Q 2881 1984 2565 2268 
Q 2250 2553 1709 2553 
Q 1456 2553 1204 2497 
Q 953 2441 691 2322 
L 691 4666 
z
" transform="scale(0.015625)"/>
       </defs>
       <use xlink:href="#DejaVuSans-35"/>
       <use xlink:href="#DejaVuSans-30" x="63.623047"/>
      </g>
     </g>
    </g>
    <g id="text_7">
     <!-- t (ms) -->
     <g style="fill: #262626" transform="translate(124.16951 266.544062) scale(0.12 -0.12)">
      <defs>
       <path id="DejaVuSans-74" d="M 1172 4494 
L 1172 3500 
L 2356 3500 
L 2356 3053 
L 1172 3053 
L 1172 1153 
Q 1172 725 1289 603 
Q 1406 481 1766 481 
L 2356 481 
L 2356 0 
L 1766 0 
Q 1100 0 847 248 
Q 594 497 594 1153 
L 594 3053 
L 172 3053 
L 172 3500 
L 594 3500 
L 594 4494 
L 1172 4494 
z
" transform="scale(0.015625)"/>
       <path id="DejaVuSans-20" transform="scale(0.015625)"/>
       <path id="DejaVuSans-28" d="M 1984 4856 
Q 1566 4138 1362 3434 
Q 1159 2731 1159 2009 
Q 1159 1288 1364 580 
Q 1569 -128 1984 -844 
L 1484 -844 
Q 1016 -109 783 600 
Q 550 1309 550 2009 
Q 550 2706 781 3412 
Q 1013 4119 1484 4856 
L 1984 4856 
z
" transform="scale(0.015625)"/>
       <path id="DejaVuSans-6d" d="M 3328 2828 
Q 3544 3216 3844 3400 
Q 4144 3584 4550 3584 
Q 5097 3584 5394 3201 
Q 5691 2819 5691 2113 
L 5691 0 
L 5113 0 
L 5113 2094 
Q 5113 2597 4934 2840 
Q 4756 3084 4391 3084 
Q 3944 3084 3684 2787 
Q 3425 2491 3425 1978 
L 3425 0 
L 2847 0 
L 2847 2094 
Q 2847 2600 2669 2842 
Q 2491 3084 2119 3084 
Q 1678 3084 1418 2786 
Q 1159 2488 1159 1978 
L 1159 0 
L 581 0 
L 581 3500 
L 1159 3500 
L 1159 2956 
Q 1356 3278 1631 3431 
Q 1906 3584 2284 3584 
Q 2666 3584 2933 3390 
Q 3200 3197 3328 2828 
z
" transform="scale(0.015625)"/>
       <path id="DejaVuSans-73" d="M 2834 3397 
L 2834 2853 
Q 2591 2978 2328 3040 
Q 2066 3103 1784 3103 
Q 1356 3103 1142 2972 
Q 928 2841 928 2578 
Q 928 2378 1081 2264 
Q 1234 2150 1697 2047 
L 1894 2003 
Q 2506 1872 2764 1633 
Q 3022 1394 3022 966 
Q 3022 478 2636 193 
Q 2250 -91 1575 -91 
Q 1294 -91 989 -36 
Q 684 19 347 128 
L 347 722 
Q 666 556 975 473 
Q 1284 391 1588 391 
Q 1994 391 2212 530 
Q 2431 669 2431 922 
Q 2431 1156 2273 1281 
Q 2116 1406 1581 1522 
L 1381 1569 
Q 847 1681 609 1914 
Q 372 2147 372 2553 
Q 372 3047 722 3315 
Q 1072 3584 1716 3584 
Q 2034 3584 2315 3537 
Q 2597 3491 2834 3397 
z
" transform="scale(0.015625)"/>
       <path id="DejaVuSans-29" d="M 513 4856 
L 1013 4856 
Q 1481 4119 1714 3412 
Q 1947 2706 1947 2009 
Q 1947 1309 1714 600 
Q 1481 -109 1013 -844 
L 513 -844 
Q 928 -128 1133 580 
Q 1338 1288 1338 2009 
Q 1338 2731 1133 3434 
Q 928 4138 513 4856 
z
" transform="scale(0.015625)"/>
      </defs>
      <use xlink:href="#DejaVuSans-74"/>
      <use xlink:href="#DejaVuSans-20" x="39.208984"/>
      <use xlink:href="#DejaVuSans-28" x="70.996094"/>
      <use xlink:href="#DejaVuSans-6d" x="110.009766"/>
      <use xlink:href="#DejaVuSans-73" x="207.421875"/>
      <use xlink:href="#DejaVuSans-29" x="259.521484"/>
     </g>
    </g>
   </g>
   <g id="matplotlib.axis_2">
    <g id="ytick_1">
     <g id="line2d_7">
      <path d="M 39.92 223.059018 
L 244.240896 223.059018 
" clip-path="url(#pd6b0a171d4)" style="fill: none; stroke: #ffffff; stroke-linecap: round"/>
     </g>
     <g id="text_8">
      <!-- 0.0 -->
      <g style="fill: #262626" transform="translate(12.926563 227.238159) scale(0.11 -0.11)">
       <defs>
        <path id="DejaVuSans-2e" d="M 684 794 
L 1344 794 
L 1344 0 
L 684 0 
L 684 794 
z
" transform="scale(0.015625)"/>
       </defs>
       <use xlink:href="#DejaVuSans-30"/>
       <use xlink:href="#DejaVuSans-2e" x="63.623047"/>
       <use xlink:href="#DejaVuSans-30" x="95.410156"/>
      </g>
     </g>
    </g>
    <g id="ytick_2">
     <g id="line2d_8">
      <path d="M 39.92 186.351495 
L 244.240896 186.351495 
" clip-path="url(#pd6b0a171d4)" style="fill: none; stroke: #ffffff; stroke-linecap: round"/>
     </g>
     <g id="text_9">
      <!-- 0.2 -->
      <g style="fill: #262626" transform="translate(12.926563 190.530636) scale(0.11 -0.11)">
       <use xlink:href="#DejaVuSans-30"/>
       <use xlink:href="#DejaVuSans-2e" x="63.623047"/>
       <use xlink:href="#DejaVuSans-32" x="95.410156"/>
      </g>
     </g>
    </g>
    <g id="ytick_3">
     <g id="line2d_9">
      <path d="M 39.92 149.643972 
L 244.240896 149.643972 
" clip-path="url(#pd6b0a171d4)" style="fill: none; stroke: #ffffff; stroke-linecap: round"/>
     </g>
     <g id="text_10">
      <!-- 0.4 -->
      <g style="fill: #262626" transform="translate(12.926563 153.823113) scale(0.11 -0.11)">
       <use xlink:href="#DejaVuSans-30"/>
       <use xlink:href="#DejaVuSans-2e" x="63.623047"/>
       <use xlink:href="#DejaVuSans-34" x="95.410156"/>
      </g>
     </g>
    </g>
    <g id="ytick_4">
     <g id="line2d_10">
      <path d="M 39.92 112.936449 
L 244.240896 112.936449 
" clip-path="url(#pd6b0a171d4)" style="fill: none; stroke: #ffffff; stroke-linecap: round"/>
     </g>
     <g id="text_11">
      <!-- 0.6 -->
      <g style="fill: #262626" transform="translate(12.926563 117.11559) scale(0.11 -0.11)">
       <defs>
        <path id="DejaVuSans-36" d="M 2113 2584 
Q 1688 2584 1439 2293 
Q 1191 2003 1191 1497 
Q 1191 994 1439 701 
Q 1688 409 2113 409 
Q 2538 409 2786 701 
Q 3034 994 3034 1497 
Q 3034 2003 2786 2293 
Q 2538 2584 2113 2584 
z
M 3366 4563 
L 3366 3988 
Q 3128 4100 2886 4159 
Q 2644 4219 2406 4219 
Q 1781 4219 1451 3797 
Q 1122 3375 1075 2522 
Q 1259 2794 1537 2939 
Q 1816 3084 2150 3084 
Q 2853 3084 3261 2657 
Q 3669 2231 3669 1497 
Q 3669 778 3244 343 
Q 2819 -91 2113 -91 
Q 1303 -91 875 529 
Q 447 1150 447 2328 
Q 447 3434 972 4092 
Q 1497 4750 2381 4750 
Q 2619 4750 2861 4703 
Q 3103 4656 3366 4563 
z
" transform="scale(0.015625)"/>
       </defs>
       <use xlink:href="#DejaVuSans-30"/>
       <use xlink:href="#DejaVuSans-2e" x="63.623047"/>
       <use xlink:href="#DejaVuSans-36" x="95.410156"/>
      </g>
     </g>
    </g>
    <g id="ytick_5">
     <g id="line2d_11">
      <path d="M 39.92 76.228926 
L 244.240896 76.228926 
" clip-path="url(#pd6b0a171d4)" style="fill: none; stroke: #ffffff; stroke-linecap: round"/>
     </g>
     <g id="text_12">
      <!-- 0.8 -->
      <g style="fill: #262626" transform="translate(12.926563 80.408067) scale(0.11 -0.11)">
       <defs>
        <path id="DejaVuSans-38" d="M 2034 2216 
Q 1584 2216 1326 1975 
Q 1069 1734 1069 1313 
Q 1069 891 1326 650 
Q 1584 409 2034 409 
Q 2484 409 2743 651 
Q 3003 894 3003 1313 
Q 3003 1734 2745 1975 
Q 2488 2216 2034 2216 
z
M 1403 2484 
Q 997 2584 770 2862 
Q 544 3141 544 3541 
Q 544 4100 942 4425 
Q 1341 4750 2034 4750 
Q 2731 4750 3128 4425 
Q 3525 4100 3525 3541 
Q 3525 3141 3298 2862 
Q 3072 2584 2669 2484 
Q 3125 2378 3379 2068 
Q 3634 1759 3634 1313 
Q 3634 634 3220 271 
Q 2806 -91 2034 -91 
Q 1263 -91 848 271 
Q 434 634 434 1313 
Q 434 1759 690 2068 
Q 947 2378 1403 2484 
z
M 1172 3481 
Q 1172 3119 1398 2916 
Q 1625 2713 2034 2713 
Q 2441 2713 2670 2916 
Q 2900 3119 2900 3481 
Q 2900 3844 2670 4047 
Q 2441 4250 2034 4250 
Q 1625 4250 1398 4047 
Q 1172 3844 1172 3481 
z
" transform="scale(0.015625)"/>
       </defs>
       <use xlink:href="#DejaVuSans-30"/>
       <use xlink:href="#DejaVuSans-2e" x="63.623047"/>
       <use xlink:href="#DejaVuSans-38" x="95.410156"/>
      </g>
     </g>
    </g>
    <g id="ytick_6">
     <g id="line2d_12">
      <path d="M 39.92 39.521403 
L 244.240896 39.521403 
" clip-path="url(#pd6b0a171d4)" style="fill: none; stroke: #ffffff; stroke-linecap: round"/>
     </g>
     <g id="text_13">
      <!-- 1.0 -->
      <g style="fill: #262626" transform="translate(12.926563 43.700544) scale(0.11 -0.11)">
       <use xlink:href="#DejaVuSans-31"/>
       <use xlink:href="#DejaVuSans-2e" x="63.623047"/>
       <use xlink:href="#DejaVuSans-30" x="95.410156"/>
      </g>
     </g>
    </g>
   </g>
   <g id="line2d_13">
    <path d="M 49.207313 204.705257 
L 50.324024 159.940432 
L 51.440736 127.306876 
L 52.557447 103.517013 
L 53.674158 86.174202 
L 54.790869 73.531294 
L 55.90758 64.314614 
L 57.024291 57.595654 
L 58.141002 52.697532 
L 59.257713 49.126801 
L 60.374424 46.523738 
L 61.491135 44.626105 
L 62.607846 43.242731 
L 63.724557 42.234251 
L 64.841268 41.49907 
L 66.330216 40.81895 
L 68.191401 40.287592 
L 70.424823 39.928587 
L 73.402719 39.696683 
L 78.614037 39.561502 
L 92.386807 39.522216 
L 234.953582 39.521403 
L 234.953582 39.521403 
" clip-path="url(#pd6b0a171d4)" style="fill: none; stroke: #cc79a7; stroke-width: 1.5; stroke-linecap: round"/>
   </g>
   <g id="line2d_14">
    <path d="M 49.207313 39.521403 
L 49.951787 39.521403 
L 50.324024 39.67395 
L 50.696261 40.203351 
L 51.068498 41.34952 
L 51.440736 43.330514 
L 51.812973 46.318836 
L 52.557447 55.706646 
L 53.301921 69.651742 
L 54.418632 97.235212 
L 57.024291 166.8274 
L 58.141002 189.360637 
L 58.885476 200.818084 
L 59.62995 209.560767 
L 60.374424 215.884666 
L 61.118898 220.144119 
L 61.863372 222.692702 
L 62.235609 223.427324 
L 62.607846 223.850944 
L 62.980083 223.996364 
L 63.35232 223.89339 
L 63.724557 223.56897 
L 64.469031 222.35043 
L 65.213505 220.506734 
L 66.330216 216.854081 
L 67.819164 210.84013 
L 69.680349 202.255179 
L 78.2418 161.306914 
L 80.847459 150.33475 
L 83.453118 140.31217 
L 86.058778 131.211303 
L 88.664437 122.970746 
L 91.270096 115.516706 
L 93.875755 108.773942 
L 96.481414 102.670992 
L 99.087073 97.142344 
L 101.692732 92.129014 
L 104.298391 87.57838 
L 106.90405 83.443677 
L 109.509709 79.68339 
L 112.487605 75.797278 
L 115.465501 72.303593 
L 118.443398 69.159737 
L 121.421294 66.328264 
L 124.39919 63.776165 
L 127.749323 61.202811 
L 131.099456 58.90969 
L 134.821826 56.651715 
L 138.544196 54.66216 
L 142.638803 52.744304 
L 146.73341 51.073244 
L 151.200255 49.493473 
L 156.039336 48.027752 
L 161.250654 46.691658 
L 166.834209 45.494028 
L 173.162238 44.378292 
L 179.862504 43.424464 
L 187.679482 42.546705 
L 196.61317 41.783295 
L 206.663569 41.152674 
L 218.947391 40.61581 
L 233.836871 40.196244 
L 234.953582 40.172218 
L 234.953582 40.172218 
" clip-path="url(#pd6b0a171d4)" style="fill: none; stroke: #44aa99; stroke-width: 1.5; stroke-linecap: round"/>
   </g>
   <g id="line2d_15">
    <path d="M 49.207313 39.521403 
L 49.57955 42.274468 
L 49.951787 47.203829 
L 50.696261 61.587605 
L 52.18521 98.027567 
L 53.674158 132.963102 
L 54.790869 154.608126 
L 55.90758 171.884879 
L 57.024291 185.217217 
L 58.141002 195.280678 
L 59.257713 202.766122 
L 60.374424 208.280054 
L 61.491135 212.315871 
L 62.607846 215.257733 
L 63.724557 217.396753 
L 64.841268 218.949765 
L 65.957979 220.076485 
L 67.07469 220.893717 
L 68.563638 221.645433 
L 70.052586 222.135577 
L 71.913771 222.516194 
L 74.51943 222.80064 
L 78.614037 222.978334 
L 86.803252 223.051107 
L 142.638803 223.059018 
L 234.953582 223.059018 
L 234.953582 223.059018 
" clip-path="url(#pd6b0a171d4)" style="fill: none; stroke: #ddcc77; stroke-width: 1.5; stroke-linecap: round"/>
   </g>
   <g id="line2d_16">
    <path d="M 49.207313 39.521403 
L 51.440736 39.598755 
L 53.301921 39.889586 
L 55.535343 40.510203 
L 58.141002 41.486025 
L 62.235609 43.283093 
L 76.008378 49.734099 
L 90.525622 56.365271 
L 104.670628 62.583815 
L 119.187872 68.724888 
L 134.077352 74.779384 
L 148.966832 80.596363 
L 164.22855 86.322016 
L 179.862504 91.948795 
L 195.868696 97.469744 
L 212.247124 102.878511 
L 228.625553 108.054338 
L 234.953582 109.993855 
L 234.953582 109.993855 
" clip-path="url(#pd6b0a171d4)" style="fill: none; stroke: #117733; stroke-width: 1.5; stroke-linecap: round"/>
   </g>
   <g id="line2d_17">
    <path d="M 49.207313 223.059018 
L 51.068498 222.970455 
L 51.440736 222.784448 
L 51.812973 222.410591 
L 52.18521 221.767176 
L 52.557447 220.771595 
L 52.929684 219.346623 
L 53.674158 214.955379 
L 54.418632 208.23998 
L 55.163106 199.115498 
L 56.279817 181.349069 
L 57.768765 152.397796 
L 60.374424 99.943546 
L 61.491135 80.911521 
L 62.607846 65.341572 
L 63.724557 53.762914 
L 64.469031 47.846849 
L 65.213505 43.408881 
L 65.957979 40.429933 
L 66.330216 39.447863 
L 66.702453 38.781272 
L 67.07469 38.412493 
L 67.446927 38.323636 
L 67.819164 38.496769 
L 68.191401 38.914061 
L 68.935875 40.411067 
L 69.680349 42.678492 
L 70.79706 47.246523 
L 71.913771 52.872119 
L 73.774956 63.71765 
L 80.847459 106.828199 
L 83.080881 118.523252 
L 85.314304 128.967271 
L 87.547726 138.223617 
L 89.781148 146.405753 
L 92.01457 153.640887 
L 94.247992 160.051762 
L 96.481414 165.748895 
L 98.714836 170.828358 
L 100.948258 175.372202 
L 103.18168 179.449968 
L 105.415102 183.120488 
L 108.020761 186.954129 
L 110.62642 190.367531 
L 113.232079 193.416099 
L 115.837738 196.146297 
L 118.815635 198.926738 
L 121.793531 201.391691 
L 124.771427 203.582426 
L 128.12156 205.762364 
L 131.471693 207.68089 
L 135.194063 209.548362 
L 138.916433 211.176376 
L 143.01104 212.730518 
L 147.477884 214.185318 
L 152.316966 215.522747 
L 157.528284 216.731697 
L 163.484076 217.871859 
L 169.812105 218.854475 
L 176.884608 219.730584 
L 185.073823 220.516775 
L 194.379748 221.185268 
L 205.546858 221.758275 
L 219.319628 222.228809 
L 234.953582 222.559827 
L 234.953582 222.559827 
" clip-path="url(#pd6b0a171d4)" style="fill: none; stroke: #88ccee; stroke-width: 1.5; stroke-linecap: round"/>
   </g>
   <g id="line2d_18">
    <path d="M 49.207313 223.059018 
L 51.812973 223.010788 
L 52.557447 222.77403 
L 52.929684 222.502642 
L 53.301921 222.071719 
L 53.674158 221.43244 
L 54.046395 220.534244 
L 54.790869 217.764964 
L 55.535343 213.415988 
L 56.279817 207.251911 
L 57.024291 199.19 
L 58.141002 183.761365 
L 59.62995 158.493107 
L 62.980083 98.241841 
L 64.096794 81.509126 
L 65.213505 67.544739 
L 66.330216 56.468725 
L 67.07469 50.770096 
L 67.819164 46.419328 
L 68.563638 43.09762 
L 69.308112 40.658559 
L 70.052586 39.208452 
L 70.424823 38.821968 
L 70.79706 38.644123 
L 71.169297 38.662347 
L 71.541534 38.864334 
L 71.913771 39.238091 
L 72.658245 40.454723 
L 73.402719 42.223808 
L 74.51943 45.736316 
L 75.636141 50.062876 
L 77.125089 56.736704 
L 79.358511 67.886996 
L 85.686541 100.219932 
L 88.2922 112.235031 
L 90.897859 123.150934 
L 93.131281 131.627277 
L 95.364703 139.331888 
L 97.598125 146.322434 
L 99.831547 152.662761 
L 102.064969 158.416361 
L 104.298391 163.642993 
L 106.90405 169.147174 
L 109.509709 174.085124 
L 112.115368 178.523898 
L 114.721027 182.52158 
L 117.326687 186.128433 
L 119.932346 189.38802 
L 122.910242 192.736371 
L 125.888138 195.729276 
L 128.866034 198.408697 
L 131.84393 200.810854 
L 135.194063 203.220806 
L 138.544196 205.358112 
L 142.266566 207.45337 
L 145.988936 209.291993 
L 150.083544 211.057719 
L 154.550388 212.719964 
L 159.017232 214.146759 
L 163.856313 215.466853 
L 169.067631 216.667121 
L 175.023423 217.805214 
L 181.723689 218.842623 
L 189.16843 219.754864 
L 197.357644 220.530627 
L 207.035806 221.215034 
L 218.202917 221.777177 
L 231.975686 222.239949 
L 234.953582 222.3155 
L 234.953582 222.3155 
" clip-path="url(#pd6b0a171d4)" style="fill: none; stroke: #cc6677; stroke-width: 1.5; stroke-linecap: round"/>
   </g>
   <g id="patch_3">
    <path d="M 39.92 233.28 
L 39.92 29.04 
" style="fill: none; stroke: #ffffff; stroke-width: 1.25; stroke-linejoin: miter; stroke-linecap: square"/>
   </g>
   <g id="patch_4">
    <path d="M 244.240896 233.28 
L 244.240896 29.04 
" style="fill: none; stroke: #ffffff; stroke-width: 1.25; stroke-linejoin: miter; stroke-linecap: square"/>
   </g>
   <g id="patch_5">
    <path d="M 39.92 233.28 
L 244.240896 233.28 
" style="fill: none; stroke: #ffffff; stroke-width: 1.25; stroke-linejoin: miter; stroke-linecap: square"/>
   </g>
   <g id="patch_6">
    <path d="M 39.92 29.04 
L 244.240896 29.04 
" style="fill: none; stroke: #ffffff; stroke-width: 1.25; stroke-linejoin: miter; stroke-linecap: square"/>
   </g>
   <g id="text_14">
    <!-- On Pathway -->
    <g style="fill: #262626" transform="translate(106.333573 23.04) scale(0.12 -0.12)">
     <defs>
      <path id="DejaVuSans-4f" d="M 2522 4238 
Q 1834 4238 1429 3725 
Q 1025 3213 1025 2328 
Q 1025 1447 1429 934 
Q 1834 422 2522 422 
Q 3209 422 3611 934 
Q 4013 1447 4013 2328 
Q 4013 3213 3611 3725 
Q 3209 4238 2522 4238 
z
M 2522 4750 
Q 3503 4750 4090 4092 
Q 4678 3434 4678 2328 
Q 4678 1225 4090 567 
Q 3503 -91 2522 -91 
Q 1538 -91 948 565 
Q 359 1222 359 2328 
Q 359 3434 948 4092 
Q 1538 4750 2522 4750 
z
" transform="scale(0.015625)"/>
      <path id="DejaVuSans-6e" d="M 3513 2113 
L 3513 0 
L 2938 0 
L 2938 2094 
Q 2938 2591 2744 2837 
Q 2550 3084 2163 3084 
Q 1697 3084 1428 2787 
Q 1159 2491 1159 1978 
L 1159 0 
L 581 0 
L 581 3500 
L 1159 3500 
L 1159 2956 
Q 1366 3272 1645 3428 
Q 1925 3584 2291 3584 
Q 2894 3584 3203 3211 
Q 3513 2838 3513 2113 
z
" transform="scale(0.015625)"/>
      <path id="DejaVuSans-50" d="M 1259 4147 
L 1259 2394 
L 2053 2394 
Q 2494 2394 2734 2622 
Q 2975 2850 2975 3272 
Q 2975 3691 2734 3919 
Q 2494 4147 2053 4147 
L 1259 4147 
z
M 628 4666 
L 2053 4666 
Q 2838 4666 3239 4311 
Q 3641 3956 3641 3272 
Q 3641 2581 3239 2228 
Q 2838 1875 2053 1875 
L 1259 1875 
L 1259 0 
L 628 0 
L 628 4666 
z
" transform="scale(0.015625)"/>
      <path id="DejaVuSans-61" d="M 2194 1759 
Q 1497 1759 1228 1600 
Q 959 1441 959 1056 
Q 959 750 1161 570 
Q 1363 391 1709 391 
Q 2188 391 2477 730 
Q 2766 1069 2766 1631 
L 2766 1759 
L 2194 1759 
z
M 3341 1997 
L 3341 0 
L 2766 0 
L 2766 531 
Q 2569 213 2275 61 
Q 1981 -91 1556 -91 
Q 1019 -91 701 211 
Q 384 513 384 1019 
Q 384 1609 779 1909 
Q 1175 2209 1959 2209 
L 2766 2209 
L 2766 2266 
Q 2766 2663 2505 2880 
Q 2244 3097 1772 3097 
Q 1472 3097 1187 3025 
Q 903 2953 641 2809 
L 641 3341 
Q 956 3463 1253 3523 
Q 1550 3584 1831 3584 
Q 2591 3584 2966 3190 
Q 3341 2797 3341 1997 
z
" transform="scale(0.015625)"/>
      <path id="DejaVuSans-68" d="M 3513 2113 
L 3513 0 
L 2938 0 
L 2938 2094 
Q 2938 2591 2744 2837 
Q 2550 3084 2163 3084 
Q 1697 3084 1428 2787 
Q 1159 2491 1159 1978 
L 1159 0 
L 581 0 
L 581 4863 
L 1159 4863 
L 1159 2956 
Q 1366 3272 1645 3428 
Q 1925 3584 2291 3584 
Q 2894 3584 3203 3211 
Q 3513 2838 3513 2113 
z
" transform="scale(0.015625)"/>
      <path id="DejaVuSans-77" d="M 269 3500 
L 844 3500 
L 1563 769 
L 2278 3500 
L 2956 3500 
L 3675 769 
L 4391 3500 
L 4966 3500 
L 4050 0 
L 3372 0 
L 2619 2869 
L 1863 0 
L 1184 0 
L 269 3500 
z
" transform="scale(0.015625)"/>
      <path id="DejaVuSans-79" d="M 2059 -325 
Q 1816 -950 1584 -1140 
Q 1353 -1331 966 -1331 
L 506 -1331 
L 506 -850 
L 844 -850 
Q 1081 -850 1212 -737 
Q 1344 -625 1503 -206 
L 1606 56 
L 191 3500 
L 800 3500 
L 1894 763 
L 2988 3500 
L 3597 3500 
L 2059 -325 
z
" transform="scale(0.015625)"/>
     </defs>
     <use xlink:href="#DejaVuSans-4f"/>
     <use xlink:href="#DejaVuSans-6e" x="78.710938"/>
     <use xlink:href="#DejaVuSans-20" x="142.089844"/>
     <use xlink:href="#DejaVuSans-50" x="173.876953"/>
     <use xlink:href="#DejaVuSans-61" x="229.679688"/>
     <use xlink:href="#DejaVuSans-74" x="290.958984"/>
     <use xlink:href="#DejaVuSans-68" x="330.167969"/>
     <use xlink:href="#DejaVuSans-77" x="393.546875"/>
     <use xlink:href="#DejaVuSans-61" x="475.333984"/>
     <use xlink:href="#DejaVuSans-79" x="536.613281"/>
    </g>
   </g>
   <g id="legend_1">
    <g id="patch_7">
     <path d="M 168.034958 227.78 
L 236.540896 227.78 
Q 238.740896 227.78 238.740896 225.58 
L 238.740896 129.804375 
Q 238.740896 127.604375 236.540896 127.604375 
L 168.034958 127.604375 
Q 165.834958 127.604375 165.834958 129.804375 
L 165.834958 225.58 
Q 165.834958 227.78 168.034958 227.78 
z
" style="fill: #eaeaf2; opacity: 0.8; stroke: #cccccc; stroke-linejoin: miter"/>
    </g>
    <g id="line2d_19">
     <path d="M 170.234958 136.512656 
L 181.234958 136.512656 
L 192.234958 136.512656 
" style="fill: none; stroke: #cc79a7; stroke-width: 1.5; stroke-linecap: round"/>
    </g>
    <g id="text_15">
     <!-- In -->
     <g style="fill: #262626" transform="translate(201.034958 140.362656) scale(0.11 -0.11)">
      <defs>
       <path id="DejaVuSans-49" d="M 628 4666 
L 1259 4666 
L 1259 0 
L 628 0 
L 628 4666 
z
" transform="scale(0.015625)"/>
      </defs>
      <use xlink:href="#DejaVuSans-49"/>
      <use xlink:href="#DejaVuSans-6e" x="29.492188"/>
     </g>
    </g>
    <g id="line2d_20">
     <path d="M 170.234958 152.658594 
L 181.234958 152.658594 
L 192.234958 152.658594 
" style="fill: none; stroke: #44aa99; stroke-width: 1.5; stroke-linecap: round"/>
    </g>
    <g id="text_16">
     <!-- BP On -->
     <g style="fill: #262626" transform="translate(201.034958 156.508594) scale(0.11 -0.11)">
      <defs>
       <path id="DejaVuSans-42" d="M 1259 2228 
L 1259 519 
L 2272 519 
Q 2781 519 3026 730 
Q 3272 941 3272 1375 
Q 3272 1813 3026 2020 
Q 2781 2228 2272 2228 
L 1259 2228 
z
M 1259 4147 
L 1259 2741 
L 2194 2741 
Q 2656 2741 2882 2914 
Q 3109 3088 3109 3444 
Q 3109 3797 2882 3972 
Q 2656 4147 2194 4147 
L 1259 4147 
z
M 628 4666 
L 2241 4666 
Q 2963 4666 3353 4366 
Q 3744 4066 3744 3513 
Q 3744 3084 3544 2831 
Q 3344 2578 2956 2516 
Q 3422 2416 3680 2098 
Q 3938 1781 3938 1306 
Q 3938 681 3513 340 
Q 3088 0 2303 0 
L 628 0 
L 628 4666 
z
" transform="scale(0.015625)"/>
      </defs>
      <use xlink:href="#DejaVuSans-42"/>
      <use xlink:href="#DejaVuSans-50" x="68.603516"/>
      <use xlink:href="#DejaVuSans-20" x="128.90625"/>
      <use xlink:href="#DejaVuSans-4f" x="160.693359"/>
      <use xlink:href="#DejaVuSans-6e" x="239.404297"/>
     </g>
    </g>
    <g id="line2d_21">
     <path d="M 170.234958 168.804531 
L 181.234958 168.804531 
L 192.234958 168.804531 
" style="fill: none; stroke: #ddcc77; stroke-width: 1.5; stroke-linecap: round"/>
    </g>
    <g id="text_17">
     <!-- LP -->
     <g style="fill: #262626" transform="translate(201.034958 172.654531) scale(0.11 -0.11)">
      <defs>
       <path id="DejaVuSans-4c" d="M 628 4666 
L 1259 4666 
L 1259 531 
L 3531 531 
L 3531 0 
L 628 0 
L 628 4666 
z
" transform="scale(0.015625)"/>
      </defs>
      <use xlink:href="#DejaVuSans-4c"/>
      <use xlink:href="#DejaVuSans-50" x="55.712891"/>
     </g>
    </g>
    <g id="line2d_22">
     <path d="M 170.234958 184.950469 
L 181.234958 184.950469 
L 192.234958 184.950469 
" style="fill: none; stroke: #117733; stroke-width: 1.5; stroke-linecap: round"/>
    </g>
    <g id="text_18">
     <!-- E On -->
     <g style="fill: #262626" transform="translate(201.034958 188.800469) scale(0.11 -0.11)">
      <defs>
       <path id="DejaVuSans-45" d="M 628 4666 
L 3578 4666 
L 3578 4134 
L 1259 4134 
L 1259 2753 
L 3481 2753 
L 3481 2222 
L 1259 2222 
L 1259 531 
L 3634 531 
L 3634 0 
L 628 0 
L 628 4666 
z
" transform="scale(0.015625)"/>
      </defs>
      <use xlink:href="#DejaVuSans-45"/>
      <use xlink:href="#DejaVuSans-20" x="63.183594"/>
      <use xlink:href="#DejaVuSans-4f" x="94.970703"/>
      <use xlink:href="#DejaVuSans-6e" x="173.681641"/>
     </g>
    </g>
    <g id="line2d_23">
     <path d="M 170.234958 201.096406 
L 181.234958 201.096406 
L 192.234958 201.096406 
" style="fill: none; stroke: #88ccee; stroke-width: 1.5; stroke-linecap: round"/>
    </g>
    <g id="text_19">
     <!-- D On -->
     <g style="fill: #262626" transform="translate(201.034958 204.946406) scale(0.11 -0.11)">
      <defs>
       <path id="DejaVuSans-44" d="M 1259 4147 
L 1259 519 
L 2022 519 
Q 2988 519 3436 956 
Q 3884 1394 3884 2338 
Q 3884 3275 3436 3711 
Q 2988 4147 2022 4147 
L 1259 4147 
z
M 628 4666 
L 1925 4666 
Q 3281 4666 3915 4102 
Q 4550 3538 4550 2338 
Q 4550 1131 3912 565 
Q 3275 0 1925 0 
L 628 0 
L 628 4666 
z
" transform="scale(0.015625)"/>
      </defs>
      <use xlink:href="#DejaVuSans-44"/>
      <use xlink:href="#DejaVuSans-20" x="77.001953"/>
      <use xlink:href="#DejaVuSans-4f" x="108.789062"/>
      <use xlink:href="#DejaVuSans-6e" x="187.5"/>
     </g>
    </g>
    <g id="line2d_24">
     <path d="M 170.234958 217.242344 
L 181.234958 217.242344 
L 192.234958 217.242344 
" style="fill: none; stroke: #cc6677; stroke-width: 1.5; stroke-linecap: round"/>
    </g>
    <g id="text_20">
     <!-- S On -->
     <g style="fill: #262626" transform="translate(201.034958 221.092344) scale(0.11 -0.11)">
      <defs>
       <path id="DejaVuSans-53" d="M 3425 4513 
L 3425 3897 
Q 3066 4069 2747 4153 
Q 2428 4238 2131 4238 
Q 1616 4238 1336 4038 
Q 1056 3838 1056 3469 
Q 1056 3159 1242 3001 
Q 1428 2844 1947 2747 
L 2328 2669 
Q 3034 2534 3370 2195 
Q 3706 1856 3706 1288 
Q 3706 609 3251 259 
Q 2797 -91 1919 -91 
Q 1588 -91 1214 -16 
Q 841 59 441 206 
L 441 856 
Q 825 641 1194 531 
Q 1563 422 1919 422 
Q 2459 422 2753 634 
Q 3047 847 3047 1241 
Q 3047 1584 2836 1778 
Q 2625 1972 2144 2069 
L 1759 2144 
Q 1053 2284 737 2584 
Q 422 2884 422 3419 
Q 422 4038 858 4394 
Q 1294 4750 2059 4750 
Q 2388 4750 2728 4690 
Q 3069 4631 3425 4513 
z
" transform="scale(0.015625)"/>
      </defs>
      <use xlink:href="#DejaVuSans-53"/>
      <use xlink:href="#DejaVuSans-20" x="63.476562"/>
      <use xlink:href="#DejaVuSans-4f" x="95.263672"/>
      <use xlink:href="#DejaVuSans-6e" x="173.974609"/>
     </g>
    </g>
   </g>
  </g>
  <g id="axes_2">
   <g id="patch_8">
    <path d="M 284.070896 233.28 
L 488.391791 233.28 
L 488.391791 29.04 
L 284.070896 29.04 
z
" style="fill: #eaeaf2"/>
   </g>
   <g id="matplotlib.axis_3">
    <g id="xtick_7">
     <g id="line2d_25">
      <path d="M 293.358209 233.28 
L 293.358209 29.04 
" clip-path="url(#pfaf01c357d)" style="fill: none; stroke: #ffffff; stroke-linecap: round"/>
     </g>
     <g id="text_21">
      <!-- 50 -->
      <g style="fill: #262626" transform="translate(286.359459 251.138281) scale(0.11 -0.11)">
       <use xlink:href="#DejaVuSans-35"/>
       <use xlink:href="#DejaVuSans-30" x="63.623047"/>
      </g>
     </g>
    </g>
    <g id="xtick_8">
     <g id="line2d_26">
      <path d="M 330.58191 233.28 
L 330.58191 29.04 
" clip-path="url(#pfaf01c357d)" style="fill: none; stroke: #ffffff; stroke-linecap: round"/>
     </g>
     <g id="text_22">
      <!-- 60 -->
      <g style="fill: #262626" transform="translate(323.58316 251.138281) scale(0.11 -0.11)">
       <use xlink:href="#DejaVuSans-36"/>
       <use xlink:href="#DejaVuSans-30" x="63.623047"/>
      </g>
     </g>
    </g>
    <g id="xtick_9">
     <g id="line2d_27">
      <path d="M 367.805611 233.28 
L 367.805611 29.04 
" clip-path="url(#pfaf01c357d)" style="fill: none; stroke: #ffffff; stroke-linecap: round"/>
     </g>
     <g id="text_23">
      <!-- 70 -->
      <g style="fill: #262626" transform="translate(360.806861 251.138281) scale(0.11 -0.11)">
       <defs>
        <path id="DejaVuSans-37" d="M 525 4666 
L 3525 4666 
L 3525 4397 
L 1831 0 
L 1172 0 
L 2766 4134 
L 525 4134 
L 525 4666 
z
" transform="scale(0.015625)"/>
       </defs>
       <use xlink:href="#DejaVuSans-37"/>
       <use xlink:href="#DejaVuSans-30" x="63.623047"/>
      </g>
     </g>
    </g>
    <g id="xtick_10">
     <g id="line2d_28">
      <path d="M 405.029312 233.28 
L 405.029312 29.04 
" clip-path="url(#pfaf01c357d)" style="fill: none; stroke: #ffffff; stroke-linecap: round"/>
     </g>
     <g id="text_24">
      <!-- 80 -->
      <g style="fill: #262626" transform="translate(398.030562 251.138281) scale(0.11 -0.11)">
       <use xlink:href="#DejaVuSans-38"/>
       <use xlink:href="#DejaVuSans-30" x="63.623047"/>
      </g>
     </g>
    </g>
    <g id="xtick_11">
     <g id="line2d_29">
      <path d="M 442.253014 233.28 
L 442.253014 29.04 
" clip-path="url(#pfaf01c357d)" style="fill: none; stroke: #ffffff; stroke-linecap: round"/>
     </g>
     <g id="text_25">
      <!-- 90 -->
      <g style="fill: #262626" transform="translate(435.254264 251.138281) scale(0.11 -0.11)">
       <defs>
        <path id="DejaVuSans-39" d="M 703 97 
L 703 672 
Q 941 559 1184 500 
Q 1428 441 1663 441 
Q 2288 441 2617 861 
Q 2947 1281 2994 2138 
Q 2813 1869 2534 1725 
Q 2256 1581 1919 1581 
Q 1219 1581 811 2004 
Q 403 2428 403 3163 
Q 403 3881 828 4315 
Q 1253 4750 1959 4750 
Q 2769 4750 3195 4129 
Q 3622 3509 3622 2328 
Q 3622 1225 3098 567 
Q 2575 -91 1691 -91 
Q 1453 -91 1209 -44 
Q 966 3 703 97 
z
M 1959 2075 
Q 2384 2075 2632 2365 
Q 2881 2656 2881 3163 
Q 2881 3666 2632 3958 
Q 2384 4250 1959 4250 
Q 1534 4250 1286 3958 
Q 1038 3666 1038 3163 
Q 1038 2656 1286 2365 
Q 1534 2075 1959 2075 
z
" transform="scale(0.015625)"/>
       </defs>
       <use xlink:href="#DejaVuSans-39"/>
       <use xlink:href="#DejaVuSans-30" x="63.623047"/>
      </g>
     </g>
    </g>
    <g id="xtick_12">
     <g id="line2d_30">
      <path d="M 479.476715 233.28 
L 479.476715 29.04 
" clip-path="url(#pfaf01c357d)" style="fill: none; stroke: #ffffff; stroke-linecap: round"/>
     </g>
     <g id="text_26">
      <!-- 100 -->
      <g style="fill: #262626" transform="translate(468.97859 251.138281) scale(0.11 -0.11)">
       <use xlink:href="#DejaVuSans-31"/>
       <use xlink:href="#DejaVuSans-30" x="63.623047"/>
       <use xlink:href="#DejaVuSans-30" x="127.246094"/>
      </g>
     </g>
    </g>
    <g id="text_27">
     <!-- t (ms) -->
     <g style="fill: #262626" transform="translate(368.320406 266.544062) scale(0.12 -0.12)">
      <use xlink:href="#DejaVuSans-74"/>
      <use xlink:href="#DejaVuSans-20" x="39.208984"/>
      <use xlink:href="#DejaVuSans-28" x="70.996094"/>
      <use xlink:href="#DejaVuSans-6d" x="110.009766"/>
      <use xlink:href="#DejaVuSans-73" x="207.421875"/>
      <use xlink:href="#DejaVuSans-29" x="259.521484"/>
     </g>
    </g>
   </g>
   <g id="matplotlib.axis_4">
    <g id="ytick_7">
     <g id="line2d_31">
      <path d="M 284.070896 223.996364 
L 488.391791 223.996364 
" clip-path="url(#pfaf01c357d)" style="fill: none; stroke: #ffffff; stroke-linecap: round"/>
     </g>
     <g id="text_28">
      <!-- 0.0 -->
      <g style="fill: #262626" transform="translate(257.077458 228.175504) scale(0.11 -0.11)">
       <use xlink:href="#DejaVuSans-30"/>
       <use xlink:href="#DejaVuSans-2e" x="63.623047"/>
       <use xlink:href="#DejaVuSans-30" x="95.410156"/>
      </g>
     </g>
    </g>
    <g id="ytick_8">
     <g id="line2d_32">
      <path d="M 284.070896 183.350841 
L 488.391791 183.350841 
" clip-path="url(#pfaf01c357d)" style="fill: none; stroke: #ffffff; stroke-linecap: round"/>
     </g>
     <g id="text_29">
      <!-- 0.5 -->
      <g style="fill: #262626" transform="translate(257.077458 187.529982) scale(0.11 -0.11)">
       <use xlink:href="#DejaVuSans-30"/>
       <use xlink:href="#DejaVuSans-2e" x="63.623047"/>
       <use xlink:href="#DejaVuSans-35" x="95.410156"/>
      </g>
     </g>
    </g>
    <g id="ytick_9">
     <g id="line2d_33">
      <path d="M 284.070896 142.705319 
L 488.391791 142.705319 
" clip-path="url(#pfaf01c357d)" style="fill: none; stroke: #ffffff; stroke-linecap: round"/>
     </g>
     <g id="text_30">
      <!-- 1.0 -->
      <g style="fill: #262626" transform="translate(257.077458 146.884459) scale(0.11 -0.11)">
       <use xlink:href="#DejaVuSans-31"/>
       <use xlink:href="#DejaVuSans-2e" x="63.623047"/>
       <use xlink:href="#DejaVuSans-30" x="95.410156"/>
      </g>
     </g>
    </g>
    <g id="ytick_10">
     <g id="line2d_34">
      <path d="M 284.070896 102.059796 
L 488.391791 102.059796 
" clip-path="url(#pfaf01c357d)" style="fill: none; stroke: #ffffff; stroke-linecap: round"/>
     </g>
     <g id="text_31">
      <!-- 1.5 -->
      <g style="fill: #262626" transform="translate(257.077458 106.238937) scale(0.11 -0.11)">
       <use xlink:href="#DejaVuSans-31"/>
       <use xlink:href="#DejaVuSans-2e" x="63.623047"/>
       <use xlink:href="#DejaVuSans-35" x="95.410156"/>
      </g>
     </g>
    </g>
    <g id="ytick_11">
     <g id="line2d_35">
      <path d="M 284.070896 61.414273 
L 488.391791 61.414273 
" clip-path="url(#pfaf01c357d)" style="fill: none; stroke: #ffffff; stroke-linecap: round"/>
     </g>
     <g id="text_32">
      <!-- 2.0 -->
      <g style="fill: #262626" transform="translate(257.077458 65.593414) scale(0.11 -0.11)">
       <use xlink:href="#DejaVuSans-32"/>
       <use xlink:href="#DejaVuSans-2e" x="63.623047"/>
       <use xlink:href="#DejaVuSans-30" x="95.410156"/>
      </g>
     </g>
    </g>
   </g>
   <g id="line2d_36">
    <path d="M 293.358209 142.705319 
L 294.47492 164.735192 
L 295.591631 180.794969 
L 296.708342 192.502547 
L 297.825053 201.037371 
L 298.941764 207.259258 
L 300.058475 211.795014 
L 301.175186 215.10158 
L 302.291897 217.512066 
L 303.408608 219.269311 
L 304.525319 220.550342 
L 305.64203 221.484214 
L 306.758741 222.165006 
L 308.247689 222.79481 
L 310.108874 223.286858 
L 312.342297 223.619303 
L 315.69243 223.850283 
L 321.275985 223.966287 
L 338.398887 223.996127 
L 479.104478 223.996364 
L 479.104478 223.996364 
" clip-path="url(#pfaf01c357d)" style="fill: none; stroke: #cc79a7; stroke-width: 1.5; stroke-linecap: round"/>
   </g>
   <g id="line2d_37">
    <path d="M 293.358209 142.99011 
L 294.847157 142.909193 
L 295.219394 142.69046 
L 295.591631 142.254108 
L 295.963868 141.549495 
L 296.708342 139.228242 
L 297.452816 135.660689 
L 298.19729 130.94484 
L 299.314001 122.123034 
L 300.802949 108.241819 
L 304.153082 75.987284 
L 305.64203 63.926267 
L 306.758741 56.38747 
L 307.875452 50.243039 
L 308.992163 45.485487 
L 309.736637 43.049965 
L 310.481112 41.165806 
L 311.225586 39.794066 
L 311.97006 38.892385 
L 312.714534 38.416878 
L 313.459008 38.323636 
L 314.203482 38.569871 
L 314.947956 39.114737 
L 315.69243 39.919899 
L 316.809141 41.538885 
L 317.925852 43.557385 
L 319.4148 46.713735 
L 321.648222 52.098808 
L 325.742829 62.805306 
L 330.209673 74.337305 
L 333.559806 82.388848 
L 336.537702 88.989316 
L 339.515598 95.035311 
L 342.493494 100.52867 
L 345.099154 104.896444 
L 347.704813 108.873941 
L 350.310472 112.483114 
L 352.916131 115.747717 
L 355.52179 118.692297 
L 358.127449 121.341475 
L 361.105345 124.038373 
L 364.083241 126.415757 
L 367.061137 128.506513 
L 370.039033 130.341338 
L 373.389166 132.134798 
L 376.7393 133.676855 
L 380.46167 135.135268 
L 384.18404 136.36364 
L 388.278647 137.490347 
L 392.745491 138.495999 
L 397.956809 139.429831 
L 403.540364 140.203866 
L 410.240631 140.89685 
L 418.057608 141.467756 
L 427.363533 141.918136 
L 439.275117 142.264563 
L 456.025783 142.51051 
L 479.104478 142.642117 
L 479.104478 142.642117 
" clip-path="url(#pfaf01c357d)" style="fill: none; stroke: #44aa99; stroke-width: 1.5; stroke-linecap: round"/>
   </g>
   <g id="line2d_38">
    <path d="M 293.358209 223.996364 
L 293.730446 223.996364 
L 294.102683 223.183453 
L 294.47492 221.753137 
L 295.219394 217.610468 
L 296.336105 209.617552 
L 299.686238 184.344293 
L 301.175186 175.030011 
L 302.664134 167.336477 
L 303.780845 162.588108 
L 304.897556 158.63289 
L 306.014267 155.378406 
L 307.130978 152.728409 
L 308.247689 150.590078 
L 309.3644 148.87819 
L 310.481112 147.517163 
L 311.597823 146.441674 
L 313.086771 145.357597 
L 314.575719 144.577787 
L 316.436904 143.908957 
L 318.670326 143.407613 
L 321.275985 143.076235 
L 324.998355 142.85211 
L 331.326384 142.734753 
L 350.682709 142.705505 
L 479.104478 142.705319 
L 479.104478 142.705319 
" clip-path="url(#pfaf01c357d)" style="fill: none; stroke: #ddcc77; stroke-width: 1.5; stroke-linecap: round"/>
   </g>
   <g id="line2d_39">
    <path d="M 293.358209 173.968503 
L 297.452816 174.422072 
L 300.802949 174.530101 
L 304.525319 174.41714 
L 310.108874 173.999603 
L 323.13717 172.723114 
L 351.054946 170.037851 
L 378.228248 167.652744 
L 406.890497 165.362128 
L 437.041695 163.179141 
L 468.681841 161.114152 
L 479.104478 160.480599 
L 479.104478 160.480599 
" clip-path="url(#pfaf01c357d)" style="fill: none; stroke: #117733; stroke-width: 1.5; stroke-linecap: round"/>
   </g>
   <g id="line2d_40">
    <path d="M 293.358209 223.996364 
L 297.080579 223.907377 
L 298.19729 223.645404 
L 299.314001 223.112609 
L 300.430712 222.240885 
L 301.547423 220.990749 
L 302.664134 219.350375 
L 303.780845 217.332023 
L 305.269793 214.109187 
L 307.875452 207.617607 
L 312.342297 196.805241 
L 316.809141 186.568752 
L 321.275985 176.877469 
L 325.742829 167.70667 
L 327.976251 163.544059 
L 330.209673 159.848409 
L 332.443095 156.587687 
L 334.676517 153.728782 
L 336.909939 151.239042 
L 339.143361 149.087119 
L 341.376783 147.243398 
L 343.610206 145.680187 
L 345.843628 144.371763 
L 348.07705 143.294345 
L 350.682709 142.300185 
L 353.288368 141.558929 
L 355.894027 141.041868 
L 358.871923 140.692383 
L 361.849819 140.567492 
L 365.199952 140.657596 
L 368.922322 140.999813 
L 373.016929 141.61918 
L 377.483774 142.5281 
L 382.695092 143.826663 
L 389.023121 145.65506 
L 396.840098 148.164545 
L 408.379446 152.131983 
L 437.413932 162.199237 
L 450.814465 166.562377 
L 463.470523 170.448384 
L 476.126582 174.096859 
L 479.104478 174.920952 
L 479.104478 174.920952 
" clip-path="url(#pfaf01c357d)" style="fill: none; stroke: #88ccee; stroke-width: 1.5; stroke-linecap: round"/>
   </g>
   <g id="line2d_41">
    <path d="M 293.358209 223.996364 
L 298.569527 223.896648 
L 299.686238 223.687711 
L 300.802949 223.277418 
L 301.91966 222.596684 
L 303.036371 221.589654 
L 304.153082 220.219456 
L 305.269793 218.47077 
L 306.386504 216.349636 
L 307.875452 213.022945 
L 310.481112 206.471862 
L 317.181378 189.303001 
L 320.531511 181.422996 
L 323.881644 174.132744 
L 326.85954 168.13219 
L 329.465199 163.367415 
L 331.698621 159.749172 
L 333.932043 156.569542 
L 336.165465 153.80412 
L 338.398887 151.417147 
L 340.632309 149.370451 
L 342.865732 147.627409 
L 345.099154 146.154494 
L 347.332576 144.921679 
L 349.938235 143.752695 
L 351.427183 143.319217 
L 353.288368 143.020128 
L 356.266264 142.813404 
L 361.849819 142.719789 
L 379.344959 142.729424 
L 381.950618 143.00127 
L 385.672988 143.662662 
L 391.256543 144.91732 
L 398.701283 146.83014 
L 408.751683 149.651438 
L 426.246822 154.83419 
L 451.186702 162.179439 
L 467.56513 166.766872 
L 479.104478 169.850666 
L 479.104478 169.850666 
" clip-path="url(#pfaf01c357d)" style="fill: none; stroke: #cc6677; stroke-width: 1.5; stroke-linecap: round"/>
   </g>
   <g id="patch_9">
    <path d="M 284.070896 233.28 
L 284.070896 29.04 
" style="fill: none; stroke: #ffffff; stroke-width: 1.25; stroke-linejoin: miter; stroke-linecap: square"/>
   </g>
   <g id="patch_10">
    <path d="M 488.391791 233.28 
L 488.391791 29.04 
" style="fill: none; stroke: #ffffff; stroke-width: 1.25; stroke-linejoin: miter; stroke-linecap: square"/>
   </g>
   <g id="patch_11">
    <path d="M 284.070896 233.28 
L 488.391791 233.28 
" style="fill: none; stroke: #ffffff; stroke-width: 1.25; stroke-linejoin: miter; stroke-linecap: square"/>
   </g>
   <g id="patch_12">
    <path d="M 284.070896 29.04 
L 488.391791 29.04 
" style="fill: none; stroke: #ffffff; stroke-width: 1.25; stroke-linejoin: miter; stroke-linecap: square"/>
   </g>
   <g id="text_33">
    <!-- Off Pathway -->
    <g style="fill: #262626" transform="translate(350.062593 23.04) scale(0.12 -0.12)">
     <defs>
      <path id="DejaVuSans-66" d="M 2375 4863 
L 2375 4384 
L 1825 4384 
Q 1516 4384 1395 4259 
Q 1275 4134 1275 3809 
L 1275 3500 
L 2222 3500 
L 2222 3053 
L 1275 3053 
L 1275 0 
L 697 0 
L 697 3053 
L 147 3053 
L 147 3500 
L 697 3500 
L 697 3744 
Q 697 4328 969 4595 
Q 1241 4863 1831 4863 
L 2375 4863 
z
" transform="scale(0.015625)"/>
     </defs>
     <use xlink:href="#DejaVuSans-4f"/>
     <use xlink:href="#DejaVuSans-66" x="78.710938"/>
     <use xlink:href="#DejaVuSans-66" x="113.916016"/>
     <use xlink:href="#DejaVuSans-20" x="149.121094"/>
     <use xlink:href="#DejaVuSans-50" x="180.908203"/>
     <use xlink:href="#DejaVuSans-61" x="236.710938"/>
     <use xlink:href="#DejaVuSans-74" x="297.990234"/>
     <use xlink:href="#DejaVuSans-68" x="337.199219"/>
     <use xlink:href="#DejaVuSans-77" x="400.578125"/>
     <use xlink:href="#DejaVuSans-61" x="482.365234"/>
     <use xlink:href="#DejaVuSans-79" x="543.644531"/>
    </g>
   </g>
   <g id="legend_2">
    <g id="patch_13">
     <path d="M 411.412416 134.715625 
L 480.691791 134.715625 
Q 482.891791 134.715625 482.891791 132.515625 
L 482.891791 36.74 
Q 482.891791 34.54 480.691791 34.54 
L 411.412416 34.54 
Q 409.212416 34.54 409.212416 36.74 
L 409.212416 132.515625 
Q 409.212416 134.715625 411.412416 134.715625 
z
" style="fill: #eaeaf2; opacity: 0.8; stroke: #cccccc; stroke-linejoin: miter"/>
    </g>
    <g id="line2d_42">
     <path d="M 413.612416 43.448281 
L 424.612416 43.448281 
L 435.612416 43.448281 
" style="fill: none; stroke: #cc79a7; stroke-width: 1.5; stroke-linecap: round"/>
    </g>
    <g id="text_34">
     <!-- In -->
     <g style="fill: #262626" transform="translate(444.412416 47.298281) scale(0.11 -0.11)">
      <use xlink:href="#DejaVuSans-49"/>
      <use xlink:href="#DejaVuSans-6e" x="29.492188"/>
     </g>
    </g>
    <g id="line2d_43">
     <path d="M 413.612416 59.594219 
L 424.612416 59.594219 
L 435.612416 59.594219 
" style="fill: none; stroke: #44aa99; stroke-width: 1.5; stroke-linecap: round"/>
    </g>
    <g id="text_35">
     <!-- BP Off -->
     <g style="fill: #262626" transform="translate(444.412416 63.444219) scale(0.11 -0.11)">
      <use xlink:href="#DejaVuSans-42"/>
      <use xlink:href="#DejaVuSans-50" x="68.603516"/>
      <use xlink:href="#DejaVuSans-20" x="128.90625"/>
      <use xlink:href="#DejaVuSans-4f" x="160.693359"/>
      <use xlink:href="#DejaVuSans-66" x="239.404297"/>
      <use xlink:href="#DejaVuSans-66" x="274.609375"/>
     </g>
    </g>
    <g id="line2d_44">
     <path d="M 413.612416 75.740156 
L 424.612416 75.740156 
L 435.612416 75.740156 
" style="fill: none; stroke: #ddcc77; stroke-width: 1.5; stroke-linecap: round"/>
    </g>
    <g id="text_36">
     <!-- LP -->
     <g style="fill: #262626" transform="translate(444.412416 79.590156) scale(0.11 -0.11)">
      <use xlink:href="#DejaVuSans-4c"/>
      <use xlink:href="#DejaVuSans-50" x="55.712891"/>
     </g>
    </g>
    <g id="line2d_45">
     <path d="M 413.612416 91.886094 
L 424.612416 91.886094 
L 435.612416 91.886094 
" style="fill: none; stroke: #117733; stroke-width: 1.5; stroke-linecap: round"/>
    </g>
    <g id="text_37">
     <!-- E Off -->
     <g style="fill: #262626" transform="translate(444.412416 95.736094) scale(0.11 -0.11)">
      <use xlink:href="#DejaVuSans-45"/>
      <use xlink:href="#DejaVuSans-20" x="63.183594"/>
      <use xlink:href="#DejaVuSans-4f" x="94.970703"/>
      <use xlink:href="#DejaVuSans-66" x="173.681641"/>
      <use xlink:href="#DejaVuSans-66" x="208.886719"/>
     </g>
    </g>
    <g id="line2d_46">
     <path d="M 413.612416 108.032031 
L 424.612416 108.032031 
L 435.612416 108.032031 
" style="fill: none; stroke: #88ccee; stroke-width: 1.5; stroke-linecap: round"/>
    </g>
    <g id="text_38">
     <!-- D Off -->
     <g style="fill: #262626" transform="translate(444.412416 111.882031) scale(0.11 -0.11)">
      <use xlink:href="#DejaVuSans-44"/>
      <use xlink:href="#DejaVuSans-20" x="77.001953"/>
      <use xlink:href="#DejaVuSans-4f" x="108.789062"/>
      <use xlink:href="#DejaVuSans-66" x="187.5"/>
      <use xlink:href="#DejaVuSans-66" x="222.705078"/>
     </g>
    </g>
    <g id="line2d_47">
     <path d="M 413.612416 124.177969 
L 424.612416 124.177969 
L 435.612416 124.177969 
" style="fill: none; stroke: #cc6677; stroke-width: 1.5; stroke-linecap: round"/>
    </g>
    <g id="text_39">
     <!-- S Off -->
     <g style="fill: #262626" transform="translate(444.412416 128.027969) scale(0.11 -0.11)">
      <use xlink:href="#DejaVuSans-53"/>
      <use xlink:href="#DejaVuSans-20" x="63.476562"/>
      <use xlink:href="#DejaVuSans-4f" x="95.263672"/>
      <use xlink:href="#DejaVuSans-66" x="173.974609"/>
      <use xlink:href="#DejaVuSans-66" x="209.179688"/>
     </g>
    </g>
   </g>
  </g>
 </g>
 <defs>
  <clipPath id="pd6b0a171d4">
   <rect x="39.92" y="29.04" width="204.320896" height="204.24"/>
  </clipPath>
  <clipPath id="pfaf01c357d">
   <rect x="284.070896" y="29.04" width="204.320896" height="204.24"/>
  </clipPath>
 </defs>
</svg>
