<?xml version="1.0" encoding="utf-8" standalone="no"?>
<!DOCTYPE svg PUBLIC "-//W3C//DTD SVG 1.1//EN"
  "http://www.w3.org/Graphics/SVG/1.1/DTD/svg11.dtd">
<svg xmlns:xlink="http://www.w3.org/1999/xlink" width="504pt" height="283.5pt" viewBox="0 0 504 283.5" xmlns="http://www.w3.org/2000/svg" version="1.1">
 <metadata>
  <rdf:RDF xmlns:dc="http://purl.org/dc/elements/1.1/" xmlns:cc="http://creativecommons.org/ns#" xmlns:rdf="http://www.w3.org/1999/02/22-rdf-syntax-ns#">
   <cc:Work>
    <dc:type rdf:resource="http://purl.org/dc/dcmitype/StillImage"/>
    <dc:date>2023-03-28T11:59:13.519240</dc:date>
    <dc:format>image/svg+xml</dc:format>
    <dc:creator>
     <cc:Agent>
      <dc:title>Matplotlib v3.7.1, https://matplotlib.org/</dc:title>
     </cc:Agent>
    </dc:creator>
   </cc:Work>
  </rdf:RDF>
 </metadata>
 <defs>
  <style type="text/css">*{stroke-linejoin: round; stroke-linecap: butt}</style>
 </defs>
 <g id="figure_1">
  <g id="patch_1">
   <path d="M 0 283.5 
L 504 283.5 
L 504 0 
L 0 0 
z
" style="fill: #ffffff"/>
  </g>
  <g id="axes_1">
   <g id="patch_2">
    <path d="M 49.01 62.313826 
L 231.66 62.313826 
L 231.66 14.361618 
L 49.01 14.361618 
z
" style="fill: #eaeaf2"/>
   </g>
   <g id="matplotlib.axis_1">
    <g id="xtick_1">
     <g id="line2d_1">
      <path d="M 49.01 62.313826 
L 49.01 14.361618 
" clip-path="url(#p52e312bfd4)" style="fill: none; stroke: #ffffff; stroke-linecap: round"/>
     </g>
     <g id="text_1">
      <!-- 1000 -->
      <g style="fill: #262626" transform="translate(35.0125 80.172107) scale(0.11 -0.11)">
       <defs>
        <path id="DejaVuSans-31" d="M 794 531 
L 1825 531 
L 1825 4091 
L 703 3866 
L 703 4441 
L 1819 4666 
L 2450 4666 
L 2450 531 
L 3481 531 
L 3481 0 
L 794 0 
L 794 531 
z
" transform="scale(0.015625)"/>
        <path id="DejaVuSans-30" d="M 2034 4250 
Q 1547 4250 1301 3770 
Q 1056 3291 1056 2328 
Q 1056 1369 1301 889 
Q 1547 409 2034 409 
Q 2525 409 2770 889 
Q 3016 1369 3016 2328 
Q 3016 3291 2770 3770 
Q 2525 4250 2034 4250 
z
M 2034 4750 
Q 2819 4750 3233 4129 
Q 3647 3509 3647 2328 
Q 3647 1150 3233 529 
Q 2819 -91 2034 -91 
Q 1250 -91 836 529 
Q 422 1150 422 2328 
Q 422 3509 836 4129 
Q 1250 4750 2034 4750 
z
" transform="scale(0.015625)"/>
       </defs>
       <use xlink:href="#DejaVuSans-31"/>
       <use xlink:href="#DejaVuSans-30" x="63.623047"/>
       <use xlink:href="#DejaVuSans-30" x="127.246094"/>
       <use xlink:href="#DejaVuSans-30" x="190.869141"/>
      </g>
     </g>
    </g>
    <g id="xtick_2">
     <g id="line2d_2">
      <path d="M 85.54 62.313826 
L 85.54 14.361618 
" clip-path="url(#p52e312bfd4)" style="fill: none; stroke: #ffffff; stroke-linecap: round"/>
     </g>
     <g id="text_2">
      <!-- 1100 -->
      <g style="fill: #262626" transform="translate(71.5425 80.172107) scale(0.11 -0.11)">
       <use xlink:href="#DejaVuSans-31"/>
       <use xlink:href="#DejaVuSans-31" x="63.623047"/>
       <use xlink:href="#DejaVuSans-30" x="127.246094"/>
       <use xlink:href="#DejaVuSans-30" x="190.869141"/>
      </g>
     </g>
    </g>
    <g id="xtick_3">
     <g id="line2d_3">
      <path d="M 122.07 62.313826 
L 122.07 14.361618 
" clip-path="url(#p52e312bfd4)" style="fill: none; stroke: #ffffff; stroke-linecap: round"/>
     </g>
     <g id="text_3">
      <!-- 1200 -->
      <g style="fill: #262626" transform="translate(108.0725 80.172107) scale(0.11 -0.11)">
       <defs>
        <path id="DejaVuSans-32" d="M 1228 531 
L 3431 531 
L 3431 0 
L 469 0 
L 469 531 
Q 828 903 1448 1529 
Q 2069 2156 2228 2338 
Q 2531 2678 2651 2914 
Q 2772 3150 2772 3378 
Q 2772 3750 2511 3984 
Q 2250 4219 1831 4219 
Q 1534 4219 1204 4116 
Q 875 4013 500 3803 
L 500 4441 
Q 881 4594 1212 4672 
Q 1544 4750 1819 4750 
Q 2544 4750 2975 4387 
Q 3406 4025 3406 3419 
Q 3406 3131 3298 2873 
Q 3191 2616 2906 2266 
Q 2828 2175 2409 1742 
Q 1991 1309 1228 531 
z
" transform="scale(0.015625)"/>
       </defs>
       <use xlink:href="#DejaVuSans-31"/>
       <use xlink:href="#DejaVuSans-32" x="63.623047"/>
       <use xlink:href="#DejaVuSans-30" x="127.246094"/>
       <use xlink:href="#DejaVuSans-30" x="190.869141"/>
      </g>
     </g>
    </g>
    <g id="xtick_4">
     <g id="line2d_4">
      <path d="M 158.6 62.313826 
L 158.6 14.361618 
" clip-path="url(#p52e312bfd4)" style="fill: none; stroke: #ffffff; stroke-linecap: round"/>
     </g>
     <g id="text_4">
      <!-- 1300 -->
      <g style="fill: #262626" transform="translate(144.6025 80.172107) scale(0.11 -0.11)">
       <defs>
        <path id="DejaVuSans-33" d="M 2597 2516 
Q 3050 2419 3304 2112 
Q 3559 1806 3559 1356 
Q 3559 666 3084 287 
Q 2609 -91 1734 -91 
Q 1441 -91 1130 -33 
Q 819 25 488 141 
L 488 750 
Q 750 597 1062 519 
Q 1375 441 1716 441 
Q 2309 441 2620 675 
Q 2931 909 2931 1356 
Q 2931 1769 2642 2001 
Q 2353 2234 1838 2234 
L 1294 2234 
L 1294 2753 
L 1863 2753 
Q 2328 2753 2575 2939 
Q 2822 3125 2822 3475 
Q 2822 3834 2567 4026 
Q 2313 4219 1838 4219 
Q 1578 4219 1281 4162 
Q 984 4106 628 3988 
L 628 4550 
Q 988 4650 1302 4700 
Q 1616 4750 1894 4750 
Q 2613 4750 3031 4423 
Q 3450 4097 3450 3541 
Q 3450 3153 3228 2886 
Q 3006 2619 2597 2516 
z
" transform="scale(0.015625)"/>
       </defs>
       <use xlink:href="#DejaVuSans-31"/>
       <use xlink:href="#DejaVuSans-33" x="63.623047"/>
       <use xlink:href="#DejaVuSans-30" x="127.246094"/>
       <use xlink:href="#DejaVuSans-30" x="190.869141"/>
      </g>
     </g>
    </g>
    <g id="xtick_5">
     <g id="line2d_5">
      <path d="M 195.13 62.313826 
L 195.13 14.361618 
" clip-path="url(#p52e312bfd4)" style="fill: none; stroke: #ffffff; stroke-linecap: round"/>
     </g>
     <g id="text_5">
      <!-- 1400 -->
      <g style="fill: #262626" transform="translate(181.1325 80.172107) scale(0.11 -0.11)">
       <defs>
        <path id="DejaVuSans-34" d="M 2419 4116 
L 825 1625 
L 2419 1625 
L 2419 4116 
z
M 2253 4666 
L 3047 4666 
L 3047 1625 
L 3713 1625 
L 3713 1100 
L 3047 1100 
L 3047 0 
L 2419 0 
L 2419 1100 
L 313 1100 
L 313 1709 
L 2253 4666 
z
" transform="scale(0.015625)"/>
       </defs>
       <use xlink:href="#DejaVuSans-31"/>
       <use xlink:href="#DejaVuSans-34" x="63.623047"/>
       <use xlink:href="#DejaVuSans-30" x="127.246094"/>
       <use xlink:href="#DejaVuSans-30" x="190.869141"/>
      </g>
     </g>
    </g>
    <g id="xtick_6">
     <g id="line2d_6">
      <path d="M 231.66 62.313826 
L 231.66 14.361618 
" clip-path="url(#p52e312bfd4)" style="fill: none; stroke: #ffffff; stroke-linecap: round"/>
     </g>
     <g id="text_6">
      <!-- 1500 -->
      <g style="fill: #262626" transform="translate(217.6625 80.172107) scale(0.11 -0.11)">
       <defs>
        <path id="DejaVuSans-35" d="M 691 4666 
L 3169 4666 
L 3169 4134 
L 1269 4134 
L 1269 2991 
Q 1406 3038 1543 3061 
Q 1681 3084 1819 3084 
Q 2600 3084 3056 2656 
Q 3513 2228 3513 1497 
Q 3513 744 3044 326 
Q 2575 -91 1722 -91 
Q 1428 -91 1123 -41 
Q 819 9 494 109 
L 494 744 
Q 775 591 1075 516 
Q 1375 441 1709 441 
Q 2250 441 2565 725 
Q 2881 1009 2881 1497 
Q 2881 1984 2565 2268 
Q 2250 2553 1709 2553 
Q 1456 2553 1204 2497 
Q 953 2441 691 2322 
L 691 4666 
z
" transform="scale(0.015625)"/>
       </defs>
       <use xlink:href="#DejaVuSans-31"/>
       <use xlink:href="#DejaVuSans-35" x="63.623047"/>
       <use xlink:href="#DejaVuSans-30" x="127.246094"/>
       <use xlink:href="#DejaVuSans-30" x="190.869141"/>
      </g>
     </g>
    </g>
   </g>
   <g id="matplotlib.axis_2">
    <g id="ytick_1">
     <g id="line2d_7">
      <path d="M 49.01 60.13418 
L 231.66 60.13418 
" clip-path="url(#p52e312bfd4)" style="fill: none; stroke: #ffffff; stroke-linecap: round"/>
     </g>
     <g id="text_7">
      <!-- 0 -->
      <g style="fill: #262626" transform="translate(32.51125 64.313321) scale(0.11 -0.11)">
       <use xlink:href="#DejaVuSans-30"/>
      </g>
     </g>
    </g>
    <g id="ytick_2">
     <g id="line2d_8">
      <path d="M 49.01 16.541263 
L 231.66 16.541263 
" clip-path="url(#p52e312bfd4)" style="fill: none; stroke: #ffffff; stroke-linecap: round"/>
     </g>
     <g id="text_8">
      <!-- 1 -->
      <g style="fill: #262626" transform="translate(32.51125 20.720404) scale(0.11 -0.11)">
       <use xlink:href="#DejaVuSans-31"/>
      </g>
     </g>
    </g>
   </g>
   <g id="line2d_9">
    <path d="M 48.982605 60.13418 
L 109.696984 60.13418 
L 109.843108 16.541263 
L 231.673705 16.541263 
L 231.673705 16.541263 
" clip-path="url(#p52e312bfd4)" style="fill: none; stroke: #0173b2; stroke-width: 1.5; stroke-linecap: round"/>
   </g>
   <g id="patch_3">
    <path d="M 49.01 62.313826 
L 49.01 14.361618 
" style="fill: none; stroke: #ffffff; stroke-width: 1.25; stroke-linejoin: miter; stroke-linecap: square"/>
   </g>
   <g id="patch_4">
    <path d="M 231.66 62.313826 
L 231.66 14.361618 
" style="fill: none; stroke: #ffffff; stroke-width: 1.25; stroke-linejoin: miter; stroke-linecap: square"/>
   </g>
   <g id="patch_5">
    <path d="M 49.01 62.313826 
L 231.66 62.313826 
" style="fill: none; stroke: #ffffff; stroke-width: 1.25; stroke-linejoin: miter; stroke-linecap: square"/>
   </g>
   <g id="patch_6">
    <path d="M 49.01 14.361618 
L 231.66 14.361618 
" style="fill: none; stroke: #ffffff; stroke-width: 1.25; stroke-linejoin: miter; stroke-linecap: square"/>
   </g>
   <g id="legend_1">
    <g id="patch_7">
     <path d="M 104.6375 39.307555 
L 223.96 39.307555 
Q 226.16 39.307555 226.16 37.107555 
L 226.16 22.061618 
Q 226.16 19.861618 223.96 19.861618 
L 104.6375 19.861618 
Q 102.4375 19.861618 102.4375 22.061618 
L 102.4375 37.107555 
Q 102.4375 39.307555 104.6375 39.307555 
z
" style="fill: #eaeaf2; opacity: 0.8; stroke: #cccccc; stroke-linejoin: miter"/>
    </g>
    <g id="line2d_10">
     <path d="M 106.8375 28.769899 
L 117.8375 28.769899 
L 128.8375 28.769899 
" style="fill: none; stroke: #0173b2; stroke-width: 1.5; stroke-linecap: round"/>
    </g>
    <g id="text_9">
     <!-- Visual Stimulus -->
     <g style="fill: #262626" transform="translate(137.6375 32.619899) scale(0.11 -0.11)">
      <defs>
       <path id="DejaVuSans-56" d="M 1831 0 
L 50 4666 
L 709 4666 
L 2188 738 
L 3669 4666 
L 4325 4666 
L 2547 0 
L 1831 0 
z
" transform="scale(0.015625)"/>
       <path id="DejaVuSans-69" d="M 603 3500 
L 1178 3500 
L 1178 0 
L 603 0 
L 603 3500 
z
M 603 4863 
L 1178 4863 
L 1178 4134 
L 603 4134 
L 603 4863 
z
" transform="scale(0.015625)"/>
       <path id="DejaVuSans-73" d="M 2834 3397 
L 2834 2853 
Q 2591 2978 2328 3040 
Q 2066 3103 1784 3103 
Q 1356 3103 1142 2972 
Q 928 2841 928 2578 
Q 928 2378 1081 2264 
Q 1234 2150 1697 2047 
L 1894 2003 
Q 2506 1872 2764 1633 
Q 3022 1394 3022 966 
Q 3022 478 2636 193 
Q 2250 -91 1575 -91 
Q 1294 -91 989 -36 
Q 684 19 347 128 
L 347 722 
Q 666 556 975 473 
Q 1284 391 1588 391 
Q 1994 391 2212 530 
Q 2431 669 2431 922 
Q 2431 1156 2273 1281 
Q 2116 1406 1581 1522 
L 1381 1569 
Q 847 1681 609 1914 
Q 372 2147 372 2553 
Q 372 3047 722 3315 
Q 1072 3584 1716 3584 
Q 2034 3584 2315 3537 
Q 2597 3491 2834 3397 
z
" transform="scale(0.015625)"/>
       <path id="DejaVuSans-75" d="M 544 1381 
L 544 3500 
L 1119 3500 
L 1119 1403 
Q 1119 906 1312 657 
Q 1506 409 1894 409 
Q 2359 409 2629 706 
Q 2900 1003 2900 1516 
L 2900 3500 
L 3475 3500 
L 3475 0 
L 2900 0 
L 2900 538 
Q 2691 219 2414 64 
Q 2138 -91 1772 -91 
Q 1169 -91 856 284 
Q 544 659 544 1381 
z
M 1991 3584 
L 1991 3584 
z
" transform="scale(0.015625)"/>
       <path id="DejaVuSans-61" d="M 2194 1759 
Q 1497 1759 1228 1600 
Q 959 1441 959 1056 
Q 959 750 1161 570 
Q 1363 391 1709 391 
Q 2188 391 2477 730 
Q 2766 1069 2766 1631 
L 2766 1759 
L 2194 1759 
z
M 3341 1997 
L 3341 0 
L 2766 0 
L 2766 531 
Q 2569 213 2275 61 
Q 1981 -91 1556 -91 
Q 1019 -91 701 211 
Q 384 513 384 1019 
Q 384 1609 779 1909 
Q 1175 2209 1959 2209 
L 2766 2209 
L 2766 2266 
Q 2766 2663 2505 2880 
Q 2244 3097 1772 3097 
Q 1472 3097 1187 3025 
Q 903 2953 641 2809 
L 641 3341 
Q 956 3463 1253 3523 
Q 1550 3584 1831 3584 
Q 2591 3584 2966 3190 
Q 3341 2797 3341 1997 
z
" transform="scale(0.015625)"/>
       <path id="DejaVuSans-6c" d="M 603 4863 
L 1178 4863 
L 1178 0 
L 603 0 
L 603 4863 
z
" transform="scale(0.015625)"/>
       <path id="DejaVuSans-20" transform="scale(0.015625)"/>
       <path id="DejaVuSans-53" d="M 3425 4513 
L 3425 3897 
Q 3066 4069 2747 4153 
Q 2428 4238 2131 4238 
Q 1616 4238 1336 4038 
Q 1056 3838 1056 3469 
Q 1056 3159 1242 3001 
Q 1428 2844 1947 2747 
L 2328 2669 
Q 3034 2534 3370 2195 
Q 3706 1856 3706 1288 
Q 3706 609 3251 259 
Q 2797 -91 1919 -91 
Q 1588 -91 1214 -16 
Q 841 59 441 206 
L 441 856 
Q 825 641 1194 531 
Q 1563 422 1919 422 
Q 2459 422 2753 634 
Q 3047 847 3047 1241 
Q 3047 1584 2836 1778 
Q 2625 1972 2144 2069 
L 1759 2144 
Q 1053 2284 737 2584 
Q 422 2884 422 3419 
Q 422 4038 858 4394 
Q 1294 4750 2059 4750 
Q 2388 4750 2728 4690 
Q 3069 4631 3425 4513 
z
" transform="scale(0.015625)"/>
       <path id="DejaVuSans-74" d="M 1172 4494 
L 1172 3500 
L 2356 3500 
L 2356 3053 
L 1172 3053 
L 1172 1153 
Q 1172 725 1289 603 
Q 1406 481 1766 481 
L 2356 481 
L 2356 0 
L 1766 0 
Q 1100 0 847 248 
Q 594 497 594 1153 
L 594 3053 
L 172 3053 
L 172 3500 
L 594 3500 
L 594 4494 
L 1172 4494 
z
" transform="scale(0.015625)"/>
       <path id="DejaVuSans-6d" d="M 3328 2828 
Q 3544 3216 3844 3400 
Q 4144 3584 4550 3584 
Q 5097 3584 5394 3201 
Q 5691 2819 5691 2113 
L 5691 0 
L 5113 0 
L 5113 2094 
Q 5113 2597 4934 2840 
Q 4756 3084 4391 3084 
Q 3944 3084 3684 2787 
Q 3425 2491 3425 1978 
L 3425 0 
L 2847 0 
L 2847 2094 
Q 2847 2600 2669 2842 
Q 2491 3084 2119 3084 
Q 1678 3084 1418 2786 
Q 1159 2488 1159 1978 
L 1159 0 
L 581 0 
L 581 3500 
L 1159 3500 
L 1159 2956 
Q 1356 3278 1631 3431 
Q 1906 3584 2284 3584 
Q 2666 3584 2933 3390 
Q 3200 3197 3328 2828 
z
" transform="scale(0.015625)"/>
      </defs>
      <use xlink:href="#DejaVuSans-56"/>
      <use xlink:href="#DejaVuSans-69" x="66.158203"/>
      <use xlink:href="#DejaVuSans-73" x="93.941406"/>
      <use xlink:href="#DejaVuSans-75" x="146.041016"/>
      <use xlink:href="#DejaVuSans-61" x="209.419922"/>
      <use xlink:href="#DejaVuSans-6c" x="270.699219"/>
      <use xlink:href="#DejaVuSans-20" x="298.482422"/>
      <use xlink:href="#DejaVuSans-53" x="330.269531"/>
      <use xlink:href="#DejaVuSans-74" x="393.746094"/>
      <use xlink:href="#DejaVuSans-69" x="432.955078"/>
      <use xlink:href="#DejaVuSans-6d" x="460.738281"/>
      <use xlink:href="#DejaVuSans-75" x="558.150391"/>
      <use xlink:href="#DejaVuSans-6c" x="621.529297"/>
      <use xlink:href="#DejaVuSans-75" x="649.3125"/>
      <use xlink:href="#DejaVuSans-73" x="712.691406"/>
     </g>
    </g>
   </g>
  </g>
  <g id="axes_2">
   <g id="patch_8">
    <path d="M 49.01 147.796913 
L 231.66 147.796913 
L 231.66 99.844705 
L 49.01 99.844705 
z
" style="fill: #eaeaf2"/>
   </g>
   <g id="matplotlib.axis_3">
    <g id="xtick_7">
     <g id="line2d_11">
      <path d="M 49.01 147.796913 
L 49.01 99.844705 
" clip-path="url(#pe0b70c8f09)" style="fill: none; stroke: #ffffff; stroke-linecap: round"/>
     </g>
     <g id="text_10">
      <!-- 1000 -->
      <g style="fill: #262626" transform="translate(35.0125 165.655194) scale(0.11 -0.11)">
       <use xlink:href="#DejaVuSans-31"/>
       <use xlink:href="#DejaVuSans-30" x="63.623047"/>
       <use xlink:href="#DejaVuSans-30" x="127.246094"/>
       <use xlink:href="#DejaVuSans-30" x="190.869141"/>
      </g>
     </g>
    </g>
    <g id="xtick_8">
     <g id="line2d_12">
      <path d="M 85.54 147.796913 
L 85.54 99.844705 
" clip-path="url(#pe0b70c8f09)" style="fill: none; stroke: #ffffff; stroke-linecap: round"/>
     </g>
     <g id="text_11">
      <!-- 1100 -->
      <g style="fill: #262626" transform="translate(71.5425 165.655194) scale(0.11 -0.11)">
       <use xlink:href="#DejaVuSans-31"/>
       <use xlink:href="#DejaVuSans-31" x="63.623047"/>
       <use xlink:href="#DejaVuSans-30" x="127.246094"/>
       <use xlink:href="#DejaVuSans-30" x="190.869141"/>
      </g>
     </g>
    </g>
    <g id="xtick_9">
     <g id="line2d_13">
      <path d="M 122.07 147.796913 
L 122.07 99.844705 
" clip-path="url(#pe0b70c8f09)" style="fill: none; stroke: #ffffff; stroke-linecap: round"/>
     </g>
     <g id="text_12">
      <!-- 1200 -->
      <g style="fill: #262626" transform="translate(108.0725 165.655194) scale(0.11 -0.11)">
       <use xlink:href="#DejaVuSans-31"/>
       <use xlink:href="#DejaVuSans-32" x="63.623047"/>
       <use xlink:href="#DejaVuSans-30" x="127.246094"/>
       <use xlink:href="#DejaVuSans-30" x="190.869141"/>
      </g>
     </g>
    </g>
    <g id="xtick_10">
     <g id="line2d_14">
      <path d="M 158.6 147.796913 
L 158.6 99.844705 
" clip-path="url(#pe0b70c8f09)" style="fill: none; stroke: #ffffff; stroke-linecap: round"/>
     </g>
     <g id="text_13">
      <!-- 1300 -->
      <g style="fill: #262626" transform="translate(144.6025 165.655194) scale(0.11 -0.11)">
       <use xlink:href="#DejaVuSans-31"/>
       <use xlink:href="#DejaVuSans-33" x="63.623047"/>
       <use xlink:href="#DejaVuSans-30" x="127.246094"/>
       <use xlink:href="#DejaVuSans-30" x="190.869141"/>
      </g>
     </g>
    </g>
    <g id="xtick_11">
     <g id="line2d_15">
      <path d="M 195.13 147.796913 
L 195.13 99.844705 
" clip-path="url(#pe0b70c8f09)" style="fill: none; stroke: #ffffff; stroke-linecap: round"/>
     </g>
     <g id="text_14">
      <!-- 1400 -->
      <g style="fill: #262626" transform="translate(181.1325 165.655194) scale(0.11 -0.11)">
       <use xlink:href="#DejaVuSans-31"/>
       <use xlink:href="#DejaVuSans-34" x="63.623047"/>
       <use xlink:href="#DejaVuSans-30" x="127.246094"/>
       <use xlink:href="#DejaVuSans-30" x="190.869141"/>
      </g>
     </g>
    </g>
    <g id="xtick_12">
     <g id="line2d_16">
      <path d="M 231.66 147.796913 
L 231.66 99.844705 
" clip-path="url(#pe0b70c8f09)" style="fill: none; stroke: #ffffff; stroke-linecap: round"/>
     </g>
     <g id="text_15">
      <!-- 1500 -->
      <g style="fill: #262626" transform="translate(217.6625 165.655194) scale(0.11 -0.11)">
       <use xlink:href="#DejaVuSans-31"/>
       <use xlink:href="#DejaVuSans-35" x="63.623047"/>
       <use xlink:href="#DejaVuSans-30" x="127.246094"/>
       <use xlink:href="#DejaVuSans-30" x="190.869141"/>
      </g>
     </g>
    </g>
   </g>
   <g id="matplotlib.axis_4">
    <g id="ytick_3">
     <g id="line2d_17">
      <path d="M 49.01 145.617267 
L 231.66 145.617267 
" clip-path="url(#pe0b70c8f09)" style="fill: none; stroke: #ffffff; stroke-linecap: round"/>
     </g>
     <g id="text_16">
      <!-- 0 -->
      <g style="fill: #262626" transform="translate(32.51125 149.796408) scale(0.11 -0.11)">
       <use xlink:href="#DejaVuSans-30"/>
      </g>
     </g>
    </g>
    <g id="ytick_4">
     <g id="line2d_18">
      <path d="M 49.01 102.306993 
L 231.66 102.306993 
" clip-path="url(#pe0b70c8f09)" style="fill: none; stroke: #ffffff; stroke-linecap: round"/>
     </g>
     <g id="text_17">
      <!-- 1 -->
      <g style="fill: #262626" transform="translate(32.51125 106.486134) scale(0.11 -0.11)">
       <use xlink:href="#DejaVuSans-31"/>
      </g>
     </g>
    </g>
   </g>
   <g id="line2d_19">
    <path d="M 48.982605 102.394204 
L 49.347915 102.519589 
L 49.895878 103.001562 
L 52.416511 105.803809 
L 55.777355 109.304864 
L 59.211261 112.564261 
L 62.75476 115.621276 
L 66.37132 118.44997 
L 70.134004 121.110174 
L 74.006281 123.576145 
L 78.061213 125.89291 
L 82.262268 128.036659 
L 86.682508 130.041192 
L 91.321934 131.899761 
L 96.217077 133.620872 
L 101.440997 135.220083 
L 107.030227 136.69582 
L 113.021297 138.045879 
L 119.5238 139.281012 
L 126.647328 140.404088 
L 134.501474 141.413073 
L 143.268894 142.310528 
L 153.205302 143.098354 
L 164.639478 143.775598 
L 178.119385 144.344122 
L 194.521765 144.804842 
L 215.453979 145.159323 
L 231.673705 145.308647 
L 231.673705 145.308647 
" clip-path="url(#pe0b70c8f09)" style="fill: none; stroke: #117733; stroke-width: 1.5; stroke-linecap: round"/>
   </g>
   <g id="line2d_20">
    <path d="M 48.982605 145.617265 
L 109.9527 145.552477 
L 110.062293 145.077496 
L 110.208417 142.984007 
L 110.427602 135.774771 
L 111.267813 103.703189 
L 111.486999 102.045328 
L 111.560061 102.065216 
L 111.706184 102.763688 
L 111.998431 105.94139 
L 113.605792 126.593453 
L 114.263348 131.440885 
L 114.957436 135.017197 
L 115.688054 137.682079 
L 116.455203 139.685921 
L 117.258883 141.20019 
L 118.135625 142.387728 
L 119.085429 143.30056 
L 120.144825 144.008207 
L 121.386876 144.561997 
L 122.884644 144.979542 
L 124.857313 145.287115 
L 127.743255 145.490609 
L 132.857583 145.593956 
L 150.355891 145.617187 
L 231.673705 145.617187 
L 231.673705 145.617187 
" clip-path="url(#pe0b70c8f09)" style="fill: none; stroke: #88ccee; stroke-width: 1.5; stroke-linecap: round"/>
   </g>
   <g id="line2d_21">
    <path d="M 48.982605 145.617264 
L 170.922795 145.550016 
L 171.032388 145.233436 
L 171.178512 143.905713 
L 171.397697 138.870245 
L 171.836068 120.668186 
L 172.274439 106.306145 
L 172.566686 102.575337 
L 172.749341 102.104289 
L 172.858934 102.366135 
L 173.078119 103.773571 
L 173.51649 108.5486 
L 174.795072 123.065066 
L 175.562221 129.005522 
L 176.32937 133.241256 
L 177.09652 136.303566 
L 177.9002 138.64591 
L 178.740411 140.433916 
L 179.617153 141.793168 
L 180.566956 142.854906 
L 181.589822 143.664335 
L 182.758811 144.29925 
L 184.146986 144.788626 
L 185.863939 145.149288 
L 188.238448 145.404355 
L 191.964601 145.555228 
L 200.257119 145.613282 
L 231.673705 145.617162 
L 231.673705 145.617162 
" clip-path="url(#pe0b70c8f09)" style="fill: none; stroke: #cc6677; stroke-width: 1.5; stroke-linecap: round"/>
   </g>
   <g id="patch_9">
    <path d="M 49.01 147.796913 
L 49.01 99.844705 
" style="fill: none; stroke: #ffffff; stroke-width: 1.25; stroke-linejoin: miter; stroke-linecap: square"/>
   </g>
   <g id="patch_10">
    <path d="M 231.66 147.796913 
L 231.66 99.844705 
" style="fill: none; stroke: #ffffff; stroke-width: 1.25; stroke-linejoin: miter; stroke-linecap: square"/>
   </g>
   <g id="patch_11">
    <path d="M 49.01 147.796913 
L 231.66 147.796913 
" style="fill: none; stroke: #ffffff; stroke-width: 1.25; stroke-linejoin: miter; stroke-linecap: square"/>
   </g>
   <g id="patch_12">
    <path d="M 49.01 99.844705 
L 231.66 99.844705 
" style="fill: none; stroke: #ffffff; stroke-width: 1.25; stroke-linejoin: miter; stroke-linecap: square"/>
   </g>
   <g id="legend_2">
    <g id="patch_13">
     <path d="M 161.16375 142.296913 
L 223.96 142.296913 
Q 226.16 142.296913 226.16 140.096913 
L 226.16 92.7591 
Q 226.16 90.5591 223.96 90.5591 
L 161.16375 90.5591 
Q 158.96375 90.5591 158.96375 92.7591 
L 158.96375 140.096913 
Q 158.96375 142.296913 161.16375 142.296913 
z
" style="fill: #eaeaf2; opacity: 0.8; stroke: #cccccc; stroke-linejoin: miter"/>
    </g>
    <g id="line2d_22">
     <path d="M 163.36375 99.467382 
L 174.36375 99.467382 
L 185.36375 99.467382 
" style="fill: none; stroke: #117733; stroke-width: 1.5; stroke-linecap: round"/>
    </g>
    <g id="text_18">
     <!-- E On -->
     <g style="fill: #262626" transform="translate(194.16375 103.317382) scale(0.11 -0.11)">
      <defs>
       <path id="DejaVuSans-45" d="M 628 4666 
L 3578 4666 
L 3578 4134 
L 1259 4134 
L 1259 2753 
L 3481 2753 
L 3481 2222 
L 1259 2222 
L 1259 531 
L 3634 531 
L 3634 0 
L 628 0 
L 628 4666 
z
" transform="scale(0.015625)"/>
       <path id="DejaVuSans-4f" d="M 2522 4238 
Q 1834 4238 1429 3725 
Q 1025 3213 1025 2328 
Q 1025 1447 1429 934 
Q 1834 422 2522 422 
Q 3209 422 3611 934 
Q 4013 1447 4013 2328 
Q 4013 3213 3611 3725 
Q 3209 4238 2522 4238 
z
M 2522 4750 
Q 3503 4750 4090 4092 
Q 4678 3434 4678 2328 
Q 4678 1225 4090 567 
Q 3503 -91 2522 -91 
Q 1538 -91 948 565 
Q 359 1222 359 2328 
Q 359 3434 948 4092 
Q 1538 4750 2522 4750 
z
" transform="scale(0.015625)"/>
       <path id="DejaVuSans-6e" d="M 3513 2113 
L 3513 0 
L 2938 0 
L 2938 2094 
Q 2938 2591 2744 2837 
Q 2550 3084 2163 3084 
Q 1697 3084 1428 2787 
Q 1159 2491 1159 1978 
L 1159 0 
L 581 0 
L 581 3500 
L 1159 3500 
L 1159 2956 
Q 1366 3272 1645 3428 
Q 1925 3584 2291 3584 
Q 2894 3584 3203 3211 
Q 3513 2838 3513 2113 
z
" transform="scale(0.015625)"/>
      </defs>
      <use xlink:href="#DejaVuSans-45"/>
      <use xlink:href="#DejaVuSans-20" x="63.183594"/>
      <use xlink:href="#DejaVuSans-4f" x="94.970703"/>
      <use xlink:href="#DejaVuSans-6e" x="173.681641"/>
     </g>
    </g>
    <g id="line2d_23">
     <path d="M 163.36375 115.613319 
L 174.36375 115.613319 
L 185.36375 115.613319 
" style="fill: none; stroke: #88ccee; stroke-width: 1.5; stroke-linecap: round"/>
    </g>
    <g id="text_19">
     <!-- D On -->
     <g style="fill: #262626" transform="translate(194.16375 119.463319) scale(0.11 -0.11)">
      <defs>
       <path id="DejaVuSans-44" d="M 1259 4147 
L 1259 519 
L 2022 519 
Q 2988 519 3436 956 
Q 3884 1394 3884 2338 
Q 3884 3275 3436 3711 
Q 2988 4147 2022 4147 
L 1259 4147 
z
M 628 4666 
L 1925 4666 
Q 3281 4666 3915 4102 
Q 4550 3538 4550 2338 
Q 4550 1131 3912 565 
Q 3275 0 1925 0 
L 628 0 
L 628 4666 
z
" transform="scale(0.015625)"/>
      </defs>
      <use xlink:href="#DejaVuSans-44"/>
      <use xlink:href="#DejaVuSans-20" x="77.001953"/>
      <use xlink:href="#DejaVuSans-4f" x="108.789062"/>
      <use xlink:href="#DejaVuSans-6e" x="187.5"/>
     </g>
    </g>
    <g id="line2d_24">
     <path d="M 163.36375 131.759257 
L 174.36375 131.759257 
L 185.36375 131.759257 
" style="fill: none; stroke: #cc6677; stroke-width: 1.5; stroke-linecap: round"/>
    </g>
    <g id="text_20">
     <!-- S On -->
     <g style="fill: #262626" transform="translate(194.16375 135.609257) scale(0.11 -0.11)">
      <use xlink:href="#DejaVuSans-53"/>
      <use xlink:href="#DejaVuSans-20" x="63.476562"/>
      <use xlink:href="#DejaVuSans-4f" x="95.263672"/>
      <use xlink:href="#DejaVuSans-6e" x="173.974609"/>
     </g>
    </g>
   </g>
  </g>
  <g id="axes_3">
   <g id="patch_14">
    <path d="M 49.01 233.28 
L 231.66 233.28 
L 231.66 185.327792 
L 49.01 185.327792 
z
" style="fill: #eaeaf2"/>
   </g>
   <g id="matplotlib.axis_5">
    <g id="xtick_13">
     <g id="line2d_25">
      <path d="M 49.01 233.28 
L 49.01 185.327792 
" clip-path="url(#pa1f8048b5a)" style="fill: none; stroke: #ffffff; stroke-linecap: round"/>
     </g>
     <g id="text_21">
      <!-- 1000 -->
      <g style="fill: #262626" transform="translate(35.0125 251.138281) scale(0.11 -0.11)">
       <use xlink:href="#DejaVuSans-31"/>
       <use xlink:href="#DejaVuSans-30" x="63.623047"/>
       <use xlink:href="#DejaVuSans-30" x="127.246094"/>
       <use xlink:href="#DejaVuSans-30" x="190.869141"/>
      </g>
     </g>
    </g>
    <g id="xtick_14">
     <g id="line2d_26">
      <path d="M 85.54 233.28 
L 85.54 185.327792 
" clip-path="url(#pa1f8048b5a)" style="fill: none; stroke: #ffffff; stroke-linecap: round"/>
     </g>
     <g id="text_22">
      <!-- 1100 -->
      <g style="fill: #262626" transform="translate(71.5425 251.138281) scale(0.11 -0.11)">
       <use xlink:href="#DejaVuSans-31"/>
       <use xlink:href="#DejaVuSans-31" x="63.623047"/>
       <use xlink:href="#DejaVuSans-30" x="127.246094"/>
       <use xlink:href="#DejaVuSans-30" x="190.869141"/>
      </g>
     </g>
    </g>
    <g id="xtick_15">
     <g id="line2d_27">
      <path d="M 122.07 233.28 
L 122.07 185.327792 
" clip-path="url(#pa1f8048b5a)" style="fill: none; stroke: #ffffff; stroke-linecap: round"/>
     </g>
     <g id="text_23">
      <!-- 1200 -->
      <g style="fill: #262626" transform="translate(108.0725 251.138281) scale(0.11 -0.11)">
       <use xlink:href="#DejaVuSans-31"/>
       <use xlink:href="#DejaVuSans-32" x="63.623047"/>
       <use xlink:href="#DejaVuSans-30" x="127.246094"/>
       <use xlink:href="#DejaVuSans-30" x="190.869141"/>
      </g>
     </g>
    </g>
    <g id="xtick_16">
     <g id="line2d_28">
      <path d="M 158.6 233.28 
L 158.6 185.327792 
" clip-path="url(#pa1f8048b5a)" style="fill: none; stroke: #ffffff; stroke-linecap: round"/>
     </g>
     <g id="text_24">
      <!-- 1300 -->
      <g style="fill: #262626" transform="translate(144.6025 251.138281) scale(0.11 -0.11)">
       <use xlink:href="#DejaVuSans-31"/>
       <use xlink:href="#DejaVuSans-33" x="63.623047"/>
       <use xlink:href="#DejaVuSans-30" x="127.246094"/>
       <use xlink:href="#DejaVuSans-30" x="190.869141"/>
      </g>
     </g>
    </g>
    <g id="xtick_17">
     <g id="line2d_29">
      <path d="M 195.13 233.28 
L 195.13 185.327792 
" clip-path="url(#pa1f8048b5a)" style="fill: none; stroke: #ffffff; stroke-linecap: round"/>
     </g>
     <g id="text_25">
      <!-- 1400 -->
      <g style="fill: #262626" transform="translate(181.1325 251.138281) scale(0.11 -0.11)">
       <use xlink:href="#DejaVuSans-31"/>
       <use xlink:href="#DejaVuSans-34" x="63.623047"/>
       <use xlink:href="#DejaVuSans-30" x="127.246094"/>
       <use xlink:href="#DejaVuSans-30" x="190.869141"/>
      </g>
     </g>
    </g>
    <g id="xtick_18">
     <g id="line2d_30">
      <path d="M 231.66 233.28 
L 231.66 185.327792 
" clip-path="url(#pa1f8048b5a)" style="fill: none; stroke: #ffffff; stroke-linecap: round"/>
     </g>
     <g id="text_26">
      <!-- 1500 -->
      <g style="fill: #262626" transform="translate(217.6625 251.138281) scale(0.11 -0.11)">
       <use xlink:href="#DejaVuSans-31"/>
       <use xlink:href="#DejaVuSans-35" x="63.623047"/>
       <use xlink:href="#DejaVuSans-30" x="127.246094"/>
       <use xlink:href="#DejaVuSans-30" x="190.869141"/>
      </g>
     </g>
    </g>
    <g id="text_27">
     <!-- t (ms) -->
     <g style="fill: #262626" transform="translate(122.424062 266.544062) scale(0.12 -0.12)">
      <defs>
       <path id="DejaVuSans-28" d="M 1984 4856 
Q 1566 4138 1362 3434 
Q 1159 2731 1159 2009 
Q 1159 1288 1364 580 
Q 1569 -128 1984 -844 
L 1484 -844 
Q 1016 -109 783 600 
Q 550 1309 550 2009 
Q 550 2706 781 3412 
Q 1013 4119 1484 4856 
L 1984 4856 
z
" transform="scale(0.015625)"/>
       <path id="DejaVuSans-29" d="M 513 4856 
L 1013 4856 
Q 1481 4119 1714 3412 
Q 1947 2706 1947 2009 
Q 1947 1309 1714 600 
Q 1481 -109 1013 -844 
L 513 -844 
Q 928 -128 1133 580 
Q 1338 1288 1338 2009 
Q 1338 2731 1133 3434 
Q 928 4138 513 4856 
z
" transform="scale(0.015625)"/>
      </defs>
      <use xlink:href="#DejaVuSans-74"/>
      <use xlink:href="#DejaVuSans-20" x="39.208984"/>
      <use xlink:href="#DejaVuSans-28" x="70.996094"/>
      <use xlink:href="#DejaVuSans-6d" x="110.009766"/>
      <use xlink:href="#DejaVuSans-73" x="207.421875"/>
      <use xlink:href="#DejaVuSans-29" x="259.521484"/>
     </g>
    </g>
   </g>
   <g id="matplotlib.axis_6">
    <g id="ytick_5">
     <g id="line2d_31">
      <path d="M 49.01 228.977617 
L 231.66 228.977617 
" clip-path="url(#pa1f8048b5a)" style="fill: none; stroke: #ffffff; stroke-linecap: round"/>
     </g>
     <g id="text_28">
      <!-- −0.5 -->
      <g style="fill: #262626" transform="translate(12.798906 233.156758) scale(0.11 -0.11)">
       <defs>
        <path id="DejaVuSans-2212" d="M 678 2272 
L 4684 2272 
L 4684 1741 
L 678 1741 
L 678 2272 
z
" transform="scale(0.015625)"/>
        <path id="DejaVuSans-2e" d="M 684 794 
L 1344 794 
L 1344 0 
L 684 0 
L 684 794 
z
" transform="scale(0.015625)"/>
       </defs>
       <use xlink:href="#DejaVuSans-2212"/>
       <use xlink:href="#DejaVuSans-30" x="83.789062"/>
       <use xlink:href="#DejaVuSans-2e" x="147.412109"/>
       <use xlink:href="#DejaVuSans-35" x="179.199219"/>
      </g>
     </g>
    </g>
    <g id="ytick_6">
     <g id="line2d_32">
      <path d="M 49.01 207.171048 
L 231.66 207.171048 
" clip-path="url(#pa1f8048b5a)" style="fill: none; stroke: #ffffff; stroke-linecap: round"/>
     </g>
     <g id="text_29">
      <!-- 0.0 -->
      <g style="fill: #262626" transform="translate(22.016562 211.350189) scale(0.11 -0.11)">
       <use xlink:href="#DejaVuSans-30"/>
       <use xlink:href="#DejaVuSans-2e" x="63.623047"/>
       <use xlink:href="#DejaVuSans-30" x="95.410156"/>
      </g>
     </g>
    </g>
    <g id="ytick_7">
     <g id="line2d_33">
      <path d="M 49.01 185.364479 
L 231.66 185.364479 
" clip-path="url(#pa1f8048b5a)" style="fill: none; stroke: #ffffff; stroke-linecap: round"/>
     </g>
     <g id="text_30">
      <!-- 0.5 -->
      <g style="fill: #262626" transform="translate(22.016562 189.543619) scale(0.11 -0.11)">
       <use xlink:href="#DejaVuSans-30"/>
       <use xlink:href="#DejaVuSans-2e" x="63.623047"/>
       <use xlink:href="#DejaVuSans-35" x="95.410156"/>
      </g>
     </g>
    </g>
   </g>
   <g id="line2d_34">
    <path d="M 48.982605 207.171048 
L 110.062293 207.110298 
L 110.171886 206.849749 
L 110.318009 205.868159 
L 110.537195 202.651615 
L 111.377406 188.379289 
L 111.596591 187.586446 
L 111.742715 187.5321 
L 111.888839 187.850916 
L 112.181086 189.179936 
L 113.93457 198.456985 
L 114.665188 200.686417 
L 115.432337 202.329427 
L 116.272548 203.600716 
L 117.185821 204.574476 
L 118.208687 205.334164 
L 119.377676 205.923028 
L 120.802382 206.385402 
L 122.628927 206.733642 
L 125.186091 206.977013 
L 129.314085 207.118516 
L 139.067839 207.168671 
L 171.10545 207.29672 
L 171.251573 207.771938 
L 171.434228 209.375093 
L 171.726475 214.767614 
L 172.420563 228.461108 
L 172.71281 230.606433 
L 172.968526 231.100354 
L 173.11465 230.988296 
L 173.333835 230.426107 
L 173.772206 228.483073 
L 175.781407 218.647778 
L 176.658149 215.766606 
L 177.534891 213.6155 
L 178.448163 211.950673 
L 179.397967 210.676815 
L 180.384302 209.713442 
L 181.480229 208.950825 
L 182.72228 208.359393 
L 184.220048 207.901243 
L 186.119655 207.564718 
L 188.786412 207.336317 
L 193.206653 207.210148 
L 204.969607 207.171785 
L 231.673705 207.171048 
L 231.673705 207.171048 
" clip-path="url(#pa1f8048b5a)" style="fill: none; stroke: #332288; stroke-width: 1.5; stroke-linecap: round"/>
   </g>
   <g id="patch_15">
    <path d="M 49.01 233.28 
L 49.01 185.327792 
" style="fill: none; stroke: #ffffff; stroke-width: 1.25; stroke-linejoin: miter; stroke-linecap: square"/>
   </g>
   <g id="patch_16">
    <path d="M 231.66 233.28 
L 231.66 185.327792 
" style="fill: none; stroke: #ffffff; stroke-width: 1.25; stroke-linejoin: miter; stroke-linecap: square"/>
   </g>
   <g id="patch_17">
    <path d="M 49.01 233.28 
L 231.66 233.28 
" style="fill: none; stroke: #ffffff; stroke-width: 1.25; stroke-linejoin: miter; stroke-linecap: square"/>
   </g>
   <g id="patch_18">
    <path d="M 49.01 185.327792 
L 231.66 185.327792 
" style="fill: none; stroke: #ffffff; stroke-width: 1.25; stroke-linejoin: miter; stroke-linecap: square"/>
   </g>
   <g id="legend_3">
    <g id="patch_19">
     <path d="M 56.71 227.78 
L 118.583281 227.78 
Q 120.783281 227.78 120.783281 225.58 
L 120.783281 210.534063 
Q 120.783281 208.334062 118.583281 208.334062 
L 56.71 208.334062 
Q 54.51 208.334062 54.51 210.534063 
L 54.51 225.58 
Q 54.51 227.78 56.71 227.78 
z
" style="fill: #eaeaf2; opacity: 0.8; stroke: #cccccc; stroke-linejoin: miter"/>
    </g>
    <g id="line2d_35">
     <path d="M 58.91 217.242344 
L 69.91 217.242344 
L 80.91 217.242344 
" style="fill: none; stroke: #332288; stroke-width: 1.5; stroke-linecap: round"/>
    </g>
    <g id="text_31">
     <!-- On B -->
     <g style="fill: #262626" transform="translate(89.71 221.092344) scale(0.11 -0.11)">
      <defs>
       <path id="DejaVuSans-42" d="M 1259 2228 
L 1259 519 
L 2272 519 
Q 2781 519 3026 730 
Q 3272 941 3272 1375 
Q 3272 1813 3026 2020 
Q 2781 2228 2272 2228 
L 1259 2228 
z
M 1259 4147 
L 1259 2741 
L 2194 2741 
Q 2656 2741 2882 2914 
Q 3109 3088 3109 3444 
Q 3109 3797 2882 3972 
Q 2656 4147 2194 4147 
L 1259 4147 
z
M 628 4666 
L 2241 4666 
Q 2963 4666 3353 4366 
Q 3744 4066 3744 3513 
Q 3744 3084 3544 2831 
Q 3344 2578 2956 2516 
Q 3422 2416 3680 2098 
Q 3938 1781 3938 1306 
Q 3938 681 3513 340 
Q 3088 0 2303 0 
L 628 0 
L 628 4666 
z
" transform="scale(0.015625)"/>
      </defs>
      <use xlink:href="#DejaVuSans-4f"/>
      <use xlink:href="#DejaVuSans-6e" x="78.710938"/>
      <use xlink:href="#DejaVuSans-20" x="142.089844"/>
      <use xlink:href="#DejaVuSans-42" x="173.876953"/>
     </g>
    </g>
   </g>
  </g>
  <g id="axes_4">
   <g id="patch_20">
    <path d="M 294.53 62.313826 
L 477.18 62.313826 
L 477.18 14.361618 
L 294.53 14.361618 
z
" style="fill: #eaeaf2"/>
   </g>
   <g id="matplotlib.axis_7">
    <g id="xtick_19">
     <g id="line2d_36">
      <path d="M 294.53 62.313826 
L 294.53 14.361618 
" clip-path="url(#pc4bcc4510b)" style="fill: none; stroke: #ffffff; stroke-linecap: round"/>
     </g>
     <g id="text_32">
      <!-- 1000 -->
      <g style="fill: #262626" transform="translate(280.5325 80.172107) scale(0.11 -0.11)">
       <use xlink:href="#DejaVuSans-31"/>
       <use xlink:href="#DejaVuSans-30" x="63.623047"/>
       <use xlink:href="#DejaVuSans-30" x="127.246094"/>
       <use xlink:href="#DejaVuSans-30" x="190.869141"/>
      </g>
     </g>
    </g>
    <g id="xtick_20">
     <g id="line2d_37">
      <path d="M 331.06 62.313826 
L 331.06 14.361618 
" clip-path="url(#pc4bcc4510b)" style="fill: none; stroke: #ffffff; stroke-linecap: round"/>
     </g>
     <g id="text_33">
      <!-- 1100 -->
      <g style="fill: #262626" transform="translate(317.0625 80.172107) scale(0.11 -0.11)">
       <use xlink:href="#DejaVuSans-31"/>
       <use xlink:href="#DejaVuSans-31" x="63.623047"/>
       <use xlink:href="#DejaVuSans-30" x="127.246094"/>
       <use xlink:href="#DejaVuSans-30" x="190.869141"/>
      </g>
     </g>
    </g>
    <g id="xtick_21">
     <g id="line2d_38">
      <path d="M 367.59 62.313826 
L 367.59 14.361618 
" clip-path="url(#pc4bcc4510b)" style="fill: none; stroke: #ffffff; stroke-linecap: round"/>
     </g>
     <g id="text_34">
      <!-- 1200 -->
      <g style="fill: #262626" transform="translate(353.5925 80.172107) scale(0.11 -0.11)">
       <use xlink:href="#DejaVuSans-31"/>
       <use xlink:href="#DejaVuSans-32" x="63.623047"/>
       <use xlink:href="#DejaVuSans-30" x="127.246094"/>
       <use xlink:href="#DejaVuSans-30" x="190.869141"/>
      </g>
     </g>
    </g>
    <g id="xtick_22">
     <g id="line2d_39">
      <path d="M 404.12 62.313826 
L 404.12 14.361618 
" clip-path="url(#pc4bcc4510b)" style="fill: none; stroke: #ffffff; stroke-linecap: round"/>
     </g>
     <g id="text_35">
      <!-- 1300 -->
      <g style="fill: #262626" transform="translate(390.1225 80.172107) scale(0.11 -0.11)">
       <use xlink:href="#DejaVuSans-31"/>
       <use xlink:href="#DejaVuSans-33" x="63.623047"/>
       <use xlink:href="#DejaVuSans-30" x="127.246094"/>
       <use xlink:href="#DejaVuSans-30" x="190.869141"/>
      </g>
     </g>
    </g>
    <g id="xtick_23">
     <g id="line2d_40">
      <path d="M 440.65 62.313826 
L 440.65 14.361618 
" clip-path="url(#pc4bcc4510b)" style="fill: none; stroke: #ffffff; stroke-linecap: round"/>
     </g>
     <g id="text_36">
      <!-- 1400 -->
      <g style="fill: #262626" transform="translate(426.6525 80.172107) scale(0.11 -0.11)">
       <use xlink:href="#DejaVuSans-31"/>
       <use xlink:href="#DejaVuSans-34" x="63.623047"/>
       <use xlink:href="#DejaVuSans-30" x="127.246094"/>
       <use xlink:href="#DejaVuSans-30" x="190.869141"/>
      </g>
     </g>
    </g>
    <g id="xtick_24">
     <g id="line2d_41">
      <path d="M 477.18 62.313826 
L 477.18 14.361618 
" clip-path="url(#pc4bcc4510b)" style="fill: none; stroke: #ffffff; stroke-linecap: round"/>
     </g>
     <g id="text_37">
      <!-- 1500 -->
      <g style="fill: #262626" transform="translate(463.1825 80.172107) scale(0.11 -0.11)">
       <use xlink:href="#DejaVuSans-31"/>
       <use xlink:href="#DejaVuSans-35" x="63.623047"/>
       <use xlink:href="#DejaVuSans-30" x="127.246094"/>
       <use xlink:href="#DejaVuSans-30" x="190.869141"/>
      </g>
     </g>
    </g>
   </g>
   <g id="matplotlib.axis_8">
    <g id="ytick_8">
     <g id="line2d_42">
      <path d="M 294.53 60.13418 
L 477.18 60.13418 
" clip-path="url(#pc4bcc4510b)" style="fill: none; stroke: #ffffff; stroke-linecap: round"/>
     </g>
     <g id="text_38">
      <!-- 0 -->
      <g style="fill: #262626" transform="translate(278.03125 64.313321) scale(0.11 -0.11)">
       <use xlink:href="#DejaVuSans-30"/>
      </g>
     </g>
    </g>
    <g id="ytick_9">
     <g id="line2d_43">
      <path d="M 294.53 16.541263 
L 477.18 16.541263 
" clip-path="url(#pc4bcc4510b)" style="fill: none; stroke: #ffffff; stroke-linecap: round"/>
     </g>
     <g id="text_39">
      <!-- 1 -->
      <g style="fill: #262626" transform="translate(278.03125 20.720404) scale(0.11 -0.11)">
       <use xlink:href="#DejaVuSans-31"/>
      </g>
     </g>
    </g>
   </g>
   <g id="line2d_44">
    <path d="M 294.502605 60.13418 
L 416.077486 60.13418 
L 416.22361 16.541263 
L 477.193705 16.541263 
L 477.193705 16.541263 
" clip-path="url(#pc4bcc4510b)" style="fill: none; stroke: #0173b2; stroke-width: 1.5; stroke-linecap: round"/>
   </g>
   <g id="patch_21">
    <path d="M 294.53 62.313826 
L 294.53 14.361618 
" style="fill: none; stroke: #ffffff; stroke-width: 1.25; stroke-linejoin: miter; stroke-linecap: square"/>
   </g>
   <g id="patch_22">
    <path d="M 477.18 62.313826 
L 477.18 14.361618 
" style="fill: none; stroke: #ffffff; stroke-width: 1.25; stroke-linejoin: miter; stroke-linecap: square"/>
   </g>
   <g id="patch_23">
    <path d="M 294.53 62.313826 
L 477.18 62.313826 
" style="fill: none; stroke: #ffffff; stroke-width: 1.25; stroke-linejoin: miter; stroke-linecap: square"/>
   </g>
   <g id="patch_24">
    <path d="M 294.53 14.361618 
L 477.18 14.361618 
" style="fill: none; stroke: #ffffff; stroke-width: 1.25; stroke-linejoin: miter; stroke-linecap: square"/>
   </g>
   <g id="legend_4">
    <g id="patch_25">
     <path d="M 350.1575 39.307555 
L 469.48 39.307555 
Q 471.68 39.307555 471.68 37.107555 
L 471.68 22.061618 
Q 471.68 19.861618 469.48 19.861618 
L 350.1575 19.861618 
Q 347.9575 19.861618 347.9575 22.061618 
L 347.9575 37.107555 
Q 347.9575 39.307555 350.1575 39.307555 
z
" style="fill: #eaeaf2; opacity: 0.8; stroke: #cccccc; stroke-linejoin: miter"/>
    </g>
    <g id="line2d_45">
     <path d="M 352.3575 28.769899 
L 363.3575 28.769899 
L 374.3575 28.769899 
" style="fill: none; stroke: #0173b2; stroke-width: 1.5; stroke-linecap: round"/>
    </g>
    <g id="text_40">
     <!-- Visual Stimulus -->
     <g style="fill: #262626" transform="translate(383.1575 32.619899) scale(0.11 -0.11)">
      <use xlink:href="#DejaVuSans-56"/>
      <use xlink:href="#DejaVuSans-69" x="66.158203"/>
      <use xlink:href="#DejaVuSans-73" x="93.941406"/>
      <use xlink:href="#DejaVuSans-75" x="146.041016"/>
      <use xlink:href="#DejaVuSans-61" x="209.419922"/>
      <use xlink:href="#DejaVuSans-6c" x="270.699219"/>
      <use xlink:href="#DejaVuSans-20" x="298.482422"/>
      <use xlink:href="#DejaVuSans-53" x="330.269531"/>
      <use xlink:href="#DejaVuSans-74" x="393.746094"/>
      <use xlink:href="#DejaVuSans-69" x="432.955078"/>
      <use xlink:href="#DejaVuSans-6d" x="460.738281"/>
      <use xlink:href="#DejaVuSans-75" x="558.150391"/>
      <use xlink:href="#DejaVuSans-6c" x="621.529297"/>
      <use xlink:href="#DejaVuSans-75" x="649.3125"/>
      <use xlink:href="#DejaVuSans-73" x="712.691406"/>
     </g>
    </g>
   </g>
  </g>
  <g id="axes_5">
   <g id="patch_26">
    <path d="M 294.53 147.796913 
L 477.18 147.796913 
L 477.18 99.844705 
L 294.53 99.844705 
z
" style="fill: #eaeaf2"/>
   </g>
   <g id="matplotlib.axis_9">
    <g id="xtick_25">
     <g id="line2d_46">
      <path d="M 294.53 147.796913 
L 294.53 99.844705 
" clip-path="url(#pa5a44ec064)" style="fill: none; stroke: #ffffff; stroke-linecap: round"/>
     </g>
     <g id="text_41">
      <!-- 1000 -->
      <g style="fill: #262626" transform="translate(280.5325 165.655194) scale(0.11 -0.11)">
       <use xlink:href="#DejaVuSans-31"/>
       <use xlink:href="#DejaVuSans-30" x="63.623047"/>
       <use xlink:href="#DejaVuSans-30" x="127.246094"/>
       <use xlink:href="#DejaVuSans-30" x="190.869141"/>
      </g>
     </g>
    </g>
    <g id="xtick_26">
     <g id="line2d_47">
      <path d="M 331.06 147.796913 
L 331.06 99.844705 
" clip-path="url(#pa5a44ec064)" style="fill: none; stroke: #ffffff; stroke-linecap: round"/>
     </g>
     <g id="text_42">
      <!-- 1100 -->
      <g style="fill: #262626" transform="translate(317.0625 165.655194) scale(0.11 -0.11)">
       <use xlink:href="#DejaVuSans-31"/>
       <use xlink:href="#DejaVuSans-31" x="63.623047"/>
       <use xlink:href="#DejaVuSans-30" x="127.246094"/>
       <use xlink:href="#DejaVuSans-30" x="190.869141"/>
      </g>
     </g>
    </g>
    <g id="xtick_27">
     <g id="line2d_48">
      <path d="M 367.59 147.796913 
L 367.59 99.844705 
" clip-path="url(#pa5a44ec064)" style="fill: none; stroke: #ffffff; stroke-linecap: round"/>
     </g>
     <g id="text_43">
      <!-- 1200 -->
      <g style="fill: #262626" transform="translate(353.5925 165.655194) scale(0.11 -0.11)">
       <use xlink:href="#DejaVuSans-31"/>
       <use xlink:href="#DejaVuSans-32" x="63.623047"/>
       <use xlink:href="#DejaVuSans-30" x="127.246094"/>
       <use xlink:href="#DejaVuSans-30" x="190.869141"/>
      </g>
     </g>
    </g>
    <g id="xtick_28">
     <g id="line2d_49">
      <path d="M 404.12 147.796913 
L 404.12 99.844705 
" clip-path="url(#pa5a44ec064)" style="fill: none; stroke: #ffffff; stroke-linecap: round"/>
     </g>
     <g id="text_44">
      <!-- 1300 -->
      <g style="fill: #262626" transform="translate(390.1225 165.655194) scale(0.11 -0.11)">
       <use xlink:href="#DejaVuSans-31"/>
       <use xlink:href="#DejaVuSans-33" x="63.623047"/>
       <use xlink:href="#DejaVuSans-30" x="127.246094"/>
       <use xlink:href="#DejaVuSans-30" x="190.869141"/>
      </g>
     </g>
    </g>
    <g id="xtick_29">
     <g id="line2d_50">
      <path d="M 440.65 147.796913 
L 440.65 99.844705 
" clip-path="url(#pa5a44ec064)" style="fill: none; stroke: #ffffff; stroke-linecap: round"/>
     </g>
     <g id="text_45">
      <!-- 1400 -->
      <g style="fill: #262626" transform="translate(426.6525 165.655194) scale(0.11 -0.11)">
       <use xlink:href="#DejaVuSans-31"/>
       <use xlink:href="#DejaVuSans-34" x="63.623047"/>
       <use xlink:href="#DejaVuSans-30" x="127.246094"/>
       <use xlink:href="#DejaVuSans-30" x="190.869141"/>
      </g>
     </g>
    </g>
    <g id="xtick_30">
     <g id="line2d_51">
      <path d="M 477.18 147.796913 
L 477.18 99.844705 
" clip-path="url(#pa5a44ec064)" style="fill: none; stroke: #ffffff; stroke-linecap: round"/>
     </g>
     <g id="text_46">
      <!-- 1500 -->
      <g style="fill: #262626" transform="translate(463.1825 165.655194) scale(0.11 -0.11)">
       <use xlink:href="#DejaVuSans-31"/>
       <use xlink:href="#DejaVuSans-35" x="63.623047"/>
       <use xlink:href="#DejaVuSans-30" x="127.246094"/>
       <use xlink:href="#DejaVuSans-30" x="190.869141"/>
      </g>
     </g>
    </g>
   </g>
   <g id="matplotlib.axis_10">
    <g id="ytick_10">
     <g id="line2d_52">
      <path d="M 294.53 145.617267 
L 477.18 145.617267 
" clip-path="url(#pa5a44ec064)" style="fill: none; stroke: #ffffff; stroke-linecap: round"/>
     </g>
     <g id="text_47">
      <!-- 0 -->
      <g style="fill: #262626" transform="translate(278.03125 149.796408) scale(0.11 -0.11)">
       <use xlink:href="#DejaVuSans-30"/>
      </g>
     </g>
    </g>
    <g id="ytick_11">
     <g id="line2d_53">
      <path d="M 294.53 102.306993 
L 477.18 102.306993 
" clip-path="url(#pa5a44ec064)" style="fill: none; stroke: #ffffff; stroke-linecap: round"/>
     </g>
     <g id="text_48">
      <!-- 1 -->
      <g style="fill: #262626" transform="translate(278.03125 106.486134) scale(0.11 -0.11)">
       <use xlink:href="#DejaVuSans-31"/>
      </g>
     </g>
    </g>
   </g>
   <g id="line2d_54">
    <path d="M 294.502605 145.320091 
L 294.904446 145.195799 
L 295.379347 144.786822 
L 296.29262 143.627377 
L 300.237959 138.424351 
L 303.160432 134.985286 
L 306.155967 131.799821 
L 309.224564 128.858365 
L 312.402753 126.120748 
L 315.654004 123.612038 
L 319.051379 121.272493 
L 322.558347 119.126618 
L 326.247969 117.130551 
L 330.120246 115.289905 
L 334.211709 113.592813 
L 338.558887 112.032044 
L 343.198313 110.603686 
L 348.203049 109.297135 
L 353.646155 108.108585 
L 359.637224 107.032626 
L 366.24932 106.075235 
L 373.665095 105.230269 
L 382.140267 104.493975 
L 392.003614 103.867204 
L 403.803099 103.348657 
L 418.451995 102.937809 
L 437.740318 102.632894 
L 465.649936 102.43234 
L 477.193705 102.409685 
L 477.193705 102.409685 
" clip-path="url(#pa5a44ec064)" style="fill: none; stroke: #117733; stroke-width: 1.5; stroke-linecap: round"/>
   </g>
   <g id="line2d_55">
    <path d="M 294.502605 145.617265 
L 416.333202 145.552477 
L 416.442795 145.077496 
L 416.588919 142.984007 
L 416.808104 135.774771 
L 417.648315 103.703189 
L 417.867501 102.045328 
L 417.940563 102.065216 
L 418.086686 102.763688 
L 418.378934 105.94139 
L 419.986294 126.593453 
L 420.64385 131.440885 
L 421.337938 135.017197 
L 422.068556 137.682079 
L 422.835705 139.685921 
L 423.639385 141.20019 
L 424.516127 142.387728 
L 425.465931 143.30056 
L 426.525327 144.008207 
L 427.767378 144.561997 
L 429.265146 144.979542 
L 431.237815 145.287115 
L 434.123757 145.490609 
L 439.238085 145.593956 
L 456.736393 145.617187 
L 477.193705 145.617187 
L 477.193705 145.617187 
" clip-path="url(#pa5a44ec064)" style="fill: none; stroke: #88ccee; stroke-width: 1.5; stroke-linecap: round"/>
   </g>
   <g id="line2d_56">
    <path d="M 294.502605 145.617264 
L 355.582293 145.550016 
L 355.691886 145.233436 
L 355.838009 143.905713 
L 356.057195 138.870245 
L 356.495566 120.668186 
L 356.933937 106.306145 
L 357.226184 102.575337 
L 357.408839 102.104289 
L 357.518431 102.366135 
L 357.737617 103.773571 
L 358.175988 108.5486 
L 359.45457 123.065066 
L 360.221719 129.005522 
L 360.988868 133.241256 
L 361.756017 136.303566 
L 362.559698 138.64591 
L 363.399909 140.433916 
L 364.276651 141.793168 
L 365.226454 142.854906 
L 366.24932 143.664335 
L 367.418309 144.29925 
L 368.806484 144.788626 
L 370.523437 145.149288 
L 372.897946 145.404355 
L 376.624099 145.555228 
L 384.916617 145.613282 
L 472.298562 145.617162 
L 477.193705 145.617162 
L 477.193705 145.617162 
" clip-path="url(#pa5a44ec064)" style="fill: none; stroke: #cc6677; stroke-width: 1.5; stroke-linecap: round"/>
   </g>
   <g id="patch_27">
    <path d="M 294.53 147.796913 
L 294.53 99.844705 
" style="fill: none; stroke: #ffffff; stroke-width: 1.25; stroke-linejoin: miter; stroke-linecap: square"/>
   </g>
   <g id="patch_28">
    <path d="M 477.18 147.796913 
L 477.18 99.844705 
" style="fill: none; stroke: #ffffff; stroke-width: 1.25; stroke-linejoin: miter; stroke-linecap: square"/>
   </g>
   <g id="patch_29">
    <path d="M 294.53 147.796913 
L 477.18 147.796913 
" style="fill: none; stroke: #ffffff; stroke-width: 1.25; stroke-linejoin: miter; stroke-linecap: square"/>
   </g>
   <g id="patch_30">
    <path d="M 294.53 99.844705 
L 477.18 99.844705 
" style="fill: none; stroke: #ffffff; stroke-width: 1.25; stroke-linejoin: miter; stroke-linecap: square"/>
   </g>
   <g id="legend_5">
    <g id="patch_31">
     <path d="M 406.68375 142.296913 
L 469.48 142.296913 
Q 471.68 142.296913 471.68 140.096913 
L 471.68 92.7591 
Q 471.68 90.5591 469.48 90.5591 
L 406.68375 90.5591 
Q 404.48375 90.5591 404.48375 92.7591 
L 404.48375 140.096913 
Q 404.48375 142.296913 406.68375 142.296913 
z
" style="fill: #eaeaf2; opacity: 0.8; stroke: #cccccc; stroke-linejoin: miter"/>
    </g>
    <g id="line2d_57">
     <path d="M 408.88375 99.467382 
L 419.88375 99.467382 
L 430.88375 99.467382 
" style="fill: none; stroke: #117733; stroke-width: 1.5; stroke-linecap: round"/>
    </g>
    <g id="text_49">
     <!-- E On -->
     <g style="fill: #262626" transform="translate(439.68375 103.317382) scale(0.11 -0.11)">
      <use xlink:href="#DejaVuSans-45"/>
      <use xlink:href="#DejaVuSans-20" x="63.183594"/>
      <use xlink:href="#DejaVuSans-4f" x="94.970703"/>
      <use xlink:href="#DejaVuSans-6e" x="173.681641"/>
     </g>
    </g>
    <g id="line2d_58">
     <path d="M 408.88375 115.613319 
L 419.88375 115.613319 
L 430.88375 115.613319 
" style="fill: none; stroke: #88ccee; stroke-width: 1.5; stroke-linecap: round"/>
    </g>
    <g id="text_50">
     <!-- D On -->
     <g style="fill: #262626" transform="translate(439.68375 119.463319) scale(0.11 -0.11)">
      <use xlink:href="#DejaVuSans-44"/>
      <use xlink:href="#DejaVuSans-20" x="77.001953"/>
      <use xlink:href="#DejaVuSans-4f" x="108.789062"/>
      <use xlink:href="#DejaVuSans-6e" x="187.5"/>
     </g>
    </g>
    <g id="line2d_59">
     <path d="M 408.88375 131.759257 
L 419.88375 131.759257 
L 430.88375 131.759257 
" style="fill: none; stroke: #cc6677; stroke-width: 1.5; stroke-linecap: round"/>
    </g>
    <g id="text_51">
     <!-- S On -->
     <g style="fill: #262626" transform="translate(439.68375 135.609257) scale(0.11 -0.11)">
      <use xlink:href="#DejaVuSans-53"/>
      <use xlink:href="#DejaVuSans-20" x="63.476562"/>
      <use xlink:href="#DejaVuSans-4f" x="95.263672"/>
      <use xlink:href="#DejaVuSans-6e" x="173.974609"/>
     </g>
    </g>
   </g>
  </g>
  <g id="axes_6">
   <g id="patch_32">
    <path d="M 294.53 233.28 
L 477.18 233.28 
L 477.18 185.327792 
L 294.53 185.327792 
z
" style="fill: #eaeaf2"/>
   </g>
   <g id="matplotlib.axis_11">
    <g id="xtick_31">
     <g id="line2d_60">
      <path d="M 294.53 233.28 
L 294.53 185.327792 
" clip-path="url(#pdbd8e16abf)" style="fill: none; stroke: #ffffff; stroke-linecap: round"/>
     </g>
     <g id="text_52">
      <!-- 1000 -->
      <g style="fill: #262626" transform="translate(280.5325 251.138281) scale(0.11 -0.11)">
       <use xlink:href="#DejaVuSans-31"/>
       <use xlink:href="#DejaVuSans-30" x="63.623047"/>
       <use xlink:href="#DejaVuSans-30" x="127.246094"/>
       <use xlink:href="#DejaVuSans-30" x="190.869141"/>
      </g>
     </g>
    </g>
    <g id="xtick_32">
     <g id="line2d_61">
      <path d="M 331.06 233.28 
L 331.06 185.327792 
" clip-path="url(#pdbd8e16abf)" style="fill: none; stroke: #ffffff; stroke-linecap: round"/>
     </g>
     <g id="text_53">
      <!-- 1100 -->
      <g style="fill: #262626" transform="translate(317.0625 251.138281) scale(0.11 -0.11)">
       <use xlink:href="#DejaVuSans-31"/>
       <use xlink:href="#DejaVuSans-31" x="63.623047"/>
       <use xlink:href="#DejaVuSans-30" x="127.246094"/>
       <use xlink:href="#DejaVuSans-30" x="190.869141"/>
      </g>
     </g>
    </g>
    <g id="xtick_33">
     <g id="line2d_62">
      <path d="M 367.59 233.28 
L 367.59 185.327792 
" clip-path="url(#pdbd8e16abf)" style="fill: none; stroke: #ffffff; stroke-linecap: round"/>
     </g>
     <g id="text_54">
      <!-- 1200 -->
      <g style="fill: #262626" transform="translate(353.5925 251.138281) scale(0.11 -0.11)">
       <use xlink:href="#DejaVuSans-31"/>
       <use xlink:href="#DejaVuSans-32" x="63.623047"/>
       <use xlink:href="#DejaVuSans-30" x="127.246094"/>
       <use xlink:href="#DejaVuSans-30" x="190.869141"/>
      </g>
     </g>
    </g>
    <g id="xtick_34">
     <g id="line2d_63">
      <path d="M 404.12 233.28 
L 404.12 185.327792 
" clip-path="url(#pdbd8e16abf)" style="fill: none; stroke: #ffffff; stroke-linecap: round"/>
     </g>
     <g id="text_55">
      <!-- 1300 -->
      <g style="fill: #262626" transform="translate(390.1225 251.138281) scale(0.11 -0.11)">
       <use xlink:href="#DejaVuSans-31"/>
       <use xlink:href="#DejaVuSans-33" x="63.623047"/>
       <use xlink:href="#DejaVuSans-30" x="127.246094"/>
       <use xlink:href="#DejaVuSans-30" x="190.869141"/>
      </g>
     </g>
    </g>
    <g id="xtick_35">
     <g id="line2d_64">
      <path d="M 440.65 233.28 
L 440.65 185.327792 
" clip-path="url(#pdbd8e16abf)" style="fill: none; stroke: #ffffff; stroke-linecap: round"/>
     </g>
     <g id="text_56">
      <!-- 1400 -->
      <g style="fill: #262626" transform="translate(426.6525 251.138281) scale(0.11 -0.11)">
       <use xlink:href="#DejaVuSans-31"/>
       <use xlink:href="#DejaVuSans-34" x="63.623047"/>
       <use xlink:href="#DejaVuSans-30" x="127.246094"/>
       <use xlink:href="#DejaVuSans-30" x="190.869141"/>
      </g>
     </g>
    </g>
    <g id="xtick_36">
     <g id="line2d_65">
      <path d="M 477.18 233.28 
L 477.18 185.327792 
" clip-path="url(#pdbd8e16abf)" style="fill: none; stroke: #ffffff; stroke-linecap: round"/>
     </g>
     <g id="text_57">
      <!-- 1500 -->
      <g style="fill: #262626" transform="translate(463.1825 251.138281) scale(0.11 -0.11)">
       <use xlink:href="#DejaVuSans-31"/>
       <use xlink:href="#DejaVuSans-35" x="63.623047"/>
       <use xlink:href="#DejaVuSans-30" x="127.246094"/>
       <use xlink:href="#DejaVuSans-30" x="190.869141"/>
      </g>
     </g>
    </g>
    <g id="text_58">
     <!-- t (ms) -->
     <g style="fill: #262626" transform="translate(367.944062 266.544062) scale(0.12 -0.12)">
      <use xlink:href="#DejaVuSans-74"/>
      <use xlink:href="#DejaVuSans-20" x="39.208984"/>
      <use xlink:href="#DejaVuSans-28" x="70.996094"/>
      <use xlink:href="#DejaVuSans-6d" x="110.009766"/>
      <use xlink:href="#DejaVuSans-73" x="207.421875"/>
      <use xlink:href="#DejaVuSans-29" x="259.521484"/>
     </g>
    </g>
   </g>
   <g id="matplotlib.axis_12">
    <g id="ytick_12">
     <g id="line2d_66">
      <path d="M 294.53 229.995853 
L 477.18 229.995853 
" clip-path="url(#pdbd8e16abf)" style="fill: none; stroke: #ffffff; stroke-linecap: round"/>
     </g>
     <g id="text_59">
      <!-- −0.1 -->
      <g style="fill: #262626" transform="translate(258.318906 234.174994) scale(0.11 -0.11)">
       <use xlink:href="#DejaVuSans-2212"/>
       <use xlink:href="#DejaVuSans-30" x="83.789062"/>
       <use xlink:href="#DejaVuSans-2e" x="147.412109"/>
       <use xlink:href="#DejaVuSans-31" x="179.199219"/>
      </g>
     </g>
    </g>
    <g id="ytick_13">
     <g id="line2d_67">
      <path d="M 294.53 211.481634 
L 477.18 211.481634 
" clip-path="url(#pdbd8e16abf)" style="fill: none; stroke: #ffffff; stroke-linecap: round"/>
     </g>
     <g id="text_60">
      <!-- 0.0 -->
      <g style="fill: #262626" transform="translate(267.536562 215.660774) scale(0.11 -0.11)">
       <use xlink:href="#DejaVuSans-30"/>
       <use xlink:href="#DejaVuSans-2e" x="63.623047"/>
       <use xlink:href="#DejaVuSans-30" x="95.410156"/>
      </g>
     </g>
    </g>
    <g id="ytick_14">
     <g id="line2d_68">
      <path d="M 294.53 192.967414 
L 477.18 192.967414 
" clip-path="url(#pdbd8e16abf)" style="fill: none; stroke: #ffffff; stroke-linecap: round"/>
     </g>
     <g id="text_61">
      <!-- 0.1 -->
      <g style="fill: #262626" transform="translate(267.536562 197.146555) scale(0.11 -0.11)">
       <use xlink:href="#DejaVuSans-30"/>
       <use xlink:href="#DejaVuSans-2e" x="63.623047"/>
       <use xlink:href="#DejaVuSans-31" x="95.410156"/>
      </g>
     </g>
    </g>
   </g>
   <g id="line2d_69">
    <path d="M 294.502605 211.481634 
L 355.691886 211.587909 
L 355.838009 212.060645 
L 356.020664 213.643512 
L 356.349442 219.325965 
L 356.933937 229.035215 
L 357.226184 230.876559 
L 357.408839 231.096776 
L 357.591493 230.992539 
L 357.84721 230.15869 
L 358.395173 227.355748 
L 359.491101 221.890871 
L 360.25825 219.185002 
L 361.025399 217.235696 
L 361.829079 215.759779 
L 362.705821 214.603239 
L 363.655625 213.71564 
L 364.715021 213.02901 
L 365.957073 212.493123 
L 367.491371 212.083032 
L 369.500571 211.787656 
L 372.459575 211.595425 
L 377.902681 211.500206 
L 398.981018 211.481678 
L 416.406264 211.39539 
L 416.515857 210.986454 
L 416.698512 208.934709 
L 416.990759 202.102916 
L 417.538723 189.759003 
L 417.83097 187.50744 
L 418.086686 187.626252 
L 418.342403 188.967001 
L 419.03649 194.496293 
L 419.803639 199.668149 
L 420.497727 202.849154 
L 421.191814 205.044652 
L 421.958963 206.741591 
L 422.762643 207.990776 
L 423.639385 208.951247 
L 424.62572 209.70153 
L 425.758178 210.282032 
L 427.146353 210.735733 
L 428.936368 211.073988 
L 431.457001 211.306043 
L 435.621525 211.43759 
L 446.21549 211.480361 
L 477.193705 211.481634 
L 477.193705 211.481634 
" clip-path="url(#pdbd8e16abf)" style="fill: none; stroke: #332288; stroke-width: 1.5; stroke-linecap: round"/>
   </g>
   <g id="patch_33">
    <path d="M 294.53 233.28 
L 294.53 185.327792 
" style="fill: none; stroke: #ffffff; stroke-width: 1.25; stroke-linejoin: miter; stroke-linecap: square"/>
   </g>
   <g id="patch_34">
    <path d="M 477.18 233.28 
L 477.18 185.327792 
" style="fill: none; stroke: #ffffff; stroke-width: 1.25; stroke-linejoin: miter; stroke-linecap: square"/>
   </g>
   <g id="patch_35">
    <path d="M 294.53 233.28 
L 477.18 233.28 
" style="fill: none; stroke: #ffffff; stroke-width: 1.25; stroke-linejoin: miter; stroke-linecap: square"/>
   </g>
   <g id="patch_36">
    <path d="M 294.53 185.327792 
L 477.18 185.327792 
" style="fill: none; stroke: #ffffff; stroke-width: 1.25; stroke-linejoin: miter; stroke-linecap: square"/>
   </g>
   <g id="legend_6">
    <g id="patch_37">
     <path d="M 302.23 210.273729 
L 364.103281 210.273729 
Q 366.303281 210.273729 366.303281 208.073729 
L 366.303281 193.027792 
Q 366.303281 190.827792 364.103281 190.827792 
L 302.23 190.827792 
Q 300.03 190.827792 300.03 193.027792 
L 300.03 208.073729 
Q 300.03 210.273729 302.23 210.273729 
z
" style="fill: #eaeaf2; opacity: 0.8; stroke: #cccccc; stroke-linejoin: miter"/>
    </g>
    <g id="line2d_70">
     <path d="M 304.43 199.736073 
L 315.43 199.736073 
L 326.43 199.736073 
" style="fill: none; stroke: #332288; stroke-width: 1.5; stroke-linecap: round"/>
    </g>
    <g id="text_62">
     <!-- On B -->
     <g style="fill: #262626" transform="translate(335.23 203.586073) scale(0.11 -0.11)">
      <use xlink:href="#DejaVuSans-4f"/>
      <use xlink:href="#DejaVuSans-6e" x="78.710938"/>
      <use xlink:href="#DejaVuSans-20" x="142.089844"/>
      <use xlink:href="#DejaVuSans-42" x="173.876953"/>
     </g>
    </g>
   </g>
  </g>
 </g>
 <defs>
  <clipPath id="p52e312bfd4">
   <rect x="49.01" y="14.361618" width="182.65" height="47.952208"/>
  </clipPath>
  <clipPath id="pe0b70c8f09">
   <rect x="49.01" y="99.844705" width="182.65" height="47.952208"/>
  </clipPath>
  <clipPath id="pa1f8048b5a">
   <rect x="49.01" y="185.327792" width="182.65" height="47.952208"/>
  </clipPath>
  <clipPath id="pc4bcc4510b">
   <rect x="294.53" y="14.361618" width="182.65" height="47.952208"/>
  </clipPath>
  <clipPath id="pa5a44ec064">
   <rect x="294.53" y="99.844705" width="182.65" height="47.952208"/>
  </clipPath>
  <clipPath id="pdbd8e16abf">
   <rect x="294.53" y="185.327792" width="182.65" height="47.952208"/>
  </clipPath>
 </defs>
</svg>
