<?xml version="1.0" encoding="utf-8" standalone="no"?>
<!DOCTYPE svg PUBLIC "-//W3C//DTD SVG 1.1//EN"
  "http://www.w3.org/Graphics/SVG/1.1/DTD/svg11.dtd">
<svg xmlns:xlink="http://www.w3.org/1999/xlink" width="504pt" height="283.5pt" viewBox="0 0 504 283.5" xmlns="http://www.w3.org/2000/svg" version="1.1">
 <metadata>
  <rdf:RDF xmlns:dc="http://purl.org/dc/elements/1.1/" xmlns:cc="http://creativecommons.org/ns#" xmlns:rdf="http://www.w3.org/1999/02/22-rdf-syntax-ns#">
   <cc:Work>
    <dc:type rdf:resource="http://purl.org/dc/dcmitype/StillImage"/>
    <dc:date>2023-03-30T12:29:53.482660</dc:date>
    <dc:format>image/svg+xml</dc:format>
    <dc:creator>
     <cc:Agent>
      <dc:title>Matplotlib v3.7.1, https://matplotlib.org/</dc:title>
     </cc:Agent>
    </dc:creator>
   </cc:Work>
  </rdf:RDF>
 </metadata>
 <defs>
  <style type="text/css">*{stroke-linejoin: round; stroke-linecap: butt}</style>
 </defs>
 <g id="figure_1">
  <g id="patch_1">
   <path d="M 0 283.5 
L 504 283.5 
L 504 0 
L 0 0 
z
" style="fill: #ffffff"/>
  </g>
  <g id="axes_1">
   <g id="patch_2">
    <path d="M 29.39 62.950041 
L 235.71 62.950041 
L 235.71 14.361618 
L 29.39 14.361618 
z
" style="fill: #ffffff"/>
   </g>
   <g id="matplotlib.axis_1">
    <g id="xtick_1">
     <g id="line2d_1">
      <defs>
       <path id="ma7947f6b69" d="M 0 0 
L 0 6 
" style="stroke: #262626; stroke-width: 1.25"/>
      </defs>
      <g>
       <use xlink:href="#ma7947f6b69" x="33.5164" y="62.950041" style="fill: #262626; stroke: #262626; stroke-width: 1.25"/>
      </g>
     </g>
     <g id="text_1">
      <!-- 500 -->
      <g style="fill: #262626" transform="translate(23.018275 80.808322) scale(0.11 -0.11)">
       <defs>
        <path id="DejaVuSans-35" d="M 691 4666 
L 3169 4666 
L 3169 4134 
L 1269 4134 
L 1269 2991 
Q 1406 3038 1543 3061 
Q 1681 3084 1819 3084 
Q 2600 3084 3056 2656 
Q 3513 2228 3513 1497 
Q 3513 744 3044 326 
Q 2575 -91 1722 -91 
Q 1428 -91 1123 -41 
Q 819 9 494 109 
L 494 744 
Q 775 591 1075 516 
Q 1375 441 1709 441 
Q 2250 441 2565 725 
Q 2881 1009 2881 1497 
Q 2881 1984 2565 2268 
Q 2250 2553 1709 2553 
Q 1456 2553 1204 2497 
Q 953 2441 691 2322 
L 691 4666 
z
" transform="scale(0.015625)"/>
        <path id="DejaVuSans-30" d="M 2034 4250 
Q 1547 4250 1301 3770 
Q 1056 3291 1056 2328 
Q 1056 1369 1301 889 
Q 1547 409 2034 409 
Q 2525 409 2770 889 
Q 3016 1369 3016 2328 
Q 3016 3291 2770 3770 
Q 2525 4250 2034 4250 
z
M 2034 4750 
Q 2819 4750 3233 4129 
Q 3647 3509 3647 2328 
Q 3647 1150 3233 529 
Q 2819 -91 2034 -91 
Q 1250 -91 836 529 
Q 422 1150 422 2328 
Q 422 3509 836 4129 
Q 1250 4750 2034 4750 
z
" transform="scale(0.015625)"/>
       </defs>
       <use xlink:href="#DejaVuSans-35"/>
       <use xlink:href="#DejaVuSans-30" x="63.623047"/>
       <use xlink:href="#DejaVuSans-30" x="127.246094"/>
      </g>
     </g>
    </g>
    <g id="xtick_2">
     <g id="line2d_2">
      <g>
       <use xlink:href="#ma7947f6b69" x="74.7804" y="62.950041" style="fill: #262626; stroke: #262626; stroke-width: 1.25"/>
      </g>
     </g>
     <g id="text_2">
      <!-- 600 -->
      <g style="fill: #262626" transform="translate(64.282275 80.808322) scale(0.11 -0.11)">
       <defs>
        <path id="DejaVuSans-36" d="M 2113 2584 
Q 1688 2584 1439 2293 
Q 1191 2003 1191 1497 
Q 1191 994 1439 701 
Q 1688 409 2113 409 
Q 2538 409 2786 701 
Q 3034 994 3034 1497 
Q 3034 2003 2786 2293 
Q 2538 2584 2113 2584 
z
M 3366 4563 
L 3366 3988 
Q 3128 4100 2886 4159 
Q 2644 4219 2406 4219 
Q 1781 4219 1451 3797 
Q 1122 3375 1075 2522 
Q 1259 2794 1537 2939 
Q 1816 3084 2150 3084 
Q 2853 3084 3261 2657 
Q 3669 2231 3669 1497 
Q 3669 778 3244 343 
Q 2819 -91 2113 -91 
Q 1303 -91 875 529 
Q 447 1150 447 2328 
Q 447 3434 972 4092 
Q 1497 4750 2381 4750 
Q 2619 4750 2861 4703 
Q 3103 4656 3366 4563 
z
" transform="scale(0.015625)"/>
       </defs>
       <use xlink:href="#DejaVuSans-36"/>
       <use xlink:href="#DejaVuSans-30" x="63.623047"/>
       <use xlink:href="#DejaVuSans-30" x="127.246094"/>
      </g>
     </g>
    </g>
    <g id="xtick_3">
     <g id="line2d_3">
      <g>
       <use xlink:href="#ma7947f6b69" x="116.0444" y="62.950041" style="fill: #262626; stroke: #262626; stroke-width: 1.25"/>
      </g>
     </g>
     <g id="text_3">
      <!-- 700 -->
      <g style="fill: #262626" transform="translate(105.546275 80.808322) scale(0.11 -0.11)">
       <defs>
        <path id="DejaVuSans-37" d="M 525 4666 
L 3525 4666 
L 3525 4397 
L 1831 0 
L 1172 0 
L 2766 4134 
L 525 4134 
L 525 4666 
z
" transform="scale(0.015625)"/>
       </defs>
       <use xlink:href="#DejaVuSans-37"/>
       <use xlink:href="#DejaVuSans-30" x="63.623047"/>
       <use xlink:href="#DejaVuSans-30" x="127.246094"/>
      </g>
     </g>
    </g>
    <g id="xtick_4">
     <g id="line2d_4">
      <g>
       <use xlink:href="#ma7947f6b69" x="157.3084" y="62.950041" style="fill: #262626; stroke: #262626; stroke-width: 1.25"/>
      </g>
     </g>
     <g id="text_4">
      <!-- 800 -->
      <g style="fill: #262626" transform="translate(146.810275 80.808322) scale(0.11 -0.11)">
       <defs>
        <path id="DejaVuSans-38" d="M 2034 2216 
Q 1584 2216 1326 1975 
Q 1069 1734 1069 1313 
Q 1069 891 1326 650 
Q 1584 409 2034 409 
Q 2484 409 2743 651 
Q 3003 894 3003 1313 
Q 3003 1734 2745 1975 
Q 2488 2216 2034 2216 
z
M 1403 2484 
Q 997 2584 770 2862 
Q 544 3141 544 3541 
Q 544 4100 942 4425 
Q 1341 4750 2034 4750 
Q 2731 4750 3128 4425 
Q 3525 4100 3525 3541 
Q 3525 3141 3298 2862 
Q 3072 2584 2669 2484 
Q 3125 2378 3379 2068 
Q 3634 1759 3634 1313 
Q 3634 634 3220 271 
Q 2806 -91 2034 -91 
Q 1263 -91 848 271 
Q 434 634 434 1313 
Q 434 1759 690 2068 
Q 947 2378 1403 2484 
z
M 1172 3481 
Q 1172 3119 1398 2916 
Q 1625 2713 2034 2713 
Q 2441 2713 2670 2916 
Q 2900 3119 2900 3481 
Q 2900 3844 2670 4047 
Q 2441 4250 2034 4250 
Q 1625 4250 1398 4047 
Q 1172 3844 1172 3481 
z
" transform="scale(0.015625)"/>
       </defs>
       <use xlink:href="#DejaVuSans-38"/>
       <use xlink:href="#DejaVuSans-30" x="63.623047"/>
       <use xlink:href="#DejaVuSans-30" x="127.246094"/>
      </g>
     </g>
    </g>
    <g id="xtick_5">
     <g id="line2d_5">
      <g>
       <use xlink:href="#ma7947f6b69" x="198.5724" y="62.950041" style="fill: #262626; stroke: #262626; stroke-width: 1.25"/>
      </g>
     </g>
     <g id="text_5">
      <!-- 900 -->
      <g style="fill: #262626" transform="translate(188.074275 80.808322) scale(0.11 -0.11)">
       <defs>
        <path id="DejaVuSans-39" d="M 703 97 
L 703 672 
Q 941 559 1184 500 
Q 1428 441 1663 441 
Q 2288 441 2617 861 
Q 2947 1281 2994 2138 
Q 2813 1869 2534 1725 
Q 2256 1581 1919 1581 
Q 1219 1581 811 2004 
Q 403 2428 403 3163 
Q 403 3881 828 4315 
Q 1253 4750 1959 4750 
Q 2769 4750 3195 4129 
Q 3622 3509 3622 2328 
Q 3622 1225 3098 567 
Q 2575 -91 1691 -91 
Q 1453 -91 1209 -44 
Q 966 3 703 97 
z
M 1959 2075 
Q 2384 2075 2632 2365 
Q 2881 2656 2881 3163 
Q 2881 3666 2632 3958 
Q 2384 4250 1959 4250 
Q 1534 4250 1286 3958 
Q 1038 3666 1038 3163 
Q 1038 2656 1286 2365 
Q 1534 2075 1959 2075 
z
" transform="scale(0.015625)"/>
       </defs>
       <use xlink:href="#DejaVuSans-39"/>
       <use xlink:href="#DejaVuSans-30" x="63.623047"/>
       <use xlink:href="#DejaVuSans-30" x="127.246094"/>
      </g>
     </g>
    </g>
   </g>
   <g id="matplotlib.axis_2">
    <g id="ytick_1">
     <g id="line2d_6">
      <defs>
       <path id="m1a03e53d7a" d="M 0 0 
L -6 0 
" style="stroke: #262626; stroke-width: 1.25"/>
      </defs>
      <g>
       <use xlink:href="#m1a03e53d7a" x="29.39" y="60.741476" style="fill: #262626; stroke: #262626; stroke-width: 1.25"/>
      </g>
     </g>
     <g id="text_6">
      <!-- 0 -->
      <g style="fill: #262626" transform="translate(12.89125 64.920616) scale(0.11 -0.11)">
       <use xlink:href="#DejaVuSans-30"/>
      </g>
     </g>
    </g>
    <g id="ytick_2">
     <g id="line2d_7">
      <g>
       <use xlink:href="#m1a03e53d7a" x="29.39" y="16.570182" style="fill: #262626; stroke: #262626; stroke-width: 1.25"/>
      </g>
     </g>
     <g id="text_7">
      <!-- 1 -->
      <g style="fill: #262626" transform="translate(12.89125 20.749323) scale(0.11 -0.11)">
       <defs>
        <path id="DejaVuSans-31" d="M 794 531 
L 1825 531 
L 1825 4091 
L 703 3866 
L 703 4441 
L 1819 4666 
L 2450 4666 
L 2450 531 
L 3481 531 
L 3481 0 
L 794 0 
L 794 531 
z
" transform="scale(0.015625)"/>
       </defs>
       <use xlink:href="#DejaVuSans-31"/>
      </g>
     </g>
    </g>
   </g>
   <g id="line2d_8">
    <path d="M 29.353792 16.570182 
L 33.397765 16.570182 
L 33.52156 60.741476 
L 235.720217 60.741476 
L 235.720217 60.741476 
" clip-path="url(#pc6124ab642)" style="fill: none; stroke-dasharray: 5.55,2.4; stroke-dashoffset: 0; stroke: #117733; stroke-width: 1.5"/>
   </g>
   <g id="line2d_9">
    <path d="M 29.353792 16.570182 
L 102.145308 16.570182 
L 102.269104 60.741476 
L 235.720217 60.741476 
L 235.720217 60.741476 
" clip-path="url(#pc6124ab642)" style="fill: none; stroke: #88ccee; stroke-width: 1.5; stroke-linecap: round"/>
   </g>
   <g id="line2d_10">
    <path d="M 29.353792 16.570182 
L 170.892852 16.570182 
L 171.016647 60.741476 
L 235.720217 60.741476 
L 235.720217 60.741476 
" clip-path="url(#pc6124ab642)" style="fill: none; stroke-dasharray: 1.5,2.475; stroke-dashoffset: 0; stroke: #cc6677; stroke-width: 1.5"/>
   </g>
   <g id="patch_3">
    <path d="M 29.39 62.950041 
L 29.39 14.361618 
" style="fill: none; stroke: #262626; stroke-width: 1.25; stroke-linejoin: miter; stroke-linecap: square"/>
   </g>
   <g id="patch_4">
    <path d="M 235.71 62.950041 
L 235.71 14.361618 
" style="fill: none; stroke: #262626; stroke-width: 1.25; stroke-linejoin: miter; stroke-linecap: square"/>
   </g>
   <g id="patch_5">
    <path d="M 29.39 62.950041 
L 235.71 62.950041 
" style="fill: none; stroke: #262626; stroke-width: 1.25; stroke-linejoin: miter; stroke-linecap: square"/>
   </g>
   <g id="patch_6">
    <path d="M 29.39 14.361618 
L 235.71 14.361618 
" style="fill: none; stroke: #262626; stroke-width: 1.25; stroke-linejoin: miter; stroke-linecap: square"/>
   </g>
  </g>
  <g id="axes_2">
   <g id="patch_7">
    <path d="M 29.39 148.11502 
L 235.71 148.11502 
L 235.71 99.526597 
L 29.39 99.526597 
z
" style="fill: #ffffff"/>
   </g>
   <g id="matplotlib.axis_3">
    <g id="xtick_6">
     <g id="line2d_11">
      <g>
       <use xlink:href="#ma7947f6b69" x="33.5164" y="148.11502" style="fill: #262626; stroke: #262626; stroke-width: 1.25"/>
      </g>
     </g>
     <g id="text_8">
      <!-- 500 -->
      <g style="fill: #262626" transform="translate(23.018275 165.973302) scale(0.11 -0.11)">
       <use xlink:href="#DejaVuSans-35"/>
       <use xlink:href="#DejaVuSans-30" x="63.623047"/>
       <use xlink:href="#DejaVuSans-30" x="127.246094"/>
      </g>
     </g>
    </g>
    <g id="xtick_7">
     <g id="line2d_12">
      <g>
       <use xlink:href="#ma7947f6b69" x="74.7804" y="148.11502" style="fill: #262626; stroke: #262626; stroke-width: 1.25"/>
      </g>
     </g>
     <g id="text_9">
      <!-- 600 -->
      <g style="fill: #262626" transform="translate(64.282275 165.973302) scale(0.11 -0.11)">
       <use xlink:href="#DejaVuSans-36"/>
       <use xlink:href="#DejaVuSans-30" x="63.623047"/>
       <use xlink:href="#DejaVuSans-30" x="127.246094"/>
      </g>
     </g>
    </g>
    <g id="xtick_8">
     <g id="line2d_13">
      <g>
       <use xlink:href="#ma7947f6b69" x="116.0444" y="148.11502" style="fill: #262626; stroke: #262626; stroke-width: 1.25"/>
      </g>
     </g>
     <g id="text_10">
      <!-- 700 -->
      <g style="fill: #262626" transform="translate(105.546275 165.973302) scale(0.11 -0.11)">
       <use xlink:href="#DejaVuSans-37"/>
       <use xlink:href="#DejaVuSans-30" x="63.623047"/>
       <use xlink:href="#DejaVuSans-30" x="127.246094"/>
      </g>
     </g>
    </g>
    <g id="xtick_9">
     <g id="line2d_14">
      <g>
       <use xlink:href="#ma7947f6b69" x="157.3084" y="148.11502" style="fill: #262626; stroke: #262626; stroke-width: 1.25"/>
      </g>
     </g>
     <g id="text_11">
      <!-- 800 -->
      <g style="fill: #262626" transform="translate(146.810275 165.973302) scale(0.11 -0.11)">
       <use xlink:href="#DejaVuSans-38"/>
       <use xlink:href="#DejaVuSans-30" x="63.623047"/>
       <use xlink:href="#DejaVuSans-30" x="127.246094"/>
      </g>
     </g>
    </g>
    <g id="xtick_10">
     <g id="line2d_15">
      <g>
       <use xlink:href="#ma7947f6b69" x="198.5724" y="148.11502" style="fill: #262626; stroke: #262626; stroke-width: 1.25"/>
      </g>
     </g>
     <g id="text_12">
      <!-- 900 -->
      <g style="fill: #262626" transform="translate(188.074275 165.973302) scale(0.11 -0.11)">
       <use xlink:href="#DejaVuSans-39"/>
       <use xlink:href="#DejaVuSans-30" x="63.623047"/>
       <use xlink:href="#DejaVuSans-30" x="127.246094"/>
      </g>
     </g>
    </g>
   </g>
   <g id="matplotlib.axis_4">
    <g id="ytick_3">
     <g id="line2d_16">
      <g>
       <use xlink:href="#m1a03e53d7a" x="29.39" y="145.906456" style="fill: #262626; stroke: #262626; stroke-width: 1.25"/>
      </g>
     </g>
     <g id="text_13">
      <!-- 0 -->
      <g style="fill: #262626" transform="translate(12.89125 150.085596) scale(0.11 -0.11)">
       <use xlink:href="#DejaVuSans-30"/>
      </g>
     </g>
    </g>
    <g id="ytick_4">
     <g id="line2d_17">
      <g>
       <use xlink:href="#m1a03e53d7a" x="29.39" y="102.925542" style="fill: #262626; stroke: #262626; stroke-width: 1.25"/>
      </g>
     </g>
     <g id="text_14">
      <!-- 1 -->
      <g style="fill: #262626" transform="translate(12.89125 107.104682) scale(0.11 -0.11)">
       <use xlink:href="#DejaVuSans-31"/>
      </g>
     </g>
    </g>
   </g>
   <g id="line2d_18">
    <path d="M 29.353792 145.582088 
L 33.975476 145.508696 
L 34.511921 145.120995 
L 35.461017 144.079635 
L 40.24776 138.544782 
L 43.466433 135.233868 
L 46.767635 132.1575 
L 50.151368 129.307977 
L 53.658896 126.647046 
L 57.248954 124.201209 
L 61.004072 121.912327 
L 64.92425 119.78512 
L 69.009488 117.82153 
L 73.342316 115.988218 
L 77.922735 114.294909 
L 82.792008 112.734845 
L 87.991402 111.304588 
L 93.603447 109.993904 
L 99.710672 108.799394 
L 106.395607 107.722019 
L 113.823313 106.755067 
L 122.117584 105.903796 
L 131.567276 105.162032 
L 142.58504 104.527072 
L 155.70732 104.001498 
L 171.924478 103.583681 
L 193.175969 103.271129 
L 223.588298 103.063026 
L 235.720217 103.020725 
L 235.720217 103.020725 
" clip-path="url(#paf254edbb6)" style="fill: none; stroke-dasharray: 5.55,2.4; stroke-dashoffset: 0; stroke: #117733; stroke-width: 1.5"/>
   </g>
   <g id="line2d_19">
    <path d="M 29.353792 145.906456 
L 102.599224 145.815754 
L 102.805549 145.420595 
L 103.053139 144.289622 
L 103.383259 141.529558 
L 106.395607 110.772717 
L 107.055847 106.990184 
L 107.674823 104.573298 
L 108.252533 103.097158 
L 108.788979 102.261743 
L 109.284159 101.856968 
L 109.779339 101.735162 
L 110.27452 101.840808 
L 110.893495 102.223484 
L 111.677531 103.004578 
L 112.750422 104.427971 
L 114.442288 107.100516 
L 119.971802 116.053732 
L 122.488969 119.595955 
L 124.923606 122.643508 
L 127.399508 125.388462 
L 129.916675 127.850027 
L 132.516372 130.083651 
L 135.239864 132.128209 
L 138.087151 133.983916 
L 141.058234 135.654399 
L 144.235641 137.182764 
L 147.619374 138.560691 
L 151.250697 139.798291 
L 155.21214 140.911858 
L 159.586233 141.907144 
L 164.455507 142.783652 
L 169.985021 143.548496 
L 176.381101 144.202693 
L 183.973867 144.747995 
L 193.299764 145.185149 
L 205.349154 145.515355 
L 222.309082 145.741185 
L 235.720217 145.822799 
L 235.720217 145.822799 
" clip-path="url(#paf254edbb6)" style="fill: none; stroke-dasharray: 1.5,2.475; stroke-dashoffset: 0; stroke: #88ccee; stroke-width: 1.5"/>
   </g>
   <g id="line2d_20">
    <path d="M 29.353792 145.906456 
L 171.511827 145.818631 
L 171.718152 145.511338 
L 171.965743 144.609275 
L 172.254598 142.596639 
L 172.749778 137.105602 
L 174.276584 119.506336 
L 175.184415 111.605192 
L 175.844656 107.689406 
L 176.463631 105.210966 
L 177.082607 103.596639 
L 177.412727 103.156586 
L 177.825377 102.986273 
L 178.733208 102.928695 
L 180.631399 103.001091 
L 181.167845 103.428648 
L 182.199471 104.592269 
L 184.015132 107.012659 
L 191.277778 116.984792 
L 194.16633 120.440752 
L 197.013617 123.502182 
L 199.860904 126.237289 
L 202.749457 128.702884 
L 205.679274 130.913086 
L 208.691621 132.909703 
L 211.827764 134.722485 
L 215.128966 136.371318 
L 218.595229 137.852155 
L 222.309082 139.193008 
L 226.270525 140.384829 
L 230.603353 141.452775 
L 235.390097 142.398228 
L 235.720217 142.455621 
L 235.720217 142.455621 
" clip-path="url(#paf254edbb6)" style="fill: none; stroke: #cc6677; stroke-width: 1.5; stroke-linecap: round"/>
   </g>
   <g id="patch_8">
    <path d="M 29.39 148.11502 
L 29.39 99.526597 
" style="fill: none; stroke: #262626; stroke-width: 1.25; stroke-linejoin: miter; stroke-linecap: square"/>
   </g>
   <g id="patch_9">
    <path d="M 235.71 148.11502 
L 235.71 99.526597 
" style="fill: none; stroke: #262626; stroke-width: 1.25; stroke-linejoin: miter; stroke-linecap: square"/>
   </g>
   <g id="patch_10">
    <path d="M 29.39 148.11502 
L 235.71 148.11502 
" style="fill: none; stroke: #262626; stroke-width: 1.25; stroke-linejoin: miter; stroke-linecap: square"/>
   </g>
   <g id="patch_11">
    <path d="M 29.39 99.526597 
L 235.71 99.526597 
" style="fill: none; stroke: #262626; stroke-width: 1.25; stroke-linejoin: miter; stroke-linecap: square"/>
   </g>
  </g>
  <g id="axes_3">
   <g id="patch_12">
    <path d="M 29.39 233.28 
L 235.71 233.28 
L 235.71 184.691577 
L 29.39 184.691577 
z
" style="fill: #ffffff"/>
   </g>
   <g id="matplotlib.axis_5">
    <g id="xtick_11">
     <g id="line2d_21">
      <g>
       <use xlink:href="#ma7947f6b69" x="33.5164" y="233.28" style="fill: #262626; stroke: #262626; stroke-width: 1.25"/>
      </g>
     </g>
     <g id="text_15">
      <!-- 500 -->
      <g style="fill: #262626" transform="translate(23.018275 251.138281) scale(0.11 -0.11)">
       <use xlink:href="#DejaVuSans-35"/>
       <use xlink:href="#DejaVuSans-30" x="63.623047"/>
       <use xlink:href="#DejaVuSans-30" x="127.246094"/>
      </g>
     </g>
    </g>
    <g id="xtick_12">
     <g id="line2d_22">
      <g>
       <use xlink:href="#ma7947f6b69" x="74.7804" y="233.28" style="fill: #262626; stroke: #262626; stroke-width: 1.25"/>
      </g>
     </g>
     <g id="text_16">
      <!-- 600 -->
      <g style="fill: #262626" transform="translate(64.282275 251.138281) scale(0.11 -0.11)">
       <use xlink:href="#DejaVuSans-36"/>
       <use xlink:href="#DejaVuSans-30" x="63.623047"/>
       <use xlink:href="#DejaVuSans-30" x="127.246094"/>
      </g>
     </g>
    </g>
    <g id="xtick_13">
     <g id="line2d_23">
      <g>
       <use xlink:href="#ma7947f6b69" x="116.0444" y="233.28" style="fill: #262626; stroke: #262626; stroke-width: 1.25"/>
      </g>
     </g>
     <g id="text_17">
      <!-- 700 -->
      <g style="fill: #262626" transform="translate(105.546275 251.138281) scale(0.11 -0.11)">
       <use xlink:href="#DejaVuSans-37"/>
       <use xlink:href="#DejaVuSans-30" x="63.623047"/>
       <use xlink:href="#DejaVuSans-30" x="127.246094"/>
      </g>
     </g>
    </g>
    <g id="xtick_14">
     <g id="line2d_24">
      <g>
       <use xlink:href="#ma7947f6b69" x="157.3084" y="233.28" style="fill: #262626; stroke: #262626; stroke-width: 1.25"/>
      </g>
     </g>
     <g id="text_18">
      <!-- 800 -->
      <g style="fill: #262626" transform="translate(146.810275 251.138281) scale(0.11 -0.11)">
       <use xlink:href="#DejaVuSans-38"/>
       <use xlink:href="#DejaVuSans-30" x="63.623047"/>
       <use xlink:href="#DejaVuSans-30" x="127.246094"/>
      </g>
     </g>
    </g>
    <g id="xtick_15">
     <g id="line2d_25">
      <g>
       <use xlink:href="#ma7947f6b69" x="198.5724" y="233.28" style="fill: #262626; stroke: #262626; stroke-width: 1.25"/>
      </g>
     </g>
     <g id="text_19">
      <!-- 900 -->
      <g style="fill: #262626" transform="translate(188.074275 251.138281) scale(0.11 -0.11)">
       <use xlink:href="#DejaVuSans-39"/>
       <use xlink:href="#DejaVuSans-30" x="63.623047"/>
       <use xlink:href="#DejaVuSans-30" x="127.246094"/>
      </g>
     </g>
    </g>
    <g id="text_20">
     <!-- t (ms) -->
     <g style="fill: #262626" transform="translate(114.639062 266.544062) scale(0.12 -0.12)">
      <defs>
       <path id="DejaVuSans-74" d="M 1172 4494 
L 1172 3500 
L 2356 3500 
L 2356 3053 
L 1172 3053 
L 1172 1153 
Q 1172 725 1289 603 
Q 1406 481 1766 481 
L 2356 481 
L 2356 0 
L 1766 0 
Q 1100 0 847 248 
Q 594 497 594 1153 
L 594 3053 
L 172 3053 
L 172 3500 
L 594 3500 
L 594 4494 
L 1172 4494 
z
" transform="scale(0.015625)"/>
       <path id="DejaVuSans-20" transform="scale(0.015625)"/>
       <path id="DejaVuSans-28" d="M 1984 4856 
Q 1566 4138 1362 3434 
Q 1159 2731 1159 2009 
Q 1159 1288 1364 580 
Q 1569 -128 1984 -844 
L 1484 -844 
Q 1016 -109 783 600 
Q 550 1309 550 2009 
Q 550 2706 781 3412 
Q 1013 4119 1484 4856 
L 1984 4856 
z
" transform="scale(0.015625)"/>
       <path id="DejaVuSans-6d" d="M 3328 2828 
Q 3544 3216 3844 3400 
Q 4144 3584 4550 3584 
Q 5097 3584 5394 3201 
Q 5691 2819 5691 2113 
L 5691 0 
L 5113 0 
L 5113 2094 
Q 5113 2597 4934 2840 
Q 4756 3084 4391 3084 
Q 3944 3084 3684 2787 
Q 3425 2491 3425 1978 
L 3425 0 
L 2847 0 
L 2847 2094 
Q 2847 2600 2669 2842 
Q 2491 3084 2119 3084 
Q 1678 3084 1418 2786 
Q 1159 2488 1159 1978 
L 1159 0 
L 581 0 
L 581 3500 
L 1159 3500 
L 1159 2956 
Q 1356 3278 1631 3431 
Q 1906 3584 2284 3584 
Q 2666 3584 2933 3390 
Q 3200 3197 3328 2828 
z
" transform="scale(0.015625)"/>
       <path id="DejaVuSans-73" d="M 2834 3397 
L 2834 2853 
Q 2591 2978 2328 3040 
Q 2066 3103 1784 3103 
Q 1356 3103 1142 2972 
Q 928 2841 928 2578 
Q 928 2378 1081 2264 
Q 1234 2150 1697 2047 
L 1894 2003 
Q 2506 1872 2764 1633 
Q 3022 1394 3022 966 
Q 3022 478 2636 193 
Q 2250 -91 1575 -91 
Q 1294 -91 989 -36 
Q 684 19 347 128 
L 347 722 
Q 666 556 975 473 
Q 1284 391 1588 391 
Q 1994 391 2212 530 
Q 2431 669 2431 922 
Q 2431 1156 2273 1281 
Q 2116 1406 1581 1522 
L 1381 1569 
Q 847 1681 609 1914 
Q 372 2147 372 2553 
Q 372 3047 722 3315 
Q 1072 3584 1716 3584 
Q 2034 3584 2315 3537 
Q 2597 3491 2834 3397 
z
" transform="scale(0.015625)"/>
       <path id="DejaVuSans-29" d="M 513 4856 
L 1013 4856 
Q 1481 4119 1714 3412 
Q 1947 2706 1947 2009 
Q 1947 1309 1714 600 
Q 1481 -109 1013 -844 
L 513 -844 
Q 928 -128 1133 580 
Q 1338 1288 1338 2009 
Q 1338 2731 1133 3434 
Q 928 4138 513 4856 
z
" transform="scale(0.015625)"/>
      </defs>
      <use xlink:href="#DejaVuSans-74"/>
      <use xlink:href="#DejaVuSans-20" x="39.208984"/>
      <use xlink:href="#DejaVuSans-28" x="70.996094"/>
      <use xlink:href="#DejaVuSans-6d" x="110.009766"/>
      <use xlink:href="#DejaVuSans-73" x="207.421875"/>
      <use xlink:href="#DejaVuSans-29" x="259.521484"/>
     </g>
    </g>
   </g>
   <g id="matplotlib.axis_6">
    <g id="ytick_5">
     <g id="line2d_26">
      <g>
       <use xlink:href="#m1a03e53d7a" x="29.39" y="222.770166" style="fill: #262626; stroke: #262626; stroke-width: 1.25"/>
      </g>
     </g>
     <g id="text_21">
      <!-- 0 -->
      <g style="fill: #262626" transform="translate(12.89125 226.949306) scale(0.11 -0.11)">
       <use xlink:href="#DejaVuSans-30"/>
      </g>
     </g>
    </g>
    <g id="ytick_6">
     <g id="line2d_27">
      <g>
       <use xlink:href="#m1a03e53d7a" x="29.39" y="185.45096" style="fill: #262626; stroke: #262626; stroke-width: 1.25"/>
      </g>
     </g>
     <g id="text_22">
      <!-- 1 -->
      <g style="fill: #262626" transform="translate(12.89125 189.6301) scale(0.11 -0.11)">
       <use xlink:href="#DejaVuSans-31"/>
      </g>
     </g>
    </g>
   </g>
   <g id="line2d_28">
    <path d="M 29.353792 222.592534 
L 34.429391 222.509408 
L 35.254692 222.144383 
L 37.152883 220.958612 
L 40.701676 218.832414 
L 44.332999 216.922645 
L 48.170647 215.15702 
L 52.29715 213.506439 
L 56.712508 211.982501 
L 61.499252 210.569371 
L 66.698646 209.270401 
L 72.39322 208.081414 
L 78.665505 207.003224 
L 85.639296 206.03397 
L 93.520917 205.168429 
L 103.011874 204.184013 
L 103.300729 203.687662 
L 103.672115 202.47505 
L 104.662475 197.909148 
L 105.941691 192.558968 
L 106.725727 190.074355 
L 107.427233 188.556624 
L 108.087473 187.612018 
L 108.623919 187.159747 
L 109.242894 187.027237 
L 111.677531 186.900142 
L 112.255241 187.026917 
L 113.534457 187.596245 
L 116.257949 189.095881 
L 121.209753 191.79557 
L 124.717281 193.440317 
L 128.307339 194.87672 
L 132.103722 196.152685 
L 136.18896 197.28673 
L 140.645583 198.288099 
L 145.556122 199.159604 
L 151.085636 199.910957 
L 157.440451 200.545153 
L 164.991952 201.067495 
L 171.800683 201.557483 
L 172.048273 202.034087 
L 172.337128 203.246611 
L 172.708513 205.982971 
L 174.689235 222.681802 
L 175.39074 226.227545 
L 176.009716 228.321791 
L 176.628691 229.693167 
L 177.247667 230.563492 
L 177.701582 230.879734 
L 178.320558 231.005984 
L 180.425074 231.070847 
L 181.085315 230.9713 
L 182.034411 230.541561 
L 183.767542 229.485334 
L 186.738624 227.379762 
L 195.569341 221.021625 
L 199.902169 218.226185 
L 203.987408 215.851685 
L 207.990116 213.780493 
L 211.992824 211.958833 
L 216.078062 210.344771 
L 220.287095 208.921405 
L 224.702454 207.663537 
L 229.406667 206.555621 
L 234.523531 205.582139 
L 235.720217 205.384834 
L 235.720217 205.384834 
" clip-path="url(#pb507c94532)" style="fill: none; stroke: #999933; stroke-width: 1.5; stroke-linecap: round"/>
   </g>
   <g id="patch_13">
    <path d="M 29.39 233.28 
L 29.39 184.691577 
" style="fill: none; stroke: #262626; stroke-width: 1.25; stroke-linejoin: miter; stroke-linecap: square"/>
   </g>
   <g id="patch_14">
    <path d="M 235.71 233.28 
L 235.71 184.691577 
" style="fill: none; stroke: #262626; stroke-width: 1.25; stroke-linejoin: miter; stroke-linecap: square"/>
   </g>
   <g id="patch_15">
    <path d="M 29.39 233.28 
L 235.71 233.28 
" style="fill: none; stroke: #262626; stroke-width: 1.25; stroke-linejoin: miter; stroke-linecap: square"/>
   </g>
   <g id="patch_16">
    <path d="M 29.39 184.691577 
L 235.71 184.691577 
" style="fill: none; stroke: #262626; stroke-width: 1.25; stroke-linejoin: miter; stroke-linecap: square"/>
   </g>
  </g>
  <g id="axes_4">
   <g id="patch_17">
    <path d="M 284.72 62.950041 
L 491.04 62.950041 
L 491.04 14.361618 
L 284.72 14.361618 
z
" style="fill: #ffffff"/>
   </g>
   <g id="matplotlib.axis_7">
    <g id="xtick_16">
     <g id="line2d_29">
      <g>
       <use xlink:href="#ma7947f6b69" x="288.8464" y="62.950041" style="fill: #262626; stroke: #262626; stroke-width: 1.25"/>
      </g>
     </g>
     <g id="text_23">
      <!-- 500 -->
      <g style="fill: #262626" transform="translate(278.348275 80.808322) scale(0.11 -0.11)">
       <use xlink:href="#DejaVuSans-35"/>
       <use xlink:href="#DejaVuSans-30" x="63.623047"/>
       <use xlink:href="#DejaVuSans-30" x="127.246094"/>
      </g>
     </g>
    </g>
    <g id="xtick_17">
     <g id="line2d_30">
      <g>
       <use xlink:href="#ma7947f6b69" x="330.1104" y="62.950041" style="fill: #262626; stroke: #262626; stroke-width: 1.25"/>
      </g>
     </g>
     <g id="text_24">
      <!-- 600 -->
      <g style="fill: #262626" transform="translate(319.612275 80.808322) scale(0.11 -0.11)">
       <use xlink:href="#DejaVuSans-36"/>
       <use xlink:href="#DejaVuSans-30" x="63.623047"/>
       <use xlink:href="#DejaVuSans-30" x="127.246094"/>
      </g>
     </g>
    </g>
    <g id="xtick_18">
     <g id="line2d_31">
      <g>
       <use xlink:href="#ma7947f6b69" x="371.3744" y="62.950041" style="fill: #262626; stroke: #262626; stroke-width: 1.25"/>
      </g>
     </g>
     <g id="text_25">
      <!-- 700 -->
      <g style="fill: #262626" transform="translate(360.876275 80.808322) scale(0.11 -0.11)">
       <use xlink:href="#DejaVuSans-37"/>
       <use xlink:href="#DejaVuSans-30" x="63.623047"/>
       <use xlink:href="#DejaVuSans-30" x="127.246094"/>
      </g>
     </g>
    </g>
    <g id="xtick_19">
     <g id="line2d_32">
      <g>
       <use xlink:href="#ma7947f6b69" x="412.6384" y="62.950041" style="fill: #262626; stroke: #262626; stroke-width: 1.25"/>
      </g>
     </g>
     <g id="text_26">
      <!-- 800 -->
      <g style="fill: #262626" transform="translate(402.140275 80.808322) scale(0.11 -0.11)">
       <use xlink:href="#DejaVuSans-38"/>
       <use xlink:href="#DejaVuSans-30" x="63.623047"/>
       <use xlink:href="#DejaVuSans-30" x="127.246094"/>
      </g>
     </g>
    </g>
    <g id="xtick_20">
     <g id="line2d_33">
      <g>
       <use xlink:href="#ma7947f6b69" x="453.9024" y="62.950041" style="fill: #262626; stroke: #262626; stroke-width: 1.25"/>
      </g>
     </g>
     <g id="text_27">
      <!-- 900 -->
      <g style="fill: #262626" transform="translate(443.404275 80.808322) scale(0.11 -0.11)">
       <use xlink:href="#DejaVuSans-39"/>
       <use xlink:href="#DejaVuSans-30" x="63.623047"/>
       <use xlink:href="#DejaVuSans-30" x="127.246094"/>
      </g>
     </g>
    </g>
   </g>
   <g id="matplotlib.axis_8">
    <g id="ytick_7">
     <g id="line2d_34">
      <g>
       <use xlink:href="#m1a03e53d7a" x="284.72" y="60.741476" style="fill: #262626; stroke: #262626; stroke-width: 1.25"/>
      </g>
     </g>
     <g id="text_28">
      <!-- 0 -->
      <g style="fill: #262626" transform="translate(268.22125 64.920616) scale(0.11 -0.11)">
       <use xlink:href="#DejaVuSans-30"/>
      </g>
     </g>
    </g>
    <g id="ytick_8">
     <g id="line2d_35">
      <g>
       <use xlink:href="#m1a03e53d7a" x="284.72" y="16.570182" style="fill: #262626; stroke: #262626; stroke-width: 1.25"/>
      </g>
     </g>
     <g id="text_29">
      <!-- 1 -->
      <g style="fill: #262626" transform="translate(268.22125 20.749323) scale(0.11 -0.11)">
       <use xlink:href="#DejaVuSans-31"/>
      </g>
     </g>
    </g>
   </g>
   <g id="line2d_36">
    <path d="M 284.683792 60.741476 
L 288.727765 60.741476 
L 288.85156 16.570182 
L 491.050217 16.570182 
L 491.050217 16.570182 
" clip-path="url(#pdd6a1bef65)" style="fill: none; stroke-dasharray: 5.55,2.4; stroke-dashoffset: 0; stroke: #117733; stroke-width: 1.5"/>
   </g>
   <g id="line2d_37">
    <path d="M 284.683792 16.570182 
L 426.222852 16.570182 
L 426.346647 60.741476 
L 491.050217 60.741476 
L 491.050217 60.741476 
" clip-path="url(#pdd6a1bef65)" style="fill: none; stroke: #88ccee; stroke-width: 1.5; stroke-linecap: round"/>
   </g>
   <g id="line2d_38">
    <path d="M 284.683792 16.570182 
L 357.475308 16.570182 
L 357.599104 60.741476 
L 491.050217 60.741476 
L 491.050217 60.741476 
" clip-path="url(#pdd6a1bef65)" style="fill: none; stroke-dasharray: 1.5,2.475; stroke-dashoffset: 0; stroke: #cc6677; stroke-width: 1.5"/>
   </g>
   <g id="patch_18">
    <path d="M 284.72 62.950041 
L 284.72 14.361618 
" style="fill: none; stroke: #262626; stroke-width: 1.25; stroke-linejoin: miter; stroke-linecap: square"/>
   </g>
   <g id="patch_19">
    <path d="M 491.04 62.950041 
L 491.04 14.361618 
" style="fill: none; stroke: #262626; stroke-width: 1.25; stroke-linejoin: miter; stroke-linecap: square"/>
   </g>
   <g id="patch_20">
    <path d="M 284.72 62.950041 
L 491.04 62.950041 
" style="fill: none; stroke: #262626; stroke-width: 1.25; stroke-linejoin: miter; stroke-linecap: square"/>
   </g>
   <g id="patch_21">
    <path d="M 284.72 14.361618 
L 491.04 14.361618 
" style="fill: none; stroke: #262626; stroke-width: 1.25; stroke-linejoin: miter; stroke-linecap: square"/>
   </g>
  </g>
  <g id="axes_5">
   <g id="patch_22">
    <path d="M 284.72 148.11502 
L 491.04 148.11502 
L 491.04 99.526597 
L 284.72 99.526597 
z
" style="fill: #ffffff"/>
   </g>
   <g id="matplotlib.axis_9">
    <g id="xtick_21">
     <g id="line2d_39">
      <g>
       <use xlink:href="#ma7947f6b69" x="288.8464" y="148.11502" style="fill: #262626; stroke: #262626; stroke-width: 1.25"/>
      </g>
     </g>
     <g id="text_30">
      <!-- 500 -->
      <g style="fill: #262626" transform="translate(278.348275 165.973302) scale(0.11 -0.11)">
       <use xlink:href="#DejaVuSans-35"/>
       <use xlink:href="#DejaVuSans-30" x="63.623047"/>
       <use xlink:href="#DejaVuSans-30" x="127.246094"/>
      </g>
     </g>
    </g>
    <g id="xtick_22">
     <g id="line2d_40">
      <g>
       <use xlink:href="#ma7947f6b69" x="330.1104" y="148.11502" style="fill: #262626; stroke: #262626; stroke-width: 1.25"/>
      </g>
     </g>
     <g id="text_31">
      <!-- 600 -->
      <g style="fill: #262626" transform="translate(319.612275 165.973302) scale(0.11 -0.11)">
       <use xlink:href="#DejaVuSans-36"/>
       <use xlink:href="#DejaVuSans-30" x="63.623047"/>
       <use xlink:href="#DejaVuSans-30" x="127.246094"/>
      </g>
     </g>
    </g>
    <g id="xtick_23">
     <g id="line2d_41">
      <g>
       <use xlink:href="#ma7947f6b69" x="371.3744" y="148.11502" style="fill: #262626; stroke: #262626; stroke-width: 1.25"/>
      </g>
     </g>
     <g id="text_32">
      <!-- 700 -->
      <g style="fill: #262626" transform="translate(360.876275 165.973302) scale(0.11 -0.11)">
       <use xlink:href="#DejaVuSans-37"/>
       <use xlink:href="#DejaVuSans-30" x="63.623047"/>
       <use xlink:href="#DejaVuSans-30" x="127.246094"/>
      </g>
     </g>
    </g>
    <g id="xtick_24">
     <g id="line2d_42">
      <g>
       <use xlink:href="#ma7947f6b69" x="412.6384" y="148.11502" style="fill: #262626; stroke: #262626; stroke-width: 1.25"/>
      </g>
     </g>
     <g id="text_33">
      <!-- 800 -->
      <g style="fill: #262626" transform="translate(402.140275 165.973302) scale(0.11 -0.11)">
       <use xlink:href="#DejaVuSans-38"/>
       <use xlink:href="#DejaVuSans-30" x="63.623047"/>
       <use xlink:href="#DejaVuSans-30" x="127.246094"/>
      </g>
     </g>
    </g>
    <g id="xtick_25">
     <g id="line2d_43">
      <g>
       <use xlink:href="#ma7947f6b69" x="453.9024" y="148.11502" style="fill: #262626; stroke: #262626; stroke-width: 1.25"/>
      </g>
     </g>
     <g id="text_34">
      <!-- 900 -->
      <g style="fill: #262626" transform="translate(443.404275 165.973302) scale(0.11 -0.11)">
       <use xlink:href="#DejaVuSans-39"/>
       <use xlink:href="#DejaVuSans-30" x="63.623047"/>
       <use xlink:href="#DejaVuSans-30" x="127.246094"/>
      </g>
     </g>
    </g>
   </g>
   <g id="matplotlib.axis_10">
    <g id="ytick_9">
     <g id="line2d_44">
      <g>
       <use xlink:href="#m1a03e53d7a" x="284.72" y="145.906456" style="fill: #262626; stroke: #262626; stroke-width: 1.25"/>
      </g>
     </g>
     <g id="text_35">
      <!-- 0 -->
      <g style="fill: #262626" transform="translate(268.22125 150.085596) scale(0.11 -0.11)">
       <use xlink:href="#DejaVuSans-30"/>
      </g>
     </g>
    </g>
    <g id="ytick_10">
     <g id="line2d_45">
      <g>
       <use xlink:href="#m1a03e53d7a" x="284.72" y="102.925542" style="fill: #262626; stroke: #262626; stroke-width: 1.25"/>
      </g>
     </g>
     <g id="text_36">
      <!-- 1 -->
      <g style="fill: #262626" transform="translate(268.22125 107.104682) scale(0.11 -0.11)">
       <use xlink:href="#DejaVuSans-31"/>
      </g>
     </g>
    </g>
   </g>
   <g id="line2d_46">
    <path d="M 284.683792 102.925542 
L 289.264211 103.031631 
L 289.841921 103.458219 
L 291.698847 105.27657 
L 295.4127 108.7748 
L 299.167818 112.006136 
L 303.005466 115.018153 
L 306.966909 117.846895 
L 311.052147 120.492983 
L 315.302446 122.981456 
L 319.717804 125.30886 
L 324.339488 127.492331 
L 329.167496 129.526481 
L 334.243095 131.42313 
L 339.60755 133.18955 
L 345.302124 134.829542 
L 351.409349 136.354089 
L 357.970489 137.758969 
L 365.026809 139.040164 
L 372.74337 140.211786 
L 381.202702 141.267786 
L 390.611129 142.21392 
L 401.174977 143.048272 
L 413.265632 143.774498 
L 427.337008 144.390763 
L 444.214406 144.899763 
L 465.259572 145.302092 
L 491.050217 145.58306 
L 491.050217 145.58306 
" clip-path="url(#p4ef120b29d)" style="fill: none; stroke-dasharray: 5.55,2.4; stroke-dashoffset: 0; stroke: #117733; stroke-width: 1.5"/>
   </g>
   <g id="line2d_47">
    <path d="M 284.683792 145.906456 
L 426.676767 145.815754 
L 426.883092 145.420595 
L 427.130683 144.289622 
L 427.460803 141.529558 
L 430.47315 110.772717 
L 431.133391 106.990184 
L 431.752366 104.573298 
L 432.330077 103.097158 
L 432.866522 102.261743 
L 433.361702 101.856968 
L 433.856883 101.735162 
L 434.352063 101.840808 
L 434.971039 102.223484 
L 435.755074 103.004578 
L 436.827965 104.427971 
L 438.519831 107.100516 
L 444.049346 116.053732 
L 446.566513 119.595955 
L 449.00115 122.643508 
L 451.477051 125.388462 
L 453.994218 127.850027 
L 456.593915 130.083651 
L 459.317408 132.128209 
L 462.164695 133.983916 
L 465.135777 135.654399 
L 468.313185 137.182764 
L 471.696917 138.560691 
L 475.32824 139.798291 
L 479.289683 140.911858 
L 483.663776 141.907144 
L 488.53305 142.783652 
L 491.050217 143.15854 
L 491.050217 143.15854 
" clip-path="url(#p4ef120b29d)" style="fill: none; stroke: #88ccee; stroke-width: 1.5; stroke-linecap: round"/>
   </g>
   <g id="line2d_48">
    <path d="M 284.683792 145.906456 
L 358.094284 145.818631 
L 358.300609 145.511338 
L 358.548199 144.609275 
L 358.837055 142.596639 
L 359.332235 137.105602 
L 360.859041 119.506336 
L 361.766872 111.605192 
L 362.427112 107.689406 
L 363.046088 105.210966 
L 363.665063 103.596639 
L 363.995184 103.156586 
L 364.407834 102.986273 
L 365.315665 102.928695 
L 367.213856 103.001091 
L 367.750301 103.428648 
L 368.781927 104.592269 
L 370.597589 107.012659 
L 377.860234 116.984792 
L 380.748787 120.440752 
L 383.596074 123.502182 
L 386.443361 126.237289 
L 389.331913 128.702884 
L 392.26173 130.913086 
L 395.274078 132.909703 
L 398.41022 134.722485 
L 401.711423 136.371318 
L 405.177686 137.852155 
L 408.891538 139.193008 
L 412.852981 140.384829 
L 417.18581 141.452775 
L 421.972554 142.398228 
L 427.295743 143.218937 
L 433.361702 143.925009 
L 440.459288 144.520911 
L 449.00115 145.006613 
L 459.730058 145.383762 
L 474.172819 145.655139 
L 491.050217 145.799704 
L 491.050217 145.799704 
" clip-path="url(#p4ef120b29d)" style="fill: none; stroke-dasharray: 1.5,2.475; stroke-dashoffset: 0; stroke: #cc6677; stroke-width: 1.5"/>
   </g>
   <g id="patch_23">
    <path d="M 284.72 148.11502 
L 284.72 99.526597 
" style="fill: none; stroke: #262626; stroke-width: 1.25; stroke-linejoin: miter; stroke-linecap: square"/>
   </g>
   <g id="patch_24">
    <path d="M 491.04 148.11502 
L 491.04 99.526597 
" style="fill: none; stroke: #262626; stroke-width: 1.25; stroke-linejoin: miter; stroke-linecap: square"/>
   </g>
   <g id="patch_25">
    <path d="M 284.72 148.11502 
L 491.04 148.11502 
" style="fill: none; stroke: #262626; stroke-width: 1.25; stroke-linejoin: miter; stroke-linecap: square"/>
   </g>
   <g id="patch_26">
    <path d="M 284.72 99.526597 
L 491.04 99.526597 
" style="fill: none; stroke: #262626; stroke-width: 1.25; stroke-linejoin: miter; stroke-linecap: square"/>
   </g>
  </g>
  <g id="axes_6">
   <g id="patch_27">
    <path d="M 284.72 233.28 
L 491.04 233.28 
L 491.04 184.691577 
L 284.72 184.691577 
z
" style="fill: #ffffff"/>
   </g>
   <g id="matplotlib.axis_11">
    <g id="xtick_26">
     <g id="line2d_49">
      <g>
       <use xlink:href="#ma7947f6b69" x="288.8464" y="233.28" style="fill: #262626; stroke: #262626; stroke-width: 1.25"/>
      </g>
     </g>
     <g id="text_37">
      <!-- 500 -->
      <g style="fill: #262626" transform="translate(278.348275 251.138281) scale(0.11 -0.11)">
       <use xlink:href="#DejaVuSans-35"/>
       <use xlink:href="#DejaVuSans-30" x="63.623047"/>
       <use xlink:href="#DejaVuSans-30" x="127.246094"/>
      </g>
     </g>
    </g>
    <g id="xtick_27">
     <g id="line2d_50">
      <g>
       <use xlink:href="#ma7947f6b69" x="330.1104" y="233.28" style="fill: #262626; stroke: #262626; stroke-width: 1.25"/>
      </g>
     </g>
     <g id="text_38">
      <!-- 600 -->
      <g style="fill: #262626" transform="translate(319.612275 251.138281) scale(0.11 -0.11)">
       <use xlink:href="#DejaVuSans-36"/>
       <use xlink:href="#DejaVuSans-30" x="63.623047"/>
       <use xlink:href="#DejaVuSans-30" x="127.246094"/>
      </g>
     </g>
    </g>
    <g id="xtick_28">
     <g id="line2d_51">
      <g>
       <use xlink:href="#ma7947f6b69" x="371.3744" y="233.28" style="fill: #262626; stroke: #262626; stroke-width: 1.25"/>
      </g>
     </g>
     <g id="text_39">
      <!-- 700 -->
      <g style="fill: #262626" transform="translate(360.876275 251.138281) scale(0.11 -0.11)">
       <use xlink:href="#DejaVuSans-37"/>
       <use xlink:href="#DejaVuSans-30" x="63.623047"/>
       <use xlink:href="#DejaVuSans-30" x="127.246094"/>
      </g>
     </g>
    </g>
    <g id="xtick_29">
     <g id="line2d_52">
      <g>
       <use xlink:href="#ma7947f6b69" x="412.6384" y="233.28" style="fill: #262626; stroke: #262626; stroke-width: 1.25"/>
      </g>
     </g>
     <g id="text_40">
      <!-- 800 -->
      <g style="fill: #262626" transform="translate(402.140275 251.138281) scale(0.11 -0.11)">
       <use xlink:href="#DejaVuSans-38"/>
       <use xlink:href="#DejaVuSans-30" x="63.623047"/>
       <use xlink:href="#DejaVuSans-30" x="127.246094"/>
      </g>
     </g>
    </g>
    <g id="xtick_30">
     <g id="line2d_53">
      <g>
       <use xlink:href="#ma7947f6b69" x="453.9024" y="233.28" style="fill: #262626; stroke: #262626; stroke-width: 1.25"/>
      </g>
     </g>
     <g id="text_41">
      <!-- 900 -->
      <g style="fill: #262626" transform="translate(443.404275 251.138281) scale(0.11 -0.11)">
       <use xlink:href="#DejaVuSans-39"/>
       <use xlink:href="#DejaVuSans-30" x="63.623047"/>
       <use xlink:href="#DejaVuSans-30" x="127.246094"/>
      </g>
     </g>
    </g>
    <g id="text_42">
     <!-- t (ms) -->
     <g style="fill: #262626" transform="translate(369.969063 266.544062) scale(0.12 -0.12)">
      <use xlink:href="#DejaVuSans-74"/>
      <use xlink:href="#DejaVuSans-20" x="39.208984"/>
      <use xlink:href="#DejaVuSans-28" x="70.996094"/>
      <use xlink:href="#DejaVuSans-6d" x="110.009766"/>
      <use xlink:href="#DejaVuSans-73" x="207.421875"/>
      <use xlink:href="#DejaVuSans-29" x="259.521484"/>
     </g>
    </g>
   </g>
   <g id="matplotlib.axis_12">
    <g id="ytick_11">
     <g id="line2d_54">
      <g>
       <use xlink:href="#m1a03e53d7a" x="284.72" y="227.40622" style="fill: #262626; stroke: #262626; stroke-width: 1.25"/>
      </g>
     </g>
     <g id="text_43">
      <!-- −0.5 -->
      <g style="fill: #262626" transform="translate(248.508906 231.585361) scale(0.11 -0.11)">
       <defs>
        <path id="DejaVuSans-2212" d="M 678 2272 
L 4684 2272 
L 4684 1741 
L 678 1741 
L 678 2272 
z
" transform="scale(0.015625)"/>
        <path id="DejaVuSans-2e" d="M 684 794 
L 1344 794 
L 1344 0 
L 684 0 
L 684 794 
z
" transform="scale(0.015625)"/>
       </defs>
       <use xlink:href="#DejaVuSans-2212"/>
       <use xlink:href="#DejaVuSans-30" x="83.789062"/>
       <use xlink:href="#DejaVuSans-2e" x="147.412109"/>
       <use xlink:href="#DejaVuSans-35" x="179.199219"/>
      </g>
     </g>
    </g>
    <g id="ytick_12">
     <g id="line2d_55">
      <g>
       <use xlink:href="#m1a03e53d7a" x="284.72" y="208.219127" style="fill: #262626; stroke: #262626; stroke-width: 1.25"/>
      </g>
     </g>
     <g id="text_44">
      <!-- 0.0 -->
      <g style="fill: #262626" transform="translate(257.726562 212.398267) scale(0.11 -0.11)">
       <use xlink:href="#DejaVuSans-30"/>
       <use xlink:href="#DejaVuSans-2e" x="63.623047"/>
       <use xlink:href="#DejaVuSans-30" x="95.410156"/>
      </g>
     </g>
    </g>
    <g id="ytick_13">
     <g id="line2d_56">
      <g>
       <use xlink:href="#m1a03e53d7a" x="284.72" y="189.032033" style="fill: #262626; stroke: #262626; stroke-width: 1.25"/>
      </g>
     </g>
     <g id="text_45">
      <!-- 0.5 -->
      <g style="fill: #262626" transform="translate(257.726562 193.211174) scale(0.11 -0.11)">
       <use xlink:href="#DejaVuSans-30"/>
       <use xlink:href="#DejaVuSans-2e" x="63.623047"/>
       <use xlink:href="#DejaVuSans-35" x="95.410156"/>
      </g>
     </g>
    </g>
   </g>
   <g id="line2d_57">
    <path d="M 284.683792 186.900142 
L 289.759391 187.00191 
L 290.873547 187.42031 
L 298.878963 190.745537 
L 304.532272 192.802364 
L 310.433172 194.711606 
L 316.581662 196.466735 
L 323.060272 198.084046 
L 329.951532 199.572618 
L 337.296708 200.929051 
L 345.219594 202.162558 
L 353.802721 203.270823 
L 358.341874 203.886268 
L 358.589464 204.260429 
L 358.87832 205.249361 
L 359.249705 207.593035 
L 361.478017 224.308132 
L 362.138257 227.050351 
L 362.757233 228.763241 
L 363.376208 229.883317 
L 363.995184 230.581102 
L 364.490364 230.817385 
L 365.398195 230.947085 
L 367.585241 231.025907 
L 368.493072 230.735352 
L 370.226203 229.915373 
L 373.156021 228.252452 
L 383.472279 222.250269 
L 388.052697 219.910527 
L 392.426791 217.925584 
L 396.718354 216.221248 
L 401.051182 214.73855 
L 405.549071 213.436302 
L 410.253284 212.307877 
L 415.287618 211.331516 
L 420.775868 210.496938 
L 427.089418 209.553668 
L 427.378273 208.963742 
L 427.708393 207.711005 
L 428.451164 203.598729 
L 429.854175 196.108837 
L 430.679475 192.658321 
L 431.380981 190.620534 
L 432.041221 189.328713 
L 432.618932 188.611251 
L 433.114112 188.400375 
L 434.228268 188.258795 
L 436.12646 188.20261 
L 436.993025 188.590259 
L 438.684892 189.627532 
L 448.340909 195.914368 
L 451.724642 197.686175 
L 455.232169 199.270841 
L 458.904757 200.68631 
L 462.824935 201.958814 
L 467.075234 203.102081 
L 471.696917 204.112812 
L 476.855046 205.008428 
L 482.632151 205.781592 
L 489.317086 206.445413 
L 491.050217 206.585325 
L 491.050217 206.585325 
" clip-path="url(#pdaeb329293)" style="fill: none; stroke: #999933; stroke-width: 1.5; stroke-linecap: round"/>
   </g>
   <g id="patch_28">
    <path d="M 284.72 233.28 
L 284.72 184.691577 
" style="fill: none; stroke: #262626; stroke-width: 1.25; stroke-linejoin: miter; stroke-linecap: square"/>
   </g>
   <g id="patch_29">
    <path d="M 491.04 233.28 
L 491.04 184.691577 
" style="fill: none; stroke: #262626; stroke-width: 1.25; stroke-linejoin: miter; stroke-linecap: square"/>
   </g>
   <g id="patch_30">
    <path d="M 284.72 233.28 
L 491.04 233.28 
" style="fill: none; stroke: #262626; stroke-width: 1.25; stroke-linejoin: miter; stroke-linecap: square"/>
   </g>
   <g id="patch_31">
    <path d="M 284.72 184.691577 
L 491.04 184.691577 
" style="fill: none; stroke: #262626; stroke-width: 1.25; stroke-linejoin: miter; stroke-linecap: square"/>
   </g>
  </g>
 </g>
 <defs>
  <clipPath id="pc6124ab642">
   <rect x="29.39" y="14.361618" width="206.32" height="48.588423"/>
  </clipPath>
  <clipPath id="paf254edbb6">
   <rect x="29.39" y="99.526597" width="206.32" height="48.588423"/>
  </clipPath>
  <clipPath id="pb507c94532">
   <rect x="29.39" y="184.691577" width="206.32" height="48.588423"/>
  </clipPath>
  <clipPath id="pdd6a1bef65">
   <rect x="284.72" y="14.361618" width="206.32" height="48.588423"/>
  </clipPath>
  <clipPath id="p4ef120b29d">
   <rect x="284.72" y="99.526597" width="206.32" height="48.588423"/>
  </clipPath>
  <clipPath id="pdaeb329293">
   <rect x="284.72" y="184.691577" width="206.32" height="48.588423"/>
  </clipPath>
 </defs>
</svg>
