<?xml version="1.0" encoding="utf-8" standalone="no"?>
<!DOCTYPE svg PUBLIC "-//W3C//DTD SVG 1.1//EN"
  "http://www.w3.org/Graphics/SVG/1.1/DTD/svg11.dtd">
<svg xmlns:xlink="http://www.w3.org/1999/xlink" width="504pt" height="283.5pt" viewBox="0 0 504 283.5" xmlns="http://www.w3.org/2000/svg" version="1.1">
 <metadata>
  <rdf:RDF xmlns:dc="http://purl.org/dc/elements/1.1/" xmlns:cc="http://creativecommons.org/ns#" xmlns:rdf="http://www.w3.org/1999/02/22-rdf-syntax-ns#">
   <cc:Work>
    <dc:type rdf:resource="http://purl.org/dc/dcmitype/StillImage"/>
    <dc:date>2023-03-31T09:54:38.956340</dc:date>
    <dc:format>image/svg+xml</dc:format>
    <dc:creator>
     <cc:Agent>
      <dc:title>Matplotlib v3.5.1, https://matplotlib.org/</dc:title>
     </cc:Agent>
    </dc:creator>
   </cc:Work>
  </rdf:RDF>
 </metadata>
 <defs>
  <style type="text/css">*{stroke-linejoin: round; stroke-linecap: butt}</style>
 </defs>
 <g id="figure_1">
  <g id="patch_1">
   <path d="M 0 283.5 
L 504 283.5 
L 504 0 
L 0 0 
z
" style="fill: #ffffff"/>
  </g>
  <g id="axes_1">
   <g id="patch_2">
    <path d="M 28.58 64.371291 
L 237.735 64.371291 
L 237.735 14.001618 
L 28.58 14.001618 
z
" style="fill: #ffffff"/>
   </g>
   <g id="matplotlib.axis_1">
    <g id="xtick_1">
     <g id="line2d_1">
      <defs>
       <path id="mcf93976fe4" d="M 0 0 
L 0 6 
" style="stroke: #262626; stroke-width: 1.25"/>
      </defs>
      <g>
       <use xlink:href="#mcf93976fe4" x="32.7631" y="64.371291" style="fill: #262626; stroke: #262626; stroke-width: 1.25"/>
      </g>
     </g>
     <g id="text_1">
      <!-- 500 -->
      <g style="fill: #262626" transform="translate(23.587553 81.744884)scale(0.11 -0.11)">
       <defs>
        <path id="ArialMT-35" d="M 266 1200 
L 856 1250 
Q 922 819 1161 601 
Q 1400 384 1738 384 
Q 2144 384 2425 690 
Q 2706 997 2706 1503 
Q 2706 1984 2436 2262 
Q 2166 2541 1728 2541 
Q 1456 2541 1237 2417 
Q 1019 2294 894 2097 
L 366 2166 
L 809 4519 
L 3088 4519 
L 3088 3981 
L 1259 3981 
L 1013 2750 
Q 1425 3038 1878 3038 
Q 2478 3038 2890 2622 
Q 3303 2206 3303 1553 
Q 3303 931 2941 478 
Q 2500 -78 1738 -78 
Q 1113 -78 717 272 
Q 322 622 266 1200 
z
" transform="scale(0.015625)"/>
        <path id="ArialMT-30" d="M 266 2259 
Q 266 3072 433 3567 
Q 600 4063 929 4331 
Q 1259 4600 1759 4600 
Q 2128 4600 2406 4451 
Q 2684 4303 2865 4023 
Q 3047 3744 3150 3342 
Q 3253 2941 3253 2259 
Q 3253 1453 3087 958 
Q 2922 463 2592 192 
Q 2263 -78 1759 -78 
Q 1097 -78 719 397 
Q 266 969 266 2259 
z
M 844 2259 
Q 844 1131 1108 757 
Q 1372 384 1759 384 
Q 2147 384 2411 759 
Q 2675 1134 2675 2259 
Q 2675 3391 2411 3762 
Q 2147 4134 1753 4134 
Q 1366 4134 1134 3806 
Q 844 3388 844 2259 
z
" transform="scale(0.015625)"/>
       </defs>
       <use xlink:href="#ArialMT-35"/>
       <use xlink:href="#ArialMT-30" x="55.615234"/>
       <use xlink:href="#ArialMT-30" x="111.230469"/>
      </g>
     </g>
    </g>
    <g id="xtick_2">
     <g id="line2d_2">
      <g>
       <use xlink:href="#mcf93976fe4" x="74.5941" y="64.371291" style="fill: #262626; stroke: #262626; stroke-width: 1.25"/>
      </g>
     </g>
     <g id="text_2">
      <!-- 600 -->
      <g style="fill: #262626" transform="translate(65.418553 81.744884)scale(0.11 -0.11)">
       <defs>
        <path id="ArialMT-36" d="M 3184 3459 
L 2625 3416 
Q 2550 3747 2413 3897 
Q 2184 4138 1850 4138 
Q 1581 4138 1378 3988 
Q 1113 3794 959 3422 
Q 806 3050 800 2363 
Q 1003 2672 1297 2822 
Q 1591 2972 1913 2972 
Q 2475 2972 2870 2558 
Q 3266 2144 3266 1488 
Q 3266 1056 3080 686 
Q 2894 316 2569 119 
Q 2244 -78 1831 -78 
Q 1128 -78 684 439 
Q 241 956 241 2144 
Q 241 3472 731 4075 
Q 1159 4600 1884 4600 
Q 2425 4600 2770 4297 
Q 3116 3994 3184 3459 
z
M 888 1484 
Q 888 1194 1011 928 
Q 1134 663 1356 523 
Q 1578 384 1822 384 
Q 2178 384 2434 671 
Q 2691 959 2691 1453 
Q 2691 1928 2437 2201 
Q 2184 2475 1800 2475 
Q 1419 2475 1153 2201 
Q 888 1928 888 1484 
z
" transform="scale(0.015625)"/>
       </defs>
       <use xlink:href="#ArialMT-36"/>
       <use xlink:href="#ArialMT-30" x="55.615234"/>
       <use xlink:href="#ArialMT-30" x="111.230469"/>
      </g>
     </g>
    </g>
    <g id="xtick_3">
     <g id="line2d_3">
      <g>
       <use xlink:href="#mcf93976fe4" x="116.4251" y="64.371291" style="fill: #262626; stroke: #262626; stroke-width: 1.25"/>
      </g>
     </g>
     <g id="text_3">
      <!-- 700 -->
      <g style="fill: #262626" transform="translate(107.249553 81.744884)scale(0.11 -0.11)">
       <defs>
        <path id="ArialMT-37" d="M 303 3981 
L 303 4522 
L 3269 4522 
L 3269 4084 
Q 2831 3619 2401 2847 
Q 1972 2075 1738 1259 
Q 1569 684 1522 0 
L 944 0 
Q 953 541 1156 1306 
Q 1359 2072 1739 2783 
Q 2119 3494 2547 3981 
L 303 3981 
z
" transform="scale(0.015625)"/>
       </defs>
       <use xlink:href="#ArialMT-37"/>
       <use xlink:href="#ArialMT-30" x="55.615234"/>
       <use xlink:href="#ArialMT-30" x="111.230469"/>
      </g>
     </g>
    </g>
    <g id="xtick_4">
     <g id="line2d_4">
      <g>
       <use xlink:href="#mcf93976fe4" x="158.2561" y="64.371291" style="fill: #262626; stroke: #262626; stroke-width: 1.25"/>
      </g>
     </g>
     <g id="text_4">
      <!-- 800 -->
      <g style="fill: #262626" transform="translate(149.080553 81.744884)scale(0.11 -0.11)">
       <defs>
        <path id="ArialMT-38" d="M 1131 2484 
Q 781 2613 612 2850 
Q 444 3088 444 3419 
Q 444 3919 803 4259 
Q 1163 4600 1759 4600 
Q 2359 4600 2725 4251 
Q 3091 3903 3091 3403 
Q 3091 3084 2923 2848 
Q 2756 2613 2416 2484 
Q 2838 2347 3058 2040 
Q 3278 1734 3278 1309 
Q 3278 722 2862 322 
Q 2447 -78 1769 -78 
Q 1091 -78 675 323 
Q 259 725 259 1325 
Q 259 1772 486 2073 
Q 713 2375 1131 2484 
z
M 1019 3438 
Q 1019 3113 1228 2906 
Q 1438 2700 1772 2700 
Q 2097 2700 2305 2904 
Q 2513 3109 2513 3406 
Q 2513 3716 2298 3927 
Q 2084 4138 1766 4138 
Q 1444 4138 1231 3931 
Q 1019 3725 1019 3438 
z
M 838 1322 
Q 838 1081 952 856 
Q 1066 631 1291 507 
Q 1516 384 1775 384 
Q 2178 384 2440 643 
Q 2703 903 2703 1303 
Q 2703 1709 2433 1975 
Q 2163 2241 1756 2241 
Q 1359 2241 1098 1978 
Q 838 1716 838 1322 
z
" transform="scale(0.015625)"/>
       </defs>
       <use xlink:href="#ArialMT-38"/>
       <use xlink:href="#ArialMT-30" x="55.615234"/>
       <use xlink:href="#ArialMT-30" x="111.230469"/>
      </g>
     </g>
    </g>
    <g id="xtick_5">
     <g id="line2d_5">
      <g>
       <use xlink:href="#mcf93976fe4" x="200.0871" y="64.371291" style="fill: #262626; stroke: #262626; stroke-width: 1.25"/>
      </g>
     </g>
     <g id="text_5">
      <!-- 900 -->
      <g style="fill: #262626" transform="translate(190.911553 81.744884)scale(0.11 -0.11)">
       <defs>
        <path id="ArialMT-39" d="M 350 1059 
L 891 1109 
Q 959 728 1153 556 
Q 1347 384 1650 384 
Q 1909 384 2104 503 
Q 2300 622 2425 820 
Q 2550 1019 2634 1356 
Q 2719 1694 2719 2044 
Q 2719 2081 2716 2156 
Q 2547 1888 2255 1720 
Q 1963 1553 1622 1553 
Q 1053 1553 659 1965 
Q 266 2378 266 3053 
Q 266 3750 677 4175 
Q 1088 4600 1706 4600 
Q 2153 4600 2523 4359 
Q 2894 4119 3086 3673 
Q 3278 3228 3278 2384 
Q 3278 1506 3087 986 
Q 2897 466 2520 194 
Q 2144 -78 1638 -78 
Q 1100 -78 759 220 
Q 419 519 350 1059 
z
M 2653 3081 
Q 2653 3566 2395 3850 
Q 2138 4134 1775 4134 
Q 1400 4134 1122 3828 
Q 844 3522 844 3034 
Q 844 2597 1108 2323 
Q 1372 2050 1759 2050 
Q 2150 2050 2401 2323 
Q 2653 2597 2653 3081 
z
" transform="scale(0.015625)"/>
       </defs>
       <use xlink:href="#ArialMT-39"/>
       <use xlink:href="#ArialMT-30" x="55.615234"/>
       <use xlink:href="#ArialMT-30" x="111.230469"/>
      </g>
     </g>
    </g>
   </g>
   <g id="matplotlib.axis_2">
    <g id="ytick_1">
     <g id="line2d_6">
      <defs>
       <path id="m2b91720ef1" d="M 0 0 
L -6 0 
" style="stroke: #262626; stroke-width: 1.25"/>
      </defs>
      <g>
       <use xlink:href="#m2b91720ef1" x="28.58" y="62.08176" style="fill: #262626; stroke: #262626; stroke-width: 1.25"/>
      </g>
     </g>
     <g id="text_6">
      <!-- 0 -->
      <g style="fill: #262626" transform="translate(12.962969 66.018557)scale(0.11 -0.11)">
       <use xlink:href="#ArialMT-30"/>
      </g>
     </g>
    </g>
    <g id="ytick_2">
     <g id="line2d_7">
      <g>
       <use xlink:href="#m2b91720ef1" x="28.58" y="16.291148" style="fill: #262626; stroke: #262626; stroke-width: 1.25"/>
      </g>
     </g>
     <g id="text_7">
      <!-- 1 -->
      <g style="fill: #262626" transform="translate(12.962969 20.227945)scale(0.11 -0.11)">
       <defs>
        <path id="ArialMT-31" d="M 2384 0 
L 1822 0 
L 1822 3584 
Q 1619 3391 1289 3197 
Q 959 3003 697 2906 
L 697 3450 
Q 1169 3672 1522 3987 
Q 1875 4303 2022 4600 
L 2384 4600 
L 2384 0 
z
" transform="scale(0.015625)"/>
       </defs>
       <use xlink:href="#ArialMT-31"/>
      </g>
     </g>
    </g>
   </g>
   <g id="line2d_8">
    <path d="M 28.543294 16.291148 
L 32.642835 16.291148 
L 32.768331 62.08176 
L 237.745358 62.08176 
L 237.745358 62.08176 
" clip-path="url(#p513047b13e)" style="fill: none; stroke-dasharray: 5.55,2.4; stroke-dashoffset: 0; stroke: #117733; stroke-width: 1.5"/>
   </g>
   <g id="line2d_9">
    <path d="M 28.543294 16.291148 
L 102.335024 16.291148 
L 102.46052 62.08176 
L 237.745358 62.08176 
L 237.745358 62.08176 
" clip-path="url(#p513047b13e)" style="fill: none; stroke: #88ccee; stroke-width: 1.5; stroke-linecap: round"/>
   </g>
   <g id="line2d_10">
    <path d="M 28.543294 16.291148 
L 172.027213 16.291148 
L 172.152709 62.08176 
L 237.745358 62.08176 
L 237.745358 62.08176 
" clip-path="url(#p513047b13e)" style="fill: none; stroke-dasharray: 1.5,2.475; stroke-dashoffset: 0; stroke: #cc6677; stroke-width: 1.5"/>
   </g>
   <g id="patch_3">
    <path d="M 28.58 64.371291 
L 28.58 14.001618 
" style="fill: none; stroke: #262626; stroke-width: 1.25; stroke-linejoin: miter; stroke-linecap: square"/>
   </g>
   <g id="patch_4">
    <path d="M 237.735 64.371291 
L 237.735 14.001618 
" style="fill: none; stroke: #262626; stroke-width: 1.25; stroke-linejoin: miter; stroke-linecap: square"/>
   </g>
   <g id="patch_5">
    <path d="M 28.58 64.371291 
L 237.735 64.371291 
" style="fill: none; stroke: #262626; stroke-width: 1.25; stroke-linejoin: miter; stroke-linecap: square"/>
   </g>
   <g id="patch_6">
    <path d="M 28.58 14.001618 
L 237.735 14.001618 
" style="fill: none; stroke: #262626; stroke-width: 1.25; stroke-linejoin: miter; stroke-linecap: square"/>
   </g>
  </g>
  <g id="axes_2">
   <g id="patch_7">
    <path d="M 28.58 150.23752 
L 237.735 150.23752 
L 237.735 99.867847 
L 28.58 99.867847 
z
" style="fill: #ffffff"/>
   </g>
   <g id="matplotlib.axis_3">
    <g id="xtick_6">
     <g id="line2d_11">
      <g>
       <use xlink:href="#mcf93976fe4" x="32.7631" y="150.23752" style="fill: #262626; stroke: #262626; stroke-width: 1.25"/>
      </g>
     </g>
     <g id="text_8">
      <!-- 500 -->
      <g style="fill: #262626" transform="translate(23.587553 167.611114)scale(0.11 -0.11)">
       <use xlink:href="#ArialMT-35"/>
       <use xlink:href="#ArialMT-30" x="55.615234"/>
       <use xlink:href="#ArialMT-30" x="111.230469"/>
      </g>
     </g>
    </g>
    <g id="xtick_7">
     <g id="line2d_12">
      <g>
       <use xlink:href="#mcf93976fe4" x="74.5941" y="150.23752" style="fill: #262626; stroke: #262626; stroke-width: 1.25"/>
      </g>
     </g>
     <g id="text_9">
      <!-- 600 -->
      <g style="fill: #262626" transform="translate(65.418553 167.611114)scale(0.11 -0.11)">
       <use xlink:href="#ArialMT-36"/>
       <use xlink:href="#ArialMT-30" x="55.615234"/>
       <use xlink:href="#ArialMT-30" x="111.230469"/>
      </g>
     </g>
    </g>
    <g id="xtick_8">
     <g id="line2d_13">
      <g>
       <use xlink:href="#mcf93976fe4" x="116.4251" y="150.23752" style="fill: #262626; stroke: #262626; stroke-width: 1.25"/>
      </g>
     </g>
     <g id="text_10">
      <!-- 700 -->
      <g style="fill: #262626" transform="translate(107.249553 167.611114)scale(0.11 -0.11)">
       <use xlink:href="#ArialMT-37"/>
       <use xlink:href="#ArialMT-30" x="55.615234"/>
       <use xlink:href="#ArialMT-30" x="111.230469"/>
      </g>
     </g>
    </g>
    <g id="xtick_9">
     <g id="line2d_14">
      <g>
       <use xlink:href="#mcf93976fe4" x="158.2561" y="150.23752" style="fill: #262626; stroke: #262626; stroke-width: 1.25"/>
      </g>
     </g>
     <g id="text_11">
      <!-- 800 -->
      <g style="fill: #262626" transform="translate(149.080553 167.611114)scale(0.11 -0.11)">
       <use xlink:href="#ArialMT-38"/>
       <use xlink:href="#ArialMT-30" x="55.615234"/>
       <use xlink:href="#ArialMT-30" x="111.230469"/>
      </g>
     </g>
    </g>
    <g id="xtick_10">
     <g id="line2d_15">
      <g>
       <use xlink:href="#mcf93976fe4" x="200.0871" y="150.23752" style="fill: #262626; stroke: #262626; stroke-width: 1.25"/>
      </g>
     </g>
     <g id="text_12">
      <!-- 900 -->
      <g style="fill: #262626" transform="translate(190.911553 167.611114)scale(0.11 -0.11)">
       <use xlink:href="#ArialMT-39"/>
       <use xlink:href="#ArialMT-30" x="55.615234"/>
       <use xlink:href="#ArialMT-30" x="111.230469"/>
      </g>
     </g>
    </g>
   </g>
   <g id="matplotlib.axis_4">
    <g id="ytick_3">
     <g id="line2d_16">
      <g>
       <use xlink:href="#m2b91720ef1" x="28.58" y="147.94799" style="fill: #262626; stroke: #262626; stroke-width: 1.25"/>
      </g>
     </g>
     <g id="text_13">
      <!-- 0 -->
      <g style="fill: #262626" transform="translate(12.962969 151.884787)scale(0.11 -0.11)">
       <use xlink:href="#ArialMT-30"/>
      </g>
     </g>
    </g>
    <g id="ytick_4">
     <g id="line2d_17">
      <g>
       <use xlink:href="#m2b91720ef1" x="28.58" y="103.391397" style="fill: #262626; stroke: #262626; stroke-width: 1.25"/>
      </g>
     </g>
     <g id="text_14">
      <!-- 1 -->
      <g style="fill: #262626" transform="translate(12.962969 107.328194)scale(0.11 -0.11)">
       <use xlink:href="#ArialMT-31"/>
      </g>
     </g>
    </g>
   </g>
   <g id="line2d_18">
    <path d="M 28.543294 147.611731 
L 33.186652 147.555004 
L 33.688636 147.210743 
L 34.525277 146.30665 
L 40.50726 139.314216 
L 43.728327 136.015868 
L 47.033059 132.946338 
L 50.421455 130.098715 
L 53.935346 127.43507 
L 57.574735 124.956016 
L 61.339619 122.660134 
L 65.271831 120.522752 
L 69.413204 118.527504 
L 73.763736 116.681251 
L 78.365261 114.972974 
L 83.259611 113.396301 
L 88.488617 111.948216 
L 94.135943 110.618759 
L 100.243422 109.412424 
L 106.936549 108.320368 
L 114.340821 107.341497 
L 122.623566 106.474975 
L 132.035777 105.718593 
L 142.953941 105.070426 
L 155.921875 104.530771 
L 171.901717 104.097983 
L 192.524916 103.772775 
L 221.64002 103.551099 
L 237.745358 103.49007 
L 237.745358 103.49007 
" clip-path="url(#p94494d438c)" style="fill: none; stroke-dasharray: 5.55,2.4; stroke-dashoffset: 0; stroke: #117733; stroke-width: 1.5"/>
   </g>
   <g id="line2d_19">
    <path d="M 28.543294 147.94799 
L 102.795176 147.853963 
L 103.004337 147.444318 
L 103.255329 146.271883 
L 103.589985 143.410635 
L 106.643725 111.52625 
L 107.313037 107.605049 
L 107.940518 105.09956 
L 108.526167 103.569305 
L 109.069983 102.703263 
L 109.571968 102.28365 
L 110.073953 102.157378 
L 110.575937 102.266897 
L 111.161586 102.629592 
L 111.914563 103.375191 
L 112.960364 104.763073 
L 114.549981 107.295948 
L 120.824788 117.631609 
L 123.292879 121.123497 
L 125.76097 124.232252 
L 128.229061 126.987368 
L 130.780815 129.502211 
L 133.416234 131.784058 
L 136.135317 133.843177 
L 138.979896 135.717256 
L 141.949972 137.408849 
L 145.129207 138.96119 
L 148.517603 140.364793 
L 152.156991 141.629162 
L 156.131035 142.77029 
L 160.481568 143.784642 
L 165.334086 144.683442 
L 170.814084 145.46745 
L 177.130723 146.140562 
L 184.576827 146.703488 
L 193.654381 147.158353 
L 205.28369 147.507092 
L 221.347195 147.750836 
L 237.745358 147.861266 
L 237.745358 147.861266 
" clip-path="url(#p94494d438c)" style="fill: none; stroke-dasharray: 1.5,2.475; stroke-dashoffset: 0; stroke: #88ccee; stroke-width: 1.5"/>
   </g>
   <g id="line2d_20">
    <path d="M 28.543294 147.94799 
L 172.654694 147.856945 
L 172.863854 147.538387 
L 173.114846 146.603255 
L 173.40767 144.516835 
L 173.909655 138.824497 
L 175.457441 120.580042 
L 176.335914 112.696421 
L 177.005226 108.539942 
L 177.632707 105.901106 
L 178.260188 104.175715 
L 178.636676 103.630911 
L 179.054997 103.454355 
L 179.93347 103.395144 
L 181.899576 103.469716 
L 182.40156 103.87166 
L 183.40553 105.014092 
L 185.162475 107.389721 
L 193.0269 118.394155 
L 195.913311 121.886694 
L 198.75789 124.982037 
L 201.60247 127.750707 
L 204.488881 130.250613 
L 207.417124 132.49553 
L 210.429031 134.527691 
L 213.566435 136.377012 
L 216.829334 138.043489 
L 220.301394 139.564681 
L 223.982614 140.931701 
L 227.914827 142.153405 
L 232.181695 143.244989 
L 236.908717 144.220075 
L 237.745358 144.370648 
L 237.745358 144.370648 
" clip-path="url(#p94494d438c)" style="fill: none; stroke: #cc6677; stroke-width: 1.5; stroke-linecap: round"/>
   </g>
   <g id="patch_8">
    <path d="M 28.58 150.23752 
L 28.58 99.867847 
" style="fill: none; stroke: #262626; stroke-width: 1.25; stroke-linejoin: miter; stroke-linecap: square"/>
   </g>
   <g id="patch_9">
    <path d="M 237.735 150.23752 
L 237.735 99.867847 
" style="fill: none; stroke: #262626; stroke-width: 1.25; stroke-linejoin: miter; stroke-linecap: square"/>
   </g>
   <g id="patch_10">
    <path d="M 28.58 150.23752 
L 237.735 150.23752 
" style="fill: none; stroke: #262626; stroke-width: 1.25; stroke-linejoin: miter; stroke-linecap: square"/>
   </g>
   <g id="patch_11">
    <path d="M 28.58 99.867847 
L 237.735 99.867847 
" style="fill: none; stroke: #262626; stroke-width: 1.25; stroke-linejoin: miter; stroke-linecap: square"/>
   </g>
  </g>
  <g id="axes_3">
   <g id="patch_12">
    <path d="M 28.58 236.10375 
L 237.735 236.10375 
L 237.735 185.734077 
L 28.58 185.734077 
z
" style="fill: #ffffff"/>
   </g>
   <g id="matplotlib.axis_5">
    <g id="xtick_11">
     <g id="line2d_21">
      <g>
       <use xlink:href="#mcf93976fe4" x="32.7631" y="236.10375" style="fill: #262626; stroke: #262626; stroke-width: 1.25"/>
      </g>
     </g>
     <g id="text_15">
      <!-- 500 -->
      <g style="fill: #262626" transform="translate(23.587553 253.477344)scale(0.11 -0.11)">
       <use xlink:href="#ArialMT-35"/>
       <use xlink:href="#ArialMT-30" x="55.615234"/>
       <use xlink:href="#ArialMT-30" x="111.230469"/>
      </g>
     </g>
    </g>
    <g id="xtick_12">
     <g id="line2d_22">
      <g>
       <use xlink:href="#mcf93976fe4" x="74.5941" y="236.10375" style="fill: #262626; stroke: #262626; stroke-width: 1.25"/>
      </g>
     </g>
     <g id="text_16">
      <!-- 600 -->
      <g style="fill: #262626" transform="translate(65.418553 253.477344)scale(0.11 -0.11)">
       <use xlink:href="#ArialMT-36"/>
       <use xlink:href="#ArialMT-30" x="55.615234"/>
       <use xlink:href="#ArialMT-30" x="111.230469"/>
      </g>
     </g>
    </g>
    <g id="xtick_13">
     <g id="line2d_23">
      <g>
       <use xlink:href="#mcf93976fe4" x="116.4251" y="236.10375" style="fill: #262626; stroke: #262626; stroke-width: 1.25"/>
      </g>
     </g>
     <g id="text_17">
      <!-- 700 -->
      <g style="fill: #262626" transform="translate(107.249553 253.477344)scale(0.11 -0.11)">
       <use xlink:href="#ArialMT-37"/>
       <use xlink:href="#ArialMT-30" x="55.615234"/>
       <use xlink:href="#ArialMT-30" x="111.230469"/>
      </g>
     </g>
    </g>
    <g id="xtick_14">
     <g id="line2d_24">
      <g>
       <use xlink:href="#mcf93976fe4" x="158.2561" y="236.10375" style="fill: #262626; stroke: #262626; stroke-width: 1.25"/>
      </g>
     </g>
     <g id="text_18">
      <!-- 800 -->
      <g style="fill: #262626" transform="translate(149.080553 253.477344)scale(0.11 -0.11)">
       <use xlink:href="#ArialMT-38"/>
       <use xlink:href="#ArialMT-30" x="55.615234"/>
       <use xlink:href="#ArialMT-30" x="111.230469"/>
      </g>
     </g>
    </g>
    <g id="xtick_15">
     <g id="line2d_25">
      <g>
       <use xlink:href="#mcf93976fe4" x="200.0871" y="236.10375" style="fill: #262626; stroke: #262626; stroke-width: 1.25"/>
      </g>
     </g>
     <g id="text_19">
      <!-- 900 -->
      <g style="fill: #262626" transform="translate(190.911553 253.477344)scale(0.11 -0.11)">
       <use xlink:href="#ArialMT-39"/>
       <use xlink:href="#ArialMT-30" x="55.615234"/>
       <use xlink:href="#ArialMT-30" x="111.230469"/>
      </g>
     </g>
    </g>
    <g id="text_20">
     <!-- t (ms) -->
     <g style="fill: #262626" transform="translate(117.830312 268.399219)scale(0.12 -0.12)">
      <defs>
       <path id="ArialMT-74" d="M 1650 503 
L 1731 6 
Q 1494 -44 1306 -44 
Q 1000 -44 831 53 
Q 663 150 594 308 
Q 525 466 525 972 
L 525 2881 
L 113 2881 
L 113 3319 
L 525 3319 
L 525 4141 
L 1084 4478 
L 1084 3319 
L 1650 3319 
L 1650 2881 
L 1084 2881 
L 1084 941 
Q 1084 700 1114 631 
Q 1144 563 1211 522 
Q 1278 481 1403 481 
Q 1497 481 1650 503 
z
" transform="scale(0.015625)"/>
       <path id="ArialMT-20" transform="scale(0.015625)"/>
       <path id="ArialMT-28" d="M 1497 -1347 
Q 1031 -759 709 28 
Q 388 816 388 1659 
Q 388 2403 628 3084 
Q 909 3875 1497 4659 
L 1900 4659 
Q 1522 4009 1400 3731 
Q 1209 3300 1100 2831 
Q 966 2247 966 1656 
Q 966 153 1900 -1347 
L 1497 -1347 
z
" transform="scale(0.015625)"/>
       <path id="ArialMT-6d" d="M 422 0 
L 422 3319 
L 925 3319 
L 925 2853 
Q 1081 3097 1340 3245 
Q 1600 3394 1931 3394 
Q 2300 3394 2536 3241 
Q 2772 3088 2869 2813 
Q 3263 3394 3894 3394 
Q 4388 3394 4653 3120 
Q 4919 2847 4919 2278 
L 4919 0 
L 4359 0 
L 4359 2091 
Q 4359 2428 4304 2576 
Q 4250 2725 4106 2815 
Q 3963 2906 3769 2906 
Q 3419 2906 3187 2673 
Q 2956 2441 2956 1928 
L 2956 0 
L 2394 0 
L 2394 2156 
Q 2394 2531 2256 2718 
Q 2119 2906 1806 2906 
Q 1569 2906 1367 2781 
Q 1166 2656 1075 2415 
Q 984 2175 984 1722 
L 984 0 
L 422 0 
z
" transform="scale(0.015625)"/>
       <path id="ArialMT-73" d="M 197 991 
L 753 1078 
Q 800 744 1014 566 
Q 1228 388 1613 388 
Q 2000 388 2187 545 
Q 2375 703 2375 916 
Q 2375 1106 2209 1216 
Q 2094 1291 1634 1406 
Q 1016 1563 777 1677 
Q 538 1791 414 1992 
Q 291 2194 291 2438 
Q 291 2659 392 2848 
Q 494 3038 669 3163 
Q 800 3259 1026 3326 
Q 1253 3394 1513 3394 
Q 1903 3394 2198 3281 
Q 2494 3169 2634 2976 
Q 2775 2784 2828 2463 
L 2278 2388 
Q 2241 2644 2061 2787 
Q 1881 2931 1553 2931 
Q 1166 2931 1000 2803 
Q 834 2675 834 2503 
Q 834 2394 903 2306 
Q 972 2216 1119 2156 
Q 1203 2125 1616 2013 
Q 2213 1853 2448 1751 
Q 2684 1650 2818 1456 
Q 2953 1263 2953 975 
Q 2953 694 2789 445 
Q 2625 197 2315 61 
Q 2006 -75 1616 -75 
Q 969 -75 630 194 
Q 291 463 197 991 
z
" transform="scale(0.015625)"/>
       <path id="ArialMT-29" d="M 791 -1347 
L 388 -1347 
Q 1322 153 1322 1656 
Q 1322 2244 1188 2822 
Q 1081 3291 891 3722 
Q 769 4003 388 4659 
L 791 4659 
Q 1378 3875 1659 3084 
Q 1900 2403 1900 1659 
Q 1900 816 1576 28 
Q 1253 -759 791 -1347 
z
" transform="scale(0.015625)"/>
      </defs>
      <use xlink:href="#ArialMT-74"/>
      <use xlink:href="#ArialMT-20" x="27.783203"/>
      <use xlink:href="#ArialMT-28" x="55.566406"/>
      <use xlink:href="#ArialMT-6d" x="88.867188"/>
      <use xlink:href="#ArialMT-73" x="172.167969"/>
      <use xlink:href="#ArialMT-29" x="222.167969"/>
     </g>
    </g>
   </g>
   <g id="matplotlib.axis_6">
    <g id="ytick_5">
     <g id="line2d_26">
      <g>
       <use xlink:href="#m2b91720ef1" x="28.58" y="225.208625" style="fill: #262626; stroke: #262626; stroke-width: 1.25"/>
      </g>
     </g>
     <g id="text_21">
      <!-- 0 -->
      <g style="fill: #262626" transform="translate(12.962969 229.145422)scale(0.11 -0.11)">
       <use xlink:href="#ArialMT-30"/>
      </g>
     </g>
    </g>
    <g id="ytick_6">
     <g id="line2d_27">
      <g>
       <use xlink:href="#m2b91720ef1" x="28.58" y="186.521299" style="fill: #262626; stroke: #262626; stroke-width: 1.25"/>
      </g>
     </g>
     <g id="text_22">
      <!-- 1 -->
      <g style="fill: #262626" transform="translate(12.962969 190.458096)scale(0.11 -0.11)">
       <use xlink:href="#ArialMT-31"/>
      </g>
     </g>
    </g>
   </g>
   <g id="line2d_28">
    <path d="M 28.543294 225.024482 
L 33.688636 224.938309 
L 34.483445 224.583473 
L 36.240391 223.46705 
L 39.837947 221.247033 
L 43.435503 219.294896 
L 47.242219 217.482844 
L 51.299928 215.797892 
L 55.65046 214.232839 
L 60.33565 212.784626 
L 65.439159 211.44276 
L 71.002821 210.213252 
L 77.1103 209.094393 
L 83.887092 208.082496 
L 91.500524 207.175356 
L 100.117926 206.377199 
L 103.129833 206.022874 
L 103.422657 205.613494 
L 103.757314 204.661633 
L 104.342962 202.046975 
L 105.93258 194.874105 
L 106.811053 191.780683 
L 107.522198 190.056111 
L 108.19151 188.967883 
L 108.818991 188.334209 
L 109.320976 188.181546 
L 110.785097 188.078503 
L 112.416547 188.099877 
L 113.462348 188.535486 
L 115.637615 189.71636 
L 122.205246 193.375824 
L 125.719138 195.02386 
L 129.316694 196.463691 
L 133.12341 197.745059 
L 137.222951 198.886566 
L 141.698979 199.897095 
L 146.635161 200.778923 
L 152.198823 201.541321 
L 158.599126 202.186718 
L 166.128894 202.715125 
L 172.905686 203.17407 
L 173.156678 203.597788 
L 173.40767 204.523728 
L 173.742327 206.726615 
L 174.41164 213.164331 
L 175.373777 221.709331 
L 176.168586 226.798767 
L 176.837898 229.768704 
L 177.465379 231.607637 
L 178.09286 232.798858 
L 178.678508 233.475638 
L 179.180493 233.692175 
L 180.100798 233.77639 
L 182.234232 233.748663 
L 183.070873 233.398433 
L 184.618659 232.47688 
L 187.212246 230.643582 
L 198.54873 222.370671 
L 202.773767 219.672825 
L 206.831475 217.344417 
L 210.80552 215.318113 
L 214.821396 213.519853 
L 218.920937 211.928575 
L 223.187805 210.513463 
L 227.663834 209.265656 
L 232.432688 208.168751 
L 237.619861 207.206597 
L 237.745358 207.185948 
L 237.745358 207.185948 
" clip-path="url(#pa442a8774d)" style="fill: none; stroke: #999933; stroke-width: 1.5; stroke-linecap: round"/>
   </g>
   <g id="patch_13">
    <path d="M 28.58 236.10375 
L 28.58 185.734077 
" style="fill: none; stroke: #262626; stroke-width: 1.25; stroke-linejoin: miter; stroke-linecap: square"/>
   </g>
   <g id="patch_14">
    <path d="M 237.735 236.10375 
L 237.735 185.734077 
" style="fill: none; stroke: #262626; stroke-width: 1.25; stroke-linejoin: miter; stroke-linecap: square"/>
   </g>
   <g id="patch_15">
    <path d="M 28.58 236.10375 
L 237.735 236.10375 
" style="fill: none; stroke: #262626; stroke-width: 1.25; stroke-linejoin: miter; stroke-linecap: square"/>
   </g>
   <g id="patch_16">
    <path d="M 28.58 185.734077 
L 237.735 185.734077 
" style="fill: none; stroke: #262626; stroke-width: 1.25; stroke-linejoin: miter; stroke-linecap: square"/>
   </g>
  </g>
  <g id="axes_4">
   <g id="patch_17">
    <path d="M 281.885 64.371291 
L 491.04 64.371291 
L 491.04 14.001618 
L 281.885 14.001618 
z
" style="fill: #ffffff"/>
   </g>
   <g id="matplotlib.axis_7">
    <g id="xtick_16">
     <g id="line2d_29">
      <g>
       <use xlink:href="#mcf93976fe4" x="286.0681" y="64.371291" style="fill: #262626; stroke: #262626; stroke-width: 1.25"/>
      </g>
     </g>
     <g id="text_23">
      <!-- 500 -->
      <g style="fill: #262626" transform="translate(276.892553 81.744884)scale(0.11 -0.11)">
       <use xlink:href="#ArialMT-35"/>
       <use xlink:href="#ArialMT-30" x="55.615234"/>
       <use xlink:href="#ArialMT-30" x="111.230469"/>
      </g>
     </g>
    </g>
    <g id="xtick_17">
     <g id="line2d_30">
      <g>
       <use xlink:href="#mcf93976fe4" x="327.8991" y="64.371291" style="fill: #262626; stroke: #262626; stroke-width: 1.25"/>
      </g>
     </g>
     <g id="text_24">
      <!-- 600 -->
      <g style="fill: #262626" transform="translate(318.723553 81.744884)scale(0.11 -0.11)">
       <use xlink:href="#ArialMT-36"/>
       <use xlink:href="#ArialMT-30" x="55.615234"/>
       <use xlink:href="#ArialMT-30" x="111.230469"/>
      </g>
     </g>
    </g>
    <g id="xtick_18">
     <g id="line2d_31">
      <g>
       <use xlink:href="#mcf93976fe4" x="369.7301" y="64.371291" style="fill: #262626; stroke: #262626; stroke-width: 1.25"/>
      </g>
     </g>
     <g id="text_25">
      <!-- 700 -->
      <g style="fill: #262626" transform="translate(360.554553 81.744884)scale(0.11 -0.11)">
       <use xlink:href="#ArialMT-37"/>
       <use xlink:href="#ArialMT-30" x="55.615234"/>
       <use xlink:href="#ArialMT-30" x="111.230469"/>
      </g>
     </g>
    </g>
    <g id="xtick_19">
     <g id="line2d_32">
      <g>
       <use xlink:href="#mcf93976fe4" x="411.5611" y="64.371291" style="fill: #262626; stroke: #262626; stroke-width: 1.25"/>
      </g>
     </g>
     <g id="text_26">
      <!-- 800 -->
      <g style="fill: #262626" transform="translate(402.385553 81.744884)scale(0.11 -0.11)">
       <use xlink:href="#ArialMT-38"/>
       <use xlink:href="#ArialMT-30" x="55.615234"/>
       <use xlink:href="#ArialMT-30" x="111.230469"/>
      </g>
     </g>
    </g>
    <g id="xtick_20">
     <g id="line2d_33">
      <g>
       <use xlink:href="#mcf93976fe4" x="453.3921" y="64.371291" style="fill: #262626; stroke: #262626; stroke-width: 1.25"/>
      </g>
     </g>
     <g id="text_27">
      <!-- 900 -->
      <g style="fill: #262626" transform="translate(444.216553 81.744884)scale(0.11 -0.11)">
       <use xlink:href="#ArialMT-39"/>
       <use xlink:href="#ArialMT-30" x="55.615234"/>
       <use xlink:href="#ArialMT-30" x="111.230469"/>
      </g>
     </g>
    </g>
   </g>
   <g id="matplotlib.axis_8">
    <g id="ytick_7">
     <g id="line2d_34">
      <g>
       <use xlink:href="#m2b91720ef1" x="281.885" y="62.08176" style="fill: #262626; stroke: #262626; stroke-width: 1.25"/>
      </g>
     </g>
     <g id="text_28">
      <!-- 0 -->
      <g style="fill: #262626" transform="translate(266.267969 66.018557)scale(0.11 -0.11)">
       <use xlink:href="#ArialMT-30"/>
      </g>
     </g>
    </g>
    <g id="ytick_8">
     <g id="line2d_35">
      <g>
       <use xlink:href="#m2b91720ef1" x="281.885" y="16.291148" style="fill: #262626; stroke: #262626; stroke-width: 1.25"/>
      </g>
     </g>
     <g id="text_29">
      <!-- 1 -->
      <g style="fill: #262626" transform="translate(266.267969 20.227945)scale(0.11 -0.11)">
       <use xlink:href="#ArialMT-31"/>
      </g>
     </g>
    </g>
   </g>
   <g id="line2d_36">
    <path d="M 281.848294 62.08176 
L 285.947835 62.08176 
L 286.073331 16.291148 
L 491.050358 16.291148 
L 491.050358 16.291148 
" clip-path="url(#p7991b4fa8d)" style="fill: none; stroke-dasharray: 5.55,2.4; stroke-dashoffset: 0; stroke: #117733; stroke-width: 1.5"/>
   </g>
   <g id="line2d_37">
    <path d="M 281.848294 16.291148 
L 425.332213 16.291148 
L 425.457709 62.08176 
L 491.050358 62.08176 
L 491.050358 62.08176 
" clip-path="url(#p7991b4fa8d)" style="fill: none; stroke: #88ccee; stroke-width: 1.5; stroke-linecap: round"/>
   </g>
   <g id="line2d_38">
    <path d="M 281.848294 16.291148 
L 355.640024 16.291148 
L 355.76552 62.08176 
L 491.050358 62.08176 
L 491.050358 62.08176 
" clip-path="url(#p7991b4fa8d)" style="fill: none; stroke-dasharray: 1.5,2.475; stroke-dashoffset: 0; stroke: #cc6677; stroke-width: 1.5"/>
   </g>
   <g id="patch_18">
    <path d="M 281.885 64.371291 
L 281.885 14.001618 
" style="fill: none; stroke: #262626; stroke-width: 1.25; stroke-linejoin: miter; stroke-linecap: square"/>
   </g>
   <g id="patch_19">
    <path d="M 491.04 64.371291 
L 491.04 14.001618 
" style="fill: none; stroke: #262626; stroke-width: 1.25; stroke-linejoin: miter; stroke-linecap: square"/>
   </g>
   <g id="patch_20">
    <path d="M 281.885 64.371291 
L 491.04 64.371291 
" style="fill: none; stroke: #262626; stroke-width: 1.25; stroke-linejoin: miter; stroke-linecap: square"/>
   </g>
   <g id="patch_21">
    <path d="M 281.885 14.001618 
L 491.04 14.001618 
" style="fill: none; stroke: #262626; stroke-width: 1.25; stroke-linejoin: miter; stroke-linecap: square"/>
   </g>
  </g>
  <g id="axes_5">
   <g id="patch_22">
    <path d="M 281.885 150.23752 
L 491.04 150.23752 
L 491.04 99.867847 
L 281.885 99.867847 
z
" style="fill: #ffffff"/>
   </g>
   <g id="matplotlib.axis_9">
    <g id="xtick_21">
     <g id="line2d_39">
      <g>
       <use xlink:href="#mcf93976fe4" x="286.0681" y="150.23752" style="fill: #262626; stroke: #262626; stroke-width: 1.25"/>
      </g>
     </g>
     <g id="text_30">
      <!-- 500 -->
      <g style="fill: #262626" transform="translate(276.892553 167.611114)scale(0.11 -0.11)">
       <use xlink:href="#ArialMT-35"/>
       <use xlink:href="#ArialMT-30" x="55.615234"/>
       <use xlink:href="#ArialMT-30" x="111.230469"/>
      </g>
     </g>
    </g>
    <g id="xtick_22">
     <g id="line2d_40">
      <g>
       <use xlink:href="#mcf93976fe4" x="327.8991" y="150.23752" style="fill: #262626; stroke: #262626; stroke-width: 1.25"/>
      </g>
     </g>
     <g id="text_31">
      <!-- 600 -->
      <g style="fill: #262626" transform="translate(318.723553 167.611114)scale(0.11 -0.11)">
       <use xlink:href="#ArialMT-36"/>
       <use xlink:href="#ArialMT-30" x="55.615234"/>
       <use xlink:href="#ArialMT-30" x="111.230469"/>
      </g>
     </g>
    </g>
    <g id="xtick_23">
     <g id="line2d_41">
      <g>
       <use xlink:href="#mcf93976fe4" x="369.7301" y="150.23752" style="fill: #262626; stroke: #262626; stroke-width: 1.25"/>
      </g>
     </g>
     <g id="text_32">
      <!-- 700 -->
      <g style="fill: #262626" transform="translate(360.554553 167.611114)scale(0.11 -0.11)">
       <use xlink:href="#ArialMT-37"/>
       <use xlink:href="#ArialMT-30" x="55.615234"/>
       <use xlink:href="#ArialMT-30" x="111.230469"/>
      </g>
     </g>
    </g>
    <g id="xtick_24">
     <g id="line2d_42">
      <g>
       <use xlink:href="#mcf93976fe4" x="411.5611" y="150.23752" style="fill: #262626; stroke: #262626; stroke-width: 1.25"/>
      </g>
     </g>
     <g id="text_33">
      <!-- 800 -->
      <g style="fill: #262626" transform="translate(402.385553 167.611114)scale(0.11 -0.11)">
       <use xlink:href="#ArialMT-38"/>
       <use xlink:href="#ArialMT-30" x="55.615234"/>
       <use xlink:href="#ArialMT-30" x="111.230469"/>
      </g>
     </g>
    </g>
    <g id="xtick_25">
     <g id="line2d_43">
      <g>
       <use xlink:href="#mcf93976fe4" x="453.3921" y="150.23752" style="fill: #262626; stroke: #262626; stroke-width: 1.25"/>
      </g>
     </g>
     <g id="text_34">
      <!-- 900 -->
      <g style="fill: #262626" transform="translate(444.216553 167.611114)scale(0.11 -0.11)">
       <use xlink:href="#ArialMT-39"/>
       <use xlink:href="#ArialMT-30" x="55.615234"/>
       <use xlink:href="#ArialMT-30" x="111.230469"/>
      </g>
     </g>
    </g>
   </g>
   <g id="matplotlib.axis_10">
    <g id="ytick_9">
     <g id="line2d_44">
      <g>
       <use xlink:href="#m2b91720ef1" x="281.885" y="147.94799" style="fill: #262626; stroke: #262626; stroke-width: 1.25"/>
      </g>
     </g>
     <g id="text_35">
      <!-- 0 -->
      <g style="fill: #262626" transform="translate(266.267969 151.884787)scale(0.11 -0.11)">
       <use xlink:href="#ArialMT-30"/>
      </g>
     </g>
    </g>
    <g id="ytick_10">
     <g id="line2d_45">
      <g>
       <use xlink:href="#m2b91720ef1" x="281.885" y="103.391397" style="fill: #262626; stroke: #262626; stroke-width: 1.25"/>
      </g>
     </g>
     <g id="text_36">
      <!-- 1 -->
      <g style="fill: #262626" transform="translate(266.267969 107.328194)scale(0.11 -0.11)">
       <use xlink:href="#ArialMT-31"/>
      </g>
     </g>
    </g>
   </g>
   <g id="line2d_46">
    <path d="M 281.848294 103.391397 
L 286.491652 103.501375 
L 287.035468 103.905654 
L 288.666918 105.533105 
L 292.431802 109.184556 
L 296.196686 112.522473 
L 300.045235 115.637692 
L 304.019279 118.567272 
L 308.118819 121.311309 
L 312.343856 123.871438 
L 316.736221 126.27242 
L 321.295914 128.511912 
L 326.064767 130.606983 
L 331.084613 132.568818 
L 336.397283 134.403903 
L 342.002777 136.103266 
L 347.98476 137.68226 
L 354.385063 139.139339 
L 361.28735 140.479804 
L 368.775286 141.704354 
L 376.974368 142.81615 
L 386.01009 143.813533 
L 396.133445 144.702601 
L 407.595425 145.480752 
L 420.814352 146.149507 
L 436.417705 146.709666 
L 455.493118 147.163299 
L 479.923033 147.51052 
L 491.050358 147.612739 
L 491.050358 147.612739 
" clip-path="url(#pe388b5f980)" style="fill: none; stroke-dasharray: 5.55,2.4; stroke-dashoffset: 0; stroke: #117733; stroke-width: 1.5"/>
   </g>
   <g id="line2d_47">
    <path d="M 281.848294 147.94799 
L 425.792365 147.853963 
L 426.001526 147.444318 
L 426.252518 146.271883 
L 426.587174 143.410635 
L 429.640914 111.52625 
L 430.310226 107.605049 
L 430.937707 105.09956 
L 431.523356 103.569305 
L 432.067172 102.703263 
L 432.569157 102.28365 
L 433.071142 102.157378 
L 433.573126 102.266897 
L 434.158775 102.629592 
L 434.911752 103.375191 
L 435.957553 104.763073 
L 437.54717 107.295948 
L 443.821977 117.631609 
L 446.290068 121.123497 
L 448.758159 124.232252 
L 451.22625 126.987368 
L 453.778004 129.502211 
L 456.413423 131.784058 
L 459.132506 133.843177 
L 461.977085 135.717256 
L 464.947161 137.408849 
L 468.126396 138.96119 
L 471.514792 140.364793 
L 475.15418 141.629162 
L 479.128224 142.77029 
L 483.478757 143.784642 
L 488.331275 144.683442 
L 491.050358 145.099336 
L 491.050358 145.099336 
" clip-path="url(#pe388b5f980)" style="fill: none; stroke: #88ccee; stroke-width: 1.5; stroke-linecap: round"/>
   </g>
   <g id="line2d_48">
    <path d="M 281.848294 147.94799 
L 356.267505 147.856945 
L 356.476665 147.538387 
L 356.727657 146.603255 
L 357.020481 144.516835 
L 357.522466 138.824497 
L 359.070252 120.580042 
L 359.948725 112.696421 
L 360.618037 108.539942 
L 361.245518 105.901106 
L 361.872999 104.175715 
L 362.249487 103.630911 
L 362.667808 103.454355 
L 363.546281 103.395144 
L 365.512387 103.469716 
L 366.014371 103.87166 
L 367.018341 105.014092 
L 368.775286 107.389721 
L 376.639711 118.394155 
L 379.526122 121.886694 
L 382.370701 124.982037 
L 385.215281 127.750707 
L 388.101692 130.250613 
L 391.029935 132.49553 
L 394.041842 134.527691 
L 397.179246 136.377012 
L 400.442145 138.043489 
L 403.914205 139.564681 
L 407.595425 140.931701 
L 411.527638 142.153405 
L 415.794506 143.244989 
L 420.521528 144.220075 
L 425.792365 145.074113 
L 431.732516 145.806809 
L 438.634804 146.428587 
L 446.875717 146.940272 
L 457.124568 147.343906 
L 470.636319 147.640616 
L 490.422877 147.833795 
L 491.050358 147.837325 
L 491.050358 147.837325 
" clip-path="url(#pe388b5f980)" style="fill: none; stroke-dasharray: 1.5,2.475; stroke-dashoffset: 0; stroke: #cc6677; stroke-width: 1.5"/>
   </g>
   <g id="patch_23">
    <path d="M 281.885 150.23752 
L 281.885 99.867847 
" style="fill: none; stroke: #262626; stroke-width: 1.25; stroke-linejoin: miter; stroke-linecap: square"/>
   </g>
   <g id="patch_24">
    <path d="M 491.04 150.23752 
L 491.04 99.867847 
" style="fill: none; stroke: #262626; stroke-width: 1.25; stroke-linejoin: miter; stroke-linecap: square"/>
   </g>
   <g id="patch_25">
    <path d="M 281.885 150.23752 
L 491.04 150.23752 
" style="fill: none; stroke: #262626; stroke-width: 1.25; stroke-linejoin: miter; stroke-linecap: square"/>
   </g>
   <g id="patch_26">
    <path d="M 281.885 99.867847 
L 491.04 99.867847 
" style="fill: none; stroke: #262626; stroke-width: 1.25; stroke-linejoin: miter; stroke-linecap: square"/>
   </g>
  </g>
  <g id="axes_6">
   <g id="patch_27">
    <path d="M 281.885 236.10375 
L 491.04 236.10375 
L 491.04 185.734077 
L 281.885 185.734077 
z
" style="fill: #ffffff"/>
   </g>
   <g id="matplotlib.axis_11">
    <g id="xtick_26">
     <g id="line2d_49">
      <g>
       <use xlink:href="#mcf93976fe4" x="286.0681" y="236.10375" style="fill: #262626; stroke: #262626; stroke-width: 1.25"/>
      </g>
     </g>
     <g id="text_37">
      <!-- 500 -->
      <g style="fill: #262626" transform="translate(276.892553 253.477344)scale(0.11 -0.11)">
       <use xlink:href="#ArialMT-35"/>
       <use xlink:href="#ArialMT-30" x="55.615234"/>
       <use xlink:href="#ArialMT-30" x="111.230469"/>
      </g>
     </g>
    </g>
    <g id="xtick_27">
     <g id="line2d_50">
      <g>
       <use xlink:href="#mcf93976fe4" x="327.8991" y="236.10375" style="fill: #262626; stroke: #262626; stroke-width: 1.25"/>
      </g>
     </g>
     <g id="text_38">
      <!-- 600 -->
      <g style="fill: #262626" transform="translate(318.723553 253.477344)scale(0.11 -0.11)">
       <use xlink:href="#ArialMT-36"/>
       <use xlink:href="#ArialMT-30" x="55.615234"/>
       <use xlink:href="#ArialMT-30" x="111.230469"/>
      </g>
     </g>
    </g>
    <g id="xtick_28">
     <g id="line2d_51">
      <g>
       <use xlink:href="#mcf93976fe4" x="369.7301" y="236.10375" style="fill: #262626; stroke: #262626; stroke-width: 1.25"/>
      </g>
     </g>
     <g id="text_39">
      <!-- 700 -->
      <g style="fill: #262626" transform="translate(360.554553 253.477344)scale(0.11 -0.11)">
       <use xlink:href="#ArialMT-37"/>
       <use xlink:href="#ArialMT-30" x="55.615234"/>
       <use xlink:href="#ArialMT-30" x="111.230469"/>
      </g>
     </g>
    </g>
    <g id="xtick_29">
     <g id="line2d_52">
      <g>
       <use xlink:href="#mcf93976fe4" x="411.5611" y="236.10375" style="fill: #262626; stroke: #262626; stroke-width: 1.25"/>
      </g>
     </g>
     <g id="text_40">
      <!-- 800 -->
      <g style="fill: #262626" transform="translate(402.385553 253.477344)scale(0.11 -0.11)">
       <use xlink:href="#ArialMT-38"/>
       <use xlink:href="#ArialMT-30" x="55.615234"/>
       <use xlink:href="#ArialMT-30" x="111.230469"/>
      </g>
     </g>
    </g>
    <g id="xtick_30">
     <g id="line2d_53">
      <g>
       <use xlink:href="#mcf93976fe4" x="453.3921" y="236.10375" style="fill: #262626; stroke: #262626; stroke-width: 1.25"/>
      </g>
     </g>
     <g id="text_41">
      <!-- 900 -->
      <g style="fill: #262626" transform="translate(444.216553 253.477344)scale(0.11 -0.11)">
       <use xlink:href="#ArialMT-39"/>
       <use xlink:href="#ArialMT-30" x="55.615234"/>
       <use xlink:href="#ArialMT-30" x="111.230469"/>
      </g>
     </g>
    </g>
    <g id="text_42">
     <!-- t (ms) -->
     <g style="fill: #262626" transform="translate(371.135312 268.399219)scale(0.12 -0.12)">
      <use xlink:href="#ArialMT-74"/>
      <use xlink:href="#ArialMT-20" x="27.783203"/>
      <use xlink:href="#ArialMT-28" x="55.566406"/>
      <use xlink:href="#ArialMT-6d" x="88.867188"/>
      <use xlink:href="#ArialMT-73" x="172.167969"/>
      <use xlink:href="#ArialMT-29" x="222.167969"/>
     </g>
    </g>
   </g>
   <g id="matplotlib.axis_12">
    <g id="ytick_11">
     <g id="line2d_54">
      <g>
       <use xlink:href="#m2b91720ef1" x="281.885" y="230.014638" style="fill: #262626; stroke: #262626; stroke-width: 1.25"/>
      </g>
     </g>
     <g id="text_43">
      <!-- −0.5 -->
      <g style="fill: #262626" transform="translate(250.670312 233.951435)scale(0.11 -0.11)">
       <defs>
        <path id="ArialMT-2212" d="M 3381 1997 
L 356 1997 
L 356 2522 
L 3381 2522 
L 3381 1997 
z
" transform="scale(0.015625)"/>
        <path id="ArialMT-2e" d="M 581 0 
L 581 641 
L 1222 641 
L 1222 0 
L 581 0 
z
" transform="scale(0.015625)"/>
       </defs>
       <use xlink:href="#ArialMT-2212"/>
       <use xlink:href="#ArialMT-30" x="58.398438"/>
       <use xlink:href="#ArialMT-2e" x="114.013672"/>
       <use xlink:href="#ArialMT-35" x="141.796875"/>
      </g>
     </g>
    </g>
    <g id="ytick_12">
     <g id="line2d_55">
      <g>
       <use xlink:href="#m2b91720ef1" x="281.885" y="210.124146" style="fill: #262626; stroke: #262626; stroke-width: 1.25"/>
      </g>
     </g>
     <g id="text_44">
      <!-- 0.0 -->
      <g style="fill: #262626" transform="translate(257.095 214.060943)scale(0.11 -0.11)">
       <use xlink:href="#ArialMT-30"/>
       <use xlink:href="#ArialMT-2e" x="55.615234"/>
       <use xlink:href="#ArialMT-30" x="83.398438"/>
      </g>
     </g>
    </g>
    <g id="ytick_13">
     <g id="line2d_56">
      <g>
       <use xlink:href="#m2b91720ef1" x="281.885" y="190.233654" style="fill: #262626; stroke: #262626; stroke-width: 1.25"/>
      </g>
     </g>
     <g id="text_45">
      <!-- 0.5 -->
      <g style="fill: #262626" transform="translate(257.095 194.170451)scale(0.11 -0.11)">
       <use xlink:href="#ArialMT-30"/>
       <use xlink:href="#ArialMT-2e" x="55.615234"/>
       <use xlink:href="#ArialMT-35" x="83.398438"/>
      </g>
     </g>
    </g>
   </g>
   <g id="line2d_57">
    <path d="M 281.848294 188.023608 
L 286.993636 188.129106 
L 288.123101 188.562846 
L 296.154854 191.977031 
L 301.80218 194.08333 
L 307.658667 196.030062 
L 313.807978 197.837581 
L 320.250113 199.49745 
L 327.068736 201.022694 
L 334.347512 202.420043 
L 342.170105 203.691711 
L 350.620178 204.837181 
L 356.560329 205.673886 
L 356.811321 206.123775 
L 357.104146 207.253757 
L 357.480634 209.811532 
L 359.530404 225.917292 
L 360.241549 229.195117 
L 360.86903 231.122954 
L 361.49651 232.389084 
L 362.123991 233.198093 
L 362.625976 233.510776 
L 363.378953 233.657794 
L 365.721547 233.794278 
L 366.516356 233.580426 
L 368.02231 232.900338 
L 370.532232 231.495779 
L 384.37864 223.390722 
L 388.812837 221.202346 
L 393.121537 219.323041 
L 397.430238 217.686972 
L 401.822603 216.258515 
L 406.382296 215.011547 
L 411.192981 213.928564 
L 416.380155 212.991993 
L 422.069313 212.194613 
L 426.127022 211.604695 
L 426.378014 211.214819 
L 426.670838 210.327929 
L 427.130991 208.036686 
L 429.306257 196.187274 
L 430.059234 193.287032 
L 430.770379 191.40206 
L 431.439692 190.227012 
L 431.941676 189.716728 
L 432.527325 189.536731 
L 434.242439 189.365542 
L 435.371904 189.373825 
L 436.208545 189.752836 
L 437.839995 190.766102 
L 442.65068 194.145276 
L 446.248236 196.478063 
L 449.636632 198.408434 
L 453.06686 200.106066 
L 456.664416 201.636351 
L 460.471132 203.011206 
L 464.52884 204.238866 
L 468.921205 205.334343 
L 473.773722 206.311464 
L 479.170056 207.166551 
L 485.277535 207.904582 
L 491.050358 208.430449 
L 491.050358 208.430449 
" clip-path="url(#p86083a7a00)" style="fill: none; stroke: #999933; stroke-width: 1.5; stroke-linecap: round"/>
   </g>
   <g id="patch_28">
    <path d="M 281.885 236.10375 
L 281.885 185.734077 
" style="fill: none; stroke: #262626; stroke-width: 1.25; stroke-linejoin: miter; stroke-linecap: square"/>
   </g>
   <g id="patch_29">
    <path d="M 491.04 236.10375 
L 491.04 185.734077 
" style="fill: none; stroke: #262626; stroke-width: 1.25; stroke-linejoin: miter; stroke-linecap: square"/>
   </g>
   <g id="patch_30">
    <path d="M 281.885 236.10375 
L 491.04 236.10375 
" style="fill: none; stroke: #262626; stroke-width: 1.25; stroke-linejoin: miter; stroke-linecap: square"/>
   </g>
   <g id="patch_31">
    <path d="M 281.885 185.734077 
L 491.04 185.734077 
" style="fill: none; stroke: #262626; stroke-width: 1.25; stroke-linejoin: miter; stroke-linecap: square"/>
   </g>
  </g>
 </g>
 <defs>
  <clipPath id="p513047b13e">
   <rect x="28.58" y="14.001618" width="209.155" height="50.369673"/>
  </clipPath>
  <clipPath id="p94494d438c">
   <rect x="28.58" y="99.867847" width="209.155" height="50.369673"/>
  </clipPath>
  <clipPath id="pa442a8774d">
   <rect x="28.58" y="185.734077" width="209.155" height="50.369673"/>
  </clipPath>
  <clipPath id="p7991b4fa8d">
   <rect x="281.885" y="14.001618" width="209.155" height="50.369673"/>
  </clipPath>
  <clipPath id="pe388b5f980">
   <rect x="281.885" y="99.867847" width="209.155" height="50.369673"/>
  </clipPath>
  <clipPath id="p86083a7a00">
   <rect x="281.885" y="185.734077" width="209.155" height="50.369673"/>
  </clipPath>
 </defs>
</svg>
