<?xml version="1.0" encoding="utf-8" standalone="no"?>
<!DOCTYPE svg PUBLIC "-//W3C//DTD SVG 1.1//EN"
  "http://www.w3.org/Graphics/SVG/1.1/DTD/svg11.dtd">
<svg xmlns:xlink="http://www.w3.org/1999/xlink" width="460.8pt" height="345.6pt" viewBox="0 0 460.8 345.6" xmlns="http://www.w3.org/2000/svg" version="1.1">
 <metadata>
  <rdf:RDF xmlns:dc="http://purl.org/dc/elements/1.1/" xmlns:cc="http://creativecommons.org/ns#" xmlns:rdf="http://www.w3.org/1999/02/22-rdf-syntax-ns#">
   <cc:Work>
    <dc:type rdf:resource="http://purl.org/dc/dcmitype/StillImage"/>
    <dc:date>2023-03-26T10:53:00.292480</dc:date>
    <dc:format>image/svg+xml</dc:format>
    <dc:creator>
     <cc:Agent>
      <dc:title>Matplotlib v3.7.1, https://matplotlib.org/</dc:title>
     </cc:Agent>
    </dc:creator>
   </cc:Work>
  </rdf:RDF>
 </metadata>
 <defs>
  <style type="text/css">*{stroke-linejoin: round; stroke-linecap: butt}</style>
 </defs>
 <g id="figure_1">
  <g id="patch_1">
   <path d="M 0 345.6 
L 460.8 345.6 
L 460.8 0 
L 0 0 
z
" style="fill: #ffffff"/>
  </g>
  <g id="axes_1">
   <g id="patch_2">
    <path d="M 57.6 307.584 
L 414.72 307.584 
L 414.72 41.472 
L 57.6 41.472 
z
" style="fill: #eaeaf2"/>
   </g>
   <g id="matplotlib.axis_1">
    <g id="xtick_1">
     <g id="line2d_1">
      <path d="M 73.832727 307.584 
L 73.832727 41.472 
" clip-path="url(#p72b41a8d1b)" style="fill: none; stroke: #ffffff; stroke-linecap: round"/>
     </g>
     <g id="text_1">
      <!-- $\mathdefault{10^{1}}$ -->
      <g style="fill: #262626" transform="translate(64.152727 325.442281) scale(0.11 -0.11)">
       <defs>
        <path id="DejaVuSans-31" d="M 794 531 
L 1825 531 
L 1825 4091 
L 703 3866 
L 703 4441 
L 1819 4666 
L 2450 4666 
L 2450 531 
L 3481 531 
L 3481 0 
L 794 0 
L 794 531 
z
" transform="scale(0.015625)"/>
        <path id="DejaVuSans-30" d="M 2034 4250 
Q 1547 4250 1301 3770 
Q 1056 3291 1056 2328 
Q 1056 1369 1301 889 
Q 1547 409 2034 409 
Q 2525 409 2770 889 
Q 3016 1369 3016 2328 
Q 3016 3291 2770 3770 
Q 2525 4250 2034 4250 
z
M 2034 4750 
Q 2819 4750 3233 4129 
Q 3647 3509 3647 2328 
Q 3647 1150 3233 529 
Q 2819 -91 2034 -91 
Q 1250 -91 836 529 
Q 422 1150 422 2328 
Q 422 3509 836 4129 
Q 1250 4750 2034 4750 
z
" transform="scale(0.015625)"/>
       </defs>
       <use xlink:href="#DejaVuSans-31" transform="translate(0 0.684375)"/>
       <use xlink:href="#DejaVuSans-30" transform="translate(63.623047 0.684375)"/>
       <use xlink:href="#DejaVuSans-31" transform="translate(128.203125 38.965625) scale(0.7)"/>
      </g>
     </g>
    </g>
    <g id="xtick_2">
     <g id="line2d_2">
      <path d="M 332.46545 307.584 
L 332.46545 41.472 
" clip-path="url(#p72b41a8d1b)" style="fill: none; stroke: #ffffff; stroke-linecap: round"/>
     </g>
     <g id="text_2">
      <!-- $\mathdefault{10^{2}}$ -->
      <g style="fill: #262626" transform="translate(322.78545 325.442281) scale(0.11 -0.11)">
       <defs>
        <path id="DejaVuSans-32" d="M 1228 531 
L 3431 531 
L 3431 0 
L 469 0 
L 469 531 
Q 828 903 1448 1529 
Q 2069 2156 2228 2338 
Q 2531 2678 2651 2914 
Q 2772 3150 2772 3378 
Q 2772 3750 2511 3984 
Q 2250 4219 1831 4219 
Q 1534 4219 1204 4116 
Q 875 4013 500 3803 
L 500 4441 
Q 881 4594 1212 4672 
Q 1544 4750 1819 4750 
Q 2544 4750 2975 4387 
Q 3406 4025 3406 3419 
Q 3406 3131 3298 2873 
Q 3191 2616 2906 2266 
Q 2828 2175 2409 1742 
Q 1991 1309 1228 531 
z
" transform="scale(0.015625)"/>
       </defs>
       <use xlink:href="#DejaVuSans-31" transform="translate(0 0.765625)"/>
       <use xlink:href="#DejaVuSans-30" transform="translate(63.623047 0.765625)"/>
       <use xlink:href="#DejaVuSans-32" transform="translate(128.203125 39.046875) scale(0.7)"/>
      </g>
     </g>
    </g>
    <g id="xtick_3"/>
    <g id="xtick_4"/>
    <g id="xtick_5"/>
    <g id="xtick_6"/>
    <g id="xtick_7"/>
    <g id="xtick_8"/>
    <g id="xtick_9"/>
    <g id="xtick_10"/>
    <g id="xtick_11"/>
    <g id="xtick_12"/>
    <g id="text_3">
     <!-- Edge Velocity (deg/s) -->
     <g style="fill: #262626" transform="translate(172.5675 340.848062) scale(0.12 -0.12)">
      <defs>
       <path id="DejaVuSans-45" d="M 628 4666 
L 3578 4666 
L 3578 4134 
L 1259 4134 
L 1259 2753 
L 3481 2753 
L 3481 2222 
L 1259 2222 
L 1259 531 
L 3634 531 
L 3634 0 
L 628 0 
L 628 4666 
z
" transform="scale(0.015625)"/>
       <path id="DejaVuSans-64" d="M 2906 2969 
L 2906 4863 
L 3481 4863 
L 3481 0 
L 2906 0 
L 2906 525 
Q 2725 213 2448 61 
Q 2172 -91 1784 -91 
Q 1150 -91 751 415 
Q 353 922 353 1747 
Q 353 2572 751 3078 
Q 1150 3584 1784 3584 
Q 2172 3584 2448 3432 
Q 2725 3281 2906 2969 
z
M 947 1747 
Q 947 1113 1208 752 
Q 1469 391 1925 391 
Q 2381 391 2643 752 
Q 2906 1113 2906 1747 
Q 2906 2381 2643 2742 
Q 2381 3103 1925 3103 
Q 1469 3103 1208 2742 
Q 947 2381 947 1747 
z
" transform="scale(0.015625)"/>
       <path id="DejaVuSans-67" d="M 2906 1791 
Q 2906 2416 2648 2759 
Q 2391 3103 1925 3103 
Q 1463 3103 1205 2759 
Q 947 2416 947 1791 
Q 947 1169 1205 825 
Q 1463 481 1925 481 
Q 2391 481 2648 825 
Q 2906 1169 2906 1791 
z
M 3481 434 
Q 3481 -459 3084 -895 
Q 2688 -1331 1869 -1331 
Q 1566 -1331 1297 -1286 
Q 1028 -1241 775 -1147 
L 775 -588 
Q 1028 -725 1275 -790 
Q 1522 -856 1778 -856 
Q 2344 -856 2625 -561 
Q 2906 -266 2906 331 
L 2906 616 
Q 2728 306 2450 153 
Q 2172 0 1784 0 
Q 1141 0 747 490 
Q 353 981 353 1791 
Q 353 2603 747 3093 
Q 1141 3584 1784 3584 
Q 2172 3584 2450 3431 
Q 2728 3278 2906 2969 
L 2906 3500 
L 3481 3500 
L 3481 434 
z
" transform="scale(0.015625)"/>
       <path id="DejaVuSans-65" d="M 3597 1894 
L 3597 1613 
L 953 1613 
Q 991 1019 1311 708 
Q 1631 397 2203 397 
Q 2534 397 2845 478 
Q 3156 559 3463 722 
L 3463 178 
Q 3153 47 2828 -22 
Q 2503 -91 2169 -91 
Q 1331 -91 842 396 
Q 353 884 353 1716 
Q 353 2575 817 3079 
Q 1281 3584 2069 3584 
Q 2775 3584 3186 3129 
Q 3597 2675 3597 1894 
z
M 3022 2063 
Q 3016 2534 2758 2815 
Q 2500 3097 2075 3097 
Q 1594 3097 1305 2825 
Q 1016 2553 972 2059 
L 3022 2063 
z
" transform="scale(0.015625)"/>
       <path id="DejaVuSans-20" transform="scale(0.015625)"/>
       <path id="DejaVuSans-56" d="M 1831 0 
L 50 4666 
L 709 4666 
L 2188 738 
L 3669 4666 
L 4325 4666 
L 2547 0 
L 1831 0 
z
" transform="scale(0.015625)"/>
       <path id="DejaVuSans-6c" d="M 603 4863 
L 1178 4863 
L 1178 0 
L 603 0 
L 603 4863 
z
" transform="scale(0.015625)"/>
       <path id="DejaVuSans-6f" d="M 1959 3097 
Q 1497 3097 1228 2736 
Q 959 2375 959 1747 
Q 959 1119 1226 758 
Q 1494 397 1959 397 
Q 2419 397 2687 759 
Q 2956 1122 2956 1747 
Q 2956 2369 2687 2733 
Q 2419 3097 1959 3097 
z
M 1959 3584 
Q 2709 3584 3137 3096 
Q 3566 2609 3566 1747 
Q 3566 888 3137 398 
Q 2709 -91 1959 -91 
Q 1206 -91 779 398 
Q 353 888 353 1747 
Q 353 2609 779 3096 
Q 1206 3584 1959 3584 
z
" transform="scale(0.015625)"/>
       <path id="DejaVuSans-63" d="M 3122 3366 
L 3122 2828 
Q 2878 2963 2633 3030 
Q 2388 3097 2138 3097 
Q 1578 3097 1268 2742 
Q 959 2388 959 1747 
Q 959 1106 1268 751 
Q 1578 397 2138 397 
Q 2388 397 2633 464 
Q 2878 531 3122 666 
L 3122 134 
Q 2881 22 2623 -34 
Q 2366 -91 2075 -91 
Q 1284 -91 818 406 
Q 353 903 353 1747 
Q 353 2603 823 3093 
Q 1294 3584 2113 3584 
Q 2378 3584 2631 3529 
Q 2884 3475 3122 3366 
z
" transform="scale(0.015625)"/>
       <path id="DejaVuSans-69" d="M 603 3500 
L 1178 3500 
L 1178 0 
L 603 0 
L 603 3500 
z
M 603 4863 
L 1178 4863 
L 1178 4134 
L 603 4134 
L 603 4863 
z
" transform="scale(0.015625)"/>
       <path id="DejaVuSans-74" d="M 1172 4494 
L 1172 3500 
L 2356 3500 
L 2356 3053 
L 1172 3053 
L 1172 1153 
Q 1172 725 1289 603 
Q 1406 481 1766 481 
L 2356 481 
L 2356 0 
L 1766 0 
Q 1100 0 847 248 
Q 594 497 594 1153 
L 594 3053 
L 172 3053 
L 172 3500 
L 594 3500 
L 594 4494 
L 1172 4494 
z
" transform="scale(0.015625)"/>
       <path id="DejaVuSans-79" d="M 2059 -325 
Q 1816 -950 1584 -1140 
Q 1353 -1331 966 -1331 
L 506 -1331 
L 506 -850 
L 844 -850 
Q 1081 -850 1212 -737 
Q 1344 -625 1503 -206 
L 1606 56 
L 191 3500 
L 800 3500 
L 1894 763 
L 2988 3500 
L 3597 3500 
L 2059 -325 
z
" transform="scale(0.015625)"/>
       <path id="DejaVuSans-28" d="M 1984 4856 
Q 1566 4138 1362 3434 
Q 1159 2731 1159 2009 
Q 1159 1288 1364 580 
Q 1569 -128 1984 -844 
L 1484 -844 
Q 1016 -109 783 600 
Q 550 1309 550 2009 
Q 550 2706 781 3412 
Q 1013 4119 1484 4856 
L 1984 4856 
z
" transform="scale(0.015625)"/>
       <path id="DejaVuSans-2f" d="M 1625 4666 
L 2156 4666 
L 531 -594 
L 0 -594 
L 1625 4666 
z
" transform="scale(0.015625)"/>
       <path id="DejaVuSans-73" d="M 2834 3397 
L 2834 2853 
Q 2591 2978 2328 3040 
Q 2066 3103 1784 3103 
Q 1356 3103 1142 2972 
Q 928 2841 928 2578 
Q 928 2378 1081 2264 
Q 1234 2150 1697 2047 
L 1894 2003 
Q 2506 1872 2764 1633 
Q 3022 1394 3022 966 
Q 3022 478 2636 193 
Q 2250 -91 1575 -91 
Q 1294 -91 989 -36 
Q 684 19 347 128 
L 347 722 
Q 666 556 975 473 
Q 1284 391 1588 391 
Q 1994 391 2212 530 
Q 2431 669 2431 922 
Q 2431 1156 2273 1281 
Q 2116 1406 1581 1522 
L 1381 1569 
Q 847 1681 609 1914 
Q 372 2147 372 2553 
Q 372 3047 722 3315 
Q 1072 3584 1716 3584 
Q 2034 3584 2315 3537 
Q 2597 3491 2834 3397 
z
" transform="scale(0.015625)"/>
       <path id="DejaVuSans-29" d="M 513 4856 
L 1013 4856 
Q 1481 4119 1714 3412 
Q 1947 2706 1947 2009 
Q 1947 1309 1714 600 
Q 1481 -109 1013 -844 
L 513 -844 
Q 928 -128 1133 580 
Q 1338 1288 1338 2009 
Q 1338 2731 1133 3434 
Q 928 4138 513 4856 
z
" transform="scale(0.015625)"/>
      </defs>
      <use xlink:href="#DejaVuSans-45"/>
      <use xlink:href="#DejaVuSans-64" x="63.183594"/>
      <use xlink:href="#DejaVuSans-67" x="126.660156"/>
      <use xlink:href="#DejaVuSans-65" x="190.136719"/>
      <use xlink:href="#DejaVuSans-20" x="251.660156"/>
      <use xlink:href="#DejaVuSans-56" x="283.447266"/>
      <use xlink:href="#DejaVuSans-65" x="344.105469"/>
      <use xlink:href="#DejaVuSans-6c" x="405.628906"/>
      <use xlink:href="#DejaVuSans-6f" x="433.412109"/>
      <use xlink:href="#DejaVuSans-63" x="494.59375"/>
      <use xlink:href="#DejaVuSans-69" x="549.574219"/>
      <use xlink:href="#DejaVuSans-74" x="577.357422"/>
      <use xlink:href="#DejaVuSans-79" x="616.566406"/>
      <use xlink:href="#DejaVuSans-20" x="675.746094"/>
      <use xlink:href="#DejaVuSans-28" x="707.533203"/>
      <use xlink:href="#DejaVuSans-64" x="746.546875"/>
      <use xlink:href="#DejaVuSans-65" x="810.023438"/>
      <use xlink:href="#DejaVuSans-67" x="871.546875"/>
      <use xlink:href="#DejaVuSans-2f" x="935.023438"/>
      <use xlink:href="#DejaVuSans-73" x="968.714844"/>
      <use xlink:href="#DejaVuSans-29" x="1020.814453"/>
     </g>
    </g>
   </g>
   <g id="matplotlib.axis_2">
    <g id="ytick_1">
     <g id="line2d_3">
      <path d="M 57.6 303.723351 
L 414.72 303.723351 
" clip-path="url(#p72b41a8d1b)" style="fill: none; stroke: #ffffff; stroke-linecap: round"/>
     </g>
     <g id="text_4">
      <!-- 0.00 -->
      <g style="fill: #262626" transform="translate(23.607813 307.902492) scale(0.11 -0.11)">
       <defs>
        <path id="DejaVuSans-2e" d="M 684 794 
L 1344 794 
L 1344 0 
L 684 0 
L 684 794 
z
" transform="scale(0.015625)"/>
       </defs>
       <use xlink:href="#DejaVuSans-30"/>
       <use xlink:href="#DejaVuSans-2e" x="63.623047"/>
       <use xlink:href="#DejaVuSans-30" x="95.410156"/>
       <use xlink:href="#DejaVuSans-30" x="159.033203"/>
      </g>
     </g>
    </g>
    <g id="ytick_2">
     <g id="line2d_4">
      <path d="M 57.6 260.798562 
L 414.72 260.798562 
" clip-path="url(#p72b41a8d1b)" style="fill: none; stroke: #ffffff; stroke-linecap: round"/>
     </g>
     <g id="text_5">
      <!-- 0.05 -->
      <g style="fill: #262626" transform="translate(23.607813 264.977703) scale(0.11 -0.11)">
       <defs>
        <path id="DejaVuSans-35" d="M 691 4666 
L 3169 4666 
L 3169 4134 
L 1269 4134 
L 1269 2991 
Q 1406 3038 1543 3061 
Q 1681 3084 1819 3084 
Q 2600 3084 3056 2656 
Q 3513 2228 3513 1497 
Q 3513 744 3044 326 
Q 2575 -91 1722 -91 
Q 1428 -91 1123 -41 
Q 819 9 494 109 
L 494 744 
Q 775 591 1075 516 
Q 1375 441 1709 441 
Q 2250 441 2565 725 
Q 2881 1009 2881 1497 
Q 2881 1984 2565 2268 
Q 2250 2553 1709 2553 
Q 1456 2553 1204 2497 
Q 953 2441 691 2322 
L 691 4666 
z
" transform="scale(0.015625)"/>
       </defs>
       <use xlink:href="#DejaVuSans-30"/>
       <use xlink:href="#DejaVuSans-2e" x="63.623047"/>
       <use xlink:href="#DejaVuSans-30" x="95.410156"/>
       <use xlink:href="#DejaVuSans-35" x="159.033203"/>
      </g>
     </g>
    </g>
    <g id="ytick_3">
     <g id="line2d_5">
      <path d="M 57.6 217.873773 
L 414.72 217.873773 
" clip-path="url(#p72b41a8d1b)" style="fill: none; stroke: #ffffff; stroke-linecap: round"/>
     </g>
     <g id="text_6">
      <!-- 0.10 -->
      <g style="fill: #262626" transform="translate(23.607813 222.052914) scale(0.11 -0.11)">
       <use xlink:href="#DejaVuSans-30"/>
       <use xlink:href="#DejaVuSans-2e" x="63.623047"/>
       <use xlink:href="#DejaVuSans-31" x="95.410156"/>
       <use xlink:href="#DejaVuSans-30" x="159.033203"/>
      </g>
     </g>
    </g>
    <g id="ytick_4">
     <g id="line2d_6">
      <path d="M 57.6 174.948984 
L 414.72 174.948984 
" clip-path="url(#p72b41a8d1b)" style="fill: none; stroke: #ffffff; stroke-linecap: round"/>
     </g>
     <g id="text_7">
      <!-- 0.15 -->
      <g style="fill: #262626" transform="translate(23.607813 179.128124) scale(0.11 -0.11)">
       <use xlink:href="#DejaVuSans-30"/>
       <use xlink:href="#DejaVuSans-2e" x="63.623047"/>
       <use xlink:href="#DejaVuSans-31" x="95.410156"/>
       <use xlink:href="#DejaVuSans-35" x="159.033203"/>
      </g>
     </g>
    </g>
    <g id="ytick_5">
     <g id="line2d_7">
      <path d="M 57.6 132.024194 
L 414.72 132.024194 
" clip-path="url(#p72b41a8d1b)" style="fill: none; stroke: #ffffff; stroke-linecap: round"/>
     </g>
     <g id="text_8">
      <!-- 0.20 -->
      <g style="fill: #262626" transform="translate(23.607813 136.203335) scale(0.11 -0.11)">
       <use xlink:href="#DejaVuSans-30"/>
       <use xlink:href="#DejaVuSans-2e" x="63.623047"/>
       <use xlink:href="#DejaVuSans-32" x="95.410156"/>
       <use xlink:href="#DejaVuSans-30" x="159.033203"/>
      </g>
     </g>
    </g>
    <g id="ytick_6">
     <g id="line2d_8">
      <path d="M 57.6 89.099405 
L 414.72 89.099405 
" clip-path="url(#p72b41a8d1b)" style="fill: none; stroke: #ffffff; stroke-linecap: round"/>
     </g>
     <g id="text_9">
      <!-- 0.25 -->
      <g style="fill: #262626" transform="translate(23.607813 93.278546) scale(0.11 -0.11)">
       <use xlink:href="#DejaVuSans-30"/>
       <use xlink:href="#DejaVuSans-2e" x="63.623047"/>
       <use xlink:href="#DejaVuSans-32" x="95.410156"/>
       <use xlink:href="#DejaVuSans-35" x="159.033203"/>
      </g>
     </g>
    </g>
    <g id="ytick_7">
     <g id="line2d_9">
      <path d="M 57.6 46.174616 
L 414.72 46.174616 
" clip-path="url(#p72b41a8d1b)" style="fill: none; stroke: #ffffff; stroke-linecap: round"/>
     </g>
     <g id="text_10">
      <!-- 0.30 -->
      <g style="fill: #262626" transform="translate(23.607813 50.353757) scale(0.11 -0.11)">
       <defs>
        <path id="DejaVuSans-33" d="M 2597 2516 
Q 3050 2419 3304 2112 
Q 3559 1806 3559 1356 
Q 3559 666 3084 287 
Q 2609 -91 1734 -91 
Q 1441 -91 1130 -33 
Q 819 25 488 141 
L 488 750 
Q 750 597 1062 519 
Q 1375 441 1716 441 
Q 2309 441 2620 675 
Q 2931 909 2931 1356 
Q 2931 1769 2642 2001 
Q 2353 2234 1838 2234 
L 1294 2234 
L 1294 2753 
L 1863 2753 
Q 2328 2753 2575 2939 
Q 2822 3125 2822 3475 
Q 2822 3834 2567 4026 
Q 2313 4219 1838 4219 
Q 1578 4219 1281 4162 
Q 984 4106 628 3988 
L 628 4550 
Q 988 4650 1302 4700 
Q 1616 4750 1894 4750 
Q 2613 4750 3031 4423 
Q 3450 4097 3450 3541 
Q 3450 3153 3228 2886 
Q 3006 2619 2597 2516 
z
" transform="scale(0.015625)"/>
       </defs>
       <use xlink:href="#DejaVuSans-30"/>
       <use xlink:href="#DejaVuSans-2e" x="63.623047"/>
       <use xlink:href="#DejaVuSans-33" x="95.410156"/>
       <use xlink:href="#DejaVuSans-30" x="159.033203"/>
      </g>
     </g>
    </g>
    <g id="text_11">
     <!-- Peak Magnitude -->
     <g style="fill: #262626" transform="translate(17.112187 222.466125) rotate(-90) scale(0.12 -0.12)">
      <defs>
       <path id="DejaVuSans-50" d="M 1259 4147 
L 1259 2394 
L 2053 2394 
Q 2494 2394 2734 2622 
Q 2975 2850 2975 3272 
Q 2975 3691 2734 3919 
Q 2494 4147 2053 4147 
L 1259 4147 
z
M 628 4666 
L 2053 4666 
Q 2838 4666 3239 4311 
Q 3641 3956 3641 3272 
Q 3641 2581 3239 2228 
Q 2838 1875 2053 1875 
L 1259 1875 
L 1259 0 
L 628 0 
L 628 4666 
z
" transform="scale(0.015625)"/>
       <path id="DejaVuSans-61" d="M 2194 1759 
Q 1497 1759 1228 1600 
Q 959 1441 959 1056 
Q 959 750 1161 570 
Q 1363 391 1709 391 
Q 2188 391 2477 730 
Q 2766 1069 2766 1631 
L 2766 1759 
L 2194 1759 
z
M 3341 1997 
L 3341 0 
L 2766 0 
L 2766 531 
Q 2569 213 2275 61 
Q 1981 -91 1556 -91 
Q 1019 -91 701 211 
Q 384 513 384 1019 
Q 384 1609 779 1909 
Q 1175 2209 1959 2209 
L 2766 2209 
L 2766 2266 
Q 2766 2663 2505 2880 
Q 2244 3097 1772 3097 
Q 1472 3097 1187 3025 
Q 903 2953 641 2809 
L 641 3341 
Q 956 3463 1253 3523 
Q 1550 3584 1831 3584 
Q 2591 3584 2966 3190 
Q 3341 2797 3341 1997 
z
" transform="scale(0.015625)"/>
       <path id="DejaVuSans-6b" d="M 581 4863 
L 1159 4863 
L 1159 1991 
L 2875 3500 
L 3609 3500 
L 1753 1863 
L 3688 0 
L 2938 0 
L 1159 1709 
L 1159 0 
L 581 0 
L 581 4863 
z
" transform="scale(0.015625)"/>
       <path id="DejaVuSans-4d" d="M 628 4666 
L 1569 4666 
L 2759 1491 
L 3956 4666 
L 4897 4666 
L 4897 0 
L 4281 0 
L 4281 4097 
L 3078 897 
L 2444 897 
L 1241 4097 
L 1241 0 
L 628 0 
L 628 4666 
z
" transform="scale(0.015625)"/>
       <path id="DejaVuSans-6e" d="M 3513 2113 
L 3513 0 
L 2938 0 
L 2938 2094 
Q 2938 2591 2744 2837 
Q 2550 3084 2163 3084 
Q 1697 3084 1428 2787 
Q 1159 2491 1159 1978 
L 1159 0 
L 581 0 
L 581 3500 
L 1159 3500 
L 1159 2956 
Q 1366 3272 1645 3428 
Q 1925 3584 2291 3584 
Q 2894 3584 3203 3211 
Q 3513 2838 3513 2113 
z
" transform="scale(0.015625)"/>
       <path id="DejaVuSans-75" d="M 544 1381 
L 544 3500 
L 1119 3500 
L 1119 1403 
Q 1119 906 1312 657 
Q 1506 409 1894 409 
Q 2359 409 2629 706 
Q 2900 1003 2900 1516 
L 2900 3500 
L 3475 3500 
L 3475 0 
L 2900 0 
L 2900 538 
Q 2691 219 2414 64 
Q 2138 -91 1772 -91 
Q 1169 -91 856 284 
Q 544 659 544 1381 
z
M 1991 3584 
L 1991 3584 
z
" transform="scale(0.015625)"/>
      </defs>
      <use xlink:href="#DejaVuSans-50"/>
      <use xlink:href="#DejaVuSans-65" x="56.677734"/>
      <use xlink:href="#DejaVuSans-61" x="118.201172"/>
      <use xlink:href="#DejaVuSans-6b" x="179.480469"/>
      <use xlink:href="#DejaVuSans-20" x="237.390625"/>
      <use xlink:href="#DejaVuSans-4d" x="269.177734"/>
      <use xlink:href="#DejaVuSans-61" x="355.457031"/>
      <use xlink:href="#DejaVuSans-67" x="416.736328"/>
      <use xlink:href="#DejaVuSans-6e" x="480.212891"/>
      <use xlink:href="#DejaVuSans-69" x="543.591797"/>
      <use xlink:href="#DejaVuSans-74" x="571.375"/>
      <use xlink:href="#DejaVuSans-75" x="610.583984"/>
      <use xlink:href="#DejaVuSans-64" x="673.962891"/>
      <use xlink:href="#DejaVuSans-65" x="737.439453"/>
     </g>
    </g>
   </g>
   <g id="line2d_10">
    <path d="M 73.832727 282.724837 
L 107.286315 266.334753 
L 133.029105 252.762378 
L 153.958159 242.622756 
L 171.593254 235.355025 
L 186.831619 230.295689 
L 200.247454 228.13776 
L 212.230511 230.430927 
L 223.05751 235.243531 
L 232.932015 240.998126 
L 242.008147 246.67915 
L 250.405405 251.849922 
L 258.218316 256.44762 
L 265.522943 260.402299 
L 272.3814 263.800404 
L 278.845068 266.704567 
L 284.956934 269.13678 
L 290.753325 271.293228 
L 296.265215 273.087255 
L 301.519232 274.699345 
L 306.53843 276.094592 
L 311.342903 277.291569 
L 315.950273 278.350867 
L 320.376076 279.324845 
L 324.634082 280.139052 
L 328.736551 280.922921 
L 332.694446 281.602605 
L 336.517612 282.186401 
L 340.21492 282.751236 
L 343.794392 283.230185 
L 347.263309 283.695351 
L 350.628296 284.115799 
L 353.895399 284.495539 
L 357.070152 284.870031 
L 360.157633 285.213383 
L 363.162513 285.532663 
L 366.089095 285.870635 
L 368.941357 286.207834 
L 371.722981 286.603404 
L 374.43738 287.039503 
L 377.087728 287.60746 
L 379.676977 288.381304 
L 382.207882 289.123565 
L 384.683014 289.849732 
L 387.104778 290.560115 
L 389.475428 291.25499 
L 391.797075 291.838422 
L 394.071705 292.410698 
L 396.301185 292.879061 
L 398.487273 293.430705 
" clip-path="url(#p72b41a8d1b)" style="fill: none; stroke-dasharray: 1.5,2.475; stroke-dashoffset: 0; stroke: #402aaa; stroke-width: 1.5"/>
   </g>
   <g id="line2d_11">
    <path d="M 73.832727 281.732302 
L 107.286315 271.443174 
L 133.029105 258.655301 
L 153.958159 248.778993 
L 171.593254 241.529861 
L 186.831619 236.337704 
L 200.247454 234.0865 
L 212.230511 235.873098 
L 223.05751 239.872733 
L 232.932015 244.716582 
L 242.008147 249.517666 
L 250.405405 253.973273 
L 258.218316 257.934046 
L 265.522943 261.373629 
L 272.3814 264.345547 
L 278.845068 266.875761 
L 284.956934 269.069049 
L 290.753325 270.970219 
L 296.265215 272.62475 
L 301.519232 274.049588 
L 306.53843 275.312913 
L 311.342903 276.401818 
L 315.950273 277.376918 
L 320.376076 278.246103 
L 324.634082 279.016976 
L 328.736551 279.696741 
L 332.694446 280.312327 
L 336.517612 280.887641 
L 340.21492 281.387363 
L 343.794392 281.854327 
L 347.263309 282.273484 
L 350.628296 282.667064 
L 353.895399 283.021452 
L 357.070152 283.376985 
L 360.157633 283.703741 
L 363.162513 284.025849 
L 366.089095 284.371959 
L 368.941357 284.734115 
L 371.722981 285.123852 
L 374.43738 285.553013 
L 377.087728 286.03265 
L 379.676977 286.621662 
L 382.207882 287.361837 
L 384.683014 288.097191 
L 387.104778 288.888978 
L 389.475428 289.600566 
L 391.797075 290.235676 
L 394.071705 290.859469 
L 396.301185 291.411027 
L 398.487273 292.012545 
" clip-path="url(#p72b41a8d1b)" style="fill: none; stroke-dasharray: 1.5,2.475; stroke-dashoffset: 0; stroke: #4d33cc; stroke-width: 1.5"/>
   </g>
   <g id="line2d_12">
    <path d="M 73.832727 286.948973 
L 107.286315 283.844583 
L 133.029105 272.881605 
L 153.958159 263.362491 
L 171.593254 255.647252 
L 186.831619 249.627404 
L 200.247454 245.023415 
L 212.230511 242.59288 
L 223.05751 243.528035 
L 232.932015 246.552259 
L 242.008147 250.537435 
L 250.405405 254.74272 
L 258.218316 258.750231 
L 265.522943 262.36791 
L 272.3814 265.597456 
L 278.845068 268.4136 
L 284.956934 270.869163 
L 290.753325 273.000546 
L 296.265215 274.85257 
L 301.519232 276.441167 
L 306.53843 277.843798 
L 311.342903 279.073102 
L 315.950273 280.168952 
L 320.376076 281.115156 
L 324.634082 281.973529 
L 328.736551 282.749902 
L 332.694446 283.427013 
L 336.517612 284.034778 
L 340.21492 284.599412 
L 343.794392 285.102697 
L 347.263309 285.548988 
L 350.628296 285.961634 
L 353.895399 286.342597 
L 357.070152 286.693777 
L 360.157633 287.017031 
L 363.162513 287.314186 
L 366.089095 287.587063 
L 368.941357 287.837485 
L 371.722981 288.067276 
L 374.43738 288.294405 
L 377.087728 288.504432 
L 379.676977 288.715765 
L 382.207882 288.914712 
L 384.683014 289.103496 
L 387.104778 289.302492 
L 389.475428 289.517263 
L 391.797075 289.732676 
L 394.071705 289.949688 
L 396.301185 290.226245 
L 398.487273 290.518233 
" clip-path="url(#p72b41a8d1b)" style="fill: none; stroke-dasharray: 1.5,2.475; stroke-dashoffset: 0; stroke: #6a55d4; stroke-width: 1.5"/>
   </g>
   <g id="line2d_13">
    <path d="M 73.832727 53.568 
L 107.286315 125.924538 
L 133.029105 176.832971 
L 153.958159 179.123543 
L 171.593254 184.399054 
L 186.831619 193.003317 
L 200.247454 204.070641 
L 212.230511 215.97986 
L 223.05751 227.401692 
L 232.932015 237.64197 
L 242.008147 246.409089 
L 250.405405 253.716791 
L 258.218316 259.800569 
L 265.522943 264.806311 
L 272.3814 268.969575 
L 278.845068 272.416319 
L 284.956934 275.269001 
L 290.753325 277.723238 
L 296.265215 279.780431 
L 301.519232 281.524216 
L 306.53843 283.060772 
L 311.342903 284.376531 
L 315.950273 285.527037 
L 320.376076 286.528493 
L 324.634082 287.42455 
L 328.736551 288.224311 
L 332.694446 288.936032 
L 336.517612 289.567146 
L 340.21492 290.149152 
L 343.794392 290.661437 
L 347.263309 291.132689 
L 350.628296 291.543183 
L 353.895399 291.940981 
L 357.070152 292.305206 
L 360.157633 292.617463 
L 363.162513 292.921291 
L 366.089095 293.197355 
L 368.941357 293.466258 
L 371.722981 293.691109 
L 374.43738 293.928885 
L 377.087728 294.125402 
L 379.676977 294.317668 
L 382.207882 294.505714 
L 384.683014 294.673029 
L 387.104778 294.836903 
L 389.475428 294.981464 
L 391.797075 295.123265 
L 394.071705 295.247005 
L 396.301185 295.383626 
L 398.487273 295.488 
" clip-path="url(#p72b41a8d1b)" style="fill: none; stroke-dasharray: 1.5,2.475; stroke-dashoffset: 0; stroke: #8877dd; stroke-width: 1.5"/>
   </g>
   <g id="patch_3">
    <path d="M 57.6 307.584 
L 57.6 41.472 
" style="fill: none; stroke: #ffffff; stroke-width: 1.25; stroke-linejoin: miter; stroke-linecap: square"/>
   </g>
   <g id="patch_4">
    <path d="M 57.6 307.584 
L 414.72 307.584 
" style="fill: none; stroke: #ffffff; stroke-width: 1.25; stroke-linejoin: miter; stroke-linecap: square"/>
   </g>
   <g id="text_12">
    <!-- T4_a Peak Velocity Response -->
    <g style="fill: #262626" transform="translate(149.68125 35.472) scale(0.12 -0.12)">
     <defs>
      <path id="DejaVuSans-54" d="M -19 4666 
L 3928 4666 
L 3928 4134 
L 2272 4134 
L 2272 0 
L 1638 0 
L 1638 4134 
L -19 4134 
L -19 4666 
z
" transform="scale(0.015625)"/>
      <path id="DejaVuSans-34" d="M 2419 4116 
L 825 1625 
L 2419 1625 
L 2419 4116 
z
M 2253 4666 
L 3047 4666 
L 3047 1625 
L 3713 1625 
L 3713 1100 
L 3047 1100 
L 3047 0 
L 2419 0 
L 2419 1100 
L 313 1100 
L 313 1709 
L 2253 4666 
z
" transform="scale(0.015625)"/>
      <path id="DejaVuSans-5f" d="M 3263 -1063 
L 3263 -1509 
L -63 -1509 
L -63 -1063 
L 3263 -1063 
z
" transform="scale(0.015625)"/>
      <path id="DejaVuSans-52" d="M 2841 2188 
Q 3044 2119 3236 1894 
Q 3428 1669 3622 1275 
L 4263 0 
L 3584 0 
L 2988 1197 
Q 2756 1666 2539 1819 
Q 2322 1972 1947 1972 
L 1259 1972 
L 1259 0 
L 628 0 
L 628 4666 
L 2053 4666 
Q 2853 4666 3247 4331 
Q 3641 3997 3641 3322 
Q 3641 2881 3436 2590 
Q 3231 2300 2841 2188 
z
M 1259 4147 
L 1259 2491 
L 2053 2491 
Q 2509 2491 2742 2702 
Q 2975 2913 2975 3322 
Q 2975 3731 2742 3939 
Q 2509 4147 2053 4147 
L 1259 4147 
z
" transform="scale(0.015625)"/>
      <path id="DejaVuSans-70" d="M 1159 525 
L 1159 -1331 
L 581 -1331 
L 581 3500 
L 1159 3500 
L 1159 2969 
Q 1341 3281 1617 3432 
Q 1894 3584 2278 3584 
Q 2916 3584 3314 3078 
Q 3713 2572 3713 1747 
Q 3713 922 3314 415 
Q 2916 -91 2278 -91 
Q 1894 -91 1617 61 
Q 1341 213 1159 525 
z
M 3116 1747 
Q 3116 2381 2855 2742 
Q 2594 3103 2138 3103 
Q 1681 3103 1420 2742 
Q 1159 2381 1159 1747 
Q 1159 1113 1420 752 
Q 1681 391 2138 391 
Q 2594 391 2855 752 
Q 3116 1113 3116 1747 
z
" transform="scale(0.015625)"/>
     </defs>
     <use xlink:href="#DejaVuSans-54"/>
     <use xlink:href="#DejaVuSans-34" x="61.083984"/>
     <use xlink:href="#DejaVuSans-5f" x="124.707031"/>
     <use xlink:href="#DejaVuSans-61" x="174.707031"/>
     <use xlink:href="#DejaVuSans-20" x="235.986328"/>
     <use xlink:href="#DejaVuSans-50" x="267.773438"/>
     <use xlink:href="#DejaVuSans-65" x="324.451172"/>
     <use xlink:href="#DejaVuSans-61" x="385.974609"/>
     <use xlink:href="#DejaVuSans-6b" x="447.253906"/>
     <use xlink:href="#DejaVuSans-20" x="505.164062"/>
     <use xlink:href="#DejaVuSans-56" x="536.951172"/>
     <use xlink:href="#DejaVuSans-65" x="597.609375"/>
     <use xlink:href="#DejaVuSans-6c" x="659.132812"/>
     <use xlink:href="#DejaVuSans-6f" x="686.916016"/>
     <use xlink:href="#DejaVuSans-63" x="748.097656"/>
     <use xlink:href="#DejaVuSans-69" x="803.078125"/>
     <use xlink:href="#DejaVuSans-74" x="830.861328"/>
     <use xlink:href="#DejaVuSans-79" x="870.070312"/>
     <use xlink:href="#DejaVuSans-20" x="929.25"/>
     <use xlink:href="#DejaVuSans-52" x="961.037109"/>
     <use xlink:href="#DejaVuSans-65" x="1026.019531"/>
     <use xlink:href="#DejaVuSans-73" x="1087.542969"/>
     <use xlink:href="#DejaVuSans-70" x="1139.642578"/>
     <use xlink:href="#DejaVuSans-6f" x="1203.119141"/>
     <use xlink:href="#DejaVuSans-6e" x="1264.300781"/>
     <use xlink:href="#DejaVuSans-73" x="1327.679688"/>
     <use xlink:href="#DejaVuSans-65" x="1379.779297"/>
    </g>
   </g>
   <g id="legend_1">
    <g id="patch_5">
     <path d="M 364.82125 131.001688 
L 407.02 131.001688 
Q 409.22 131.001688 409.22 128.801688 
L 409.22 49.172 
Q 409.22 46.972 407.02 46.972 
L 364.82125 46.972 
Q 362.62125 46.972 362.62125 49.172 
L 362.62125 128.801688 
Q 362.62125 131.001688 364.82125 131.001688 
z
" style="fill: #eaeaf2; opacity: 0.8; stroke: #cccccc; stroke-linejoin: miter"/>
    </g>
    <g id="line2d_14">
     <path d="M 367.02125 55.880281 
L 378.02125 55.880281 
L 389.02125 55.880281 
" style="fill: none; stroke: #332288; stroke-width: 3; stroke-linecap: round"/>
    </g>
    <g id="text_13">
     <!-- 0 -->
     <g style="fill: #262626" transform="translate(397.82125 59.730281) scale(0.11 -0.11)">
      <use xlink:href="#DejaVuSans-30"/>
     </g>
    </g>
    <g id="line2d_15">
     <path d="M 367.02125 72.026219 
L 378.02125 72.026219 
L 389.02125 72.026219 
" style="fill: none; stroke-dasharray: 1.5,2.475; stroke-dashoffset: 0; stroke: #402aaa; stroke-width: 1.5"/>
    </g>
    <g id="text_14">
     <!-- 1 -->
     <g style="fill: #262626" transform="translate(397.82125 75.876219) scale(0.11 -0.11)">
      <use xlink:href="#DejaVuSans-31"/>
     </g>
    </g>
    <g id="line2d_16">
     <path d="M 367.02125 88.172156 
L 378.02125 88.172156 
L 389.02125 88.172156 
" style="fill: none; stroke-dasharray: 1.5,2.475; stroke-dashoffset: 0; stroke: #4d33cc; stroke-width: 1.5"/>
    </g>
    <g id="text_15">
     <!-- 2 -->
     <g style="fill: #262626" transform="translate(397.82125 92.022156) scale(0.11 -0.11)">
      <use xlink:href="#DejaVuSans-32"/>
     </g>
    </g>
    <g id="line2d_17">
     <path d="M 367.02125 104.318094 
L 378.02125 104.318094 
L 389.02125 104.318094 
" style="fill: none; stroke-dasharray: 1.5,2.475; stroke-dashoffset: 0; stroke: #6a55d4; stroke-width: 1.5"/>
    </g>
    <g id="text_16">
     <!-- 3 -->
     <g style="fill: #262626" transform="translate(397.82125 108.168094) scale(0.11 -0.11)">
      <use xlink:href="#DejaVuSans-33"/>
     </g>
    </g>
    <g id="line2d_18">
     <path d="M 367.02125 120.464031 
L 378.02125 120.464031 
L 389.02125 120.464031 
" style="fill: none; stroke-dasharray: 1.5,2.475; stroke-dashoffset: 0; stroke: #8877dd; stroke-width: 1.5"/>
    </g>
    <g id="text_17">
     <!-- 4 -->
     <g style="fill: #262626" transform="translate(397.82125 124.314031) scale(0.11 -0.11)">
      <use xlink:href="#DejaVuSans-34"/>
     </g>
    </g>
   </g>
   <g id="line2d_19">
    <path d="M 73.832727 285.887218 
L 107.286315 277.440519 
L 133.029105 265.3154 
L 153.958159 255.481243 
L 171.593254 247.923693 
L 186.831619 242.299214 
L 200.247454 238.353386 
L 212.230511 237.96393 
L 223.05751 240.615498 
L 232.932015 244.830473 
L 242.008147 249.497065 
L 250.405405 254.017595 
L 258.218316 258.194943 
L 265.522943 261.880392 
L 272.3814 265.102296 
L 278.845068 267.889282 
L 284.956934 270.243218 
L 290.753325 272.343005 
L 296.265215 274.097569 
L 301.519232 275.679144 
L 306.53843 277.051071 
L 311.342903 278.229854 
L 315.950273 279.274102 
L 320.376076 280.234835 
L 324.634082 281.038207 
L 328.736551 281.811666 
L 332.694446 282.482187 
L 336.517612 283.057874 
L 340.21492 283.61447 
L 343.794392 284.085881 
L 347.263309 284.542784 
L 350.628296 284.954135 
L 353.895399 285.322901 
L 357.070152 285.681325 
L 360.157633 286.001056 
L 363.162513 286.284796 
L 366.089095 286.562646 
L 368.941357 286.808734 
L 371.722981 287.052833 
L 374.43738 287.270598 
L 377.087728 287.49292 
L 379.676977 287.725978 
L 382.207882 287.946622 
L 384.683014 288.194158 
L 387.104778 288.485513 
L 389.475428 288.84685 
L 391.797075 289.242319 
L 394.071705 289.756162 
L 396.301185 290.282315 
L 398.487273 290.912972 
" clip-path="url(#p72b41a8d1b)" style="fill: none; stroke: #332288; stroke-width: 3; stroke-linecap: round"/>
   </g>
  </g>
 </g>
 <defs>
  <clipPath id="p72b41a8d1b">
   <rect x="57.6" y="41.472" width="357.12" height="266.112"/>
  </clipPath>
 </defs>
</svg>
