<?xml version="1.0" encoding="utf-8" standalone="no"?>
<!DOCTYPE svg PUBLIC "-//W3C//DTD SVG 1.1//EN"
  "http://www.w3.org/Graphics/SVG/1.1/DTD/svg11.dtd">
<svg xmlns:xlink="http://www.w3.org/1999/xlink" width="460.8pt" height="345.6pt" viewBox="0 0 460.8 345.6" xmlns="http://www.w3.org/2000/svg" version="1.1">
 <metadata>
  <rdf:RDF xmlns:dc="http://purl.org/dc/elements/1.1/" xmlns:cc="http://creativecommons.org/ns#" xmlns:rdf="http://www.w3.org/1999/02/22-rdf-syntax-ns#">
   <cc:Work>
    <dc:type rdf:resource="http://purl.org/dc/dcmitype/StillImage"/>
    <dc:date>2023-03-26T10:53:01.293222</dc:date>
    <dc:format>image/svg+xml</dc:format>
    <dc:creator>
     <cc:Agent>
      <dc:title>Matplotlib v3.7.1, https://matplotlib.org/</dc:title>
     </cc:Agent>
    </dc:creator>
   </cc:Work>
  </rdf:RDF>
 </metadata>
 <defs>
  <style type="text/css">*{stroke-linejoin: round; stroke-linecap: butt}</style>
 </defs>
 <g id="figure_1">
  <g id="patch_1">
   <path d="M 0 345.6 
L 460.8 345.6 
L 460.8 0 
L 0 0 
z
" style="fill: #ffffff"/>
  </g>
  <g id="axes_1">
   <g id="patch_2">
    <path d="M 57.6 307.584 
L 414.72 307.584 
L 414.72 41.472 
L 57.6 41.472 
z
" style="fill: #eaeaf2"/>
   </g>
   <g id="matplotlib.axis_1">
    <g id="xtick_1">
     <g id="line2d_1">
      <path d="M 73.832727 307.584 
L 73.832727 41.472 
" clip-path="url(#p2dec3fd84e)" style="fill: none; stroke: #ffffff; stroke-linecap: round"/>
     </g>
     <g id="text_1">
      <!-- $\mathdefault{10^{1}}$ -->
      <g style="fill: #262626" transform="translate(64.152727 325.442281) scale(0.11 -0.11)">
       <defs>
        <path id="DejaVuSans-31" d="M 794 531 
L 1825 531 
L 1825 4091 
L 703 3866 
L 703 4441 
L 1819 4666 
L 2450 4666 
L 2450 531 
L 3481 531 
L 3481 0 
L 794 0 
L 794 531 
z
" transform="scale(0.015625)"/>
        <path id="DejaVuSans-30" d="M 2034 4250 
Q 1547 4250 1301 3770 
Q 1056 3291 1056 2328 
Q 1056 1369 1301 889 
Q 1547 409 2034 409 
Q 2525 409 2770 889 
Q 3016 1369 3016 2328 
Q 3016 3291 2770 3770 
Q 2525 4250 2034 4250 
z
M 2034 4750 
Q 2819 4750 3233 4129 
Q 3647 3509 3647 2328 
Q 3647 1150 3233 529 
Q 2819 -91 2034 -91 
Q 1250 -91 836 529 
Q 422 1150 422 2328 
Q 422 3509 836 4129 
Q 1250 4750 2034 4750 
z
" transform="scale(0.015625)"/>
       </defs>
       <use xlink:href="#DejaVuSans-31" transform="translate(0 0.684375)"/>
       <use xlink:href="#DejaVuSans-30" transform="translate(63.623047 0.684375)"/>
       <use xlink:href="#DejaVuSans-31" transform="translate(128.203125 38.965625) scale(0.7)"/>
      </g>
     </g>
    </g>
    <g id="xtick_2">
     <g id="line2d_2">
      <path d="M 332.46545 307.584 
L 332.46545 41.472 
" clip-path="url(#p2dec3fd84e)" style="fill: none; stroke: #ffffff; stroke-linecap: round"/>
     </g>
     <g id="text_2">
      <!-- $\mathdefault{10^{2}}$ -->
      <g style="fill: #262626" transform="translate(322.78545 325.442281) scale(0.11 -0.11)">
       <defs>
        <path id="DejaVuSans-32" d="M 1228 531 
L 3431 531 
L 3431 0 
L 469 0 
L 469 531 
Q 828 903 1448 1529 
Q 2069 2156 2228 2338 
Q 2531 2678 2651 2914 
Q 2772 3150 2772 3378 
Q 2772 3750 2511 3984 
Q 2250 4219 1831 4219 
Q 1534 4219 1204 4116 
Q 875 4013 500 3803 
L 500 4441 
Q 881 4594 1212 4672 
Q 1544 4750 1819 4750 
Q 2544 4750 2975 4387 
Q 3406 4025 3406 3419 
Q 3406 3131 3298 2873 
Q 3191 2616 2906 2266 
Q 2828 2175 2409 1742 
Q 1991 1309 1228 531 
z
" transform="scale(0.015625)"/>
       </defs>
       <use xlink:href="#DejaVuSans-31" transform="translate(0 0.765625)"/>
       <use xlink:href="#DejaVuSans-30" transform="translate(63.623047 0.765625)"/>
       <use xlink:href="#DejaVuSans-32" transform="translate(128.203125 39.046875) scale(0.7)"/>
      </g>
     </g>
    </g>
    <g id="xtick_3"/>
    <g id="xtick_4"/>
    <g id="xtick_5"/>
    <g id="xtick_6"/>
    <g id="xtick_7"/>
    <g id="xtick_8"/>
    <g id="xtick_9"/>
    <g id="xtick_10"/>
    <g id="xtick_11"/>
    <g id="xtick_12"/>
    <g id="text_3">
     <!-- Edge Velocity (deg/s) -->
     <g style="fill: #262626" transform="translate(172.5675 340.848062) scale(0.12 -0.12)">
      <defs>
       <path id="DejaVuSans-45" d="M 628 4666 
L 3578 4666 
L 3578 4134 
L 1259 4134 
L 1259 2753 
L 3481 2753 
L 3481 2222 
L 1259 2222 
L 1259 531 
L 3634 531 
L 3634 0 
L 628 0 
L 628 4666 
z
" transform="scale(0.015625)"/>
       <path id="DejaVuSans-64" d="M 2906 2969 
L 2906 4863 
L 3481 4863 
L 3481 0 
L 2906 0 
L 2906 525 
Q 2725 213 2448 61 
Q 2172 -91 1784 -91 
Q 1150 -91 751 415 
Q 353 922 353 1747 
Q 353 2572 751 3078 
Q 1150 3584 1784 3584 
Q 2172 3584 2448 3432 
Q 2725 3281 2906 2969 
z
M 947 1747 
Q 947 1113 1208 752 
Q 1469 391 1925 391 
Q 2381 391 2643 752 
Q 2906 1113 2906 1747 
Q 2906 2381 2643 2742 
Q 2381 3103 1925 3103 
Q 1469 3103 1208 2742 
Q 947 2381 947 1747 
z
" transform="scale(0.015625)"/>
       <path id="DejaVuSans-67" d="M 2906 1791 
Q 2906 2416 2648 2759 
Q 2391 3103 1925 3103 
Q 1463 3103 1205 2759 
Q 947 2416 947 1791 
Q 947 1169 1205 825 
Q 1463 481 1925 481 
Q 2391 481 2648 825 
Q 2906 1169 2906 1791 
z
M 3481 434 
Q 3481 -459 3084 -895 
Q 2688 -1331 1869 -1331 
Q 1566 -1331 1297 -1286 
Q 1028 -1241 775 -1147 
L 775 -588 
Q 1028 -725 1275 -790 
Q 1522 -856 1778 -856 
Q 2344 -856 2625 -561 
Q 2906 -266 2906 331 
L 2906 616 
Q 2728 306 2450 153 
Q 2172 0 1784 0 
Q 1141 0 747 490 
Q 353 981 353 1791 
Q 353 2603 747 3093 
Q 1141 3584 1784 3584 
Q 2172 3584 2450 3431 
Q 2728 3278 2906 2969 
L 2906 3500 
L 3481 3500 
L 3481 434 
z
" transform="scale(0.015625)"/>
       <path id="DejaVuSans-65" d="M 3597 1894 
L 3597 1613 
L 953 1613 
Q 991 1019 1311 708 
Q 1631 397 2203 397 
Q 2534 397 2845 478 
Q 3156 559 3463 722 
L 3463 178 
Q 3153 47 2828 -22 
Q 2503 -91 2169 -91 
Q 1331 -91 842 396 
Q 353 884 353 1716 
Q 353 2575 817 3079 
Q 1281 3584 2069 3584 
Q 2775 3584 3186 3129 
Q 3597 2675 3597 1894 
z
M 3022 2063 
Q 3016 2534 2758 2815 
Q 2500 3097 2075 3097 
Q 1594 3097 1305 2825 
Q 1016 2553 972 2059 
L 3022 2063 
z
" transform="scale(0.015625)"/>
       <path id="DejaVuSans-20" transform="scale(0.015625)"/>
       <path id="DejaVuSans-56" d="M 1831 0 
L 50 4666 
L 709 4666 
L 2188 738 
L 3669 4666 
L 4325 4666 
L 2547 0 
L 1831 0 
z
" transform="scale(0.015625)"/>
       <path id="DejaVuSans-6c" d="M 603 4863 
L 1178 4863 
L 1178 0 
L 603 0 
L 603 4863 
z
" transform="scale(0.015625)"/>
       <path id="DejaVuSans-6f" d="M 1959 3097 
Q 1497 3097 1228 2736 
Q 959 2375 959 1747 
Q 959 1119 1226 758 
Q 1494 397 1959 397 
Q 2419 397 2687 759 
Q 2956 1122 2956 1747 
Q 2956 2369 2687 2733 
Q 2419 3097 1959 3097 
z
M 1959 3584 
Q 2709 3584 3137 3096 
Q 3566 2609 3566 1747 
Q 3566 888 3137 398 
Q 2709 -91 1959 -91 
Q 1206 -91 779 398 
Q 353 888 353 1747 
Q 353 2609 779 3096 
Q 1206 3584 1959 3584 
z
" transform="scale(0.015625)"/>
       <path id="DejaVuSans-63" d="M 3122 3366 
L 3122 2828 
Q 2878 2963 2633 3030 
Q 2388 3097 2138 3097 
Q 1578 3097 1268 2742 
Q 959 2388 959 1747 
Q 959 1106 1268 751 
Q 1578 397 2138 397 
Q 2388 397 2633 464 
Q 2878 531 3122 666 
L 3122 134 
Q 2881 22 2623 -34 
Q 2366 -91 2075 -91 
Q 1284 -91 818 406 
Q 353 903 353 1747 
Q 353 2603 823 3093 
Q 1294 3584 2113 3584 
Q 2378 3584 2631 3529 
Q 2884 3475 3122 3366 
z
" transform="scale(0.015625)"/>
       <path id="DejaVuSans-69" d="M 603 3500 
L 1178 3500 
L 1178 0 
L 603 0 
L 603 3500 
z
M 603 4863 
L 1178 4863 
L 1178 4134 
L 603 4134 
L 603 4863 
z
" transform="scale(0.015625)"/>
       <path id="DejaVuSans-74" d="M 1172 4494 
L 1172 3500 
L 2356 3500 
L 2356 3053 
L 1172 3053 
L 1172 1153 
Q 1172 725 1289 603 
Q 1406 481 1766 481 
L 2356 481 
L 2356 0 
L 1766 0 
Q 1100 0 847 248 
Q 594 497 594 1153 
L 594 3053 
L 172 3053 
L 172 3500 
L 594 3500 
L 594 4494 
L 1172 4494 
z
" transform="scale(0.015625)"/>
       <path id="DejaVuSans-79" d="M 2059 -325 
Q 1816 -950 1584 -1140 
Q 1353 -1331 966 -1331 
L 506 -1331 
L 506 -850 
L 844 -850 
Q 1081 -850 1212 -737 
Q 1344 -625 1503 -206 
L 1606 56 
L 191 3500 
L 800 3500 
L 1894 763 
L 2988 3500 
L 3597 3500 
L 2059 -325 
z
" transform="scale(0.015625)"/>
       <path id="DejaVuSans-28" d="M 1984 4856 
Q 1566 4138 1362 3434 
Q 1159 2731 1159 2009 
Q 1159 1288 1364 580 
Q 1569 -128 1984 -844 
L 1484 -844 
Q 1016 -109 783 600 
Q 550 1309 550 2009 
Q 550 2706 781 3412 
Q 1013 4119 1484 4856 
L 1984 4856 
z
" transform="scale(0.015625)"/>
       <path id="DejaVuSans-2f" d="M 1625 4666 
L 2156 4666 
L 531 -594 
L 0 -594 
L 1625 4666 
z
" transform="scale(0.015625)"/>
       <path id="DejaVuSans-73" d="M 2834 3397 
L 2834 2853 
Q 2591 2978 2328 3040 
Q 2066 3103 1784 3103 
Q 1356 3103 1142 2972 
Q 928 2841 928 2578 
Q 928 2378 1081 2264 
Q 1234 2150 1697 2047 
L 1894 2003 
Q 2506 1872 2764 1633 
Q 3022 1394 3022 966 
Q 3022 478 2636 193 
Q 2250 -91 1575 -91 
Q 1294 -91 989 -36 
Q 684 19 347 128 
L 347 722 
Q 666 556 975 473 
Q 1284 391 1588 391 
Q 1994 391 2212 530 
Q 2431 669 2431 922 
Q 2431 1156 2273 1281 
Q 2116 1406 1581 1522 
L 1381 1569 
Q 847 1681 609 1914 
Q 372 2147 372 2553 
Q 372 3047 722 3315 
Q 1072 3584 1716 3584 
Q 2034 3584 2315 3537 
Q 2597 3491 2834 3397 
z
" transform="scale(0.015625)"/>
       <path id="DejaVuSans-29" d="M 513 4856 
L 1013 4856 
Q 1481 4119 1714 3412 
Q 1947 2706 1947 2009 
Q 1947 1309 1714 600 
Q 1481 -109 1013 -844 
L 513 -844 
Q 928 -128 1133 580 
Q 1338 1288 1338 2009 
Q 1338 2731 1133 3434 
Q 928 4138 513 4856 
z
" transform="scale(0.015625)"/>
      </defs>
      <use xlink:href="#DejaVuSans-45"/>
      <use xlink:href="#DejaVuSans-64" x="63.183594"/>
      <use xlink:href="#DejaVuSans-67" x="126.660156"/>
      <use xlink:href="#DejaVuSans-65" x="190.136719"/>
      <use xlink:href="#DejaVuSans-20" x="251.660156"/>
      <use xlink:href="#DejaVuSans-56" x="283.447266"/>
      <use xlink:href="#DejaVuSans-65" x="344.105469"/>
      <use xlink:href="#DejaVuSans-6c" x="405.628906"/>
      <use xlink:href="#DejaVuSans-6f" x="433.412109"/>
      <use xlink:href="#DejaVuSans-63" x="494.59375"/>
      <use xlink:href="#DejaVuSans-69" x="549.574219"/>
      <use xlink:href="#DejaVuSans-74" x="577.357422"/>
      <use xlink:href="#DejaVuSans-79" x="616.566406"/>
      <use xlink:href="#DejaVuSans-20" x="675.746094"/>
      <use xlink:href="#DejaVuSans-28" x="707.533203"/>
      <use xlink:href="#DejaVuSans-64" x="746.546875"/>
      <use xlink:href="#DejaVuSans-65" x="810.023438"/>
      <use xlink:href="#DejaVuSans-67" x="871.546875"/>
      <use xlink:href="#DejaVuSans-2f" x="935.023438"/>
      <use xlink:href="#DejaVuSans-73" x="968.714844"/>
      <use xlink:href="#DejaVuSans-29" x="1020.814453"/>
     </g>
    </g>
   </g>
   <g id="matplotlib.axis_2">
    <g id="ytick_1">
     <g id="line2d_3">
      <path d="M 57.6 303.255973 
L 414.72 303.255973 
" clip-path="url(#p2dec3fd84e)" style="fill: none; stroke: #ffffff; stroke-linecap: round"/>
     </g>
     <g id="text_4">
      <!-- 0.00 -->
      <g style="fill: #262626" transform="translate(23.607813 307.435113) scale(0.11 -0.11)">
       <defs>
        <path id="DejaVuSans-2e" d="M 684 794 
L 1344 794 
L 1344 0 
L 684 0 
L 684 794 
z
" transform="scale(0.015625)"/>
       </defs>
       <use xlink:href="#DejaVuSans-30"/>
       <use xlink:href="#DejaVuSans-2e" x="63.623047"/>
       <use xlink:href="#DejaVuSans-30" x="95.410156"/>
       <use xlink:href="#DejaVuSans-30" x="159.033203"/>
      </g>
     </g>
    </g>
    <g id="ytick_2">
     <g id="line2d_4">
      <path d="M 57.6 260.411382 
L 414.72 260.411382 
" clip-path="url(#p2dec3fd84e)" style="fill: none; stroke: #ffffff; stroke-linecap: round"/>
     </g>
     <g id="text_5">
      <!-- 0.05 -->
      <g style="fill: #262626" transform="translate(23.607813 264.590523) scale(0.11 -0.11)">
       <defs>
        <path id="DejaVuSans-35" d="M 691 4666 
L 3169 4666 
L 3169 4134 
L 1269 4134 
L 1269 2991 
Q 1406 3038 1543 3061 
Q 1681 3084 1819 3084 
Q 2600 3084 3056 2656 
Q 3513 2228 3513 1497 
Q 3513 744 3044 326 
Q 2575 -91 1722 -91 
Q 1428 -91 1123 -41 
Q 819 9 494 109 
L 494 744 
Q 775 591 1075 516 
Q 1375 441 1709 441 
Q 2250 441 2565 725 
Q 2881 1009 2881 1497 
Q 2881 1984 2565 2268 
Q 2250 2553 1709 2553 
Q 1456 2553 1204 2497 
Q 953 2441 691 2322 
L 691 4666 
z
" transform="scale(0.015625)"/>
       </defs>
       <use xlink:href="#DejaVuSans-30"/>
       <use xlink:href="#DejaVuSans-2e" x="63.623047"/>
       <use xlink:href="#DejaVuSans-30" x="95.410156"/>
       <use xlink:href="#DejaVuSans-35" x="159.033203"/>
      </g>
     </g>
    </g>
    <g id="ytick_3">
     <g id="line2d_5">
      <path d="M 57.6 217.566792 
L 414.72 217.566792 
" clip-path="url(#p2dec3fd84e)" style="fill: none; stroke: #ffffff; stroke-linecap: round"/>
     </g>
     <g id="text_6">
      <!-- 0.10 -->
      <g style="fill: #262626" transform="translate(23.607813 221.745932) scale(0.11 -0.11)">
       <use xlink:href="#DejaVuSans-30"/>
       <use xlink:href="#DejaVuSans-2e" x="63.623047"/>
       <use xlink:href="#DejaVuSans-31" x="95.410156"/>
       <use xlink:href="#DejaVuSans-30" x="159.033203"/>
      </g>
     </g>
    </g>
    <g id="ytick_4">
     <g id="line2d_6">
      <path d="M 57.6 174.722201 
L 414.72 174.722201 
" clip-path="url(#p2dec3fd84e)" style="fill: none; stroke: #ffffff; stroke-linecap: round"/>
     </g>
     <g id="text_7">
      <!-- 0.15 -->
      <g style="fill: #262626" transform="translate(23.607813 178.901342) scale(0.11 -0.11)">
       <use xlink:href="#DejaVuSans-30"/>
       <use xlink:href="#DejaVuSans-2e" x="63.623047"/>
       <use xlink:href="#DejaVuSans-31" x="95.410156"/>
       <use xlink:href="#DejaVuSans-35" x="159.033203"/>
      </g>
     </g>
    </g>
    <g id="ytick_5">
     <g id="line2d_7">
      <path d="M 57.6 131.87761 
L 414.72 131.87761 
" clip-path="url(#p2dec3fd84e)" style="fill: none; stroke: #ffffff; stroke-linecap: round"/>
     </g>
     <g id="text_8">
      <!-- 0.20 -->
      <g style="fill: #262626" transform="translate(23.607813 136.056751) scale(0.11 -0.11)">
       <use xlink:href="#DejaVuSans-30"/>
       <use xlink:href="#DejaVuSans-2e" x="63.623047"/>
       <use xlink:href="#DejaVuSans-32" x="95.410156"/>
       <use xlink:href="#DejaVuSans-30" x="159.033203"/>
      </g>
     </g>
    </g>
    <g id="ytick_6">
     <g id="line2d_8">
      <path d="M 57.6 89.03302 
L 414.72 89.03302 
" clip-path="url(#p2dec3fd84e)" style="fill: none; stroke: #ffffff; stroke-linecap: round"/>
     </g>
     <g id="text_9">
      <!-- 0.25 -->
      <g style="fill: #262626" transform="translate(23.607813 93.212161) scale(0.11 -0.11)">
       <use xlink:href="#DejaVuSans-30"/>
       <use xlink:href="#DejaVuSans-2e" x="63.623047"/>
       <use xlink:href="#DejaVuSans-32" x="95.410156"/>
       <use xlink:href="#DejaVuSans-35" x="159.033203"/>
      </g>
     </g>
    </g>
    <g id="ytick_7">
     <g id="line2d_9">
      <path d="M 57.6 46.188429 
L 414.72 46.188429 
" clip-path="url(#p2dec3fd84e)" style="fill: none; stroke: #ffffff; stroke-linecap: round"/>
     </g>
     <g id="text_10">
      <!-- 0.30 -->
      <g style="fill: #262626" transform="translate(23.607813 50.36757) scale(0.11 -0.11)">
       <defs>
        <path id="DejaVuSans-33" d="M 2597 2516 
Q 3050 2419 3304 2112 
Q 3559 1806 3559 1356 
Q 3559 666 3084 287 
Q 2609 -91 1734 -91 
Q 1441 -91 1130 -33 
Q 819 25 488 141 
L 488 750 
Q 750 597 1062 519 
Q 1375 441 1716 441 
Q 2309 441 2620 675 
Q 2931 909 2931 1356 
Q 2931 1769 2642 2001 
Q 2353 2234 1838 2234 
L 1294 2234 
L 1294 2753 
L 1863 2753 
Q 2328 2753 2575 2939 
Q 2822 3125 2822 3475 
Q 2822 3834 2567 4026 
Q 2313 4219 1838 4219 
Q 1578 4219 1281 4162 
Q 984 4106 628 3988 
L 628 4550 
Q 988 4650 1302 4700 
Q 1616 4750 1894 4750 
Q 2613 4750 3031 4423 
Q 3450 4097 3450 3541 
Q 3450 3153 3228 2886 
Q 3006 2619 2597 2516 
z
" transform="scale(0.015625)"/>
       </defs>
       <use xlink:href="#DejaVuSans-30"/>
       <use xlink:href="#DejaVuSans-2e" x="63.623047"/>
       <use xlink:href="#DejaVuSans-33" x="95.410156"/>
       <use xlink:href="#DejaVuSans-30" x="159.033203"/>
      </g>
     </g>
    </g>
    <g id="text_11">
     <!-- Peak Magnitude -->
     <g style="fill: #262626" transform="translate(17.112187 222.466125) rotate(-90) scale(0.12 -0.12)">
      <defs>
       <path id="DejaVuSans-50" d="M 1259 4147 
L 1259 2394 
L 2053 2394 
Q 2494 2394 2734 2622 
Q 2975 2850 2975 3272 
Q 2975 3691 2734 3919 
Q 2494 4147 2053 4147 
L 1259 4147 
z
M 628 4666 
L 2053 4666 
Q 2838 4666 3239 4311 
Q 3641 3956 3641 3272 
Q 3641 2581 3239 2228 
Q 2838 1875 2053 1875 
L 1259 1875 
L 1259 0 
L 628 0 
L 628 4666 
z
" transform="scale(0.015625)"/>
       <path id="DejaVuSans-61" d="M 2194 1759 
Q 1497 1759 1228 1600 
Q 959 1441 959 1056 
Q 959 750 1161 570 
Q 1363 391 1709 391 
Q 2188 391 2477 730 
Q 2766 1069 2766 1631 
L 2766 1759 
L 2194 1759 
z
M 3341 1997 
L 3341 0 
L 2766 0 
L 2766 531 
Q 2569 213 2275 61 
Q 1981 -91 1556 -91 
Q 1019 -91 701 211 
Q 384 513 384 1019 
Q 384 1609 779 1909 
Q 1175 2209 1959 2209 
L 2766 2209 
L 2766 2266 
Q 2766 2663 2505 2880 
Q 2244 3097 1772 3097 
Q 1472 3097 1187 3025 
Q 903 2953 641 2809 
L 641 3341 
Q 956 3463 1253 3523 
Q 1550 3584 1831 3584 
Q 2591 3584 2966 3190 
Q 3341 2797 3341 1997 
z
" transform="scale(0.015625)"/>
       <path id="DejaVuSans-6b" d="M 581 4863 
L 1159 4863 
L 1159 1991 
L 2875 3500 
L 3609 3500 
L 1753 1863 
L 3688 0 
L 2938 0 
L 1159 1709 
L 1159 0 
L 581 0 
L 581 4863 
z
" transform="scale(0.015625)"/>
       <path id="DejaVuSans-4d" d="M 628 4666 
L 1569 4666 
L 2759 1491 
L 3956 4666 
L 4897 4666 
L 4897 0 
L 4281 0 
L 4281 4097 
L 3078 897 
L 2444 897 
L 1241 4097 
L 1241 0 
L 628 0 
L 628 4666 
z
" transform="scale(0.015625)"/>
       <path id="DejaVuSans-6e" d="M 3513 2113 
L 3513 0 
L 2938 0 
L 2938 2094 
Q 2938 2591 2744 2837 
Q 2550 3084 2163 3084 
Q 1697 3084 1428 2787 
Q 1159 2491 1159 1978 
L 1159 0 
L 581 0 
L 581 3500 
L 1159 3500 
L 1159 2956 
Q 1366 3272 1645 3428 
Q 1925 3584 2291 3584 
Q 2894 3584 3203 3211 
Q 3513 2838 3513 2113 
z
" transform="scale(0.015625)"/>
       <path id="DejaVuSans-75" d="M 544 1381 
L 544 3500 
L 1119 3500 
L 1119 1403 
Q 1119 906 1312 657 
Q 1506 409 1894 409 
Q 2359 409 2629 706 
Q 2900 1003 2900 1516 
L 2900 3500 
L 3475 3500 
L 3475 0 
L 2900 0 
L 2900 538 
Q 2691 219 2414 64 
Q 2138 -91 1772 -91 
Q 1169 -91 856 284 
Q 544 659 544 1381 
z
M 1991 3584 
L 1991 3584 
z
" transform="scale(0.015625)"/>
      </defs>
      <use xlink:href="#DejaVuSans-50"/>
      <use xlink:href="#DejaVuSans-65" x="56.677734"/>
      <use xlink:href="#DejaVuSans-61" x="118.201172"/>
      <use xlink:href="#DejaVuSans-6b" x="179.480469"/>
      <use xlink:href="#DejaVuSans-20" x="237.390625"/>
      <use xlink:href="#DejaVuSans-4d" x="269.177734"/>
      <use xlink:href="#DejaVuSans-61" x="355.457031"/>
      <use xlink:href="#DejaVuSans-67" x="416.736328"/>
      <use xlink:href="#DejaVuSans-6e" x="480.212891"/>
      <use xlink:href="#DejaVuSans-69" x="543.591797"/>
      <use xlink:href="#DejaVuSans-74" x="571.375"/>
      <use xlink:href="#DejaVuSans-75" x="610.583984"/>
      <use xlink:href="#DejaVuSans-64" x="673.962891"/>
      <use xlink:href="#DejaVuSans-65" x="737.439453"/>
     </g>
    </g>
   </g>
   <g id="line2d_10">
    <path d="M 73.832727 282.296691 
L 107.286315 265.937229 
L 133.029105 252.390212 
L 153.958159 242.269535 
L 171.593254 235.015382 
L 186.831619 229.965499 
L 200.247454 227.811602 
L 212.230511 230.100485 
L 223.05751 234.904097 
L 232.932015 240.64794 
L 242.008147 246.31835 
L 250.405405 251.479461 
L 258.218316 256.068569 
L 265.522943 260.015859 
L 272.3814 263.407615 
L 278.845068 266.306352 
L 284.956934 268.734021 
L 290.753325 270.88644 
L 296.265215 272.677115 
L 301.519232 274.286194 
L 306.53843 275.678834 
L 311.342903 276.873574 
L 315.950273 277.930892 
L 320.376076 278.903051 
L 324.634082 279.715737 
L 328.736551 280.498142 
L 332.694446 281.176555 
L 336.517612 281.759261 
L 340.21492 282.323041 
L 343.794392 282.801094 
L 347.263309 283.265391 
L 350.628296 283.685054 
L 353.895399 284.064085 
L 357.070152 284.437877 
L 360.157633 284.780588 
L 363.162513 285.099271 
L 366.089095 285.436612 
L 368.941357 285.77318 
L 371.722981 286.168011 
L 374.43738 286.603295 
L 377.087728 287.170191 
L 379.676977 287.94259 
L 382.207882 288.683464 
L 384.683014 289.408274 
L 387.104778 290.11733 
L 389.475428 290.810907 
L 391.797075 291.393249 
L 394.071705 291.964456 
L 396.301185 292.431943 
L 398.487273 292.982557 
" clip-path="url(#p2dec3fd84e)" style="fill: none; stroke-dasharray: 1.5,2.475; stroke-dashoffset: 0; stroke: #392697; stroke-width: 1.5"/>
   </g>
   <g id="line2d_11">
    <path d="M 73.832727 281.30601 
L 107.286315 271.036106 
L 133.029105 258.272125 
L 153.958159 248.414269 
L 171.593254 241.178681 
L 186.831619 235.996226 
L 200.247454 233.749227 
L 212.230511 235.532488 
L 223.05751 239.52465 
L 232.932015 244.359449 
L 242.008147 249.151562 
L 250.405405 253.598845 
L 258.218316 257.552218 
L 265.522943 260.985375 
L 272.3814 263.951739 
L 278.845068 266.477226 
L 284.956934 268.666417 
L 290.753325 270.564035 
L 296.265215 272.215475 
L 301.519232 273.637651 
L 306.53843 274.898615 
L 311.342903 275.985486 
L 315.950273 276.958763 
L 320.376076 277.826325 
L 324.634082 278.595757 
L 328.736551 279.274252 
L 332.694446 279.888688 
L 336.517612 280.462928 
L 340.21492 280.961716 
L 343.794392 281.427807 
L 347.263309 281.846181 
L 350.628296 282.239026 
L 353.895399 282.592751 
L 357.070152 282.94762 
L 360.157633 283.273766 
L 363.162513 283.595273 
L 366.089095 283.940735 
L 368.941357 284.302214 
L 371.722981 284.691224 
L 374.43738 285.119583 
L 377.087728 285.598324 
L 379.676977 286.186235 
L 382.207882 286.925027 
L 384.683014 287.659007 
L 387.104778 288.449315 
L 389.475428 289.159574 
L 391.797075 289.793497 
L 394.071705 290.416124 
L 396.301185 290.966652 
L 398.487273 291.567046 
" clip-path="url(#p2dec3fd84e)" style="fill: none; stroke-dasharray: 1.5,2.475; stroke-dashoffset: 0; stroke: #3e2aa6; stroke-width: 1.5"/>
   </g>
   <g id="line2d_12">
    <path d="M 73.832727 286.512934 
L 107.286315 283.414345 
L 133.029105 272.47185 
L 153.958159 262.97052 
L 171.593254 255.269696 
L 186.831619 249.261096 
L 200.247454 244.665709 
L 212.230511 242.239715 
L 223.05751 243.173122 
L 232.932015 246.191696 
L 242.008147 250.169427 
L 250.405405 254.366854 
L 258.218316 258.366878 
L 265.522943 261.977798 
L 272.3814 265.20131 
L 278.845068 268.012192 
L 284.956934 270.463167 
L 290.753325 272.590568 
L 296.265215 274.439132 
L 301.519232 276.024761 
L 306.53843 277.424771 
L 311.342903 278.651779 
L 315.950273 279.745581 
L 320.376076 280.690017 
L 324.634082 281.546786 
L 328.736551 282.321709 
L 332.694446 282.997555 
L 336.517612 283.604184 
L 340.21492 284.167763 
L 343.794392 284.670108 
L 347.263309 285.115565 
L 350.628296 285.52744 
L 353.895399 285.907691 
L 357.070152 286.258216 
L 360.157633 286.580865 
L 363.162513 286.877465 
L 366.089095 287.149833 
L 368.941357 287.399787 
L 371.722981 287.629148 
L 374.43738 287.855852 
L 377.087728 288.065487 
L 379.676977 288.276426 
L 382.207882 288.475001 
L 384.683014 288.663433 
L 387.104778 288.862056 
L 389.475428 289.076426 
L 391.797075 289.291437 
L 394.071705 289.508043 
L 396.301185 289.784084 
L 398.487273 290.075526 
" clip-path="url(#p2dec3fd84e)" style="fill: none; stroke-dasharray: 1.5,2.475; stroke-dashoffset: 0; stroke: #442db5; stroke-width: 1.5"/>
   </g>
   <g id="line2d_13">
    <path d="M 73.832727 53.568 
L 107.286315 125.78935 
L 133.029105 176.602668 
L 153.958159 178.888961 
L 171.593254 184.154615 
L 186.831619 192.742802 
L 200.247454 203.789448 
L 212.230511 215.676417 
L 223.05751 227.076909 
L 232.932015 237.298054 
L 242.008147 246.048793 
L 250.405405 253.342842 
L 258.218316 259.415253 
L 265.522943 264.411643 
L 272.3814 268.567128 
L 278.845068 272.007433 
L 284.956934 274.854785 
L 290.753325 277.304436 
L 296.265215 279.357786 
L 301.519232 281.098313 
L 306.53843 282.631999 
L 311.342903 283.945299 
L 315.950273 285.093655 
L 320.376076 286.09324 
L 324.634082 286.987623 
L 328.736551 287.78589 
L 332.694446 288.496281 
L 336.517612 289.126216 
L 340.21492 289.707134 
L 343.794392 290.218462 
L 347.263309 290.688834 
L 350.628296 291.098561 
L 353.895399 291.495616 
L 357.070152 291.85916 
L 360.157633 292.170834 
L 363.162513 292.474094 
L 366.089095 292.749643 
L 368.941357 293.018043 
L 371.722981 293.242474 
L 374.43738 293.479806 
L 377.087728 293.675956 
L 379.676977 293.867862 
L 382.207882 294.055557 
L 384.683014 294.222559 
L 387.104778 294.386127 
L 389.475428 294.530418 
L 391.797075 294.671954 
L 394.071705 294.795463 
L 396.301185 294.931829 
L 398.487273 295.036008 
" clip-path="url(#p2dec3fd84e)" style="fill: none; stroke-dasharray: 1.5,2.475; stroke-dashoffset: 0; stroke: #4a31c4; stroke-width: 1.5"/>
   </g>
   <g id="line2d_14">
    <path d="M 73.832727 175.828629 
L 107.286315 175.901924 
L 133.029105 176.543957 
L 153.958159 178.945282 
L 171.593254 184.383665 
L 186.831619 193.13955 
L 200.247454 204.209212 
L 212.230511 216.045145 
L 223.05751 227.404879 
L 232.932015 237.529181 
L 242.008147 246.154073 
L 250.405405 253.375798 
L 258.218316 259.373772 
L 265.522943 264.298142 
L 272.3814 268.386749 
L 278.845068 271.765723 
L 284.956934 274.648479 
L 290.753325 277.042484 
L 296.265215 279.085421 
L 301.519232 280.853484 
L 306.53843 282.339108 
L 311.342903 283.67663 
L 315.950273 284.813487 
L 320.376076 285.832843 
L 324.634082 286.715101 
L 328.736551 287.501756 
L 332.694446 288.228256 
L 336.517612 288.846075 
L 340.21492 289.415628 
L 343.794392 289.940137 
L 347.263309 290.398859 
L 350.628296 290.842799 
L 353.895399 291.227681 
L 357.070152 291.579448 
L 360.157633 291.921201 
L 363.162513 292.212129 
L 366.089095 292.495583 
L 368.941357 292.752173 
L 371.722981 293.002457 
L 374.43738 293.227946 
L 377.087728 293.43001 
L 379.676977 293.627675 
L 382.207882 293.803581 
L 384.683014 293.975899 
L 387.104778 294.144651 
L 389.475428 294.293492 
L 391.797075 294.423392 
L 394.071705 294.566836 
L 396.301185 294.691953 
L 398.487273 294.814829 
" clip-path="url(#p2dec3fd84e)" style="fill: none; stroke-dasharray: 1.5,2.475; stroke-dashoffset: 0; stroke: #533bce; stroke-width: 1.5"/>
   </g>
   <g id="line2d_15">
    <path d="M 73.832727 56.67505 
L 107.286315 58.792145 
L 133.029105 62.599564 
L 153.958159 70.306374 
L 171.593254 123.378868 
L 186.831619 169.428379 
L 200.247454 205.135067 
L 212.230511 216.996942 
L 223.05751 228.298466 
L 232.932015 238.462096 
L 242.008147 247.107028 
L 250.405405 254.293169 
L 258.218316 260.300859 
L 265.522943 265.239898 
L 272.3814 269.338392 
L 278.845068 272.74417 
L 284.956934 275.531617 
L 290.753325 277.955315 
L 296.265215 279.938245 
L 301.519232 281.694542 
L 306.53843 283.195279 
L 311.342903 284.468593 
L 315.950273 285.584642 
L 320.376076 286.601946 
L 324.634082 287.445952 
L 328.736551 288.253077 
L 332.694446 288.948691 
L 336.517612 289.543076 
L 340.21492 290.115427 
L 343.794392 290.598534 
L 347.263309 291.065456 
L 350.628296 291.484812 
L 353.895399 291.859984 
L 357.070152 292.223907 
L 360.157633 292.547783 
L 363.162513 292.834272 
L 366.089095 293.113303 
L 368.941357 293.358137 
L 371.722981 293.597083 
L 374.43738 293.80459 
L 377.087728 294.007543 
L 379.676977 294.205985 
L 382.207882 294.375954 
L 384.683014 294.542527 
L 387.104778 294.705727 
L 389.475428 294.865578 
L 391.797075 294.999943 
L 394.071705 295.131873 
L 396.301185 295.239963 
L 398.487273 295.367458 
" clip-path="url(#p2dec3fd84e)" style="fill: none; stroke-dasharray: 1.5,2.475; stroke-dashoffset: 0; stroke: #604ad2; stroke-width: 1.5"/>
   </g>
   <g id="line2d_16">
    <path d="M 73.832727 99.545525 
L 107.286315 93.460495 
L 133.029105 93.611841 
L 153.958159 95.83927 
L 171.593254 98.759695 
L 186.831619 106.82132 
L 200.247454 121.114702 
L 212.230511 142.433544 
L 223.05751 180.441144 
L 232.932015 209.790357 
L 242.008147 231.948784 
L 250.405405 248.56168 
L 258.218316 259.71695 
L 265.522943 264.65599 
L 272.3814 268.768366 
L 278.845068 272.14052 
L 284.956934 274.999277 
L 290.753325 277.398119 
L 296.265215 279.431864 
L 301.519232 281.181487 
L 306.53843 282.677197 
L 311.342903 283.982621 
L 315.950273 285.116699 
L 320.376076 286.129391 
L 324.634082 287.031435 
L 328.736551 287.802419 
L 332.694446 288.512698 
L 336.517612 289.138642 
L 340.21492 289.714172 
L 343.794392 290.216781 
L 347.263309 290.677378 
L 350.628296 291.123118 
L 353.895399 291.507083 
L 357.070152 291.856756 
L 360.157633 292.196624 
L 363.162513 292.483362 
L 366.089095 292.762943 
L 368.941357 293.03546 
L 371.722981 293.260598 
L 374.43738 293.500567 
L 377.087728 293.696093 
L 379.676977 293.887612 
L 382.207882 294.075158 
L 384.683014 294.240578 
L 387.104778 294.402826 
L 389.475428 294.561922 
L 391.797075 294.700708 
L 394.071705 294.837029 
L 396.301185 294.954296 
L 398.487273 295.086021 
" clip-path="url(#p2dec3fd84e)" style="fill: none; stroke-dasharray: 1.5,2.475; stroke-dashoffset: 0; stroke: #6e59d5; stroke-width: 1.5"/>
   </g>
   <g id="line2d_17">
    <path d="M 73.832727 59.389581 
L 107.286315 140.06148 
L 133.029105 176.874781 
L 153.958159 179.200206 
L 171.593254 184.466604 
L 186.831619 192.96663 
L 200.247454 203.777081 
L 212.230511 215.422302 
L 223.05751 226.580765 
L 232.932015 236.614588 
L 242.008147 245.241339 
L 250.405405 252.49417 
L 258.218316 258.480938 
L 265.522943 263.452845 
L 272.3814 267.596567 
L 278.845068 271.059402 
L 284.956934 273.94469 
L 290.753325 276.381884 
L 296.265215 278.482135 
L 301.519232 280.250496 
L 306.53843 281.77992 
L 311.342903 283.121381 
L 315.950273 284.292934 
L 320.376076 285.33516 
L 324.634082 286.236329 
L 328.736551 287.054164 
L 332.694446 287.773762 
L 336.517612 288.424043 
L 340.21492 289.010251 
L 343.794392 289.537159 
L 347.263309 290.027652 
L 350.628296 290.465943 
L 353.895399 290.87314 
L 357.070152 291.23412 
L 360.157633 291.568452 
L 363.162513 291.877626 
L 366.089095 292.178673 
L 368.941357 292.44122 
L 371.722981 292.682504 
L 374.43738 292.918198 
L 377.087728 293.134126 
L 379.676977 293.331297 
L 382.207882 293.524284 
L 384.683014 293.686391 
L 387.104778 293.858578 
L 389.475428 294.014369 
L 391.797075 294.154531 
L 394.071705 294.29217 
L 396.301185 294.427292 
L 398.487273 294.547953 
" clip-path="url(#p2dec3fd84e)" style="fill: none; stroke-dasharray: 1.5,2.475; stroke-dashoffset: 0; stroke: #7b68d9; stroke-width: 1.5"/>
   </g>
   <g id="line2d_18">
    <path d="M 73.832727 58.117845 
L 107.286315 130.973101 
L 133.029105 179.565799 
L 153.958159 181.677539 
L 171.593254 186.628076 
L 186.831619 194.856868 
L 200.247454 205.532345 
L 212.230511 217.141543 
L 223.05751 228.389799 
L 232.932015 238.536195 
L 242.008147 247.182906 
L 250.405405 254.37835 
L 258.218316 260.397071 
L 265.522943 265.346072 
L 272.3814 269.452617 
L 278.845068 272.864417 
L 284.956934 275.656023 
L 290.753325 278.082562 
L 296.265215 280.067152 
L 301.519232 281.824334 
L 306.53843 283.325338 
L 311.342903 284.598499 
L 315.950273 285.714109 
L 320.376076 286.730762 
L 324.634082 287.574045 
L 328.736551 288.380331 
L 332.694446 289.075112 
L 336.517612 289.668714 
L 340.21492 290.24026 
L 343.794392 290.722657 
L 347.263309 291.188878 
L 350.628296 291.607601 
L 353.895399 291.982214 
L 357.070152 292.345612 
L 360.157633 292.669043 
L 363.162513 292.955165 
L 366.089095 293.233869 
L 368.941357 293.478449 
L 371.722981 293.717181 
L 374.43738 293.924537 
L 377.087728 294.127379 
L 379.676977 294.325753 
L 382.207882 294.495699 
L 384.683014 294.662286 
L 387.104778 294.825541 
L 389.475428 294.985487 
L 391.797075 295.119968 
L 394.071705 295.252049 
L 396.301185 295.360291 
L 398.487273 295.488 
" clip-path="url(#p2dec3fd84e)" style="fill: none; stroke-dasharray: 1.5,2.475; stroke-dashoffset: 0; stroke: #8877dd; stroke-width: 1.5"/>
   </g>
   <g id="patch_3">
    <path d="M 57.6 307.584 
L 57.6 41.472 
" style="fill: none; stroke: #ffffff; stroke-width: 1.25; stroke-linejoin: miter; stroke-linecap: square"/>
   </g>
   <g id="patch_4">
    <path d="M 57.6 307.584 
L 414.72 307.584 
" style="fill: none; stroke: #ffffff; stroke-width: 1.25; stroke-linejoin: miter; stroke-linecap: square"/>
   </g>
   <g id="text_12">
    <!-- T4_a Peak Velocity Response -->
    <g style="fill: #262626" transform="translate(149.68125 35.472) scale(0.12 -0.12)">
     <defs>
      <path id="DejaVuSans-54" d="M -19 4666 
L 3928 4666 
L 3928 4134 
L 2272 4134 
L 2272 0 
L 1638 0 
L 1638 4134 
L -19 4134 
L -19 4666 
z
" transform="scale(0.015625)"/>
      <path id="DejaVuSans-34" d="M 2419 4116 
L 825 1625 
L 2419 1625 
L 2419 4116 
z
M 2253 4666 
L 3047 4666 
L 3047 1625 
L 3713 1625 
L 3713 1100 
L 3047 1100 
L 3047 0 
L 2419 0 
L 2419 1100 
L 313 1100 
L 313 1709 
L 2253 4666 
z
" transform="scale(0.015625)"/>
      <path id="DejaVuSans-5f" d="M 3263 -1063 
L 3263 -1509 
L -63 -1509 
L -63 -1063 
L 3263 -1063 
z
" transform="scale(0.015625)"/>
      <path id="DejaVuSans-52" d="M 2841 2188 
Q 3044 2119 3236 1894 
Q 3428 1669 3622 1275 
L 4263 0 
L 3584 0 
L 2988 1197 
Q 2756 1666 2539 1819 
Q 2322 1972 1947 1972 
L 1259 1972 
L 1259 0 
L 628 0 
L 628 4666 
L 2053 4666 
Q 2853 4666 3247 4331 
Q 3641 3997 3641 3322 
Q 3641 2881 3436 2590 
Q 3231 2300 2841 2188 
z
M 1259 4147 
L 1259 2491 
L 2053 2491 
Q 2509 2491 2742 2702 
Q 2975 2913 2975 3322 
Q 2975 3731 2742 3939 
Q 2509 4147 2053 4147 
L 1259 4147 
z
" transform="scale(0.015625)"/>
      <path id="DejaVuSans-70" d="M 1159 525 
L 1159 -1331 
L 581 -1331 
L 581 3500 
L 1159 3500 
L 1159 2969 
Q 1341 3281 1617 3432 
Q 1894 3584 2278 3584 
Q 2916 3584 3314 3078 
Q 3713 2572 3713 1747 
Q 3713 922 3314 415 
Q 2916 -91 2278 -91 
Q 1894 -91 1617 61 
Q 1341 213 1159 525 
z
M 3116 1747 
Q 3116 2381 2855 2742 
Q 2594 3103 2138 3103 
Q 1681 3103 1420 2742 
Q 1159 2381 1159 1747 
Q 1159 1113 1420 752 
Q 1681 391 2138 391 
Q 2594 391 2855 752 
Q 3116 1113 3116 1747 
z
" transform="scale(0.015625)"/>
     </defs>
     <use xlink:href="#DejaVuSans-54"/>
     <use xlink:href="#DejaVuSans-34" x="61.083984"/>
     <use xlink:href="#DejaVuSans-5f" x="124.707031"/>
     <use xlink:href="#DejaVuSans-61" x="174.707031"/>
     <use xlink:href="#DejaVuSans-20" x="235.986328"/>
     <use xlink:href="#DejaVuSans-50" x="267.773438"/>
     <use xlink:href="#DejaVuSans-65" x="324.451172"/>
     <use xlink:href="#DejaVuSans-61" x="385.974609"/>
     <use xlink:href="#DejaVuSans-6b" x="447.253906"/>
     <use xlink:href="#DejaVuSans-20" x="505.164062"/>
     <use xlink:href="#DejaVuSans-56" x="536.951172"/>
     <use xlink:href="#DejaVuSans-65" x="597.609375"/>
     <use xlink:href="#DejaVuSans-6c" x="659.132812"/>
     <use xlink:href="#DejaVuSans-6f" x="686.916016"/>
     <use xlink:href="#DejaVuSans-63" x="748.097656"/>
     <use xlink:href="#DejaVuSans-69" x="803.078125"/>
     <use xlink:href="#DejaVuSans-74" x="830.861328"/>
     <use xlink:href="#DejaVuSans-79" x="870.070312"/>
     <use xlink:href="#DejaVuSans-20" x="929.25"/>
     <use xlink:href="#DejaVuSans-52" x="961.037109"/>
     <use xlink:href="#DejaVuSans-65" x="1026.019531"/>
     <use xlink:href="#DejaVuSans-73" x="1087.542969"/>
     <use xlink:href="#DejaVuSans-70" x="1139.642578"/>
     <use xlink:href="#DejaVuSans-6f" x="1203.119141"/>
     <use xlink:href="#DejaVuSans-6e" x="1264.300781"/>
     <use xlink:href="#DejaVuSans-73" x="1327.679688"/>
     <use xlink:href="#DejaVuSans-65" x="1379.779297"/>
    </g>
   </g>
   <g id="legend_1">
    <g id="patch_5">
     <path d="M 364.82125 211.731375 
L 407.02 211.731375 
Q 409.22 211.731375 409.22 209.531375 
L 409.22 49.172 
Q 409.22 46.972 407.02 46.972 
L 364.82125 46.972 
Q 362.62125 46.972 362.62125 49.172 
L 362.62125 209.531375 
Q 362.62125 211.731375 364.82125 211.731375 
z
" style="fill: #eaeaf2; opacity: 0.8; stroke: #cccccc; stroke-linejoin: miter"/>
    </g>
    <g id="line2d_19">
     <path d="M 367.02125 55.880281 
L 378.02125 55.880281 
L 389.02125 55.880281 
" style="fill: none; stroke: #332288; stroke-width: 3; stroke-linecap: round"/>
    </g>
    <g id="text_13">
     <!-- 0 -->
     <g style="fill: #262626" transform="translate(397.82125 59.730281) scale(0.11 -0.11)">
      <use xlink:href="#DejaVuSans-30"/>
     </g>
    </g>
    <g id="line2d_20">
     <path d="M 367.02125 72.026219 
L 378.02125 72.026219 
L 389.02125 72.026219 
" style="fill: none; stroke-dasharray: 1.5,2.475; stroke-dashoffset: 0; stroke: #392697; stroke-width: 1.5"/>
    </g>
    <g id="text_14">
     <!-- 1 -->
     <g style="fill: #262626" transform="translate(397.82125 75.876219) scale(0.11 -0.11)">
      <use xlink:href="#DejaVuSans-31"/>
     </g>
    </g>
    <g id="line2d_21">
     <path d="M 367.02125 88.172156 
L 378.02125 88.172156 
L 389.02125 88.172156 
" style="fill: none; stroke-dasharray: 1.5,2.475; stroke-dashoffset: 0; stroke: #3e2aa6; stroke-width: 1.5"/>
    </g>
    <g id="text_15">
     <!-- 2 -->
     <g style="fill: #262626" transform="translate(397.82125 92.022156) scale(0.11 -0.11)">
      <use xlink:href="#DejaVuSans-32"/>
     </g>
    </g>
    <g id="line2d_22">
     <path d="M 367.02125 104.318094 
L 378.02125 104.318094 
L 389.02125 104.318094 
" style="fill: none; stroke-dasharray: 1.5,2.475; stroke-dashoffset: 0; stroke: #442db5; stroke-width: 1.5"/>
    </g>
    <g id="text_16">
     <!-- 3 -->
     <g style="fill: #262626" transform="translate(397.82125 108.168094) scale(0.11 -0.11)">
      <use xlink:href="#DejaVuSans-33"/>
     </g>
    </g>
    <g id="line2d_23">
     <path d="M 367.02125 120.464031 
L 378.02125 120.464031 
L 389.02125 120.464031 
" style="fill: none; stroke-dasharray: 1.5,2.475; stroke-dashoffset: 0; stroke: #4a31c4; stroke-width: 1.5"/>
    </g>
    <g id="text_17">
     <!-- 4 -->
     <g style="fill: #262626" transform="translate(397.82125 124.314031) scale(0.11 -0.11)">
      <use xlink:href="#DejaVuSans-34"/>
     </g>
    </g>
    <g id="line2d_24">
     <path d="M 367.02125 136.609969 
L 378.02125 136.609969 
L 389.02125 136.609969 
" style="fill: none; stroke-dasharray: 1.5,2.475; stroke-dashoffset: 0; stroke: #533bce; stroke-width: 1.5"/>
    </g>
    <g id="text_18">
     <!-- 5 -->
     <g style="fill: #262626" transform="translate(397.82125 140.459969) scale(0.11 -0.11)">
      <use xlink:href="#DejaVuSans-35"/>
     </g>
    </g>
    <g id="line2d_25">
     <path d="M 367.02125 152.755906 
L 378.02125 152.755906 
L 389.02125 152.755906 
" style="fill: none; stroke-dasharray: 1.5,2.475; stroke-dashoffset: 0; stroke: #604ad2; stroke-width: 1.5"/>
    </g>
    <g id="text_19">
     <!-- 6 -->
     <g style="fill: #262626" transform="translate(397.82125 156.605906) scale(0.11 -0.11)">
      <defs>
       <path id="DejaVuSans-36" d="M 2113 2584 
Q 1688 2584 1439 2293 
Q 1191 2003 1191 1497 
Q 1191 994 1439 701 
Q 1688 409 2113 409 
Q 2538 409 2786 701 
Q 3034 994 3034 1497 
Q 3034 2003 2786 2293 
Q 2538 2584 2113 2584 
z
M 3366 4563 
L 3366 3988 
Q 3128 4100 2886 4159 
Q 2644 4219 2406 4219 
Q 1781 4219 1451 3797 
Q 1122 3375 1075 2522 
Q 1259 2794 1537 2939 
Q 1816 3084 2150 3084 
Q 2853 3084 3261 2657 
Q 3669 2231 3669 1497 
Q 3669 778 3244 343 
Q 2819 -91 2113 -91 
Q 1303 -91 875 529 
Q 447 1150 447 2328 
Q 447 3434 972 4092 
Q 1497 4750 2381 4750 
Q 2619 4750 2861 4703 
Q 3103 4656 3366 4563 
z
" transform="scale(0.015625)"/>
      </defs>
      <use xlink:href="#DejaVuSans-36"/>
     </g>
    </g>
    <g id="line2d_26">
     <path d="M 367.02125 168.901844 
L 378.02125 168.901844 
L 389.02125 168.901844 
" style="fill: none; stroke-dasharray: 1.5,2.475; stroke-dashoffset: 0; stroke: #6e59d5; stroke-width: 1.5"/>
    </g>
    <g id="text_20">
     <!-- 7 -->
     <g style="fill: #262626" transform="translate(397.82125 172.751844) scale(0.11 -0.11)">
      <defs>
       <path id="DejaVuSans-37" d="M 525 4666 
L 3525 4666 
L 3525 4397 
L 1831 0 
L 1172 0 
L 2766 4134 
L 525 4134 
L 525 4666 
z
" transform="scale(0.015625)"/>
      </defs>
      <use xlink:href="#DejaVuSans-37"/>
     </g>
    </g>
    <g id="line2d_27">
     <path d="M 367.02125 185.047781 
L 378.02125 185.047781 
L 389.02125 185.047781 
" style="fill: none; stroke-dasharray: 1.5,2.475; stroke-dashoffset: 0; stroke: #7b68d9; stroke-width: 1.5"/>
    </g>
    <g id="text_21">
     <!-- 8 -->
     <g style="fill: #262626" transform="translate(397.82125 188.897781) scale(0.11 -0.11)">
      <defs>
       <path id="DejaVuSans-38" d="M 2034 2216 
Q 1584 2216 1326 1975 
Q 1069 1734 1069 1313 
Q 1069 891 1326 650 
Q 1584 409 2034 409 
Q 2484 409 2743 651 
Q 3003 894 3003 1313 
Q 3003 1734 2745 1975 
Q 2488 2216 2034 2216 
z
M 1403 2484 
Q 997 2584 770 2862 
Q 544 3141 544 3541 
Q 544 4100 942 4425 
Q 1341 4750 2034 4750 
Q 2731 4750 3128 4425 
Q 3525 4100 3525 3541 
Q 3525 3141 3298 2862 
Q 3072 2584 2669 2484 
Q 3125 2378 3379 2068 
Q 3634 1759 3634 1313 
Q 3634 634 3220 271 
Q 2806 -91 2034 -91 
Q 1263 -91 848 271 
Q 434 634 434 1313 
Q 434 1759 690 2068 
Q 947 2378 1403 2484 
z
M 1172 3481 
Q 1172 3119 1398 2916 
Q 1625 2713 2034 2713 
Q 2441 2713 2670 2916 
Q 2900 3119 2900 3481 
Q 2900 3844 2670 4047 
Q 2441 4250 2034 4250 
Q 1625 4250 1398 4047 
Q 1172 3844 1172 3481 
z
" transform="scale(0.015625)"/>
      </defs>
      <use xlink:href="#DejaVuSans-38"/>
     </g>
    </g>
    <g id="line2d_28">
     <path d="M 367.02125 201.193719 
L 378.02125 201.193719 
L 389.02125 201.193719 
" style="fill: none; stroke-dasharray: 1.5,2.475; stroke-dashoffset: 0; stroke: #8877dd; stroke-width: 1.5"/>
    </g>
    <g id="text_22">
     <!-- 9 -->
     <g style="fill: #262626" transform="translate(397.82125 205.043719) scale(0.11 -0.11)">
      <defs>
       <path id="DejaVuSans-39" d="M 703 97 
L 703 672 
Q 941 559 1184 500 
Q 1428 441 1663 441 
Q 2288 441 2617 861 
Q 2947 1281 2994 2138 
Q 2813 1869 2534 1725 
Q 2256 1581 1919 1581 
Q 1219 1581 811 2004 
Q 403 2428 403 3163 
Q 403 3881 828 4315 
Q 1253 4750 1959 4750 
Q 2769 4750 3195 4129 
Q 3622 3509 3622 2328 
Q 3622 1225 3098 567 
Q 2575 -91 1691 -91 
Q 1453 -91 1209 -44 
Q 966 3 703 97 
z
M 1959 2075 
Q 2384 2075 2632 2365 
Q 2881 2656 2881 3163 
Q 2881 3666 2632 3958 
Q 2384 4250 1959 4250 
Q 1534 4250 1286 3958 
Q 1038 3666 1038 3163 
Q 1038 2656 1286 2365 
Q 1534 2075 1959 2075 
z
" transform="scale(0.015625)"/>
      </defs>
      <use xlink:href="#DejaVuSans-39"/>
     </g>
    </g>
   </g>
   <g id="line2d_29">
    <path d="M 73.832727 285.453163 
L 107.286315 277.022245 
L 133.029105 264.919781 
L 153.958159 255.103998 
L 171.593254 247.560567 
L 186.831619 241.946597 
L 200.247454 238.008141 
L 212.230511 237.619413 
L 223.05751 240.266027 
L 232.932015 244.473126 
L 242.008147 249.131 
L 250.405405 253.643084 
L 258.218316 257.812627 
L 265.522943 261.491191 
L 272.3814 264.707075 
L 278.845068 267.488854 
L 284.956934 269.838392 
L 290.753325 271.934256 
L 296.265215 273.685541 
L 301.519232 275.264161 
L 306.53843 276.633526 
L 311.342903 277.810106 
L 315.950273 278.852403 
L 320.376076 279.811341 
L 324.634082 280.613212 
L 328.736551 281.385225 
L 332.694446 282.054494 
L 336.517612 282.629105 
L 340.21492 283.184661 
L 343.794392 283.655192 
L 347.263309 284.111241 
L 350.628296 284.521824 
L 353.895399 284.889901 
L 357.070152 285.247655 
L 360.157633 285.566788 
L 363.162513 285.849999 
L 366.089095 286.127329 
L 368.941357 286.372957 
L 371.722981 286.616601 
L 374.43738 286.833959 
L 377.087728 287.055866 
L 379.676977 287.288488 
L 382.207882 287.508719 
L 384.683014 287.755793 
L 387.104778 288.046604 
L 389.475428 288.407266 
L 391.797075 288.801996 
L 394.071705 289.314879 
L 396.301185 289.840048 
L 398.487273 290.469527 
" clip-path="url(#p2dec3fd84e)" style="fill: none; stroke: #332288; stroke-width: 3; stroke-linecap: round"/>
   </g>
  </g>
 </g>
 <defs>
  <clipPath id="p2dec3fd84e">
   <rect x="57.6" y="41.472" width="357.12" height="266.112"/>
  </clipPath>
 </defs>
</svg>
