<?xml version="1.0" encoding="utf-8" standalone="no"?>
<!DOCTYPE svg PUBLIC "-//W3C//DTD SVG 1.1//EN"
  "http://www.w3.org/Graphics/SVG/1.1/DTD/svg11.dtd">
<svg xmlns:xlink="http://www.w3.org/1999/xlink" width="460.8pt" height="345.6pt" viewBox="0 0 460.8 345.6" xmlns="http://www.w3.org/2000/svg" version="1.1">
 <metadata>
  <rdf:RDF xmlns:dc="http://purl.org/dc/elements/1.1/" xmlns:cc="http://creativecommons.org/ns#" xmlns:rdf="http://www.w3.org/1999/02/22-rdf-syntax-ns#">
   <cc:Work>
    <dc:type rdf:resource="http://purl.org/dc/dcmitype/StillImage"/>
    <dc:date>2023-03-26T11:10:25.121469</dc:date>
    <dc:format>image/svg+xml</dc:format>
    <dc:creator>
     <cc:Agent>
      <dc:title>Matplotlib v3.7.1, https://matplotlib.org/</dc:title>
     </cc:Agent>
    </dc:creator>
   </cc:Work>
  </rdf:RDF>
 </metadata>
 <defs>
  <style type="text/css">*{stroke-linejoin: round; stroke-linecap: butt}</style>
 </defs>
 <g id="figure_1">
  <g id="patch_1">
   <path d="M 0 345.6 
L 460.8 345.6 
L 460.8 0 
L 0 0 
z
" style="fill: #ffffff"/>
  </g>
  <g id="axes_1">
   <g id="patch_2">
    <path d="M 57.6 307.584 
L 414.72 307.584 
L 414.72 41.472 
L 57.6 41.472 
z
" style="fill: #eaeaf2"/>
   </g>
   <g id="matplotlib.axis_1">
    <g id="xtick_1">
     <g id="line2d_1">
      <path d="M 73.832727 307.584 
L 73.832727 41.472 
" clip-path="url(#pdc36f8ff6e)" style="fill: none; stroke: #ffffff; stroke-linecap: round"/>
     </g>
     <g id="text_1">
      <!-- $\mathdefault{10^{1}}$ -->
      <g style="fill: #262626" transform="translate(64.152727 325.442281) scale(0.11 -0.11)">
       <defs>
        <path id="DejaVuSans-31" d="M 794 531 
L 1825 531 
L 1825 4091 
L 703 3866 
L 703 4441 
L 1819 4666 
L 2450 4666 
L 2450 531 
L 3481 531 
L 3481 0 
L 794 0 
L 794 531 
z
" transform="scale(0.015625)"/>
        <path id="DejaVuSans-30" d="M 2034 4250 
Q 1547 4250 1301 3770 
Q 1056 3291 1056 2328 
Q 1056 1369 1301 889 
Q 1547 409 2034 409 
Q 2525 409 2770 889 
Q 3016 1369 3016 2328 
Q 3016 3291 2770 3770 
Q 2525 4250 2034 4250 
z
M 2034 4750 
Q 2819 4750 3233 4129 
Q 3647 3509 3647 2328 
Q 3647 1150 3233 529 
Q 2819 -91 2034 -91 
Q 1250 -91 836 529 
Q 422 1150 422 2328 
Q 422 3509 836 4129 
Q 1250 4750 2034 4750 
z
" transform="scale(0.015625)"/>
       </defs>
       <use xlink:href="#DejaVuSans-31" transform="translate(0 0.684375)"/>
       <use xlink:href="#DejaVuSans-30" transform="translate(63.623047 0.684375)"/>
       <use xlink:href="#DejaVuSans-31" transform="translate(128.203125 38.965625) scale(0.7)"/>
      </g>
     </g>
    </g>
    <g id="xtick_2">
     <g id="line2d_2">
      <path d="M 332.46545 307.584 
L 332.46545 41.472 
" clip-path="url(#pdc36f8ff6e)" style="fill: none; stroke: #ffffff; stroke-linecap: round"/>
     </g>
     <g id="text_2">
      <!-- $\mathdefault{10^{2}}$ -->
      <g style="fill: #262626" transform="translate(322.78545 325.442281) scale(0.11 -0.11)">
       <defs>
        <path id="DejaVuSans-32" d="M 1228 531 
L 3431 531 
L 3431 0 
L 469 0 
L 469 531 
Q 828 903 1448 1529 
Q 2069 2156 2228 2338 
Q 2531 2678 2651 2914 
Q 2772 3150 2772 3378 
Q 2772 3750 2511 3984 
Q 2250 4219 1831 4219 
Q 1534 4219 1204 4116 
Q 875 4013 500 3803 
L 500 4441 
Q 881 4594 1212 4672 
Q 1544 4750 1819 4750 
Q 2544 4750 2975 4387 
Q 3406 4025 3406 3419 
Q 3406 3131 3298 2873 
Q 3191 2616 2906 2266 
Q 2828 2175 2409 1742 
Q 1991 1309 1228 531 
z
" transform="scale(0.015625)"/>
       </defs>
       <use xlink:href="#DejaVuSans-31" transform="translate(0 0.765625)"/>
       <use xlink:href="#DejaVuSans-30" transform="translate(63.623047 0.765625)"/>
       <use xlink:href="#DejaVuSans-32" transform="translate(128.203125 39.046875) scale(0.7)"/>
      </g>
     </g>
    </g>
    <g id="xtick_3"/>
    <g id="xtick_4"/>
    <g id="xtick_5"/>
    <g id="xtick_6"/>
    <g id="xtick_7"/>
    <g id="xtick_8"/>
    <g id="xtick_9"/>
    <g id="xtick_10"/>
    <g id="xtick_11"/>
    <g id="xtick_12"/>
    <g id="text_3">
     <!-- Edge Velocity (deg/s) -->
     <g style="fill: #262626" transform="translate(172.5675 340.848062) scale(0.12 -0.12)">
      <defs>
       <path id="DejaVuSans-45" d="M 628 4666 
L 3578 4666 
L 3578 4134 
L 1259 4134 
L 1259 2753 
L 3481 2753 
L 3481 2222 
L 1259 2222 
L 1259 531 
L 3634 531 
L 3634 0 
L 628 0 
L 628 4666 
z
" transform="scale(0.015625)"/>
       <path id="DejaVuSans-64" d="M 2906 2969 
L 2906 4863 
L 3481 4863 
L 3481 0 
L 2906 0 
L 2906 525 
Q 2725 213 2448 61 
Q 2172 -91 1784 -91 
Q 1150 -91 751 415 
Q 353 922 353 1747 
Q 353 2572 751 3078 
Q 1150 3584 1784 3584 
Q 2172 3584 2448 3432 
Q 2725 3281 2906 2969 
z
M 947 1747 
Q 947 1113 1208 752 
Q 1469 391 1925 391 
Q 2381 391 2643 752 
Q 2906 1113 2906 1747 
Q 2906 2381 2643 2742 
Q 2381 3103 1925 3103 
Q 1469 3103 1208 2742 
Q 947 2381 947 1747 
z
" transform="scale(0.015625)"/>
       <path id="DejaVuSans-67" d="M 2906 1791 
Q 2906 2416 2648 2759 
Q 2391 3103 1925 3103 
Q 1463 3103 1205 2759 
Q 947 2416 947 1791 
Q 947 1169 1205 825 
Q 1463 481 1925 481 
Q 2391 481 2648 825 
Q 2906 1169 2906 1791 
z
M 3481 434 
Q 3481 -459 3084 -895 
Q 2688 -1331 1869 -1331 
Q 1566 -1331 1297 -1286 
Q 1028 -1241 775 -1147 
L 775 -588 
Q 1028 -725 1275 -790 
Q 1522 -856 1778 -856 
Q 2344 -856 2625 -561 
Q 2906 -266 2906 331 
L 2906 616 
Q 2728 306 2450 153 
Q 2172 0 1784 0 
Q 1141 0 747 490 
Q 353 981 353 1791 
Q 353 2603 747 3093 
Q 1141 3584 1784 3584 
Q 2172 3584 2450 3431 
Q 2728 3278 2906 2969 
L 2906 3500 
L 3481 3500 
L 3481 434 
z
" transform="scale(0.015625)"/>
       <path id="DejaVuSans-65" d="M 3597 1894 
L 3597 1613 
L 953 1613 
Q 991 1019 1311 708 
Q 1631 397 2203 397 
Q 2534 397 2845 478 
Q 3156 559 3463 722 
L 3463 178 
Q 3153 47 2828 -22 
Q 2503 -91 2169 -91 
Q 1331 -91 842 396 
Q 353 884 353 1716 
Q 353 2575 817 3079 
Q 1281 3584 2069 3584 
Q 2775 3584 3186 3129 
Q 3597 2675 3597 1894 
z
M 3022 2063 
Q 3016 2534 2758 2815 
Q 2500 3097 2075 3097 
Q 1594 3097 1305 2825 
Q 1016 2553 972 2059 
L 3022 2063 
z
" transform="scale(0.015625)"/>
       <path id="DejaVuSans-20" transform="scale(0.015625)"/>
       <path id="DejaVuSans-56" d="M 1831 0 
L 50 4666 
L 709 4666 
L 2188 738 
L 3669 4666 
L 4325 4666 
L 2547 0 
L 1831 0 
z
" transform="scale(0.015625)"/>
       <path id="DejaVuSans-6c" d="M 603 4863 
L 1178 4863 
L 1178 0 
L 603 0 
L 603 4863 
z
" transform="scale(0.015625)"/>
       <path id="DejaVuSans-6f" d="M 1959 3097 
Q 1497 3097 1228 2736 
Q 959 2375 959 1747 
Q 959 1119 1226 758 
Q 1494 397 1959 397 
Q 2419 397 2687 759 
Q 2956 1122 2956 1747 
Q 2956 2369 2687 2733 
Q 2419 3097 1959 3097 
z
M 1959 3584 
Q 2709 3584 3137 3096 
Q 3566 2609 3566 1747 
Q 3566 888 3137 398 
Q 2709 -91 1959 -91 
Q 1206 -91 779 398 
Q 353 888 353 1747 
Q 353 2609 779 3096 
Q 1206 3584 1959 3584 
z
" transform="scale(0.015625)"/>
       <path id="DejaVuSans-63" d="M 3122 3366 
L 3122 2828 
Q 2878 2963 2633 3030 
Q 2388 3097 2138 3097 
Q 1578 3097 1268 2742 
Q 959 2388 959 1747 
Q 959 1106 1268 751 
Q 1578 397 2138 397 
Q 2388 397 2633 464 
Q 2878 531 3122 666 
L 3122 134 
Q 2881 22 2623 -34 
Q 2366 -91 2075 -91 
Q 1284 -91 818 406 
Q 353 903 353 1747 
Q 353 2603 823 3093 
Q 1294 3584 2113 3584 
Q 2378 3584 2631 3529 
Q 2884 3475 3122 3366 
z
" transform="scale(0.015625)"/>
       <path id="DejaVuSans-69" d="M 603 3500 
L 1178 3500 
L 1178 0 
L 603 0 
L 603 3500 
z
M 603 4863 
L 1178 4863 
L 1178 4134 
L 603 4134 
L 603 4863 
z
" transform="scale(0.015625)"/>
       <path id="DejaVuSans-74" d="M 1172 4494 
L 1172 3500 
L 2356 3500 
L 2356 3053 
L 1172 3053 
L 1172 1153 
Q 1172 725 1289 603 
Q 1406 481 1766 481 
L 2356 481 
L 2356 0 
L 1766 0 
Q 1100 0 847 248 
Q 594 497 594 1153 
L 594 3053 
L 172 3053 
L 172 3500 
L 594 3500 
L 594 4494 
L 1172 4494 
z
" transform="scale(0.015625)"/>
       <path id="DejaVuSans-79" d="M 2059 -325 
Q 1816 -950 1584 -1140 
Q 1353 -1331 966 -1331 
L 506 -1331 
L 506 -850 
L 844 -850 
Q 1081 -850 1212 -737 
Q 1344 -625 1503 -206 
L 1606 56 
L 191 3500 
L 800 3500 
L 1894 763 
L 2988 3500 
L 3597 3500 
L 2059 -325 
z
" transform="scale(0.015625)"/>
       <path id="DejaVuSans-28" d="M 1984 4856 
Q 1566 4138 1362 3434 
Q 1159 2731 1159 2009 
Q 1159 1288 1364 580 
Q 1569 -128 1984 -844 
L 1484 -844 
Q 1016 -109 783 600 
Q 550 1309 550 2009 
Q 550 2706 781 3412 
Q 1013 4119 1484 4856 
L 1984 4856 
z
" transform="scale(0.015625)"/>
       <path id="DejaVuSans-2f" d="M 1625 4666 
L 2156 4666 
L 531 -594 
L 0 -594 
L 1625 4666 
z
" transform="scale(0.015625)"/>
       <path id="DejaVuSans-73" d="M 2834 3397 
L 2834 2853 
Q 2591 2978 2328 3040 
Q 2066 3103 1784 3103 
Q 1356 3103 1142 2972 
Q 928 2841 928 2578 
Q 928 2378 1081 2264 
Q 1234 2150 1697 2047 
L 1894 2003 
Q 2506 1872 2764 1633 
Q 3022 1394 3022 966 
Q 3022 478 2636 193 
Q 2250 -91 1575 -91 
Q 1294 -91 989 -36 
Q 684 19 347 128 
L 347 722 
Q 666 556 975 473 
Q 1284 391 1588 391 
Q 1994 391 2212 530 
Q 2431 669 2431 922 
Q 2431 1156 2273 1281 
Q 2116 1406 1581 1522 
L 1381 1569 
Q 847 1681 609 1914 
Q 372 2147 372 2553 
Q 372 3047 722 3315 
Q 1072 3584 1716 3584 
Q 2034 3584 2315 3537 
Q 2597 3491 2834 3397 
z
" transform="scale(0.015625)"/>
       <path id="DejaVuSans-29" d="M 513 4856 
L 1013 4856 
Q 1481 4119 1714 3412 
Q 1947 2706 1947 2009 
Q 1947 1309 1714 600 
Q 1481 -109 1013 -844 
L 513 -844 
Q 928 -128 1133 580 
Q 1338 1288 1338 2009 
Q 1338 2731 1133 3434 
Q 928 4138 513 4856 
z
" transform="scale(0.015625)"/>
      </defs>
      <use xlink:href="#DejaVuSans-45"/>
      <use xlink:href="#DejaVuSans-64" x="63.183594"/>
      <use xlink:href="#DejaVuSans-67" x="126.660156"/>
      <use xlink:href="#DejaVuSans-65" x="190.136719"/>
      <use xlink:href="#DejaVuSans-20" x="251.660156"/>
      <use xlink:href="#DejaVuSans-56" x="283.447266"/>
      <use xlink:href="#DejaVuSans-65" x="344.105469"/>
      <use xlink:href="#DejaVuSans-6c" x="405.628906"/>
      <use xlink:href="#DejaVuSans-6f" x="433.412109"/>
      <use xlink:href="#DejaVuSans-63" x="494.59375"/>
      <use xlink:href="#DejaVuSans-69" x="549.574219"/>
      <use xlink:href="#DejaVuSans-74" x="577.357422"/>
      <use xlink:href="#DejaVuSans-79" x="616.566406"/>
      <use xlink:href="#DejaVuSans-20" x="675.746094"/>
      <use xlink:href="#DejaVuSans-28" x="707.533203"/>
      <use xlink:href="#DejaVuSans-64" x="746.546875"/>
      <use xlink:href="#DejaVuSans-65" x="810.023438"/>
      <use xlink:href="#DejaVuSans-67" x="871.546875"/>
      <use xlink:href="#DejaVuSans-2f" x="935.023438"/>
      <use xlink:href="#DejaVuSans-73" x="968.714844"/>
      <use xlink:href="#DejaVuSans-29" x="1020.814453"/>
     </g>
    </g>
   </g>
   <g id="matplotlib.axis_2">
    <g id="ytick_1">
     <g id="line2d_3">
      <path d="M 57.6 262.059596 
L 414.72 262.059596 
" clip-path="url(#pdc36f8ff6e)" style="fill: none; stroke: #ffffff; stroke-linecap: round"/>
     </g>
     <g id="text_4">
      <!-- 0.2 -->
      <g style="fill: #262626" transform="translate(30.606563 266.238736) scale(0.11 -0.11)">
       <defs>
        <path id="DejaVuSans-2e" d="M 684 794 
L 1344 794 
L 1344 0 
L 684 0 
L 684 794 
z
" transform="scale(0.015625)"/>
       </defs>
       <use xlink:href="#DejaVuSans-30"/>
       <use xlink:href="#DejaVuSans-2e" x="63.623047"/>
       <use xlink:href="#DejaVuSans-32" x="95.410156"/>
      </g>
     </g>
    </g>
    <g id="ytick_2">
     <g id="line2d_4">
      <path d="M 57.6 210.372518 
L 414.72 210.372518 
" clip-path="url(#pdc36f8ff6e)" style="fill: none; stroke: #ffffff; stroke-linecap: round"/>
     </g>
     <g id="text_5">
      <!-- 0.4 -->
      <g style="fill: #262626" transform="translate(30.606563 214.551658) scale(0.11 -0.11)">
       <defs>
        <path id="DejaVuSans-34" d="M 2419 4116 
L 825 1625 
L 2419 1625 
L 2419 4116 
z
M 2253 4666 
L 3047 4666 
L 3047 1625 
L 3713 1625 
L 3713 1100 
L 3047 1100 
L 3047 0 
L 2419 0 
L 2419 1100 
L 313 1100 
L 313 1709 
L 2253 4666 
z
" transform="scale(0.015625)"/>
       </defs>
       <use xlink:href="#DejaVuSans-30"/>
       <use xlink:href="#DejaVuSans-2e" x="63.623047"/>
       <use xlink:href="#DejaVuSans-34" x="95.410156"/>
      </g>
     </g>
    </g>
    <g id="ytick_3">
     <g id="line2d_5">
      <path d="M 57.6 158.68544 
L 414.72 158.68544 
" clip-path="url(#pdc36f8ff6e)" style="fill: none; stroke: #ffffff; stroke-linecap: round"/>
     </g>
     <g id="text_6">
      <!-- 0.6 -->
      <g style="fill: #262626" transform="translate(30.606563 162.864581) scale(0.11 -0.11)">
       <defs>
        <path id="DejaVuSans-36" d="M 2113 2584 
Q 1688 2584 1439 2293 
Q 1191 2003 1191 1497 
Q 1191 994 1439 701 
Q 1688 409 2113 409 
Q 2538 409 2786 701 
Q 3034 994 3034 1497 
Q 3034 2003 2786 2293 
Q 2538 2584 2113 2584 
z
M 3366 4563 
L 3366 3988 
Q 3128 4100 2886 4159 
Q 2644 4219 2406 4219 
Q 1781 4219 1451 3797 
Q 1122 3375 1075 2522 
Q 1259 2794 1537 2939 
Q 1816 3084 2150 3084 
Q 2853 3084 3261 2657 
Q 3669 2231 3669 1497 
Q 3669 778 3244 343 
Q 2819 -91 2113 -91 
Q 1303 -91 875 529 
Q 447 1150 447 2328 
Q 447 3434 972 4092 
Q 1497 4750 2381 4750 
Q 2619 4750 2861 4703 
Q 3103 4656 3366 4563 
z
" transform="scale(0.015625)"/>
       </defs>
       <use xlink:href="#DejaVuSans-30"/>
       <use xlink:href="#DejaVuSans-2e" x="63.623047"/>
       <use xlink:href="#DejaVuSans-36" x="95.410156"/>
      </g>
     </g>
    </g>
    <g id="ytick_4">
     <g id="line2d_6">
      <path d="M 57.6 106.998362 
L 414.72 106.998362 
" clip-path="url(#pdc36f8ff6e)" style="fill: none; stroke: #ffffff; stroke-linecap: round"/>
     </g>
     <g id="text_7">
      <!-- 0.8 -->
      <g style="fill: #262626" transform="translate(30.606563 111.177503) scale(0.11 -0.11)">
       <defs>
        <path id="DejaVuSans-38" d="M 2034 2216 
Q 1584 2216 1326 1975 
Q 1069 1734 1069 1313 
Q 1069 891 1326 650 
Q 1584 409 2034 409 
Q 2484 409 2743 651 
Q 3003 894 3003 1313 
Q 3003 1734 2745 1975 
Q 2488 2216 2034 2216 
z
M 1403 2484 
Q 997 2584 770 2862 
Q 544 3141 544 3541 
Q 544 4100 942 4425 
Q 1341 4750 2034 4750 
Q 2731 4750 3128 4425 
Q 3525 4100 3525 3541 
Q 3525 3141 3298 2862 
Q 3072 2584 2669 2484 
Q 3125 2378 3379 2068 
Q 3634 1759 3634 1313 
Q 3634 634 3220 271 
Q 2806 -91 2034 -91 
Q 1263 -91 848 271 
Q 434 634 434 1313 
Q 434 1759 690 2068 
Q 947 2378 1403 2484 
z
M 1172 3481 
Q 1172 3119 1398 2916 
Q 1625 2713 2034 2713 
Q 2441 2713 2670 2916 
Q 2900 3119 2900 3481 
Q 2900 3844 2670 4047 
Q 2441 4250 2034 4250 
Q 1625 4250 1398 4047 
Q 1172 3844 1172 3481 
z
" transform="scale(0.015625)"/>
       </defs>
       <use xlink:href="#DejaVuSans-30"/>
       <use xlink:href="#DejaVuSans-2e" x="63.623047"/>
       <use xlink:href="#DejaVuSans-38" x="95.410156"/>
      </g>
     </g>
    </g>
    <g id="ytick_5">
     <g id="line2d_7">
      <path d="M 57.6 55.311284 
L 414.72 55.311284 
" clip-path="url(#pdc36f8ff6e)" style="fill: none; stroke: #ffffff; stroke-linecap: round"/>
     </g>
     <g id="text_8">
      <!-- 1.0 -->
      <g style="fill: #262626" transform="translate(30.606563 59.490425) scale(0.11 -0.11)">
       <use xlink:href="#DejaVuSans-31"/>
       <use xlink:href="#DejaVuSans-2e" x="63.623047"/>
       <use xlink:href="#DejaVuSans-30" x="95.410156"/>
      </g>
     </g>
    </g>
    <g id="text_9">
     <!-- Peak Magnitude -->
     <g style="fill: #262626" transform="translate(24.110937 222.466125) rotate(-90) scale(0.12 -0.12)">
      <defs>
       <path id="DejaVuSans-50" d="M 1259 4147 
L 1259 2394 
L 2053 2394 
Q 2494 2394 2734 2622 
Q 2975 2850 2975 3272 
Q 2975 3691 2734 3919 
Q 2494 4147 2053 4147 
L 1259 4147 
z
M 628 4666 
L 2053 4666 
Q 2838 4666 3239 4311 
Q 3641 3956 3641 3272 
Q 3641 2581 3239 2228 
Q 2838 1875 2053 1875 
L 1259 1875 
L 1259 0 
L 628 0 
L 628 4666 
z
" transform="scale(0.015625)"/>
       <path id="DejaVuSans-61" d="M 2194 1759 
Q 1497 1759 1228 1600 
Q 959 1441 959 1056 
Q 959 750 1161 570 
Q 1363 391 1709 391 
Q 2188 391 2477 730 
Q 2766 1069 2766 1631 
L 2766 1759 
L 2194 1759 
z
M 3341 1997 
L 3341 0 
L 2766 0 
L 2766 531 
Q 2569 213 2275 61 
Q 1981 -91 1556 -91 
Q 1019 -91 701 211 
Q 384 513 384 1019 
Q 384 1609 779 1909 
Q 1175 2209 1959 2209 
L 2766 2209 
L 2766 2266 
Q 2766 2663 2505 2880 
Q 2244 3097 1772 3097 
Q 1472 3097 1187 3025 
Q 903 2953 641 2809 
L 641 3341 
Q 956 3463 1253 3523 
Q 1550 3584 1831 3584 
Q 2591 3584 2966 3190 
Q 3341 2797 3341 1997 
z
" transform="scale(0.015625)"/>
       <path id="DejaVuSans-6b" d="M 581 4863 
L 1159 4863 
L 1159 1991 
L 2875 3500 
L 3609 3500 
L 1753 1863 
L 3688 0 
L 2938 0 
L 1159 1709 
L 1159 0 
L 581 0 
L 581 4863 
z
" transform="scale(0.015625)"/>
       <path id="DejaVuSans-4d" d="M 628 4666 
L 1569 4666 
L 2759 1491 
L 3956 4666 
L 4897 4666 
L 4897 0 
L 4281 0 
L 4281 4097 
L 3078 897 
L 2444 897 
L 1241 4097 
L 1241 0 
L 628 0 
L 628 4666 
z
" transform="scale(0.015625)"/>
       <path id="DejaVuSans-6e" d="M 3513 2113 
L 3513 0 
L 2938 0 
L 2938 2094 
Q 2938 2591 2744 2837 
Q 2550 3084 2163 3084 
Q 1697 3084 1428 2787 
Q 1159 2491 1159 1978 
L 1159 0 
L 581 0 
L 581 3500 
L 1159 3500 
L 1159 2956 
Q 1366 3272 1645 3428 
Q 1925 3584 2291 3584 
Q 2894 3584 3203 3211 
Q 3513 2838 3513 2113 
z
" transform="scale(0.015625)"/>
       <path id="DejaVuSans-75" d="M 544 1381 
L 544 3500 
L 1119 3500 
L 1119 1403 
Q 1119 906 1312 657 
Q 1506 409 1894 409 
Q 2359 409 2629 706 
Q 2900 1003 2900 1516 
L 2900 3500 
L 3475 3500 
L 3475 0 
L 2900 0 
L 2900 538 
Q 2691 219 2414 64 
Q 2138 -91 1772 -91 
Q 1169 -91 856 284 
Q 544 659 544 1381 
z
M 1991 3584 
L 1991 3584 
z
" transform="scale(0.015625)"/>
      </defs>
      <use xlink:href="#DejaVuSans-50"/>
      <use xlink:href="#DejaVuSans-65" x="56.677734"/>
      <use xlink:href="#DejaVuSans-61" x="118.201172"/>
      <use xlink:href="#DejaVuSans-6b" x="179.480469"/>
      <use xlink:href="#DejaVuSans-20" x="237.390625"/>
      <use xlink:href="#DejaVuSans-4d" x="269.177734"/>
      <use xlink:href="#DejaVuSans-61" x="355.457031"/>
      <use xlink:href="#DejaVuSans-67" x="416.736328"/>
      <use xlink:href="#DejaVuSans-6e" x="480.212891"/>
      <use xlink:href="#DejaVuSans-69" x="543.591797"/>
      <use xlink:href="#DejaVuSans-74" x="571.375"/>
      <use xlink:href="#DejaVuSans-75" x="610.583984"/>
      <use xlink:href="#DejaVuSans-64" x="673.962891"/>
      <use xlink:href="#DejaVuSans-65" x="737.439453"/>
     </g>
    </g>
   </g>
   <g id="line2d_8">
    <path d="M 73.832727 55.309818 
L 107.286315 55.32009 
L 133.029105 55.432287 
L 153.958159 55.927415 
L 171.593254 57.242817 
L 186.831619 59.795028 
L 200.247454 63.808222 
L 212.230511 69.253005 
L 223.05751 75.923819 
L 232.932015 83.525063 
L 242.008147 91.604372 
L 250.405405 99.817837 
L 258.218316 108.023011 
L 265.522943 115.882155 
L 272.3814 123.261948 
L 278.845068 129.971583 
L 284.956934 136.57829 
L 290.753325 144.633651 
L 296.265215 153.465817 
L 301.519232 163.685558 
L 306.53843 174.780061 
L 311.342903 185.374447 
L 315.950273 195.159916 
L 320.376076 204.437583 
L 324.634082 212.35142 
L 328.736551 220.060923 
L 332.694446 226.783186 
L 336.517612 232.559544 
L 340.21492 238.128061 
L 343.794392 242.817122 
L 347.263309 247.325755 
L 350.628296 251.344826 
L 353.895399 254.907984 
L 357.070152 258.328113 
L 360.157633 261.336103 
L 363.162513 263.965204 
L 366.089095 266.494305 
L 368.941357 268.685531 
L 371.722981 270.796997 
L 374.43738 272.607637 
L 377.087728 274.356754 
L 379.676977 276.045227 
L 382.207882 277.473662 
L 384.683014 278.857126 
L 387.104778 280.196379 
L 389.475428 281.492224 
L 391.797075 282.569036 
L 394.071705 283.615125 
L 396.301185 284.463808 
L 398.487273 285.455062 
" clip-path="url(#pdc36f8ff6e)" style="fill: none; stroke-dasharray: 1.5,2.475; stroke-dashoffset: 0; stroke: #392698; stroke-width: 1.5"/>
   </g>
   <g id="line2d_9">
    <path d="M 73.832727 55.275807 
L 107.286315 55.294305 
L 133.029105 55.473338 
L 153.958159 56.203014 
L 171.593254 58.014662 
L 186.831619 61.3465 
L 200.247454 66.32637 
L 212.230511 72.813468 
L 223.05751 80.449649 
L 232.932015 88.862322 
L 242.008147 97.504118 
L 250.405405 106.168698 
L 258.218316 114.572686 
L 265.522943 122.497027 
L 272.3814 129.837892 
L 278.845068 136.421649 
L 284.956934 143.130572 
L 290.753325 150.907302 
L 296.265215 159.552172 
L 301.519232 168.734857 
L 306.53843 178.521412 
L 311.342903 188.302848 
L 315.950273 197.680699 
L 320.376076 206.26542 
L 324.634082 214.015231 
L 328.736551 220.922279 
L 332.694446 227.20957 
L 336.517612 233.088585 
L 340.21492 238.176413 
L 343.794392 242.893589 
L 347.263309 247.073542 
L 350.628296 250.923159 
L 353.895399 254.293636 
L 357.070152 257.539153 
L 360.157633 260.352354 
L 363.162513 262.915228 
L 366.089095 265.38683 
L 368.941357 267.629848 
L 371.722981 269.660219 
L 374.43738 271.492607 
L 377.087728 273.140604 
L 379.676977 274.737757 
L 382.207882 276.284812 
L 384.683014 277.55534 
L 387.104778 278.901774 
L 389.475428 280.100335 
L 391.797075 281.160859 
L 394.071705 282.194194 
L 396.301185 283.101366 
L 398.487273 284.084453 
" clip-path="url(#pdc36f8ff6e)" style="fill: none; stroke-dasharray: 1.5,2.475; stroke-dashoffset: 0; stroke: #402aaa; stroke-width: 1.5"/>
   </g>
   <g id="line2d_10">
    <path d="M 73.832727 55.309325 
L 107.286315 55.312413 
L 133.029105 55.360302 
L 153.958159 55.630273 
L 171.593254 56.484905 
L 186.831619 58.372731 
L 200.247454 61.670833 
L 212.230511 66.51902 
L 223.05751 72.850751 
L 232.932015 80.387217 
L 242.008147 88.78256 
L 250.405405 97.657622 
L 258.218316 106.633505 
L 265.522943 115.384962 
L 272.3814 123.82225 
L 278.845068 131.689964 
L 284.956934 138.904468 
L 290.753325 145.358234 
L 296.265215 151.256938 
L 301.519232 157.651922 
L 306.53843 164.691331 
L 311.342903 172.084264 
L 315.950273 179.760445 
L 320.376076 187.324555 
L 324.634082 195.049364 
L 328.736551 202.859263 
L 332.694446 210.378212 
L 336.517612 217.576487 
L 340.21492 224.353489 
L 343.794392 230.412173 
L 347.263309 235.779153 
L 350.628296 240.720985 
L 353.895399 245.252736 
L 357.070152 249.392966 
L 360.157633 253.162483 
L 363.162513 256.583313 
L 366.089095 259.677871 
L 368.941357 262.468308 
L 371.722981 264.976031 
L 374.43738 267.390753 
L 377.087728 269.550304 
L 379.676977 271.631012 
L 382.207882 273.482522 
L 384.683014 275.122222 
L 387.104778 276.707649 
L 389.475428 278.239573 
L 391.797075 279.586767 
L 394.071705 280.762868 
L 396.301185 282.029968 
L 398.487273 283.135314 
" clip-path="url(#pdc36f8ff6e)" style="fill: none; stroke-dasharray: 1.5,2.475; stroke-dashoffset: 0; stroke: #472fbd; stroke-width: 1.5"/>
   </g>
   <g id="line2d_11">
    <path d="M 73.832727 53.607682 
L 107.286315 53.607685 
L 133.029105 53.60795 
L 153.958159 53.613194 
L 171.593254 53.654562 
L 186.831619 53.837969 
L 200.247454 54.398824 
L 212.230511 55.70577 
L 223.05751 58.210238 
L 232.932015 62.369757 
L 242.008147 68.490449 
L 250.405405 76.626489 
L 258.218316 86.701319 
L 265.522943 98.268266 
L 272.3814 110.946062 
L 278.845068 124.107646 
L 284.956934 137.178153 
L 290.753325 150.206383 
L 296.265215 162.493743 
L 301.519232 173.915642 
L 306.53843 184.736544 
L 311.342903 194.540357 
L 315.950273 203.485417 
L 320.376076 211.522133 
L 324.634082 218.879635 
L 328.736551 225.552761 
L 332.694446 231.552388 
L 336.517612 236.903518 
L 340.21492 241.851285 
L 343.794392 246.21046 
L 347.263309 250.224626 
L 350.628296 253.710182 
L 353.895399 257.07015 
L 357.070152 260.126949 
L 360.157633 262.729718 
L 363.162513 265.243987 
L 366.089095 267.511216 
L 368.941357 269.70236 
L 371.722981 271.520539 
L 374.43738 273.428576 
L 377.087728 274.993673 
L 379.676977 276.51419 
L 382.207882 277.990852 
L 384.683014 279.295881 
L 387.104778 280.565954 
L 389.475428 281.679539 
L 391.797075 282.765701 
L 394.071705 283.708711 
L 396.301185 284.744821 
L 398.487273 285.532897 
" clip-path="url(#pdc36f8ff6e)" style="fill: none; stroke-dasharray: 1.5,2.475; stroke-dashoffset: 0; stroke: #533ace; stroke-width: 1.5"/>
   </g>
   <g id="line2d_12">
    <path d="M 73.832727 53.568 
L 107.286315 53.568004 
L 133.029105 53.568328 
L 153.958159 53.574435 
L 171.593254 53.621256 
L 186.831619 53.824773 
L 200.247454 54.431695 
L 212.230511 55.825282 
L 223.05751 58.481329 
L 232.932015 62.839271 
L 242.008147 69.165687 
L 250.405405 77.543503 
L 258.218316 87.81507 
L 265.522943 99.489129 
L 272.3814 112.162454 
L 278.845068 125.197492 
L 284.956934 138.485859 
L 290.753325 151.222393 
L 296.265215 163.396449 
L 301.519232 174.925762 
L 306.53843 185.315533 
L 311.342903 195.189561 
L 315.950273 203.9368 
L 320.376076 212.023051 
L 324.634082 219.177684 
L 328.736551 225.65325 
L 332.694446 231.692723 
L 336.517612 236.857002 
L 340.21492 241.629203 
L 343.794392 246.02786 
L 347.263309 249.87872 
L 350.628296 253.594466 
L 353.895399 256.799006 
L 357.070152 259.710358 
L 360.157633 262.519752 
L 363.162513 264.894371 
L 366.089095 267.1913 
L 368.941357 269.255109 
L 371.722981 271.253092 
L 374.43738 273.039671 
L 377.087728 274.629368 
L 379.676977 276.173841 
L 382.207882 277.539113 
L 384.683014 278.868126 
L 387.104778 280.161605 
L 389.475428 281.295919 
L 391.797075 282.280924 
L 394.071705 283.363368 
L 396.301185 284.302995 
L 398.487273 285.221749 
" clip-path="url(#pdc36f8ff6e)" style="fill: none; stroke-dasharray: 1.5,2.475; stroke-dashoffset: 0; stroke: #6953d4; stroke-width: 1.5"/>
   </g>
   <g id="line2d_13">
    <path d="M 73.832727 54.352755 
L 107.286315 54.352757 
L 133.029105 54.353002 
L 153.958159 54.357892 
L 171.593254 54.396902 
L 186.831619 54.572248 
L 200.247454 55.10962 
L 212.230511 56.368551 
L 223.05751 58.803388 
L 232.932015 62.885738 
L 242.008147 68.886939 
L 250.405405 76.874114 
L 258.218316 86.851708 
L 265.522943 98.357635 
L 272.3814 110.999061 
L 278.845068 124.225215 
L 284.956934 137.250288 
L 290.753325 150.402105 
L 296.265215 162.521499 
L 301.519232 174.309946 
L 306.53843 185.159516 
L 311.342903 194.895832 
L 315.950273 203.800017 
L 320.376076 212.177283 
L 324.634082 219.287616 
L 328.736551 226.1932 
L 332.694446 232.203562 
L 336.517612 237.364677 
L 340.21492 242.342114 
L 343.794392 246.540975 
L 347.263309 250.594187 
L 350.628296 254.217907 
L 353.895399 257.439275 
L 357.070152 260.540823 
L 360.157633 263.27828 
L 363.162513 265.679321 
L 366.089095 267.997417 
L 368.941357 270.013369 
L 371.722981 271.963415 
L 374.43738 273.642156 
L 377.087728 275.270212 
L 379.676977 276.848381 
L 382.207882 278.189044 
L 384.683014 279.492819 
L 387.104778 280.760386 
L 389.475428 281.992461 
L 391.797075 283.020847 
L 394.071705 284.024206 
L 396.301185 284.841587 
L 398.487273 285.800399 
" clip-path="url(#pdc36f8ff6e)" style="fill: none; stroke-dasharray: 1.5,2.475; stroke-dashoffset: 0; stroke: #816fdb; stroke-width: 1.5"/>
   </g>
   <g id="line2d_14">
    <path d="M 73.832727 54.509666 
L 107.286315 54.5097 
L 133.029105 54.51 
L 153.958159 54.515252 
L 171.593254 54.556804 
L 186.831619 54.739467 
L 200.247454 55.295053 
L 212.230511 56.585763 
L 223.05751 59.063271 
L 232.932015 63.163866 
L 242.008147 69.195376 
L 250.405405 77.252577 
L 258.218316 87.108752 
L 265.522943 98.548816 
L 272.3814 111.154065 
L 278.845068 124.117239 
L 284.956934 137.317463 
L 290.753325 150.158742 
L 296.265215 162.401435 
L 301.519232 173.956394 
L 306.53843 184.574618 
L 311.342903 194.371697 
L 315.950273 203.247601 
L 320.376076 211.426869 
L 324.634082 218.878229 
L 328.736551 225.345095 
L 332.694446 231.359583 
L 336.517612 236.686938 
L 340.21492 241.593691 
L 343.794392 245.878042 
L 347.263309 249.79794 
L 350.628296 253.572127 
L 353.895399 256.802254 
L 357.070152 259.722777 
L 360.157633 262.538613 
L 363.162513 264.894375 
L 366.089095 267.171907 
L 368.941357 269.371812 
L 371.722981 271.173257 
L 374.43738 273.076521 
L 377.087728 274.613875 
L 379.676977 276.10764 
L 382.207882 277.558523 
L 384.683014 278.82821 
L 387.104778 280.064284 
L 389.475428 281.267455 
L 391.797075 282.309856 
L 394.071705 283.327278 
L 396.301185 284.197429 
L 398.487273 285.169395 
" clip-path="url(#pdc36f8ff6e)" style="fill: none; stroke-dasharray: 1.5,2.475; stroke-dashoffset: 0; stroke: #9c8de3; stroke-width: 1.5"/>
   </g>
   <g id="line2d_15">
    <path d="M 73.832727 53.69089 
L 107.286315 53.690893 
L 133.029105 53.691211 
L 153.958159 53.697196 
L 171.593254 53.742931 
L 186.831619 53.941211 
L 200.247454 54.532682 
L 212.230511 55.894023 
L 223.05751 58.466522 
L 232.932015 62.696339 
L 242.008147 68.873347 
L 250.405405 77.077634 
L 258.218316 87.053487 
L 265.522943 98.506151 
L 272.3814 110.99573 
L 278.845068 124.013571 
L 284.956934 136.985392 
L 290.753325 149.634073 
L 296.265215 161.864488 
L 301.519232 173.144111 
L 306.53843 183.614371 
L 311.342903 193.31867 
L 315.950273 202.159749 
L 320.376076 210.278844 
L 324.634082 217.462339 
L 328.736551 224.087226 
L 332.694446 229.977954 
L 336.517612 235.334802 
L 340.21492 240.17952 
L 343.794392 244.54198 
L 347.263309 248.60866 
L 350.628296 252.231531 
L 353.895399 255.581337 
L 357.070152 258.534154 
L 360.157633 261.251964 
L 363.162513 263.748478 
L 366.089095 266.162014 
L 368.941357 268.251594 
L 371.722981 270.158487 
L 374.43738 272.008055 
L 377.087728 273.69063 
L 379.676977 275.216707 
L 382.207882 276.700636 
L 384.683014 277.939636 
L 387.104778 279.248161 
L 389.475428 280.425447 
L 391.797075 281.479309 
L 394.071705 282.509141 
L 396.301185 283.515637 
L 398.487273 284.410782 
" clip-path="url(#pdc36f8ff6e)" style="fill: none; stroke-dasharray: 1.5,2.475; stroke-dashoffset: 0; stroke: #bab0eb; stroke-width: 1.5"/>
   </g>
   <g id="line2d_16">
    <path d="M 73.832727 54.658636 
L 107.286315 54.658638 
L 133.029105 54.65886 
L 153.958159 54.66336 
L 171.593254 54.69972 
L 186.831619 54.864744 
L 200.247454 55.374226 
L 212.230511 56.575287 
L 223.05751 58.911407 
L 232.932015 62.848589 
L 242.008147 68.666234 
L 250.405405 76.448662 
L 258.218316 86.219228 
L 265.522943 97.539832 
L 272.3814 110.032163 
L 278.845068 123.154233 
L 284.956934 136.124587 
L 290.753325 149.256331 
L 296.265215 161.390223 
L 301.519232 173.216581 
L 306.53843 184.11873 
L 311.342903 193.919002 
L 315.950273 202.888222 
L 320.376076 211.338021 
L 324.634082 218.511965 
L 328.736551 225.483355 
L 332.694446 231.553566 
L 336.517612 236.767366 
L 340.21492 241.796003 
L 343.794392 246.036957 
L 347.263309 250.127677 
L 350.628296 253.784216 
L 353.895399 257.034067 
L 357.070152 260.162237 
L 360.157633 262.922373 
L 363.162513 265.342547 
L 366.089095 267.67832 
L 368.941357 269.708913 
L 371.722981 271.67231 
L 374.43738 273.361861 
L 377.087728 274.999723 
L 379.676977 276.586688 
L 382.207882 277.934217 
L 384.683014 279.244082 
L 387.104778 280.516962 
L 389.475428 281.753577 
L 391.797075 282.78524 
L 394.071705 283.79131 
L 396.301185 284.610522 
L 398.487273 285.57102 
" clip-path="url(#pdc36f8ff6e)" style="fill: none; stroke-dasharray: 1.5,2.475; stroke-dashoffset: 0; stroke: #dbd6f5; stroke-width: 1.5"/>
   </g>
   <g id="line2d_17">
    <path d="M 73.832727 55.311284 
L 107.286315 55.741353 
L 133.029105 57.025847 
L 153.958159 59.147794 
L 171.593254 62.079433 
L 186.831619 65.782978 
L 200.247454 70.211644 
L 212.230511 75.310867 
L 223.05751 81.019693 
L 232.932015 87.272257 
L 242.008147 93.999297 
L 250.405405 101.129659 
L 258.218316 108.591729 
L 265.522943 116.314753 
L 272.3814 124.230024 
L 278.845068 132.271894 
L 284.956934 140.378613 
L 290.753325 148.49298 
L 296.265215 156.562816 
L 301.519232 164.541269 
L 306.53843 172.386957 
L 311.342903 180.06398 
L 315.950273 187.541809 
L 320.376076 194.795086 
L 324.634082 201.80334 
L 328.736551 208.550653 
L 332.694446 215.025289 
L 336.517612 221.219293 
L 340.21492 227.12809 
L 343.794392 232.75008 
L 347.263309 238.086248 
L 350.628296 243.139792 
L 353.895399 247.915771 
L 357.070152 252.420784 
L 360.157633 256.662674 
L 363.162513 260.650259 
L 366.089095 264.393103 
L 368.941357 267.901301 
L 371.722981 271.185301 
L 374.43738 274.255745 
L 377.087728 277.123343 
L 379.676977 279.798752 
L 382.207882 282.292494 
L 384.683014 284.614872 
L 387.104778 286.775917 
L 389.475428 288.785337 
L 391.797075 290.652485 
L 394.071705 292.386332 
L 396.301185 293.995449 
L 398.487273 295.488 
" clip-path="url(#pdc36f8ff6e)" style="fill: none; stroke-dasharray: 5.55,2.4; stroke-dashoffset: 0; stroke: #000000; stroke-width: 1.5"/>
   </g>
   <g id="patch_3">
    <path d="M 57.6 307.584 
L 57.6 41.472 
" style="fill: none; stroke: #ffffff; stroke-width: 1.25; stroke-linejoin: miter; stroke-linecap: square"/>
   </g>
   <g id="patch_4">
    <path d="M 57.6 307.584 
L 414.72 307.584 
" style="fill: none; stroke: #ffffff; stroke-width: 1.25; stroke-linejoin: miter; stroke-linecap: square"/>
   </g>
   <g id="text_10">
    <!-- T4_b Peak Velocity Response -->
    <g style="fill: #262626" transform="translate(149.549062 35.472) scale(0.12 -0.12)">
     <defs>
      <path id="DejaVuSans-54" d="M -19 4666 
L 3928 4666 
L 3928 4134 
L 2272 4134 
L 2272 0 
L 1638 0 
L 1638 4134 
L -19 4134 
L -19 4666 
z
" transform="scale(0.015625)"/>
      <path id="DejaVuSans-5f" d="M 3263 -1063 
L 3263 -1509 
L -63 -1509 
L -63 -1063 
L 3263 -1063 
z
" transform="scale(0.015625)"/>
      <path id="DejaVuSans-62" d="M 3116 1747 
Q 3116 2381 2855 2742 
Q 2594 3103 2138 3103 
Q 1681 3103 1420 2742 
Q 1159 2381 1159 1747 
Q 1159 1113 1420 752 
Q 1681 391 2138 391 
Q 2594 391 2855 752 
Q 3116 1113 3116 1747 
z
M 1159 2969 
Q 1341 3281 1617 3432 
Q 1894 3584 2278 3584 
Q 2916 3584 3314 3078 
Q 3713 2572 3713 1747 
Q 3713 922 3314 415 
Q 2916 -91 2278 -91 
Q 1894 -91 1617 61 
Q 1341 213 1159 525 
L 1159 0 
L 581 0 
L 581 4863 
L 1159 4863 
L 1159 2969 
z
" transform="scale(0.015625)"/>
      <path id="DejaVuSans-52" d="M 2841 2188 
Q 3044 2119 3236 1894 
Q 3428 1669 3622 1275 
L 4263 0 
L 3584 0 
L 2988 1197 
Q 2756 1666 2539 1819 
Q 2322 1972 1947 1972 
L 1259 1972 
L 1259 0 
L 628 0 
L 628 4666 
L 2053 4666 
Q 2853 4666 3247 4331 
Q 3641 3997 3641 3322 
Q 3641 2881 3436 2590 
Q 3231 2300 2841 2188 
z
M 1259 4147 
L 1259 2491 
L 2053 2491 
Q 2509 2491 2742 2702 
Q 2975 2913 2975 3322 
Q 2975 3731 2742 3939 
Q 2509 4147 2053 4147 
L 1259 4147 
z
" transform="scale(0.015625)"/>
      <path id="DejaVuSans-70" d="M 1159 525 
L 1159 -1331 
L 581 -1331 
L 581 3500 
L 1159 3500 
L 1159 2969 
Q 1341 3281 1617 3432 
Q 1894 3584 2278 3584 
Q 2916 3584 3314 3078 
Q 3713 2572 3713 1747 
Q 3713 922 3314 415 
Q 2916 -91 2278 -91 
Q 1894 -91 1617 61 
Q 1341 213 1159 525 
z
M 3116 1747 
Q 3116 2381 2855 2742 
Q 2594 3103 2138 3103 
Q 1681 3103 1420 2742 
Q 1159 2381 1159 1747 
Q 1159 1113 1420 752 
Q 1681 391 2138 391 
Q 2594 391 2855 752 
Q 3116 1113 3116 1747 
z
" transform="scale(0.015625)"/>
     </defs>
     <use xlink:href="#DejaVuSans-54"/>
     <use xlink:href="#DejaVuSans-34" x="61.083984"/>
     <use xlink:href="#DejaVuSans-5f" x="124.707031"/>
     <use xlink:href="#DejaVuSans-62" x="174.707031"/>
     <use xlink:href="#DejaVuSans-20" x="238.183594"/>
     <use xlink:href="#DejaVuSans-50" x="269.970703"/>
     <use xlink:href="#DejaVuSans-65" x="326.648438"/>
     <use xlink:href="#DejaVuSans-61" x="388.171875"/>
     <use xlink:href="#DejaVuSans-6b" x="449.451172"/>
     <use xlink:href="#DejaVuSans-20" x="507.361328"/>
     <use xlink:href="#DejaVuSans-56" x="539.148438"/>
     <use xlink:href="#DejaVuSans-65" x="599.806641"/>
     <use xlink:href="#DejaVuSans-6c" x="661.330078"/>
     <use xlink:href="#DejaVuSans-6f" x="689.113281"/>
     <use xlink:href="#DejaVuSans-63" x="750.294922"/>
     <use xlink:href="#DejaVuSans-69" x="805.275391"/>
     <use xlink:href="#DejaVuSans-74" x="833.058594"/>
     <use xlink:href="#DejaVuSans-79" x="872.267578"/>
     <use xlink:href="#DejaVuSans-20" x="931.447266"/>
     <use xlink:href="#DejaVuSans-52" x="963.234375"/>
     <use xlink:href="#DejaVuSans-65" x="1028.216797"/>
     <use xlink:href="#DejaVuSans-73" x="1089.740234"/>
     <use xlink:href="#DejaVuSans-70" x="1141.839844"/>
     <use xlink:href="#DejaVuSans-6f" x="1205.316406"/>
     <use xlink:href="#DejaVuSans-6e" x="1266.498047"/>
     <use xlink:href="#DejaVuSans-73" x="1329.876953"/>
     <use xlink:href="#DejaVuSans-65" x="1381.976562"/>
    </g>
   </g>
   <g id="legend_1">
    <g id="patch_5">
     <path d="M 346.769219 227.877313 
L 407.02 227.877313 
Q 409.22 227.877313 409.22 225.677313 
L 409.22 49.172 
Q 409.22 46.972 407.02 46.972 
L 346.769219 46.972 
Q 344.569219 46.972 344.569219 49.172 
L 344.569219 225.677313 
Q 344.569219 227.877313 346.769219 227.877313 
z
" style="fill: #eaeaf2; opacity: 0.8; stroke: #cccccc; stroke-linejoin: miter"/>
    </g>
    <g id="line2d_18">
     <path d="M 348.969219 55.880281 
L 359.969219 55.880281 
L 370.969219 55.880281 
" style="fill: none; stroke: #332288; stroke-width: 3; stroke-linecap: round"/>
    </g>
    <g id="text_11">
     <!-- 0 -->
     <g style="fill: #262626" transform="translate(379.769219 59.730281) scale(0.11 -0.11)">
      <use xlink:href="#DejaVuSans-30"/>
     </g>
    </g>
    <g id="line2d_19">
     <path d="M 348.969219 72.026219 
L 359.969219 72.026219 
L 370.969219 72.026219 
" style="fill: none; stroke-dasharray: 1.5,2.475; stroke-dashoffset: 0; stroke: #392698; stroke-width: 1.5"/>
    </g>
    <g id="text_12">
     <!-- 1 -->
     <g style="fill: #262626" transform="translate(379.769219 75.876219) scale(0.11 -0.11)">
      <use xlink:href="#DejaVuSans-31"/>
     </g>
    </g>
    <g id="line2d_20">
     <path d="M 348.969219 88.172156 
L 359.969219 88.172156 
L 370.969219 88.172156 
" style="fill: none; stroke-dasharray: 1.5,2.475; stroke-dashoffset: 0; stroke: #402aaa; stroke-width: 1.5"/>
    </g>
    <g id="text_13">
     <!-- 2 -->
     <g style="fill: #262626" transform="translate(379.769219 92.022156) scale(0.11 -0.11)">
      <use xlink:href="#DejaVuSans-32"/>
     </g>
    </g>
    <g id="line2d_21">
     <path d="M 348.969219 104.318094 
L 359.969219 104.318094 
L 370.969219 104.318094 
" style="fill: none; stroke-dasharray: 1.5,2.475; stroke-dashoffset: 0; stroke: #472fbd; stroke-width: 1.5"/>
    </g>
    <g id="text_14">
     <!-- 3 -->
     <g style="fill: #262626" transform="translate(379.769219 108.168094) scale(0.11 -0.11)">
      <defs>
       <path id="DejaVuSans-33" d="M 2597 2516 
Q 3050 2419 3304 2112 
Q 3559 1806 3559 1356 
Q 3559 666 3084 287 
Q 2609 -91 1734 -91 
Q 1441 -91 1130 -33 
Q 819 25 488 141 
L 488 750 
Q 750 597 1062 519 
Q 1375 441 1716 441 
Q 2309 441 2620 675 
Q 2931 909 2931 1356 
Q 2931 1769 2642 2001 
Q 2353 2234 1838 2234 
L 1294 2234 
L 1294 2753 
L 1863 2753 
Q 2328 2753 2575 2939 
Q 2822 3125 2822 3475 
Q 2822 3834 2567 4026 
Q 2313 4219 1838 4219 
Q 1578 4219 1281 4162 
Q 984 4106 628 3988 
L 628 4550 
Q 988 4650 1302 4700 
Q 1616 4750 1894 4750 
Q 2613 4750 3031 4423 
Q 3450 4097 3450 3541 
Q 3450 3153 3228 2886 
Q 3006 2619 2597 2516 
z
" transform="scale(0.015625)"/>
      </defs>
      <use xlink:href="#DejaVuSans-33"/>
     </g>
    </g>
    <g id="line2d_22">
     <path d="M 348.969219 120.464031 
L 359.969219 120.464031 
L 370.969219 120.464031 
" style="fill: none; stroke-dasharray: 1.5,2.475; stroke-dashoffset: 0; stroke: #533ace; stroke-width: 1.5"/>
    </g>
    <g id="text_15">
     <!-- 4 -->
     <g style="fill: #262626" transform="translate(379.769219 124.314031) scale(0.11 -0.11)">
      <use xlink:href="#DejaVuSans-34"/>
     </g>
    </g>
    <g id="line2d_23">
     <path d="M 348.969219 136.609969 
L 359.969219 136.609969 
L 370.969219 136.609969 
" style="fill: none; stroke-dasharray: 1.5,2.475; stroke-dashoffset: 0; stroke: #6953d4; stroke-width: 1.5"/>
    </g>
    <g id="text_16">
     <!-- 5 -->
     <g style="fill: #262626" transform="translate(379.769219 140.459969) scale(0.11 -0.11)">
      <defs>
       <path id="DejaVuSans-35" d="M 691 4666 
L 3169 4666 
L 3169 4134 
L 1269 4134 
L 1269 2991 
Q 1406 3038 1543 3061 
Q 1681 3084 1819 3084 
Q 2600 3084 3056 2656 
Q 3513 2228 3513 1497 
Q 3513 744 3044 326 
Q 2575 -91 1722 -91 
Q 1428 -91 1123 -41 
Q 819 9 494 109 
L 494 744 
Q 775 591 1075 516 
Q 1375 441 1709 441 
Q 2250 441 2565 725 
Q 2881 1009 2881 1497 
Q 2881 1984 2565 2268 
Q 2250 2553 1709 2553 
Q 1456 2553 1204 2497 
Q 953 2441 691 2322 
L 691 4666 
z
" transform="scale(0.015625)"/>
      </defs>
      <use xlink:href="#DejaVuSans-35"/>
     </g>
    </g>
    <g id="line2d_24">
     <path d="M 348.969219 152.755906 
L 359.969219 152.755906 
L 370.969219 152.755906 
" style="fill: none; stroke-dasharray: 1.5,2.475; stroke-dashoffset: 0; stroke: #816fdb; stroke-width: 1.5"/>
    </g>
    <g id="text_17">
     <!-- 6 -->
     <g style="fill: #262626" transform="translate(379.769219 156.605906) scale(0.11 -0.11)">
      <use xlink:href="#DejaVuSans-36"/>
     </g>
    </g>
    <g id="line2d_25">
     <path d="M 348.969219 168.901844 
L 359.969219 168.901844 
L 370.969219 168.901844 
" style="fill: none; stroke-dasharray: 1.5,2.475; stroke-dashoffset: 0; stroke: #9c8de3; stroke-width: 1.5"/>
    </g>
    <g id="text_18">
     <!-- 7 -->
     <g style="fill: #262626" transform="translate(379.769219 172.751844) scale(0.11 -0.11)">
      <defs>
       <path id="DejaVuSans-37" d="M 525 4666 
L 3525 4666 
L 3525 4397 
L 1831 0 
L 1172 0 
L 2766 4134 
L 525 4134 
L 525 4666 
z
" transform="scale(0.015625)"/>
      </defs>
      <use xlink:href="#DejaVuSans-37"/>
     </g>
    </g>
    <g id="line2d_26">
     <path d="M 348.969219 185.047781 
L 359.969219 185.047781 
L 370.969219 185.047781 
" style="fill: none; stroke-dasharray: 1.5,2.475; stroke-dashoffset: 0; stroke: #bab0eb; stroke-width: 1.5"/>
    </g>
    <g id="text_19">
     <!-- 8 -->
     <g style="fill: #262626" transform="translate(379.769219 188.897781) scale(0.11 -0.11)">
      <use xlink:href="#DejaVuSans-38"/>
     </g>
    </g>
    <g id="line2d_27">
     <path d="M 348.969219 201.193719 
L 359.969219 201.193719 
L 370.969219 201.193719 
" style="fill: none; stroke-dasharray: 1.5,2.475; stroke-dashoffset: 0; stroke: #dbd6f5; stroke-width: 1.5"/>
    </g>
    <g id="text_20">
     <!-- 9 -->
     <g style="fill: #262626" transform="translate(379.769219 205.043719) scale(0.11 -0.11)">
      <defs>
       <path id="DejaVuSans-39" d="M 703 97 
L 703 672 
Q 941 559 1184 500 
Q 1428 441 1663 441 
Q 2288 441 2617 861 
Q 2947 1281 2994 2138 
Q 2813 1869 2534 1725 
Q 2256 1581 1919 1581 
Q 1219 1581 811 2004 
Q 403 2428 403 3163 
Q 403 3881 828 4315 
Q 1253 4750 1959 4750 
Q 2769 4750 3195 4129 
Q 3622 3509 3622 2328 
Q 3622 1225 3098 567 
Q 2575 -91 1691 -91 
Q 1453 -91 1209 -44 
Q 966 3 703 97 
z
M 1959 2075 
Q 2384 2075 2632 2365 
Q 2881 2656 2881 3163 
Q 2881 3666 2632 3958 
Q 2384 4250 1959 4250 
Q 1534 4250 1286 3958 
Q 1038 3666 1038 3163 
Q 1038 2656 1286 2365 
Q 1534 2075 1959 2075 
z
" transform="scale(0.015625)"/>
      </defs>
      <use xlink:href="#DejaVuSans-39"/>
     </g>
    </g>
    <g id="line2d_28">
     <path d="M 348.969219 217.339656 
L 359.969219 217.339656 
L 370.969219 217.339656 
" style="fill: none; stroke-dasharray: 5.55,2.4; stroke-dashoffset: 0; stroke: #000000; stroke-width: 1.5"/>
    </g>
    <g id="text_21">
     <!-- Goal -->
     <g style="fill: #262626" transform="translate(379.769219 221.189656) scale(0.11 -0.11)">
      <defs>
       <path id="DejaVuSans-47" d="M 3809 666 
L 3809 1919 
L 2778 1919 
L 2778 2438 
L 4434 2438 
L 4434 434 
Q 4069 175 3628 42 
Q 3188 -91 2688 -91 
Q 1594 -91 976 548 
Q 359 1188 359 2328 
Q 359 3472 976 4111 
Q 1594 4750 2688 4750 
Q 3144 4750 3555 4637 
Q 3966 4525 4313 4306 
L 4313 3634 
Q 3963 3931 3569 4081 
Q 3175 4231 2741 4231 
Q 1884 4231 1454 3753 
Q 1025 3275 1025 2328 
Q 1025 1384 1454 906 
Q 1884 428 2741 428 
Q 3075 428 3337 486 
Q 3600 544 3809 666 
z
" transform="scale(0.015625)"/>
      </defs>
      <use xlink:href="#DejaVuSans-47"/>
      <use xlink:href="#DejaVuSans-6f" x="77.490234"/>
      <use xlink:href="#DejaVuSans-61" x="138.671875"/>
      <use xlink:href="#DejaVuSans-6c" x="199.951172"/>
     </g>
    </g>
   </g>
   <g id="line2d_29">
    <path d="M 73.832727 55.309836 
L 107.286315 55.316712 
L 133.029105 55.402598 
L 153.958159 55.818708 
L 171.593254 57.002268 
L 186.831619 59.420666 
L 200.247454 63.379106 
L 212.230511 68.920339 
L 223.05751 75.875188 
L 232.932015 83.947752 
L 242.008147 92.645706 
L 250.405405 101.57825 
L 258.218316 110.571196 
L 265.522943 119.241218 
L 272.3814 127.43762 
L 278.845068 134.946711 
L 284.956934 141.472611 
L 290.753325 147.631559 
L 296.265215 154.247769 
L 301.519232 161.732191 
L 306.53843 169.585642 
L 311.342903 177.550448 
L 315.950273 185.797107 
L 320.376076 194.665088 
L 324.634082 203.049583 
L 328.736551 211.396021 
L 332.694446 218.72467 
L 336.517612 225.055826 
L 340.21492 231.185672 
L 343.794392 236.36532 
L 347.263309 241.359109 
L 350.628296 245.820132 
L 353.895399 249.78132 
L 357.070152 253.58788 
L 360.157633 256.938912 
L 363.162513 259.86932 
L 366.089095 262.688818 
L 368.941357 265.131596 
L 371.722981 267.484989 
L 374.43738 269.502394 
L 377.087728 271.450354 
L 379.676977 273.329675 
L 382.207882 274.918511 
L 384.683014 276.456227 
L 387.104778 277.943602 
L 389.475428 279.381215 
L 391.797075 280.574642 
L 394.071705 281.73298 
L 396.301185 282.671904 
L 398.487273 283.767539 
" clip-path="url(#pdc36f8ff6e)" style="fill: none; stroke: #332288; stroke-width: 3; stroke-linecap: round"/>
   </g>
  </g>
 </g>
 <defs>
  <clipPath id="pdc36f8ff6e">
   <rect x="57.6" y="41.472" width="357.12" height="266.112"/>
  </clipPath>
 </defs>
</svg>
