<?xml version="1.0" encoding="utf-8" standalone="no"?>
<!DOCTYPE svg PUBLIC "-//W3C//DTD SVG 1.1//EN"
  "http://www.w3.org/Graphics/SVG/1.1/DTD/svg11.dtd">
<svg xmlns:xlink="http://www.w3.org/1999/xlink" width="460.8pt" height="345.6pt" viewBox="0 0 460.8 345.6" xmlns="http://www.w3.org/2000/svg" version="1.1">
 <metadata>
  <rdf:RDF xmlns:dc="http://purl.org/dc/elements/1.1/" xmlns:cc="http://creativecommons.org/ns#" xmlns:rdf="http://www.w3.org/1999/02/22-rdf-syntax-ns#">
   <cc:Work>
    <dc:type rdf:resource="http://purl.org/dc/dcmitype/StillImage"/>
    <dc:date>2023-03-26T14:52:15.637729</dc:date>
    <dc:format>image/svg+xml</dc:format>
    <dc:creator>
     <cc:Agent>
      <dc:title>Matplotlib v3.7.1, https://matplotlib.org/</dc:title>
     </cc:Agent>
    </dc:creator>
   </cc:Work>
  </rdf:RDF>
 </metadata>
 <defs>
  <style type="text/css">*{stroke-linejoin: round; stroke-linecap: butt}</style>
 </defs>
 <g id="figure_1">
  <g id="patch_1">
   <path d="M 0 345.6 
L 460.8 345.6 
L 460.8 0 
L 0 0 
z
" style="fill: #ffffff"/>
  </g>
  <g id="axes_1">
   <g id="patch_2">
    <path d="M 57.6 307.584 
L 414.72 307.584 
L 414.72 41.472 
L 57.6 41.472 
z
" style="fill: #eaeaf2"/>
   </g>
   <g id="matplotlib.axis_1">
    <g id="xtick_1">
     <g id="line2d_1">
      <path d="M 73.832727 307.584 
L 73.832727 41.472 
" clip-path="url(#pd005d5600a)" style="fill: none; stroke: #ffffff; stroke-linecap: round"/>
     </g>
     <g id="text_1">
      <!-- $\mathdefault{10^{1}}$ -->
      <g style="fill: #262626" transform="translate(64.152727 325.442281) scale(0.11 -0.11)">
       <defs>
        <path id="DejaVuSans-31" d="M 794 531 
L 1825 531 
L 1825 4091 
L 703 3866 
L 703 4441 
L 1819 4666 
L 2450 4666 
L 2450 531 
L 3481 531 
L 3481 0 
L 794 0 
L 794 531 
z
" transform="scale(0.015625)"/>
        <path id="DejaVuSans-30" d="M 2034 4250 
Q 1547 4250 1301 3770 
Q 1056 3291 1056 2328 
Q 1056 1369 1301 889 
Q 1547 409 2034 409 
Q 2525 409 2770 889 
Q 3016 1369 3016 2328 
Q 3016 3291 2770 3770 
Q 2525 4250 2034 4250 
z
M 2034 4750 
Q 2819 4750 3233 4129 
Q 3647 3509 3647 2328 
Q 3647 1150 3233 529 
Q 2819 -91 2034 -91 
Q 1250 -91 836 529 
Q 422 1150 422 2328 
Q 422 3509 836 4129 
Q 1250 4750 2034 4750 
z
" transform="scale(0.015625)"/>
       </defs>
       <use xlink:href="#DejaVuSans-31" transform="translate(0 0.684375)"/>
       <use xlink:href="#DejaVuSans-30" transform="translate(63.623047 0.684375)"/>
       <use xlink:href="#DejaVuSans-31" transform="translate(128.203125 38.965625) scale(0.7)"/>
      </g>
     </g>
    </g>
    <g id="xtick_2">
     <g id="line2d_2">
      <path d="M 332.46545 307.584 
L 332.46545 41.472 
" clip-path="url(#pd005d5600a)" style="fill: none; stroke: #ffffff; stroke-linecap: round"/>
     </g>
     <g id="text_2">
      <!-- $\mathdefault{10^{2}}$ -->
      <g style="fill: #262626" transform="translate(322.78545 325.442281) scale(0.11 -0.11)">
       <defs>
        <path id="DejaVuSans-32" d="M 1228 531 
L 3431 531 
L 3431 0 
L 469 0 
L 469 531 
Q 828 903 1448 1529 
Q 2069 2156 2228 2338 
Q 2531 2678 2651 2914 
Q 2772 3150 2772 3378 
Q 2772 3750 2511 3984 
Q 2250 4219 1831 4219 
Q 1534 4219 1204 4116 
Q 875 4013 500 3803 
L 500 4441 
Q 881 4594 1212 4672 
Q 1544 4750 1819 4750 
Q 2544 4750 2975 4387 
Q 3406 4025 3406 3419 
Q 3406 3131 3298 2873 
Q 3191 2616 2906 2266 
Q 2828 2175 2409 1742 
Q 1991 1309 1228 531 
z
" transform="scale(0.015625)"/>
       </defs>
       <use xlink:href="#DejaVuSans-31" transform="translate(0 0.765625)"/>
       <use xlink:href="#DejaVuSans-30" transform="translate(63.623047 0.765625)"/>
       <use xlink:href="#DejaVuSans-32" transform="translate(128.203125 39.046875) scale(0.7)"/>
      </g>
     </g>
    </g>
    <g id="xtick_3"/>
    <g id="xtick_4"/>
    <g id="xtick_5"/>
    <g id="xtick_6"/>
    <g id="xtick_7"/>
    <g id="xtick_8"/>
    <g id="xtick_9"/>
    <g id="xtick_10"/>
    <g id="xtick_11"/>
    <g id="xtick_12"/>
    <g id="text_3">
     <!-- Edge Velocity (deg/s) -->
     <g style="fill: #262626" transform="translate(172.5675 340.848062) scale(0.12 -0.12)">
      <defs>
       <path id="DejaVuSans-45" d="M 628 4666 
L 3578 4666 
L 3578 4134 
L 1259 4134 
L 1259 2753 
L 3481 2753 
L 3481 2222 
L 1259 2222 
L 1259 531 
L 3634 531 
L 3634 0 
L 628 0 
L 628 4666 
z
" transform="scale(0.015625)"/>
       <path id="DejaVuSans-64" d="M 2906 2969 
L 2906 4863 
L 3481 4863 
L 3481 0 
L 2906 0 
L 2906 525 
Q 2725 213 2448 61 
Q 2172 -91 1784 -91 
Q 1150 -91 751 415 
Q 353 922 353 1747 
Q 353 2572 751 3078 
Q 1150 3584 1784 3584 
Q 2172 3584 2448 3432 
Q 2725 3281 2906 2969 
z
M 947 1747 
Q 947 1113 1208 752 
Q 1469 391 1925 391 
Q 2381 391 2643 752 
Q 2906 1113 2906 1747 
Q 2906 2381 2643 2742 
Q 2381 3103 1925 3103 
Q 1469 3103 1208 2742 
Q 947 2381 947 1747 
z
" transform="scale(0.015625)"/>
       <path id="DejaVuSans-67" d="M 2906 1791 
Q 2906 2416 2648 2759 
Q 2391 3103 1925 3103 
Q 1463 3103 1205 2759 
Q 947 2416 947 1791 
Q 947 1169 1205 825 
Q 1463 481 1925 481 
Q 2391 481 2648 825 
Q 2906 1169 2906 1791 
z
M 3481 434 
Q 3481 -459 3084 -895 
Q 2688 -1331 1869 -1331 
Q 1566 -1331 1297 -1286 
Q 1028 -1241 775 -1147 
L 775 -588 
Q 1028 -725 1275 -790 
Q 1522 -856 1778 -856 
Q 2344 -856 2625 -561 
Q 2906 -266 2906 331 
L 2906 616 
Q 2728 306 2450 153 
Q 2172 0 1784 0 
Q 1141 0 747 490 
Q 353 981 353 1791 
Q 353 2603 747 3093 
Q 1141 3584 1784 3584 
Q 2172 3584 2450 3431 
Q 2728 3278 2906 2969 
L 2906 3500 
L 3481 3500 
L 3481 434 
z
" transform="scale(0.015625)"/>
       <path id="DejaVuSans-65" d="M 3597 1894 
L 3597 1613 
L 953 1613 
Q 991 1019 1311 708 
Q 1631 397 2203 397 
Q 2534 397 2845 478 
Q 3156 559 3463 722 
L 3463 178 
Q 3153 47 2828 -22 
Q 2503 -91 2169 -91 
Q 1331 -91 842 396 
Q 353 884 353 1716 
Q 353 2575 817 3079 
Q 1281 3584 2069 3584 
Q 2775 3584 3186 3129 
Q 3597 2675 3597 1894 
z
M 3022 2063 
Q 3016 2534 2758 2815 
Q 2500 3097 2075 3097 
Q 1594 3097 1305 2825 
Q 1016 2553 972 2059 
L 3022 2063 
z
" transform="scale(0.015625)"/>
       <path id="DejaVuSans-20" transform="scale(0.015625)"/>
       <path id="DejaVuSans-56" d="M 1831 0 
L 50 4666 
L 709 4666 
L 2188 738 
L 3669 4666 
L 4325 4666 
L 2547 0 
L 1831 0 
z
" transform="scale(0.015625)"/>
       <path id="DejaVuSans-6c" d="M 603 4863 
L 1178 4863 
L 1178 0 
L 603 0 
L 603 4863 
z
" transform="scale(0.015625)"/>
       <path id="DejaVuSans-6f" d="M 1959 3097 
Q 1497 3097 1228 2736 
Q 959 2375 959 1747 
Q 959 1119 1226 758 
Q 1494 397 1959 397 
Q 2419 397 2687 759 
Q 2956 1122 2956 1747 
Q 2956 2369 2687 2733 
Q 2419 3097 1959 3097 
z
M 1959 3584 
Q 2709 3584 3137 3096 
Q 3566 2609 3566 1747 
Q 3566 888 3137 398 
Q 2709 -91 1959 -91 
Q 1206 -91 779 398 
Q 353 888 353 1747 
Q 353 2609 779 3096 
Q 1206 3584 1959 3584 
z
" transform="scale(0.015625)"/>
       <path id="DejaVuSans-63" d="M 3122 3366 
L 3122 2828 
Q 2878 2963 2633 3030 
Q 2388 3097 2138 3097 
Q 1578 3097 1268 2742 
Q 959 2388 959 1747 
Q 959 1106 1268 751 
Q 1578 397 2138 397 
Q 2388 397 2633 464 
Q 2878 531 3122 666 
L 3122 134 
Q 2881 22 2623 -34 
Q 2366 -91 2075 -91 
Q 1284 -91 818 406 
Q 353 903 353 1747 
Q 353 2603 823 3093 
Q 1294 3584 2113 3584 
Q 2378 3584 2631 3529 
Q 2884 3475 3122 3366 
z
" transform="scale(0.015625)"/>
       <path id="DejaVuSans-69" d="M 603 3500 
L 1178 3500 
L 1178 0 
L 603 0 
L 603 3500 
z
M 603 4863 
L 1178 4863 
L 1178 4134 
L 603 4134 
L 603 4863 
z
" transform="scale(0.015625)"/>
       <path id="DejaVuSans-74" d="M 1172 4494 
L 1172 3500 
L 2356 3500 
L 2356 3053 
L 1172 3053 
L 1172 1153 
Q 1172 725 1289 603 
Q 1406 481 1766 481 
L 2356 481 
L 2356 0 
L 1766 0 
Q 1100 0 847 248 
Q 594 497 594 1153 
L 594 3053 
L 172 3053 
L 172 3500 
L 594 3500 
L 594 4494 
L 1172 4494 
z
" transform="scale(0.015625)"/>
       <path id="DejaVuSans-79" d="M 2059 -325 
Q 1816 -950 1584 -1140 
Q 1353 -1331 966 -1331 
L 506 -1331 
L 506 -850 
L 844 -850 
Q 1081 -850 1212 -737 
Q 1344 -625 1503 -206 
L 1606 56 
L 191 3500 
L 800 3500 
L 1894 763 
L 2988 3500 
L 3597 3500 
L 2059 -325 
z
" transform="scale(0.015625)"/>
       <path id="DejaVuSans-28" d="M 1984 4856 
Q 1566 4138 1362 3434 
Q 1159 2731 1159 2009 
Q 1159 1288 1364 580 
Q 1569 -128 1984 -844 
L 1484 -844 
Q 1016 -109 783 600 
Q 550 1309 550 2009 
Q 550 2706 781 3412 
Q 1013 4119 1484 4856 
L 1984 4856 
z
" transform="scale(0.015625)"/>
       <path id="DejaVuSans-2f" d="M 1625 4666 
L 2156 4666 
L 531 -594 
L 0 -594 
L 1625 4666 
z
" transform="scale(0.015625)"/>
       <path id="DejaVuSans-73" d="M 2834 3397 
L 2834 2853 
Q 2591 2978 2328 3040 
Q 2066 3103 1784 3103 
Q 1356 3103 1142 2972 
Q 928 2841 928 2578 
Q 928 2378 1081 2264 
Q 1234 2150 1697 2047 
L 1894 2003 
Q 2506 1872 2764 1633 
Q 3022 1394 3022 966 
Q 3022 478 2636 193 
Q 2250 -91 1575 -91 
Q 1294 -91 989 -36 
Q 684 19 347 128 
L 347 722 
Q 666 556 975 473 
Q 1284 391 1588 391 
Q 1994 391 2212 530 
Q 2431 669 2431 922 
Q 2431 1156 2273 1281 
Q 2116 1406 1581 1522 
L 1381 1569 
Q 847 1681 609 1914 
Q 372 2147 372 2553 
Q 372 3047 722 3315 
Q 1072 3584 1716 3584 
Q 2034 3584 2315 3537 
Q 2597 3491 2834 3397 
z
" transform="scale(0.015625)"/>
       <path id="DejaVuSans-29" d="M 513 4856 
L 1013 4856 
Q 1481 4119 1714 3412 
Q 1947 2706 1947 2009 
Q 1947 1309 1714 600 
Q 1481 -109 1013 -844 
L 513 -844 
Q 928 -128 1133 580 
Q 1338 1288 1338 2009 
Q 1338 2731 1133 3434 
Q 928 4138 513 4856 
z
" transform="scale(0.015625)"/>
      </defs>
      <use xlink:href="#DejaVuSans-45"/>
      <use xlink:href="#DejaVuSans-64" x="63.183594"/>
      <use xlink:href="#DejaVuSans-67" x="126.660156"/>
      <use xlink:href="#DejaVuSans-65" x="190.136719"/>
      <use xlink:href="#DejaVuSans-20" x="251.660156"/>
      <use xlink:href="#DejaVuSans-56" x="283.447266"/>
      <use xlink:href="#DejaVuSans-65" x="344.105469"/>
      <use xlink:href="#DejaVuSans-6c" x="405.628906"/>
      <use xlink:href="#DejaVuSans-6f" x="433.412109"/>
      <use xlink:href="#DejaVuSans-63" x="494.59375"/>
      <use xlink:href="#DejaVuSans-69" x="549.574219"/>
      <use xlink:href="#DejaVuSans-74" x="577.357422"/>
      <use xlink:href="#DejaVuSans-79" x="616.566406"/>
      <use xlink:href="#DejaVuSans-20" x="675.746094"/>
      <use xlink:href="#DejaVuSans-28" x="707.533203"/>
      <use xlink:href="#DejaVuSans-64" x="746.546875"/>
      <use xlink:href="#DejaVuSans-65" x="810.023438"/>
      <use xlink:href="#DejaVuSans-67" x="871.546875"/>
      <use xlink:href="#DejaVuSans-2f" x="935.023438"/>
      <use xlink:href="#DejaVuSans-73" x="968.714844"/>
      <use xlink:href="#DejaVuSans-29" x="1020.814453"/>
     </g>
    </g>
   </g>
   <g id="matplotlib.axis_2">
    <g id="ytick_1">
     <g id="line2d_3">
      <path d="M 57.6 262.308389 
L 414.72 262.308389 
" clip-path="url(#pd005d5600a)" style="fill: none; stroke: #ffffff; stroke-linecap: round"/>
     </g>
     <g id="text_4">
      <!-- 10 -->
      <g style="fill: #262626" transform="translate(34.1025 266.48753) scale(0.11 -0.11)">
       <use xlink:href="#DejaVuSans-31"/>
       <use xlink:href="#DejaVuSans-30" x="63.623047"/>
      </g>
     </g>
    </g>
    <g id="ytick_2">
     <g id="line2d_4">
      <path d="M 57.6 211.617876 
L 414.72 211.617876 
" clip-path="url(#pd005d5600a)" style="fill: none; stroke: #ffffff; stroke-linecap: round"/>
     </g>
     <g id="text_5">
      <!-- 20 -->
      <g style="fill: #262626" transform="translate(34.1025 215.797016) scale(0.11 -0.11)">
       <use xlink:href="#DejaVuSans-32"/>
       <use xlink:href="#DejaVuSans-30" x="63.623047"/>
      </g>
     </g>
    </g>
    <g id="ytick_3">
     <g id="line2d_5">
      <path d="M 57.6 160.927362 
L 414.72 160.927362 
" clip-path="url(#pd005d5600a)" style="fill: none; stroke: #ffffff; stroke-linecap: round"/>
     </g>
     <g id="text_6">
      <!-- 30 -->
      <g style="fill: #262626" transform="translate(34.1025 165.106503) scale(0.11 -0.11)">
       <defs>
        <path id="DejaVuSans-33" d="M 2597 2516 
Q 3050 2419 3304 2112 
Q 3559 1806 3559 1356 
Q 3559 666 3084 287 
Q 2609 -91 1734 -91 
Q 1441 -91 1130 -33 
Q 819 25 488 141 
L 488 750 
Q 750 597 1062 519 
Q 1375 441 1716 441 
Q 2309 441 2620 675 
Q 2931 909 2931 1356 
Q 2931 1769 2642 2001 
Q 2353 2234 1838 2234 
L 1294 2234 
L 1294 2753 
L 1863 2753 
Q 2328 2753 2575 2939 
Q 2822 3125 2822 3475 
Q 2822 3834 2567 4026 
Q 2313 4219 1838 4219 
Q 1578 4219 1281 4162 
Q 984 4106 628 3988 
L 628 4550 
Q 988 4650 1302 4700 
Q 1616 4750 1894 4750 
Q 2613 4750 3031 4423 
Q 3450 4097 3450 3541 
Q 3450 3153 3228 2886 
Q 3006 2619 2597 2516 
z
" transform="scale(0.015625)"/>
       </defs>
       <use xlink:href="#DejaVuSans-33"/>
       <use xlink:href="#DejaVuSans-30" x="63.623047"/>
      </g>
     </g>
    </g>
    <g id="ytick_4">
     <g id="line2d_6">
      <path d="M 57.6 110.236849 
L 414.72 110.236849 
" clip-path="url(#pd005d5600a)" style="fill: none; stroke: #ffffff; stroke-linecap: round"/>
     </g>
     <g id="text_7">
      <!-- 40 -->
      <g style="fill: #262626" transform="translate(34.1025 114.41599) scale(0.11 -0.11)">
       <defs>
        <path id="DejaVuSans-34" d="M 2419 4116 
L 825 1625 
L 2419 1625 
L 2419 4116 
z
M 2253 4666 
L 3047 4666 
L 3047 1625 
L 3713 1625 
L 3713 1100 
L 3047 1100 
L 3047 0 
L 2419 0 
L 2419 1100 
L 313 1100 
L 313 1709 
L 2253 4666 
z
" transform="scale(0.015625)"/>
       </defs>
       <use xlink:href="#DejaVuSans-34"/>
       <use xlink:href="#DejaVuSans-30" x="63.623047"/>
      </g>
     </g>
    </g>
    <g id="ytick_5">
     <g id="line2d_7">
      <path d="M 57.6 59.546336 
L 414.72 59.546336 
" clip-path="url(#pd005d5600a)" style="fill: none; stroke: #ffffff; stroke-linecap: round"/>
     </g>
     <g id="text_8">
      <!-- 50 -->
      <g style="fill: #262626" transform="translate(34.1025 63.725476) scale(0.11 -0.11)">
       <defs>
        <path id="DejaVuSans-35" d="M 691 4666 
L 3169 4666 
L 3169 4134 
L 1269 4134 
L 1269 2991 
Q 1406 3038 1543 3061 
Q 1681 3084 1819 3084 
Q 2600 3084 3056 2656 
Q 3513 2228 3513 1497 
Q 3513 744 3044 326 
Q 2575 -91 1722 -91 
Q 1428 -91 1123 -41 
Q 819 9 494 109 
L 494 744 
Q 775 591 1075 516 
Q 1375 441 1709 441 
Q 2250 441 2565 725 
Q 2881 1009 2881 1497 
Q 2881 1984 2565 2268 
Q 2250 2553 1709 2553 
Q 1456 2553 1204 2497 
Q 953 2441 691 2322 
L 691 4666 
z
" transform="scale(0.015625)"/>
       </defs>
       <use xlink:href="#DejaVuSans-35"/>
       <use xlink:href="#DejaVuSans-30" x="63.623047"/>
      </g>
     </g>
    </g>
    <g id="text_9">
     <!-- T4_b / T4_a -->
     <g style="fill: #262626" transform="translate(27.273125 208.813312) rotate(-90) scale(0.12 -0.12)">
      <defs>
       <path id="DejaVuSans-54" d="M -19 4666 
L 3928 4666 
L 3928 4134 
L 2272 4134 
L 2272 0 
L 1638 0 
L 1638 4134 
L -19 4134 
L -19 4666 
z
" transform="scale(0.015625)"/>
       <path id="DejaVuSans-5f" d="M 3263 -1063 
L 3263 -1509 
L -63 -1509 
L -63 -1063 
L 3263 -1063 
z
" transform="scale(0.015625)"/>
       <path id="DejaVuSans-62" d="M 3116 1747 
Q 3116 2381 2855 2742 
Q 2594 3103 2138 3103 
Q 1681 3103 1420 2742 
Q 1159 2381 1159 1747 
Q 1159 1113 1420 752 
Q 1681 391 2138 391 
Q 2594 391 2855 752 
Q 3116 1113 3116 1747 
z
M 1159 2969 
Q 1341 3281 1617 3432 
Q 1894 3584 2278 3584 
Q 2916 3584 3314 3078 
Q 3713 2572 3713 1747 
Q 3713 922 3314 415 
Q 2916 -91 2278 -91 
Q 1894 -91 1617 61 
Q 1341 213 1159 525 
L 1159 0 
L 581 0 
L 581 4863 
L 1159 4863 
L 1159 2969 
z
" transform="scale(0.015625)"/>
       <path id="DejaVuSans-61" d="M 2194 1759 
Q 1497 1759 1228 1600 
Q 959 1441 959 1056 
Q 959 750 1161 570 
Q 1363 391 1709 391 
Q 2188 391 2477 730 
Q 2766 1069 2766 1631 
L 2766 1759 
L 2194 1759 
z
M 3341 1997 
L 3341 0 
L 2766 0 
L 2766 531 
Q 2569 213 2275 61 
Q 1981 -91 1556 -91 
Q 1019 -91 701 211 
Q 384 513 384 1019 
Q 384 1609 779 1909 
Q 1175 2209 1959 2209 
L 2766 2209 
L 2766 2266 
Q 2766 2663 2505 2880 
Q 2244 3097 1772 3097 
Q 1472 3097 1187 3025 
Q 903 2953 641 2809 
L 641 3341 
Q 956 3463 1253 3523 
Q 1550 3584 1831 3584 
Q 2591 3584 2966 3190 
Q 3341 2797 3341 1997 
z
" transform="scale(0.015625)"/>
      </defs>
      <use xlink:href="#DejaVuSans-54"/>
      <use xlink:href="#DejaVuSans-34" x="61.083984"/>
      <use xlink:href="#DejaVuSans-5f" x="124.707031"/>
      <use xlink:href="#DejaVuSans-62" x="174.707031"/>
      <use xlink:href="#DejaVuSans-20" x="238.183594"/>
      <use xlink:href="#DejaVuSans-2f" x="269.970703"/>
      <use xlink:href="#DejaVuSans-20" x="303.662109"/>
      <use xlink:href="#DejaVuSans-54" x="335.449219"/>
      <use xlink:href="#DejaVuSans-34" x="396.533203"/>
      <use xlink:href="#DejaVuSans-5f" x="460.15625"/>
      <use xlink:href="#DejaVuSans-61" x="510.15625"/>
     </g>
    </g>
   </g>
   <g id="line2d_8">
    <path d="M 73.832727 105.756438 
L 107.286315 196.610187 
L 133.029105 227.644928 
L 153.958159 241.945842 
L 171.593254 249.822947 
L 186.831619 254.761204 
L 200.247454 257.317914 
L 212.230511 256.826706 
L 223.05751 254.519376 
L 232.932015 251.194881 
L 242.008147 247.424757 
L 250.405405 243.554501 
L 258.218316 239.72339 
L 265.522943 236.089083 
L 272.3814 232.655461 
L 278.845068 229.404468 
L 284.956934 226.742453 
L 290.753325 225.18944 
L 296.265215 224.901906 
L 301.519232 225.937895 
L 306.53843 228.303086 
L 311.342903 231.216947 
L 315.950273 234.296849 
L 320.376076 237.558169 
L 324.634082 240.604077 
L 328.736551 243.808896 
L 332.694446 246.800115 
L 336.517612 249.521981 
L 340.21492 252.283435 
L 343.794392 254.717364 
L 347.263309 257.154435 
L 350.628296 259.408511 
L 353.895399 261.470581 
L 357.070152 263.501744 
L 360.157633 265.320018 
L 363.162513 266.916889 
L 366.089095 268.429978 
L 368.941357 269.678538 
L 371.722981 270.754387 
L 374.43738 271.477621 
L 377.087728 271.841911 
L 379.676977 271.619181 
L 382.207882 271.162919 
L 384.683014 270.652313 
L 387.104778 270.080205 
L 389.475428 269.438374 
L 391.797075 268.825639 
L 394.071705 268.148138 
L 396.301185 267.528866 
L 398.487273 266.713556 
" clip-path="url(#pd005d5600a)" style="fill: none; stroke-dasharray: 1.5,2.475; stroke-dashoffset: 0; stroke: #392698; stroke-width: 1.5"/>
   </g>
   <g id="line2d_9">
    <path d="M 73.832727 115.083989 
L 107.286315 178.177922 
L 133.029105 216.499711 
L 153.958159 234.069171 
L 171.593254 243.759544 
L 186.831619 249.927118 
L 200.247454 253.170269 
L 212.230511 253.20484 
L 223.05751 251.473146 
L 232.932015 248.823253 
L 242.008147 245.823667 
L 250.405405 242.740159 
L 258.218316 239.75332 
L 265.522943 236.955253 
L 272.3814 234.35522 
L 278.845068 231.963685 
L 284.956934 230.094856 
L 290.753325 229.280785 
L 296.265215 229.507663 
L 301.519232 230.709551 
L 306.53843 232.850887 
L 311.342903 235.685089 
L 315.950273 238.817343 
L 320.376076 241.960517 
L 324.634082 245.025981 
L 328.736551 247.943632 
L 332.694446 250.755288 
L 336.517612 253.522283 
L 340.21492 256.027275 
L 343.794392 258.44294 
L 347.263309 260.658252 
L 350.628296 262.758478 
L 353.895399 264.639969 
L 357.070152 266.480966 
L 360.157633 268.087945 
L 363.162513 269.54446 
L 366.089095 270.917954 
L 368.941357 272.104415 
L 371.722981 273.08568 
L 374.43738 273.841095 
L 377.087728 274.348078 
L 379.676977 274.589483 
L 382.207882 274.444078 
L 384.683014 273.998851 
L 387.104778 273.445587 
L 389.475428 272.881728 
L 391.797075 272.316711 
L 394.071705 271.696596 
L 396.301185 271.087055 
L 398.487273 270.347852 
" clip-path="url(#pd005d5600a)" style="fill: none; stroke-dasharray: 1.5,2.475; stroke-dashoffset: 0; stroke: #402aaa; stroke-width: 1.5"/>
   </g>
   <g id="line2d_10">
    <path d="M 73.832727 53.568 
L 107.286315 94.084931 
L 133.029105 171.926028 
L 153.958159 205.310719 
L 171.593254 222.891827 
L 186.831619 233.506664 
L 200.247454 240.687553 
L 212.230511 244.898108 
L 223.05751 245.611359 
L 232.932015 244.266458 
L 242.008147 241.774392 
L 250.405405 238.71046 
L 258.218316 235.451445 
L 265.522943 232.231138 
L 272.3814 229.115963 
L 278.845068 226.177879 
L 284.956934 223.386441 
L 290.753325 220.706858 
L 296.265215 218.226855 
L 301.519232 216.655489 
L 306.53843 216.014111 
L 311.342903 216.22769 
L 315.950273 217.213133 
L 320.376076 218.838125 
L 324.634082 221.102602 
L 328.736551 223.971182 
L 332.694446 227.239207 
L 336.517612 230.748301 
L 340.21492 234.28709 
L 343.794392 237.638578 
L 347.263309 240.760624 
L 350.628296 243.767428 
L 353.895399 246.640431 
L 357.070152 249.365865 
L 360.157633 251.934042 
L 363.162513 254.338622 
L 366.089095 256.575926 
L 368.941357 258.644322 
L 371.722981 260.543715 
L 374.43738 262.406908 
L 377.087728 264.098139 
L 379.676977 265.744132 
L 382.207882 267.214635 
L 384.683014 268.512004 
L 387.104778 269.749386 
L 389.475428 270.911361 
L 391.797075 271.884795 
L 394.071705 272.67485 
L 396.301185 273.429429 
L 398.487273 273.963991 
" clip-path="url(#pd005d5600a)" style="fill: none; stroke-dasharray: 1.5,2.475; stroke-dashoffset: 0; stroke: #472fbd; stroke-width: 1.5"/>
   </g>
   <g id="line2d_11">
    <path d="M 73.832727 295.488 
L 107.286315 288.361809 
L 133.029105 278.477441 
L 153.958159 277.843526 
L 171.593254 276.295091 
L 186.831619 273.470662 
L 200.247454 269.175468 
L 212.230511 263.478232 
L 223.05751 256.619834 
L 232.932015 248.943 
L 242.008147 240.942894 
L 250.405405 233.152673 
L 258.218316 225.955543 
L 265.522943 219.764365 
L 272.3814 214.738141 
L 278.845068 210.99925 
L 284.956934 208.508241 
L 290.753325 207.082703 
L 296.265215 206.623907 
L 301.519232 206.931879 
L 306.53843 207.862732 
L 311.342903 209.245455 
L 315.950273 210.963152 
L 320.376076 212.890754 
L 324.634082 214.988418 
L 328.736551 217.180997 
L 332.694446 219.401232 
L 336.517612 221.59364 
L 340.21492 223.81229 
L 343.794392 225.934077 
L 347.263309 228.043936 
L 350.628296 229.999513 
L 353.895399 231.999206 
L 357.070152 233.923418 
L 360.157633 235.646448 
L 363.162513 237.390152 
L 366.089095 239.034146 
L 368.941357 240.692223 
L 371.722981 242.123398 
L 374.43738 243.683122 
L 377.087728 245.009731 
L 379.676977 246.342095 
L 382.207882 247.679831 
L 384.683014 248.900378 
L 387.104778 250.124996 
L 389.475428 251.230297 
L 391.797075 252.338524 
L 394.071705 253.326347 
L 396.301185 254.440818 
L 398.487273 255.310043 
" clip-path="url(#pd005d5600a)" style="fill: none; stroke-dasharray: 1.5,2.475; stroke-dashoffset: 0; stroke: #533ace; stroke-width: 1.5"/>
   </g>
   <g id="line2d_12">
    <path d="M 73.832727 278.681867 
L 107.286315 278.662117 
L 133.029105 278.48818 
L 153.958159 277.822358 
L 171.593254 276.219659 
L 186.831619 273.326228 
L 200.247454 268.995321 
L 212.230511 263.291891 
L 223.05751 256.436127 
L 232.932015 248.837811 
L 242.008147 241.008793 
L 250.405405 233.408912 
L 258.218316 226.464404 
L 265.522943 220.562709 
L 272.3814 215.832763 
L 278.845068 212.363856 
L 284.956934 210.030089 
L 290.753325 208.792566 
L 296.265215 208.450301 
L 301.519232 208.848892 
L 306.53843 209.800148 
L 311.342903 211.226459 
L 315.950273 212.924586 
L 320.376076 214.870136 
L 324.634082 216.906055 
L 328.736551 219.016322 
L 332.694446 221.227536 
L 336.517612 223.316382 
L 340.21492 225.421049 
L 343.794392 227.52341 
L 347.263309 229.507795 
L 350.628296 231.55296 
L 353.895399 233.424629 
L 357.070152 235.218029 
L 360.157633 237.038687 
L 363.162513 238.651554 
L 366.089095 240.280804 
L 368.941357 241.80678 
L 371.722981 243.344072 
L 374.43738 244.772207 
L 377.087728 246.088367 
L 379.676977 247.410789 
L 382.207882 248.617824 
L 384.683014 249.829367 
L 387.104778 251.045444 
L 389.475428 252.143759 
L 391.797075 253.123121 
L 394.071705 254.228443 
L 396.301185 255.2139 
L 398.487273 256.202094 
" clip-path="url(#pd005d5600a)" style="fill: none; stroke-dasharray: 1.5,2.475; stroke-dashoffset: 0; stroke: #6953d4; stroke-width: 1.5"/>
   </g>
   <g id="line2d_13">
    <path d="M 73.832727 295.318139 
L 107.286315 295.165021 
L 133.029105 294.882889 
L 153.958159 294.283899 
L 171.593254 288.765707 
L 186.831619 280.449189 
L 200.247454 268.696233 
L 212.230511 262.84927 
L 223.05751 255.834043 
L 232.932015 247.926061 
L 242.008147 239.703543 
L 250.405405 231.687926 
L 258.218316 224.219814 
L 265.522943 217.772578 
L 272.3814 212.530017 
L 278.845068 208.601132 
L 284.956934 206.001051 
L 290.753325 204.487948 
L 296.265215 203.995873 
L 301.519232 204.306218 
L 306.53843 205.265013 
L 311.342903 206.67357 
L 315.950273 208.427371 
L 320.376076 210.494084 
L 324.634082 212.580833 
L 328.736551 214.914714 
L 332.694446 217.206548 
L 336.517612 219.380223 
L 340.21492 221.668948 
L 343.794392 223.758616 
L 347.263309 225.928805 
L 350.628296 228.000985 
L 353.895399 229.953776 
L 357.070152 231.93953 
L 360.157633 233.784504 
L 363.162513 235.479163 
L 366.089095 237.187861 
L 368.941357 238.735855 
L 371.722981 240.291975 
L 374.43738 241.680988 
L 377.087728 243.074654 
L 379.676977 244.472335 
L 382.207882 245.698196 
L 384.683014 246.926484 
L 387.104778 248.157028 
L 389.475428 249.389742 
L 391.797075 250.448083 
L 394.071705 251.508076 
L 396.301185 252.392743 
L 398.487273 253.456084 
" clip-path="url(#pd005d5600a)" style="fill: none; stroke-dasharray: 1.5,2.475; stroke-dashoffset: 0; stroke: #816fdb; stroke-width: 1.5"/>
   </g>
   <g id="line2d_14">
    <path d="M 73.832727 291.610202 
L 107.286315 292.230575 
L 133.029105 292.215606 
L 153.958159 291.992842 
L 171.593254 291.696268 
L 186.831619 290.837643 
L 200.247454 289.149824 
L 212.230511 286.123249 
L 223.05751 278.14507 
L 232.932015 267.937978 
L 242.008147 255.357126 
L 250.405405 240.324914 
L 258.218316 225.509671 
L 265.522943 219.296326 
L 272.3814 214.266152 
L 278.845068 210.568158 
L 284.956934 208.056786 
L 290.753325 206.668002 
L 296.265215 206.228028 
L 301.519232 206.563261 
L 306.53843 207.499563 
L 311.342903 208.897459 
L 315.950273 210.613168 
L 320.376076 212.585959 
L 324.634082 214.722299 
L 328.736551 216.85265 
L 332.694446 219.077207 
L 336.517612 221.255337 
L 340.21492 223.446229 
L 343.794392 225.516817 
L 347.263309 227.551176 
L 350.628296 229.640279 
L 353.895399 231.53691 
L 357.070152 233.344171 
L 360.157633 235.175631 
L 363.162513 236.779639 
L 366.089095 238.396897 
L 368.941357 240.025429 
L 371.722981 241.41092 
L 374.43738 242.929057 
L 377.087728 244.198788 
L 379.676977 245.472197 
L 382.207882 246.748904 
L 384.683014 247.900387 
L 387.104778 249.053999 
L 389.475428 250.209827 
L 391.797075 251.239112 
L 394.071705 252.270246 
L 396.301185 253.174103 
L 398.487273 254.209091 
" clip-path="url(#pd005d5600a)" style="fill: none; stroke-dasharray: 1.5,2.475; stroke-dashoffset: 0; stroke: #9c8de3; stroke-width: 1.5"/>
   </g>
   <g id="line2d_15">
    <path d="M 73.832727 295.075714 
L 107.286315 286.215749 
L 133.029105 278.414185 
L 153.958159 277.766705 
L 171.593254 276.211195 
L 186.831619 273.406174 
L 200.247454 269.203532 
L 212.230511 263.657525 
L 223.05751 257.040825 
L 232.932015 249.682316 
L 242.008147 242.056707 
L 250.405405 234.636975 
L 258.218316 227.904061 
L 265.522943 222.110695 
L 272.3814 217.435966 
L 278.845068 213.953528 
L 284.956934 211.642074 
L 290.753325 210.360737 
L 296.265215 209.956911 
L 301.519232 210.277085 
L 306.53843 211.155862 
L 311.342903 212.471294 
L 315.950273 214.096673 
L 320.376076 215.959451 
L 324.634082 217.915247 
L 328.736551 219.988126 
L 332.694446 222.060023 
L 336.517612 224.143293 
L 340.21492 226.202807 
L 343.794392 228.213773 
L 347.263309 230.236993 
L 350.628296 232.161717 
L 353.895399 234.050212 
L 357.070152 235.807864 
L 360.157633 237.508136 
L 363.162513 239.144591 
L 366.089095 240.799471 
L 368.941357 242.294164 
L 371.722981 243.711861 
L 374.43738 245.139239 
L 377.087728 246.485525 
L 379.676977 247.748529 
L 382.207882 249.017428 
L 384.683014 250.10969 
L 387.104778 251.2977 
L 389.475428 252.398661 
L 391.797075 253.411561 
L 394.071705 254.427569 
L 396.301185 255.447231 
L 398.487273 256.377502 
" clip-path="url(#pd005d5600a)" style="fill: none; stroke-dasharray: 1.5,2.475; stroke-dashoffset: 0; stroke: #bab0eb; stroke-width: 1.5"/>
   </g>
   <g id="line2d_16">
    <path d="M 73.832727 295.235048 
L 107.286315 287.723042 
L 133.029105 277.793243 
L 153.958159 277.182365 
L 171.593254 275.66729 
L 186.831619 272.85896 
L 200.247454 268.561638 
L 212.230511 262.80541 
L 223.05751 255.788554 
L 232.932015 247.84191 
L 242.008147 239.538206 
L 250.405405 231.399924 
L 258.218316 223.772485 
L 265.522943 217.143304 
L 272.3814 211.70977 
L 278.845068 207.595788 
L 284.956934 204.833248 
L 290.753325 203.174449 
L 296.265215 202.569969 
L 301.519232 202.790514 
L 306.53843 203.684293 
L 311.342903 205.053294 
L 315.950273 206.781963 
L 320.376076 208.841454 
L 324.634082 210.929278 
L 328.736551 213.273628 
L 332.694446 215.582183 
L 336.517612 217.77568 
L 340.21492 220.087807 
L 343.794392 222.198931 
L 347.263309 224.388486 
L 350.628296 226.479222 
L 353.895399 228.449296 
L 357.070152 230.4521 
L 360.157633 232.312177 
L 363.162513 234.019871 
L 366.089095 235.740717 
L 368.941357 237.298701 
L 371.722981 238.863629 
L 374.43738 240.2594 
L 377.087728 241.658697 
L 379.676977 243.060762 
L 382.207882 244.289346 
L 384.683014 245.519236 
L 387.104778 246.750188 
L 389.475428 247.982044 
L 391.797075 249.038588 
L 394.071705 250.09576 
L 396.301185 250.977265 
L 398.487273 252.035806 
" clip-path="url(#pd005d5600a)" style="fill: none; stroke-dasharray: 1.5,2.475; stroke-dashoffset: 0; stroke: #dbd6f5; stroke-width: 1.5"/>
   </g>
   <g id="patch_3">
    <path d="M 57.6 307.584 
L 57.6 41.472 
" style="fill: none; stroke: #ffffff; stroke-width: 1.25; stroke-linejoin: miter; stroke-linecap: square"/>
   </g>
   <g id="patch_4">
    <path d="M 57.6 307.584 
L 414.72 307.584 
" style="fill: none; stroke: #ffffff; stroke-width: 1.25; stroke-linejoin: miter; stroke-linecap: square"/>
   </g>
   <g id="text_10">
    <!-- T4 Velocity Response Ratio -->
    <g style="fill: #262626" transform="translate(155.200312 35.472) scale(0.12 -0.12)">
     <defs>
      <path id="DejaVuSans-52" d="M 2841 2188 
Q 3044 2119 3236 1894 
Q 3428 1669 3622 1275 
L 4263 0 
L 3584 0 
L 2988 1197 
Q 2756 1666 2539 1819 
Q 2322 1972 1947 1972 
L 1259 1972 
L 1259 0 
L 628 0 
L 628 4666 
L 2053 4666 
Q 2853 4666 3247 4331 
Q 3641 3997 3641 3322 
Q 3641 2881 3436 2590 
Q 3231 2300 2841 2188 
z
M 1259 4147 
L 1259 2491 
L 2053 2491 
Q 2509 2491 2742 2702 
Q 2975 2913 2975 3322 
Q 2975 3731 2742 3939 
Q 2509 4147 2053 4147 
L 1259 4147 
z
" transform="scale(0.015625)"/>
      <path id="DejaVuSans-70" d="M 1159 525 
L 1159 -1331 
L 581 -1331 
L 581 3500 
L 1159 3500 
L 1159 2969 
Q 1341 3281 1617 3432 
Q 1894 3584 2278 3584 
Q 2916 3584 3314 3078 
Q 3713 2572 3713 1747 
Q 3713 922 3314 415 
Q 2916 -91 2278 -91 
Q 1894 -91 1617 61 
Q 1341 213 1159 525 
z
M 3116 1747 
Q 3116 2381 2855 2742 
Q 2594 3103 2138 3103 
Q 1681 3103 1420 2742 
Q 1159 2381 1159 1747 
Q 1159 1113 1420 752 
Q 1681 391 2138 391 
Q 2594 391 2855 752 
Q 3116 1113 3116 1747 
z
" transform="scale(0.015625)"/>
      <path id="DejaVuSans-6e" d="M 3513 2113 
L 3513 0 
L 2938 0 
L 2938 2094 
Q 2938 2591 2744 2837 
Q 2550 3084 2163 3084 
Q 1697 3084 1428 2787 
Q 1159 2491 1159 1978 
L 1159 0 
L 581 0 
L 581 3500 
L 1159 3500 
L 1159 2956 
Q 1366 3272 1645 3428 
Q 1925 3584 2291 3584 
Q 2894 3584 3203 3211 
Q 3513 2838 3513 2113 
z
" transform="scale(0.015625)"/>
     </defs>
     <use xlink:href="#DejaVuSans-54"/>
     <use xlink:href="#DejaVuSans-34" x="61.083984"/>
     <use xlink:href="#DejaVuSans-20" x="124.707031"/>
     <use xlink:href="#DejaVuSans-56" x="156.494141"/>
     <use xlink:href="#DejaVuSans-65" x="217.152344"/>
     <use xlink:href="#DejaVuSans-6c" x="278.675781"/>
     <use xlink:href="#DejaVuSans-6f" x="306.458984"/>
     <use xlink:href="#DejaVuSans-63" x="367.640625"/>
     <use xlink:href="#DejaVuSans-69" x="422.621094"/>
     <use xlink:href="#DejaVuSans-74" x="450.404297"/>
     <use xlink:href="#DejaVuSans-79" x="489.613281"/>
     <use xlink:href="#DejaVuSans-20" x="548.792969"/>
     <use xlink:href="#DejaVuSans-52" x="580.580078"/>
     <use xlink:href="#DejaVuSans-65" x="645.5625"/>
     <use xlink:href="#DejaVuSans-73" x="707.085938"/>
     <use xlink:href="#DejaVuSans-70" x="759.185547"/>
     <use xlink:href="#DejaVuSans-6f" x="822.662109"/>
     <use xlink:href="#DejaVuSans-6e" x="883.84375"/>
     <use xlink:href="#DejaVuSans-73" x="947.222656"/>
     <use xlink:href="#DejaVuSans-65" x="999.322266"/>
     <use xlink:href="#DejaVuSans-20" x="1060.845703"/>
     <use xlink:href="#DejaVuSans-52" x="1092.632812"/>
     <use xlink:href="#DejaVuSans-61" x="1159.865234"/>
     <use xlink:href="#DejaVuSans-74" x="1221.144531"/>
     <use xlink:href="#DejaVuSans-69" x="1260.353516"/>
     <use xlink:href="#DejaVuSans-6f" x="1288.136719"/>
    </g>
   </g>
   <g id="legend_1">
    <g id="patch_5">
     <path d="M 364.82125 211.731375 
L 407.02 211.731375 
Q 409.22 211.731375 409.22 209.531375 
L 409.22 49.172 
Q 409.22 46.972 407.02 46.972 
L 364.82125 46.972 
Q 362.62125 46.972 362.62125 49.172 
L 362.62125 209.531375 
Q 362.62125 211.731375 364.82125 211.731375 
z
" style="fill: #eaeaf2; opacity: 0.8; stroke: #cccccc; stroke-linejoin: miter"/>
    </g>
    <g id="line2d_17">
     <path d="M 367.02125 55.880281 
L 378.02125 55.880281 
L 389.02125 55.880281 
" style="fill: none; stroke: #332288; stroke-width: 3; stroke-linecap: round"/>
    </g>
    <g id="text_11">
     <!-- 0 -->
     <g style="fill: #262626" transform="translate(397.82125 59.730281) scale(0.11 -0.11)">
      <use xlink:href="#DejaVuSans-30"/>
     </g>
    </g>
    <g id="line2d_18">
     <path d="M 367.02125 72.026219 
L 378.02125 72.026219 
L 389.02125 72.026219 
" style="fill: none; stroke-dasharray: 1.5,2.475; stroke-dashoffset: 0; stroke: #392698; stroke-width: 1.5"/>
    </g>
    <g id="text_12">
     <!-- 1 -->
     <g style="fill: #262626" transform="translate(397.82125 75.876219) scale(0.11 -0.11)">
      <use xlink:href="#DejaVuSans-31"/>
     </g>
    </g>
    <g id="line2d_19">
     <path d="M 367.02125 88.172156 
L 378.02125 88.172156 
L 389.02125 88.172156 
" style="fill: none; stroke-dasharray: 1.5,2.475; stroke-dashoffset: 0; stroke: #402aaa; stroke-width: 1.5"/>
    </g>
    <g id="text_13">
     <!-- 2 -->
     <g style="fill: #262626" transform="translate(397.82125 92.022156) scale(0.11 -0.11)">
      <use xlink:href="#DejaVuSans-32"/>
     </g>
    </g>
    <g id="line2d_20">
     <path d="M 367.02125 104.318094 
L 378.02125 104.318094 
L 389.02125 104.318094 
" style="fill: none; stroke-dasharray: 1.5,2.475; stroke-dashoffset: 0; stroke: #472fbd; stroke-width: 1.5"/>
    </g>
    <g id="text_14">
     <!-- 3 -->
     <g style="fill: #262626" transform="translate(397.82125 108.168094) scale(0.11 -0.11)">
      <use xlink:href="#DejaVuSans-33"/>
     </g>
    </g>
    <g id="line2d_21">
     <path d="M 367.02125 120.464031 
L 378.02125 120.464031 
L 389.02125 120.464031 
" style="fill: none; stroke-dasharray: 1.5,2.475; stroke-dashoffset: 0; stroke: #533ace; stroke-width: 1.5"/>
    </g>
    <g id="text_15">
     <!-- 4 -->
     <g style="fill: #262626" transform="translate(397.82125 124.314031) scale(0.11 -0.11)">
      <use xlink:href="#DejaVuSans-34"/>
     </g>
    </g>
    <g id="line2d_22">
     <path d="M 367.02125 136.609969 
L 378.02125 136.609969 
L 389.02125 136.609969 
" style="fill: none; stroke-dasharray: 1.5,2.475; stroke-dashoffset: 0; stroke: #6953d4; stroke-width: 1.5"/>
    </g>
    <g id="text_16">
     <!-- 5 -->
     <g style="fill: #262626" transform="translate(397.82125 140.459969) scale(0.11 -0.11)">
      <use xlink:href="#DejaVuSans-35"/>
     </g>
    </g>
    <g id="line2d_23">
     <path d="M 367.02125 152.755906 
L 378.02125 152.755906 
L 389.02125 152.755906 
" style="fill: none; stroke-dasharray: 1.5,2.475; stroke-dashoffset: 0; stroke: #816fdb; stroke-width: 1.5"/>
    </g>
    <g id="text_17">
     <!-- 6 -->
     <g style="fill: #262626" transform="translate(397.82125 156.605906) scale(0.11 -0.11)">
      <defs>
       <path id="DejaVuSans-36" d="M 2113 2584 
Q 1688 2584 1439 2293 
Q 1191 2003 1191 1497 
Q 1191 994 1439 701 
Q 1688 409 2113 409 
Q 2538 409 2786 701 
Q 3034 994 3034 1497 
Q 3034 2003 2786 2293 
Q 2538 2584 2113 2584 
z
M 3366 4563 
L 3366 3988 
Q 3128 4100 2886 4159 
Q 2644 4219 2406 4219 
Q 1781 4219 1451 3797 
Q 1122 3375 1075 2522 
Q 1259 2794 1537 2939 
Q 1816 3084 2150 3084 
Q 2853 3084 3261 2657 
Q 3669 2231 3669 1497 
Q 3669 778 3244 343 
Q 2819 -91 2113 -91 
Q 1303 -91 875 529 
Q 447 1150 447 2328 
Q 447 3434 972 4092 
Q 1497 4750 2381 4750 
Q 2619 4750 2861 4703 
Q 3103 4656 3366 4563 
z
" transform="scale(0.015625)"/>
      </defs>
      <use xlink:href="#DejaVuSans-36"/>
     </g>
    </g>
    <g id="line2d_24">
     <path d="M 367.02125 168.901844 
L 378.02125 168.901844 
L 389.02125 168.901844 
" style="fill: none; stroke-dasharray: 1.5,2.475; stroke-dashoffset: 0; stroke: #9c8de3; stroke-width: 1.5"/>
    </g>
    <g id="text_18">
     <!-- 7 -->
     <g style="fill: #262626" transform="translate(397.82125 172.751844) scale(0.11 -0.11)">
      <defs>
       <path id="DejaVuSans-37" d="M 525 4666 
L 3525 4666 
L 3525 4397 
L 1831 0 
L 1172 0 
L 2766 4134 
L 525 4134 
L 525 4666 
z
" transform="scale(0.015625)"/>
      </defs>
      <use xlink:href="#DejaVuSans-37"/>
     </g>
    </g>
    <g id="line2d_25">
     <path d="M 367.02125 185.047781 
L 378.02125 185.047781 
L 389.02125 185.047781 
" style="fill: none; stroke-dasharray: 1.5,2.475; stroke-dashoffset: 0; stroke: #bab0eb; stroke-width: 1.5"/>
    </g>
    <g id="text_19">
     <!-- 8 -->
     <g style="fill: #262626" transform="translate(397.82125 188.897781) scale(0.11 -0.11)">
      <defs>
       <path id="DejaVuSans-38" d="M 2034 2216 
Q 1584 2216 1326 1975 
Q 1069 1734 1069 1313 
Q 1069 891 1326 650 
Q 1584 409 2034 409 
Q 2484 409 2743 651 
Q 3003 894 3003 1313 
Q 3003 1734 2745 1975 
Q 2488 2216 2034 2216 
z
M 1403 2484 
Q 997 2584 770 2862 
Q 544 3141 544 3541 
Q 544 4100 942 4425 
Q 1341 4750 2034 4750 
Q 2731 4750 3128 4425 
Q 3525 4100 3525 3541 
Q 3525 3141 3298 2862 
Q 3072 2584 2669 2484 
Q 3125 2378 3379 2068 
Q 3634 1759 3634 1313 
Q 3634 634 3220 271 
Q 2806 -91 2034 -91 
Q 1263 -91 848 271 
Q 434 634 434 1313 
Q 434 1759 690 2068 
Q 947 2378 1403 2484 
z
M 1172 3481 
Q 1172 3119 1398 2916 
Q 1625 2713 2034 2713 
Q 2441 2713 2670 2916 
Q 2900 3119 2900 3481 
Q 2900 3844 2670 4047 
Q 2441 4250 2034 4250 
Q 1625 4250 1398 4047 
Q 1172 3844 1172 3481 
z
" transform="scale(0.015625)"/>
      </defs>
      <use xlink:href="#DejaVuSans-38"/>
     </g>
    </g>
    <g id="line2d_26">
     <path d="M 367.02125 201.193719 
L 378.02125 201.193719 
L 389.02125 201.193719 
" style="fill: none; stroke-dasharray: 1.5,2.475; stroke-dashoffset: 0; stroke: #dbd6f5; stroke-width: 1.5"/>
    </g>
    <g id="text_20">
     <!-- 9 -->
     <g style="fill: #262626" transform="translate(397.82125 205.043719) scale(0.11 -0.11)">
      <defs>
       <path id="DejaVuSans-39" d="M 703 97 
L 703 672 
Q 941 559 1184 500 
Q 1428 441 1663 441 
Q 2288 441 2617 861 
Q 2947 1281 2994 2138 
Q 2813 1869 2534 1725 
Q 2256 1581 1919 1581 
Q 1219 1581 811 2004 
Q 403 2428 403 3163 
Q 403 3881 828 4315 
Q 1253 4750 1959 4750 
Q 2769 4750 3195 4129 
Q 3622 3509 3622 2328 
Q 3622 1225 3098 567 
Q 2575 -91 1691 -91 
Q 1453 -91 1209 -44 
Q 966 3 703 97 
z
M 1959 2075 
Q 2384 2075 2632 2365 
Q 2881 2656 2881 3163 
Q 2881 3666 2632 3958 
Q 2384 4250 1959 4250 
Q 1534 4250 1286 3958 
Q 1038 3666 1038 3163 
Q 1038 2656 1286 2365 
Q 1534 2075 1959 2075 
z
" transform="scale(0.015625)"/>
      </defs>
      <use xlink:href="#DejaVuSans-39"/>
     </g>
    </g>
   </g>
   <g id="line2d_27">
    <path d="M 73.832727 69.01197 
L 107.286315 147.428173 
L 133.029105 199.735335 
L 153.958159 222.969363 
L 171.593254 235.520203 
L 186.831619 243.277746 
L 200.247454 248.505886 
L 212.230511 250.306773 
L 223.05751 249.528412 
L 232.932015 247.293955 
L 242.008147 244.340506 
L 250.405405 241.122401 
L 258.218316 237.853625 
L 265.522943 234.724047 
L 272.3814 231.767734 
L 278.845068 228.978613 
L 284.956934 226.353487 
L 290.753325 223.860613 
L 296.265215 222.342027 
L 301.519232 221.72331 
L 306.53843 221.986493 
L 311.342903 223.039094 
L 315.950273 224.876535 
L 320.376076 227.629567 
L 324.634082 230.829993 
L 328.736551 234.343656 
L 332.694446 237.670506 
L 336.517612 240.730871 
L 340.21492 243.863593 
L 343.794392 246.645431 
L 347.263309 249.448927 
L 350.628296 252.058372 
L 353.895399 254.462068 
L 357.070152 256.851886 
L 360.157633 259.022919 
L 363.162513 260.974318 
L 366.089095 262.898605 
L 368.941357 264.601543 
L 371.722981 266.27004 
L 374.43738 267.716297 
L 377.087728 269.117006 
L 379.676977 270.455888 
L 382.207882 271.55671 
L 384.683014 272.563521 
L 387.104778 273.434029 
L 389.475428 274.100281 
L 391.797075 274.425725 
L 394.071705 274.403139 
L 396.301185 274.068579 
L 398.487273 273.592211 
" clip-path="url(#pd005d5600a)" style="fill: none; stroke: #332288; stroke-width: 3; stroke-linecap: round"/>
   </g>
  </g>
 </g>
 <defs>
  <clipPath id="pd005d5600a">
   <rect x="57.6" y="41.472" width="357.12" height="266.112"/>
  </clipPath>
 </defs>
</svg>
