<?xml version="1.0" encoding="utf-8" standalone="no"?>
<!DOCTYPE svg PUBLIC "-//W3C//DTD SVG 1.1//EN"
  "http://www.w3.org/Graphics/SVG/1.1/DTD/svg11.dtd">
<svg xmlns:xlink="http://www.w3.org/1999/xlink" width="460.8pt" height="345.6pt" viewBox="0 0 460.8 345.6" xmlns="http://www.w3.org/2000/svg" version="1.1">
 <metadata>
  <rdf:RDF xmlns:dc="http://purl.org/dc/elements/1.1/" xmlns:cc="http://creativecommons.org/ns#" xmlns:rdf="http://www.w3.org/1999/02/22-rdf-syntax-ns#">
   <cc:Work>
    <dc:type rdf:resource="http://purl.org/dc/dcmitype/StillImage"/>
    <dc:date>2023-03-26T14:52:16.493522</dc:date>
    <dc:format>image/svg+xml</dc:format>
    <dc:creator>
     <cc:Agent>
      <dc:title>Matplotlib v3.7.1, https://matplotlib.org/</dc:title>
     </cc:Agent>
    </dc:creator>
   </cc:Work>
  </rdf:RDF>
 </metadata>
 <defs>
  <style type="text/css">*{stroke-linejoin: round; stroke-linecap: butt}</style>
 </defs>
 <g id="figure_1">
  <g id="patch_1">
   <path d="M 0 345.6 
L 460.8 345.6 
L 460.8 0 
L 0 0 
z
" style="fill: #ffffff"/>
  </g>
  <g id="axes_1">
   <g id="patch_2">
    <path d="M 57.6 307.584 
L 414.72 307.584 
L 414.72 41.472 
L 57.6 41.472 
z
" style="fill: #eaeaf2"/>
   </g>
   <g id="matplotlib.axis_1">
    <g id="xtick_1">
     <g id="line2d_1">
      <path d="M 73.832727 307.584 
L 73.832727 41.472 
" clip-path="url(#p9750715a9d)" style="fill: none; stroke: #ffffff; stroke-linecap: round"/>
     </g>
     <g id="text_1">
      <!-- $\mathdefault{10^{1}}$ -->
      <g style="fill: #262626" transform="translate(64.152727 325.442281) scale(0.11 -0.11)">
       <defs>
        <path id="DejaVuSans-31" d="M 794 531 
L 1825 531 
L 1825 4091 
L 703 3866 
L 703 4441 
L 1819 4666 
L 2450 4666 
L 2450 531 
L 3481 531 
L 3481 0 
L 794 0 
L 794 531 
z
" transform="scale(0.015625)"/>
        <path id="DejaVuSans-30" d="M 2034 4250 
Q 1547 4250 1301 3770 
Q 1056 3291 1056 2328 
Q 1056 1369 1301 889 
Q 1547 409 2034 409 
Q 2525 409 2770 889 
Q 3016 1369 3016 2328 
Q 3016 3291 2770 3770 
Q 2525 4250 2034 4250 
z
M 2034 4750 
Q 2819 4750 3233 4129 
Q 3647 3509 3647 2328 
Q 3647 1150 3233 529 
Q 2819 -91 2034 -91 
Q 1250 -91 836 529 
Q 422 1150 422 2328 
Q 422 3509 836 4129 
Q 1250 4750 2034 4750 
z
" transform="scale(0.015625)"/>
       </defs>
       <use xlink:href="#DejaVuSans-31" transform="translate(0 0.684375)"/>
       <use xlink:href="#DejaVuSans-30" transform="translate(63.623047 0.684375)"/>
       <use xlink:href="#DejaVuSans-31" transform="translate(128.203125 38.965625) scale(0.7)"/>
      </g>
     </g>
    </g>
    <g id="xtick_2">
     <g id="line2d_2">
      <path d="M 332.46545 307.584 
L 332.46545 41.472 
" clip-path="url(#p9750715a9d)" style="fill: none; stroke: #ffffff; stroke-linecap: round"/>
     </g>
     <g id="text_2">
      <!-- $\mathdefault{10^{2}}$ -->
      <g style="fill: #262626" transform="translate(322.78545 325.442281) scale(0.11 -0.11)">
       <defs>
        <path id="DejaVuSans-32" d="M 1228 531 
L 3431 531 
L 3431 0 
L 469 0 
L 469 531 
Q 828 903 1448 1529 
Q 2069 2156 2228 2338 
Q 2531 2678 2651 2914 
Q 2772 3150 2772 3378 
Q 2772 3750 2511 3984 
Q 2250 4219 1831 4219 
Q 1534 4219 1204 4116 
Q 875 4013 500 3803 
L 500 4441 
Q 881 4594 1212 4672 
Q 1544 4750 1819 4750 
Q 2544 4750 2975 4387 
Q 3406 4025 3406 3419 
Q 3406 3131 3298 2873 
Q 3191 2616 2906 2266 
Q 2828 2175 2409 1742 
Q 1991 1309 1228 531 
z
" transform="scale(0.015625)"/>
       </defs>
       <use xlink:href="#DejaVuSans-31" transform="translate(0 0.765625)"/>
       <use xlink:href="#DejaVuSans-30" transform="translate(63.623047 0.765625)"/>
       <use xlink:href="#DejaVuSans-32" transform="translate(128.203125 39.046875) scale(0.7)"/>
      </g>
     </g>
    </g>
    <g id="xtick_3"/>
    <g id="xtick_4"/>
    <g id="xtick_5"/>
    <g id="xtick_6"/>
    <g id="xtick_7"/>
    <g id="xtick_8"/>
    <g id="xtick_9"/>
    <g id="xtick_10"/>
    <g id="xtick_11"/>
    <g id="xtick_12"/>
    <g id="text_3">
     <!-- Edge Velocity (deg/s) -->
     <g style="fill: #262626" transform="translate(172.5675 340.848062) scale(0.12 -0.12)">
      <defs>
       <path id="DejaVuSans-45" d="M 628 4666 
L 3578 4666 
L 3578 4134 
L 1259 4134 
L 1259 2753 
L 3481 2753 
L 3481 2222 
L 1259 2222 
L 1259 531 
L 3634 531 
L 3634 0 
L 628 0 
L 628 4666 
z
" transform="scale(0.015625)"/>
       <path id="DejaVuSans-64" d="M 2906 2969 
L 2906 4863 
L 3481 4863 
L 3481 0 
L 2906 0 
L 2906 525 
Q 2725 213 2448 61 
Q 2172 -91 1784 -91 
Q 1150 -91 751 415 
Q 353 922 353 1747 
Q 353 2572 751 3078 
Q 1150 3584 1784 3584 
Q 2172 3584 2448 3432 
Q 2725 3281 2906 2969 
z
M 947 1747 
Q 947 1113 1208 752 
Q 1469 391 1925 391 
Q 2381 391 2643 752 
Q 2906 1113 2906 1747 
Q 2906 2381 2643 2742 
Q 2381 3103 1925 3103 
Q 1469 3103 1208 2742 
Q 947 2381 947 1747 
z
" transform="scale(0.015625)"/>
       <path id="DejaVuSans-67" d="M 2906 1791 
Q 2906 2416 2648 2759 
Q 2391 3103 1925 3103 
Q 1463 3103 1205 2759 
Q 947 2416 947 1791 
Q 947 1169 1205 825 
Q 1463 481 1925 481 
Q 2391 481 2648 825 
Q 2906 1169 2906 1791 
z
M 3481 434 
Q 3481 -459 3084 -895 
Q 2688 -1331 1869 -1331 
Q 1566 -1331 1297 -1286 
Q 1028 -1241 775 -1147 
L 775 -588 
Q 1028 -725 1275 -790 
Q 1522 -856 1778 -856 
Q 2344 -856 2625 -561 
Q 2906 -266 2906 331 
L 2906 616 
Q 2728 306 2450 153 
Q 2172 0 1784 0 
Q 1141 0 747 490 
Q 353 981 353 1791 
Q 353 2603 747 3093 
Q 1141 3584 1784 3584 
Q 2172 3584 2450 3431 
Q 2728 3278 2906 2969 
L 2906 3500 
L 3481 3500 
L 3481 434 
z
" transform="scale(0.015625)"/>
       <path id="DejaVuSans-65" d="M 3597 1894 
L 3597 1613 
L 953 1613 
Q 991 1019 1311 708 
Q 1631 397 2203 397 
Q 2534 397 2845 478 
Q 3156 559 3463 722 
L 3463 178 
Q 3153 47 2828 -22 
Q 2503 -91 2169 -91 
Q 1331 -91 842 396 
Q 353 884 353 1716 
Q 353 2575 817 3079 
Q 1281 3584 2069 3584 
Q 2775 3584 3186 3129 
Q 3597 2675 3597 1894 
z
M 3022 2063 
Q 3016 2534 2758 2815 
Q 2500 3097 2075 3097 
Q 1594 3097 1305 2825 
Q 1016 2553 972 2059 
L 3022 2063 
z
" transform="scale(0.015625)"/>
       <path id="DejaVuSans-20" transform="scale(0.015625)"/>
       <path id="DejaVuSans-56" d="M 1831 0 
L 50 4666 
L 709 4666 
L 2188 738 
L 3669 4666 
L 4325 4666 
L 2547 0 
L 1831 0 
z
" transform="scale(0.015625)"/>
       <path id="DejaVuSans-6c" d="M 603 4863 
L 1178 4863 
L 1178 0 
L 603 0 
L 603 4863 
z
" transform="scale(0.015625)"/>
       <path id="DejaVuSans-6f" d="M 1959 3097 
Q 1497 3097 1228 2736 
Q 959 2375 959 1747 
Q 959 1119 1226 758 
Q 1494 397 1959 397 
Q 2419 397 2687 759 
Q 2956 1122 2956 1747 
Q 2956 2369 2687 2733 
Q 2419 3097 1959 3097 
z
M 1959 3584 
Q 2709 3584 3137 3096 
Q 3566 2609 3566 1747 
Q 3566 888 3137 398 
Q 2709 -91 1959 -91 
Q 1206 -91 779 398 
Q 353 888 353 1747 
Q 353 2609 779 3096 
Q 1206 3584 1959 3584 
z
" transform="scale(0.015625)"/>
       <path id="DejaVuSans-63" d="M 3122 3366 
L 3122 2828 
Q 2878 2963 2633 3030 
Q 2388 3097 2138 3097 
Q 1578 3097 1268 2742 
Q 959 2388 959 1747 
Q 959 1106 1268 751 
Q 1578 397 2138 397 
Q 2388 397 2633 464 
Q 2878 531 3122 666 
L 3122 134 
Q 2881 22 2623 -34 
Q 2366 -91 2075 -91 
Q 1284 -91 818 406 
Q 353 903 353 1747 
Q 353 2603 823 3093 
Q 1294 3584 2113 3584 
Q 2378 3584 2631 3529 
Q 2884 3475 3122 3366 
z
" transform="scale(0.015625)"/>
       <path id="DejaVuSans-69" d="M 603 3500 
L 1178 3500 
L 1178 0 
L 603 0 
L 603 3500 
z
M 603 4863 
L 1178 4863 
L 1178 4134 
L 603 4134 
L 603 4863 
z
" transform="scale(0.015625)"/>
       <path id="DejaVuSans-74" d="M 1172 4494 
L 1172 3500 
L 2356 3500 
L 2356 3053 
L 1172 3053 
L 1172 1153 
Q 1172 725 1289 603 
Q 1406 481 1766 481 
L 2356 481 
L 2356 0 
L 1766 0 
Q 1100 0 847 248 
Q 594 497 594 1153 
L 594 3053 
L 172 3053 
L 172 3500 
L 594 3500 
L 594 4494 
L 1172 4494 
z
" transform="scale(0.015625)"/>
       <path id="DejaVuSans-79" d="M 2059 -325 
Q 1816 -950 1584 -1140 
Q 1353 -1331 966 -1331 
L 506 -1331 
L 506 -850 
L 844 -850 
Q 1081 -850 1212 -737 
Q 1344 -625 1503 -206 
L 1606 56 
L 191 3500 
L 800 3500 
L 1894 763 
L 2988 3500 
L 3597 3500 
L 2059 -325 
z
" transform="scale(0.015625)"/>
       <path id="DejaVuSans-28" d="M 1984 4856 
Q 1566 4138 1362 3434 
Q 1159 2731 1159 2009 
Q 1159 1288 1364 580 
Q 1569 -128 1984 -844 
L 1484 -844 
Q 1016 -109 783 600 
Q 550 1309 550 2009 
Q 550 2706 781 3412 
Q 1013 4119 1484 4856 
L 1984 4856 
z
" transform="scale(0.015625)"/>
       <path id="DejaVuSans-2f" d="M 1625 4666 
L 2156 4666 
L 531 -594 
L 0 -594 
L 1625 4666 
z
" transform="scale(0.015625)"/>
       <path id="DejaVuSans-73" d="M 2834 3397 
L 2834 2853 
Q 2591 2978 2328 3040 
Q 2066 3103 1784 3103 
Q 1356 3103 1142 2972 
Q 928 2841 928 2578 
Q 928 2378 1081 2264 
Q 1234 2150 1697 2047 
L 1894 2003 
Q 2506 1872 2764 1633 
Q 3022 1394 3022 966 
Q 3022 478 2636 193 
Q 2250 -91 1575 -91 
Q 1294 -91 989 -36 
Q 684 19 347 128 
L 347 722 
Q 666 556 975 473 
Q 1284 391 1588 391 
Q 1994 391 2212 530 
Q 2431 669 2431 922 
Q 2431 1156 2273 1281 
Q 2116 1406 1581 1522 
L 1381 1569 
Q 847 1681 609 1914 
Q 372 2147 372 2553 
Q 372 3047 722 3315 
Q 1072 3584 1716 3584 
Q 2034 3584 2315 3537 
Q 2597 3491 2834 3397 
z
" transform="scale(0.015625)"/>
       <path id="DejaVuSans-29" d="M 513 4856 
L 1013 4856 
Q 1481 4119 1714 3412 
Q 1947 2706 1947 2009 
Q 1947 1309 1714 600 
Q 1481 -109 1013 -844 
L 513 -844 
Q 928 -128 1133 580 
Q 1338 1288 1338 2009 
Q 1338 2731 1133 3434 
Q 928 4138 513 4856 
z
" transform="scale(0.015625)"/>
      </defs>
      <use xlink:href="#DejaVuSans-45"/>
      <use xlink:href="#DejaVuSans-64" x="63.183594"/>
      <use xlink:href="#DejaVuSans-67" x="126.660156"/>
      <use xlink:href="#DejaVuSans-65" x="190.136719"/>
      <use xlink:href="#DejaVuSans-20" x="251.660156"/>
      <use xlink:href="#DejaVuSans-56" x="283.447266"/>
      <use xlink:href="#DejaVuSans-65" x="344.105469"/>
      <use xlink:href="#DejaVuSans-6c" x="405.628906"/>
      <use xlink:href="#DejaVuSans-6f" x="433.412109"/>
      <use xlink:href="#DejaVuSans-63" x="494.59375"/>
      <use xlink:href="#DejaVuSans-69" x="549.574219"/>
      <use xlink:href="#DejaVuSans-74" x="577.357422"/>
      <use xlink:href="#DejaVuSans-79" x="616.566406"/>
      <use xlink:href="#DejaVuSans-20" x="675.746094"/>
      <use xlink:href="#DejaVuSans-28" x="707.533203"/>
      <use xlink:href="#DejaVuSans-64" x="746.546875"/>
      <use xlink:href="#DejaVuSans-65" x="810.023438"/>
      <use xlink:href="#DejaVuSans-67" x="871.546875"/>
      <use xlink:href="#DejaVuSans-2f" x="935.023438"/>
      <use xlink:href="#DejaVuSans-73" x="968.714844"/>
      <use xlink:href="#DejaVuSans-29" x="1020.814453"/>
     </g>
    </g>
   </g>
   <g id="matplotlib.axis_2">
    <g id="ytick_1">
     <g id="line2d_3">
      <path d="M 57.6 261.816961 
L 414.72 261.816961 
" clip-path="url(#p9750715a9d)" style="fill: none; stroke: #ffffff; stroke-linecap: round"/>
     </g>
     <g id="text_4">
      <!-- 0.2 -->
      <g style="fill: #262626" transform="translate(30.606563 265.996101) scale(0.11 -0.11)">
       <defs>
        <path id="DejaVuSans-2e" d="M 684 794 
L 1344 794 
L 1344 0 
L 684 0 
L 684 794 
z
" transform="scale(0.015625)"/>
       </defs>
       <use xlink:href="#DejaVuSans-30"/>
       <use xlink:href="#DejaVuSans-2e" x="63.623047"/>
       <use xlink:href="#DejaVuSans-32" x="95.410156"/>
      </g>
     </g>
    </g>
    <g id="ytick_2">
     <g id="line2d_4">
      <path d="M 57.6 209.754721 
L 414.72 209.754721 
" clip-path="url(#p9750715a9d)" style="fill: none; stroke: #ffffff; stroke-linecap: round"/>
     </g>
     <g id="text_5">
      <!-- 0.4 -->
      <g style="fill: #262626" transform="translate(30.606563 213.933861) scale(0.11 -0.11)">
       <defs>
        <path id="DejaVuSans-34" d="M 2419 4116 
L 825 1625 
L 2419 1625 
L 2419 4116 
z
M 2253 4666 
L 3047 4666 
L 3047 1625 
L 3713 1625 
L 3713 1100 
L 3047 1100 
L 3047 0 
L 2419 0 
L 2419 1100 
L 313 1100 
L 313 1709 
L 2253 4666 
z
" transform="scale(0.015625)"/>
       </defs>
       <use xlink:href="#DejaVuSans-30"/>
       <use xlink:href="#DejaVuSans-2e" x="63.623047"/>
       <use xlink:href="#DejaVuSans-34" x="95.410156"/>
      </g>
     </g>
    </g>
    <g id="ytick_3">
     <g id="line2d_5">
      <path d="M 57.6 157.69248 
L 414.72 157.69248 
" clip-path="url(#p9750715a9d)" style="fill: none; stroke: #ffffff; stroke-linecap: round"/>
     </g>
     <g id="text_6">
      <!-- 0.6 -->
      <g style="fill: #262626" transform="translate(30.606563 161.871621) scale(0.11 -0.11)">
       <defs>
        <path id="DejaVuSans-36" d="M 2113 2584 
Q 1688 2584 1439 2293 
Q 1191 2003 1191 1497 
Q 1191 994 1439 701 
Q 1688 409 2113 409 
Q 2538 409 2786 701 
Q 3034 994 3034 1497 
Q 3034 2003 2786 2293 
Q 2538 2584 2113 2584 
z
M 3366 4563 
L 3366 3988 
Q 3128 4100 2886 4159 
Q 2644 4219 2406 4219 
Q 1781 4219 1451 3797 
Q 1122 3375 1075 2522 
Q 1259 2794 1537 2939 
Q 1816 3084 2150 3084 
Q 2853 3084 3261 2657 
Q 3669 2231 3669 1497 
Q 3669 778 3244 343 
Q 2819 -91 2113 -91 
Q 1303 -91 875 529 
Q 447 1150 447 2328 
Q 447 3434 972 4092 
Q 1497 4750 2381 4750 
Q 2619 4750 2861 4703 
Q 3103 4656 3366 4563 
z
" transform="scale(0.015625)"/>
       </defs>
       <use xlink:href="#DejaVuSans-30"/>
       <use xlink:href="#DejaVuSans-2e" x="63.623047"/>
       <use xlink:href="#DejaVuSans-36" x="95.410156"/>
      </g>
     </g>
    </g>
    <g id="ytick_4">
     <g id="line2d_6">
      <path d="M 57.6 105.63024 
L 414.72 105.63024 
" clip-path="url(#p9750715a9d)" style="fill: none; stroke: #ffffff; stroke-linecap: round"/>
     </g>
     <g id="text_7">
      <!-- 0.8 -->
      <g style="fill: #262626" transform="translate(30.606563 109.809381) scale(0.11 -0.11)">
       <defs>
        <path id="DejaVuSans-38" d="M 2034 2216 
Q 1584 2216 1326 1975 
Q 1069 1734 1069 1313 
Q 1069 891 1326 650 
Q 1584 409 2034 409 
Q 2484 409 2743 651 
Q 3003 894 3003 1313 
Q 3003 1734 2745 1975 
Q 2488 2216 2034 2216 
z
M 1403 2484 
Q 997 2584 770 2862 
Q 544 3141 544 3541 
Q 544 4100 942 4425 
Q 1341 4750 2034 4750 
Q 2731 4750 3128 4425 
Q 3525 4100 3525 3541 
Q 3525 3141 3298 2862 
Q 3072 2584 2669 2484 
Q 3125 2378 3379 2068 
Q 3634 1759 3634 1313 
Q 3634 634 3220 271 
Q 2806 -91 2034 -91 
Q 1263 -91 848 271 
Q 434 634 434 1313 
Q 434 1759 690 2068 
Q 947 2378 1403 2484 
z
M 1172 3481 
Q 1172 3119 1398 2916 
Q 1625 2713 2034 2713 
Q 2441 2713 2670 2916 
Q 2900 3119 2900 3481 
Q 2900 3844 2670 4047 
Q 2441 4250 2034 4250 
Q 1625 4250 1398 4047 
Q 1172 3844 1172 3481 
z
" transform="scale(0.015625)"/>
       </defs>
       <use xlink:href="#DejaVuSans-30"/>
       <use xlink:href="#DejaVuSans-2e" x="63.623047"/>
       <use xlink:href="#DejaVuSans-38" x="95.410156"/>
      </g>
     </g>
    </g>
    <g id="ytick_5">
     <g id="line2d_7">
      <path d="M 57.6 53.568 
L 414.72 53.568 
" clip-path="url(#p9750715a9d)" style="fill: none; stroke: #ffffff; stroke-linecap: round"/>
     </g>
     <g id="text_8">
      <!-- 1.0 -->
      <g style="fill: #262626" transform="translate(30.606563 57.747141) scale(0.11 -0.11)">
       <use xlink:href="#DejaVuSans-31"/>
       <use xlink:href="#DejaVuSans-2e" x="63.623047"/>
       <use xlink:href="#DejaVuSans-30" x="95.410156"/>
      </g>
     </g>
    </g>
    <g id="text_9">
     <!-- Peak Magnitude -->
     <g style="fill: #262626" transform="translate(24.110937 222.466125) rotate(-90) scale(0.12 -0.12)">
      <defs>
       <path id="DejaVuSans-50" d="M 1259 4147 
L 1259 2394 
L 2053 2394 
Q 2494 2394 2734 2622 
Q 2975 2850 2975 3272 
Q 2975 3691 2734 3919 
Q 2494 4147 2053 4147 
L 1259 4147 
z
M 628 4666 
L 2053 4666 
Q 2838 4666 3239 4311 
Q 3641 3956 3641 3272 
Q 3641 2581 3239 2228 
Q 2838 1875 2053 1875 
L 1259 1875 
L 1259 0 
L 628 0 
L 628 4666 
z
" transform="scale(0.015625)"/>
       <path id="DejaVuSans-61" d="M 2194 1759 
Q 1497 1759 1228 1600 
Q 959 1441 959 1056 
Q 959 750 1161 570 
Q 1363 391 1709 391 
Q 2188 391 2477 730 
Q 2766 1069 2766 1631 
L 2766 1759 
L 2194 1759 
z
M 3341 1997 
L 3341 0 
L 2766 0 
L 2766 531 
Q 2569 213 2275 61 
Q 1981 -91 1556 -91 
Q 1019 -91 701 211 
Q 384 513 384 1019 
Q 384 1609 779 1909 
Q 1175 2209 1959 2209 
L 2766 2209 
L 2766 2266 
Q 2766 2663 2505 2880 
Q 2244 3097 1772 3097 
Q 1472 3097 1187 3025 
Q 903 2953 641 2809 
L 641 3341 
Q 956 3463 1253 3523 
Q 1550 3584 1831 3584 
Q 2591 3584 2966 3190 
Q 3341 2797 3341 1997 
z
" transform="scale(0.015625)"/>
       <path id="DejaVuSans-6b" d="M 581 4863 
L 1159 4863 
L 1159 1991 
L 2875 3500 
L 3609 3500 
L 1753 1863 
L 3688 0 
L 2938 0 
L 1159 1709 
L 1159 0 
L 581 0 
L 581 4863 
z
" transform="scale(0.015625)"/>
       <path id="DejaVuSans-4d" d="M 628 4666 
L 1569 4666 
L 2759 1491 
L 3956 4666 
L 4897 4666 
L 4897 0 
L 4281 0 
L 4281 4097 
L 3078 897 
L 2444 897 
L 1241 4097 
L 1241 0 
L 628 0 
L 628 4666 
z
" transform="scale(0.015625)"/>
       <path id="DejaVuSans-6e" d="M 3513 2113 
L 3513 0 
L 2938 0 
L 2938 2094 
Q 2938 2591 2744 2837 
Q 2550 3084 2163 3084 
Q 1697 3084 1428 2787 
Q 1159 2491 1159 1978 
L 1159 0 
L 581 0 
L 581 3500 
L 1159 3500 
L 1159 2956 
Q 1366 3272 1645 3428 
Q 1925 3584 2291 3584 
Q 2894 3584 3203 3211 
Q 3513 2838 3513 2113 
z
" transform="scale(0.015625)"/>
       <path id="DejaVuSans-75" d="M 544 1381 
L 544 3500 
L 1119 3500 
L 1119 1403 
Q 1119 906 1312 657 
Q 1506 409 1894 409 
Q 2359 409 2629 706 
Q 2900 1003 2900 1516 
L 2900 3500 
L 3475 3500 
L 3475 0 
L 2900 0 
L 2900 538 
Q 2691 219 2414 64 
Q 2138 -91 1772 -91 
Q 1169 -91 856 284 
Q 544 659 544 1381 
z
M 1991 3584 
L 1991 3584 
z
" transform="scale(0.015625)"/>
      </defs>
      <use xlink:href="#DejaVuSans-50"/>
      <use xlink:href="#DejaVuSans-65" x="56.677734"/>
      <use xlink:href="#DejaVuSans-61" x="118.201172"/>
      <use xlink:href="#DejaVuSans-6b" x="179.480469"/>
      <use xlink:href="#DejaVuSans-20" x="237.390625"/>
      <use xlink:href="#DejaVuSans-4d" x="269.177734"/>
      <use xlink:href="#DejaVuSans-61" x="355.457031"/>
      <use xlink:href="#DejaVuSans-67" x="416.736328"/>
      <use xlink:href="#DejaVuSans-6e" x="480.212891"/>
      <use xlink:href="#DejaVuSans-69" x="543.591797"/>
      <use xlink:href="#DejaVuSans-74" x="571.375"/>
      <use xlink:href="#DejaVuSans-75" x="610.583984"/>
      <use xlink:href="#DejaVuSans-64" x="673.962891"/>
      <use xlink:href="#DejaVuSans-65" x="737.439453"/>
     </g>
    </g>
   </g>
   <g id="line2d_8">
    <path d="M 73.832727 53.870367 
L 107.286315 55.970377 
L 133.029105 61.179571 
L 153.958159 68.937133 
L 171.593254 77.925003 
L 186.831619 87.045798 
L 200.247454 95.65999 
L 212.230511 103.504431 
L 223.05751 110.545975 
L 232.932015 116.854812 
L 242.008147 122.447439 
L 250.405405 127.493466 
L 258.218316 132.212434 
L 265.522943 136.630042 
L 272.3814 140.829374 
L 278.845068 144.815442 
L 284.956934 148.532559 
L 290.753325 152.186779 
L 296.265215 155.540813 
L 301.519232 158.858726 
L 306.53843 163.284991 
L 311.342903 196.484727 
L 315.950273 206.948825 
L 320.376076 207.468419 
L 324.634082 207.933541 
L 328.736551 208.415504 
L 332.694446 208.867611 
L 336.517612 209.324549 
L 340.21492 209.872226 
L 343.794392 210.43539 
L 347.263309 211.08642 
L 350.628296 211.77841 
L 353.895399 212.49972 
L 357.070152 213.307962 
L 360.157633 214.132051 
L 363.162513 214.955956 
L 366.089095 215.856376 
L 368.941357 216.736636 
L 371.722981 217.687329 
L 374.43738 218.594914 
L 377.087728 219.564494 
L 379.676977 220.599146 
L 382.207882 221.560298 
L 384.683014 222.575763 
L 387.104778 223.647652 
L 389.475428 224.778071 
L 391.797075 225.795168 
L 394.071705 226.858099 
L 396.301185 227.779805 
L 398.487273 228.930049 
" clip-path="url(#p9750715a9d)" style="fill: none; stroke-dasharray: 1.5,2.475; stroke-dashoffset: 0; stroke: #98265f; stroke-width: 1.5"/>
   </g>
   <g id="line2d_9">
    <path d="M 73.832727 59.397641 
L 107.286315 77.608197 
L 133.029105 104.9877 
L 153.958159 171.413623 
L 171.593254 193.028199 
L 186.831619 197.120035 
L 200.247454 200.1495 
L 212.230511 202.381977 
L 223.05751 204.069222 
L 232.932015 205.405 
L 242.008147 206.508042 
L 250.405405 207.468404 
L 258.218316 208.354933 
L 265.522943 209.207499 
L 272.3814 210.226061 
L 278.845068 211.432477 
L 284.956934 212.771443 
L 290.753325 214.296195 
L 296.265215 215.881872 
L 301.519232 217.622532 
L 306.53843 219.43235 
L 311.342903 221.261683 
L 315.950273 223.138596 
L 320.376076 225.119359 
L 324.634082 226.995595 
L 328.736551 229.022592 
L 332.694446 230.981553 
L 336.517612 232.83395 
L 340.21492 234.794099 
L 343.794392 236.599765 
L 347.263309 238.491582 
L 350.628296 240.326532 
L 353.895399 242.087916 
L 357.070152 243.914589 
L 360.157633 245.646534 
L 363.162513 247.268699 
L 366.089095 248.936064 
L 368.941357 250.475052 
L 371.722981 252.049998 
L 374.43738 253.479746 
L 377.087728 254.937094 
L 379.676977 256.42153 
L 382.207882 257.742161 
L 384.683014 259.082606 
L 387.104778 260.442341 
L 389.475428 261.820782 
L 391.797075 263.016696 
L 394.071705 264.225422 
L 396.301185 265.242127 
L 398.487273 266.473035 
" clip-path="url(#p9750715a9d)" style="fill: none; stroke-dasharray: 1.5,2.475; stroke-dashoffset: 0; stroke: #aa2a6a; stroke-width: 1.5"/>
   </g>
   <g id="line2d_10">
    <path d="M 73.832727 59.341446 
L 107.286315 78.421778 
L 133.029105 106.350724 
L 153.958159 185.806952 
L 171.593254 192.917235 
L 186.831619 197.024826 
L 200.247454 200.070492 
L 212.230511 202.316548 
L 223.05751 204.013768 
L 232.932015 205.356055 
L 242.008147 206.462714 
L 250.405405 207.424631 
L 258.218316 208.311371 
L 265.522943 209.158117 
L 272.3814 210.162207 
L 278.845068 211.354135 
L 284.956934 212.679157 
L 290.753325 214.189977 
L 296.265215 215.762846 
L 301.519232 217.491031 
L 306.53843 219.289341 
L 311.342903 221.108336 
L 315.950273 222.975818 
L 320.376076 224.947776 
L 324.634082 226.816645 
L 328.736551 228.836649 
L 332.694446 230.789724 
L 336.517612 232.637285 
L 340.21492 234.593036 
L 343.794392 236.395265 
L 347.263309 238.284075 
L 350.628296 240.116661 
L 353.895399 241.876263 
L 357.070152 243.701567 
L 360.157633 245.432647 
L 363.162513 247.05437 
L 366.089095 248.721638 
L 368.941357 250.260848 
L 371.722981 251.836323 
L 374.43738 253.266806 
L 377.087728 254.725149 
L 379.676977 256.210845 
L 382.207882 257.532803 
L 384.683014 258.874789 
L 387.104778 260.236284 
L 389.475428 261.616705 
L 391.797075 262.814497 
L 394.071705 264.025267 
L 396.301185 265.043805 
L 398.487273 266.27707 
" clip-path="url(#p9750715a9d)" style="fill: none; stroke-dasharray: 1.5,2.475; stroke-dashoffset: 0; stroke: #bd2f76; stroke-width: 1.5"/>
   </g>
   <g id="line2d_11">
    <path d="M 73.832727 59.383103 
L 107.286315 76.9972 
L 133.029105 104.051338 
L 153.958159 158.758993 
L 171.593254 192.957445 
L 186.831619 197.056222 
L 200.247454 200.092985 
L 212.230511 202.338608 
L 223.05751 204.035959 
L 232.932015 205.368481 
L 242.008147 206.472721 
L 250.405405 207.443641 
L 258.218316 208.328845 
L 265.522943 209.179293 
L 272.3814 210.176896 
L 278.845068 211.370921 
L 284.956934 212.717097 
L 290.753325 214.199002 
L 296.265215 215.817113 
L 301.519232 217.530737 
L 306.53843 219.290488 
L 311.342903 221.161538 
L 315.950273 223.032779 
L 320.376076 224.951237 
L 324.634082 226.889336 
L 328.736551 228.81788 
L 332.694446 230.767891 
L 336.517612 232.720536 
L 340.21492 234.58794 
L 343.794392 236.484238 
L 347.263309 238.325398 
L 350.628296 240.171267 
L 353.895399 241.931457 
L 357.070152 243.672842 
L 360.157633 245.387038 
L 363.162513 247.065857 
L 366.089095 248.701376 
L 368.941357 250.286002 
L 371.722981 251.812531 
L 374.43738 253.37267 
L 377.087728 254.865341 
L 379.676977 256.28424 
L 382.207882 257.623574 
L 384.683014 258.983397 
L 387.104778 260.256334 
L 389.475428 261.545788 
L 391.797075 262.741846 
L 394.071705 263.950893 
L 396.301185 265.06089 
L 398.487273 266.180827 
" clip-path="url(#p9750715a9d)" style="fill: none; stroke-dasharray: 1.5,2.475; stroke-dashoffset: 0; stroke: #ce3a84; stroke-width: 1.5"/>
   </g>
   <g id="line2d_12">
    <path d="M 73.832727 59.3287 
L 107.286315 77.658817 
L 133.029105 105.21475 
L 153.958159 174.113233 
L 171.593254 192.879271 
L 186.831619 196.992214 
L 200.247454 200.043409 
L 212.230511 202.294114 
L 223.05751 203.994764 
L 232.932015 205.339295 
L 242.008147 206.447212 
L 250.405405 207.409676 
L 258.218316 208.296499 
L 265.522943 209.141434 
L 272.3814 210.140595 
L 278.845068 211.327586 
L 284.956934 212.647854 
L 290.753325 214.153918 
L 296.265215 215.722412 
L 301.519232 217.446334 
L 306.53843 219.240707 
L 311.342903 221.056163 
L 315.950273 222.920415 
L 320.376076 224.889353 
L 324.634082 226.755694 
L 328.736551 228.773296 
L 332.694446 230.724347 
L 336.517612 232.570243 
L 340.21492 234.524478 
L 343.794392 236.32552 
L 347.263309 238.21329 
L 350.628296 240.045056 
L 353.895399 241.804037 
L 357.070152 243.628861 
L 360.157633 245.359634 
L 363.162513 246.981195 
L 366.089095 248.64842 
L 368.941357 250.187696 
L 371.722981 251.763342 
L 374.43738 253.194069 
L 377.087728 254.652743 
L 379.676977 256.138862 
L 382.207882 257.461266 
L 384.683014 258.803772 
L 387.104778 260.165862 
L 389.475428 261.546953 
L 391.797075 262.745381 
L 394.071705 263.956844 
L 396.301185 264.976005 
L 398.487273 266.210069 
" clip-path="url(#p9750715a9d)" style="fill: none; stroke-dasharray: 1.5,2.475; stroke-dashoffset: 0; stroke: #d45394; stroke-width: 1.5"/>
   </g>
   <g id="line2d_13">
    <path d="M 73.832727 59.390283 
L 107.286315 76.640072 
L 133.029105 103.492555 
L 153.958159 149.394312 
L 171.593254 192.963372 
L 186.831619 197.064432 
L 200.247454 200.10337 
L 212.230511 202.343777 
L 223.05751 204.036842 
L 232.932015 205.376412 
L 242.008147 206.481557 
L 250.405405 207.44282 
L 258.218316 208.329465 
L 265.522943 209.178537 
L 272.3814 210.188632 
L 278.845068 211.386573 
L 284.956934 212.717385 
L 290.753325 214.233991 
L 296.265215 215.812181 
L 301.519232 217.545551 
L 306.53843 219.348645 
L 311.342903 221.17194 
L 315.950273 223.043346 
L 320.376076 225.018968 
L 324.634082 226.890904 
L 328.736551 228.913821 
L 332.694446 230.869348 
L 336.517612 232.718925 
L 340.21492 234.676511 
L 343.794392 236.480175 
L 347.263309 238.370241 
L 350.628296 240.203817 
L 353.895399 241.964165 
L 357.070152 243.790045 
L 360.157633 245.52149 
L 363.162513 247.143402 
L 366.089095 248.810716 
L 368.941357 250.349839 
L 371.722981 251.925099 
L 374.43738 253.355281 
L 377.087728 254.813215 
L 379.676977 256.298392 
L 382.207882 257.619802 
L 384.683014 258.961151 
L 387.104778 260.321919 
L 389.475428 261.70152 
L 391.797075 262.898534 
L 394.071705 264.108458 
L 396.301185 265.126237 
L 398.487273 266.358525 
" clip-path="url(#p9750715a9d)" style="fill: none; stroke-dasharray: 1.5,2.475; stroke-dashoffset: 0; stroke: #db6fa5; stroke-width: 1.5"/>
   </g>
   <g id="line2d_14">
    <path d="M 73.832727 59.368314 
L 107.286315 77.083716 
L 133.029105 104.257752 
L 153.958159 161.098287 
L 171.593254 192.928848 
L 186.831619 197.034799 
L 200.247454 200.078772 
L 212.230511 202.323405 
L 223.05751 204.019579 
L 232.932015 205.36118 
L 242.008147 206.467457 
L 250.405405 207.429208 
L 258.218316 208.315924 
L 265.522943 209.163243 
L 272.3814 210.168843 
L 278.845068 211.362283 
L 284.956934 212.688762 
L 290.753325 214.201037 
L 296.265215 215.775245 
L 301.519232 217.504735 
L 306.53843 219.304249 
L 311.342903 221.124327 
L 315.950273 222.992797 
L 320.376076 224.965678 
L 324.634082 226.835319 
L 328.736551 228.856057 
L 332.694446 230.80975 
L 336.517612 232.65782 
L 340.21492 234.614033 
L 343.794392 236.416624 
L 347.263309 238.305752 
L 350.628296 240.138588 
L 353.895399 241.898378 
L 357.070152 243.723828 
L 360.157633 245.455 
L 363.162513 247.076772 
L 366.089095 248.744052 
L 368.941357 250.283241 
L 371.722981 251.858662 
L 374.43738 253.289071 
L 377.087728 254.747311 
L 379.676977 256.232877 
L 382.207882 257.554697 
L 384.683014 258.896524 
L 387.104778 260.257836 
L 389.475428 261.638052 
L 391.797075 262.835648 
L 394.071705 264.046206 
L 396.301185 265.064553 
L 398.487273 266.297572 
" clip-path="url(#p9750715a9d)" style="fill: none; stroke-dasharray: 1.5,2.475; stroke-dashoffset: 0; stroke: #e38db8; stroke-width: 1.5"/>
   </g>
   <g id="line2d_15">
    <path d="M 73.832727 59.304008 
L 107.286315 76.725457 
L 133.029105 103.707076 
L 153.958159 154.098858 
L 171.593254 192.853905 
L 186.831619 196.958073 
L 200.247454 200.018559 
L 212.230511 202.277966 
L 223.05751 203.982046 
L 232.932015 205.320499 
L 242.008147 206.427694 
L 250.405405 207.402939 
L 258.218316 208.281785 
L 265.522943 209.127219 
L 272.3814 210.112086 
L 278.845068 211.284382 
L 284.956934 212.633464 
L 290.753325 214.089632 
L 296.265215 215.695534 
L 301.519232 217.385459 
L 306.53843 219.181552 
L 311.342903 221.00762 
L 315.950273 222.859264 
L 320.376076 224.799199 
L 324.634082 226.69782 
L 328.736551 228.631924 
L 332.694446 230.581898 
L 336.517612 232.527277 
L 340.21492 234.447178 
L 343.794392 236.320718 
L 347.263309 238.127416 
L 350.628296 239.931165 
L 353.895399 241.722641 
L 357.070152 243.49256 
L 360.157633 245.231782 
L 363.162513 246.931397 
L 366.089095 248.484433 
L 368.941357 250.076983 
L 371.722981 251.605548 
L 374.43738 253.168083 
L 377.087728 254.656624 
L 379.676977 256.064454 
L 382.207882 257.385437 
L 384.683014 258.726543 
L 387.104778 260.08726 
L 389.475428 261.351318 
L 391.797075 262.513925 
L 394.071705 263.807103 
L 396.301185 264.87591 
L 398.487273 266.074368 
" clip-path="url(#p9750715a9d)" style="fill: none; stroke-dasharray: 1.5,2.475; stroke-dashoffset: 0; stroke: #ebb0ce; stroke-width: 1.5"/>
   </g>
   <g id="line2d_16">
    <path d="M 73.832727 59.406677 
L 107.286315 77.010168 
L 133.029105 104.070184 
L 153.958159 158.726548 
L 171.593254 192.977106 
L 186.831619 197.074981 
L 200.247454 200.105656 
L 212.230511 202.347364 
L 223.05751 204.043669 
L 232.932015 205.373955 
L 242.008147 206.482367 
L 250.405405 207.452369 
L 258.218316 208.337705 
L 265.522943 209.18843 
L 272.3814 210.191519 
L 278.845068 211.374177 
L 284.956934 212.726443 
L 290.753325 214.229306 
L 296.265215 215.835313 
L 301.519232 217.524707 
L 306.53843 219.334822 
L 311.342903 221.18899 
L 315.950273 223.095479 
L 320.376076 225.01965 
L 324.634082 226.924612 
L 328.736551 228.843433 
L 332.694446 230.828295 
L 336.517612 232.707684 
L 340.21492 234.61354 
L 343.794392 236.534888 
L 347.263309 238.366678 
L 350.628296 240.183083 
L 353.895399 241.973098 
L 357.070152 243.725903 
L 360.157633 245.430981 
L 363.162513 247.189717 
L 366.089095 248.772446 
L 368.941357 250.395788 
L 371.722981 251.93917 
L 374.43738 253.394194 
L 377.087728 254.877912 
L 379.676977 256.262734 
L 382.207882 257.670729 
L 384.683014 258.970366 
L 387.104778 260.288218 
L 389.475428 261.623756 
L 391.797075 262.840375 
L 394.071705 264.070371 
L 396.301185 265.174517 
L 398.487273 266.288437 
" clip-path="url(#p9750715a9d)" style="fill: none; stroke-dasharray: 1.5,2.475; stroke-dashoffset: 0; stroke: #f5d6e6; stroke-width: 1.5"/>
   </g>
   <g id="line2d_17">
    <path d="M 73.832727 53.568 
L 107.286315 54.00119 
L 133.029105 55.295008 
L 153.958159 57.432356 
L 171.593254 60.385274 
L 186.831619 64.115701 
L 200.247454 68.576512 
L 212.230511 73.712746 
L 223.05751 79.463009 
L 232.932015 85.760956 
L 242.008147 92.536823 
L 250.405405 99.71894 
L 258.218316 107.235172 
L 265.522943 115.014253 
L 272.3814 122.986975 
L 278.845068 131.087216 
L 284.956934 139.252777 
L 290.753325 147.42604 
L 296.265215 155.55445 
L 301.519232 163.590813 
L 306.53843 171.493448 
L 311.342903 179.226193 
L 315.950273 186.758299 
L 320.376076 194.064223 
L 324.634082 201.123345 
L 328.736551 207.919633 
L 332.694446 214.441264 
L 336.517612 220.680226 
L 340.21492 226.63191 
L 343.794392 232.294706 
L 347.263309 237.669606 
L 350.628296 242.759831 
L 353.895399 247.570476 
L 357.070152 252.108188 
L 360.157633 256.380866 
L 363.162513 260.397395 
L 366.089095 264.167406 
L 368.941357 267.701068 
L 371.722981 271.008903 
L 374.43738 274.101634 
L 377.087728 276.990046 
L 379.676977 279.684874 
L 382.207882 282.196716 
L 384.683014 284.535951 
L 387.104778 286.712682 
L 389.475428 288.736687 
L 391.797075 290.617388 
L 394.071705 292.363819 
L 396.301185 293.984615 
L 398.487273 295.488 
" clip-path="url(#p9750715a9d)" style="fill: none; stroke-dasharray: 5.55,2.4; stroke-dashoffset: 0; stroke: #000000; stroke-width: 1.5"/>
   </g>
   <g id="patch_3">
    <path d="M 57.6 307.584 
L 57.6 41.472 
" style="fill: none; stroke: #ffffff; stroke-width: 1.25; stroke-linejoin: miter; stroke-linecap: square"/>
   </g>
   <g id="patch_4">
    <path d="M 57.6 307.584 
L 414.72 307.584 
" style="fill: none; stroke: #ffffff; stroke-width: 1.25; stroke-linejoin: miter; stroke-linecap: square"/>
   </g>
   <g id="text_10">
    <!-- T5_b Peak Velocity Response -->
    <g style="fill: #262626" transform="translate(149.549062 35.472) scale(0.12 -0.12)">
     <defs>
      <path id="DejaVuSans-54" d="M -19 4666 
L 3928 4666 
L 3928 4134 
L 2272 4134 
L 2272 0 
L 1638 0 
L 1638 4134 
L -19 4134 
L -19 4666 
z
" transform="scale(0.015625)"/>
      <path id="DejaVuSans-35" d="M 691 4666 
L 3169 4666 
L 3169 4134 
L 1269 4134 
L 1269 2991 
Q 1406 3038 1543 3061 
Q 1681 3084 1819 3084 
Q 2600 3084 3056 2656 
Q 3513 2228 3513 1497 
Q 3513 744 3044 326 
Q 2575 -91 1722 -91 
Q 1428 -91 1123 -41 
Q 819 9 494 109 
L 494 744 
Q 775 591 1075 516 
Q 1375 441 1709 441 
Q 2250 441 2565 725 
Q 2881 1009 2881 1497 
Q 2881 1984 2565 2268 
Q 2250 2553 1709 2553 
Q 1456 2553 1204 2497 
Q 953 2441 691 2322 
L 691 4666 
z
" transform="scale(0.015625)"/>
      <path id="DejaVuSans-5f" d="M 3263 -1063 
L 3263 -1509 
L -63 -1509 
L -63 -1063 
L 3263 -1063 
z
" transform="scale(0.015625)"/>
      <path id="DejaVuSans-62" d="M 3116 1747 
Q 3116 2381 2855 2742 
Q 2594 3103 2138 3103 
Q 1681 3103 1420 2742 
Q 1159 2381 1159 1747 
Q 1159 1113 1420 752 
Q 1681 391 2138 391 
Q 2594 391 2855 752 
Q 3116 1113 3116 1747 
z
M 1159 2969 
Q 1341 3281 1617 3432 
Q 1894 3584 2278 3584 
Q 2916 3584 3314 3078 
Q 3713 2572 3713 1747 
Q 3713 922 3314 415 
Q 2916 -91 2278 -91 
Q 1894 -91 1617 61 
Q 1341 213 1159 525 
L 1159 0 
L 581 0 
L 581 4863 
L 1159 4863 
L 1159 2969 
z
" transform="scale(0.015625)"/>
      <path id="DejaVuSans-52" d="M 2841 2188 
Q 3044 2119 3236 1894 
Q 3428 1669 3622 1275 
L 4263 0 
L 3584 0 
L 2988 1197 
Q 2756 1666 2539 1819 
Q 2322 1972 1947 1972 
L 1259 1972 
L 1259 0 
L 628 0 
L 628 4666 
L 2053 4666 
Q 2853 4666 3247 4331 
Q 3641 3997 3641 3322 
Q 3641 2881 3436 2590 
Q 3231 2300 2841 2188 
z
M 1259 4147 
L 1259 2491 
L 2053 2491 
Q 2509 2491 2742 2702 
Q 2975 2913 2975 3322 
Q 2975 3731 2742 3939 
Q 2509 4147 2053 4147 
L 1259 4147 
z
" transform="scale(0.015625)"/>
      <path id="DejaVuSans-70" d="M 1159 525 
L 1159 -1331 
L 581 -1331 
L 581 3500 
L 1159 3500 
L 1159 2969 
Q 1341 3281 1617 3432 
Q 1894 3584 2278 3584 
Q 2916 3584 3314 3078 
Q 3713 2572 3713 1747 
Q 3713 922 3314 415 
Q 2916 -91 2278 -91 
Q 1894 -91 1617 61 
Q 1341 213 1159 525 
z
M 3116 1747 
Q 3116 2381 2855 2742 
Q 2594 3103 2138 3103 
Q 1681 3103 1420 2742 
Q 1159 2381 1159 1747 
Q 1159 1113 1420 752 
Q 1681 391 2138 391 
Q 2594 391 2855 752 
Q 3116 1113 3116 1747 
z
" transform="scale(0.015625)"/>
     </defs>
     <use xlink:href="#DejaVuSans-54"/>
     <use xlink:href="#DejaVuSans-35" x="61.083984"/>
     <use xlink:href="#DejaVuSans-5f" x="124.707031"/>
     <use xlink:href="#DejaVuSans-62" x="174.707031"/>
     <use xlink:href="#DejaVuSans-20" x="238.183594"/>
     <use xlink:href="#DejaVuSans-50" x="269.970703"/>
     <use xlink:href="#DejaVuSans-65" x="326.648438"/>
     <use xlink:href="#DejaVuSans-61" x="388.171875"/>
     <use xlink:href="#DejaVuSans-6b" x="449.451172"/>
     <use xlink:href="#DejaVuSans-20" x="507.361328"/>
     <use xlink:href="#DejaVuSans-56" x="539.148438"/>
     <use xlink:href="#DejaVuSans-65" x="599.806641"/>
     <use xlink:href="#DejaVuSans-6c" x="661.330078"/>
     <use xlink:href="#DejaVuSans-6f" x="689.113281"/>
     <use xlink:href="#DejaVuSans-63" x="750.294922"/>
     <use xlink:href="#DejaVuSans-69" x="805.275391"/>
     <use xlink:href="#DejaVuSans-74" x="833.058594"/>
     <use xlink:href="#DejaVuSans-79" x="872.267578"/>
     <use xlink:href="#DejaVuSans-20" x="931.447266"/>
     <use xlink:href="#DejaVuSans-52" x="963.234375"/>
     <use xlink:href="#DejaVuSans-65" x="1028.216797"/>
     <use xlink:href="#DejaVuSans-73" x="1089.740234"/>
     <use xlink:href="#DejaVuSans-70" x="1141.839844"/>
     <use xlink:href="#DejaVuSans-6f" x="1205.316406"/>
     <use xlink:href="#DejaVuSans-6e" x="1266.498047"/>
     <use xlink:href="#DejaVuSans-73" x="1329.876953"/>
     <use xlink:href="#DejaVuSans-65" x="1381.976562"/>
    </g>
   </g>
   <g id="legend_1">
    <g id="patch_5">
     <path d="M 65.3 302.084 
L 125.550781 302.084 
Q 127.750781 302.084 127.750781 299.884 
L 127.750781 123.378687 
Q 127.750781 121.178687 125.550781 121.178687 
L 65.3 121.178687 
Q 63.1 121.178687 63.1 123.378687 
L 63.1 299.884 
Q 63.1 302.084 65.3 302.084 
z
" style="fill: #eaeaf2; opacity: 0.8; stroke: #cccccc; stroke-linejoin: miter"/>
    </g>
    <g id="line2d_18">
     <path d="M 67.5 130.086969 
L 78.5 130.086969 
L 89.5 130.086969 
" style="fill: none; stroke: #882255; stroke-width: 3; stroke-linecap: round"/>
    </g>
    <g id="text_11">
     <!-- 0 -->
     <g style="fill: #262626" transform="translate(98.3 133.936969) scale(0.11 -0.11)">
      <use xlink:href="#DejaVuSans-30"/>
     </g>
    </g>
    <g id="line2d_19">
     <path d="M 67.5 146.232906 
L 78.5 146.232906 
L 89.5 146.232906 
" style="fill: none; stroke-dasharray: 1.5,2.475; stroke-dashoffset: 0; stroke: #98265f; stroke-width: 1.5"/>
    </g>
    <g id="text_12">
     <!-- 1 -->
     <g style="fill: #262626" transform="translate(98.3 150.082906) scale(0.11 -0.11)">
      <use xlink:href="#DejaVuSans-31"/>
     </g>
    </g>
    <g id="line2d_20">
     <path d="M 67.5 162.378844 
L 78.5 162.378844 
L 89.5 162.378844 
" style="fill: none; stroke-dasharray: 1.5,2.475; stroke-dashoffset: 0; stroke: #aa2a6a; stroke-width: 1.5"/>
    </g>
    <g id="text_13">
     <!-- 2 -->
     <g style="fill: #262626" transform="translate(98.3 166.228844) scale(0.11 -0.11)">
      <use xlink:href="#DejaVuSans-32"/>
     </g>
    </g>
    <g id="line2d_21">
     <path d="M 67.5 178.524781 
L 78.5 178.524781 
L 89.5 178.524781 
" style="fill: none; stroke-dasharray: 1.5,2.475; stroke-dashoffset: 0; stroke: #bd2f76; stroke-width: 1.5"/>
    </g>
    <g id="text_14">
     <!-- 3 -->
     <g style="fill: #262626" transform="translate(98.3 182.374781) scale(0.11 -0.11)">
      <defs>
       <path id="DejaVuSans-33" d="M 2597 2516 
Q 3050 2419 3304 2112 
Q 3559 1806 3559 1356 
Q 3559 666 3084 287 
Q 2609 -91 1734 -91 
Q 1441 -91 1130 -33 
Q 819 25 488 141 
L 488 750 
Q 750 597 1062 519 
Q 1375 441 1716 441 
Q 2309 441 2620 675 
Q 2931 909 2931 1356 
Q 2931 1769 2642 2001 
Q 2353 2234 1838 2234 
L 1294 2234 
L 1294 2753 
L 1863 2753 
Q 2328 2753 2575 2939 
Q 2822 3125 2822 3475 
Q 2822 3834 2567 4026 
Q 2313 4219 1838 4219 
Q 1578 4219 1281 4162 
Q 984 4106 628 3988 
L 628 4550 
Q 988 4650 1302 4700 
Q 1616 4750 1894 4750 
Q 2613 4750 3031 4423 
Q 3450 4097 3450 3541 
Q 3450 3153 3228 2886 
Q 3006 2619 2597 2516 
z
" transform="scale(0.015625)"/>
      </defs>
      <use xlink:href="#DejaVuSans-33"/>
     </g>
    </g>
    <g id="line2d_22">
     <path d="M 67.5 194.670719 
L 78.5 194.670719 
L 89.5 194.670719 
" style="fill: none; stroke-dasharray: 1.5,2.475; stroke-dashoffset: 0; stroke: #ce3a84; stroke-width: 1.5"/>
    </g>
    <g id="text_15">
     <!-- 4 -->
     <g style="fill: #262626" transform="translate(98.3 198.520719) scale(0.11 -0.11)">
      <use xlink:href="#DejaVuSans-34"/>
     </g>
    </g>
    <g id="line2d_23">
     <path d="M 67.5 210.816656 
L 78.5 210.816656 
L 89.5 210.816656 
" style="fill: none; stroke-dasharray: 1.5,2.475; stroke-dashoffset: 0; stroke: #d45394; stroke-width: 1.5"/>
    </g>
    <g id="text_16">
     <!-- 5 -->
     <g style="fill: #262626" transform="translate(98.3 214.666656) scale(0.11 -0.11)">
      <use xlink:href="#DejaVuSans-35"/>
     </g>
    </g>
    <g id="line2d_24">
     <path d="M 67.5 226.962594 
L 78.5 226.962594 
L 89.5 226.962594 
" style="fill: none; stroke-dasharray: 1.5,2.475; stroke-dashoffset: 0; stroke: #db6fa5; stroke-width: 1.5"/>
    </g>
    <g id="text_17">
     <!-- 6 -->
     <g style="fill: #262626" transform="translate(98.3 230.812594) scale(0.11 -0.11)">
      <use xlink:href="#DejaVuSans-36"/>
     </g>
    </g>
    <g id="line2d_25">
     <path d="M 67.5 243.108531 
L 78.5 243.108531 
L 89.5 243.108531 
" style="fill: none; stroke-dasharray: 1.5,2.475; stroke-dashoffset: 0; stroke: #e38db8; stroke-width: 1.5"/>
    </g>
    <g id="text_18">
     <!-- 7 -->
     <g style="fill: #262626" transform="translate(98.3 246.958531) scale(0.11 -0.11)">
      <defs>
       <path id="DejaVuSans-37" d="M 525 4666 
L 3525 4666 
L 3525 4397 
L 1831 0 
L 1172 0 
L 2766 4134 
L 525 4134 
L 525 4666 
z
" transform="scale(0.015625)"/>
      </defs>
      <use xlink:href="#DejaVuSans-37"/>
     </g>
    </g>
    <g id="line2d_26">
     <path d="M 67.5 259.254469 
L 78.5 259.254469 
L 89.5 259.254469 
" style="fill: none; stroke-dasharray: 1.5,2.475; stroke-dashoffset: 0; stroke: #ebb0ce; stroke-width: 1.5"/>
    </g>
    <g id="text_19">
     <!-- 8 -->
     <g style="fill: #262626" transform="translate(98.3 263.104469) scale(0.11 -0.11)">
      <use xlink:href="#DejaVuSans-38"/>
     </g>
    </g>
    <g id="line2d_27">
     <path d="M 67.5 275.400406 
L 78.5 275.400406 
L 89.5 275.400406 
" style="fill: none; stroke-dasharray: 1.5,2.475; stroke-dashoffset: 0; stroke: #f5d6e6; stroke-width: 1.5"/>
    </g>
    <g id="text_20">
     <!-- 9 -->
     <g style="fill: #262626" transform="translate(98.3 279.250406) scale(0.11 -0.11)">
      <defs>
       <path id="DejaVuSans-39" d="M 703 97 
L 703 672 
Q 941 559 1184 500 
Q 1428 441 1663 441 
Q 2288 441 2617 861 
Q 2947 1281 2994 2138 
Q 2813 1869 2534 1725 
Q 2256 1581 1919 1581 
Q 1219 1581 811 2004 
Q 403 2428 403 3163 
Q 403 3881 828 4315 
Q 1253 4750 1959 4750 
Q 2769 4750 3195 4129 
Q 3622 3509 3622 2328 
Q 3622 1225 3098 567 
Q 2575 -91 1691 -91 
Q 1453 -91 1209 -44 
Q 966 3 703 97 
z
M 1959 2075 
Q 2384 2075 2632 2365 
Q 2881 2656 2881 3163 
Q 2881 3666 2632 3958 
Q 2384 4250 1959 4250 
Q 1534 4250 1286 3958 
Q 1038 3666 1038 3163 
Q 1038 2656 1286 2365 
Q 1534 2075 1959 2075 
z
" transform="scale(0.015625)"/>
      </defs>
      <use xlink:href="#DejaVuSans-39"/>
     </g>
    </g>
    <g id="line2d_28">
     <path d="M 67.5 291.546344 
L 78.5 291.546344 
L 89.5 291.546344 
" style="fill: none; stroke-dasharray: 5.55,2.4; stroke-dashoffset: 0; stroke: #000000; stroke-width: 1.5"/>
    </g>
    <g id="text_21">
     <!-- Goal -->
     <g style="fill: #262626" transform="translate(98.3 295.396344) scale(0.11 -0.11)">
      <defs>
       <path id="DejaVuSans-47" d="M 3809 666 
L 3809 1919 
L 2778 1919 
L 2778 2438 
L 4434 2438 
L 4434 434 
Q 4069 175 3628 42 
Q 3188 -91 2688 -91 
Q 1594 -91 976 548 
Q 359 1188 359 2328 
Q 359 3472 976 4111 
Q 1594 4750 2688 4750 
Q 3144 4750 3555 4637 
Q 3966 4525 4313 4306 
L 4313 3634 
Q 3963 3931 3569 4081 
Q 3175 4231 2741 4231 
Q 1884 4231 1454 3753 
Q 1025 3275 1025 2328 
Q 1025 1384 1454 906 
Q 1884 428 2741 428 
Q 3075 428 3337 486 
Q 3600 544 3809 666 
z
" transform="scale(0.015625)"/>
      </defs>
      <use xlink:href="#DejaVuSans-47"/>
      <use xlink:href="#DejaVuSans-6f" x="77.490234"/>
      <use xlink:href="#DejaVuSans-61" x="138.671875"/>
      <use xlink:href="#DejaVuSans-6c" x="199.951172"/>
     </g>
    </g>
   </g>
   <g id="line2d_29">
    <path d="M 73.832727 53.876517 
L 107.286315 55.999369 
L 133.029105 61.226786 
L 153.958159 69.020535 
L 171.593254 78.000385 
L 186.831619 87.100211 
L 200.247454 95.697629 
L 212.230511 103.550829 
L 223.05751 110.566817 
L 232.932015 116.847048 
L 242.008147 122.443596 
L 250.405405 127.500962 
L 258.218316 132.263436 
L 265.522943 136.681022 
L 272.3814 140.872316 
L 278.845068 144.839996 
L 284.956934 148.675692 
L 290.753325 152.322551 
L 296.265215 155.729843 
L 301.519232 159.041846 
L 306.53843 167.109987 
L 311.342903 202.032206 
L 315.950273 206.986657 
L 320.376076 207.503087 
L 324.634082 207.973704 
L 328.736551 208.440187 
L 332.694446 208.881965 
L 336.517612 209.362557 
L 340.21492 209.909348 
L 343.794392 210.518279 
L 347.263309 211.139234 
L 350.628296 211.847421 
L 353.895399 212.595211 
L 357.070152 213.37187 
L 360.157633 214.165246 
L 363.162513 215.037943 
L 366.089095 215.912767 
L 368.941357 216.864203 
L 371.722981 217.799872 
L 374.43738 218.702906 
L 377.087728 219.666686 
L 379.676977 220.694176 
L 382.207882 221.78838 
L 384.683014 222.687487 
L 387.104778 223.768523 
L 389.475428 224.762827 
L 391.797075 225.803778 
L 394.071705 226.892768 
L 396.301185 228.031162 
L 398.487273 229.047262 
" clip-path="url(#p9750715a9d)" style="fill: none; stroke: #882255; stroke-width: 3; stroke-linecap: round"/>
   </g>
  </g>
 </g>
 <defs>
  <clipPath id="p9750715a9d">
   <rect x="57.6" y="41.472" width="357.12" height="266.112"/>
  </clipPath>
 </defs>
</svg>
