<?xml version="1.0" encoding="utf-8" standalone="no"?>
<!DOCTYPE svg PUBLIC "-//W3C//DTD SVG 1.1//EN"
  "http://www.w3.org/Graphics/SVG/1.1/DTD/svg11.dtd">
<svg xmlns:xlink="http://www.w3.org/1999/xlink" width="460.8pt" height="345.6pt" viewBox="0 0 460.8 345.6" xmlns="http://www.w3.org/2000/svg" version="1.1">
 <metadata>
  <rdf:RDF xmlns:dc="http://purl.org/dc/elements/1.1/" xmlns:cc="http://creativecommons.org/ns#" xmlns:rdf="http://www.w3.org/1999/02/22-rdf-syntax-ns#">
   <cc:Work>
    <dc:type rdf:resource="http://purl.org/dc/dcmitype/StillImage"/>
    <dc:date>2023-03-26T14:52:16.716060</dc:date>
    <dc:format>image/svg+xml</dc:format>
    <dc:creator>
     <cc:Agent>
      <dc:title>Matplotlib v3.7.1, https://matplotlib.org/</dc:title>
     </cc:Agent>
    </dc:creator>
   </cc:Work>
  </rdf:RDF>
 </metadata>
 <defs>
  <style type="text/css">*{stroke-linejoin: round; stroke-linecap: butt}</style>
 </defs>
 <g id="figure_1">
  <g id="patch_1">
   <path d="M 0 345.6 
L 460.8 345.6 
L 460.8 0 
L 0 0 
z
" style="fill: #ffffff"/>
  </g>
  <g id="axes_1">
   <g id="patch_2">
    <path d="M 57.6 307.584 
L 414.72 307.584 
L 414.72 41.472 
L 57.6 41.472 
z
" style="fill: #eaeaf2"/>
   </g>
   <g id="matplotlib.axis_1">
    <g id="xtick_1">
     <g id="line2d_1">
      <path d="M 73.832727 307.584 
L 73.832727 41.472 
" clip-path="url(#p4307236afb)" style="fill: none; stroke: #ffffff; stroke-linecap: round"/>
     </g>
     <g id="text_1">
      <!-- $\mathdefault{10^{1}}$ -->
      <g style="fill: #262626" transform="translate(64.152727 325.442281) scale(0.11 -0.11)">
       <defs>
        <path id="DejaVuSans-31" d="M 794 531 
L 1825 531 
L 1825 4091 
L 703 3866 
L 703 4441 
L 1819 4666 
L 2450 4666 
L 2450 531 
L 3481 531 
L 3481 0 
L 794 0 
L 794 531 
z
" transform="scale(0.015625)"/>
        <path id="DejaVuSans-30" d="M 2034 4250 
Q 1547 4250 1301 3770 
Q 1056 3291 1056 2328 
Q 1056 1369 1301 889 
Q 1547 409 2034 409 
Q 2525 409 2770 889 
Q 3016 1369 3016 2328 
Q 3016 3291 2770 3770 
Q 2525 4250 2034 4250 
z
M 2034 4750 
Q 2819 4750 3233 4129 
Q 3647 3509 3647 2328 
Q 3647 1150 3233 529 
Q 2819 -91 2034 -91 
Q 1250 -91 836 529 
Q 422 1150 422 2328 
Q 422 3509 836 4129 
Q 1250 4750 2034 4750 
z
" transform="scale(0.015625)"/>
       </defs>
       <use xlink:href="#DejaVuSans-31" transform="translate(0 0.684375)"/>
       <use xlink:href="#DejaVuSans-30" transform="translate(63.623047 0.684375)"/>
       <use xlink:href="#DejaVuSans-31" transform="translate(128.203125 38.965625) scale(0.7)"/>
      </g>
     </g>
    </g>
    <g id="xtick_2">
     <g id="line2d_2">
      <path d="M 332.46545 307.584 
L 332.46545 41.472 
" clip-path="url(#p4307236afb)" style="fill: none; stroke: #ffffff; stroke-linecap: round"/>
     </g>
     <g id="text_2">
      <!-- $\mathdefault{10^{2}}$ -->
      <g style="fill: #262626" transform="translate(322.78545 325.442281) scale(0.11 -0.11)">
       <defs>
        <path id="DejaVuSans-32" d="M 1228 531 
L 3431 531 
L 3431 0 
L 469 0 
L 469 531 
Q 828 903 1448 1529 
Q 2069 2156 2228 2338 
Q 2531 2678 2651 2914 
Q 2772 3150 2772 3378 
Q 2772 3750 2511 3984 
Q 2250 4219 1831 4219 
Q 1534 4219 1204 4116 
Q 875 4013 500 3803 
L 500 4441 
Q 881 4594 1212 4672 
Q 1544 4750 1819 4750 
Q 2544 4750 2975 4387 
Q 3406 4025 3406 3419 
Q 3406 3131 3298 2873 
Q 3191 2616 2906 2266 
Q 2828 2175 2409 1742 
Q 1991 1309 1228 531 
z
" transform="scale(0.015625)"/>
       </defs>
       <use xlink:href="#DejaVuSans-31" transform="translate(0 0.765625)"/>
       <use xlink:href="#DejaVuSans-30" transform="translate(63.623047 0.765625)"/>
       <use xlink:href="#DejaVuSans-32" transform="translate(128.203125 39.046875) scale(0.7)"/>
      </g>
     </g>
    </g>
    <g id="xtick_3"/>
    <g id="xtick_4"/>
    <g id="xtick_5"/>
    <g id="xtick_6"/>
    <g id="xtick_7"/>
    <g id="xtick_8"/>
    <g id="xtick_9"/>
    <g id="xtick_10"/>
    <g id="xtick_11"/>
    <g id="xtick_12"/>
    <g id="text_3">
     <!-- Edge Velocity (deg/s) -->
     <g style="fill: #262626" transform="translate(172.5675 340.848062) scale(0.12 -0.12)">
      <defs>
       <path id="DejaVuSans-45" d="M 628 4666 
L 3578 4666 
L 3578 4134 
L 1259 4134 
L 1259 2753 
L 3481 2753 
L 3481 2222 
L 1259 2222 
L 1259 531 
L 3634 531 
L 3634 0 
L 628 0 
L 628 4666 
z
" transform="scale(0.015625)"/>
       <path id="DejaVuSans-64" d="M 2906 2969 
L 2906 4863 
L 3481 4863 
L 3481 0 
L 2906 0 
L 2906 525 
Q 2725 213 2448 61 
Q 2172 -91 1784 -91 
Q 1150 -91 751 415 
Q 353 922 353 1747 
Q 353 2572 751 3078 
Q 1150 3584 1784 3584 
Q 2172 3584 2448 3432 
Q 2725 3281 2906 2969 
z
M 947 1747 
Q 947 1113 1208 752 
Q 1469 391 1925 391 
Q 2381 391 2643 752 
Q 2906 1113 2906 1747 
Q 2906 2381 2643 2742 
Q 2381 3103 1925 3103 
Q 1469 3103 1208 2742 
Q 947 2381 947 1747 
z
" transform="scale(0.015625)"/>
       <path id="DejaVuSans-67" d="M 2906 1791 
Q 2906 2416 2648 2759 
Q 2391 3103 1925 3103 
Q 1463 3103 1205 2759 
Q 947 2416 947 1791 
Q 947 1169 1205 825 
Q 1463 481 1925 481 
Q 2391 481 2648 825 
Q 2906 1169 2906 1791 
z
M 3481 434 
Q 3481 -459 3084 -895 
Q 2688 -1331 1869 -1331 
Q 1566 -1331 1297 -1286 
Q 1028 -1241 775 -1147 
L 775 -588 
Q 1028 -725 1275 -790 
Q 1522 -856 1778 -856 
Q 2344 -856 2625 -561 
Q 2906 -266 2906 331 
L 2906 616 
Q 2728 306 2450 153 
Q 2172 0 1784 0 
Q 1141 0 747 490 
Q 353 981 353 1791 
Q 353 2603 747 3093 
Q 1141 3584 1784 3584 
Q 2172 3584 2450 3431 
Q 2728 3278 2906 2969 
L 2906 3500 
L 3481 3500 
L 3481 434 
z
" transform="scale(0.015625)"/>
       <path id="DejaVuSans-65" d="M 3597 1894 
L 3597 1613 
L 953 1613 
Q 991 1019 1311 708 
Q 1631 397 2203 397 
Q 2534 397 2845 478 
Q 3156 559 3463 722 
L 3463 178 
Q 3153 47 2828 -22 
Q 2503 -91 2169 -91 
Q 1331 -91 842 396 
Q 353 884 353 1716 
Q 353 2575 817 3079 
Q 1281 3584 2069 3584 
Q 2775 3584 3186 3129 
Q 3597 2675 3597 1894 
z
M 3022 2063 
Q 3016 2534 2758 2815 
Q 2500 3097 2075 3097 
Q 1594 3097 1305 2825 
Q 1016 2553 972 2059 
L 3022 2063 
z
" transform="scale(0.015625)"/>
       <path id="DejaVuSans-20" transform="scale(0.015625)"/>
       <path id="DejaVuSans-56" d="M 1831 0 
L 50 4666 
L 709 4666 
L 2188 738 
L 3669 4666 
L 4325 4666 
L 2547 0 
L 1831 0 
z
" transform="scale(0.015625)"/>
       <path id="DejaVuSans-6c" d="M 603 4863 
L 1178 4863 
L 1178 0 
L 603 0 
L 603 4863 
z
" transform="scale(0.015625)"/>
       <path id="DejaVuSans-6f" d="M 1959 3097 
Q 1497 3097 1228 2736 
Q 959 2375 959 1747 
Q 959 1119 1226 758 
Q 1494 397 1959 397 
Q 2419 397 2687 759 
Q 2956 1122 2956 1747 
Q 2956 2369 2687 2733 
Q 2419 3097 1959 3097 
z
M 1959 3584 
Q 2709 3584 3137 3096 
Q 3566 2609 3566 1747 
Q 3566 888 3137 398 
Q 2709 -91 1959 -91 
Q 1206 -91 779 398 
Q 353 888 353 1747 
Q 353 2609 779 3096 
Q 1206 3584 1959 3584 
z
" transform="scale(0.015625)"/>
       <path id="DejaVuSans-63" d="M 3122 3366 
L 3122 2828 
Q 2878 2963 2633 3030 
Q 2388 3097 2138 3097 
Q 1578 3097 1268 2742 
Q 959 2388 959 1747 
Q 959 1106 1268 751 
Q 1578 397 2138 397 
Q 2388 397 2633 464 
Q 2878 531 3122 666 
L 3122 134 
Q 2881 22 2623 -34 
Q 2366 -91 2075 -91 
Q 1284 -91 818 406 
Q 353 903 353 1747 
Q 353 2603 823 3093 
Q 1294 3584 2113 3584 
Q 2378 3584 2631 3529 
Q 2884 3475 3122 3366 
z
" transform="scale(0.015625)"/>
       <path id="DejaVuSans-69" d="M 603 3500 
L 1178 3500 
L 1178 0 
L 603 0 
L 603 3500 
z
M 603 4863 
L 1178 4863 
L 1178 4134 
L 603 4134 
L 603 4863 
z
" transform="scale(0.015625)"/>
       <path id="DejaVuSans-74" d="M 1172 4494 
L 1172 3500 
L 2356 3500 
L 2356 3053 
L 1172 3053 
L 1172 1153 
Q 1172 725 1289 603 
Q 1406 481 1766 481 
L 2356 481 
L 2356 0 
L 1766 0 
Q 1100 0 847 248 
Q 594 497 594 1153 
L 594 3053 
L 172 3053 
L 172 3500 
L 594 3500 
L 594 4494 
L 1172 4494 
z
" transform="scale(0.015625)"/>
       <path id="DejaVuSans-79" d="M 2059 -325 
Q 1816 -950 1584 -1140 
Q 1353 -1331 966 -1331 
L 506 -1331 
L 506 -850 
L 844 -850 
Q 1081 -850 1212 -737 
Q 1344 -625 1503 -206 
L 1606 56 
L 191 3500 
L 800 3500 
L 1894 763 
L 2988 3500 
L 3597 3500 
L 2059 -325 
z
" transform="scale(0.015625)"/>
       <path id="DejaVuSans-28" d="M 1984 4856 
Q 1566 4138 1362 3434 
Q 1159 2731 1159 2009 
Q 1159 1288 1364 580 
Q 1569 -128 1984 -844 
L 1484 -844 
Q 1016 -109 783 600 
Q 550 1309 550 2009 
Q 550 2706 781 3412 
Q 1013 4119 1484 4856 
L 1984 4856 
z
" transform="scale(0.015625)"/>
       <path id="DejaVuSans-2f" d="M 1625 4666 
L 2156 4666 
L 531 -594 
L 0 -594 
L 1625 4666 
z
" transform="scale(0.015625)"/>
       <path id="DejaVuSans-73" d="M 2834 3397 
L 2834 2853 
Q 2591 2978 2328 3040 
Q 2066 3103 1784 3103 
Q 1356 3103 1142 2972 
Q 928 2841 928 2578 
Q 928 2378 1081 2264 
Q 1234 2150 1697 2047 
L 1894 2003 
Q 2506 1872 2764 1633 
Q 3022 1394 3022 966 
Q 3022 478 2636 193 
Q 2250 -91 1575 -91 
Q 1294 -91 989 -36 
Q 684 19 347 128 
L 347 722 
Q 666 556 975 473 
Q 1284 391 1588 391 
Q 1994 391 2212 530 
Q 2431 669 2431 922 
Q 2431 1156 2273 1281 
Q 2116 1406 1581 1522 
L 1381 1569 
Q 847 1681 609 1914 
Q 372 2147 372 2553 
Q 372 3047 722 3315 
Q 1072 3584 1716 3584 
Q 2034 3584 2315 3537 
Q 2597 3491 2834 3397 
z
" transform="scale(0.015625)"/>
       <path id="DejaVuSans-29" d="M 513 4856 
L 1013 4856 
Q 1481 4119 1714 3412 
Q 1947 2706 1947 2009 
Q 1947 1309 1714 600 
Q 1481 -109 1013 -844 
L 513 -844 
Q 928 -128 1133 580 
Q 1338 1288 1338 2009 
Q 1338 2731 1133 3434 
Q 928 4138 513 4856 
z
" transform="scale(0.015625)"/>
      </defs>
      <use xlink:href="#DejaVuSans-45"/>
      <use xlink:href="#DejaVuSans-64" x="63.183594"/>
      <use xlink:href="#DejaVuSans-67" x="126.660156"/>
      <use xlink:href="#DejaVuSans-65" x="190.136719"/>
      <use xlink:href="#DejaVuSans-20" x="251.660156"/>
      <use xlink:href="#DejaVuSans-56" x="283.447266"/>
      <use xlink:href="#DejaVuSans-65" x="344.105469"/>
      <use xlink:href="#DejaVuSans-6c" x="405.628906"/>
      <use xlink:href="#DejaVuSans-6f" x="433.412109"/>
      <use xlink:href="#DejaVuSans-63" x="494.59375"/>
      <use xlink:href="#DejaVuSans-69" x="549.574219"/>
      <use xlink:href="#DejaVuSans-74" x="577.357422"/>
      <use xlink:href="#DejaVuSans-79" x="616.566406"/>
      <use xlink:href="#DejaVuSans-20" x="675.746094"/>
      <use xlink:href="#DejaVuSans-28" x="707.533203"/>
      <use xlink:href="#DejaVuSans-64" x="746.546875"/>
      <use xlink:href="#DejaVuSans-65" x="810.023438"/>
      <use xlink:href="#DejaVuSans-67" x="871.546875"/>
      <use xlink:href="#DejaVuSans-2f" x="935.023438"/>
      <use xlink:href="#DejaVuSans-73" x="968.714844"/>
      <use xlink:href="#DejaVuSans-29" x="1020.814453"/>
     </g>
    </g>
   </g>
   <g id="matplotlib.axis_2">
    <g id="ytick_1">
     <g id="line2d_3">
      <path d="M 57.6 296.621921 
L 414.72 296.621921 
" clip-path="url(#p4307236afb)" style="fill: none; stroke: #ffffff; stroke-linecap: round"/>
     </g>
     <g id="text_4">
      <!-- 1.0 -->
      <g style="fill: #262626" transform="translate(30.606563 300.801062) scale(0.11 -0.11)">
       <defs>
        <path id="DejaVuSans-2e" d="M 684 794 
L 1344 794 
L 1344 0 
L 684 0 
L 684 794 
z
" transform="scale(0.015625)"/>
       </defs>
       <use xlink:href="#DejaVuSans-31"/>
       <use xlink:href="#DejaVuSans-2e" x="63.623047"/>
       <use xlink:href="#DejaVuSans-30" x="95.410156"/>
      </g>
     </g>
    </g>
    <g id="ytick_2">
     <g id="line2d_4">
      <path d="M 57.6 249.74265 
L 414.72 249.74265 
" clip-path="url(#p4307236afb)" style="fill: none; stroke: #ffffff; stroke-linecap: round"/>
     </g>
     <g id="text_5">
      <!-- 1.5 -->
      <g style="fill: #262626" transform="translate(30.606563 253.92179) scale(0.11 -0.11)">
       <defs>
        <path id="DejaVuSans-35" d="M 691 4666 
L 3169 4666 
L 3169 4134 
L 1269 4134 
L 1269 2991 
Q 1406 3038 1543 3061 
Q 1681 3084 1819 3084 
Q 2600 3084 3056 2656 
Q 3513 2228 3513 1497 
Q 3513 744 3044 326 
Q 2575 -91 1722 -91 
Q 1428 -91 1123 -41 
Q 819 9 494 109 
L 494 744 
Q 775 591 1075 516 
Q 1375 441 1709 441 
Q 2250 441 2565 725 
Q 2881 1009 2881 1497 
Q 2881 1984 2565 2268 
Q 2250 2553 1709 2553 
Q 1456 2553 1204 2497 
Q 953 2441 691 2322 
L 691 4666 
z
" transform="scale(0.015625)"/>
       </defs>
       <use xlink:href="#DejaVuSans-31"/>
       <use xlink:href="#DejaVuSans-2e" x="63.623047"/>
       <use xlink:href="#DejaVuSans-35" x="95.410156"/>
      </g>
     </g>
    </g>
    <g id="ytick_3">
     <g id="line2d_5">
      <path d="M 57.6 202.863378 
L 414.72 202.863378 
" clip-path="url(#p4307236afb)" style="fill: none; stroke: #ffffff; stroke-linecap: round"/>
     </g>
     <g id="text_6">
      <!-- 2.0 -->
      <g style="fill: #262626" transform="translate(30.606563 207.042519) scale(0.11 -0.11)">
       <use xlink:href="#DejaVuSans-32"/>
       <use xlink:href="#DejaVuSans-2e" x="63.623047"/>
       <use xlink:href="#DejaVuSans-30" x="95.410156"/>
      </g>
     </g>
    </g>
    <g id="ytick_4">
     <g id="line2d_6">
      <path d="M 57.6 155.984107 
L 414.72 155.984107 
" clip-path="url(#p4307236afb)" style="fill: none; stroke: #ffffff; stroke-linecap: round"/>
     </g>
     <g id="text_7">
      <!-- 2.5 -->
      <g style="fill: #262626" transform="translate(30.606563 160.163247) scale(0.11 -0.11)">
       <use xlink:href="#DejaVuSans-32"/>
       <use xlink:href="#DejaVuSans-2e" x="63.623047"/>
       <use xlink:href="#DejaVuSans-35" x="95.410156"/>
      </g>
     </g>
    </g>
    <g id="ytick_5">
     <g id="line2d_7">
      <path d="M 57.6 109.104835 
L 414.72 109.104835 
" clip-path="url(#p4307236afb)" style="fill: none; stroke: #ffffff; stroke-linecap: round"/>
     </g>
     <g id="text_8">
      <!-- 3.0 -->
      <g style="fill: #262626" transform="translate(30.606563 113.283976) scale(0.11 -0.11)">
       <defs>
        <path id="DejaVuSans-33" d="M 2597 2516 
Q 3050 2419 3304 2112 
Q 3559 1806 3559 1356 
Q 3559 666 3084 287 
Q 2609 -91 1734 -91 
Q 1441 -91 1130 -33 
Q 819 25 488 141 
L 488 750 
Q 750 597 1062 519 
Q 1375 441 1716 441 
Q 2309 441 2620 675 
Q 2931 909 2931 1356 
Q 2931 1769 2642 2001 
Q 2353 2234 1838 2234 
L 1294 2234 
L 1294 2753 
L 1863 2753 
Q 2328 2753 2575 2939 
Q 2822 3125 2822 3475 
Q 2822 3834 2567 4026 
Q 2313 4219 1838 4219 
Q 1578 4219 1281 4162 
Q 984 4106 628 3988 
L 628 4550 
Q 988 4650 1302 4700 
Q 1616 4750 1894 4750 
Q 2613 4750 3031 4423 
Q 3450 4097 3450 3541 
Q 3450 3153 3228 2886 
Q 3006 2619 2597 2516 
z
" transform="scale(0.015625)"/>
       </defs>
       <use xlink:href="#DejaVuSans-33"/>
       <use xlink:href="#DejaVuSans-2e" x="63.623047"/>
       <use xlink:href="#DejaVuSans-30" x="95.410156"/>
      </g>
     </g>
    </g>
    <g id="ytick_6">
     <g id="line2d_8">
      <path d="M 57.6 62.225564 
L 414.72 62.225564 
" clip-path="url(#p4307236afb)" style="fill: none; stroke: #ffffff; stroke-linecap: round"/>
     </g>
     <g id="text_9">
      <!-- 3.5 -->
      <g style="fill: #262626" transform="translate(30.606563 66.404705) scale(0.11 -0.11)">
       <use xlink:href="#DejaVuSans-33"/>
       <use xlink:href="#DejaVuSans-2e" x="63.623047"/>
       <use xlink:href="#DejaVuSans-35" x="95.410156"/>
      </g>
     </g>
    </g>
    <g id="text_10">
     <!-- T5_b / T5_a -->
     <g style="fill: #262626" transform="translate(23.777188 208.813312) rotate(-90) scale(0.12 -0.12)">
      <defs>
       <path id="DejaVuSans-54" d="M -19 4666 
L 3928 4666 
L 3928 4134 
L 2272 4134 
L 2272 0 
L 1638 0 
L 1638 4134 
L -19 4134 
L -19 4666 
z
" transform="scale(0.015625)"/>
       <path id="DejaVuSans-5f" d="M 3263 -1063 
L 3263 -1509 
L -63 -1509 
L -63 -1063 
L 3263 -1063 
z
" transform="scale(0.015625)"/>
       <path id="DejaVuSans-62" d="M 3116 1747 
Q 3116 2381 2855 2742 
Q 2594 3103 2138 3103 
Q 1681 3103 1420 2742 
Q 1159 2381 1159 1747 
Q 1159 1113 1420 752 
Q 1681 391 2138 391 
Q 2594 391 2855 752 
Q 3116 1113 3116 1747 
z
M 1159 2969 
Q 1341 3281 1617 3432 
Q 1894 3584 2278 3584 
Q 2916 3584 3314 3078 
Q 3713 2572 3713 1747 
Q 3713 922 3314 415 
Q 2916 -91 2278 -91 
Q 1894 -91 1617 61 
Q 1341 213 1159 525 
L 1159 0 
L 581 0 
L 581 4863 
L 1159 4863 
L 1159 2969 
z
" transform="scale(0.015625)"/>
       <path id="DejaVuSans-61" d="M 2194 1759 
Q 1497 1759 1228 1600 
Q 959 1441 959 1056 
Q 959 750 1161 570 
Q 1363 391 1709 391 
Q 2188 391 2477 730 
Q 2766 1069 2766 1631 
L 2766 1759 
L 2194 1759 
z
M 3341 1997 
L 3341 0 
L 2766 0 
L 2766 531 
Q 2569 213 2275 61 
Q 1981 -91 1556 -91 
Q 1019 -91 701 211 
Q 384 513 384 1019 
Q 384 1609 779 1909 
Q 1175 2209 1959 2209 
L 2766 2209 
L 2766 2266 
Q 2766 2663 2505 2880 
Q 2244 3097 1772 3097 
Q 1472 3097 1187 3025 
Q 903 2953 641 2809 
L 641 3341 
Q 956 3463 1253 3523 
Q 1550 3584 1831 3584 
Q 2591 3584 2966 3190 
Q 3341 2797 3341 1997 
z
" transform="scale(0.015625)"/>
      </defs>
      <use xlink:href="#DejaVuSans-54"/>
      <use xlink:href="#DejaVuSans-35" x="61.083984"/>
      <use xlink:href="#DejaVuSans-5f" x="124.707031"/>
      <use xlink:href="#DejaVuSans-62" x="174.707031"/>
      <use xlink:href="#DejaVuSans-20" x="238.183594"/>
      <use xlink:href="#DejaVuSans-2f" x="269.970703"/>
      <use xlink:href="#DejaVuSans-20" x="303.662109"/>
      <use xlink:href="#DejaVuSans-54" x="335.449219"/>
      <use xlink:href="#DejaVuSans-35" x="396.533203"/>
      <use xlink:href="#DejaVuSans-5f" x="460.15625"/>
      <use xlink:href="#DejaVuSans-61" x="510.15625"/>
     </g>
    </g>
   </g>
   <g id="line2d_9">
    <path d="M 73.832727 214.196862 
L 107.286315 53.568 
L 133.029105 60.370875 
L 153.958159 70.501756 
L 171.593254 82.239341 
L 186.831619 94.150517 
L 200.247454 105.400101 
L 212.230511 115.644442 
L 223.05751 124.840248 
L 232.932015 133.079187 
L 242.008147 140.3828 
L 250.405405 146.97259 
L 258.218316 153.135261 
L 265.522943 158.904375 
L 272.3814 164.388435 
L 278.845068 169.593984 
L 284.956934 174.448302 
L 290.753325 179.22048 
L 296.265215 183.600635 
L 301.519232 187.933618 
L 306.53843 283.057894 
L 311.342903 254.682332 
L 315.950273 250.753572 
L 320.376076 251.484432 
L 324.634082 252.196436 
L 328.736551 253.024041 
L 332.694446 254.544929 
L 336.517612 256.551087 
L 340.21492 258.626393 
L 343.794392 260.48191 
L 347.263309 262.359847 
L 350.628296 264.11228 
L 353.895399 265.728616 
L 357.070152 267.336405 
L 360.157633 268.797129 
L 363.162513 270.110211 
L 366.089095 271.405903 
L 368.941357 272.554796 
L 371.722981 273.685413 
L 374.43738 274.673685 
L 377.087728 275.645094 
L 379.676977 276.59867 
L 382.207882 277.417736 
L 384.683014 278.221962 
L 387.104778 279.010881 
L 389.475428 279.784082 
L 391.797075 280.434037 
L 394.071705 281.071972 
L 396.301185 281.594275 
L 398.487273 282.20973 
" clip-path="url(#p4307236afb)" style="fill: none; stroke-dasharray: 1.5,2.475; stroke-dashoffset: 0; stroke: #98265f; stroke-width: 1.5"/>
   </g>
   <g id="line2d_10">
    <path d="M 73.832727 184.112915 
L 107.286315 192.66295 
L 133.029105 205.556967 
L 153.958159 295.256421 
L 171.593254 267.748951 
L 186.831619 255.634624 
L 200.247454 245.893642 
L 212.230511 244.731886 
L 223.05751 246.93593 
L 232.932015 248.680854 
L 242.008147 250.124631 
L 250.405405 251.445456 
L 258.218316 252.873792 
L 265.522943 256.036333 
L 272.3814 259.797453 
L 278.845068 263.244061 
L 284.956934 266.273077 
L 290.753325 269.053254 
L 296.265215 271.425435 
L 301.519232 273.597184 
L 306.53843 275.503623 
L 311.342903 277.156426 
L 315.950273 278.63068 
L 320.376076 279.994451 
L 324.634082 281.139701 
L 328.736551 282.246029 
L 332.694446 283.207758 
L 336.517612 284.035222 
L 340.21492 284.836637 
L 343.794392 285.516367 
L 347.263309 286.17594 
L 350.628296 286.770306 
L 353.895399 287.303472 
L 357.070152 287.821776 
L 360.157633 288.28384 
L 363.162513 288.693081 
L 366.089095 289.092035 
L 368.941357 289.442313 
L 371.722981 289.784288 
L 374.43738 290.081308 
L 377.087728 290.371793 
L 379.676977 290.655753 
L 382.207882 290.898876 
L 384.683014 291.137022 
L 387.104778 291.370197 
L 389.475428 291.598409 
L 391.797075 291.790076 
L 394.071705 291.978106 
L 396.301185 292.132022 
L 398.487273 292.313394 
" clip-path="url(#p4307236afb)" style="fill: none; stroke-dasharray: 1.5,2.475; stroke-dashoffset: 0; stroke: #aa2a6a; stroke-width: 1.5"/>
   </g>
   <g id="line2d_11">
    <path d="M 73.832727 250.273266 
L 107.286315 256.866065 
L 133.029105 265.888743 
L 153.958159 294.559201 
L 171.593254 268.042059 
L 186.831619 255.940312 
L 200.247454 246.135051 
L 212.230511 244.646576 
L 223.05751 246.863649 
L 232.932015 248.617073 
L 242.008147 250.064956 
L 250.405405 251.381892 
L 258.218316 252.795923 
L 265.522943 255.825518 
L 272.3814 259.589194 
L 278.845068 263.04441 
L 284.956934 266.084686 
L 290.753325 268.877578 
L 296.265215 271.262057 
L 301.519232 273.446024 
L 306.53843 275.363812 
L 311.342903 277.026848 
L 315.950273 278.510485 
L 320.376076 279.883114 
L 324.634082 281.03591 
L 328.736551 282.149605 
L 332.694446 283.117787 
L 336.517612 283.950831 
L 340.21492 284.757669 
L 343.794392 285.442008 
L 347.263309 286.106058 
L 350.628296 286.704461 
L 353.895399 287.241248 
L 357.070152 287.763069 
L 360.157633 288.228266 
L 363.162513 288.640279 
L 366.089095 289.041932 
L 368.941357 289.394577 
L 371.722981 289.738859 
L 374.43738 290.037881 
L 377.087728 290.33032 
L 379.676977 290.616188 
L 382.207882 290.860942 
L 384.683014 291.100682 
L 387.104778 291.335418 
L 389.475428 291.565155 
L 391.797075 291.758101 
L 394.071705 291.947384 
L 396.301185 292.102325 
L 398.487273 292.284904 
" clip-path="url(#p4307236afb)" style="fill: none; stroke-dasharray: 1.5,2.475; stroke-dashoffset: 0; stroke: #bd2f76; stroke-width: 1.5"/>
   </g>
   <g id="line2d_12">
    <path d="M 73.832727 57.884606 
L 107.286315 80.897196 
L 133.029105 116.243077 
L 153.958159 295.127603 
L 171.593254 267.95134 
L 186.831619 255.860495 
L 200.247454 246.090423 
L 212.230511 244.654123 
L 223.05751 246.87169 
L 232.932015 248.612613 
L 242.008147 250.057658 
L 250.405405 251.388972 
L 258.218316 252.806068 
L 265.522943 255.901431 
L 272.3814 259.625177 
L 278.845068 263.076922 
L 284.956934 266.153066 
L 290.753325 268.883957 
L 296.265215 271.328769 
L 301.519232 273.484258 
L 306.53843 275.357667 
L 311.342903 277.06502 
L 315.950273 278.545995 
L 320.376076 279.878876 
L 324.634082 281.071923 
L 328.736551 282.133697 
L 332.694446 283.101536 
L 336.517612 283.98087 
L 340.21492 284.749998 
L 343.794392 285.46893 
L 347.263309 286.114625 
L 350.628296 286.716369 
L 353.895399 287.252354 
L 357.070152 287.750042 
L 360.157633 288.211383 
L 363.162513 288.638242 
L 366.089095 289.032389 
L 368.941357 289.395502 
L 371.722981 289.72916 
L 374.43738 290.054984 
L 377.087728 290.353343 
L 379.676977 290.625622 
L 382.207882 290.873111 
L 384.683014 291.115466 
L 387.104778 291.334628 
L 389.475428 291.549428 
L 391.797075 291.742501 
L 394.071705 291.931918 
L 396.301185 292.100946 
L 398.487273 292.266958 
" clip-path="url(#p4307236afb)" style="fill: none; stroke-dasharray: 1.5,2.475; stroke-dashoffset: 0; stroke: #ce3a84; stroke-width: 1.5"/>
   </g>
   <g id="line2d_13">
    <path d="M 73.832727 57.862195 
L 107.286315 81.806751 
L 133.029105 117.802953 
L 153.958159 295.488 
L 171.593254 268.141876 
L 186.831619 256.044849 
L 200.247454 246.218158 
L 212.230511 244.617326 
L 223.05751 246.838878 
L 232.932015 248.595233 
L 242.008147 250.044573 
L 250.405405 251.360285 
L 258.218316 252.769566 
L 265.522943 255.753562 
L 272.3814 259.518003 
L 278.845068 262.976094 
L 284.956934 266.02018 
L 290.753325 268.817396 
L 296.265215 271.206069 
L 301.519232 273.39421 
L 306.53843 275.315879 
L 311.342903 276.982417 
L 315.950273 278.469267 
L 320.376076 279.84493 
L 324.634082 281.000314 
L 328.736551 282.116534 
L 332.694446 283.086928 
L 336.517612 283.921885 
L 340.21492 284.730582 
L 343.794392 285.416503 
L 347.263309 286.082088 
L 350.628296 286.681876 
L 353.895399 287.219904 
L 357.070152 287.742932 
L 360.157633 288.209204 
L 363.162513 288.622168 
L 366.089095 289.024747 
L 368.941357 289.378203 
L 371.722981 289.723277 
L 374.43738 290.022985 
L 377.087728 290.316095 
L 379.676977 290.602617 
L 382.207882 290.847931 
L 384.683014 291.088219 
L 387.104778 291.323489 
L 389.475428 291.55375 
L 391.797075 291.747134 
L 394.071705 291.936847 
L 396.301185 292.09214 
L 398.487273 292.275132 
" clip-path="url(#p4307236afb)" style="fill: none; stroke-dasharray: 1.5,2.475; stroke-dashoffset: 0; stroke: #d45394; stroke-width: 1.5"/>
   </g>
   <g id="line2d_14">
    <path d="M 73.832727 57.942365 
L 107.286315 80.475711 
L 133.029105 115.553028 
L 153.958159 294.837401 
L 171.593254 267.920436 
L 186.831619 255.813236 
L 200.247454 246.034403 
L 212.230511 244.682079 
L 223.05751 246.893724 
L 232.932015 248.6436 
L 242.008147 250.089749 
L 250.405405 251.408247 
L 258.218316 252.828145 
L 265.522943 255.913082 
L 272.3814 259.675753 
L 278.845068 263.127427 
L 284.956934 266.163043 
L 290.753325 268.950662 
L 296.265215 271.330035 
L 301.519232 273.508926 
L 306.53843 275.421995 
L 311.342903 277.080776 
L 315.950273 278.56051 
L 320.376076 279.929454 
L 324.634082 281.07911 
L 328.736551 282.18974 
L 332.694446 283.155236 
L 336.517612 283.985958 
L 340.21492 284.790538 
L 343.794392 285.47296 
L 347.263309 286.135146 
L 350.628296 286.731869 
L 353.895399 287.267148 
L 357.070152 287.787505 
L 360.157633 288.251398 
L 363.162513 288.662257 
L 366.089095 289.062787 
L 368.941357 289.414446 
L 371.722981 289.757768 
L 374.43738 290.055957 
L 377.087728 290.347582 
L 379.676977 290.632656 
L 382.207882 290.876731 
L 384.683014 291.115808 
L 387.104778 291.349894 
L 389.475428 291.578997 
L 391.797075 291.77141 
L 394.071705 291.960171 
L 396.301185 292.114686 
L 398.487273 292.296762 
" clip-path="url(#p4307236afb)" style="fill: none; stroke-dasharray: 1.5,2.475; stroke-dashoffset: 0; stroke: #db6fa5; stroke-width: 1.5"/>
   </g>
   <g id="line2d_15">
    <path d="M 73.832727 57.913778 
L 107.286315 81.055346 
L 133.029105 116.552694 
L 153.958159 295.243258 
L 171.593254 268.011474 
L 186.831619 255.908325 
L 200.247454 246.109677 
L 212.230511 244.655516 
L 223.05751 246.871222 
L 232.932015 248.62375 
L 242.008147 250.071194 
L 250.405405 251.388516 
L 258.218316 252.804015 
L 265.522943 255.84755 
L 272.3814 259.61098 
L 278.845068 263.065309 
L 284.956934 266.104415 
L 290.753325 268.895982 
L 296.265215 271.279176 
L 301.519232 273.461866 
L 306.53843 275.378466 
L 311.342903 277.040431 
L 315.950273 278.523085 
L 320.376076 279.894786 
L 324.634082 281.046792 
L 328.736551 282.159714 
L 332.694446 283.12722 
L 336.517612 283.959679 
L 340.21492 284.765948 
L 343.794392 285.449804 
L 347.263309 286.113385 
L 350.628296 286.711365 
L 353.895399 287.247772 
L 357.070152 287.769224 
L 360.157633 288.234093 
L 363.162513 288.645815 
L 366.089095 289.047185 
L 368.941357 289.399581 
L 371.722981 289.743622 
L 374.43738 290.042434 
L 377.087728 290.334668 
L 379.676977 290.620336 
L 382.207882 290.864919 
L 384.683014 291.104492 
L 387.104778 291.339064 
L 389.475428 291.568642 
L 391.797075 291.761453 
L 394.071705 291.950605 
L 396.301185 292.105438 
L 398.487273 292.287891 
" clip-path="url(#p4307236afb)" style="fill: none; stroke-dasharray: 1.5,2.475; stroke-dashoffset: 0; stroke: #e38db8; stroke-width: 1.5"/>
   </g>
   <g id="line2d_16">
    <path d="M 73.832727 57.785419 
L 107.286315 80.546033 
L 133.029105 115.796728 
L 153.958159 295.087884 
L 171.593254 268.222383 
L 186.831619 256.173342 
L 200.247454 246.316878 
L 212.230511 244.576713 
L 223.05751 246.803044 
L 232.932015 248.551694 
L 242.008147 250.000053 
L 250.405405 251.331721 
L 258.218316 252.724296 
L 265.522943 255.678034 
L 272.3814 259.412171 
L 278.845068 262.854413 
L 284.956934 265.981725 
L 290.753325 268.701395 
L 296.265215 271.161264 
L 301.519232 273.316231 
L 306.53843 275.250596 
L 311.342903 276.934485 
L 315.950273 278.417387 
L 320.376076 279.779734 
L 324.634082 280.96059 
L 328.736551 282.036669 
L 332.694446 283.013834 
L 336.517612 283.897947 
L 340.21492 284.694728 
L 343.794392 285.409664 
L 347.263309 286.047934 
L 350.628296 286.640944 
L 353.895399 287.19101 
L 357.070152 287.700358 
L 360.157633 288.171121 
L 363.162513 288.605329 
L 366.089095 288.981685 
L 368.941357 289.349013 
L 371.722981 289.6852 
L 374.43738 290.013481 
L 377.087728 290.312759 
L 379.676977 290.584516 
L 382.207882 290.830129 
L 384.683014 291.070718 
L 387.104778 291.306292 
L 389.475428 291.517836 
L 391.797075 291.706502 
L 394.071705 291.910028 
L 396.301185 292.073431 
L 398.487273 292.251701 
" clip-path="url(#p4307236afb)" style="fill: none; stroke-dasharray: 1.5,2.475; stroke-dashoffset: 0; stroke: #ebb0ce; stroke-width: 1.5"/>
   </g>
   <g id="line2d_17">
    <path d="M 73.832727 57.929487 
L 107.286315 80.927245 
L 133.029105 116.279309 
L 153.958159 295.105602 
L 171.593254 267.894983 
L 186.831619 255.79418 
L 200.247454 246.044592 
L 212.230511 244.671735 
L 223.05751 246.88784 
L 232.932015 248.625769 
L 242.008147 250.076336 
L 250.405405 251.407637 
L 258.218316 252.828035 
L 265.522943 255.944803 
L 272.3814 259.676567 
L 278.845068 263.088311 
L 284.956934 266.174899 
L 290.753325 268.936799 
L 296.265215 271.356093 
L 301.519232 273.479516 
L 306.53843 275.403318 
L 311.342903 277.090269 
L 315.950273 278.594246 
L 320.376076 279.925311 
L 324.634082 281.09422 
L 328.736551 282.148801 
L 332.694446 283.131734 
L 336.517612 283.977029 
L 340.21492 284.761742 
L 343.794392 285.488954 
L 347.263309 286.130127 
L 350.628296 286.721618 
L 353.895399 287.266121 
L 357.070152 287.766203 
L 360.157633 288.224303 
L 363.162513 288.670231 
L 366.089095 289.050447 
L 368.941357 289.421374 
L 371.722981 289.757503 
L 374.43738 290.060693 
L 377.087728 290.357096 
L 379.676977 290.622847 
L 382.207882 290.882915 
L 384.683014 291.114418 
L 387.104778 291.341239 
L 389.475428 291.563386 
L 391.797075 291.759327 
L 394.071705 291.951491 
L 396.301185 292.119137 
L 398.487273 292.283804 
" clip-path="url(#p4307236afb)" style="fill: none; stroke-dasharray: 1.5,2.475; stroke-dashoffset: 0; stroke: #f5d6e6; stroke-width: 1.5"/>
   </g>
   <g id="patch_3">
    <path d="M 57.6 307.584 
L 57.6 41.472 
" style="fill: none; stroke: #ffffff; stroke-width: 1.25; stroke-linejoin: miter; stroke-linecap: square"/>
   </g>
   <g id="patch_4">
    <path d="M 57.6 307.584 
L 414.72 307.584 
" style="fill: none; stroke: #ffffff; stroke-width: 1.25; stroke-linejoin: miter; stroke-linecap: square"/>
   </g>
   <g id="text_11">
    <!-- T5 Velocity Response Ratio -->
    <g style="fill: #262626" transform="translate(155.200312 35.472) scale(0.12 -0.12)">
     <defs>
      <path id="DejaVuSans-52" d="M 2841 2188 
Q 3044 2119 3236 1894 
Q 3428 1669 3622 1275 
L 4263 0 
L 3584 0 
L 2988 1197 
Q 2756 1666 2539 1819 
Q 2322 1972 1947 1972 
L 1259 1972 
L 1259 0 
L 628 0 
L 628 4666 
L 2053 4666 
Q 2853 4666 3247 4331 
Q 3641 3997 3641 3322 
Q 3641 2881 3436 2590 
Q 3231 2300 2841 2188 
z
M 1259 4147 
L 1259 2491 
L 2053 2491 
Q 2509 2491 2742 2702 
Q 2975 2913 2975 3322 
Q 2975 3731 2742 3939 
Q 2509 4147 2053 4147 
L 1259 4147 
z
" transform="scale(0.015625)"/>
      <path id="DejaVuSans-70" d="M 1159 525 
L 1159 -1331 
L 581 -1331 
L 581 3500 
L 1159 3500 
L 1159 2969 
Q 1341 3281 1617 3432 
Q 1894 3584 2278 3584 
Q 2916 3584 3314 3078 
Q 3713 2572 3713 1747 
Q 3713 922 3314 415 
Q 2916 -91 2278 -91 
Q 1894 -91 1617 61 
Q 1341 213 1159 525 
z
M 3116 1747 
Q 3116 2381 2855 2742 
Q 2594 3103 2138 3103 
Q 1681 3103 1420 2742 
Q 1159 2381 1159 1747 
Q 1159 1113 1420 752 
Q 1681 391 2138 391 
Q 2594 391 2855 752 
Q 3116 1113 3116 1747 
z
" transform="scale(0.015625)"/>
      <path id="DejaVuSans-6e" d="M 3513 2113 
L 3513 0 
L 2938 0 
L 2938 2094 
Q 2938 2591 2744 2837 
Q 2550 3084 2163 3084 
Q 1697 3084 1428 2787 
Q 1159 2491 1159 1978 
L 1159 0 
L 581 0 
L 581 3500 
L 1159 3500 
L 1159 2956 
Q 1366 3272 1645 3428 
Q 1925 3584 2291 3584 
Q 2894 3584 3203 3211 
Q 3513 2838 3513 2113 
z
" transform="scale(0.015625)"/>
     </defs>
     <use xlink:href="#DejaVuSans-54"/>
     <use xlink:href="#DejaVuSans-35" x="61.083984"/>
     <use xlink:href="#DejaVuSans-20" x="124.707031"/>
     <use xlink:href="#DejaVuSans-56" x="156.494141"/>
     <use xlink:href="#DejaVuSans-65" x="217.152344"/>
     <use xlink:href="#DejaVuSans-6c" x="278.675781"/>
     <use xlink:href="#DejaVuSans-6f" x="306.458984"/>
     <use xlink:href="#DejaVuSans-63" x="367.640625"/>
     <use xlink:href="#DejaVuSans-69" x="422.621094"/>
     <use xlink:href="#DejaVuSans-74" x="450.404297"/>
     <use xlink:href="#DejaVuSans-79" x="489.613281"/>
     <use xlink:href="#DejaVuSans-20" x="548.792969"/>
     <use xlink:href="#DejaVuSans-52" x="580.580078"/>
     <use xlink:href="#DejaVuSans-65" x="645.5625"/>
     <use xlink:href="#DejaVuSans-73" x="707.085938"/>
     <use xlink:href="#DejaVuSans-70" x="759.185547"/>
     <use xlink:href="#DejaVuSans-6f" x="822.662109"/>
     <use xlink:href="#DejaVuSans-6e" x="883.84375"/>
     <use xlink:href="#DejaVuSans-73" x="947.222656"/>
     <use xlink:href="#DejaVuSans-65" x="999.322266"/>
     <use xlink:href="#DejaVuSans-20" x="1060.845703"/>
     <use xlink:href="#DejaVuSans-52" x="1092.632812"/>
     <use xlink:href="#DejaVuSans-61" x="1159.865234"/>
     <use xlink:href="#DejaVuSans-74" x="1221.144531"/>
     <use xlink:href="#DejaVuSans-69" x="1260.353516"/>
     <use xlink:href="#DejaVuSans-6f" x="1288.136719"/>
    </g>
   </g>
   <g id="legend_1">
    <g id="patch_5">
     <path d="M 364.82125 211.731375 
L 407.02 211.731375 
Q 409.22 211.731375 409.22 209.531375 
L 409.22 49.172 
Q 409.22 46.972 407.02 46.972 
L 364.82125 46.972 
Q 362.62125 46.972 362.62125 49.172 
L 362.62125 209.531375 
Q 362.62125 211.731375 364.82125 211.731375 
z
" style="fill: #eaeaf2; opacity: 0.8; stroke: #cccccc; stroke-linejoin: miter"/>
    </g>
    <g id="line2d_18">
     <path d="M 367.02125 55.880281 
L 378.02125 55.880281 
L 389.02125 55.880281 
" style="fill: none; stroke: #882255; stroke-width: 3; stroke-linecap: round"/>
    </g>
    <g id="text_12">
     <!-- 0 -->
     <g style="fill: #262626" transform="translate(397.82125 59.730281) scale(0.11 -0.11)">
      <use xlink:href="#DejaVuSans-30"/>
     </g>
    </g>
    <g id="line2d_19">
     <path d="M 367.02125 72.026219 
L 378.02125 72.026219 
L 389.02125 72.026219 
" style="fill: none; stroke-dasharray: 1.5,2.475; stroke-dashoffset: 0; stroke: #98265f; stroke-width: 1.5"/>
    </g>
    <g id="text_13">
     <!-- 1 -->
     <g style="fill: #262626" transform="translate(397.82125 75.876219) scale(0.11 -0.11)">
      <use xlink:href="#DejaVuSans-31"/>
     </g>
    </g>
    <g id="line2d_20">
     <path d="M 367.02125 88.172156 
L 378.02125 88.172156 
L 389.02125 88.172156 
" style="fill: none; stroke-dasharray: 1.5,2.475; stroke-dashoffset: 0; stroke: #aa2a6a; stroke-width: 1.5"/>
    </g>
    <g id="text_14">
     <!-- 2 -->
     <g style="fill: #262626" transform="translate(397.82125 92.022156) scale(0.11 -0.11)">
      <use xlink:href="#DejaVuSans-32"/>
     </g>
    </g>
    <g id="line2d_21">
     <path d="M 367.02125 104.318094 
L 378.02125 104.318094 
L 389.02125 104.318094 
" style="fill: none; stroke-dasharray: 1.5,2.475; stroke-dashoffset: 0; stroke: #bd2f76; stroke-width: 1.5"/>
    </g>
    <g id="text_15">
     <!-- 3 -->
     <g style="fill: #262626" transform="translate(397.82125 108.168094) scale(0.11 -0.11)">
      <use xlink:href="#DejaVuSans-33"/>
     </g>
    </g>
    <g id="line2d_22">
     <path d="M 367.02125 120.464031 
L 378.02125 120.464031 
L 389.02125 120.464031 
" style="fill: none; stroke-dasharray: 1.5,2.475; stroke-dashoffset: 0; stroke: #ce3a84; stroke-width: 1.5"/>
    </g>
    <g id="text_16">
     <!-- 4 -->
     <g style="fill: #262626" transform="translate(397.82125 124.314031) scale(0.11 -0.11)">
      <defs>
       <path id="DejaVuSans-34" d="M 2419 4116 
L 825 1625 
L 2419 1625 
L 2419 4116 
z
M 2253 4666 
L 3047 4666 
L 3047 1625 
L 3713 1625 
L 3713 1100 
L 3047 1100 
L 3047 0 
L 2419 0 
L 2419 1100 
L 313 1100 
L 313 1709 
L 2253 4666 
z
" transform="scale(0.015625)"/>
      </defs>
      <use xlink:href="#DejaVuSans-34"/>
     </g>
    </g>
    <g id="line2d_23">
     <path d="M 367.02125 136.609969 
L 378.02125 136.609969 
L 389.02125 136.609969 
" style="fill: none; stroke-dasharray: 1.5,2.475; stroke-dashoffset: 0; stroke: #d45394; stroke-width: 1.5"/>
    </g>
    <g id="text_17">
     <!-- 5 -->
     <g style="fill: #262626" transform="translate(397.82125 140.459969) scale(0.11 -0.11)">
      <use xlink:href="#DejaVuSans-35"/>
     </g>
    </g>
    <g id="line2d_24">
     <path d="M 367.02125 152.755906 
L 378.02125 152.755906 
L 389.02125 152.755906 
" style="fill: none; stroke-dasharray: 1.5,2.475; stroke-dashoffset: 0; stroke: #db6fa5; stroke-width: 1.5"/>
    </g>
    <g id="text_18">
     <!-- 6 -->
     <g style="fill: #262626" transform="translate(397.82125 156.605906) scale(0.11 -0.11)">
      <defs>
       <path id="DejaVuSans-36" d="M 2113 2584 
Q 1688 2584 1439 2293 
Q 1191 2003 1191 1497 
Q 1191 994 1439 701 
Q 1688 409 2113 409 
Q 2538 409 2786 701 
Q 3034 994 3034 1497 
Q 3034 2003 2786 2293 
Q 2538 2584 2113 2584 
z
M 3366 4563 
L 3366 3988 
Q 3128 4100 2886 4159 
Q 2644 4219 2406 4219 
Q 1781 4219 1451 3797 
Q 1122 3375 1075 2522 
Q 1259 2794 1537 2939 
Q 1816 3084 2150 3084 
Q 2853 3084 3261 2657 
Q 3669 2231 3669 1497 
Q 3669 778 3244 343 
Q 2819 -91 2113 -91 
Q 1303 -91 875 529 
Q 447 1150 447 2328 
Q 447 3434 972 4092 
Q 1497 4750 2381 4750 
Q 2619 4750 2861 4703 
Q 3103 4656 3366 4563 
z
" transform="scale(0.015625)"/>
      </defs>
      <use xlink:href="#DejaVuSans-36"/>
     </g>
    </g>
    <g id="line2d_25">
     <path d="M 367.02125 168.901844 
L 378.02125 168.901844 
L 389.02125 168.901844 
" style="fill: none; stroke-dasharray: 1.5,2.475; stroke-dashoffset: 0; stroke: #e38db8; stroke-width: 1.5"/>
    </g>
    <g id="text_19">
     <!-- 7 -->
     <g style="fill: #262626" transform="translate(397.82125 172.751844) scale(0.11 -0.11)">
      <defs>
       <path id="DejaVuSans-37" d="M 525 4666 
L 3525 4666 
L 3525 4397 
L 1831 0 
L 1172 0 
L 2766 4134 
L 525 4134 
L 525 4666 
z
" transform="scale(0.015625)"/>
      </defs>
      <use xlink:href="#DejaVuSans-37"/>
     </g>
    </g>
    <g id="line2d_26">
     <path d="M 367.02125 185.047781 
L 378.02125 185.047781 
L 389.02125 185.047781 
" style="fill: none; stroke-dasharray: 1.5,2.475; stroke-dashoffset: 0; stroke: #ebb0ce; stroke-width: 1.5"/>
    </g>
    <g id="text_20">
     <!-- 8 -->
     <g style="fill: #262626" transform="translate(397.82125 188.897781) scale(0.11 -0.11)">
      <defs>
       <path id="DejaVuSans-38" d="M 2034 2216 
Q 1584 2216 1326 1975 
Q 1069 1734 1069 1313 
Q 1069 891 1326 650 
Q 1584 409 2034 409 
Q 2484 409 2743 651 
Q 3003 894 3003 1313 
Q 3003 1734 2745 1975 
Q 2488 2216 2034 2216 
z
M 1403 2484 
Q 997 2584 770 2862 
Q 544 3141 544 3541 
Q 544 4100 942 4425 
Q 1341 4750 2034 4750 
Q 2731 4750 3128 4425 
Q 3525 4100 3525 3541 
Q 3525 3141 3298 2862 
Q 3072 2584 2669 2484 
Q 3125 2378 3379 2068 
Q 3634 1759 3634 1313 
Q 3634 634 3220 271 
Q 2806 -91 2034 -91 
Q 1263 -91 848 271 
Q 434 634 434 1313 
Q 434 1759 690 2068 
Q 947 2378 1403 2484 
z
M 1172 3481 
Q 1172 3119 1398 2916 
Q 1625 2713 2034 2713 
Q 2441 2713 2670 2916 
Q 2900 3119 2900 3481 
Q 2900 3844 2670 4047 
Q 2441 4250 2034 4250 
Q 1625 4250 1398 4047 
Q 1172 3844 1172 3481 
z
" transform="scale(0.015625)"/>
      </defs>
      <use xlink:href="#DejaVuSans-38"/>
     </g>
    </g>
    <g id="line2d_27">
     <path d="M 367.02125 201.193719 
L 378.02125 201.193719 
L 389.02125 201.193719 
" style="fill: none; stroke-dasharray: 1.5,2.475; stroke-dashoffset: 0; stroke: #f5d6e6; stroke-width: 1.5"/>
    </g>
    <g id="text_21">
     <!-- 9 -->
     <g style="fill: #262626" transform="translate(397.82125 205.043719) scale(0.11 -0.11)">
      <defs>
       <path id="DejaVuSans-39" d="M 703 97 
L 703 672 
Q 941 559 1184 500 
Q 1428 441 1663 441 
Q 2288 441 2617 861 
Q 2947 1281 2994 2138 
Q 2813 1869 2534 1725 
Q 2256 1581 1919 1581 
Q 1219 1581 811 2004 
Q 403 2428 403 3163 
Q 403 3881 828 4315 
Q 1253 4750 1959 4750 
Q 2769 4750 3195 4129 
Q 3622 3509 3622 2328 
Q 3622 1225 3098 567 
Q 2575 -91 1691 -91 
Q 1453 -91 1209 -44 
Q 966 3 703 97 
z
M 1959 2075 
Q 2384 2075 2632 2365 
Q 2881 2656 2881 3163 
Q 2881 3666 2632 3958 
Q 2384 4250 1959 4250 
Q 1534 4250 1286 3958 
Q 1038 3666 1038 3163 
Q 1038 2656 1286 2365 
Q 1534 2075 1959 2075 
z
" transform="scale(0.015625)"/>
      </defs>
      <use xlink:href="#DejaVuSans-39"/>
     </g>
    </g>
   </g>
   <g id="line2d_28">
    <path d="M 73.832727 216.636172 
L 107.286315 53.581251 
L 133.029105 60.408422 
L 153.958159 70.587305 
L 171.593254 82.315273 
L 186.831619 94.199933 
L 200.247454 105.428434 
L 212.230511 115.684961 
L 223.05751 124.848064 
L 232.932015 133.050243 
L 242.008147 140.359512 
L 250.405405 146.964592 
L 258.218316 153.184534 
L 265.522943 158.95404 
L 272.3814 164.428003 
L 278.845068 169.609919 
L 284.956934 174.619459 
L 290.753325 179.382371 
L 296.265215 183.832403 
L 301.519232 188.157984 
L 306.53843 278.430993 
L 311.342903 249.052838 
L 315.950273 250.794951 
L 320.376076 251.524973 
L 324.634082 252.251033 
L 328.736551 253.058993 
L 332.694446 254.604525 
L 336.517612 256.698367 
L 340.21492 258.750137 
L 343.794392 260.729635 
L 347.263309 262.496278 
L 350.628296 264.270406 
L 353.895399 265.924133 
L 357.070152 267.451123 
L 360.157633 268.84835 
L 363.162513 270.229654 
L 366.089095 271.478745 
L 368.941357 272.70885 
L 371.722981 273.808716 
L 374.43738 274.782265 
L 377.087728 275.739281 
L 379.676977 276.678839 
L 382.207882 277.600113 
L 384.683014 278.303545 
L 387.104778 279.092983 
L 389.475428 279.770757 
L 391.797075 280.436155 
L 394.071705 281.088961 
L 396.301185 281.728984 
L 398.487273 282.267274 
" clip-path="url(#p4307236afb)" style="fill: none; stroke: #882255; stroke-width: 3; stroke-linecap: round"/>
   </g>
  </g>
 </g>
 <defs>
  <clipPath id="p4307236afb">
   <rect x="57.6" y="41.472" width="357.12" height="266.112"/>
  </clipPath>
 </defs>
</svg>
